<?xml version="1.0" encoding="UTF-8" standalone="no"?>
<svg width="350px" height="350px" viewBox="0 0 350 350" version="1.1" xmlns="http://www.w3.org/2000/svg" xmlns:xlink="http://www.w3.org/1999/xlink">
    <!-- Generator: Sketch 41 (35326) - http://www.bohemiancoding.com/sketch -->
    <title>sis_feature6</title>
    <desc>Created with Sketch.</desc>
    <defs>
        <path d="M0,9.99429337 C0,4.47459756 4.46883267,0 10.0017993,0 L139.998201,0 C145.522042,0 150,4.47143064 150,9.99429337 L150,59.3748341 C150,64.89453 145.521996,69.3691275 139.995129,69.3691275 L99.6644295,69.3691275 C99.6644295,69.3691275 101.04698,58 94,58 C86.9530201,58 87.9821847,69.3691275 87.9821847,69.3691275 L10.0070162,69.3691275 C4.48029378,69.3691275 0,64.8976969 0,59.3748341 L0,9.99429337 Z" id="path-1"></path>
        <mask id="mask-2" maskContentUnits="userSpaceOnUse" maskUnits="objectBoundingBox" x="0" y="0" width="150" height="69.3691275" fill="white">
            <use xlink:href="#path-1"></use>
        </mask>
    </defs>
    <g id="homepage" stroke="none" stroke-width="1" fill="none" fill-rule="evenodd">
        <g id="Artboard" transform="translate(-4782.000000, -950.000000)">
            <g id="sis_feature6" transform="translate(4782.000000, 950.000000)">
                <g id="sis_feature2-copy-2" fill="#30526D">
                    <g id="ico_timeSaving1-Copy-2">
                        <ellipse id="Oval-2-Copy-19" opacity="0.58" cx="175" cy="175" rx="175" ry="175"></ellipse>
                        <ellipse id="Oval-2-Copy-19" cx="175" cy="175" rx="150" ry="150"></ellipse>
                    </g>
                </g>
                <g id="action" transform="translate(98.000000, 107.000000)">
                    <use id="Rectangle-17" stroke="#F1FFDF" mask="url(#mask-2)" stroke-width="8" xlink:href="#path-1"></use>
                    <g id="tap" transform="translate(65.436242, 43.194631)" fill="#F1FFDF" stroke="#F1FFDF">
                        <g id="Capa_1">
                            <g id="Group">
                                <g transform="translate(0.000000, 11.753691)" id="Shape">
                                    <path d="M20.6259113,54.794293 C19.8743929,54.794293 19.264465,54.1924622 19.264465,53.4509206 L19.264465,9.49308758 C19.264465,4.30766996 23.2970689,0.0894805018 28.2581792,0.0894805018 C33.2192894,0.0894805018 37.2518934,4.30766996 37.2518934,9.49308758 L37.2518934,38.0719929 C37.2518934,38.8135345 36.6419654,39.4153653 35.8904471,39.4153653 C35.1389287,39.4153653 34.5290008,38.8135345 34.5290008,38.0719929 L34.5290008,9.49308758 C34.5290008,5.79075314 31.7162527,2.77622538 28.2581792,2.77622538 C24.8001056,2.77622538 21.9873576,5.79075314 21.9873576,9.49308758 L21.9873576,53.4509206 C21.9873576,54.1924622 21.3774296,54.794293 20.6259113,54.794293 Z"></path>
                                    <path d="M26.220027,90.202532 C25.8714967,90.202532 25.5229665,90.0708815 25.256123,89.8102672 L5.12189481,62.6290592 C-1.00671141,54.4020283 -0.438385705,50.2402604 3.06869994,46.779733 C6.57578558,43.3165189 12.370101,43.4078682 15.9888252,46.9785522 L21.5870924,52.5024996 C22.1180564,53.0264149 22.1180564,53.878113 21.5870924,54.4020283 C21.0561283,54.9259435 20.1929714,54.9259435 19.6620073,54.4020283 L14.0637402,48.8780808 C11.506944,46.3579141 7.43894252,46.2665648 4.99378499,48.6792617 C2.58947084,51.0516574 2.01342282,53.6825507 7.04697987,60.7295305 L27.1812081,87.9107386 C27.7121721,88.4346539 27.7121721,89.286352 27.1812081,89.8102672 C26.9170875,90.0708815 26.5685572,90.202532 26.220027,90.202532 Z"></path>
                                    <path d="M51.1549829,40.9521834 C50.4034645,40.9521834 49.7935366,40.3503525 49.7935366,39.6088109 L49.7935366,32.8355271 C49.7935366,29.8398066 46.9807885,27.4056157 43.522715,27.4056157 C40.0619185,27.4056157 37.2491705,29.8424933 37.2491705,32.8355271 L37.2491705,39.6088109 C37.2491705,40.3503525 36.6392425,40.9521834 35.8877242,40.9521834 C35.1362058,40.9521834 34.5262779,40.3503525 34.5262779,39.6088109 L34.5262779,32.8355271 C34.5262779,28.3594101 38.5616047,24.7188708 43.522715,24.7188708 C48.4838252,24.7188708 52.5164291,28.3594101 52.5164291,32.8355271 L52.5164291,39.6088109 C52.5164291,40.3503525 51.9065012,40.9521834 51.1549829,40.9521834 Z"></path>
                                    <path d="M66.4140729,40.9521834 C65.6625545,40.9521834 65.0526266,40.3503525 65.0526266,39.6088109 L65.0526266,33.9558997 C65.0526266,31.6184317 62.1826978,29.6463609 58.7845279,29.6463609 C55.3863579,29.6463609 52.5137063,31.6211184 52.5137063,33.9558997 L52.5137063,39.6088109 C52.5137063,40.3503525 51.9037783,40.9521834 51.15226,40.9521834 C50.4007416,40.9521834 49.7908137,40.3503525 49.7908137,39.6088109 L49.7908137,33.9558997 C49.7908137,30.0977341 53.8234176,26.9596161 58.7845279,26.9596161 C63.7401924,26.9596161 67.7755192,30.0977341 67.7755192,33.9558997 L67.7755192,39.6088109 C67.7755192,40.3503525 67.1683141,40.9521834 66.4140729,40.9521834 Z"></path>
                                    <path d="M81.6786087,58.195712 C80.9270903,58.195712 80.3171624,57.5938812 80.3171624,56.8523396 L80.3171624,38.375595 C80.3171624,34.6732606 77.5044143,31.6587328 74.0463408,31.6587328 C70.3513755,31.6587328 67.7755192,33.3997435 67.7755192,34.9607423 L67.7755192,39.6061242 C67.7755192,40.3476658 67.1655912,40.9494966 66.4140729,40.9494966 C65.6625545,40.9494966 65.0526266,40.3476658 65.0526266,39.6061242 L65.0526266,34.9607423 C65.0526266,31.6023112 69.0035437,28.971988 74.0463408,28.971988 C79.0047281,28.971988 83.0400549,33.1901774 83.0400549,38.375595 L83.0400549,56.8523396 C83.0400549,57.5938812 82.430127,58.195712 81.6786087,58.195712 Z"></path>
                                    <path d="M70.7870383,90.9585781 L26.6271665,90.9585781 C25.8756482,90.9585781 25.2139853,90.3567472 25.2139853,89.6152056 C25.2139853,88.873664 25.7749011,88.2718332 26.5264195,88.2718332 L70.7843154,88.2718332 C76.0394981,88.2718332 80.3144395,84.0536437 80.3144395,78.8682261 L80.3144395,55.3074613 C80.3144395,54.5659197 80.9243674,53.9640888 81.6758858,53.9640888 C82.4274041,53.9640888 83.037332,54.5659197 83.037332,55.3074613 L83.037332,78.8655393 C83.0400549,85.5340401 77.5425348,90.9585781 70.7870383,90.9585781 Z"></path>
                                </g>
                            </g>
                        </g>
                    </g>
                    <path d="M94.3798622,45.7116636 C95.3531839,45.7116636 96.1422748,44.8752469 96.1422748,43.8435501 L96.1422748,33.3821146 C96.1422748,32.3504178 95.3531839,31.5140011 94.3798622,31.5140011 C93.4065405,31.5140011 92.6174497,32.3504178 92.6174497,33.3821146 L92.6174497,43.8435501 C92.6174497,44.8752469 93.4065405,45.7116636 94.3798622,45.7116636" id="Fill-7" fill="#F1FFDF"></path>
                    <path d="M79.665397,49.7420799 C79.9920308,50.3416198 80.5842014,50.6766348 81.1932912,50.6766348 C81.4921963,50.6766348 81.7953313,50.5959323 82.0728525,50.4260585 C82.9157557,49.9102101 83.2047914,48.7676719 82.7181305,47.8742155 L77.7857253,38.8176013 C77.2988294,37.9238958 76.2211729,37.6177743 75.3782697,38.1336227 C74.5353666,38.6494711 74.2463309,39.7920093 74.7329917,40.6854657 L79.665397,49.7420799 Z" id="Fill-9" fill="#F1FFDF" transform="translate(78.725561, 44.279840) rotate(-8.000000) translate(-78.725561, -44.279840) "></path>
                    <path d="M64.3044955,54.2720329 L72.8486715,59.5002599 C73.1261927,59.6701337 73.4290927,59.7508362 73.7282329,59.7508362 C74.3373226,59.7508362 74.9297282,59.4155721 75.256127,58.8162813 C75.7427879,57.9228248 75.4539872,56.7802866 74.6108491,56.2644382 L66.066673,51.0362113 C65.2237699,50.5201138 64.1458783,50.8264844 63.6592175,51.7201899 C63.1725566,52.6136463 63.4613573,53.7559355 64.3044955,54.2720329" id="Fill-13" fill="#F1FFDF" transform="translate(69.457672, 55.268180) rotate(-4.000000) translate(-69.457672, -55.268180) "></path>
                    <path d="M114.515919,59.7506711 C114.814825,59.7506711 115.11796,59.6699686 115.395481,59.5000949 L123.939657,54.2718679 C124.78256,53.7560195 125.071596,52.6134813 124.584935,51.7200249 C124.098274,50.8265685 123.020147,50.5201979 122.177479,51.0360463 L113.633303,56.2642732 C112.7904,56.7801216 112.501364,57.9226598 112.988025,58.8161162 C113.314424,59.415407 113.907065,59.7506711 114.515919,59.7506711 Z" id="Fill-19" fill="#F1FFDF" transform="translate(118.786480, 55.268098) rotate(7.000000) translate(-118.786480, -55.268098) "></path>
                    <path d="M106.586323,50.4260585 C106.863845,50.5959323 107.166745,50.6766348 107.465885,50.6766348 C108.074975,50.6766348 108.66738,50.3413707 108.993779,49.7420799 L113.926184,40.6854657 C114.412845,39.7920093 114.123809,38.6494711 113.280906,38.1336227 C112.438238,37.6177743 111.360112,37.9238958 110.873451,38.8176013 L105.941045,47.8742155 C105.454385,48.7676719 105.74342,49.9102101 106.586323,50.4260585 Z" id="Fill-23" fill="#F1FFDF" transform="translate(109.933615, 44.279840) rotate(8.000000) translate(-109.933615, -44.279840) "></path>
                    <path d="" id="Path-16" stroke="#979797"></path>
                    <path d="M17.1006711,16.0939597 L65.4228188,16.0939597" id="Path-15" stroke="#F1FFDF" stroke-width="4" stroke-linecap="round"></path>
                    <path d="M75.4899329,16.0939597 L86.5637584,16.0939597" id="Path-17" stroke="#F1FFDF" stroke-width="4" stroke-linecap="round"></path>
                </g>
            </g>
        </g>
    </g>
</svg>