<?xml version="1.0" encoding="UTF-8" standalone="no"?>
<svg width="350px" height="350px" viewBox="0 0 350 350" version="1.1" xmlns="http://www.w3.org/2000/svg" xmlns:xlink="http://www.w3.org/1999/xlink">
    <!-- Generator: Sketch 41 (35326) - http://www.bohemiancoding.com/sketch -->
    <title>sis_feature3</title>
    <desc>Created with Sketch.</desc>
    <defs></defs>
    <g id="homepage" stroke="none" stroke-width="1" fill="none" fill-rule="evenodd">
        <g id="Artboard" transform="translate(-4789.000000, -496.000000)">
            <g id="sis_feature3" transform="translate(4789.000000, 496.000000)">
                <g id="ico_selfLearn1-Copy-2" transform="translate(-91.000000, -712.000000)">
                    <ellipse id="Oval-2-Copy-21" fill="#30526D" opacity="0.5" cx="266" cy="887" rx="175" ry="175"></ellipse>
                    <ellipse id="Oval-2-Copy-21" fill="#30526D" cx="266" cy="887" rx="150" ry="150"></ellipse>
                    <g id="Page-1" fill="#000000">
                        <g id="Group-3" transform="translate(0.000000, 0.686000)">
                            <path d="M86.3788,11.3089 C86.0948,11.1589 85.8068,11.0389 85.5508,10.8679 C81.6898,8.2899 77.4538,6.5499 72.9308,5.6359 C60.2058,3.0649 47.8778,4.5089 36.0428,9.7839 C29.9248,12.5109 24.5018,16.3119 20.8588,22.0479 C17.3478,27.5759 15.2158,33.7449 13.5038,40.0549 C12.7058,42.9979 12.5618,45.9219 14.1528,48.5799 C15.5568,50.9259 15.0738,52.8039 13.4218,54.6629 C13.2618,54.8429 13.1308,55.0479 12.9968,55.2489 C10.2888,59.2869 7.5678,63.3169 4.8828,67.3699 C3.4488,69.5349 4.3958,70.8629 6.0478,72.0599 C6.5298,72.4099 7.0778,72.7069 7.6398,72.8999 C8.7388,73.2769 9.8648,73.5779 10.9878,73.8839 C11.8988,74.1319 12.0768,74.7179 11.8448,75.5459 C11.4918,76.8109 11.1188,78.0719 10.8158,79.3499 C10.5428,80.5009 11.1628,81.7069 12.2238,82.3269 C12.6188,82.5569 12.9768,82.8509 13.3398,83.1069 C11.6998,85.8479 11.8108,86.6339 13.9228,88.9349 C14.2188,89.2579 14.4198,89.7929 14.4258,90.2329 C14.4368,91.0679 14.3408,91.9199 14.1698,92.7399 C13.7178,94.9059 13.7038,97.0589 14.2978,99.1889 C14.9498,101.5269 16.3348,103.2239 18.8218,103.6839 C20.5938,104.0119 22.3998,104.1619 24.1918,104.3789 C27.5358,104.7829 30.9168,104.9949 34.2148,105.6349 C37.0048,106.1769 38.8038,108.1389 39.3238,110.9669 C39.5968,112.4479 39.4588,114.0039 39.5128,115.5259 C39.6508,119.4549 39.7878,123.3839 39.9338,127.3119 C39.9768,128.4609 40.4738,128.8949 41.7338,128.8879 C52.5928,128.8309 63.4518,128.8469 74.3108,128.8659 C76.2308,128.8689 78.1508,129.0469 80.0708,129.0419 C82.4638,129.0359 84.8568,128.9169 87.2498,128.8629 C88.2878,128.8399 89.2768,128.8289 90.5238,128.8289 C90.1658,124.6869 89.8308,120.7899 89.5468,116.8569 C89.1298,111.0819 88.8968,105.2929 88.3768,99.5279 C87.8188,93.3289 89.2528,87.6659 92.2468,82.2829 C94.1598,78.8429 95.9408,75.3269 97.7388,71.8229 C100.3268,66.7789 101.9768,61.3909 103.0118,55.8559 C103.5088,53.1949 103.4948,50.3939 103.3728,47.6719 C103.2138,44.1089 102.9418,40.5209 102.3248,37.0119 C100.9148,28.9949 97.5748,21.8619 91.8528,15.9549 C91.1298,15.2089 90.3468,14.5209 89.6758,13.8859 L86.3788,11.3089 Z M88.2518,12.6739 C87.7528,12.4489 87.3298,12.0569 86.7268,11.6379 L88.2518,12.6739 Z M6.9558,77.3209 C5.5998,76.5429 4.3438,75.9689 3.2548,75.1689 C-0.1152,72.6919 -0.9892,69.0689 1.2028,65.5219 C3.9468,61.0819 6.9468,56.7989 9.8838,52.4809 C10.4478,51.6509 10.7138,50.9929 10.2058,49.9909 C8.4038,46.4339 8.4648,42.7149 9.4768,38.9499 C11.2368,32.4029 13.5378,26.0339 17.0098,20.2169 C22.0088,11.8409 29.6788,6.7199 38.7318,3.5169 C46.6678,0.7089 54.9268,0.2539 63.2338,0.3199 C70.5728,0.3779 77.5948,1.9229 84.1698,5.2589 C94.2638,10.3809 100.8468,18.5249 104.5458,29.1089 C106.4038,34.4249 107.2288,39.9289 107.5018,45.5419 C108.0648,57.1179 104.9248,67.7389 99.3858,77.7759 C97.7758,80.6949 96.2568,83.6659 94.7508,86.6409 C92.9918,90.1159 92.1668,93.7849 92.4558,97.7109 C92.8168,102.6019 93.0798,107.4999 93.3658,112.3969 C93.4778,114.3029 93.4698,116.2189 93.6378,118.1199 C93.9738,121.9359 94.3998,125.7439 94.7748,129.5559 C94.8808,130.6269 94.9558,131.5459 94.7218,132.1559 C94.4398,132.7659 94.0358,132.9659 93.6088,132.9669 C89.5068,132.9709 85.4048,132.9949 81.3028,132.9609 C78.4828,132.9369 75.6638,132.7629 72.8448,132.7729 C61.3508,132.8159 49.8568,132.8879 38.3638,132.9999 C37.2398,133.0109 36.3568,132.3409 36.2438,130.6969 C35.7218,123.1399 35.8188,120.9739 35.6198,114.6019 C35.4838,110.2399 34.8528,109.5179 30.5238,109.0419 C27.2488,108.6819 23.9508,108.5319 20.6688,108.2299 C13.6608,107.5869 9.7788,103.3719 9.7318,96.3149 C9.7228,94.8799 10.0028,93.4439 10.0788,92.0049 C10.1018,91.5719 10.0068,91.0339 9.7568,90.7019 C8.4118,88.9089 7.7918,86.9509 8.1248,84.7089 C8.1638,84.4519 8.1498,84.1169 8.0138,83.9149 C6.6318,81.8529 6.2948,79.6279 6.9558,77.3209 L6.9558,77.3209 Z" id="Fill-1"></path>
                        </g>
                        <path d="M68.1612,46.7017 C68.1692,52.4117 72.8272,57.0557 78.5232,57.0327 C84.1702,57.0107 88.7742,52.3957 88.7992,46.7337 C88.8232,41.0307 84.1812,36.3467 78.4942,36.3387 C72.8002,36.3297 68.1532,40.9907 68.1612,46.7017 M78.3042,28.1137 C80.0682,28.3587 81.6702,28.5807 83.3572,28.8147 C82.7112,31.3147 83.1642,33.3067 85.2532,34.5937 C87.4712,35.9607 89.4822,35.2977 91.4362,33.4437 C92.5012,34.8127 93.5142,36.1137 94.5842,37.4887 C92.2642,38.8507 91.1872,40.6607 91.8792,43.1377 C92.5442,45.5217 94.4082,46.4107 96.9692,46.5447 C96.7772,48.2067 96.5912,49.8087 96.3902,51.5417 C93.6672,50.9457 91.5072,51.4377 90.3142,53.9457 C89.3232,56.0307 89.9672,57.8537 91.7242,59.6347 C90.3692,60.6977 89.0512,61.7327 87.6572,62.8257 C86.3042,60.4367 84.4402,59.4107 81.9932,60.1097 C79.6942,60.7657 78.7132,62.5487 78.6962,65.1987 C77.0102,65.0067 75.3822,64.8217 73.6272,64.6227 C74.1902,61.9257 73.7452,59.7857 71.3072,58.5677 C69.1782,57.5037 67.3342,58.1927 65.5342,59.9457 C64.4752,58.5937 63.4592,57.2977 62.3822,55.9217 C64.6752,54.4587 65.8752,52.6477 65.0132,50.0557 C64.2652,47.8077 62.5242,46.9227 59.9462,46.9207 C60.1602,45.2317 60.3672,43.6027 60.5892,41.8487 C63.2442,42.4267 65.3682,41.9387 66.5982,39.5377 C67.7112,37.3647 66.9572,35.4927 65.2312,33.7197 C66.5762,32.6667 67.8592,31.6637 69.2482,30.5767 C70.7002,32.8817 72.5612,34.1007 75.1802,33.1957 C77.3992,32.4297 78.2532,30.6367 78.3042,28.1137" id="Fill-4"></path>
                        <path d="M49.5739,37.5414 C53.3279,37.5294 56.3739,34.4694 56.3809,30.7024 C56.3879,26.9284 53.3619,23.8804 49.5879,23.8604 C45.7799,23.8404 42.6769,26.9484 42.7109,30.7494 C42.7439,34.4994 45.8299,37.5534 49.5739,37.5414 M44.8819,42.7764 C43.7259,42.1174 42.5929,41.4734 41.4939,40.8474 C42.6129,36.9614 41.4479,35.4014 37.7529,36.0004 C37.4149,34.7554 37.0689,33.4834 36.7259,32.2214 C39.8929,31.2374 40.5789,28.1774 37.3869,26.2464 C38.0489,25.0484 38.7159,23.8434 39.4239,22.5634 C40.8539,23.4264 42.1739,23.7674 43.4519,22.6994 C44.6039,21.7364 44.6149,20.4934 44.1059,18.9394 C45.4099,18.5664 46.6829,18.2014 48.0319,17.8154 C48.4119,19.4964 49.0559,20.7454 50.8009,20.8864 C52.4109,21.0174 53.3179,20.0824 53.9679,18.5024 C55.2289,19.2054 56.4249,19.8734 57.6829,20.5754 C57.4579,20.9824 57.3159,21.2124 57.1999,21.4554 C56.6989,22.5114 56.6769,23.5644 57.3749,24.5354 C58.0799,25.5144 59.1049,25.9094 60.2409,25.5874 C61.1309,25.3354 61.5059,25.5994 61.6909,26.4174 C61.9199,27.4254 62.1709,28.4284 62.4069,29.4124 C59.2909,30.6454 58.5819,33.2014 61.6009,35.4464 C60.9329,36.5904 60.2559,37.7504 59.5709,38.9234 C59.0169,38.7344 58.6199,38.5584 58.2039,38.4644 C56.3149,38.0344 54.6119,39.3484 54.7939,41.2594 C54.8939,42.3204 54.4979,42.7024 53.6199,42.9144 C53.1519,43.0264 52.6909,43.1654 52.2259,43.2864 C51.3169,43.5234 50.6939,43.5624 50.2299,42.3744 C49.4939,40.4904 46.9799,40.2524 45.6299,41.7774 C45.3949,42.0424 45.2019,42.3454 44.8819,42.7764" id="Fill-6"></path>
                        <path d="M68.9066,21.7603 C70.4016,21.7523 71.6796,20.4673 71.6696,18.9833 C71.6596,17.4863 70.3856,16.2363 68.8786,16.2443 C67.3576,16.2513 66.1276,17.4953 66.1406,19.0143 C66.1526,20.5423 67.3886,21.7693 68.9066,21.7603 M63.6626,12.2703 C64.5006,11.7813 65.2516,11.3433 66.1186,10.8383 C66.7586,12.1953 67.5716,13.2963 69.1486,13.2623 C70.6606,13.2293 71.5426,12.2933 72.0806,10.8293 C72.9426,11.3183 73.7326,11.7663 74.6276,12.2753 C73.6166,13.5473 73.1896,14.8353 74.0906,16.2033 C74.8616,17.3743 76.0216,17.6823 77.5106,17.4153 L77.5106,20.1423 C73.6216,20.8033 72.6256,22.5283 74.5936,25.4743 C73.7826,25.9483 72.9806,26.4173 72.1826,26.8843 C70.1636,23.6853 68.1966,23.6763 66.0506,26.8673 C65.2826,26.4273 64.5036,25.9823 63.7096,25.5283 C65.5246,23.0533 64.6686,20.0643 60.7346,20.2253 L60.7346,17.5553 C64.4936,17.3163 65.6526,15.3273 63.6626,12.2703" id="Fill-8"></path>
                        <path d="M82.6311,46.6302 C82.6041,44.3202 80.6361,42.3962 78.3771,42.4702 C76.1801,42.5422 74.3111,44.4552 74.2891,46.6542 C74.2671,48.9112 76.2491,50.9192 78.4871,50.9032 C80.7741,50.8882 82.6581,48.9442 82.6311,46.6302 M70.6871,46.7312 C70.6691,42.3412 74.1201,38.8642 78.4901,38.8672 C82.7831,38.8712 86.2641,42.3362 86.3011,46.6422 C86.3381,50.9672 82.8101,54.5092 78.4641,54.5112 C74.1621,54.5132 70.7041,51.0542 70.6871,46.7312" id="Fill-10"></path>
                        <path d="M46.955,30.5887 C46.958,29.1187 48.058,27.9967 49.516,27.9777 C51.007,27.9587 52.204,29.1387 52.193,30.6177 C52.182,32.0867 50.933,33.3077 49.486,33.2647 C48.06,33.2217 46.952,32.0507 46.955,30.5887" id="Fill-12"></path>
                    </g>
                    <g id="Page-1" transform="translate(194.000000, 799.000000)">
                        <g id="Group-3" transform="translate(0.000000, 0.856764)" fill="#F1FFDF">
                            <path d="M107.9735,14.1239993 C107.6185,13.9366601 107.2585,13.7867888 106.9385,13.5732222 C102.11225,10.3534864 96.81725,8.18035203 91.1635,7.03883205 C75.25725,3.82783874 59.84725,5.63129044 45.0535,12.2193845 C37.406,15.6252105 30.62725,20.372385 26.0735,27.5362347 C21.68475,34.4403074 19.01975,42.1449429 16.87975,50.0256771 C15.88225,53.7012716 15.70225,57.3531364 17.691,60.6727864 C19.446,63.602771 18.84225,65.9482573 16.77725,68.2700141 C16.57725,68.4948211 16.4135,68.7508513 16.246,69.0018857 C12.861,74.0450561 9.45975,79.078235 6.1035,84.1401393 C4.311,86.8440679 5.49475,88.502644 7.55975,89.9976106 C8.16225,90.4347353 8.84725,90.8056668 9.54975,91.0467099 C10.9235,91.5175557 12.331,91.8934829 13.73475,92.2756548 C14.8735,92.5853889 15.096,93.3172606 14.806,94.3513728 C14.36475,95.9312664 13.8985,97.5061644 13.51975,99.102294 C13.1785,100.53981 13.9535,102.046017 15.27975,102.820352 C15.7735,103.107605 16.221,103.47479 16.67475,103.794516 C14.62475,107.217827 14.7635,108.199484 17.4035,111.073267 C17.7735,111.47667 18.02475,112.144847 18.03225,112.694375 C18.046,113.73723 17.926,114.801316 17.71225,115.825437 C17.14725,118.530615 17.12975,121.219556 17.87225,123.879772 C18.68725,126.799765 20.4185,128.919196 23.52725,129.493703 C25.74225,129.903351 27.99975,130.09069 30.23975,130.361707 C34.41975,130.866274 38.646,131.131047 42.7685,131.930361 C46.256,132.607279 48.50475,135.057676 49.15475,138.589644 C49.496,140.439306 49.3235,142.382637 49.391,144.283505 C49.5635,149.190542 49.73475,154.09758 49.91725,159.003368 C49.971,160.438386 50.59225,160.980421 52.16725,160.971678 C65.741,160.900489 79.31475,160.920472 92.8885,160.944202 C95.2885,160.947949 97.6885,161.170258 100.0885,161.164013 C103.07975,161.156519 106.071,161.007897 109.06225,160.940455 C110.35975,160.91173 110.631714,160.897991 112.190464,160.897991 C112.190464,155.557029 112.2885,150.857861 111.9335,145.945828 C111.41225,138.73327 111.121,131.503227 110.471,124.303159 C109.7735,116.561055 111.566,109.488377 115.3085,102.765399 C117.69975,98.4690877 119.926,94.0778576 122.1735,89.7016147 C125.4085,83.402023 127.471,76.6728001 128.76475,69.7599849 C129.386,66.4365881 129.3685,62.9383414 129.216,59.53876 C129.01725,55.0888303 128.67725,50.6076775 127.906,46.2251899 C126.1435,36.2125359 121.9685,27.3039341 114.816,19.9265178 C113.91225,18.9948176 112.9335,18.1355553 112.09475,17.3424862 L107.9735,14.1239993 Z M110.31475,15.8287857 C109.691,15.547777 109.16225,15.0581973 108.4085,14.5348966 L110.31475,15.8287857 Z M8.69475,96.5682196 C6.99975,95.5965538 5.42975,94.8796692 4.0685,93.880527 C-0.144,90.7869329 -1.2365,86.2620676 1.5035,81.8321208 C4.9335,76.2868815 8.6835,70.9377238 12.35475,65.5448537 C13.05975,64.5082436 13.39225,63.6864491 12.75725,62.4350235 C10.50475,57.9925874 10.581,53.347825 11.846,48.6456119 C14.046,40.4688818 16.92225,32.5144608 21.26225,25.2494479 C27.511,14.7884289 37.0985,8.39266975 48.41475,4.39235409 C58.33475,0.8853649 68.6585,0.317102762 79.04225,0.399531995 C88.216,0.471969806 96.9935,2.40156322 105.21225,6.56798628 C117.82975,12.9649943 126.0585,23.1362621 130.68225,36.3549137 C133.00475,42.9942138 134.036,49.8683122 134.37725,56.8785438 C135.081,71.3361318 131.156,84.6009937 124.23225,97.1364817 C122.21975,100.782102 120.321,104.492666 118.4385,108.208226 C116.23975,112.54825 115.2085,117.130566 115.56975,122.033857 C116.021,128.142363 116.34975,134.259611 116.70725,140.37561 C116.84725,142.756067 116.83725,145.149012 117.04725,147.523224 C117.46725,152.289132 117.035464,157.045049 117.504214,161.805962 C117.636714,163.143564 117.730464,164.291328 117.437964,165.053174 C117.085464,165.81502 116.580464,166.064806 116.046714,166.066055 C110.919214,166.07105 106.756,166.101025 101.6285,166.058561 C98.1035,166.028587 94.57975,165.811273 91.056,165.823763 C76.6885,165.877466 62.321,165.967389 47.95475,166.107269 C46.54975,166.121007 45.446,165.284226 45.30475,163.230989 C44.65225,153.792841 44.7735,151.087664 44.52475,143.129496 C44.35475,137.681673 43.566,136.779947 38.15475,136.185458 C34.061,135.735844 29.9385,135.548504 25.836,135.171328 C17.076,134.368268 12.2235,129.104037 12.16475,120.290354 C12.1535,118.498142 12.5035,116.704682 12.5985,114.907475 C12.62725,114.366689 12.5085,113.694766 12.196,113.280122 C10.51475,111.040795 9.73975,108.595394 10.156,105.795298 C10.20475,105.474324 10.18725,105.055933 10.01725,104.803649 C8.28975,102.22836 7.8685,99.449496 8.69475,96.5682196 L8.69475,96.5682196 Z" id="Fill-1"></path>
                        </g>
                        <g id="Layer_1-Copy" transform="translate(78.500000, 55.500000) scale(-1, 1) translate(-78.500000, -55.500000) translate(45.000000, 22.000000)">
                            <g id="Group">
                                <path d="M29.6422626,23.1661942 L32.1027668,23.1661942 C32.4898125,25.1498165 33.2639037,26.9797779 34.3282791,28.6002018 L32.5865739,30.3603174 C31.9645363,30.9889301 31.9645363,32.0086796 32.5865739,32.6372923 L34.4803327,34.5510687 C35.1023703,35.1796814 36.1114535,35.1796814 36.7334911,34.5510687 L38.4751963,32.7909531 C40.078671,33.8805485 41.9033146,34.6488529 43.8523657,35.0399897 L43.8523657,37.5265022 C43.8523657,38.4205291 44.5711647,39.1329569 45.4420173,39.1329569 L48.1236904,39.1329569 C49.0083661,39.1329569 49.7133421,38.40656 49.7133421,37.5265022 L49.7133421,35.0399897 C51.6762162,34.6488529 53.4870367,33.8665793 55.0905114,32.7909531 L56.8322166,34.5510687 C57.4542542,35.1796814 58.4633374,35.1796814 59.085375,34.5510687 L60.9791339,32.6372923 C61.6011715,32.0086796 61.6011715,30.9889301 60.9791339,30.3603174 L59.2374286,28.6002018 C60.3156271,26.9797779 61.0758953,25.1358473 61.4629409,23.1661942 L63.9234451,23.1661942 C64.8081208,23.1661942 65.5130967,22.4397973 65.5130967,21.5597395 L65.5130967,18.8636894 C65.5130967,17.9696625 64.7942977,17.2572347 63.9234451,17.2572347 L61.4629409,17.2572347 C61.0758953,15.2736124 60.3018041,13.443651 59.2374286,11.8232271 L60.9791339,10.0631116 C61.6011715,9.43449886 61.6011715,8.41474936 60.9791339,7.78613666 L59.071552,5.8723602 C58.4495144,5.24374749 57.4404312,5.24374749 56.8183936,5.8723602 L55.0766883,7.63247577 C53.4732137,6.54288042 51.6485701,5.774576 49.699519,5.38343921 L49.699519,2.89692673 C49.699519,2.00289977 48.98072,1.29047204 48.1098674,1.29047204 L45.4281942,1.29047204 C44.5435186,1.29047204 43.8385426,2.01686894 43.8385426,2.89692673 L43.8385426,5.38343921 C41.8756685,5.774576 40.0648479,6.55684959 38.4613733,7.63247577 L36.7334911,5.8723602 C36.1114535,5.24374749 35.1023703,5.24374749 34.4803327,5.8723602 L32.5865739,7.78613666 C31.9645363,8.41474936 31.9645363,9.43449886 32.5865739,10.0631116 L34.3282791,11.8232271 C33.2500806,13.443651 32.4898125,15.2875816 32.1027668,17.2572347 L29.6422626,17.2572347 C28.7575869,17.2572347 28.052611,17.9836316 28.052611,18.8636894 L28.052611,21.5737087 C28.052611,22.4537664 28.7575869,23.1661942 29.6422626,23.1661942 Z M46.7690308,13.359836 C50.5150794,13.359836 53.556152,16.4330536 53.556152,20.218699 C53.556152,24.0043444 50.5150794,27.0775621 46.7690308,27.0775621 C43.0229822,27.0775621 39.9819096,24.0043444 39.9819096,20.218699 C39.9819096,16.4330536 43.0229822,13.359836 46.7690308,13.359836 Z" id="XMLID_698_"></path>
                                <path d="M47.8657922,51.8786214 C47.6722694,52.3675424 47.1193471,52.5910491 46.6493632,52.3954807 L43.5253522,51.0823786 C42.9724299,50.8449027 42.3365692,51.0404711 42.0048159,51.5433613 C40.594864,53.6806445 38.7978665,55.4966367 36.6829387,56.9214922 C36.1853087,57.2567523 35.9917859,57.8993342 36.2267778,58.458101 L37.5123222,61.6151337 C37.705845,62.0900855 37.4846761,62.6488524 37.0008691,62.8444208 L33.6003969,64.2832454 C33.130413,64.4788138 32.5774907,64.2553071 32.3839679,63.7663861 L31.0846005,60.6093534 C30.8496085,60.0505865 30.2690401,59.7292956 29.6884717,59.8550181 C27.2003213,60.3579083 24.6707018,60.3579083 22.1687284,59.8550181 C21.58816,59.7432648 20.9937685,60.0505865 20.7725996,60.6093534 L19.4732322,63.7663861 C19.2797094,64.2413379 18.7267871,64.4788138 18.2568031,64.2832454 L14.856331,62.8583899 C14.621339,62.7606057 14.4416393,62.5790065 14.3448779,62.3415306 C14.2481165,62.1040547 14.2481165,61.8526096 14.3448779,61.6151337 L15.6442453,58.458101 C15.8792373,57.8993342 15.6857145,57.2567523 15.1880844,56.9214922 C13.0731566,55.4966367 11.2761591,53.6806445 9.86620726,51.5433613 C9.53445388,51.0404711 8.89859324,50.8449027 8.34567094,51.0823786 L5.22165995,52.3954807 C4.73785294,52.5910491 4.1987537,52.3675424 4.0052309,51.8786214 L2.59527904,48.4422052 C2.40175623,47.9672534 2.62292515,47.4084866 3.10673216,47.2129182 L6.23074315,45.8998161 C6.78366545,45.6623402 7.10159577,45.075635 6.97718825,44.4889298 C6.47955818,41.974479 6.47955818,39.4181206 6.97718825,36.8897006 C7.08777271,36.3029955 6.78366545,35.7023211 6.23074315,35.4788143 L3.10673216,34.1657123 C2.87174019,34.0679281 2.69204044,33.8863288 2.59527904,33.6488529 C2.49851764,33.411377 2.49851764,33.1599319 2.59527904,32.922456 L4.0052309,29.4860399 C4.1019923,29.248564 4.28169205,29.0669648 4.51668402,28.9691806 C4.751676,28.8713964 5.00049104,28.8713964 5.23548301,28.9691806 L8.359494,30.2822827 C8.9124163,30.5197586 9.54827694,30.3241902 9.88003032,29.8213 C11.2899822,27.6840168 13.0869796,25.8680245 15.2019074,24.4431691 C15.6995375,24.107909 15.8930603,23.4653271 15.6580683,22.9065602 L14.3587009,19.7495276 C14.2619395,19.5120516 14.2619395,19.2606066 14.3587009,19.0231306 C14.4554623,18.7856547 14.6351621,18.6040555 14.8701541,18.5062713 L18.2706262,17.0814158 C18.7406101,16.8858475 19.2935324,17.1093542 19.4870553,17.5982752 L20.7864227,20.7553079 C21.0490607,21.3978898 21.7816828,21.7052115 22.4175434,21.4397973 C23.0534041,21.174383 23.3575113,20.4340169 23.0948732,19.7914351 L21.7955058,16.6344024 C21.0628838,14.8603176 19.0585405,14.0221673 17.3030122,14.7485643 L13.90254,16.1734197 C13.0593335,16.522649 12.3958268,17.1931692 12.0364273,18.0592578 C11.6908508,18.9113773 11.6908508,19.8612809 12.0364273,20.7273695 L12.9487491,22.9484678 C11.2070438,24.2476007 9.67268446,25.7981787 8.37331706,27.5722634 L6.17545092,26.6502981 C5.33224441,26.3010689 4.39227651,26.3010689 3.53524695,26.6502981 C2.69204044,26.9995274 2.02853368,27.6700476 1.66913419,28.5361363 L0.259182327,31.9725524 C-0.0863941091,32.8246718 -0.0863941091,33.7745755 0.259182327,34.6406641 C0.604758764,35.4927835 1.26826552,36.1633037 2.12529508,36.5265022 L4.32316122,37.4484675 C3.99140784,39.6276582 3.99140784,41.8068489 4.32316122,43.9860396 L2.12529508,44.9080049 C0.369766787,45.648371 -0.45961666,47.6739008 0.259182327,49.4479856 L1.66913419,52.8424942 C2.38793318,54.6165789 4.40609956,55.4547292 6.16162786,54.7283323 L8.359494,53.806367 C9.64503834,55.5664826 11.1793977,57.1170606 12.934926,58.4301627 L12.0226042,60.6512609 C11.6770278,61.5033803 11.6770278,62.453284 12.0226042,63.3193726 C12.3681807,64.171492 13.0316874,64.8420123 13.888717,65.2052107 L17.2891891,66.6300662 C19.0447174,67.3564631 21.0628838,66.5183128 21.7816828,64.7442281 L22.6940046,62.5231298 C24.8504015,62.8583899 27.0067985,62.8583899 29.1631955,62.5231298 L30.0755173,64.7442281 C30.6284396,66.0852685 31.9139839,66.8954804 33.2548205,66.8954804 C33.6971583,66.8954804 34.1394962,66.8116654 34.5680109,66.6300662 L37.9684831,65.2052107 C39.7240114,64.4648446 40.5533948,62.4393148 39.8345958,60.6652301 L38.922274,58.4441318 C40.6639793,57.1449989 42.1983387,55.5944209 43.4977061,53.8203362 L45.6955722,54.7423015 C47.4511005,55.4826675 49.4692669,54.6305481 50.1880659,52.8564633 L51.5980177,49.4200472 C51.9435942,48.5679278 51.9435942,47.6180241 51.5980177,46.7519355 C51.2524413,45.8998161 50.5889345,45.2292959 49.731905,44.8660974 L46.607894,43.5529953 C45.9720333,43.2875811 45.2394113,43.5949028 44.9767732,44.2374847 C44.7141351,44.8800666 45.0182424,45.6204327 45.654103,45.8858469 L48.778114,47.198949 C49.013106,47.2967332 49.1928057,47.4783324 49.2895671,47.7158083 C49.3863285,47.9532843 49.3863285,48.2047293 49.2895671,48.4422052 L47.8657922,51.8786214 Z" id="Shape" stroke="#F1FFDF" stroke-width="0.8" stroke-linecap="round" stroke-linejoin="round" fill="#F1FFDF"></path>
                                <path d="M25.8594847,32.0423982 C26.5506376,32.0423982 27.1035599,31.4696622 27.1035599,30.7712036 C27.1035599,30.0727451 26.5368146,29.5139782 25.8456617,29.5139782 C25.8456617,29.5139782 25.8456617,29.5139782 25.8318386,29.5139782 C22.8737043,29.5419166 20.1090928,30.715327 18.0356342,32.838641 C15.9621756,34.961955 14.8286849,37.7837276 14.856331,40.7591611 C14.8839771,43.7485637 16.0451139,46.542398 18.1462187,48.6377736 C20.2335004,50.7191802 22.9842888,51.850683 25.9009539,51.850683 L25.9838923,51.850683 C28.9420266,51.8227447 31.706638,50.6493343 33.7800967,48.5260203 C35.8535553,46.4027062 36.987046,43.5809337 36.9593999,40.6055002 C36.9593999,39.9070416 36.3926545,39.3482748 35.7015017,39.3482748 C35.7015017,39.3482748 35.7015017,39.3482748 35.6876786,39.3482748 C34.9965257,39.3482748 34.4436034,39.9210108 34.4436034,40.6194694 C34.4574265,42.9243826 33.5865739,45.1035733 31.9830992,46.7519355 C30.3796245,48.4002977 28.2370506,49.3082939 25.9562461,49.322263 L25.8871309,49.322263 C23.6339725,49.322263 21.4913986,48.4422052 19.8879239,46.8357506 C18.2568031,45.2153267 17.3583044,43.0501052 17.3444813,40.7451919 C17.3306583,38.4402786 18.2015109,36.2610879 19.8049856,34.6127257 C21.4361064,32.9783327 23.5786803,32.0563674 25.8594847,32.0423982 Z" id="Shape" stroke="#F1FFDF" stroke-width="0.8" stroke-linecap="round" stroke-linejoin="round" fill="#F1FFDF"></path>
                                <path d="M63.9096221,24.4373888 C65.4716276,24.4373888 66.7571719,23.152225 66.7571719,21.5597395 L66.7571719,18.8636894 C66.7571719,17.2851731 65.4854506,15.9860402 63.9096221,15.9860402 L62.458201,15.9860402 C62.0849785,14.589123 61.5458792,13.2480826 60.8270802,12.0048264 L61.8638096,10.9571385 C62.9696542,9.83960483 62.9696542,8.0096434 61.8638096,6.8921097 L59.9700507,4.97833324 C59.4309514,4.43353556 58.7121525,4.14018297 57.9657074,4.14018297 C57.2054392,4.14018297 56.4866402,4.43353556 55.961364,4.97833324 L54.9246347,6.02602108 C53.6805595,5.29962418 52.3673691,4.74085733 50.9850633,4.37765888 L50.9850633,2.89692673 C50.9850633,1.31841038 49.7133421,0.0192774563 48.1375135,0.0192774563 L45.4558404,0.0192774563 C43.8938349,0.0192774563 42.6082905,1.30444121 42.6082905,2.89692673 L42.6082905,4.37765888 C41.2259848,4.7548265 39.8989713,5.29962418 38.6687191,6.02602108 L37.6319898,4.97833324 C37.0928906,4.43353556 36.3740916,4.14018297 35.6276465,4.14018297 C34.8673783,4.14018297 34.1485794,4.43353556 33.6233032,4.97833324 L31.7295443,6.8921097 C30.6236997,8.0096434 30.6236997,9.83960483 31.7295443,10.9571385 L32.7662736,12.0048264 C32.0474746,13.2620518 31.4945523,14.589123 31.1351528,15.9860402 L29.6699087,15.9860402 C28.1079032,15.9860402 26.8223589,17.2712039 26.8223589,18.8636894 L26.8223589,21.5737087 C26.8223589,23.152225 28.0940802,24.4513579 29.6699087,24.4513579 L31.1351528,24.4513579 C31.5083754,25.848275 32.0474746,27.1893155 32.7662736,28.4325717 L31.7295443,29.4802596 C30.6236997,30.5977933 30.6236997,32.4277547 31.7295443,33.5452884 L33.6233032,35.4590648 C34.1624024,36.0038625 34.8812014,36.2972151 35.6276465,36.2972151 C36.3879147,36.2972151 37.1067136,36.0038625 37.6319898,35.4590648 L38.6687191,34.411377 C39.9127943,35.1377739 41.2259848,35.6965408 42.6082905,36.0597392 L42.6082905,37.5404714 C42.6082905,39.1189877 43.8800118,40.4181206 45.4558404,40.4181206 L48.1375135,40.4181206 C49.699519,40.4181206 50.9850633,39.1329569 50.9850633,37.5404714 L50.9850633,36.04577 C52.3673691,35.6686024 53.6943826,35.1238047 54.9246347,34.3974078 L55.961364,35.4450957 C56.5004633,35.9898934 57.2192623,36.283246 57.9657074,36.283246 C58.7259755,36.283246 59.4447745,35.9898934 59.9700507,35.4450957 L61.8638096,33.5313192 C62.9696542,32.4137855 62.9696542,30.5838241 61.8638096,29.4662904 L60.8270802,28.4186026 C61.5458792,27.1613771 62.0988015,25.8343059 62.458201,24.4373888 L63.9096221,24.4373888 L63.9096221,24.4373888 Z M60.2326888,22.9287183 C59.8871123,24.7167722 59.1959595,26.3930727 58.1868763,27.9157124 C57.8551229,28.4186026 57.9242382,29.0891228 58.3389299,29.5081979 L60.0806351,31.2683135 C60.2188657,31.4080052 60.2188657,31.6175428 60.0806351,31.7572345 L58.1868763,33.6710109 C58.1039379,33.754826 58.0071765,33.7687951 57.9518843,33.7687951 C57.882769,33.7687951 57.7998307,33.754826 57.7168923,33.6710109 L55.9751871,31.9108954 C55.5466723,31.4778511 54.8831655,31.4219744 54.3993585,31.7572345 C52.8926453,32.776984 51.2338784,33.4614734 49.464527,33.8246718 C48.8839586,33.9364252 48.4554438,34.4672537 48.4554438,35.0679281 L48.4554438,37.5544405 C48.4554438,37.7360398 48.3033902,37.8897006 48.1236904,37.8897006 L45.4420173,37.8897006 C45.2623175,37.8897006 45.1102639,37.7360398 45.1102639,37.5544405 L45.1102639,35.0679281 C45.1102639,34.4672537 44.6817491,33.9503944 44.1011807,33.8246718 C42.3318294,33.4754425 40.6730625,32.776984 39.1663492,31.7572345 C38.9590033,31.6175428 38.7101883,31.5476969 38.4751963,31.5476969 C38.157266,31.5476969 37.8255126,31.6734194 37.5905207,31.9248645 L35.8488154,33.6849801 C35.7658771,33.7687951 35.6691157,33.7827643 35.6138234,33.7827643 C35.5447082,33.7827643 35.4617698,33.7687951 35.3788315,33.6849801 L33.4850726,31.7712036 C33.346842,31.6315119 33.346842,31.4219744 33.4850726,31.2822827 L35.2267778,29.5221671 C35.6552926,29.0891228 35.7105848,28.4186026 35.3788315,27.9296816 C34.3697483,26.4070419 33.6924185,24.7307413 33.333019,22.9426874 C33.2224345,22.3559822 32.6971583,21.9229379 32.1027668,21.9229379 L29.6422626,21.9229379 C29.4625629,21.9229379 29.3105092,21.7692771 29.3105092,21.5876778 L29.3105092,18.8636894 C29.3105092,18.6820902 29.4625629,18.5284293 29.6422626,18.5284293 L32.1027668,18.5284293 C32.6971583,18.5284293 33.2086114,18.095385 33.333019,17.5086798 C33.6785954,15.7206259 34.3697483,14.0443254 35.3788315,12.5216857 C35.7105848,12.0187955 35.6414696,11.3482753 35.2267778,10.9292002 L33.4850726,9.16908461 C33.4021342,9.08526958 33.3883112,8.98748538 33.3883112,8.9316087 C33.3883112,8.86176284 33.4021342,8.77794781 33.4850726,8.69413279 L35.3650084,6.76638716 C35.4479468,6.68257213 35.5447082,6.66860296 35.6000004,6.66860296 C35.6691157,6.66860296 35.752054,6.68257213 35.8349924,6.76638716 L37.5766976,8.52650273 C38.0052124,8.95954704 38.6687191,9.01542372 39.1525262,8.68016361 C40.6592394,7.66041412 42.3180063,6.97592473 44.0873577,6.61272627 C44.6679261,6.5009729 45.0964409,5.9701444 45.0964409,5.36947003 L45.0964409,2.89692673 C45.0964409,2.7153275 45.2484945,2.56166662 45.4281942,2.56166662 L48.1098674,2.56166662 C48.2895671,2.56166662 48.4416208,2.7153275 48.4416208,2.89692673 L48.4416208,5.38343921 C48.4416208,5.98411357 48.8701355,6.5009729 49.450704,6.62669544 C51.2200553,6.97592473 52.8788222,7.67438329 54.3855355,8.69413279 C54.8831655,9.0293929 55.5466723,8.95954704 55.961364,8.5404719 L57.7030693,6.78035633 C57.7860076,6.6965413 57.882769,6.68257213 57.9380612,6.68257213 C58.0071765,6.68257213 58.0901149,6.6965413 58.1730532,6.78035633 L60.0668121,8.69413279 C60.2050427,8.8338245 60.2050427,9.04336207 60.0668121,9.18305378 L58.3251068,10.9431694 C57.8965921,11.3762137 57.8412998,12.0467339 58.1730532,12.5356549 C59.1821364,14.0582945 59.8594662,15.7345951 60.2188657,17.522649 C60.3294502,18.1093542 60.8547264,18.5423985 61.4491178,18.5423985 L63.9096221,18.5423985 C64.0893218,18.5423985 64.2413754,18.6960594 64.2413754,18.8776586 L64.2413754,21.5876778 C64.2413754,21.7692771 64.0893218,21.9229379 63.9096221,21.9229379 L61.4491178,21.9229379 C60.8547264,21.9089688 60.3432732,22.3280439 60.2326888,22.9287183 Z" id="Shape" stroke="#F1FFDF" stroke-width="0.8" stroke-linecap="round" stroke-linejoin="round" fill="#F1FFDF"></path>
                                <path d="M46.7828539,12.0886414 C42.3456524,12.0886414 38.7516575,15.7345951 38.7516575,20.2047299 C38.7516575,24.6888338 42.3594755,28.3208184 46.7828539,28.3208184 C51.2200553,28.3208184 54.8140503,24.6748647 54.8140503,20.2047299 C54.8140503,15.7345951 51.2062323,12.0886414 46.7828539,12.0886414 Z M46.7828539,25.7923984 C43.7279582,25.7923984 41.2536309,23.2919167 41.2536309,20.2047299 C41.2536309,17.117543 43.7279582,14.6170614 46.7828539,14.6170614 C49.8377496,14.6170614 52.3120769,17.117543 52.3120769,20.2047299 C52.3120769,23.2919167 49.8239265,25.7923984 46.7828539,25.7923984 Z" id="Shape" stroke="#F1FFDF" stroke-width="0.8" stroke-linecap="round" stroke-linejoin="round" fill="#F1FFDF"></path>
                            </g>
                        </g>
                    </g>
                </g>
            </g>
        </g>
    </g>
</svg>