<?xml version="1.0" encoding="UTF-8" standalone="no"?>
<svg width="350px" height="350px" viewBox="0 0 350 350" version="1.1" xmlns="http://www.w3.org/2000/svg" xmlns:xlink="http://www.w3.org/1999/xlink">
    <!-- Generator: Sketch 41 (35326) - http://www.bohemiancoding.com/sketch -->
    <title>ico_timeSaving1 Copy</title>
    <desc>Created with Sketch.</desc>
    <defs></defs>
    <g id="homepage" stroke="none" stroke-width="1" fill="none" fill-rule="evenodd">
        <g id="Artboard" transform="translate(-4308.000000, -45.000000)">
            <g id="ra_timeSaving1" transform="translate(4308.000000, 45.000000)">
                <ellipse id="Oval-2-Copy-19" fill="#30526D" opacity="0.58" cx="175" cy="175" rx="175" ry="175"></ellipse>
                <ellipse id="Oval-2-Copy-19" fill="#30526D" cx="175" cy="175" rx="150" ry="150"></ellipse>
                <g id="stopwatch-copy" stroke-width="1" transform="translate(105.000000, 101.000000)" fill="#F1FFDF">
                    <g id="Capa_1" transform="translate(0.000000, -0.000000)">
                        <g id="Group">
                            <path d="M74.0439895,94.045939 C76.6203623,93.8454146 78.9690441,92.5308659 80.4935836,90.4340244 L103.666089,58.3897317 C104.376386,57.4069146 104.269965,56.0502805 103.408699,55.1887683 C102.547433,54.3297317 101.191187,54.2232805 100.208651,54.9313049 L68.1685727,78.1178659 C66.0797556,79.6378902 64.7655827,81.9872439 64.5651157,84.5643537 C64.3646486,87.1414634 65.2976866,89.6641098 67.1216892,91.4886341 C68.7823483,93.1522439 71.0221344,94.0731707 73.351017,94.0731707 C73.5811829,94.0731707 73.8113488,94.0632683 74.0439895,94.045939 Z M69.5000698,84.9505488 C69.5866914,83.8191951 70.1658184,82.7868659 71.0765823,82.1234024 L90.6208817,67.9802439 L76.4867176,87.5251829 C75.8184941,88.4436341 74.7864601,89.0204512 73.6554299,89.1095732 C72.5293496,89.1838415 71.4230685,88.7926951 70.6187254,87.988122 C69.8218071,87.1885 69.4109734,86.0794268 69.5000698,84.9505488 Z" id="Shape"></path>
                            <path d="M129.48179,48.4328293 C129.457041,48.3808415 129.457041,48.326378 129.429817,48.2743902 C129.400118,48.224878 129.353095,48.1976463 129.320921,48.1506098 C126.818795,43.8579024 123.858813,39.8647439 120.497896,36.2454024 L125.813985,30.9302683 L129.313496,34.4307805 L139.81203,23.9267683 L129.313496,13.4252317 L118.812488,23.9267683 L122.314474,27.4297561 L116.998385,32.7448902 C113.380079,29.3830122 109.390537,26.4197073 105.096582,23.9168659 C105.049559,23.8846829 105.022335,23.8376463 104.972837,23.807939 C104.920864,23.7782317 104.866416,23.7807073 104.814443,23.7534756 C97.1595722,19.341939 88.5592885,16.4033902 79.3897774,15.3265 L79.3897774,12.3780488 L83.1021301,12.3780488 C86.5150196,12.3780488 89.2893845,9.60289024 89.2893845,6.18902439 C89.2893845,2.77515854 86.5125447,0 83.0996552,0 L60.8255391,0 C57.4126495,0 54.6382846,2.77515854 54.6382846,6.18902439 C54.6382846,9.60289024 57.4126495,12.3780488 60.8255391,12.3780488 L64.5378918,12.3780488 L64.5378918,15.2398537 C61.8649978,15.5245488 59.1970537,15.9602561 56.5588084,16.5643049 C55.2273112,16.8688049 54.3932693,18.1982073 54.7001571,19.5300854 C55.0045701,20.8619634 56.3335923,21.6987195 57.6650895,21.3892683 C59.9419991,20.8669146 62.2411829,20.4732927 64.5453165,20.2084024 L67.2008861,20.0029268 C68.0126539,19.9410366 68.7600742,19.8964756 69.4876953,19.8618171 L69.4876953,24.7560976 C69.4876953,26.1251098 70.5939764,27.2317073 71.9625971,27.2317073 C73.3312178,27.2317073 74.4374989,26.1251098 74.4374989,24.7560976 L74.4374989,19.8791463 C83.7456045,20.3074268 92.5166565,22.8077927 100.315072,26.9222561 L97.8748189,31.148122 C97.191746,32.333939 97.5976299,33.8465366 98.7806329,34.5298049 C99.1691925,34.7550854 99.5948756,34.8615366 100.015609,34.8615366 C100.871925,34.8615366 101.703492,34.4184024 102.161349,33.6237317 L104.594177,29.4077683 C112.338145,34.3218537 118.916434,40.9020244 123.829114,48.6482073 L119.614356,51.0817317 C118.433828,51.765 118.027944,53.2775976 118.713492,54.4634146 C119.173824,55.2580854 120.002916,55.7012195 120.859232,55.7012195 C121.279965,55.7012195 121.705648,55.5947683 122.094208,55.3694878 L126.318865,52.9285366 C130.489075,60.8405854 132.99615,69.7577317 133.36986,79.2170366 L128.481929,79.2170366 C127.113309,79.2170366 126.007027,80.3236341 126.007027,81.6926463 C126.007027,83.0616585 127.113309,84.1682561 128.481929,84.1682561 L133.36986,84.1682561 C132.99615,93.627561 130.489075,102.544707 126.318865,110.456756 L122.094208,108.015805 C120.911205,107.332537 119.396565,107.733585 118.713492,108.921878 C118.030419,110.107695 118.436303,111.620293 119.619306,112.303561 L123.834064,114.737085 C118.921384,122.483268 112.343095,129.063439 104.599127,133.977524 L102.166299,129.761561 C101.480751,128.573268 99.963636,128.169744 98.7855827,128.855488 C97.6001048,129.538756 97.1942209,131.053829 97.8797687,132.237171 L100.320022,136.463037 C92.5216063,140.5775 83.7505543,143.077866 74.4424487,143.506146 L74.4424487,138.634146 C74.4424487,137.265134 73.3361676,136.158537 71.9675469,136.158537 C70.5989262,136.158537 69.4926451,137.265134 69.4926451,138.634146 L69.4926451,143.525951 C65.540227,143.389793 61.5754343,142.894671 57.6725142,141.9985 C56.341017,141.679146 55.0119948,142.525805 54.7075818,143.857683 C54.400694,145.189561 55.2347359,146.518963 56.5662331,146.823463 C61.5061371,147.962244 66.5524618,148.536585 71.5591881,148.536585 C71.6804583,148.536585 71.7967787,148.529159 71.9180489,148.526683 C71.9353732,148.526683 71.9477477,148.536585 71.9625971,148.536585 C71.9823963,148.536585 71.9997206,148.524207 72.0195199,148.524207 C83.9163728,148.442512 95.0781798,145.229171 104.735247,139.678854 C104.811969,139.644195 104.89364,139.626866 104.967887,139.582305 C105.017385,139.552598 105.044609,139.505561 105.091632,139.473378 C115.087761,133.645793 123.440554,125.300512 129.278848,115.308951 C129.325871,115.24211 129.385268,115.190122 129.427342,115.115854 C129.457041,115.063866 129.454566,115.009402 129.479315,114.957415 C135.13199,105.154 138.381536,93.8008537 138.381536,81.695122 C138.381536,69.5893902 135.13199,58.2362439 129.48179,48.4328293 Z M129.311021,20.4262561 L132.810533,23.9267683 L129.311021,27.4297561 L125.809035,23.9267683 L129.311021,20.4262561 Z M69.4876953,14.9056463 L69.4876953,7.42682927 L60.8255391,7.42682927 C60.1449411,7.42682927 59.5880882,6.86981707 59.5880882,6.18902439 C59.5880882,5.50823171 60.1449411,4.95121951 60.8255391,4.95121951 L83.0996552,4.95121951 C83.7802532,4.95121951 84.3371061,5.50823171 84.3371061,6.18902439 C84.3371061,6.86981707 83.7802532,7.42682927 83.0996552,7.42682927 L74.4374989,7.42682927 L74.4374989,14.9056463 C73.5762331,14.8709878 72.7545657,14.8536585 71.9625971,14.8536585 C71.8932999,14.8536585 71.814103,14.8586098 71.7448058,14.8586098 C71.6829332,14.8586098 71.6210607,14.8536585 71.5591881,14.8536585 C71.1533042,14.8536585 70.7474203,14.8808902 70.3415364,14.8883171 C70.0544478,14.8957439 69.7846835,14.8932683 69.4876953,14.9056463 Z" id="Shape"></path>
                            <path d="M49.688481,34.6585366 L37.3139721,34.6585366 C35.9453514,34.6585366 34.8390703,35.7651341 34.8390703,37.1341463 C34.8390703,38.5031585 35.9453514,39.6097561 37.3139721,39.6097561 L49.688481,39.6097561 C51.0571017,39.6097561 52.1633828,38.5031585 52.1633828,37.1341463 C52.1633828,35.7651341 51.0571017,34.6585366 49.688481,34.6585366 Z" id="Shape"></path>
                            <path d="M49.688481,51.9878049 L24.9394631,51.9878049 C23.5708424,51.9878049 22.4645613,53.0944024 22.4645613,54.4634146 C22.4645613,55.8324268 23.5708424,56.9390244 24.9394631,56.9390244 L49.688481,56.9390244 C51.0571017,56.9390244 52.1633828,55.8324268 52.1633828,54.4634146 C52.1633828,53.0944024 51.0571017,51.9878049 49.688481,51.9878049 Z" id="Shape"></path>
                            <path d="M49.688481,69.3170732 L12.5649542,69.3170732 C11.1963335,69.3170732 10.0900524,70.4236707 10.0900524,71.7926829 C10.0900524,73.1616951 11.1963335,74.2682927 12.5649542,74.2682927 L49.688481,74.2682927 C51.0571017,74.2682927 52.1633828,73.1616951 52.1633828,71.7926829 C52.1633828,70.4236707 51.0571017,69.3170732 49.688481,69.3170732 Z" id="Shape"></path>
                            <path d="M49.688481,86.6463415 L2.66534701,86.6463415 C1.29672632,86.6463415 0.19044522,87.752939 0.19044522,89.1219512 C0.19044522,90.4909634 1.29672632,91.597561 2.66534701,91.597561 L49.688481,91.597561 C51.0571017,91.597561 52.1633828,90.4909634 52.1633828,89.1219512 C52.1633828,87.752939 51.0571017,86.6463415 49.688481,86.6463415 Z" id="Shape"></path>
                            <path d="M49.688481,103.97561 L17.5147577,103.97561 C16.1461371,103.97561 15.039856,105.082207 15.039856,106.45122 C15.039856,107.820232 16.1461371,108.926829 17.5147577,108.926829 L49.688481,108.926829 C51.0571017,108.926829 52.1633828,107.820232 52.1633828,106.45122 C52.1633828,105.082207 51.0571017,103.97561 49.688481,103.97561 Z" id="Shape"></path>
                            <path d="M49.688481,121.304878 L32.3641685,121.304878 C30.9955478,121.304878 29.8892667,122.411476 29.8892667,123.780488 C29.8892667,125.1495 30.9955478,126.256098 32.3641685,126.256098 L49.688481,126.256098 C51.0571017,126.256098 52.1633828,125.1495 52.1633828,123.780488 C52.1633828,122.411476 51.0571017,121.304878 49.688481,121.304878 Z" id="Shape"></path>
                        </g>
                    </g>
                </g>
            </g>
        </g>
    </g>
</svg>