<?xml version="1.0" encoding="UTF-8" standalone="no"?>
<svg width="350px" height="350px" viewBox="0 0 350 350" version="1.1" xmlns="http://www.w3.org/2000/svg" xmlns:xlink="http://www.w3.org/1999/xlink">
    <!-- Generator: Sketch 41 (35326) - http://www.bohemiancoding.com/sketch -->
    <title>sis_feature2</title>
    <desc>Created with Sketch.</desc>
    <defs></defs>
    <g id="homepage" stroke="none" stroke-width="1" fill="none" fill-rule="evenodd">
        <g id="Artboard" transform="translate(-4308.000000, -496.000000)">
            <g id="sis_feature2" transform="translate(4308.000000, 496.000000)">
                <g id="ico_timeSaving1-Copy-2" stroke-width="1" fill="#30526D">
                    <ellipse id="Oval-2-Copy-19" opacity="0.58" cx="175" cy="175" rx="175" ry="175"></ellipse>
                    <ellipse id="Oval-2-Copy-19" cx="175" cy="175" rx="150" ry="150"></ellipse>
                </g>
                <path d="M238.68566,120.719762 L218.192638,120.719762 L218.192638,113.998234 C218.192638,112.89441 217.192681,112 215.958596,112 L132.041404,112 C130.807617,112 129.807362,112.89441 129.807362,113.998234 L129.807362,120.719762 L109.31434,120.719762 C106.383872,120.719762 104,122.851744 104,125.472895 L104,213.183124 C104,215.804274 106.383872,217.936523 109.31434,217.936523 L158.107915,217.936523 L158.107915,233.226213 L137.036723,233.226213 C135.802936,233.226213 134.802681,234.120622 134.802681,235.224447 C134.802681,236.328272 135.802936,237.222681 137.036723,237.222681 L201.073021,237.222681 C202.307106,237.222681 203.307064,236.328272 203.307064,235.224447 C203.307064,234.120622 202.307106,233.226213 201.073021,233.226213 L189.892085,233.226213 L189.892085,217.936523 L199.086511,217.936523 C200.320596,217.936523 201.320553,217.042114 201.320553,215.938289 C201.320553,214.834464 200.320596,213.940055 199.086511,213.940055 L109.31434,213.940055 C108.855617,213.940055 108.468085,213.593428 108.468085,213.183124 L108.468085,125.472895 C108.468085,125.062591 108.855617,124.715964 109.31434,124.715964 L129.807362,124.715964 L129.807362,197.681621 L115.474936,197.681621 C114.241149,197.681621 113.240894,198.576031 113.240894,199.679856 C113.240894,200.78368 114.241149,201.67809 115.474936,201.67809 L199.086809,201.67809 C200.320894,201.67809 201.320851,200.78368 201.320851,199.679856 C201.320851,198.576031 200.320894,197.681621 199.086809,197.681621 L181.546894,197.681621 L181.546894,181.350452 C181.546894,180.246628 180.546936,179.352218 179.312851,179.352218 L143.956298,179.352218 C142.722511,179.352218 141.722255,180.246628 141.722255,181.350452 L141.722255,197.681621 L134.275447,197.681621 L134.275447,122.720394 L134.275447,115.996469 L213.724851,115.996469 L213.724851,134.204113 C213.724851,135.307937 214.724809,136.202347 215.958894,136.202347 C217.192979,136.202347 218.192936,135.307937 218.192936,134.204113 L218.192936,124.71623 L238.685957,124.71623 C239.144681,124.71623 239.532213,125.062857 239.532213,125.473161 L239.532213,213.18339 C239.532213,213.593694 239.144681,213.940321 238.685957,213.940321 L232.829787,213.940321 C231.595702,213.940321 230.595745,214.834731 230.595745,215.938555 C230.595745,217.04238 231.595702,217.93679 232.829787,217.93679 L238.68566,217.93679 C241.616128,217.93679 244,215.804541 244,213.18339 L244,125.472895 C244,122.851744 241.616128,120.719762 238.68566,120.719762 L238.68566,120.719762 L238.68566,120.719762 L238.68566,120.719762 Z M185.424298,233.226213 L162.576,233.226213 L162.576,217.936523 L185.424298,217.936523 L185.424298,233.226213 L185.424298,233.226213 L185.424298,233.226213 L185.424298,233.226213 Z M146.19034,183.348953 L177.078809,183.348953 L177.078809,197.681888 L146.19034,197.681888 L146.19034,183.348953 L146.19034,183.348953 L146.19034,183.348953 Z M226.09966,159.575027 C226.094894,159.546253 226.091319,159.517212 226.085064,159.488704 C226.07583,159.446874 226.063617,159.40611 226.051404,159.36508 C226.045149,159.344298 226.040383,159.32325 226.033532,159.302468 C226.019234,159.259839 226.002255,159.218542 225.984979,159.177245 C225.978426,159.161792 225.97366,159.145807 225.966809,159.13062 L225.955787,159.105842 C225.953702,159.101579 225.951915,159.097316 225.950128,159.093053 L218.031787,141.452375 C217.691617,140.695177 216.871277,140.198816 215.958596,140.198816 C215.045915,140.198816 214.225574,140.695177 213.885404,141.452375 L205.965872,159.094652 C205.962298,159.102378 205.949787,159.130354 205.949787,159.130354 C205.94234,159.147139 205.936979,159.164723 205.92983,159.181775 C205.913447,159.221473 205.896766,159.261171 205.883362,159.301935 C205.876213,159.32325 205.871149,159.345097 205.864894,159.366678 C205.852979,159.407176 205.840766,159.44714 205.83183,159.488704 C205.825574,159.517478 205.822,159.546519 205.816936,159.57556 C205.810979,159.610196 205.804128,159.644033 205.800255,159.679202 C205.793106,159.744211 205.789234,159.809487 205.789234,159.875029 L205.789234,228.126719 C205.789234,233.142287 210.351149,237.222948 215.958894,237.222948 C221.566043,237.222948 226.128255,233.142553 226.128255,228.126719 L226.128255,159.875029 C226.128255,159.809487 226.124383,159.744211 226.117234,159.679202 C226.112766,159.643767 226.105617,159.609663 226.09966,159.575027 L226.09966,159.575027 L226.09966,159.575027 L226.09966,159.575027 Z M210.257021,161.872997 L221.659574,161.872997 L221.659574,218.938838 L210.257021,218.938838 L210.257021,161.872997 L210.257021,161.872997 L210.257021,161.872997 Z M215.958298,147.560044 L220.589319,157.876795 L211.327277,157.876795 L215.958298,147.560044 L215.958298,147.560044 L215.958298,147.560044 L215.958298,147.560044 Z M215.958298,233.226213 C212.814553,233.226213 210.256723,230.938368 210.256723,228.126452 L210.256723,222.935306 L221.659574,222.935306 L221.659574,228.126452 C221.659574,230.938368 219.102043,233.226213 215.958298,233.226213 L215.958298,233.226213 L215.958298,233.226213 Z M143.956298,140.719955 L204.044,140.719955 C205.278085,140.719955 206.278043,139.825545 206.278043,138.721721 L206.278043,124.655484 C206.278043,123.551659 205.278085,122.657249 204.044,122.657249 L143.956298,122.657249 C142.722511,122.657249 141.722255,123.551659 141.722255,124.655484 L141.722255,138.721721 C141.722255,139.825545 142.722511,140.719955 143.956298,140.719955 L143.956298,140.719955 L143.956298,140.719955 Z M146.19034,126.653718 L201.809957,126.653718 L201.809957,136.723487 L146.19034,136.723487 L146.19034,126.653718 L146.19034,126.653718 L146.19034,126.653718 Z M204.043702,144.716424 L143.956298,144.716424 C142.722511,144.716424 141.722255,145.610833 141.722255,146.714658 C141.722255,147.818483 142.722511,148.712892 143.956298,148.712892 L204.044,148.712892 C205.278085,148.712892 206.278043,147.818483 206.278043,146.714658 C206.278043,145.610833 205.277787,144.716424 204.043702,144.716424 L204.043702,144.716424 L204.043702,144.716424 L204.043702,144.716424 Z M179.312851,155.373673 L143.956298,155.373673 C142.722511,155.373673 141.722255,156.268083 141.722255,157.371907 C141.722255,158.475732 142.722511,159.370142 143.956298,159.370142 L179.312851,159.370142 C180.546936,159.370142 181.546894,158.475732 181.546894,157.371907 C181.546894,156.268083 180.546936,155.373673 179.312851,155.373673 L179.312851,155.373673 L179.312851,155.373673 Z M199.516936,155.373673 L188.249021,155.373673 C187.014936,155.373673 186.014979,156.268083 186.014979,157.371907 C186.014979,158.475732 187.014936,159.370142 188.249021,159.370142 L199.516936,159.370142 C200.751021,159.370142 201.750979,158.475732 201.750979,157.371907 C201.750979,156.268083 200.751021,155.373673 199.516936,155.373673 L199.516936,155.373673 L199.516936,155.373673 Z M179.312851,163.36661 L143.956298,163.36661 C142.722511,163.36661 141.722255,164.26102 141.722255,165.364845 C141.722255,166.468669 142.722511,167.363079 143.956298,167.363079 L179.312851,167.363079 C180.546936,167.363079 181.546894,166.468669 181.546894,165.364845 C181.546894,164.26102 180.546936,163.36661 179.312851,163.36661 L179.312851,163.36661 L179.312851,163.36661 Z M199.086809,163.36661 L188.249021,163.36661 C187.014936,163.36661 186.014979,164.26102 186.014979,165.364845 C186.014979,166.468669 187.014936,167.363079 188.249021,167.363079 L199.086809,167.363079 C200.320894,167.363079 201.320851,166.468669 201.320851,165.364845 C201.320851,164.26102 200.320596,163.36661 199.086809,163.36661 L199.086809,163.36661 L199.086809,163.36661 Z M179.312851,171.359547 L143.956298,171.359547 C142.722511,171.359547 141.722255,172.253957 141.722255,173.357782 C141.722255,174.461606 142.722511,175.356016 143.956298,175.356016 L179.312851,175.356016 C180.546936,175.356016 181.546894,174.461606 181.546894,173.357782 C181.546894,172.253957 180.546936,171.359547 179.312851,171.359547 L179.312851,171.359547 L179.312851,171.359547 Z M199.086809,171.359547 L188.249021,171.359547 C187.014936,171.359547 186.014979,172.253957 186.014979,173.357782 C186.014979,174.461606 187.014936,175.356016 188.249021,175.356016 L199.086809,175.356016 C200.320894,175.356016 201.320851,174.461606 201.320851,173.357782 C201.320851,172.253957 200.320596,171.359547 199.086809,171.359547 L199.086809,171.359547 L199.086809,171.359547 Z" id="blogging-copy-2" fill="#F1FFDF"></path>
            </g>
        </g>
    </g>
</svg>