<?xml version="1.0" encoding="UTF-8" standalone="no"?>
<svg width="350px" height="350px" viewBox="0 0 350 350" version="1.1" xmlns="http://www.w3.org/2000/svg" xmlns:xlink="http://www.w3.org/1999/xlink">
    <!-- Generator: Sketch 41 (35326) - http://www.bohemiancoding.com/sketch -->
    <title>sis_feature5</title>
    <desc>Created with Sketch.</desc>
    <defs></defs>
    <g id="homepage" stroke="none" stroke-width="1" fill="none" fill-rule="evenodd">
        <g id="Artboard" transform="translate(-4308.000000, -950.000000)">
            <g id="sis_feature5" transform="translate(4308.000000, 950.000000)">
                <g id="sis_feature2-copy" fill="#30526D">
                    <g id="ico_timeSaving1-Copy-2">
                        <ellipse id="Oval-2-Copy-19" opacity="0.58" cx="175" cy="175" rx="175" ry="175"></ellipse>
                        <ellipse id="Oval-2-Copy-19" cx="175" cy="175" rx="150" ry="150"></ellipse>
                    </g>
                </g>
                <g id="Group-28" transform="translate(181.000000, 142.000000)"></g>
                <g id="人機界面" transform="translate(100.000000, 115.000000)">
                    <path d="M85.0102273,90.6366743 C86.3532263,90.6366743 87.4387969,89.410936 87.4387969,87.8945303 L87.4387969,79.6680981 C87.4387969,78.1516924 86.3532263,76.925954 85.0102273,76.925954 C83.6672282,76.925954 82.5816576,78.1516924 82.5816576,79.6680981 L82.5816576,87.8945303 C82.5816576,89.410936 83.6672282,90.6366743 85.0102273,90.6366743 Z" id="Shape" fill="#F1FFDF"></path>
                    <path d="M96.8716003,66.1812251 C95.5286013,66.1812251 94.4430306,67.4069635 94.4430306,68.9233692 L94.4430306,88.1183776 C94.4430306,89.6347833 95.5286013,90.8605217 96.8716003,90.8605217 C98.2145993,90.8605217 99.30017,89.6347833 99.30017,88.1183776 L99.30017,68.9233692 C99.30017,67.4069635 98.2145993,66.1812251 96.8716003,66.1812251 Z" id="Shape" fill="#F1FFDF"></path>
                    <path d="M108.732973,71.5535896 C107.389974,71.5535896 106.304404,72.779328 106.304404,74.2957336 L106.304404,88.0064539 C106.304404,89.5228596 107.389974,90.748598 108.732973,90.748598 C110.075972,90.748598 111.161543,89.5228596 111.161543,88.0064539 L111.161543,74.2957336 C111.161543,72.779328 110.075972,71.5535896 108.732973,71.5535896 Z" id="Shape" fill="#F1FFDF"></path>
                    <path d="M120.594346,52.5194894 C119.251347,52.5194894 118.165777,53.7452278 118.165777,55.2616335 L118.165777,88.1673622 C118.165777,89.6837679 119.251347,90.9095063 120.594346,90.9095063 C121.937345,90.9095063 123.022916,89.6837679 123.022916,88.1673622 L123.022916,55.2616335 C123.022916,53.7452278 121.937345,52.5194894 120.594346,52.5194894 Z" id="Shape" fill="#F1FFDF"></path>
                    <path d="M132.455719,63.0939895 C131.11272,63.0939895 130.02715,64.3197279 130.02715,65.8361336 L130.02715,87.7732861 C130.02715,89.2896917 131.11272,90.5154301 132.455719,90.5154301 C133.798718,90.5154301 134.884289,89.2896917 134.884289,87.7732861 L134.884289,65.8361336 C134.884289,64.3197279 133.798718,63.0939895 132.455719,63.0939895 Z" id="Shape" fill="#F1FFDF"></path>
                    <path d="M34.4948701,70 C39.5950093,70 44.2522742,68.0734145 47.8306977,64.9146058 C47.8802996,64.8750307 47.9405305,64.8570421 47.9865894,64.8102716 C48.0149334,64.7814897 48.0237908,64.7437135 48.0503633,64.7131328 C51.8147939,61.2934885 54.3250048,56.4905162 54.7802795,51.0885216 L54.8139379,51.0597397 L54.8493678,50.2682387 C54.8564538,50.1099385 54.8422819,49.955236 54.8458249,49.7969358 C54.8458249,49.6350379 54.8670828,49.4767377 54.8670828,49.3130408 C54.8670828,49.0935792 54.8405104,48.8795141 54.8351959,48.6618514 C54.8245669,48.3434521 54.8121664,48.0250528 54.7873655,47.7084524 C54.7554785,47.2785234 54.7041051,46.8557899 54.6456457,46.4348552 C54.6102158,46.1794163 54.5747858,45.9239773 54.5304984,45.6703372 C54.4472381,45.1972354 54.3427198,44.733128 54.229344,44.2708194 C54.1779706,44.0639498 54.1301402,43.8552814 54.0716808,43.6502106 C53.937047,43.1735111 53.7811553,42.705806 53.6146346,42.2434974 C53.5437747,42.0456222 53.4764579,41.845948 53.4002835,41.6498716 C53.2302198,41.2163449 53.0371267,40.7954103 52.838719,40.3780734 C52.7324292,40.155014 52.6332254,39.9283569 52.5198496,39.7088952 C52.3373854,39.3581163 52.1372063,39.0217284 51.9352557,38.6835416 C51.7740495,38.4101139 51.6199293,38.1330886 51.4463226,37.8668564 C51.2904309,37.631205 51.1185957,37.4081456 50.9538465,37.1778907 C50.7093799,36.8361062 50.4719994,36.4907239 50.2062748,36.1633303 C50.2062748,36.1615314 50.2045033,36.1615314 50.2027319,36.1597326 C49.7899731,35.6506535 49.3594994,35.1559653 48.8971387,34.6864613 C48.4578075,34.2403425 47.9919039,33.8266033 47.5171428,33.4254562 C47.4905703,33.402071 47.4657694,33.3768868 47.4374254,33.3535016 C47.136271,33.1016603 46.8174015,32.8768021 46.5038466,32.6447484 C46.2522941,32.4576663 46.006056,32.2633888 45.745646,32.0870999 C45.5153514,31.9323974 45.2779709,31.7974825 45.0423618,31.6517743 C44.6703475,31.4215195 44.2983332,31.1948624 43.9121469,30.9897916 C43.7420832,30.8998483 43.5684765,30.8206982 43.3966413,30.7361515 C42.9325092,30.5058967 42.4630625,30.2882339 41.9794439,30.0939564 C41.8448102,30.0399904 41.7084049,29.9932199 41.5737711,29.9428516 C41.0564941,29.7467752 40.5339026,29.5686875 39.9989105,29.4157839 C39.8589623,29.3762088 39.719014,29.3420304 39.5772943,29.3060531 C39.0617887,29.1711381 38.5409687,29.0524129 38.0112912,28.9588719 C37.8164265,28.9246935 37.6197904,28.8977105 37.4231542,28.8671297 C36.9607936,28.7987728 36.4966614,28.743008 36.0236718,28.7070307 C35.7420038,28.6854443 35.4603358,28.6746511 35.1786679,28.6638579 C34.9519163,28.6530647 34.7269362,28.6260817 34.4948701,28.6260817 C34.3301209,28.6260817 34.1706862,28.6476681 34.0077085,28.6512658 C33.8553598,28.6548636 33.7047826,28.6404726 33.5542053,28.6476681 L32.8544641,28.6908409 L32.8367491,28.7106284 C22.3778323,29.5740841 14.1226574,38.4748731 14.1226574,49.3130408 C14.1226574,60.7196502 23.2618092,70 34.4948701,70 Z M46.7376842,61.0002733 L37.8855149,52.0113399 L51.0937947,52.0113399 C50.5517167,55.459766 48.9963426,58.5646088 46.7376842,61.0002733 Z M35.9085245,32.2957684 C36.0927602,32.3101593 36.2769958,32.328148 36.45946,32.3497343 C36.8615898,32.3983037 37.258405,32.4594652 37.6516773,32.5350175 C37.7703676,32.5584028 37.8890579,32.5781903 38.0077482,32.6033745 C38.4895953,32.7077087 38.9661279,32.8300316 39.4320316,32.9757397 C39.4603755,32.984734 39.490491,32.9919295 39.5188349,33.0009238 C44.7660083,34.6702715 48.9148537,38.8832157 50.5588027,44.2114568 C50.5676602,44.2402387 50.5747462,44.2708194 50.5836037,44.2996013 C50.7270949,44.772703 50.8475567,45.2547991 50.9503035,45.7458895 C50.9751044,45.8664136 50.9945909,45.9869376 51.0176204,46.1074616 C51.0920232,46.5068099 51.1522541,46.9097559 51.2000845,47.3180984 C51.2213425,47.5033816 51.237286,47.6904637 51.2532294,47.8775458 C51.2674014,48.0538346 51.2709444,48.2355201 51.2798019,48.4136078 L35.3806185,48.4136078 L35.3806185,32.2687854 C35.5559967,32.2795786 35.7331463,32.2813774 35.9085245,32.2957684 Z M31.837625,32.4576663 L31.837625,50.1459158 L31.8393965,50.2016807 C31.8393965,50.210675 31.841168,50.2178705 31.841168,50.2268648 L31.9031703,52.0113399 L32.8757221,52.0113399 L44.0538666,63.3621844 C41.3363906,65.274379 38.0449496,66.402268 34.4948701,66.402268 C25.2157701,66.402268 17.6656509,58.735501 17.6656509,49.3130408 C17.6656509,40.8098012 23.8198306,33.7582464 31.837625,32.4576663 Z" id="Shape" fill="#F1FFDF"></path>
                    <path d="M82.1666367,44.3501442 L100.026046,44.3501442 C101.260578,44.3501442 102.258473,43.377887 102.258473,42.1750721 C102.258473,40.9722572 101.260578,40 100.026046,40 L82.1666367,40 C80.932105,40 79.9342105,40.9722572 79.9342105,42.1750721 C79.9342105,43.377887 80.932105,44.3501442 82.1666367,44.3501442 Z" id="Shape" fill="#F1FFDF"></path>
                    <path d="M120.10453,44.8515865 L134.392058,44.8515865 C135.379684,44.8515865 136.177999,43.8793293 136.177999,42.6765144 C136.177999,41.4736995 135.379684,40.5014423 134.392058,40.5014423 L120.10453,40.5014423 C119.116905,40.5014423 118.318589,41.4736995 118.318589,42.6765144 C118.318589,43.8793293 119.116905,44.8515865 120.10453,44.8515865 Z" id="Shape-Copy-3" fill="#F1FFDF"></path>
                    <path d="M110.036288,41.1050248 C109.632219,41.5161134 109.388885,42.0838072 109.388885,42.649326 C109.388885,43.2148447 109.632219,43.7803635 110.036288,44.1936272 C110.458217,44.5851402 111.04088,44.8243981 111.621311,44.8243981 C112.201742,44.8243981 112.782172,44.5851402 113.206333,44.1936272 C113.60817,43.7803635 113.853737,43.2148447 113.853737,42.649326 C113.853737,42.0838072 113.60817,41.5161134 113.206333,41.1050248 C112.380336,40.3002481 110.862286,40.3002481 110.036288,41.1050248 Z" id="Shape" fill="#F1FFDF"></path>
                    <path d="M104.924032,33.9762259 L134.210526,34 C135.445058,34 136.442953,33.0277428 136.442953,31.8249279 C136.442953,30.622113 135.445058,29.6498558 134.210526,29.6498558 L104.924032,29.6260817 C103.6895,29.6260817 102.691606,30.5983389 102.691606,31.8011538 C102.691606,33.0039687 103.6895,33.9762259 104.924032,33.9762259 Z" id="Shape" fill="#F1FFDF"></path>
                    <path d="M82.59977,33.9762259 L87.0646224,33.9762259 C88.2991541,33.9762259 89.2970486,33.0039687 89.2970486,31.8011538 C89.2970486,30.5983389 88.2991541,29.6260817 87.0646224,29.6260817 L82.59977,29.6260817 C81.3652383,29.6260817 80.3673438,30.5983389 80.3673438,31.8011538 C80.3673438,33.0039687 81.3652383,33.9762259 82.59977,33.9762259 Z" id="Shape" fill="#F1FFDF"></path>
                    <path d="M95.9943273,33.9490375 C96.5747581,33.9490375 97.1551889,33.7097796 97.5793499,33.3182666 C97.9811866,32.9050029 98.2267535,32.3394842 98.2267535,31.7739654 C98.2267535,31.1845209 97.9811866,30.6407528 97.5793499,30.2296642 C96.7533522,29.4248875 95.2353024,29.4248875 94.4093047,30.2296642 C94.0052355,30.6407528 93.7619011,31.2084467 93.7619011,31.7739654 C93.7619011,32.3394842 94.0052355,32.9050029 94.4093047,33.3182666 C94.8312332,33.7097796 95.4138965,33.9490375 95.9943273,33.9490375 Z" id="Shape" fill="#F1FFDF"></path>
                    <path d="M0,3.00164503 C0,1.34388225 1.33875137,0 3.00464638,0 L146.56791,0 C148.22733,0 149.572556,1.35287535 149.572556,3.00164503 L149.572556,103.998355 C149.572556,105.656118 148.229013,107 146.563911,107 L74.0131579,107 C74.0131579,107 71.0526316,97 57.2368421,97 C43.4210526,97 39.4736842,107 39.4736842,107 L2.99934104,107 C1.34285072,107 0,105.647125 0,103.998355 L0,3.00164503 Z" id="Rectangle-path" stroke="#F1FFDF" stroke-width="4"></path>
                    <path d="M0,19 L149.013158,19" id="Shape-Copy" stroke="#F1FFDF" stroke-width="4"></path>
                    <ellipse id="Oval-14" fill="#F1FFDF" cx="14.5107704" cy="9.78782451" rx="3.34863932" ry="3.26260817"></ellipse>
                    <ellipse id="Oval-14-Copy" fill="#F1FFDF" cx="27.9053277" cy="9.78782451" rx="3.34863932" ry="3.26260817"></ellipse>
                    <ellipse id="Oval-14-Copy-2" fill="#F1FFDF" cx="41.299885" cy="9.78782451" rx="3.34863932" ry="3.26260817"></ellipse>
                    <g id="mouse" transform="translate(36.219346, 73.000000)" fill="#F1FFDF">
                        <g id="Layer_1">
                            <g id="Group">
                                <path d="M33.7421329,8.13336801 C34.3076893,8.13336801 34.8732456,7.87646095 35.2368176,7.38240891 C35.8225724,6.57216355 35.6205879,5.46548697 34.8126503,4.8923866 C30.6113745,1.9675985 25.6223595,0.426156117 20.4313601,0.426156117 C15.2403607,0.426156117 10.2513457,1.9675985 6.05006993,4.8923866 C5.22193384,5.46548697 5.04014787,6.59192563 5.62590266,7.38240891 C6.21165746,8.19265426 7.36296861,8.370513 8.17090626,7.79741262 C11.7258319,5.30739032 15.9675046,4.00309292 20.4111617,4.00309292 C24.8548187,4.00309292 29.0964914,5.3271524 32.6716155,7.81717471 C32.9947906,8.03455761 33.378561,8.13336801 33.7421329,8.13336801 Z" id="Shape"></path>
                                <path d="M20.4111617,10.9900818 C18.1287378,10.9900818 15.9675046,11.6619926 14.1294464,12.9465279 C13.3013103,13.5196282 13.1195244,14.6460669 13.7052792,15.4365502 C14.291034,16.2467955 15.4423451,16.4246543 16.2502828,15.8515539 C17.4621892,15.0017844 18.8962786,14.5670186 20.4111617,14.5670186 C21.9260448,14.5670186 23.3601341,15.0215465 24.5720406,15.8515539 C24.8952156,16.0689368 25.2587876,16.1875093 25.6223595,16.1875093 C26.1879159,16.1875093 26.7534722,15.9306022 27.1170442,15.4365502 C27.702799,14.6263048 27.5008146,13.5196282 26.6928769,12.9465279 C24.8548187,11.6619926 22.6935855,10.9900818 20.4111617,10.9900818 Z" id="Shape"></path>
                                <path d="M20.4111617,46.2463643 C21.4210837,46.2463643 22.2492198,45.436119 22.2492198,44.4480149 L22.2492198,35.2388847 C22.2492198,34.2507807 21.4210837,33.4405353 20.4111617,33.4405353 C19.4012396,33.4405353 18.5731035,34.2507807 18.5731035,35.2388847 L18.5731035,44.4480149 C18.5731035,45.436119 19.4012396,46.2463643 20.4111617,46.2463643 Z" id="Shape"></path>
                                <path d="M0.152125079,60.178632 C0.152125079,71.1070632 9.24142365,80 20.4111617,80 C31.5808997,80 40.6701983,71.1070632 40.6701983,60.178632 L40.6701983,42.1556134 C40.6701983,31.2271821 31.5808997,22.3342453 20.4111617,22.3342453 C9.24142365,22.3342453 0.152125079,31.2271821 0.152125079,42.1556134 L0.152125079,60.178632 L0.152125079,60.178632 Z M3.80804295,42.1556134 C3.80804295,33.2033903 11.2612678,25.9111821 20.4111617,25.9111821 C29.5610556,25.9111821 37.0142804,33.2033903 37.0142804,42.1556134 L37.0142804,60.178632 C37.0142804,69.130855 29.5610556,76.4230632 20.4111617,76.4230632 C11.2612678,76.4230632 3.80804295,69.130855 3.80804295,60.178632 L3.80804295,42.1556134 Z" id="Shape"></path>
                            </g>
                        </g>
                    </g>
                </g>
            </g>
        </g>
    </g>
</svg>