<?xml version="1.0" encoding="UTF-8" standalone="no"?>
<svg width="350px" height="350px" viewBox="0 0 350 350" version="1.1" xmlns="http://www.w3.org/2000/svg" xmlns:xlink="http://www.w3.org/1999/xlink">
    <!-- Generator: Sketch 41 (35326) - http://www.bohemiancoding.com/sketch -->
    <title>sis_feature3 copy</title>
    <desc>Created with Sketch.</desc>
    <defs></defs>
    <g id="homepage" stroke="none" stroke-width="1" fill="none" fill-rule="evenodd">
        <g id="Artboard" transform="translate(-5257.000000, -496.000000)">
            <g id="sis_feature3-copy" transform="translate(5257.000000, 496.000000)">
                <g id="ico_selfLearn1-Copy-2">
                    <ellipse id="Oval-2-Copy-21" fill="#30526D" opacity="0.5" cx="175" cy="175" rx="175" ry="175"></ellipse>
                    <ellipse id="Oval-2-Copy-21" fill="#30526D" cx="175" cy="175" rx="150" ry="150"></ellipse>
                    <path d="M241.578947,106 L108.421053,106 C107.083986,106 106,107.032189 106,108.305365 L106,145.191199 C106,146.464375 107.083986,147.496564 108.421053,147.496564 L241.578947,147.496564 C242.916014,147.496564 244,146.464375 244,145.191199 L244,108.305365 C244,107.032189 242.916014,106 241.578947,106 L241.578947,106 L241.578947,106 L241.578947,106 L241.578947,106 Z M110.842105,110.610729 L200.421053,110.610729 L200.421053,142.885835 L110.842105,142.885835 L110.842105,110.610729 L110.842105,110.610729 L110.842105,110.610729 L110.842105,110.610729 L110.842105,110.610729 Z M239.157895,142.885835 L205.263158,142.885835 L205.263158,110.610729 L239.157895,110.610729 L239.157895,142.885835 L239.157895,142.885835 L239.157895,142.885835 L239.157895,142.885835 Z M147.157895,219.731323 L189.526316,219.731323 C190.863382,219.731323 191.947368,218.699135 191.947368,217.425959 C191.947368,216.152783 190.863382,215.120594 189.526316,215.120594 L147.157895,215.120594 C145.820828,215.120594 144.736842,216.152783 144.736842,217.425959 C144.736842,218.699135 145.820828,219.731323 147.157895,219.731323 L147.157895,219.731323 L147.157895,219.731323 L147.157895,219.731323 Z M231.894737,202.825316 L147.157895,202.825316 C145.820828,202.825316 144.736842,203.857504 144.736842,205.13068 C144.736842,206.403856 145.820828,207.436045 147.157895,207.436045 L231.894737,207.436045 C233.231804,207.436045 234.315789,206.403856 234.315789,205.13068 C234.315789,203.857504 233.231804,202.825316 231.894737,202.825316 L231.894737,202.825316 L231.894737,202.825316 L231.894737,202.825316 Z M241.578947,153.644203 L108.421053,153.644203 C107.083986,153.644203 106,154.676392 106,155.949568 L106,192.835402 C106,194.108578 107.083986,195.140767 108.421053,195.140767 L241.578947,195.140767 C242.916014,195.140767 244,194.108578 244,192.835402 L244,155.949568 C244,154.676392 242.916014,153.644203 241.578947,153.644203 L241.578947,153.644203 L241.578947,153.644203 L241.578947,153.644203 Z M147.157895,182.845489 L189.526316,182.845489 C190.863382,182.845489 191.947368,181.8133 191.947368,180.540124 C191.947368,179.266948 190.863382,178.234759 189.526316,178.234759 L147.157895,178.234759 C145.820828,178.234759 144.736842,179.266948 144.736842,180.540124 C144.736842,181.8133 145.820828,182.845489 147.157895,182.845489 L147.157895,182.845489 L147.157895,182.845489 L147.157895,182.845489 Z M147.157895,170.55021 L231.894737,170.55021 C233.231804,170.55021 234.315789,169.518022 234.315789,168.244846 C234.315789,166.97167 233.231804,165.939481 231.894737,165.939481 L147.157895,165.939481 C145.820828,165.939481 144.736842,166.97167 144.736842,168.244846 C144.736842,169.518022 145.820828,170.55021 147.157895,170.55021 L147.157895,170.55021 L147.157895,170.55021 L147.157895,170.55021 Z M239.157895,190.530038 L110.842105,190.530038 L110.842105,158.254932 L239.157895,158.254932 L239.157895,190.530038 L239.157895,190.530038 L239.157895,190.530038 L239.157895,190.530038 Z M213.001811,131.297535 C214.869895,133.076354 217.353249,134.055981 219.995102,134.055981 C221.8096,134.055981 223.549207,133.593678 225.0664,132.727783 L230.182891,137.599787 C230.655481,138.049794 231.27527,138.275105 231.894737,138.275105 C232.514204,138.275105 233.133993,138.050102 233.606582,137.599787 C234.552084,136.699465 234.552084,135.239708 233.606582,134.339694 L228.490091,129.46769 C229.399439,128.023302 229.88494,126.366514 229.88494,124.63872 C229.88494,122.123106 228.856154,119.758416 226.98807,117.979597 C225.120309,116.201085 222.636632,115.221459 219.995102,115.221459 C217.353249,115.221459 214.869895,116.201085 213.001811,117.979597 C209.145881,121.651274 209.145881,127.625857 213.001811,131.297535 L213.001811,131.297535 L213.001811,131.297535 L213.001811,131.297535 L213.001811,131.297535 Z M216.425825,121.239997 C217.379396,120.332298 218.646737,119.832188 219.995102,119.832188 C221.343467,119.832188 222.61113,120.331991 223.564379,121.239997 C224.517951,122.148004 225.042835,123.354785 225.042835,124.63872 C225.042835,125.922654 224.517951,127.129436 223.564379,128.037442 C222.610807,128.945448 221.343467,129.445251 219.995102,129.445251 C218.646737,129.445251 217.379074,128.945448 216.425825,128.037442 C214.45767,126.163334 214.45767,123.114105 216.425825,121.239997 L216.425825,121.239997 L216.425825,121.239997 L216.425825,121.239997 Z M137.473684,199.751496 L118.105263,199.751496 C116.768196,199.751496 115.684211,200.783685 115.684211,202.056861 L115.684211,220.499778 C115.684211,221.772954 116.768196,222.805143 118.105263,222.805143 L137.473684,222.805143 C138.810751,222.805143 139.894737,221.772954 139.894737,220.499778 L139.894737,202.056861 C139.894737,200.783685 138.810751,199.751496 137.473684,199.751496 L137.473684,199.751496 L137.473684,199.751496 L137.473684,199.751496 Z M135.052632,218.194413 L120.526316,218.194413 L120.526316,204.362226 L135.052632,204.362226 L135.052632,218.194413 L135.052632,218.194413 L135.052632,218.194413 L135.052632,218.194413 Z M189.526316,242.78497 L147.157895,242.78497 C145.820828,242.78497 144.736842,243.817158 144.736842,245.090335 C144.736842,246.363511 145.820828,247.395699 147.157895,247.395699 L189.526316,247.395699 C190.863382,247.395699 191.947368,246.363511 191.947368,245.090335 C191.947368,243.817158 190.863382,242.78497 189.526316,242.78497 L189.526316,242.78497 L189.526316,242.78497 L189.526316,242.78497 Z M231.894737,230.489692 L147.157895,230.489692 C145.820828,230.489692 144.736842,231.52188 144.736842,232.795056 C144.736842,234.068232 145.820828,235.100421 147.157895,235.100421 L231.894737,235.100421 C233.231804,235.100421 234.315789,234.068232 234.315789,232.795056 C234.315789,231.52188 233.231804,230.489692 231.894737,230.489692 L231.894737,230.489692 L231.894737,230.489692 L231.894737,230.489692 Z M137.473684,227.415872 L118.105263,227.415872 C116.768196,227.415872 115.684211,228.448061 115.684211,229.721237 L115.684211,248.164154 C115.684211,249.43733 116.768196,250.469519 118.105263,250.469519 L137.473684,250.469519 C138.810751,250.469519 139.894737,249.43733 139.894737,248.164154 L139.894737,229.721237 C139.894737,228.448061 138.810751,227.415872 137.473684,227.415872 L137.473684,227.415872 L137.473684,227.415872 L137.473684,227.415872 Z M135.052632,245.858789 L120.526316,245.858789 L120.526316,232.026601 L135.052632,232.026601 L135.052632,245.858789 L135.052632,245.858789 L135.052632,245.858789 L135.052632,245.858789 Z M118.105263,185.919308 L137.473684,185.919308 C138.810751,185.919308 139.894737,184.88712 139.894737,183.613944 L139.894737,165.171026 C139.894737,163.89785 138.810751,162.865662 137.473684,162.865662 L118.105263,162.865662 C116.768196,162.865662 115.684211,163.89785 115.684211,165.171026 L115.684211,183.613944 C115.684211,184.88712 116.768196,185.919308 118.105263,185.919308 L118.105263,185.919308 L118.105263,185.919308 L118.105263,185.919308 Z M120.526316,167.476391 L135.052632,167.476391 L135.052632,181.308579 L120.526316,181.308579 L120.526316,167.476391 L120.526316,167.476391 L120.526316,167.476391 L120.526316,167.476391 Z" id="search-1" fill="#F1FFDF"></path>
                </g>
            </g>
        </g>
    </g>
</svg>