<?xml version="1.0" encoding="UTF-8" standalone="no"?>
<svg width="85px" height="62px" viewBox="0 0 85 62" version="1.1" xmlns="http://www.w3.org/2000/svg" xmlns:xlink="http://www.w3.org/1999/xlink">
    <!-- Generator: Sketch 49.3 (51167) - http://www.bohemiancoding.com/sketch -->
    <title>DM_F3_01</title>
    <desc>Created with Sketch.</desc>
    <defs></defs>
    <g id="design" stroke="none" stroke-width="1" fill="none" fill-rule="evenodd">
        <g id="解決方案-決策大腦" transform="translate(-188.000000, -2470.000000)" fill="#0F9696">
            <g id="03-copy" transform="translate(0.000000, 2288.000000)">
                <g id="DM_F3_01" transform="translate(188.000000, 182.000000)">
                    <path d="M10.5,17.1851745 C8.12095963,17.1851745 6.18517454,19.1209596 6.18517454,21.5003951 C6.18517454,23.8790404 8.12095963,25.8148255 10.5,25.8148255 C12.8790404,25.8148255 14.8148255,23.8790404 14.8148255,21.5003951 C14.8148255,19.1209596 12.8790404,17.1851745 10.5,17.1851745 M10.5,27 C7.46713834,27 5,24.5328617 5,21.5003951 C5,18.4675334 7.46713834,16 10.5,16 C13.5328617,16 16,18.4675334 16,21.5003951 C16,24.5328617 13.5328617,27 10.5,27" id="Fill-1"></path>
                    <path d="M10.5,62 C10.2236667,62 10,61.7501476 10,61.4422938 L10,45.5577062 C10,45.2498524 10.2236667,45 10.5,45 C10.7763333,45 11,45.2498524 11,45.5577062 L11,61.4422938 C11,61.7501476 10.7763333,62 10.5,62" id="Fill-3"></path>
                    <path d="M17,62 L4,62 L4,33.570619 C4,33.2552569 4.25545436,33 4.57106042,33 C4.88628576,33 5.14212083,33.2552569 5.14212083,33.570619 L5.14212083,60.858762 L15.8578792,60.858762 L15.8578792,33.570619 C15.8578792,33.2552569 16.1133335,33 16.4289396,33 C16.7445456,33 17,33.2552569 17,33.570619 L17,62 Z" id="Fill-5"></path>
                    <g id="Group-9" transform="translate(0.000000, 27.000000)">
                        <path d="M4.05409524,21.7259649 L0.0518095238,21.7259649 L0.0251428571,21.175193 C-0.00914285714,20.4677193 -0.0019047619,18.3835088 0.00914285714,15.2282456 C0.016,13.2154386 0.0243809524,10.7757544 0.0243809524,8.00954386 C0.0243809524,0.0289473684 4.88114286,0.0289473684 7.2152381,0.0289473684 C7.53066667,0.0289473684 7.78666667,0.288315789 7.78666667,0.607894737 C7.78666667,0.927473684 7.53066667,1.18684211 7.2152381,1.18684211 C4.15504762,1.18684211 1.1672381,1.71368421 1.1672381,8.00954386 C1.1672381,10.7776842 1.15885714,13.2185263 1.152,15.2324912 C1.1432381,17.7594035 1.1367619,19.5954386 1.15161905,20.5680702 L4.05409524,20.5680702 C4.36990476,20.5680702 4.62552381,20.8274386 4.62552381,21.1470175 C4.62552381,21.4665965 4.36990476,21.7259649 4.05409524,21.7259649" id="Fill-7"></path>
                    </g>
                    <path d="M19.9467528,48 L15.7794529,48 C15.4550078,48 15.192399,47.7489638 15.192399,47.4396513 C15.192399,47.1303389 15.4550078,46.8793027 15.7794529,46.8793027 L18.8168697,46.8793027 C18.8321331,45.9379169 18.8254799,44.1608645 18.8164784,41.7151294 C18.8094337,39.7658632 18.8008236,37.4034332 18.8008236,34.7242195 C18.8008236,28.6306146 15.7313145,28.1206973 12.5870539,28.1206973 C12.2630001,28.1206973 12,27.8696611 12,27.5603487 C12,27.2510362 12.2630001,27 12.5870539,27 C14.9849733,27 19.9749314,27 19.9749314,34.7242195 C19.9749314,37.4015654 19.9835415,39.7628747 19.9905861,41.7110202 C20.0019358,44.7649204 20.0093719,46.7821756 19.9741486,47.4669216 L19.9467528,48 Z" id="Fill-10"></path>
                    <path d="M38.9998126,9.12433243 C36.3115338,9.12433243 34.1243324,11.3115338 34.1243324,14.0001874 C34.1243324,16.6884662 36.3115338,18.8756676 38.9998126,18.8756676 C41.6884662,18.8756676 43.8756676,16.6884662 43.8756676,14.0001874 C43.8756676,11.3115338 41.6884662,9.12433243 38.9998126,9.12433243 M38.9998126,20 C35.6916518,20 33,17.3083482 33,14.0001874 C33,10.6916518 35.6916518,8 38.9998126,8 C42.3083482,8 45,10.6916518 45,14.0001874 C45,17.3083482 42.3083482,20 38.9998126,20" id="Fill-12"></path>
                    <path d="M39.5,62 C39.2236667,62 39,61.7459357 39,61.4328922 L39,42.5671078 C39,42.2536862 39.2236667,42 39.5,42 C39.7763333,42 40,42.2536862 40,42.5671078 L40,61.4328922 C40,61.7459357 39.7763333,62 39.5,62" id="Fill-14"></path>
                    <path d="M47,62 L32,62 L32,28.5760304 C32,28.2580616 32.255961,28 32.5713415,28 C32.8871029,28 33.142683,28.2580616 33.142683,28.5760304 L33.142683,60.8479393 L45.857317,60.8479393 L45.857317,28.5760304 C45.857317,28.2580616 46.1128971,28 46.4286585,28 C46.7444199,28 47,28.2580616 47,28.5760304 L47,62 Z" id="Fill-16"></path>
                    <path d="M31.6935331,46 L27.0566586,46 L27.0297023,45.4524595 C26.9892678,44.6336429 26.9977398,42.2144118 27.0108329,38.5523751 C27.0189198,36.2152559 27.0289321,33.3823958 27.0289321,30.170056 C27.0289321,21 32.6978491,21 35.4223643,21 C35.7412192,21 36,21.2578467 36,21.5755506 C36,21.8932545 35.7412192,22.1511012 35.4223643,22.1511012 C31.7597687,22.1511012 28.1842036,22.77001 28.1842036,30.170056 C28.1842036,33.3839306 28.1741912,36.2183255 28.1661043,38.5565958 C28.1553218,41.5747832 28.14762,43.744609 28.1676447,44.8488988 L31.6935331,44.8488988 C32.0127731,44.8488988 32.2711689,45.1067455 32.2711689,45.4244494 C32.2711689,45.7421533 32.0127731,46 31.6935331,46" id="Fill-18"></path>
                    <path d="M50.9431498,46 L46.1792975,46 C45.8600643,46 45.6016741,45.7421533 45.6016741,45.4244494 C45.6016741,45.1067455 45.8600643,44.8488988 46.1792975,44.8488988 L49.8325727,44.8488988 C49.8522119,43.744609 49.8445102,41.5747832 49.834113,38.5565958 C49.8256412,36.2183255 49.815629,33.3839306 49.815629,30.170056 C49.815629,22.77001 46.2401405,22.1511012 42.5776234,22.1511012 C42.2587753,22.1511012 42,21.8932545 42,21.5755506 C42,21.2578467 42.2587753,21 42.5776234,21 C45.3020802,21 50.9708758,21 50.9708758,30.170056 C50.9708758,33.3823958 50.9808879,36.2152559 50.9893597,38.5523751 C51.0020674,42.2144118 51.0109243,44.6336429 50.9701056,45.4528432 L50.9431498,46 Z" id="Fill-20"></path>
                    <g id="Group-24" transform="translate(64.000000, 0.000000)">
                        <path d="M7.07756757,1.16911351 C3.92491892,1.16911351 1.36064865,3.73414054 1.36064865,6.88678919 C1.36064865,10.0390595 3.92491892,12.6040865 7.07756757,12.6040865 C10.2302162,12.6040865 12.7952432,10.0390595 12.7952432,6.88678919 C12.7952432,3.73414054 10.2302162,1.16911351 7.07756757,1.16911351 M7.07756757,13.7392216 C3.29945946,13.7392216 0.225513514,10.6652757 0.225513514,6.88678919 C0.225513514,3.1083027 3.29945946,0.0339783784 7.07756757,0.0339783784 C10.8560541,0.0339783784 13.9303784,3.1083027 13.9303784,6.88678919 C13.9303784,10.6652757 10.8560541,13.7392216 7.07756757,13.7392216" id="Fill-22"></path>
                    </g>
                    <path d="M71.5,61 C71.2236667,61 71,60.7429398 71,60.426205 L71,38.573795 C71,38.2570602 71.2236667,38 71.5,38 C71.7763333,38 72,38.2570602 72,38.573795 L72,60.426205 C72,60.7429398 71.7763333,61 71.5,61" id="Fill-25"></path>
                    <path d="M80,61 L63,61 L63,23.564787 C63,23.2530246 63.2554874,23 63.5711342,23 C63.8864003,23 64.1422684,23.2530246 64.1422684,23.564787 L64.1422684,59.870426 L78.8577316,59.870426 L78.8577316,23.564787 C78.8577316,23.2530246 79.113219,23 79.4288658,23 C79.7445126,23 80,23.2530246 80,23.564787 L80,61 Z" id="Fill-27"></path>
                    <path d="M63.3462499,43 L58.059918,43 L58.0337029,42.4611754 C57.9877315,41.5413599 57.9976096,38.8166518 58.0120469,34.6922081 C58.0215451,32.0588775 58.032943,28.867465 58.032943,25.2486177 C58.032943,15 64.3796567,15 67.4301065,15 C67.7446877,15 68,15.2537422 68,15.5663889 C68,15.8790355 67.7446877,16.1327777 67.4301065,16.1327777 C63.2516475,16.1327777 59.17273,16.8366103 59.17273,25.2486177 C59.17273,28.8689754 59.1613321,32.0618982 59.1518339,34.6963616 C59.1396761,38.1709685 59.1309378,40.6479758 59.1552532,41.8672223 L63.3462499,41.8672223 C63.661211,41.8672223 63.9161433,42.1209645 63.9161433,42.4336111 C63.9161433,42.7462578 63.661211,43 63.3462499,43" id="Fill-29"></path>
                    <path d="M84.9398934,43 L79.6711382,43 C79.3561831,43 79.1012556,42.7462578 79.1012556,42.4336111 C79.1012556,42.1209645 79.3561831,41.8672223 79.6711382,41.8672223 L83.8449589,41.8672223 C83.8692739,40.6479758 83.8605357,38.1713461 83.8479982,34.6963616 C83.8388801,32.0618982 83.8274825,28.8689754 83.8274825,25.2486177 C83.8274825,16.8366103 79.7482624,16.1327777 75.5698827,16.1327777 C75.2553074,16.1327777 75,15.8790355 75,15.5663889 C75,15.2537422 75.2553074,15 75.5698827,15 C78.6202746,15 84.9672478,15 84.9672478,25.2486177 C84.9672478,28.867465 84.9786454,32.0588775 84.9877636,34.6922081 C85.0025805,38.8166518 85.0120786,41.5413599 84.9664879,42.461553 L84.9398934,43 Z" id="Fill-31"></path>
                </g>
            </g>
        </g>
    </g>
</svg>