<?xml version="1.0" encoding="UTF-8" standalone="no"?>
<svg width="66px" height="66px" viewBox="0 0 66 66" version="1.1" xmlns="http://www.w3.org/2000/svg" xmlns:xlink="http://www.w3.org/1999/xlink">
    <!-- Generator: Sketch 49.3 (51167) - http://www.bohemiancoding.com/sketch -->
    <title>DM_F1_01</title>
    <desc>Created with Sketch.</desc>
    <defs>
        <polygon id="path-1" points="0.709674782 0.972 36.21 0.972 36.21 36.472151 0.709674782 36.472151"></polygon>
    </defs>
    <g id="design" stroke="none" stroke-width="1" fill="none" fill-rule="evenodd">
        <g id="解決方案-決策大腦" transform="translate(-203.000000, -1446.000000)">
            <g id="03" transform="translate(0.000000, 1246.000000)">
                <g id="DM_F1_01" transform="translate(203.000000, 199.000000)">
                    <path d="M16.9843,13.1682 L18.8953,11.2572 C19.2173,10.9352 19.7813,10.9352 20.1023,11.2572 L21.0103,12.1642 L17.8913,15.2832 L16.9843,14.3762 C16.8233,14.2152 16.7343,14.0002 16.7343,13.7722 C16.7343,13.5442 16.8233,13.3292 16.9843,13.1682 Z M23.5093,14.6642 L20.3813,17.7922 L18.7613,16.1732 L21.8893,13.0442 L23.5093,14.6642 Z M52.3393,44.4882 L52.5573,46.8312 L50.2133,46.6132 L52.3393,44.4882 Z M17.3473,16.4982 C17.3943,16.5592 17.4163,16.5862 17.4413,16.6112 L19.9413,19.1112 C19.9673,19.1382 19.9963,19.1602 20.0263,19.1822 L48.3973,47.5502 C48.4153,47.5682 48.4323,47.5822 48.4503,47.5962 L48.5233,47.6462 C48.5583,47.6662 48.5813,47.6772 48.6053,47.6872 C48.6373,47.6982 48.6593,47.7052 48.6813,47.7112 C48.7263,47.7222 48.7533,47.7262 48.7803,47.7292 L52.9653,48.1192 L53.9283,49.0822 C54.1643,49.3162 54.5713,49.3162 54.8083,49.0822 C55.0503,48.8402 55.0503,48.4442 54.8083,48.2022 L53.8443,47.2392 L53.4553,43.0542 C53.4523,43.0282 53.4473,43.0012 53.4423,42.9752 C53.4303,42.9322 53.4233,42.9072 53.4143,42.8842 C53.4033,42.8562 53.3923,42.8332 53.3793,42.8102 L53.3303,42.7362 C53.3083,42.7072 53.2923,42.6882 53.2733,42.6692 L44.3863,33.7822 C44.1503,33.5482 43.7413,33.5482 43.5063,33.7822 C43.3893,33.8992 43.3243,34.0562 43.3243,34.2222 C43.3243,34.3882 43.3893,34.5442 43.5063,34.6622 L51.9563,43.1112 L48.8373,46.2312 L21.2703,18.6622 L24.3893,15.5432 L38.9433,30.0982 C39.1783,30.3322 39.5873,30.3322 39.8223,30.0982 C39.9403,29.9802 40.0053,29.8242 40.0053,29.6582 C40.0053,29.4922 39.9403,29.3362 39.8223,29.2182 L20.9833,10.3782 C20.5873,9.9822 20.0603,9.7652 19.4993,9.7652 C18.9383,9.7652 18.4113,9.9822 18.0153,10.3782 L16.1043,12.2892 C15.7083,12.6862 15.4903,13.2122 15.4903,13.7722 C15.4903,14.3332 15.7083,14.8592 16.1043,15.2562 L17.3473,16.4982 Z" id="Fill-1" fill="#0F9696"></path>
                    <path d="M45.6274,64.7763 L45.6274,62.7233 C45.6274,62.3783 45.3434,62.0963 44.9944,62.0963 C44.6454,62.0963 44.3614,62.3783 44.3614,62.7233 L44.3614,64.7753 L38.2154,64.7753 L38.2154,62.7233 C38.2154,62.3783 37.9314,62.0963 37.5824,62.0963 C37.2334,62.0963 36.9494,62.3783 36.9494,62.7233 L36.9494,64.7753 L30.8034,64.7753 L30.8034,62.7233 C30.8034,62.3783 30.5194,62.0963 30.1694,62.0963 C29.8204,62.0963 29.5374,62.3783 29.5374,62.7233 L29.5374,64.7753 L23.3904,64.7753 L23.3904,62.7233 C23.3904,62.3783 23.1064,62.0963 22.7574,62.0963 C22.4084,62.0963 22.1244,62.3783 22.1244,62.7233 L22.1244,64.7753 L15.9784,64.7753 L15.9784,62.7233 C15.9784,62.3783 15.6944,62.0963 15.3454,62.0963 C14.9964,62.0963 14.7124,62.3783 14.7124,62.7233 L14.7124,64.7753 L8.5654,64.7753 L8.5654,62.7233 C8.5654,62.3783 8.2824,62.0963 7.9334,62.0963 C7.5844,62.0963 7.2994,62.3783 7.2994,62.7233 L7.2994,64.7753 L1.2664,64.7763 L1.2664,7.8283 L1.6924,8.2563 L58.1904,64.7763 L45.6274,64.7763 Z M2.1094,6.8903 C2.0194,6.8003 1.9054,6.7253 1.7524,6.6543 C1.7104,6.6343 1.6694,6.6233 1.6274,6.6103 C1.5194,6.5753 1.4284,6.5573 1.3304,6.5493 C1.3064,6.5473 1.2834,6.5423 1.2594,6.5353 L1.1804,6.5413 C1.0274,6.5473 0.8974,6.5733 0.7814,6.6183 L0.7394,6.6283 C0.2994,6.8113 0.0004,7.2553 0.0004,7.7513 L0.0004,64.8063 C0.0004,65.4803 0.5534,66.0283 1.2324,66.0283 L58.2664,66.0283 C58.7664,66.0283 59.2124,65.7333 59.4044,65.2753 C59.5964,64.8193 59.4934,64.2973 59.1424,63.9453 L2.1094,6.8903 Z" id="Fill-3" fill="#0F9696"></path>
                    <path d="M10.4146,56.8623 L14.0406,56.8623 C14.3946,56.8623 14.6826,56.5773 14.6826,56.2263 C14.6826,55.8763 14.3946,55.5913 14.0406,55.5913 L10.4506,55.5913 L10.4506,30.3503 L10.8766,30.7793 L35.6686,55.5913 L20.2836,55.5913 C19.9296,55.5913 19.6416,55.8763 19.6416,56.2263 C19.6416,56.5763 19.9296,56.8613 20.2836,56.8613 L35.7516,56.8613 C36.2576,56.8613 36.7096,56.5623 36.9036,56.0993 C37.0976,55.6373 36.9936,55.1093 36.6376,54.7553 L36.6016,54.7163 L11.3016,29.3943 C11.2106,29.3043 11.0956,29.2283 10.9406,29.1563 C10.8966,29.1363 10.8536,29.1233 10.8096,29.1093 C10.7016,29.0763 10.6106,29.0583 10.5196,29.0503 C10.4956,29.0493 10.4696,29.0423 10.4446,29.0353 L10.4336,29.0353 C10.3976,29.0353 10.3786,29.0403 10.3556,29.0413 C10.2066,29.0483 10.0756,29.0733 9.9576,29.1193 L9.9186,29.1283 C9.8456,29.1603 9.7556,29.2143 9.6566,29.2913 C9.3446,29.5283 9.1666,29.8833 9.1666,30.2663 L9.1666,55.6253 C9.1666,56.3073 9.7266,56.8623 10.4146,56.8623" id="Fill-5" fill="#0F9696"></path>
                    <g id="Group-9" transform="translate(29.000000, 0.028300)">
                        <mask id="mask-2" fill="white">
                            <use xlink:href="#path-1"></use>
                        </mask>
                        <g id="Clip-8"></g>
                        <path d="M34.8878,21.8137 L33.1818,21.1047 L33.2118,20.9107 C33.4368,19.4477 33.4368,17.9617 33.2118,16.4967 L33.1818,16.3037 L34.8888,15.5947 C35.9728,15.1427 36.4938,13.8897 36.0488,12.8017 L35.0708,10.4717 C34.6778,9.5127 33.6528,8.9797 32.6318,9.2067 C32.5128,9.2337 32.3938,9.2627 32.2778,9.3117 L30.5718,10.0187 L30.4558,9.8617 C29.5798,8.6747 28.5288,7.6237 27.3318,6.7387 L27.1748,6.6217 L27.8828,4.9157 C28.0978,4.3907 28.0978,3.8067 27.8818,3.2727 C27.6688,2.7497 27.2558,2.3377 26.7218,2.1137 L24.3618,1.1347 C23.8338,0.9187 23.2518,0.9207 22.7238,1.1387 C22.1948,1.3587 21.7858,1.7687 21.5698,2.2947 L20.8608,4.0027 L20.6678,3.9727 C19.2028,3.7477 17.7168,3.7477 16.2528,3.9727 L16.0588,4.0027 L15.3498,2.2957 C15.0148,1.4917 14.2398,0.9717 13.3738,0.9717 C13.0908,0.9717 12.8168,1.0267 12.5588,1.1347 L10.1968,2.1137 C9.3168,2.4817 8.7838,3.4047 8.9028,4.3567 C8.9298,4.5737 8.9728,4.7477 9.0378,4.9077 L9.7458,6.6127 L9.5878,6.7287 C8.4018,7.6047 7.3508,8.6557 6.4638,9.8527 L6.3478,10.0097 L4.6418,9.3007 C4.1148,9.0807 3.5348,9.0797 3.0068,9.2997 C2.4778,9.5197 2.0668,9.9317 1.8498,10.4607 L0.8708,12.8227 C0.6558,13.3467 0.6558,13.9307 0.8718,14.4647 C1.0858,14.9877 1.4978,15.3997 2.0318,15.6237 L4.1998,16.5267 C4.3738,16.5967 4.5688,16.5797 4.7358,16.4807 L4.8058,15.4657 C4.7628,15.4317 4.7188,15.4047 4.6728,15.3857 L2.5018,14.4827 C2.2778,14.3907 2.1038,14.2157 2.0108,13.9917 C1.9188,13.7667 1.9188,13.5287 2.0108,13.3027 L3.0008,10.9407 C3.0878,10.7217 3.2578,10.5477 3.4798,10.4547 C3.7018,10.3607 3.9468,10.3597 4.1708,10.4517 L6.3408,11.3537 C6.6118,11.4687 6.9278,11.3737 7.0918,11.1287 C8.0908,9.6297 9.3578,8.3637 10.8558,7.3657 C11.1008,7.2017 11.1958,6.8857 11.0808,6.6157 L10.1868,4.4447 C10.0958,4.2227 10.0968,3.9767 10.1908,3.7537 C10.2838,3.5337 10.4578,3.3627 10.6798,3.2727 L13.0378,2.2857 C13.2608,2.1937 13.5058,2.1947 13.7288,2.2887 C13.9508,2.3817 14.1218,2.5557 14.2108,2.7787 L15.3498,4.9717 L21.7488,5.0537 C21.7738,5.0187 21.7928,4.9837 21.8078,4.9467 L22.7108,2.7757 C22.8008,2.5547 22.9748,2.3817 23.1978,2.2887 C23.4218,2.1967 23.6638,2.1967 23.8818,2.2857 L26.2418,3.2647 C26.4658,3.3567 26.6408,3.5317 26.7328,3.7557 C26.8258,3.9807 26.8258,4.2197 26.7328,4.4457 L25.8308,6.6137 C25.7148,6.8857 25.8098,7.2017 26.0548,7.3657 C27.5518,8.3637 28.8188,9.6297 29.8188,11.1287 C29.9818,11.3727 30.2968,11.4697 30.5688,11.3537 L32.7388,10.4517 C32.9678,10.3587 33.2158,10.3617 33.4368,10.4557 C33.6548,10.5487 33.8228,10.7227 33.9118,10.9447 L34.8888,13.3017 C34.9818,13.5267 34.9798,13.7727 34.8848,13.9947 C34.7918,14.2157 34.6178,14.3857 34.3958,14.4747 L32.3848,15.3117 L32.0668,19.8737 C32.0608,19.9617 32.0558,20.0497 32.0468,20.1377 L31.9318,21.7897 C31.9838,21.8927 32.0738,22.0097 32.2268,22.0707 L34.3998,22.9747 C34.6228,23.0657 34.7978,23.2397 34.8898,23.4647 C34.9828,23.6897 34.9828,23.9287 34.8888,24.1547 L33.9108,26.5147 C33.8178,26.7387 33.6438,26.9127 33.4208,27.0057 C33.1948,27.0977 32.9568,27.0987 32.7298,27.0057 L30.5608,26.1027 C30.2898,25.9867 29.9728,26.0817 29.8088,26.3267 C28.8108,27.8257 27.5448,29.0917 26.0458,30.0907 C25.7998,30.2547 25.7048,30.5707 25.8198,30.8407 L26.7228,33.0107 C26.8158,33.2387 26.8158,33.4757 26.7238,33.7017 C26.6308,33.9267 26.4548,34.1017 26.2308,34.1927 L23.8718,35.1707 C23.6488,35.2647 23.4028,35.2607 23.1798,35.1667 C22.9588,35.0737 22.7878,34.8997 22.6998,34.6777 L21.8468,32.6267 L20.6608,32.5437 C20.6028,32.6907 20.6008,32.8447 20.6578,32.9827 L21.5598,35.1517 C22.0128,36.2367 23.2668,36.7597 24.3528,36.3117 L26.7128,35.3327 C27.2378,35.1187 27.6498,34.7057 27.8738,34.1717 C28.0388,33.7677 28.0748,33.3197 27.9748,32.8767 C27.9478,32.7587 27.9178,32.6427 27.8718,32.5297 L27.1648,30.8257 L27.3218,30.7087 C28.5088,29.8327 29.5598,28.7827 30.4458,27.5847 L30.5628,27.4277 L32.2688,28.1367 C32.7938,28.3527 33.3778,28.3497 33.9118,28.1357 C34.4348,27.9207 34.8468,27.5087 35.0708,26.9747 L36.0488,24.6157 C36.2638,24.0917 36.2638,23.5077 36.0488,22.9727 C35.8338,22.4487 35.4208,22.0367 34.8878,21.8137 Z" id="Fill-7" fill="#0F9696" mask="url(#mask-2)"></path>
                    </g>
                    <path d="M51.4184829,23.5392138 C50.0742849,24.6971157 48.3832895,25.2751113 46.6445259,25.1623783 C46.6282847,25.1614229 46.6120435,25.1614229 46.5958023,25.1614229 C46.4314796,25.1614229 46.2747998,25.2206555 46.149647,25.3305225 C46.0130298,25.4518538 45.9299131,25.619998 45.9174934,25.803428 C45.8916985,26.1779309 46.1783079,26.5037102 46.5585431,26.5304605 C48.6899615,26.649881 50.7315758,25.9610631 52.314615,24.56432 C53.9091185,23.1608894 54.8568402,21.2234099 54.9848591,19.1110987 C55.1138333,16.9873232 54.4154618,14.9457089 53.0187187,13.360759 C51.63344,11.7882288 49.7179339,10.8414625 47.62473,10.6952917 L47.5616759,10.6905149 C45.4417218,10.5749157 43.4001076,11.2618229 41.816113,12.6576106 C40.2225648,14.0619967 39.2748431,15.9985208 39.1468242,18.110832 C39.1344045,18.2952173 39.1936371,18.4710044 39.3140131,18.6076216 C39.4353444,18.7451941 39.6034885,18.8273554 39.7869185,18.8407305 C40.1642876,18.8665254 40.4977098,18.5789606 40.5235047,18.1996809 C40.6352823,16.4494529 41.4205921,14.846351 42.7332631,13.685583 C44.0449787,12.524815 45.7292866,11.945864 47.4862021,12.0605077 C49.2756001,12.1837498 50.8615054,12.9671488 52.0031661,14.2693108 C53.1629787,15.5810264 53.740019,17.2701111 53.6282413,19.0222498 C53.5164637,20.7724778 52.7321093,22.3774904 51.4184829,23.5392138" id="Fill-10" fill="#0F9696"></path>
                </g>
            </g>
        </g>
    </g>
</svg>