<?xml version="1.0" encoding="UTF-8" standalone="no"?>
<svg width="70px" height="68px" viewBox="0 0 70 68" version="1.1" xmlns="http://www.w3.org/2000/svg" xmlns:xlink="http://www.w3.org/1999/xlink">
    <!-- Generator: Sketch 48 (47235) - http://www.bohemiancoding.com/sketch -->
    <title>quit</title>
    <desc>Created with Sketch.</desc>
    <defs></defs>
    <g id="解決方案-決策大腦" stroke="none" stroke-width="1" fill="none" fill-rule="evenodd" transform="translate(-742.000000, -2467.000000)">
        <g id="03-copy" transform="translate(0.000000, 2288.000000)">
            <g id="quit" transform="translate(742.000000, 179.000000)">
                <path d="M35.1482963,17.5508148 C32.5753333,17.5508148 30.4816296,19.6441481 30.4816296,22.2174815 C30.4816296,24.7904444 32.5753333,26.8837778 35.1482963,26.8837778 C37.7212593,26.8837778 39.814963,24.7904444 39.814963,22.2174815 C39.814963,19.6441481 37.7212593,17.5508148 35.1482963,17.5508148 M35.1482963,28.1063704 C31.9008889,28.1063704 29.2594074,25.4645185 29.2594074,22.2174815 C29.2594074,18.9700741 31.9008889,16.3282222 35.1482963,16.3282222 C38.3957037,16.3282222 41.0371852,18.9700741 41.0371852,22.2174815 C41.0371852,25.4645185 38.3957037,28.1063704 35.1482963,28.1063704" id="Fill-1" fill="#0F9696"></path>
                <path d="M35.1482963,67.9240741 C34.8108889,67.9240741 34.5371852,67.6503704 34.5371852,67.312963 L34.5371852,52.7459259 C34.5371852,52.4081481 34.8108889,52.1344444 35.1482963,52.1344444 C35.4857037,52.1344444 35.7594074,52.4081481 35.7594074,52.7459259 L35.7594074,67.312963 C35.7594074,67.6503704 35.4857037,67.9240741 35.1482963,67.9240741" id="Fill-3" fill="#0F9696"></path>
                <path d="M41.765037,67.9240741 L28.5317037,67.9240741 C28.1939259,67.9240741 27.9202222,67.6503704 27.9202222,67.312963 L27.9202222,36.1988889 C27.9202222,35.8614815 28.1939259,35.5874074 28.5317037,35.5874074 C28.8691111,35.5874074 29.1428148,35.8614815 29.1428148,36.1988889 L29.1428148,66.7014815 L41.1539259,66.7014815 L41.1539259,36.1988889 C41.1539259,35.8614815 41.4276296,35.5874074 41.765037,35.5874074 C42.1024444,35.5874074 42.3761481,35.8614815 42.3761481,36.1988889 L42.3761481,67.312963 C42.3761481,67.6503704 42.1024444,67.9240741 41.765037,67.9240741" id="Fill-5" fill="#0F9696"></path>
                <path d="M24.5247407,44.4681111 C24.2006667,44.4681111 23.9306667,44.2136667 23.9147407,43.887 C23.9017778,43.6288519 23.8954815,43.5607037 23.8921481,43.5295926 C23.886963,43.4788519 23.8847407,43.4788519 23.8877037,43.3507037 C23.9095556,42.4162593 23.914,39.7510741 23.914,37.6795926 C23.914,28.9207037 29.3128889,28.9207037 31.9077037,28.9207037 C32.2451111,28.9207037 32.5188148,29.1947778 32.5188148,29.5321852 C32.5188148,29.8695926 32.2451111,30.1432963 31.9077037,30.1432963 C28.4814074,30.1432963 25.1362222,30.7251481 25.1362222,37.6795926 C25.1362222,39.7573704 25.1317778,42.4329259 25.1099259,43.3792222 L25.1088148,43.427 C25.1117778,43.4418148 25.1202963,43.5221852 25.1354815,43.827 C25.1517778,44.164037 24.8921481,44.4507037 24.5551111,44.4673704 C24.5451111,44.4677407 24.5347407,44.4681111 24.5247407,44.4681111" id="Fill-7" fill="#0F9696"></path>
                <path d="M45.7718519,44.4681111 C45.7618519,44.4681111 45.7514815,44.4677407 45.7414815,44.4673704 C45.4044444,44.4507037 45.1448148,44.164037 45.1611111,43.827 C45.1762963,43.5221852 45.1848148,43.4418148 45.1885185,43.4047778 L45.1866667,43.3792222 C45.1648148,42.4329259 45.1603704,39.7573704 45.1603704,37.6795926 C45.1603704,30.7251481 41.8151852,30.1432963 38.3888889,30.1432963 C38.0514815,30.1432963 37.7777778,29.8695926 37.7777778,29.5321852 C37.7777778,29.1947778 38.0514815,28.9207037 38.3888889,28.9207037 C40.9837037,28.9207037 46.3825926,28.9207037 46.3825926,37.6795926 C46.3825926,39.7510741 46.387037,42.4162593 46.4088889,43.3507037 C46.4118519,43.4788519 46.4096296,43.4788519 46.4044444,43.5295926 C46.4011111,43.5607037 46.3948148,43.6288519 46.3818519,43.887 C46.3659259,44.2136667 46.0955556,44.4681111 45.7718519,44.4681111" id="Fill-9" fill="#0F9696"></path>
                <polygon id="Fill-11" fill="#FFFFFF" points="27.4203704 48.4211111 42.6825926 48.4211111 42.6825926 34.2892593 27.4203704 34.2892593"></polygon>
                <path d="M28.0318519,47.8096296 L42.0714815,47.8096296 L42.0714815,34.9003704 L28.0318519,34.9003704 L28.0318519,47.8096296 Z M42.6825926,49.0322222 L27.4203704,49.0322222 C27.082963,49.0322222 26.8092593,48.7585185 26.8092593,48.4211111 L26.8092593,34.2892593 C26.8092593,33.9514815 27.082963,33.6777778 27.4203704,33.6777778 L42.6825926,33.6777778 C43.02,33.6777778 43.2940741,33.9514815 43.2940741,34.2892593 L43.2940741,48.4211111 C43.2940741,48.7585185 43.02,49.0322222 42.6825926,49.0322222 Z" id="Fill-13" fill="#0F9696"></path>
                <path d="M35.1652963,13.0741852 C35.0434444,13.0741852 34.9208519,13.0378889 34.8138148,12.9623333 C34.5378889,12.7682593 34.4715926,12.3871481 34.666037,12.1108519 C35.0638148,11.5434444 35.3141852,10.8534444 35.2408519,10.6867778 C35.2408519,10.6864074 35.1930741,10.641963 34.9415926,10.641963 C34.5812222,10.641963 33.8286296,10.7578889 32.3401111,11.3623333 C28.599,12.8827037 27.5601111,11.9771481 27.2738148,11.301963 C26.7241852,10.001963 28.379,8.11122222 31.1234444,6.90344444 C33.0238148,6.06751852 34.3486296,5.12862963 34.8756667,4.59862963 C34.2471481,4.62862963 32.7215926,4.89418519 29.1704815,6.1852963 C25.6115926,7.48011111 23.9075185,7.5627037 23.4764074,6.45974074 C22.749,4.59825926 27.979,0.641962963 29.3982593,0.0471481481 C29.7115926,-0.0821111111 30.0675185,0.0641851852 30.1982593,0.374925926 C30.3282593,0.686407407 30.1815926,1.04455556 29.8701111,1.17492593 C28.1671481,1.88788889 24.7164074,5.06344444 24.621963,5.97381481 C24.8264074,6.03677778 25.7130741,6.14233333 28.7534444,5.03677778 C35.1423333,2.71418519 35.9845556,3.28751852 36.2730741,4.00751852 C36.936037,5.659 31.8330741,7.92677778 31.6152963,8.02233333 C29.0612222,9.14640741 28.2845556,10.5530741 28.3993704,10.826037 C28.446037,10.9352963 29.2834444,11.2856667 31.8801111,10.2301111 C34.2623333,9.26196296 35.596037,9.17011111 36.2023333,9.93381481 C36.9364074,10.8575185 35.9767778,12.3723333 35.6652963,12.8149259 C35.546037,12.9838148 35.3571481,13.0741852 35.1652963,13.0741852" id="Fill-14" fill="#0F9696"></path>
                <path d="M42.6826667,39.4066296 L27.4204444,39.4066296 C27.083037,39.4066296 26.8093333,39.1329259 26.8093333,38.7955185 C26.8093333,38.4577407 27.083037,38.184037 27.4204444,38.184037 L42.6826667,38.184037 C43.0200741,38.184037 43.2937778,38.4577407 43.2937778,38.7955185 C43.2937778,39.1329259 43.0200741,39.4066296 42.6826667,39.4066296" id="Fill-15" fill="#0F9696"></path>
                <path d="M12.8334815,13.0144815 C10.2605185,13.0144815 8.16681481,15.1078148 8.16681481,17.6811481 C8.16681481,20.2541111 10.2605185,22.3474444 12.8334815,22.3474444 C15.4064444,22.3474444 17.5001481,20.2541111 17.5001481,17.6811481 C17.5001481,15.1078148 15.4064444,13.0144815 12.8334815,13.0144815 M12.8334815,23.570037 C9.58607407,23.570037 6.94459259,20.9281852 6.94459259,17.6811481 C6.94459259,14.4337407 9.58607407,11.7918889 12.8334815,11.7918889 C16.0808889,11.7918889 18.7223704,14.4337407 18.7223704,17.6811481 C18.7223704,20.9281852 16.0808889,23.570037 12.8334815,23.570037" id="Fill-16" fill="#0F9696"></path>
                <path d="M12.8334815,63.3877778 C12.4960741,63.3877778 12.2223704,63.1140741 12.2223704,62.7766667 L12.2223704,48.2096296 C12.2223704,47.8718519 12.4960741,47.5981481 12.8334815,47.5981481 C13.1708889,47.5981481 13.4445926,47.8718519 13.4445926,48.2096296 L13.4445926,62.7766667 C13.4445926,63.1140741 13.1708889,63.3877778 12.8334815,63.3877778" id="Fill-17" fill="#0F9696"></path>
                <path d="M19.4502222,63.3877778 L6.21688889,63.3877778 C5.87911111,63.3877778 5.60540741,63.1140741 5.60540741,62.7766667 L5.60540741,31.6625926 C5.60540741,31.3251852 5.87911111,31.0511111 6.21688889,31.0511111 C6.5542963,31.0511111 6.828,31.3251852 6.828,31.6625926 L6.828,62.1651852 L18.8391111,62.1651852 L18.8391111,31.6625926 C18.8391111,31.3251852 19.1128148,31.0511111 19.4502222,31.0511111 C19.7876296,31.0511111 20.0613333,31.3251852 20.0613333,31.6625926 L20.0613333,62.7766667 C20.0613333,63.1140741 19.7876296,63.3877778 19.4502222,63.3877778" id="Fill-18" fill="#0F9696"></path>
                <path d="M2.20992593,39.9318148 C1.88585185,39.9318148 1.61585185,39.6773704 1.59992593,39.3507037 C1.58696296,39.0925556 1.58066667,39.0244074 1.57733333,38.9932963 C1.57214815,38.9425556 1.56992593,38.9425556 1.57288889,38.8144074 C1.59474074,37.879963 1.59918519,35.2147778 1.59918519,33.1432963 C1.59918519,24.3844074 6.99807407,24.3844074 9.59288889,24.3844074 C9.9302963,24.3844074 10.204,24.6584815 10.204,24.9958889 C10.204,25.3332963 9.9302963,25.607 9.59288889,25.607 C6.16659259,25.607 2.82140741,26.1888519 2.82140741,33.1432963 C2.82140741,35.2210741 2.81696296,37.8966296 2.79511111,38.8429259 L2.794,38.8907037 C2.79696296,38.9055185 2.80548148,38.9858889 2.82066667,39.2907037 C2.83696296,39.6277407 2.57733333,39.9144074 2.2402963,39.9310741 C2.2302963,39.9314444 2.21992593,39.9318148 2.20992593,39.9318148" id="Fill-19" fill="#0F9696"></path>
                <path d="M23.2678519,31.1713333 C22.9734074,31.1713333 22.7137778,30.958 22.6652593,30.6576296 C21.9119259,25.9968889 18.996,25.6072593 16.0741481,25.6072593 C15.7367407,25.6072593 15.463037,25.3331852 15.463037,24.9957778 C15.463037,24.6583704 15.7367407,24.3846667 16.0741481,24.3846667 C18.2863704,24.3846667 22.8893333,24.3846667 23.8719259,30.4624444 C23.9256296,30.7954074 23.6993333,31.1094815 23.3663704,31.1635556 C23.333037,31.1687407 23.3004444,31.1713333 23.2678519,31.1713333" id="Fill-20" fill="#0F9696"></path>
                <polygon id="Fill-21" fill="#FFFFFF" points="5.10555556 43.8848148 20.3677778 43.8848148 20.3677778 29.752963 5.10555556 29.752963"></polygon>
                <path d="M5.71703704,43.2733333 L19.7566667,43.2733333 L19.7566667,30.3640741 L5.71703704,30.3640741 L5.71703704,43.2733333 Z M20.3677778,44.4959259 L5.10555556,44.4959259 C4.76814815,44.4959259 4.49444444,44.2222222 4.49444444,43.8848148 L4.49444444,29.7525926 C4.49444444,29.4151852 4.76814815,29.1414815 5.10555556,29.1414815 L20.3677778,29.1414815 C20.7051852,29.1414815 20.9792593,29.4151852 20.9792593,29.7525926 L20.9792593,43.8848148 C20.9792593,44.2222222 20.7051852,44.4959259 20.3677778,44.4959259 Z" id="Fill-22" fill="#0F9696"></path>
                <path d="M5.84637037,38.7288519 C5.84637037,40.1744074 4.67451852,41.3462593 3.22896296,41.3462593 C1.78303704,41.3462593 0.611185185,40.1744074 0.611185185,38.7288519 C0.611185185,37.2832963 1.78303704,36.1114444 3.22896296,36.1114444 C4.67451852,36.1114444 5.84637037,37.2832963 5.84637037,38.7288519" id="Fill-23" fill="#FFFFFF"></path>
                <path d="M3.22881481,36.7225556 C2.12251852,36.7225556 1.22251852,37.6225556 1.22251852,38.7288519 C1.22251852,39.8351481 2.12251852,40.7351481 3.22881481,40.7351481 C4.33511111,40.7351481 5.23511111,39.8351481 5.23511111,38.7288519 C5.23511111,37.6225556 4.33511111,36.7225556 3.22881481,36.7225556 M3.22881481,41.9577407 C1.44844444,41.9577407 -7.40740741e-05,40.5092222 -7.40740741e-05,38.7288519 C-7.40740741e-05,36.9484815 1.44844444,35.499963 3.22881481,35.499963 C5.00918519,35.499963 6.4577037,36.9484815 6.4577037,38.7288519 C6.4577037,40.5092222 5.00918519,41.9577407 3.22881481,41.9577407" id="Fill-24" fill="#0F9696"></path>
                <path d="M20.3678519,34.8703333 L5.10562963,34.8703333 C4.76822222,34.8703333 4.49451852,34.5966296 4.49451852,34.2592222 C4.49451852,33.9214444 4.76822222,33.6477407 5.10562963,33.6477407 L20.3678519,33.6477407 C20.7052593,33.6477407 20.978963,33.9214444 20.978963,34.2592222 C20.978963,34.5966296 20.7052593,34.8703333 20.3678519,34.8703333" id="Fill-25" fill="#0F9696"></path>
                <path d="M57.4074074,13.0144815 C54.8344444,13.0144815 52.7407407,15.1078148 52.7407407,17.6811481 C52.7407407,20.2541111 54.8344444,22.3474444 57.4074074,22.3474444 C59.9803704,22.3474444 62.0740741,20.2541111 62.0740741,17.6811481 C62.0740741,15.1078148 59.9803704,13.0144815 57.4074074,13.0144815 M57.4074074,23.570037 C54.16,23.570037 51.5185185,20.9281852 51.5185185,17.6811481 C51.5185185,14.4337407 54.16,11.7918889 57.4074074,11.7918889 C60.6548148,11.7918889 63.2962963,14.4337407 63.2962963,17.6811481 C63.2962963,20.9281852 60.6548148,23.570037 57.4074074,23.570037" id="Fill-26" fill="#0F9696"></path>
                <path d="M57.4074074,63.3877778 C57.07,63.3877778 56.7962963,63.1140741 56.7962963,62.7766667 L56.7962963,48.2096296 C56.7962963,47.8718519 57.07,47.5981481 57.4074074,47.5981481 C57.7448148,47.5981481 58.0185185,47.8718519 58.0185185,48.2096296 L58.0185185,62.7766667 C58.0185185,63.1140741 57.7448148,63.3877778 57.4074074,63.3877778" id="Fill-27" fill="#0F9696"></path>
                <path d="M64.0241481,63.3877778 L50.7908148,63.3877778 C50.453037,63.3877778 50.1793333,63.1140741 50.1793333,62.7766667 L50.1793333,31.6625926 C50.1793333,31.3251852 50.453037,31.0511111 50.7908148,31.0511111 C51.1282222,31.0511111 51.4019259,31.3251852 51.4019259,31.6625926 L51.4019259,62.1651852 L63.413037,62.1651852 L63.413037,31.6625926 C63.413037,31.3251852 63.6867407,31.0511111 64.0241481,31.0511111 C64.3615556,31.0511111 64.6352593,31.3251852 64.6352593,31.6625926 L64.6352593,62.7766667 C64.6352593,63.1140741 64.3615556,63.3877778 64.0241481,63.3877778" id="Fill-28" fill="#0F9696"></path>
                <path d="M46.9896667,31.0714815 C46.9555926,31.0714815 46.9207778,31.0685185 46.8863333,31.062963 C46.5537407,31.0059259 46.330037,30.6903704 46.3863333,30.3574074 C47.403,24.3844444 51.9711481,24.3844444 54.1667037,24.3844444 C54.5041111,24.3844444 54.7778148,24.6585185 54.7778148,24.9959259 C54.7778148,25.3333333 54.5041111,25.607037 54.1667037,25.607037 C51.2663333,25.607037 48.370037,25.9896296 47.5915185,30.562963 C47.5404074,30.8607407 47.2822593,31.0714815 46.9896667,31.0714815" id="Fill-29" fill="#0F9696"></path>
                <path d="M68.030963,39.9318148 C68.020963,39.9318148 68.0105926,39.9314444 68.0005926,39.9310741 C67.6635556,39.9144074 67.4039259,39.6277407 67.4202222,39.2907037 C67.4354074,38.9858889 67.4439259,38.9055185 67.4476296,38.8684815 L67.4457778,38.8429259 C67.4239259,37.8966296 67.4194815,35.2210741 67.4194815,33.1432963 C67.4194815,26.1888519 64.0742963,25.607 60.648,25.607 C60.3105926,25.607 60.0368889,25.3332963 60.0368889,24.9958889 C60.0368889,24.6584815 60.3105926,24.3844074 60.648,24.3844074 C63.2428148,24.3844074 68.6417037,24.3844074 68.6417037,33.1432963 C68.6417037,35.2147778 68.6461481,37.879963 68.668,38.8144074 C68.670963,38.9425556 68.6687407,38.9425556 68.6635556,38.9932963 C68.6602222,39.0244074 68.6539259,39.0925556 68.640963,39.3507037 C68.625037,39.6773704 68.3546667,39.9318148 68.030963,39.9318148" id="Fill-30" fill="#0F9696"></path>
                <polygon id="Fill-31" fill="#FFFFFF" points="49.6796296 43.8848148 64.9418519 43.8848148 64.9418519 29.752963 49.6796296 29.752963"></polygon>
                <path d="M50.2907407,43.2733333 L64.3303704,43.2733333 L64.3303704,30.3640741 L50.2907407,30.3640741 L50.2907407,43.2733333 Z M64.9418519,44.4959259 L49.6796296,44.4959259 C49.3422222,44.4959259 49.0681481,44.2222222 49.0681481,43.8848148 L49.0681481,29.7525926 C49.0681481,29.4151852 49.3422222,29.1414815 49.6796296,29.1414815 L64.9418519,29.1414815 C65.2792593,29.1414815 65.552963,29.4151852 65.552963,29.7525926 L65.552963,43.8848148 C65.552963,44.2222222 65.2792593,44.4959259 64.9418519,44.4959259 Z" id="Fill-32" fill="#0F9696"></path>
                <path d="M64.9417778,34.8703333 L49.6795556,34.8703333 C49.3421481,34.8703333 49.0684444,34.5966296 49.0684444,34.2592222 C49.0684444,33.9214444 49.3421481,33.6477407 49.6795556,33.6477407 L64.9417778,33.6477407 C65.2791852,33.6477407 65.5528889,33.9214444 65.5528889,34.2592222 C65.5528889,34.5966296 65.2791852,34.8703333 64.9417778,34.8703333" id="Fill-33" fill="#0F9696"></path>
                <path d="M69.2592593,38.7288519 C69.2592593,40.1744074 68.0874074,41.3462593 66.6418519,41.3462593 C65.1959259,41.3462593 64.0240741,40.1744074 64.0240741,38.7288519 C64.0240741,37.2832963 65.1959259,36.1114444 66.6418519,36.1114444 C68.0874074,36.1114444 69.2592593,37.2832963 69.2592593,38.7288519" id="Fill-34" fill="#FFFFFF"></path>
                <path d="M66.6417037,36.7225556 C65.5354074,36.7225556 64.6354074,37.6225556 64.6354074,38.7288519 C64.6354074,39.8351481 65.5354074,40.7351481 66.6417037,40.7351481 C67.748,40.7351481 68.648,39.8351481 68.648,38.7288519 C68.648,37.6225556 67.748,36.7225556 66.6417037,36.7225556 M66.6417037,41.9577407 C64.8613333,41.9577407 63.4128148,40.5092222 63.4128148,38.7288519 C63.4128148,36.9484815 64.8613333,35.499963 66.6417037,35.499963 C68.4220741,35.499963 69.8705926,36.9484815 69.8705926,38.7288519 C69.8705926,40.5092222 68.4220741,41.9577407 66.6417037,41.9577407" id="Fill-35" fill="#0F9696"></path>
                <path d="M28.1611852,43.2651852 C28.1611852,44.7107407 26.9893333,45.8825926 25.5437778,45.8825926 C24.0978519,45.8825926 22.926,44.7107407 22.926,43.2651852 C22.926,41.8196296 24.0978519,40.6477778 25.5437778,40.6477778 C26.9893333,40.6477778 28.1611852,41.8196296 28.1611852,43.2651852" id="Fill-36" fill="#FFFFFF"></path>
                <path d="M25.5436296,41.2588519 C24.4373333,41.2588519 23.5373333,42.1588519 23.5373333,43.2651481 C23.5373333,44.3714444 24.4373333,45.2714444 25.5436296,45.2714444 C26.6499259,45.2714444 27.5499259,44.3714444 27.5499259,43.2651481 C27.5499259,42.1588519 26.6499259,41.2588519 25.5436296,41.2588519 M25.5436296,46.494037 C23.7632593,46.494037 22.3147407,45.0455185 22.3147407,43.2651481 C22.3147407,41.4847778 23.7632593,40.0362593 25.5436296,40.0362593 C27.324,40.0362593 28.7725185,41.4847778 28.7725185,43.2651481 C28.7725185,45.0455185 27.324,46.494037 25.5436296,46.494037" id="Fill-37" fill="#0F9696"></path>
                <path d="M46.7722963,43.2651852 C46.7722963,44.7107407 45.6004444,45.8825926 44.1548889,45.8825926 C42.708963,45.8825926 41.5371111,44.7107407 41.5371111,43.2651852 C41.5371111,41.8196296 42.708963,40.6477778 44.1548889,40.6477778 C45.6004444,40.6477778 46.7722963,41.8196296 46.7722963,43.2651852" id="Fill-38" fill="#FFFFFF"></path>
                <path d="M44.1547407,41.2588519 C43.0484444,41.2588519 42.1484444,42.1588519 42.1484444,43.2651481 C42.1484444,44.3714444 43.0484444,45.2714444 44.1547407,45.2714444 C45.261037,45.2714444 46.161037,44.3714444 46.161037,43.2651481 C46.161037,42.1588519 45.261037,41.2588519 44.1547407,41.2588519 M44.1547407,46.494037 C42.3743704,46.494037 40.9258519,45.0455185 40.9258519,43.2651481 C40.9258519,41.4847778 42.3743704,40.0362593 44.1547407,40.0362593 C45.9351111,40.0362593 47.3836296,41.4847778 47.3836296,43.2651481 C47.3836296,45.0455185 45.9351111,46.494037 44.1547407,46.494037" id="Fill-39" fill="#0F9696"></path>
            </g>
        </g>
    </g>
</svg>