<?xml version="1.0" encoding="UTF-8" standalone="no"?>
<svg width="400px" height="305px" viewBox="0 0 400 305" version="1.1" xmlns="http://www.w3.org/2000/svg" xmlns:xlink="http://www.w3.org/1999/xlink">
    <!-- Generator: Sketch 49.3 (51167) - http://www.bohemiancoding.com/sketch -->
    <title>DM_F2</title>
    <desc>Created with Sketch.</desc>
    <defs></defs>
    <g id="design" stroke="none" stroke-width="1" fill="none" fill-rule="evenodd">
        <g id="解決方案-決策大腦" transform="translate(-120.000000, -1912.000000)">
            <g id="DM_F2" transform="translate(120.000000, 1912.000000)">
                <path d="M0,304.075261 L399.389103,304.075261 L399.389103,0.481081453 L0,0.481081453 L0,304.075261 Z M2.4140754,302.240506 L396.975028,302.240506 L396.975028,2.31679967 L2.4140754,2.31679967 L2.4140754,302.240506 Z" id="Fill-1" fill="#FFFFFF"></path>
                <g id="Group-143" transform="translate(38.000000, 2.208998)">
                    <path d="M84.960333,103.729719 C84.960333,116.081811 74.9467116,126.095432 62.5946203,126.095432 C50.2420473,126.095432 40.228426,116.081811 40.228426,103.729719 C40.228426,91.3771464 50.2420473,81.363525 62.5946203,81.363525 C74.9467116,81.363525 84.960333,91.3771464 84.960333,103.729719" id="Fill-2" fill="#FFFFFF" opacity="0.249999985"></path>
                    <path d="M2.6737273,119.143196 L0.747475234,119.143196 C0.747475234,86.0005848 27.7111516,59.0373899 60.8532815,59.0373899 C70.8534191,59.0373899 80.7543547,61.5429623 89.4870184,66.2825055 L88.5681962,67.9756811 C80.1167653,63.3883118 70.5331797,60.963642 60.8532815,60.963642 C28.7729981,60.963642 2.6737273,87.0629128 2.6737273,119.143196" id="Fill-4" fill="#FFFFFF"></path>
                    <path d="M59.1147433,114.791002 L59.1147433,112.986586 L58.9182441,112.955057 C55.5363903,112.381072 53.0474011,109.638069 53.0025855,106.428602 L53,106.241855 L55.1408065,106.241855 L55.1442539,106.422135 C55.1933787,108.979199 57.4548426,111.057672 60.1851465,111.057672 C62.9662989,111.057672 65.2277628,108.93716 65.2277628,106.327548 C65.2277628,104.485136 64.0470443,102.901422 61.9898361,101.983854 C61.2340038,101.648356 60.4187047,101.396934 59.6301226,101.155213 C59.1716246,101.014546 58.7182976,100.87388 58.2692798,100.717853 C55.021011,99.5844339 53.0025855,97.1074044 53.0025855,94.2552635 C53.0025855,90.9908232 55.4907129,88.2025483 58.9182441,87.6269461 L59.1147433,87.5946089 L59.1147433,85.7910017 L61.2564116,85.7910017 L61.2564116,87.5946089 L61.4529108,87.6269461 C64.8813038,88.2025483 67.3677075,90.9908232 67.3677075,94.2552635 L67.3677075,94.4403939 L65.2277628,94.4403939 L65.2277628,94.2552635 C65.2277628,91.6464599 62.9662989,89.5243313 60.1851465,89.5243313 C57.4048559,89.5243313 55.1442539,91.6464599 55.1442539,94.2552635 C55.1442539,95.6659738 55.8854349,97.0621323 57.0799429,97.8988574 C58.124491,98.6304865 59.419834,99.0250003 60.6720852,99.4065793 C61.0443994,99.5181426 61.4149899,99.6313228 61.7778238,99.7525873 C63.0688577,100.184289 64.6848047,100.839117 65.7267673,102.102693 C66.8316441,103.441453 67.3677075,104.826294 67.3677075,106.327548 C67.3677075,109.59118 64.8813038,112.378647 61.4529108,112.955057 L61.2564116,112.988203 L61.2564116,114.791002 L59.1147433,114.791002 Z" id="Fill-10" fill="#FFFFFF"></path>
                    <path d="M88.1615162,67.7429417 C86.4938635,66.8549395 84.7640892,66.0401348 83.0198679,65.3206797 L83.7547331,63.5398597 C85.5562603,64.2829114 87.3438222,65.1246835 89.0668547,66.0425427 L88.1615162,67.7429417 Z M97.6131535,74.0311915 C96.1506467,72.8373968 94.6125344,71.7018712 93.0407127,70.6559163 L94.1078564,69.0523115 C95.7316868,70.1329389 97.3208448,71.3055449 98.8310264,72.5383462 L97.6131535,74.0311915 Z M105.669703,82.0265823 C104.465795,80.5737067 103.175688,79.162727 101.83598,77.8331315 L103.192543,76.4654926 C104.576555,77.8393919 105.90904,79.2966015 107.153398,80.7971519 L105.669703,82.0265823 Z M112.027298,91.4257292 C111.12822,89.7686709 110.1362,88.1356907 109.078206,86.571574 L110.674106,85.4923913 C111.766772,87.1080352 112.791538,88.795432 113.720473,90.506907 L112.027298,91.4257292 Z M116.433118,101.87661 C115.874986,100.076527 115.220061,98.2822234 114.487122,96.543781 L116.262163,95.7949505 C117.019662,97.5916621 117.696258,99.4461613 118.272688,101.306439 L116.433118,101.87661 Z M118.7138,112.99301 C118.516841,111.111062 118.224532,109.22189 117.846505,107.378467 L119.733269,106.990809 C120.124298,108.896354 120.425757,110.848129 120.629939,112.791717 L118.7138,112.99301 Z M120.95981,119.129086 L119.033558,119.129086 L119.031632,118.664378 L120.957884,118.650413 L120.95981,119.129086 Z" id="Fill-8" fill="#FFFFFF"></path>
                    <path d="M59.6359384,78.7582141 C48.0418272,78.7582141 38.6094524,88.1905889 38.6094524,99.7847001 C38.6094524,111.378811 48.0418272,120.811186 59.6359384,120.811186 C71.2300495,120.811186 80.6624243,111.378811 80.6624243,99.7847001 C80.6624243,88.1905889 71.2300495,78.7582141 59.6359384,78.7582141 M59.6359384,122.737438 C46.9799807,122.737438 36.6832003,112.440658 36.6832003,99.7847001 C36.6832003,87.1287424 46.9799807,76.831962 59.6359384,76.831962 C72.2923775,76.831962 82.5886764,87.1287424 82.5886764,99.7847001 C82.5886764,112.440658 72.2923775,122.737438 59.6359384,122.737438" id="Fill-10" fill="#FFFFFF"></path>
                    <polygon id="Fill-12" fill="#FFFFFF" points="87.5938979 96.2797881 86.6355875 94.6082829 102.441449 85.5438222 103.399759 87.2153275"></polygon>
                    <path d="M35.47597,25.0564254 C35.47597,22.5874518 34.3216635,21.3532058 32.0125688,21.3532058 L30.5519882,21.3532058 L30.5519882,28.8376582 L31.7515616,28.8376582 C34.2345006,28.8376582 35.47597,27.5769263 35.47597,25.0564254 M37.2534191,25.0000826 C37.2534191,26.7024078 36.7810058,28.0040726 35.8356976,28.9045955 C34.8903894,29.8051183 33.5290107,30.2553797 31.7515616,30.2553797 L28.866036,30.2553797 L28.866036,19.9422262 L32.0549463,19.9422262 C33.6961131,19.9422262 34.9727367,20.384301 35.8852986,21.2684507 C36.7973789,22.1526004 37.2534191,23.3964777 37.2534191,25.0000826" id="Fill-14" fill="#B6FAFF"></path>
                    <path d="M38.8295267,22.4534329 L40.635388,22.4534329 L42.2226197,26.8765892 C42.4624381,27.5064736 42.622317,28.0992777 42.7022565,28.6540382 L42.7585993,28.6540382 C42.8009769,28.3954389 42.8785085,28.0819414 42.9916758,27.712101 C43.1043616,27.3432237 43.7014997,25.5903343 44.7830903,22.4534329 L46.5749862,22.4534329 L43.2382361,31.2920405 C42.6319483,32.9149078 41.6206659,33.7258599 40.2048707,33.7258599 C39.8384012,33.7258599 39.4810815,33.6858902 39.1329114,33.6059507 L39.1329114,32.2941731 C39.3818795,32.350516 39.6664832,32.3784466 39.9862411,32.3784466 C40.7856357,32.3784466 41.3476197,31.915183 41.6721932,30.9891373 L41.9616125,30.2552353 L38.8295267,22.4534329 Z" id="Fill-16" fill="#B6FAFF"></path>
                    <path d="M55.3460787,30.2553316 L53.6813154,30.2553316 L53.6813154,25.4584824 C53.6813154,24.8565286 53.560443,24.4072303 53.3182168,24.1110691 C53.0759906,23.8149078 52.6912218,23.6665864 52.1648734,23.6665864 C51.4637177,23.6665864 50.9513346,23.8736585 50.6267611,24.2873211 C50.3021877,24.7014653 50.1399009,25.3949161 50.1399009,26.3686365 L50.1399009,30.2553316 L48.482361,30.2553316 L48.482361,22.4535292 L49.7801734,22.4535292 L50.0132499,23.476369 L50.098005,23.476369 C50.3330077,23.1046024 50.6667309,22.8180724 51.099656,22.6158159 C51.5320996,22.4135594 52.0117364,22.3124312 52.5385663,22.3124312 C54.4104018,22.3124312 55.3460787,23.2644813 55.3460787,25.169063 L55.3460787,30.2553316 Z" id="Fill-18" fill="#B6FAFF"></path>
                    <path d="M60.7876445,29.1266442 C61.3895982,29.1266442 61.8726059,28.9585787 62.2371491,28.6224477 C62.6016924,28.2863167 62.7842047,27.814385 62.7842047,27.2080971 L62.7842047,26.530538 L61.7820721,26.5729155 C61.0014584,26.6013277 60.4336957,26.7318313 60.0787837,26.9644263 C59.7238718,27.1975028 59.546175,27.5533778 59.546175,28.0330146 C59.546175,28.3811846 59.6497111,28.6508599 59.8563016,28.8405958 C60.0633737,29.0317763 60.3739818,29.1266442 60.7876445,29.1266442 Z M63.2566181,30.2554279 L62.9248211,29.1690217 L62.8684783,29.1690217 C62.4923775,29.6438429 62.113869,29.9674532 61.7329527,30.1388897 C61.3520363,30.3103261 60.8627683,30.3965259 60.2656302,30.3965259 C59.4989818,30.3965259 58.9008806,30.1894538 58.4703632,29.7757911 C58.0398459,29.3616469 57.8250688,28.7760663 57.8250688,28.0190493 C57.8250688,27.214839 58.1236379,26.6085512 58.720776,26.1992226 C59.3179141,25.7898941 60.2280682,25.5664488 61.4507567,25.5288869 L62.7981701,25.4865094 L62.7981701,25.0704389 C62.7981701,24.5720212 62.6816318,24.1992914 62.4490369,23.9527312 C62.2159604,23.7052078 61.8552697,23.5819276 61.3660017,23.5819276 C60.9663043,23.5819276 60.5829802,23.6406783 60.2160292,23.7586613 C59.8495597,23.8761626 59.496574,24.0148528 59.1580352,24.1747317 L58.6220556,22.9896051 C59.0453495,22.7685677 59.5086131,22.6005022 60.0118465,22.4854086 C60.5150798,22.3703151 60.9899009,22.3125275 61.4367914,22.3125275 C62.4288112,22.3125275 63.1776417,22.5287493 63.6832829,22.9611929 C64.1889241,23.3941181 64.4417446,24.0736035 64.4417446,25.0001307 L64.4417446,30.2554279 L63.2566181,30.2554279 Z" id="Fill-20" fill="#B6FAFF"></path>
                    <path d="M74.0522977,30.2553316 L72.3875344,30.2553316 L72.3875344,25.4445171 C72.3875344,24.8473789 72.2748487,24.4019331 72.0489956,24.1076981 C71.8231425,23.8139447 71.4706384,23.6665864 70.9910017,23.6665864 C70.3510044,23.6665864 69.881962,23.8746216 69.583393,24.2911736 C69.2848239,24.7072441 69.1355394,25.3997317 69.1355394,26.3686365 L69.1355394,30.2553316 L67.4779994,30.2553316 L67.4779994,22.4535292 L68.7758118,22.4535292 L69.0084067,23.476369 L69.0931618,23.476369 C69.3093836,23.1046024 69.6233627,22.8180724 70.0350991,22.6158159 C70.4463539,22.4135594 70.8990231,22.3124312 71.3931068,22.3124312 C72.5921987,22.3124312 73.3867777,22.7212782 73.7773253,23.5399353 L73.890011,23.5399353 C74.1206797,23.1542034 74.4447716,22.8532265 74.8637314,22.6370047 C75.2822097,22.4203013 75.7618465,22.3124312 76.3026417,22.3124312 C77.233503,22.3124312 77.9120253,22.547434 78.337727,23.017921 C78.7634287,23.4879265 78.9762796,24.2054554 78.9762796,25.169063 L78.9762796,30.2553316 L77.3182581,30.2553316 L77.3182581,25.4445171 C77.3182581,24.8473789 77.2041277,24.4019331 76.9763484,24.1076981 C76.7480875,23.8139447 76.3941387,23.6665864 75.9145019,23.6665864 C75.2701706,23.6665864 74.7987204,23.8678797 74.5001513,24.2695033 C74.2015823,24.67209 74.0522977,25.2889722 74.0522977,26.1215947 L74.0522977,30.2553316 Z" id="Fill-22" fill="#B6FAFF"></path>
                    <path d="M82.0122455,30.2550908 L83.6697854,30.2550908 L83.6697854,22.4532884 L82.0122455,22.4532884 L82.0122455,30.2550908 Z M81.913525,20.3864199 C81.913525,20.0902587 81.9944276,19.8619978 82.1567144,19.7021189 C82.3190011,19.54224 82.5506329,19.4623005 82.8516098,19.4623005 C83.1429554,19.4623005 83.3702532,19.54224 83.5325399,19.7021189 C83.6948266,19.8619978 83.7757292,20.0902587 83.7757292,20.3864199 C83.7757292,20.6686159 83.6948266,20.891098 83.5325399,21.0529031 C83.3702532,21.2156714 83.1429554,21.296574 82.8516098,21.296574 C82.5506329,21.296574 82.3190011,21.2156714 82.1567144,21.0529031 C81.9944276,20.891098 81.913525,20.6686159 81.913525,20.3864199 Z" id="Fill-24" fill="#B6FAFF"></path>
                    <path d="M89.9085787,30.3963814 C88.7282677,30.3963814 87.8311159,30.0520638 87.2176046,29.3629472 C86.6036117,28.6743121 86.2968561,27.6851816 86.2968561,26.396519 C86.2968561,25.0847413 86.6180586,24.0758668 87.2599821,23.370377 C87.9019056,22.6648872 88.829396,22.312383 90.0424532,22.312383 C90.8654444,22.312383 91.6060883,22.4650385 92.2648665,22.770831 L91.764041,24.104279 C91.0628853,23.8312328 90.4845281,23.6949505 90.0284879,23.6949505 C88.6786668,23.6949505 88.003997,24.5906577 88.003997,26.3825537 C88.003997,27.2570721 88.1720625,27.9148872 88.5081935,28.3545542 C88.844806,28.7942212 89.3369634,29.013814 89.9861103,29.013814 C90.7243465,29.013814 91.4230944,28.8303385 92.081391,28.4633875 L92.081391,29.9095212 C91.7847482,30.083847 91.4688429,30.2080903 91.1327119,30.2836957 C90.7960993,30.3588195 90.3882155,30.3963814 89.9085787,30.3963814" id="Fill-26" fill="#B6FAFF"></path>
                    <path d="M37.2324711,44.2413181 L38.1281783,44.2413181 C38.9935471,44.2413181 39.6287287,44.0910704 40.03276,43.7900936 C40.437273,43.4891167 40.6395294,43.0186296 40.6395294,42.3791139 C40.6395294,41.7863099 40.4584618,41.344235 40.0963264,41.0528894 C39.734191,40.7610622 39.1697991,40.6156302 38.4036324,40.6156302 L37.2324711,40.6156302 L37.2324711,44.2413181 Z M42.3750826,42.3227711 C42.3750826,43.399546 42.0220969,44.224945 41.316607,44.7984865 C40.6115988,45.3725096 39.6075399,45.6590396 38.3049119,45.6590396 L37.2324711,45.6590396 L37.2324711,49.5178041 L35.546519,49.5178041 L35.546519,39.2046505 L38.5163181,39.2046505 C39.8049807,39.2046505 40.770033,39.4680655 41.4119565,39.9948954 C42.05388,40.5212438 42.3750826,41.2975234 42.3750826,42.3227711 Z" id="Fill-27" fill="#B6FAFF"></path>
                    <path d="M48.9381123,41.5748555 C49.2718354,41.5748555 49.5472895,41.5984521 49.7635113,41.6451637 L49.6012245,43.1900179 C49.3662218,43.133675 49.1215878,43.1057444 48.8678041,43.1057444 C48.2046918,43.1057444 47.6672675,43.3219662 47.2555311,43.7544097 C46.8442763,44.1873349 46.6386489,44.7493189 46.6386489,45.4403619 L46.6386489,49.5177559 L44.9806274,49.5177559 L44.9806274,41.7159535 L46.2789213,41.7159535 L46.4975509,43.0912975 L46.5818244,43.0912975 C46.8409053,42.6261076 47.1779994,42.2567488 47.5940699,41.9841841 C48.0106219,41.7111379 48.4584755,41.5748555 48.9381123,41.5748555" id="Fill-28" fill="#B6FAFF"></path>
                    <path d="M51.9318932,49.5176114 L53.5894331,49.5176114 L53.5894331,41.715809 L51.9318932,41.715809 L51.9318932,49.5176114 Z M51.8331728,39.6489406 C51.8331728,39.3527793 51.9140754,39.1245184 52.0763621,38.9646395 C52.2386489,38.8047606 52.4702807,38.7248211 52.7712576,38.7248211 C53.0630848,38.7248211 53.2899009,38.8047606 53.4521877,38.9646395 C53.6144744,39.1245184 53.695377,39.3527793 53.695377,39.6489406 C53.695377,39.9311365 53.6144744,40.1536186 53.4521877,40.3154238 C53.2899009,40.4781921 53.0630848,40.5590947 52.7712576,40.5590947 C52.4702807,40.5590947 52.2386489,40.4781921 52.0763621,40.3154238 C51.9140754,40.1536186 51.8331728,39.9311365 51.8331728,39.6489406 Z" id="Fill-29" fill="#B6FAFF"></path>
                    <path d="M59.8283228,49.658902 C58.6480118,49.658902 57.7508599,49.3145845 57.1373487,48.6254678 C56.5233558,47.9368327 56.2166002,46.9477023 56.2166002,45.6590396 C56.2166002,44.347262 56.5378027,43.3383875 57.1797262,42.6328976 C57.8216497,41.9274078 58.7491401,41.5749037 59.9621973,41.5749037 C60.7851885,41.5749037 61.5258324,41.7275592 62.1846106,42.0333517 L61.6837851,43.3667997 C60.9826293,43.0937534 60.4042722,42.9574711 59.948232,42.9574711 C58.5984108,42.9574711 57.9237411,43.8531783 57.9237411,45.6450743 C57.9237411,46.5195927 58.0918065,47.1774078 58.4279375,47.6170748 C58.7645501,48.0567419 59.2567075,48.2763346 59.9058544,48.2763346 C60.6440905,48.2763346 61.3428385,48.0928591 62.0011351,47.7259081 L62.0011351,49.1720418 C61.7044923,49.3463676 61.388587,49.4706109 61.052456,49.5462163 C60.7158434,49.6213401 60.3079595,49.658902 59.8283228,49.658902" id="Fill-30" fill="#B6FAFF"></path>
                    <path d="M64.5575124,49.5176114 L66.2150523,49.5176114 L66.2150523,41.715809 L64.5575124,41.715809 L64.5575124,49.5176114 Z M64.458792,39.6489406 C64.458792,39.3527793 64.5396946,39.1245184 64.7019813,38.9646395 C64.864268,38.8047606 65.0958998,38.7248211 65.3968767,38.7248211 C65.6882223,38.7248211 65.9155201,38.8047606 66.0778068,38.9646395 C66.239612,39.1245184 66.3209961,39.3527793 66.3209961,39.6489406 C66.3209961,39.9311365 66.239612,40.1536186 66.0778068,40.3154238 C65.9155201,40.4781921 65.6882223,40.5590947 65.3968767,40.5590947 C65.0958998,40.5590947 64.864268,40.4781921 64.7019813,40.3154238 C64.5396946,40.1536186 64.458792,39.9311365 64.458792,39.6489406 Z" id="Fill-31" fill="#B6FAFF"></path>
                    <path d="M76.1713676,49.5178522 L74.5066043,49.5178522 L74.5066043,44.721003 C74.5066043,44.1190493 74.385732,43.669751 74.1435058,43.3735897 C73.9012796,43.0774285 73.5165107,42.929107 72.9901624,42.929107 C72.2890066,42.929107 71.7766236,43.1361791 71.4520501,43.5498418 C71.1274766,43.963986 70.9651899,44.6574367 70.9651899,45.6311571 L70.9651899,49.5178522 L69.30765,49.5178522 L69.30765,41.7160498 L70.6054623,41.7160498 L70.8385388,42.7388897 L70.9232939,42.7388897 C71.1582966,42.367123 71.4920198,42.080593 71.924945,41.8783365 C72.3573886,41.6760801 72.8370253,41.5749518 73.3638553,41.5749518 C75.2356907,41.5749518 76.1713676,42.5270019 76.1713676,44.4315837 L76.1713676,49.5178522 Z" id="Fill-32" fill="#B6FAFF"></path>
                    <path d="M80.3713676,44.2413181 C80.3713676,44.7305861 80.4970556,45.1066868 80.748913,45.3701018 C81.0002889,45.6335168 81.3614612,45.7649835 81.8314667,45.7649835 C82.7907402,45.7649835 83.2708586,45.2526004 83.2708586,44.2273528 C83.2708586,43.7193038 83.1519125,43.3282746 82.9145019,43.052339 C82.6770914,42.7778481 82.3159191,42.6401211 81.8314667,42.6401211 C81.3518299,42.6401211 80.9887314,42.7764034 80.7416896,43.0489681 C80.4946478,43.3220143 80.3713676,43.7193038 80.3713676,44.2413181 Z M79.6591359,50.7313429 C79.6591359,51.0886626 79.819978,51.3636351 80.1421436,51.5562603 C80.4643093,51.7493671 80.9169785,51.8456797 81.5001513,51.8456797 C82.403082,51.8456797 83.075344,51.7161392 83.5174188,51.4575399 C83.9594937,51.1989406 84.1805311,50.8555861 84.1805311,50.4279582 C84.1805311,50.0894194 84.0596588,49.8481563 83.8174326,49.7051321 C83.5752064,49.5611447 83.124945,49.4893919 82.4666483,49.4893919 L81.210732,49.4893919 C80.7359108,49.4893919 80.3583654,49.6011145 80.0785773,49.8245597 C79.7987892,50.048005 79.6591359,50.3504265 79.6591359,50.7313429 Z M85.7889516,41.7160017 L85.7889516,42.6261558 L84.4555036,42.872716 C84.5778206,43.0374106 84.6789488,43.239667 84.7588883,43.4794854 C84.8388277,43.7193038 84.8787975,43.9730875 84.8787975,44.2413181 C84.8787975,45.0455283 84.6014172,45.6778206 84.0466566,46.1386764 C83.4914144,46.5995322 82.7276555,46.8302009 81.7539351,46.8302009 C81.504967,46.8302009 81.2791139,46.8114199 81.0768575,46.773858 C80.7195377,46.9948954 80.5408778,47.2534948 80.5408778,47.549656 C80.5408778,47.7283159 80.6241882,47.862672 80.7912906,47.9517611 C80.9579114,48.0413319 81.264667,48.0856357 81.7115575,48.0856357 L83.0729362,48.0856357 C83.9334893,48.0856357 84.5874518,48.2691112 85.0343423,48.6360622 C85.4807512,49.0030132 85.7041965,49.5317694 85.7041965,50.2232939 C85.7041965,51.1074436 85.3396533,51.7893368 84.6110484,52.2689736 C83.881962,52.7486103 82.8287837,52.9884287 81.4505504,52.9884287 C80.3877408,52.9884287 79.5767887,52.8001376 79.0167309,52.4240369 C78.4571547,52.0479362 78.1773665,51.5119565 78.1773665,50.8156164 C78.1773665,50.3359796 78.3290589,49.9324298 78.6324436,49.6064117 C78.9358283,49.2794304 79.3600853,49.0521326 79.9056962,48.9254816 C79.6846588,48.8310952 79.502628,48.6798844 79.3591222,48.4699229 C79.2156164,48.2614062 79.1438635,48.0413319 79.1438635,47.8106632 C79.1438635,47.5193176 79.2262108,47.2722757 79.3909053,47.0700193 C79.5555999,46.8677628 79.7997523,46.6679141 80.1243258,46.4704733 C79.7198129,46.2966291 79.3918685,46.01347 79.1404926,45.620033 C78.8886351,45.2280407 78.7629472,44.768148 78.7629472,44.2413181 C78.7629472,43.3947303 79.0297331,42.7388415 79.5637865,42.2731701 C80.0973583,41.8074986 80.8582278,41.5749037 81.8459136,41.5749037 C82.066951,41.5749037 82.2981013,41.5903137 82.5403275,41.6211337 C82.7825537,41.6514722 82.965066,41.6832554 83.087383,41.7160017 L85.7889516,41.7160017 Z" id="Fill-33" fill="#B6FAFF"></path>
                    <path d="M163.562816,214.103791 C159.78977,213.652566 155.946416,213.419971 152.046237,213.419971 L152.046237,302.784583 L217.590334,239.640596 C210.386633,232.677195 201.995398,226.854616 192.733496,222.478653" id="Fill-34" fill="#FFFFFF" opacity="0.249999985"></path>
                    <path d="M129.729458,300.903619 L127.803206,300.903619 L127.803206,221.212644 C119.806852,221.292584 111.88803,222.364543 104.249477,224.403963 L103.752986,222.54224 C111.859618,220.378577 120.275413,219.281577 128.766332,219.281577 L129.729458,219.281577 L129.729458,300.903619 Z" id="Fill-35" fill="#FFFFFF"></path>
                    <path d="M37.6051527,300.997186 L35.6885319,300.808895 C37.2338676,285.033854 43.117123,269.878103 52.7011901,256.980882 L54.247489,258.129891 C44.8719386,270.746361 39.1172606,285.569352 37.6051527,300.997186" id="Fill-36" fill="#FFFFFF"></path>
                    <path d="M147.383414,301.11854 L147.383414,208.52553 L148.34654,208.52553 C152.234679,208.52553 156.14786,208.757643 159.977731,209.21561 L159.748507,211.128378 C156.310629,210.717123 152.803887,210.491752 149.309666,210.456116 L149.309666,296.587995 L212.499883,235.71217 C205.470989,229.064192 197.441889,223.584968 188.622062,219.418004 L189.445054,217.67619 C198.758964,222.076713 207.20895,227.910849 214.56001,235.016311 L215.277539,235.710725 L147.383414,301.11854 Z" id="Fill-37" fill="#FFFFFF"></path>
                    <path d="M259.139646,301.008936 C258.300764,293.121416 256.361509,285.390403 253.3763,278.031157 L255.161454,277.306886 C258.214564,284.832753 260.197159,292.738573 261.055304,300.804754 L259.139646,301.008936 Z" id="Fill-38" fill="#FFFFFF"></path>
                    <path d="M178.379889,301.59678 L177.15518,300.209397 L228.880709,245.836117 L229.493284,246.482856 C230.004794,247.02317 230.509683,247.569744 231.008393,248.122097 L229.750584,249.473844 C229.461067,249.153123 229.169343,248.833847 228.874972,248.516979 L178.379889,301.59678 Z" id="Fill-39" fill="#FFFFFF"></path>
                    <polygon id="Fill-40" fill="#FFFFFF" points="182.891414 252.71014 163.40593 252.71014 163.40593 210.463099 165.332182 210.463099 165.332182 250.783888 180.965162 250.783888 180.965162 210.463099 182.891414 210.463099"></polygon>
                    <path d="M173.148431,185.872131 C169.817942,185.872131 167.108668,188.581886 167.108668,191.912376 C167.108668,195.242384 169.817942,197.951658 173.148431,197.951658 C176.478921,197.951658 179.188195,195.242384 179.188195,191.912376 C179.188195,188.581886 176.478921,185.872131 173.148431,185.872131 M173.148431,199.87791 C168.756095,199.87791 165.182416,196.304712 165.182416,191.912376 C165.182416,187.519558 168.756095,183.945879 173.148431,183.945879 C177.540768,183.945879 181.114447,187.519558 181.114447,191.912376 C181.114447,196.304712 177.540768,199.87791 173.148431,199.87791" id="Fill-41" fill="#FFFFFF"></path>
                    <polygon id="Fill-43" fill="#FFFFFF" points="172.185402 251.747111 174.111654 251.747111 174.111654 227.6627 172.185402 227.6627"></polygon>
                    <path d="M164.704657,232.579506 L158.135656,232.579506 L158.091353,231.663573 C158.040788,230.626768 158.051383,227.581364 158.067274,222.971361 C158.077387,220.0319 158.089908,216.468815 158.089908,212.428502 C158.089908,200.654286 165.356212,200.654286 168.848026,200.654286 L168.848026,202.580538 C165.331171,202.580538 160.01616,202.580538 160.01616,212.428502 C160.01616,216.471705 160.003639,220.036716 159.993526,222.978584 C159.981006,226.571526 159.971856,229.208083 159.9916,230.653254 L164.704657,230.653254 L164.704657,232.579506 Z" id="Fill-44" fill="#FFFFFF"></path>
                    <path d="M188.161544,232.579506 L181.592061,232.579506 L181.592061,230.653254 L186.306081,230.653254 C186.325826,229.208083 186.316676,226.571044 186.304155,222.978584 C186.294042,220.036716 186.281522,216.471705 186.281522,212.428502 C186.281522,202.580538 180.965066,202.580538 177.447248,202.580538 L177.447248,200.654286 C180.940025,200.654286 188.207774,200.654286 188.207774,212.428502 C188.207774,216.468815 188.220294,220.0319 188.230407,222.971361 C188.246299,227.581364 188.257375,230.62725 188.206329,231.663573 L188.161544,232.579506 Z" id="Fill-45" fill="#FFFFFF"></path>
                    <path d="M240.284865,232.691903 C237.091139,232.691903 234.492625,235.290417 234.492625,238.483661 C234.492625,241.676424 237.091139,244.274457 240.284865,244.274457 C243.47811,244.274457 246.076142,241.676424 246.076142,238.483661 C246.076142,235.290417 243.47811,232.691903 240.284865,232.691903 M240.284865,246.200709 C236.028811,246.200709 232.566373,242.738752 232.566373,238.483661 C232.566373,234.227607 236.028811,230.765651 240.284865,230.765651 C244.540438,230.765651 248.002394,234.227607 248.002394,238.483661 C248.002394,242.738752 244.540438,246.200709 240.284865,246.200709" id="Fill-46" fill="#FFFFFF"></path>
                    <polygon id="Fill-48" fill="#FFFFFF" points="239.321547 296.199229 241.247799 296.199229 241.247799 272.968148 239.321547 272.968148"></polygon>
                    <polygon id="Fill-49" fill="#FFFFFF" points="249.715554 297.162548 230.853213 297.162548 230.853213 256.378013 232.779465 256.378013 232.779465 295.236296 247.789302 295.236296 247.789302 256.378013 249.715554 256.378013"></polygon>
                    <path d="M232.139901,277.744386 L225.771712,277.744386 L225.726926,276.828453 C225.677807,275.828247 225.68792,272.890231 225.703811,268.443478 C225.713442,265.607554 225.725482,262.170638 225.725482,258.272867 C225.725482,246.881976 232.756783,246.881976 236.135911,246.881976 L236.135911,248.808228 C232.757746,248.808228 227.651734,248.808228 227.651734,258.272867 C227.651734,262.173528 227.639695,265.612851 227.629582,268.449739 C227.617543,271.888099 227.608875,274.417749 227.627655,275.818134 L232.139901,275.818134 L232.139901,277.744386 Z" id="Fill-50" fill="#FFFFFF"></path>
                    <path d="M254.798308,277.744386 L248.428674,277.744386 L248.428674,275.818134 L252.942364,275.818134 C252.960663,274.417749 252.951995,271.888099 252.939956,268.449739 C252.929843,265.612851 252.917804,262.173528 252.917804,258.272867 C252.917804,248.808228 247.810828,248.808228 244.431219,248.808228 L244.431219,246.881976 C247.810828,246.881976 254.844056,246.881976 254.844056,258.272867 C254.844056,262.170638 254.856095,265.607554 254.866208,268.443478 C254.881618,272.890231 254.891731,275.828247 254.843093,276.828453 L254.798308,277.744386 Z" id="Fill-51" fill="#FFFFFF"></path>
                    <path d="M69.278997,221.540685 C66.1030889,221.540685 63.5195033,224.124752 63.5195033,227.301142 C63.5195033,230.47705 66.1030889,233.060636 69.278997,233.060636 C72.4553866,233.060636 75.0394538,230.47705 75.0394538,227.301142 C75.0394538,224.124752 72.4553866,221.540685 69.278997,221.540685 M69.278997,234.986888 C65.0412424,234.986888 61.5932512,231.539378 61.5932512,227.301142 C61.5932512,223.062424 65.0412424,219.614433 69.278997,219.614433 C73.5172331,219.614433 76.9657058,223.062424 76.9657058,227.301142 C76.9657058,231.539378 73.5172331,234.986888 69.278997,234.986888" id="Fill-52" fill="#FFFFFF"></path>
                    <polygon id="Fill-54" fill="#FFFFFF" points="68.3156302 284.744772 70.2418822 284.744772 70.2418822 261.623487 68.3156302 261.623487"></polygon>
                    <polygon id="Fill-55" fill="#FFFFFF" points="78.6708723 285.708042 59.8879884 285.708042 59.8879884 245.110354 61.8142405 245.110354 61.8142405 283.78179 76.7446203 283.78179 76.7446203 245.110354 78.6708723 245.110354"></polygon>
                    <path d="M61.1728467,266.38157 L54.8311434,266.38157 L54.7858764,265.466119 C54.736757,264.469765 54.7468698,261.545714 54.7622799,257.119187 C54.7723927,254.296746 54.7844318,250.876204 54.7844318,246.997214 C54.7844318,235.655442 61.7868396,235.655442 65.1520019,235.655442 L65.1520019,237.581694 C61.7906921,237.581694 56.7106838,237.581694 56.7106838,246.997214 C56.7106838,250.879093 56.6986447,254.301562 56.6885319,257.125929 C56.6769744,260.435711 56.6683063,263.028447 56.6866057,264.455318 L61.1728467,264.455318 L61.1728467,266.38157 Z" id="Fill-56" fill="#FFFFFF"></path>
                    <path d="M82.841208,259.324553 C82.8508393,262.492274 82.8508393,264.620301 82.8118327,265.418251 L77.3855806,265.418251" id="Fill-57" fill="#5D5D5D"></path>
                    <path d="M83.7296436,266.38157 L77.3855325,266.38157 L77.3855325,264.455318 L81.8732182,264.455318 C81.886702,263.40214 81.8852573,261.685367 81.8780338,259.327635 L83.8042859,259.321856 C83.8148803,262.690871 83.812954,264.667687 83.7739474,265.465155 L83.7296436,266.38157 Z" id="Fill-58" fill="#FFFFFF"></path>
                    <path d="M73.4074849,236.618712 C74.7091497,236.618712 76.1567281,236.668471 77.5181068,237.075234" id="Fill-59" fill="#5D5D5D"></path>
                    <path d="M77.2430861,237.99709 C76.0189529,237.632065 74.6763553,237.581983 73.4074367,237.581983 L73.4074367,235.655731 C74.8222688,235.655731 76.332932,235.715926 77.7935127,236.150777 L77.2430861,237.99709 Z" id="Fill-60" fill="#FFFFFF"></path>
                    <path d="M94.6835649,204.673315 C90.6085787,204.673315 87.2930173,207.988876 87.2930173,212.064344 C87.2930173,216.13933 90.6085787,219.453928 94.6835649,219.453928 C98.7585512,219.453928 102.074113,216.13933 102.074113,212.064344 C102.074113,207.988876 98.7585512,204.673315 94.6835649,204.673315 M94.6835649,221.38018 C89.5462507,221.38018 85.3667653,217.201176 85.3667653,212.064344 C85.3667653,206.927029 89.5462507,202.747062 94.6835649,202.747062 C99.8208792,202.747062 104.000365,206.927029 104.000365,212.064344 C104.000365,217.201176 99.8208792,221.38018 94.6835649,221.38018" id="Fill-61" fill="#FFFFFF"></path>
                    <polygon id="Fill-63" fill="#FFFFFF" points="93.7204871 283.441181 95.6467391 283.441181 95.6467391 254.711613 93.7204871 254.711613"></polygon>
                    <polygon id="Fill-64" fill="#FFFFFF" points="106.119001 284.404451 83.2462025 284.404451 83.2462025 234.192838 85.1724546 234.192838 85.1724546 282.478199 104.192749 282.478199 104.192749 234.192838 106.119001 234.192838"></polygon>
                    <path d="M84.6104706,260.390252 L76.9521739,260.390252 L76.906907,259.4748 C76.84623,258.243444 76.8592323,254.611977 76.8784948,249.115417 C76.8910154,245.608675 76.9059439,241.3584 76.9059439,236.537954 C76.9059439,222.678089 85.4483902,222.678089 89.5537149,222.678089 L89.5537149,224.604341 C84.1289075,224.604341 78.8321959,225.526053 78.8321959,236.537954 C78.8321959,241.360326 78.8172675,245.613491 78.8047468,249.12264 C78.7893368,253.564096 78.7777793,256.780937 78.8052284,258.464 L84.6104706,258.464 L84.6104706,260.390252 Z" id="Fill-65" fill="#FFFFFF"></path>
                    <path d="M112.414378,260.390252 L104.755118,260.390252 L104.755118,258.464 L110.561324,258.464 C110.588773,256.780937 110.577697,253.564096 110.561805,249.12264 C110.549285,245.613491 110.534356,241.360326 110.534356,236.537954 C110.534356,225.526053 105.237644,224.604341 99.8128371,224.604341 L99.8128371,222.678089 C103.918162,222.678089 112.460608,222.678089 112.460608,236.537954 C112.460608,241.3584 112.475537,245.608675 112.488057,249.115417 C112.50732,254.611977 112.520322,258.243444 112.459645,259.4748 L112.414378,260.390252 Z" id="Fill-66" fill="#FFFFFF"></path>
                    <path d="M84.1408985,173.755476 L81.1499106,165.14224 L81.0935677,165.14224 C81.1735072,166.421753 81.2134769,167.620845 81.2134769,168.739997 L81.2134769,173.755476 L79.6825881,173.755476 L79.6825881,163.442323 L82.0600647,163.442323 L84.9239199,171.64623 L84.9662975,171.64623 L87.9149078,163.442323 L90.2991263,163.442323 L90.2991263,173.755476 L88.6767405,173.755476 L88.6767405,168.655242 C88.6767405,168.142859 88.6897427,167.474931 88.7157471,166.65194 C88.74127,165.828949 88.7639034,165.330531 88.7826844,165.156687 L88.7258599,165.156687 L85.6294097,173.755476 L84.1408985,173.755476 Z" id="Fill-67" fill="#B6FAFF"></path>
                    <path d="M95.9735278,172.626789 C96.5754816,172.626789 97.0584893,172.458723 97.4230325,172.122592 C97.7875757,171.786461 97.9700881,171.314529 97.9700881,170.708242 L97.9700881,170.030682 L96.9679554,170.07306 C96.1873418,170.101472 95.619579,170.231976 95.264667,170.464571 C94.9097551,170.697647 94.7320583,171.053522 94.7320583,171.533159 C94.7320583,171.881329 94.8355944,172.151004 95.0421849,172.34074 C95.249257,172.531921 95.5598652,172.626789 95.9735278,172.626789 Z M98.4425014,173.755572 L98.1107045,172.669166 L98.0543616,172.669166 C97.6782609,173.143987 97.2997523,173.467598 96.918836,173.639034 C96.5379196,173.810471 96.0486516,173.89667 95.4515135,173.89667 C94.6848652,173.89667 94.0867639,173.689598 93.6562466,173.275936 C93.2257292,172.861791 93.0109521,172.276211 93.0109521,171.519194 C93.0109521,170.714983 93.3095212,170.108696 93.9066593,169.699367 C94.5037975,169.290039 95.4139516,169.066593 96.6366401,169.029031 L97.9840534,168.986654 L97.9840534,168.570583 C97.9840534,168.072166 97.8675151,167.699436 97.6349202,167.452876 C97.4018437,167.205352 97.041153,167.082072 96.551885,167.082072 C96.1521877,167.082072 95.7688635,167.140823 95.4019125,167.258806 C95.035443,167.376307 94.6824573,167.514997 94.3439185,167.674876 L93.8079389,166.48975 C94.2312328,166.268712 94.6944964,166.100647 95.1977298,165.985553 C95.7009631,165.87046 96.1757843,165.812672 96.6226747,165.812672 C97.6146946,165.812672 98.363525,166.028894 98.8691662,166.461337 C99.3748074,166.894263 99.627628,167.573748 99.627628,168.500275 L99.627628,173.755572 L98.4425014,173.755572 Z" id="Fill-68" fill="#B6FAFF"></path>
                    <path d="M106.621031,165.812479 C106.954754,165.812479 107.230208,165.836076 107.44643,165.882788 L107.284143,167.427642 C107.04914,167.371299 106.804506,167.343368 106.550722,167.343368 C105.88761,167.343368 105.350186,167.55959 104.938449,167.992034 C104.527195,168.424959 104.321567,168.986943 104.321567,169.677986 L104.321567,173.75538 L102.663546,173.75538 L102.663546,165.953577 L103.96184,165.953577 L104.180469,167.328921 L104.264743,167.328921 C104.523824,166.863731 104.860918,166.494373 105.276988,166.221808 C105.69354,165.948762 106.141394,165.812479 106.621031,165.812479" id="Fill-69" fill="#B6FAFF"></path>
                    <polygon id="Fill-70" fill="#B6FAFF" points="111.216105 169.635849 112.15419 168.464688 114.510477 165.953818 116.422283 165.953818 113.282973 169.304534 116.619723 173.755621 114.672764 173.755621 112.168636 170.334115 111.258482 171.081983 111.258482 173.755621 109.614908 173.755621 109.614908 162.779355 111.258482 162.779355 111.258482 168.133372 111.173727 169.635849"></polygon>
                    <path d="M121.701369,167.068107 C121.174539,167.068107 120.75269,167.235209 120.43534,167.568932 C120.117508,167.902655 119.928254,168.389516 119.867095,169.029031 L123.40851,169.029031 C123.398879,168.3847 123.243815,167.896877 122.942838,167.565561 C122.641862,167.233764 122.228199,167.068107 121.701369,167.068107 M122.004754,173.89667 C120.791215,173.89667 119.842536,173.542722 119.158235,172.834824 C118.473934,172.127408 118.132024,171.152243 118.132024,169.910773 C118.132024,168.636558 118.449374,167.634906 119.084074,166.90582 C119.719256,166.176734 120.591366,165.812672 121.701369,165.812672 C122.731432,165.812672 123.544792,166.125206 124.14193,166.750757 C124.73955,167.376307 125.038119,168.23686 125.038119,169.332416 L125.038119,170.228123 L119.839165,170.228123 C119.862761,170.985622 120.066944,171.567832 120.452676,171.974271 C120.838408,172.381192 121.381611,172.584411 122.082285,172.584411 C122.543141,172.584411 122.972214,172.54107 123.369503,172.453908 C123.767274,172.367226 124.193939,172.222276 124.649979,172.020019 L124.649979,173.367433 C124.245466,173.560058 123.836619,173.696822 123.422475,173.776761 C123.008813,173.856701 122.535918,173.89667 122.004754,173.89667" id="Fill-71" fill="#B6FAFF"></path>
                    <path d="M130.550089,172.55624 C130.954602,172.55624 131.359115,172.492673 131.763628,172.365541 L131.763628,173.614234 C131.580153,173.694173 131.343705,173.76111 131.054286,173.815527 C130.765348,173.869462 130.465334,173.89643 130.155208,173.89643 C128.584349,173.89643 127.79892,173.068623 127.79892,171.413491 L127.79892,167.208964 L126.733703,167.208964 L126.733703,166.475543 L127.876452,165.868774 L128.440843,164.218458 L129.463683,164.218458 L129.463683,165.953529 L131.685615,165.953529 L131.685615,167.208964 L129.463683,167.208964 L129.463683,171.385078 C129.463683,171.784776 129.563848,172.080455 129.763697,172.270191 C129.963546,172.461372 130.225516,172.55624 130.550089,172.55624" id="Fill-72" fill="#B6FAFF"></path>
                    <path d="M34.1312053,190.217467 C34.1312053,191.134363 33.7998899,191.853818 33.1367777,192.375832 C32.4736654,192.897847 31.5586957,193.158854 30.39235,193.158854 C29.2260044,193.158854 28.2715465,192.977786 27.5284948,192.615651 L27.5284948,191.021677 C27.9989818,191.242715 28.4983627,191.416559 29.0276004,191.543692 C29.5563566,191.670824 30.0489956,191.733909 30.5055173,191.733909 C31.1729637,191.733909 31.6656026,191.607258 31.9834342,191.352993 C32.3007843,191.099209 32.4592185,190.758262 32.4592185,190.330153 C32.4592185,189.944902 32.3137865,189.617921 32.0219593,189.34969 C31.7306136,189.081941 31.1286599,188.76411 30.216098,188.39764 C29.2756054,188.016724 28.6124931,187.581391 28.2267611,187.092605 C27.8410292,186.603337 27.648404,186.015348 27.648404,185.329121 C27.648404,184.468568 27.9541965,183.791009 28.5652999,183.297406 C29.176885,182.803323 29.9974684,182.556763 31.0275316,182.556763 C32.0147358,182.556763 32.9976059,182.772984 33.976142,183.205428 L33.4396808,184.581253 C32.5227848,184.195521 31.7046092,184.002896 30.9851541,184.002896 C30.4395432,184.002896 30.0258806,184.121842 29.7436846,184.359253 C29.4614887,184.596663 29.3203908,184.910161 29.3203908,185.300709 C29.3203908,185.568939 29.3767336,185.798163 29.4894194,185.988381 C29.6025867,186.17908 29.7879884,186.358703 30.0470693,186.528213 C30.3056687,186.697241 30.7708586,186.920687 31.4436021,187.198067 C32.2006192,187.513491 32.7558613,187.807244 33.1083654,188.08029 C33.4608696,188.352855 33.7199505,188.661055 33.8841635,189.003928 C34.048858,189.347283 34.1312053,189.751796 34.1312053,190.217467" id="Fill-73" fill="#B6FAFF"></path>
                    <path d="M39.7773872,186.330627 C39.2505572,186.330627 38.828708,186.49773 38.511358,186.831453 C38.1935264,187.165176 38.0042722,187.652036 37.9431136,188.291552 L41.4845281,188.291552 C41.4748968,187.647221 41.3198335,187.159397 41.0188566,186.828082 C40.7178797,186.496285 40.3042171,186.330627 39.7773872,186.330627 M40.0807719,193.159191 C38.8672331,193.159191 37.9185539,192.805242 37.2342529,192.097345 C36.5499518,191.389928 36.2080421,190.414763 36.2080421,189.173294 C36.2080421,187.899078 36.5253921,186.897427 37.1600922,186.168341 C37.7952738,185.439254 38.6673844,185.075193 39.7773872,185.075193 C40.8074505,185.075193 41.6208104,185.387727 42.2179485,186.013277 C42.8155682,186.638828 43.1141373,187.499381 43.1141373,188.594937 L43.1141373,189.490644 L37.915183,189.490644 C37.9387796,190.248143 38.1429623,190.830352 38.5286943,191.236791 C38.9144263,191.643712 39.4576293,191.846932 40.1583035,191.846932 C40.6191593,191.846932 41.048232,191.803591 41.4455215,191.716428 C41.8432925,191.629747 42.2699573,191.484796 42.7259975,191.28254 L42.7259975,192.629953 C42.3214846,192.822578 41.9126376,192.959342 41.4984934,193.039282 C41.0848308,193.119221 40.6119359,193.159191 40.0807719,193.159191" id="Fill-74" fill="#B6FAFF"></path>
                    <path d="M46.8907471,187.741463 C46.8907471,188.230731 47.0164351,188.606831 47.2682925,188.870246 C47.5196684,189.133661 47.8808407,189.265128 48.3508462,189.265128 C49.3101197,189.265128 49.790238,188.752745 49.790238,187.727497 C49.790238,187.219448 49.671292,186.828419 49.4338814,186.552483 C49.1964708,186.277993 48.8352986,186.140266 48.3508462,186.140266 C47.8712094,186.140266 47.5081109,186.276548 47.2610691,186.549113 C47.0140272,186.822159 46.8907471,187.219448 46.8907471,187.741463 Z M46.1785154,194.231487 C46.1785154,194.588807 46.3393575,194.86378 46.6615231,195.056405 C46.9836888,195.249512 47.436358,195.345824 48.0195308,195.345824 C48.9224615,195.345824 49.5947234,195.216284 50.0367983,194.957684 C50.4788731,194.699085 50.6999106,194.355731 50.6999106,193.928103 C50.6999106,193.589564 50.5790382,193.348301 50.3368121,193.205277 C50.0945859,193.061289 49.6443244,192.989536 48.9860278,192.989536 L47.7301114,192.989536 C47.2552903,192.989536 46.8777449,193.101259 46.5979568,193.324704 C46.3181687,193.548149 46.1785154,193.850571 46.1785154,194.231487 Z M52.308331,185.216146 L52.308331,186.1263 L50.974883,186.37286 C51.0972001,186.537555 51.1983283,186.739812 51.2782677,186.97963 C51.3582072,187.219448 51.3981769,187.473232 51.3981769,187.741463 C51.3981769,188.545673 51.1207966,189.177965 50.566036,189.638821 C50.0107939,190.099677 49.2470349,190.330345 48.2733145,190.330345 C48.0243465,190.330345 47.7984934,190.311564 47.5962369,190.274002 C47.2389172,190.49504 47.0602573,190.753639 47.0602573,191.0498 C47.0602573,191.22846 47.1435677,191.362816 47.3106701,191.451906 C47.4772909,191.541476 47.7840465,191.58578 48.230937,191.58578 L49.5923156,191.58578 C50.4528687,191.58578 51.1068313,191.769256 51.5537218,192.136207 C52.0001307,192.503158 52.2235759,193.031914 52.2235759,193.723438 C52.2235759,194.607588 51.8590327,195.289481 51.1304279,195.769118 C50.4013415,196.248755 49.3481632,196.488573 47.9699298,196.488573 C46.9071203,196.488573 46.0961681,196.300282 45.5361103,195.924181 C44.9765341,195.548081 44.696746,195.012101 44.696746,194.315761 C44.696746,193.836124 44.8484384,193.432574 45.1518231,193.106556 C45.4552078,192.779575 45.8794648,192.552277 46.4250757,192.425626 C46.2040382,192.33124 46.0220074,192.180029 45.8785017,191.970067 C45.7349959,191.761551 45.663243,191.541476 45.663243,191.310808 C45.663243,191.019462 45.7455903,190.77242 45.9102848,190.570164 C46.0749794,190.367907 46.3191318,190.168059 46.6437053,189.970618 C46.2391924,189.796774 45.9112479,189.513614 45.659872,189.120177 C45.4080146,188.728185 45.2823266,188.268293 45.2823266,187.741463 C45.2823266,186.894875 45.5491125,186.238986 46.0831659,185.773315 C46.6167378,185.307643 47.3776073,185.075048 48.3652931,185.075048 C48.5863305,185.075048 48.8174807,185.090458 49.0597069,185.121278 C49.3019331,185.151617 49.4844455,185.1834 49.6067625,185.216146 L52.308331,185.216146 Z" id="Fill-75" fill="#B6FAFF"></path>
                    <path d="M61.0512521,193.017997 L59.3864887,193.017997 L59.3864887,188.207182 C59.3864887,187.610044 59.273803,187.164598 59.0479499,186.870363 C58.8220969,186.57661 58.4695927,186.429252 57.989956,186.429252 C57.3499587,186.429252 56.8809163,186.637287 56.5823473,187.053839 C56.2837782,187.469909 56.1344937,188.162397 56.1344937,189.131302 L56.1344937,193.017997 L54.4769538,193.017997 L54.4769538,185.216194 L55.7747661,185.216194 L56.007361,186.239034 L56.0921161,186.239034 C56.3083379,185.867267 56.622317,185.580737 57.0340534,185.378481 C57.4453082,185.176225 57.8979774,185.075096 58.3920611,185.075096 C59.591153,185.075096 60.385732,185.483943 60.7762796,186.3026 L60.8889653,186.3026 C61.119634,185.916868 61.4437259,185.615892 61.8626857,185.39967 C62.281164,185.182966 62.7608008,185.075096 63.301596,185.075096 C64.2324573,185.075096 64.9109796,185.310099 65.3366813,185.780586 C65.762383,186.250592 65.9752339,186.968121 65.9752339,187.931728 L65.9752339,193.017997 L64.3172124,193.017997 L64.3172124,188.207182 C64.3172124,187.610044 64.203082,187.164598 63.9753027,186.870363 C63.7470418,186.57661 63.393093,186.429252 62.9134562,186.429252 C62.2691249,186.429252 61.7976747,186.630545 61.4991057,187.032168 C61.2005366,187.434755 61.0512521,188.051637 61.0512521,188.88426 L61.0512521,193.017997 Z" id="Fill-76" fill="#B6FAFF"></path>
                    <path d="M72.1149697,186.330627 C71.5881398,186.330627 71.1662906,186.49773 70.8489406,186.831453 C70.531109,187.165176 70.3418547,187.652036 70.2806962,188.291552 L73.8221106,188.291552 C73.8124794,187.647221 73.6574161,187.159397 73.3564392,186.828082 C73.0554623,186.496285 72.6417997,186.330627 72.1149697,186.330627 M72.4183544,193.159191 C71.2048156,193.159191 70.2561365,192.805242 69.5718354,192.097345 C68.8875344,191.389928 68.5456247,190.414763 68.5456247,189.173294 C68.5456247,187.899078 68.8629747,186.897427 69.4976747,186.168341 C70.1328564,185.439254 71.004967,185.075193 72.1149697,185.075193 C73.145033,185.075193 73.958393,185.387727 74.5555311,186.013277 C75.1531508,186.638828 75.4517199,187.499381 75.4517199,188.594937 L75.4517199,189.490644 L70.2527655,189.490644 C70.2763621,190.248143 70.4805449,190.830352 70.8662768,191.236791 C71.2520088,191.643712 71.7952119,191.846932 72.4958861,191.846932 C72.9567419,191.846932 73.3858145,191.803591 73.783104,191.716428 C74.1808751,191.629747 74.6075399,191.484796 75.0635801,191.28254 L75.0635801,192.629953 C74.6590671,192.822578 74.2502201,192.959342 73.8360759,193.039282 C73.4224133,193.119221 72.9495184,193.159191 72.4183544,193.159191" id="Fill-77" fill="#B6FAFF"></path>
                    <path d="M84.9210787,193.017997 L83.2563154,193.017997 L83.2563154,188.221147 C83.2563154,187.619194 83.135443,187.169895 82.8932168,186.873734 C82.6509906,186.577573 82.2662218,186.429252 81.7398734,186.429252 C81.0387177,186.429252 80.5263346,186.636324 80.2017611,187.049986 C79.8771877,187.46413 79.7149009,188.157581 79.7149009,189.131302 L79.7149009,193.017997 L78.057361,193.017997 L78.057361,185.216194 L79.3551734,185.216194 L79.5882499,186.239034 L79.673005,186.239034 C79.9080077,185.867267 80.2417309,185.580737 80.674656,185.378481 C81.1070996,185.176225 81.5867364,185.075096 82.1135663,185.075096 C83.9854018,185.075096 84.9210787,186.027146 84.9210787,187.931728 L84.9210787,193.017997 Z" id="Fill-78" fill="#B6FAFF"></path>
                    <path d="M90.8564392,191.81876 C91.2609521,191.81876 91.6654651,191.755194 92.069978,191.628061 L92.069978,192.876754 C91.8865025,192.956694 91.650055,193.023631 91.3606357,193.078048 C91.0716979,193.131983 90.7716841,193.15895 90.4615575,193.15895 C88.890699,193.15895 88.1052697,192.331143 88.1052697,190.676011 L88.1052697,186.471485 L87.0400523,186.471485 L87.0400523,185.738064 L88.1828013,185.131295 L88.7471932,183.480978 L89.770033,183.480978 L89.770033,185.21605 L91.9919648,185.21605 L91.9919648,186.471485 L89.770033,186.471485 L89.770033,190.647599 C89.770033,191.047296 89.8701981,191.342976 90.0700468,191.532712 C90.2698954,191.723892 90.5318657,191.81876 90.8564392,191.81876" id="Fill-79" fill="#B6FAFF"></path>
                    <path d="M96.7635801,191.889309 C97.3655338,191.889309 97.8485416,191.721244 98.2130848,191.385113 C98.577628,191.048982 98.7601403,190.57705 98.7601403,189.970762 L98.7601403,189.293203 L97.7580077,189.335581 C96.9773941,189.363993 96.4096313,189.494496 96.0547193,189.727091 C95.6998074,189.960168 95.5221106,190.316043 95.5221106,190.79568 C95.5221106,191.14385 95.6256467,191.413525 95.8322372,191.603261 C96.0393093,191.794441 96.3499174,191.889309 96.7635801,191.889309 Z M99.2325537,193.018093 L98.9007567,191.931687 L98.8444139,191.931687 C98.4683132,192.406508 98.0898046,192.730118 97.7088883,192.901555 C97.3279719,193.072991 96.8387039,193.159191 96.2415658,193.159191 C95.4749174,193.159191 94.8768162,192.952119 94.4462988,192.538456 C94.0157815,192.124312 93.8010044,191.538731 93.8010044,190.781714 C93.8010044,189.977504 94.0995735,189.371216 94.6967116,188.961888 C95.2938498,188.552559 96.2040039,188.329114 97.4266924,188.291552 L98.7741057,188.249174 L98.7741057,187.833104 C98.7741057,187.334686 98.6575674,186.961957 98.4249725,186.715396 C98.191896,186.467873 97.8312053,186.344593 97.3419373,186.344593 C96.94224,186.344593 96.5589158,186.403343 96.1919648,186.521326 C95.8254953,186.638828 95.4725096,186.777518 95.1339708,186.937397 L94.5979912,185.75227 C95.0212851,185.531233 95.4845487,185.363167 95.9877821,185.248074 C96.4910154,185.13298 96.9658365,185.075193 97.412727,185.075193 C98.4047468,185.075193 99.1535773,185.291414 99.6592185,185.723858 C100.16486,186.156783 100.41768,186.836269 100.41768,187.762796 L100.41768,193.018093 L99.2325537,193.018093 Z" id="Fill-80" fill="#B6FAFF"></path>
                    <path d="M106.360023,191.81876 C106.764536,191.81876 107.169049,191.755194 107.573562,191.628061 L107.573562,192.876754 C107.390087,192.956694 107.153639,193.023631 106.86422,193.078048 C106.575282,193.131983 106.275268,193.15895 105.965142,193.15895 C104.394283,193.15895 103.608854,192.331143 103.608854,190.676011 L103.608854,186.471485 L102.543636,186.471485 L102.543636,185.738064 L103.686386,185.131295 L104.250777,183.480978 L105.273617,183.480978 L105.273617,185.21605 L107.495549,185.21605 L107.495549,186.471485 L105.273617,186.471485 L105.273617,190.647599 C105.273617,191.047296 105.373782,191.342976 105.573631,191.532712 C105.77348,191.723892 106.03545,191.81876 106.360023,191.81876" id="Fill-81" fill="#B6FAFF"></path>
                    <path d="M109.854774,193.018093 L111.512314,193.018093 L111.512314,185.216291 L109.854774,185.216291 L109.854774,193.018093 Z M109.756054,183.149422 C109.756054,182.852779 109.836957,182.625 109.999243,182.465121 C110.16153,182.305242 110.393162,182.225303 110.694139,182.225303 C110.985484,182.225303 111.212782,182.305242 111.374587,182.465121 C111.536874,182.625 111.618258,182.852779 111.618258,183.149422 C111.618258,183.431618 111.536874,183.653619 111.374587,183.815424 C111.212782,183.978192 110.985484,184.059095 110.694139,184.059095 C110.393162,184.059095 110.16153,183.978192 109.999243,183.815424 C109.836957,183.653619 109.756054,183.431618 109.756054,183.149422 Z" id="Fill-82" fill="#B6FAFF"></path>
                    <path d="M115.84643,189.102938 C115.84643,190.903983 116.51195,191.804506 117.84299,191.804506 C119.159583,191.804506 119.81788,190.903983 119.81788,189.102938 C119.81788,187.320673 119.154767,186.4293 117.828543,186.4293 C117.132684,186.4293 116.628488,186.659968 116.315472,187.120824 C116.002938,187.58168 115.84643,188.242384 115.84643,189.102938 M121.525021,189.102938 C121.525021,190.377153 121.198039,191.372062 120.544558,192.086702 C119.890596,192.801823 118.980923,193.159143 117.814578,193.159143 C117.085491,193.159143 116.44116,192.994448 115.881584,192.665059 C115.322007,192.336152 114.891972,191.863257 114.590995,191.247338 C114.290018,190.631419 114.139289,189.916297 114.139289,189.102938 C114.139289,187.837871 114.463862,186.850186 115.113009,186.140362 C115.761674,185.430056 116.676644,185.075144 117.856955,185.075144 C118.985739,185.075144 119.879038,185.438243 120.537335,186.164922 C121.195632,186.891119 121.525021,187.870618 121.525021,189.102938" id="Fill-83" fill="#B6FAFF"></path>
                    <path d="M131.015665,193.017997 L129.350901,193.017997 L129.350901,188.221147 C129.350901,187.619194 129.230029,187.169895 128.987803,186.873734 C128.745576,186.577573 128.360808,186.429252 127.834459,186.429252 C127.133304,186.429252 126.62092,186.636324 126.296347,187.049986 C125.971774,187.46413 125.809487,188.157581 125.809487,189.131302 L125.809487,193.017997 L124.151947,193.017997 L124.151947,185.216194 L125.449759,185.216194 L125.682836,186.239034 L125.767591,186.239034 C126.002594,185.867267 126.336317,185.580737 126.769242,185.378481 C127.201685,185.176225 127.681322,185.075096 128.208152,185.075096 C130.079988,185.075096 131.015665,186.027146 131.015665,187.931728 L131.015665,193.017997 Z" id="Fill-84" fill="#B6FAFF"></path>
                    <path d="M288.542481,103.047152 C281.296884,93.0547193 276.814977,95.5525867 276.799567,80.0631123 L276.799567,69.2274629 L259.576465,69.2274629 L259.576465,80.0631123 C259.561055,95.5525867 255.080111,93.0547193 247.834033,103.047152 L247.958758,102.813112 C245.733455,106.483586 244.449126,110.804651 244.449126,115.430545 C244.449126,128.741428 255.078185,139.532292 268.187775,139.532292 C281.29881,139.532292 291.926906,128.741428 291.926906,115.430545 C291.926906,110.362576 290.386386,105.661076 287.755607,101.779678 L288.542481,103.047152 Z" id="Fill-85" fill="#FFFFFF" opacity="0.25"></path>
                    <path d="M264.188064,136.661447 C250.999016,136.661447 240.269311,125.774271 240.269311,112.391635 C240.269311,107.894799 241.491036,103.502944 243.802539,99.6913731 L245.449484,100.690135 C243.320494,104.200729 242.195563,108.246822 242.195563,112.391635 C242.195563,124.711943 252.061344,134.735195 264.188064,134.735195 C276.315266,134.735195 286.181047,124.711943 286.181047,112.391635 C286.181047,107.841827 284.843747,103.463938 282.313133,99.7313429 L283.907106,98.6507155 C286.654905,102.70355 288.107299,107.455132 288.107299,112.391635 C288.107299,125.774271 277.377112,136.661447 264.188064,136.661447" id="Fill-86" fill="#FFFFFF"></path>
                    <path d="M283.091291,100.982058 C280.997936,98.0950881 279.176665,96.3383462 277.570171,94.789158 C273.824092,91.1769538 271.563635,88.9964364 271.553041,78.1911255 L273.479293,78.1891992 C273.488924,88.1772977 275.41325,90.0337232 278.907471,93.402738 C280.488924,94.9283297 282.457554,96.8266511 284.650592,99.8513484 L283.091291,100.982058 Z" id="Fill-87" fill="#FFFFFF"></path>
                    <path d="M245.285319,100.982058 L243.726018,99.8513484 C245.919056,96.8266511 247.887686,94.9283297 249.469139,93.4032196 C252.96336,90.0337232 254.887686,88.1777793 254.897317,78.1891992 L256.823569,78.1911255 C256.812975,88.996918 254.552518,91.1774353 250.806439,94.7896395 C249.199945,96.3388277 247.378674,98.0950881 245.285319,100.982058" id="Fill-88" fill="#FFFFFF"></path>
                    <path d="M256.823954,77.2272289 L271.553041,77.2272289 L271.553041,68.6756329 L256.823954,68.6756329 L256.823954,77.2272289 Z M254.897702,79.153481 L273.479293,79.153481 L273.479293,66.7493808 L254.897702,66.7493808 L254.897702,79.153481 Z" id="Fill-89" fill="#FFFFFF"></path>
                    <polygon id="Fill-90" fill="#FFFFFF" points="255.860828 73.914557 272.516167 73.914557 272.516167 71.9883049 255.860828 71.9883049"></polygon>
                    <path d="M229.0474,93.2874037 C217.31508,93.2874037 207.770501,83.6031714 207.770501,71.6994152 C207.770501,67.7000344 208.856907,63.7935952 210.913181,60.40291 L212.560127,61.4016717 C210.686846,64.49138 209.696753,68.0525385 209.696753,71.6994152 C209.696753,82.541325 218.377408,91.3611516 229.0474,91.3611516 C239.717873,91.3611516 248.399009,82.541325 248.399009,71.6994152 C248.399009,67.6961819 247.222069,63.8436778 244.995322,60.5584549 L246.589296,59.4778275 C249.033228,63.0832898 250.325261,67.3094868 250.325261,71.6994152 C250.325261,83.6031714 240.780201,93.2874037 229.0474,93.2874037" id="Fill-91" fill="#FFFFFF"></path>
                    <path d="M245.68598,61.6678797 C243.839185,59.120893 242.231247,57.57026 240.812562,56.2021395 C237.477256,52.9857801 235.46336,51.0436365 235.453729,41.4350096 L237.379981,41.4330834 C237.38913,50.2244978 239.079898,51.8555517 242.149862,54.8157196 C243.552655,56.1689117 245.298803,57.852456 247.245281,60.5371698 L245.68598,61.6678797 Z" id="Fill-92" fill="#FFFFFF"></path>
                    <path d="M212.409734,61.6678797 L210.850433,60.5371698 C212.796911,57.8529375 214.543059,56.1689117 215.945852,54.8162012 C219.015816,51.8555517 220.706584,50.2249794 220.715252,41.4330834 L222.641504,41.4350096 C222.632354,51.0441181 220.618458,52.9862617 217.282671,56.2026211 C215.863986,57.5707416 214.256529,59.1213745 212.409734,61.6678797" id="Fill-93" fill="#FFFFFF"></path>
                    <path d="M222.641648,40.4709686 L235.454114,40.4709686 L235.454114,33.1247248 L222.641648,33.1247248 L222.641648,40.4709686 Z M220.715396,42.3972207 L237.380366,42.3972207 L237.380366,31.1984728 L220.715396,31.1984728 L220.715396,42.3972207 Z" id="Fill-95" fill="#FFFFFF"></path>
                    <polygon id="Fill-96" fill="#FFFFFF" points="221.678522 37.7602504 236.41724 37.7602504 236.41724 35.8339983 221.678522 35.8339983"></polygon>
                    <path d="M305.150103,86.571863 C296.009074,86.571863 288.572296,79.0276968 288.572296,69.7547193 C288.572296,66.638525 289.418884,63.5964915 291.020081,60.9560815 L292.667027,61.9548431 C291.248342,64.2937947 290.498548,66.9910292 290.498548,69.7547193 C290.498548,77.9658503 297.071402,84.6456109 305.150103,84.6456109 C313.229286,84.6456109 319.80214,77.9658503 319.80214,69.7547193 C319.80214,66.722317 318.910766,63.8045267 317.224333,61.3162906 L318.818788,60.2356632 C320.722406,63.0441387 321.728392,66.3361035 321.728392,69.7547193 C321.728392,79.0276968 314.291614,86.571863 305.150103,86.571863" id="Fill-97" fill="#FFFFFF"></path>
                    <path d="M317.759157,62.1748693 C316.351066,60.2327256 315.122599,59.0480806 314.038601,58.0030889 C311.521952,55.5755297 309.859115,53.9719249 309.851892,46.4918065 L311.778144,46.4898803 C311.784886,53.1527862 312.984941,54.3104637 315.375901,56.6161874 C316.460863,57.6626238 317.810684,58.9642887 319.318458,61.0441593 L317.759157,62.1748693 Z" id="Fill-98" fill="#FFFFFF"></path>
                    <path d="M292.541772,62.1748693 L290.982471,61.0441593 C292.490245,58.9642887 293.840066,57.6626238 294.924546,56.616669 C297.315988,54.3104637 298.516043,53.1532677 298.522303,46.4898803 L300.448555,46.4918065 C300.441332,53.9719249 298.778976,55.5755297 296.261846,58.0030889 C295.17833,59.0480806 293.949862,60.2332072 292.541772,62.1748693" id="Fill-99" fill="#FFFFFF"></path>
                    <path d="M300.448748,45.5273803 L309.851747,45.5273803 L309.851747,40.3260182 L300.448748,40.3260182 L300.448748,45.5273803 Z M298.522496,47.4536324 L311.777999,47.4536324 L311.777999,38.3997661 L298.522496,38.3997661 L298.522496,47.4536324 Z" id="Fill-101" fill="#FFFFFF"></path>
                    <polygon id="Fill-102" fill="#FFFFFF" points="299.485622 43.8895845 310.814873 43.8895845 310.814873 41.9633324 299.485622 41.9633324"></polygon>
                    <path d="M272.515733,55.2509562 C263.374704,55.2509562 255.937927,47.70679 255.937927,38.4338126 C255.937927,35.3176183 256.784514,32.2755848 258.385711,29.6351747 L260.032657,30.6339364 C258.613972,32.972888 257.864179,35.6701225 257.864179,38.4338126 C257.864179,46.6449436 264.437032,53.3247042 272.515733,53.3247042 C280.594916,53.3247042 287.16777,46.6449436 287.16777,38.4338126 C287.16777,35.4014103 286.276397,32.48362 284.589481,29.9949023 L286.184418,28.9142749 C288.088037,31.723232 289.094022,35.0151968 289.094022,38.4338126 C289.094022,47.70679 281.657244,55.2509562 272.515733,55.2509562" id="Fill-103" fill="#FFFFFF"></path>
                    <path d="M285.124787,30.8539626 C283.716696,28.9118189 282.488229,27.7271739 281.404231,26.6821822 C278.887583,24.254623 277.224745,22.6510182 277.21704,15.1708998 L279.143293,15.1689736 C279.150034,21.8318795 280.350571,22.989557 282.741531,25.2952807 C283.826493,26.3417171 285.176314,27.6433819 286.684088,29.7232526 L285.124787,30.8539626 Z" id="Fill-104" fill="#FFFFFF"></path>
                    <path d="M259.907402,30.8539626 L258.348101,29.7232526 C259.855875,27.6433819 261.205696,26.3417171 262.290176,25.2957622 C264.681618,22.989557 265.881673,21.832361 265.887933,15.1689736 L267.814185,15.1708998 C267.806962,22.6510182 266.144125,24.254623 263.627477,26.6821822 C262.54396,27.7271739 261.315493,28.9123005 259.907402,30.8539626" id="Fill-105" fill="#FFFFFF"></path>
                    <path d="M267.814185,14.2065217 L277.216703,14.2065217 L277.216703,9.0051596 L267.814185,9.0051596 L267.814185,14.2065217 Z M265.888415,16.1327738 L279.143437,16.1327738 L279.143437,7.07890754 L265.888415,7.07890754 L265.888415,16.1327738 Z" id="Fill-107" fill="#FFFFFF"></path>
                    <polygon id="Fill-108" fill="#FFFFFF" points="266.851541 12.5687259 278.180311 12.5687259 278.180311 10.6424739 266.851541 10.6424739"></polygon>
                    <polygon id="Fill-109" fill="#FFFFFF" points="225.067763 31.8796031 226.994015 31.8796031 226.994015 0.33124656 225.067763 0.33124656"></polygon>
                    <polygon id="Fill-110" fill="#FFFFFF" points="231.199505 32.2564667 233.125757 32.2564667 233.125757 0.33124656 231.199505 0.33124656"></polygon>
                    <polygon id="Fill-111" fill="#FFFFFF" points="268.486929 8.49903687 270.413181 8.49903687 270.413181 1.0468492 268.486929 1.0468492"></polygon>
                    <polygon id="Fill-112" fill="#FFFFFF" points="274.618189 8.60064667 276.544441 8.60064667 276.544441 1.0468492 274.618189 1.0468492"></polygon>
                    <polygon id="Fill-113" fill="#FFFFFF" points="301.12101 38.5866125 303.047262 38.5866125 303.047262 0.681342873 301.12101 0.681342873"></polygon>
                    <polygon id="Fill-114" fill="#FFFFFF" points="307.252752 39.0065355 309.179004 39.0065355 309.179004 0.681342873 307.252752 0.681342873"></polygon>
                    <polygon id="Fill-115" fill="#FFFFFF" points="260.159741 67.2189048 262.085993 67.2189048 262.085993 49.2696065 260.159741 49.2696065"></polygon>
                    <polygon id="Fill-116" fill="#FFFFFF" points="260.159741 27.8443864 262.085993 27.8443864 262.085993 0.681824436 260.159741 0.681824436"></polygon>
                    <polygon id="Fill-117" fill="#FFFFFF" points="266.291002 67.4187534 268.217254 67.4187534 268.217254 52.8288387 266.291002 52.8288387"></polygon>
                    <path d="M263.114743,126 L263.114743,124.195584 L262.918244,124.164056 C259.53639,123.59007 257.047401,120.847067 257.002586,117.6376 L257,117.450853 L259.140807,117.450853 L259.144254,117.631133 C259.193379,120.188197 261.454843,122.26667 264.185147,122.26667 C266.966299,122.26667 269.227763,120.146159 269.227763,117.536547 C269.227763,115.694135 268.047044,114.11042 265.989836,113.192852 C265.234004,112.857354 264.418705,112.605932 263.630123,112.364212 C263.171625,112.223545 262.718298,112.082878 262.26928,111.926851 C259.021011,110.793432 257.002586,108.316403 257.002586,105.464262 C257.002586,102.199822 259.490713,99.4115466 262.918244,98.8359445 L263.114743,98.8036073 L263.114743,97 L265.256412,97 L265.256412,98.8036073 L265.452911,98.8359445 C268.881304,99.4115466 271.367708,102.199822 271.367708,105.464262 L271.367708,105.649392 L269.227763,105.649392 L269.227763,105.464262 C269.227763,102.855458 266.966299,100.73333 264.185147,100.73333 C261.404856,100.73333 259.144254,102.855458 259.144254,105.464262 C259.144254,106.874972 259.885435,108.271131 261.079943,109.107856 C262.124491,109.839485 263.419834,110.233999 264.672085,110.615578 C265.044399,110.727141 265.41499,110.840321 265.777824,110.961586 C267.068858,111.393287 268.684805,112.048116 269.726767,113.311692 C270.831644,114.650452 271.367708,116.035292 271.367708,117.536547 C271.367708,120.800178 268.881304,123.587645 265.452911,124.164056 L265.256412,124.197201 L265.256412,126 L263.114743,126 Z" id="Fill-10" fill="#FFFFFF"></path>
                    <polygon id="Fill-119" fill="#FFFFFF" points="263.225371 161.570102 265.151624 161.570102 265.151624 145.026486 263.225371 145.026486"></polygon>
                    <polygon id="Fill-120" fill="#FFFFFF" points="216.214227 116.617157 231.346381 116.617157 231.346381 114.690905 216.214227 114.690905"></polygon>
                    <polygon id="Fill-121" fill="#FFFFFF" points="226.39105 150.331432 225.02919 148.969572 238.981515 135.017247 240.343375 136.379107"></polygon>
                    <polygon id="Fill-122" fill="#FFFFFF" points="297.030614 116.617157 312.162768 116.617157 312.162768 114.690905 297.030614 114.690905"></polygon>
                    <polygon id="Fill-123" fill="#FFFFFF" points="301.985849 150.331432 288.033524 136.379107 289.395384 135.017247 303.347709 148.969572"></polygon>
                    <path d="M237.264983,167.626816 L237.264983,170.892777 L239.056879,170.892777 C239.762369,170.892777 240.294978,170.757939 240.654706,170.486819 C241.014433,170.217144 241.194056,169.789997 241.194056,169.206824 C241.194056,168.670845 241.010581,168.273555 240.644111,168.014956 C240.27716,167.756357 239.719992,167.626816 238.972124,167.626816 L237.264983,167.626816 Z M237.264983,166.258214 L238.887369,166.258214 C239.592859,166.258214 240.10765,166.146973 240.432223,165.923528 C240.756797,165.700083 240.919084,165.320129 240.919084,164.78415 C240.919084,164.299697 240.743795,163.949119 240.393698,163.732898 C240.043121,163.516676 239.486915,163.408324 238.725083,163.408324 L237.264983,163.408324 L237.264983,166.258214 Z M235.579031,161.997826 L238.640327,161.997826 C240.060938,161.997826 241.087149,162.204417 241.719441,162.618561 C242.352215,163.032223 242.668602,163.685704 242.668602,164.579485 C242.668602,165.181439 242.513057,165.682265 242.202931,166.081962 C241.892323,166.481659 241.445914,166.733517 240.862741,166.836571 L240.862741,166.907361 C241.587012,167.043643 242.11962,167.312837 242.460567,167.715424 C242.801513,168.117047 242.971987,168.661214 242.971987,169.347922 C242.971987,170.27445 242.648376,171.000165 242.001637,171.524587 C241.35538,172.049009 240.45582,172.31098 239.30344,172.31098 L235.579031,172.31098 L235.579031,161.997826 Z" id="Fill-124" fill="#B6FAFF"></path>
                    <path d="M251.164481,172.310787 L250.931886,171.287947 L250.847131,171.287947 C250.616463,171.650083 250.288518,171.934686 249.862816,172.141277 C249.437596,172.348349 248.951699,172.451885 248.406088,172.451885 C247.461262,172.451885 246.755772,172.216882 246.2901,171.746395 C245.824429,171.27639 245.591834,170.563676 245.591834,169.609218 L245.591834,164.508985 L247.263339,164.508985 L247.263339,169.319799 C247.263339,169.916937 247.385656,170.365272 247.63029,170.663841 C247.874924,170.962411 248.258248,171.111695 248.780263,171.111695 C249.476121,171.111695 249.987541,170.90366 250.314523,170.487108 C250.641504,170.071519 250.804754,169.373734 250.804754,168.39568 L250.804754,164.508985 L252.469517,164.508985 L252.469517,172.310787 L251.164481,172.310787 Z" id="Fill-125" fill="#B6FAFF"></path>
                    <path d="M260.796223,170.088711 C260.796223,170.850543 260.518843,171.435161 259.963601,171.8416 C259.40884,172.248521 258.614261,172.451741 257.579382,172.451741 C256.540169,172.451741 255.705621,172.294269 255.075255,171.979327 L255.075255,170.547159 C255.992151,170.970453 256.845962,171.18234 257.636207,171.18234 C258.656639,171.18234 259.166614,170.87414 259.166614,170.258221 C259.166614,170.060299 259.110271,169.896086 258.997585,169.764137 C258.884418,169.632671 258.699016,169.496388 258.439935,169.35529 C258.181336,169.214192 257.821608,169.054313 257.360753,168.875172 C256.462638,168.527483 255.854905,168.179313 255.537555,167.831625 C255.219723,167.483455 255.061289,167.031749 255.061289,166.476988 C255.061289,165.80906 255.330483,165.290898 255.86887,164.922021 C256.407258,164.552662 257.139715,164.367742 258.066242,164.367742 C258.983138,164.367742 259.850915,164.553625 260.669091,164.924911 L260.133111,166.173603 C259.291339,165.825433 258.583441,165.651589 258.0099,165.651589 C257.1349,165.651589 256.69764,165.901039 256.69764,166.399457 C256.69764,166.644091 256.811771,166.850681 257.040032,167.020191 C257.267811,167.18922 257.765266,167.422296 258.531914,167.718458 C259.176245,167.967907 259.643843,168.195687 259.93567,168.402759 C260.227016,168.609831 260.443719,168.848686 260.584817,169.118361 C260.725915,169.389481 260.796223,169.71261 260.796223,170.088711" id="Fill-126" fill="#B6FAFF"></path>
                    <path d="M263.310608,172.310883 L264.968148,172.310883 L264.968148,164.509081 L263.310608,164.509081 L263.310608,172.310883 Z M263.211406,162.442212 C263.211406,162.14557 263.29279,161.91779 263.455077,161.757911 C263.617364,161.598032 263.848996,161.518093 264.149972,161.518093 C264.441318,161.518093 264.668134,161.598032 264.830421,161.757911 C264.992708,161.91779 265.07361,162.14557 265.07361,162.442212 C265.07361,162.724408 264.992708,162.946409 264.830421,163.108214 C264.668134,163.270982 264.441318,163.351885 264.149972,163.351885 C263.848996,163.351885 263.617364,163.270982 263.455077,163.108214 C263.29279,162.946409 263.211406,162.724408 263.211406,162.442212 Z" id="Fill-127" fill="#B6FAFF"></path>
                    <path d="M274.924271,172.310787 L273.259507,172.310787 L273.259507,167.513938 C273.259507,166.911984 273.138635,166.462686 272.896409,166.166524 C272.654183,165.870363 272.269414,165.722042 271.743065,165.722042 C271.04191,165.722042 270.529527,165.929114 270.204953,166.342777 C269.88038,166.756921 269.718093,167.450371 269.718093,168.424092 L269.718093,172.310787 L268.060553,172.310787 L268.060553,164.508985 L269.358365,164.508985 L269.591442,165.531824 L269.676197,165.531824 C269.9112,165.160058 270.244923,164.873528 270.677848,164.671271 C271.110292,164.469015 271.589928,164.367887 272.116758,164.367887 C273.988594,164.367887 274.924271,165.319937 274.924271,167.224518 L274.924271,172.310787 Z" id="Fill-128" fill="#B6FAFF"></path>
                    <path d="M281.05712,165.623418 C280.53029,165.623418 280.108441,165.79052 279.791091,166.124243 C279.473259,166.457966 279.284005,166.944827 279.222847,167.584342 L282.764261,167.584342 C282.75463,166.940011 282.599567,166.452188 282.29859,166.120872 C281.997613,165.789075 281.58395,165.623418 281.05712,165.623418 M281.360505,172.451981 C280.146966,172.451981 279.198287,172.098032 278.513986,171.390135 C277.829685,170.682719 277.487775,169.707554 277.487775,168.466084 C277.487775,167.191868 277.805125,166.190217 278.439825,165.461131 C279.075007,164.732045 279.947118,164.367983 281.05712,164.367983 C282.087184,164.367983 282.900543,164.680517 283.497682,165.306068 C284.095301,165.931618 284.39387,166.792171 284.39387,167.887727 L284.39387,168.783434 L279.194916,168.783434 C279.218513,169.540933 279.422695,170.123143 279.808427,170.529582 C280.194159,170.936502 280.737362,171.139722 281.438037,171.139722 C281.898892,171.139722 282.327965,171.096381 282.725255,171.009218 C283.123026,170.922537 283.54969,170.777587 284.005731,170.57533 L284.005731,171.922744 C283.601218,172.115369 283.192371,172.252133 282.778226,172.332072 C282.364564,172.412012 281.891669,172.451981 281.360505,172.451981" id="Fill-129" fill="#B6FAFF"></path>
                    <path d="M292.240795,170.088711 C292.240795,170.850543 291.963415,171.435161 291.408173,171.8416 C290.853412,172.248521 290.058833,172.451741 289.023954,172.451741 C287.984741,172.451741 287.150193,172.294269 286.519827,171.979327 L286.519827,170.547159 C287.436723,170.970453 288.290534,171.18234 289.080779,171.18234 C290.101211,171.18234 290.611186,170.87414 290.611186,170.258221 C290.611186,170.060299 290.554843,169.896086 290.442157,169.764137 C290.32899,169.632671 290.143588,169.496388 289.884507,169.35529 C289.625908,169.214192 289.266181,169.054313 288.805325,168.875172 C287.90721,168.527483 287.299477,168.179313 286.982127,167.831625 C286.664296,167.483455 286.505861,167.031749 286.505861,166.476988 C286.505861,165.80906 286.775055,165.290898 287.313442,164.922021 C287.85183,164.552662 288.584287,164.367742 289.510815,164.367742 C290.427711,164.367742 291.295487,164.553625 292.113663,164.924911 L291.577683,166.173603 C290.735911,165.825433 290.028013,165.651589 289.454472,165.651589 C288.579472,165.651589 288.142212,165.901039 288.142212,166.399457 C288.142212,166.644091 288.256343,166.850681 288.484604,167.020191 C288.712383,167.18922 289.209838,167.422296 289.976486,167.718458 C290.620817,167.967907 291.088415,168.195687 291.380242,168.402759 C291.671588,168.609831 291.888291,168.848686 292.029389,169.118361 C292.170487,169.389481 292.240795,169.71261 292.240795,170.088711" id="Fill-130" fill="#B6FAFF"></path>
                    <path d="M299.996079,170.088711 C299.996079,170.850543 299.718698,171.435161 299.163456,171.8416 C298.608696,172.248521 297.814117,172.451741 296.779238,172.451741 C295.740025,172.451741 294.905476,172.294269 294.27511,171.979327 L294.27511,170.547159 C295.192006,170.970453 296.045817,171.18234 296.836062,171.18234 C297.856494,171.18234 298.366469,170.87414 298.366469,170.258221 C298.366469,170.060299 298.310127,169.896086 298.197441,169.764137 C298.084274,169.632671 297.898872,169.496388 297.639791,169.35529 C297.381192,169.214192 297.021464,169.054313 296.560608,168.875172 C295.662493,168.527483 295.054761,168.179313 294.737411,167.831625 C294.419579,167.483455 294.261145,167.031749 294.261145,166.476988 C294.261145,165.80906 294.530338,165.290898 295.068726,164.922021 C295.607113,164.552662 296.339571,164.367742 297.266098,164.367742 C298.182994,164.367742 299.050771,164.553625 299.868946,164.924911 L299.332966,166.173603 C298.491194,165.825433 297.783297,165.651589 297.209755,165.651589 C296.334755,165.651589 295.897496,165.901039 295.897496,166.399457 C295.897496,166.644091 296.011626,166.850681 296.239887,167.020191 C296.467666,167.18922 296.965121,167.422296 297.731769,167.718458 C298.376101,167.967907 298.843698,168.195687 299.135526,168.402759 C299.426871,168.609831 299.643575,168.848686 299.784673,169.118361 C299.925771,169.389481 299.996079,169.71261 299.996079,170.088711" id="Fill-131" fill="#B6FAFF"></path>
                    <path d="M236.862927,186.402573 C236.862927,187.672455 237.119118,188.635099 237.631983,189.291469 C238.144366,189.946877 238.903791,190.275303 239.910257,190.275303 C240.911908,190.275303 241.667962,189.950729 242.178419,189.302064 C242.688394,188.652917 242.943623,187.68642 242.943623,186.402573 C242.943623,185.137507 242.690802,184.178233 242.185161,183.524271 C241.67952,182.87079 240.926355,182.543808 239.924223,182.543808 C238.913422,182.543808 238.150144,182.87079 237.635354,183.524271 C237.120563,184.178233 236.862927,185.137507 236.862927,186.402573 M244.735519,186.402573 C244.735519,188.081302 244.315596,189.386337 243.476231,190.31768 C242.636867,191.248542 241.447888,191.714213 239.910257,191.714213 C238.353846,191.714213 237.158125,191.252394 236.323094,190.327793 C235.488546,189.404155 235.071031,188.090933 235.071031,186.388608 C235.071031,184.686282 235.490953,183.378839 236.330318,182.466277 C237.169682,181.554196 238.367811,181.097675 239.924223,181.097675 C241.457519,181.097675 242.642646,181.560938 243.479602,182.487466 C244.31704,183.413993 244.735519,184.719029 244.735519,186.402573" id="Fill-132" fill="#B6FAFF"></path>
                    <path d="M251.051603,184.984707 C250.393306,184.984707 249.912225,185.177332 249.60884,185.563064 C249.305937,185.948796 249.154245,186.564715 249.154245,187.411303 L249.154245,187.658345 C249.154245,188.607987 249.304492,189.296141 249.605469,189.721361 C249.906446,190.147544 250.398122,190.359913 251.080015,190.359913 C251.653557,190.359913 252.095632,190.124911 252.40624,189.654424 C252.716366,189.184418 252.87143,188.514082 252.87143,187.643898 C252.87143,186.769379 252.717329,186.107712 252.409611,185.657932 C252.10141,185.209597 251.648741,184.984707 251.051603,184.984707 M251.453708,191.71455 C250.466022,191.71455 249.699374,191.359157 249.154245,190.649333 L249.055043,190.649333 C249.121017,191.307629 249.154245,191.707327 249.154245,191.848425 L249.154245,195.044077 L247.496223,195.044077 L247.496223,183.771168 L248.836413,183.771168 C248.874457,183.917082 248.951988,184.265252 249.06949,184.815197 L249.154245,184.815197 C249.671443,184.025433 250.447241,183.63007 251.48212,183.63007 C252.455359,183.63007 253.213821,183.983056 253.757024,184.688546 C254.300227,185.394035 254.571829,186.383647 254.571829,187.658345 C254.571829,188.932561 254.295411,189.92747 253.742577,190.642109 C253.190224,191.356749 252.426947,191.71455 251.453708,191.71455" id="Fill-133" fill="#B6FAFF"></path>
                    <path d="M260.775034,184.984707 C260.116738,184.984707 259.635656,185.177332 259.332272,185.563064 C259.029368,185.948796 258.877676,186.564715 258.877676,187.411303 L258.877676,187.658345 C258.877676,188.607987 259.027924,189.296141 259.328901,189.721361 C259.629878,190.147544 260.121553,190.359913 260.803447,190.359913 C261.376988,190.359913 261.819063,190.124911 262.129671,189.654424 C262.439798,189.184418 262.594861,188.514082 262.594861,187.643898 C262.594861,186.769379 262.440761,186.107712 262.133042,185.657932 C261.824842,185.209597 261.372173,184.984707 260.775034,184.984707 M261.17714,191.71455 C260.189454,191.71455 259.422805,191.359157 258.877676,190.649333 L258.778474,190.649333 C258.844448,191.307629 258.877676,191.707327 258.877676,191.848425 L258.877676,195.044077 L257.219655,195.044077 L257.219655,183.771168 L258.559845,183.771168 C258.597888,183.917082 258.67542,184.265252 258.792921,184.815197 L258.877676,184.815197 C259.394875,184.025433 260.170673,183.63007 261.205552,183.63007 C262.178791,183.63007 262.937252,183.983056 263.480455,184.688546 C264.023659,185.394035 264.29526,186.383647 264.29526,187.658345 C264.29526,188.932561 264.018843,189.92747 263.466009,190.642109 C262.913656,191.356749 262.150378,191.71455 261.17714,191.71455" id="Fill-134" fill="#B6FAFF"></path>
                    <path d="M268.184748,187.658248 C268.184748,189.459294 268.850268,190.359817 270.181308,190.359817 C271.497902,190.359817 272.156198,189.459294 272.156198,187.658248 C272.156198,185.875984 271.493086,184.984611 270.166862,184.984611 C269.471003,184.984611 268.966807,185.215279 268.653791,185.676135 C268.341256,186.136991 268.184748,186.797695 268.184748,187.658248 M273.863339,187.658248 C273.863339,188.932464 273.536358,189.927373 272.882877,190.642013 C272.228914,191.357134 271.319242,191.714454 270.152896,191.714454 C269.42381,191.714454 268.779479,191.549759 268.219902,191.22037 C267.660326,190.891463 267.23029,190.418568 266.929313,189.802649 C266.628337,189.186729 266.477607,188.471608 266.477607,187.658248 C266.477607,186.393182 266.802181,185.405497 267.451328,184.695673 C268.099993,183.985367 269.014963,183.630455 270.195274,183.630455 C271.324058,183.630455 272.217357,183.993554 272.875654,184.720233 C273.53395,185.44643 273.863339,186.425929 273.863339,187.658248" id="Fill-135" fill="#B6FAFF"></path>
                    <path d="M280.447654,183.630311 C280.781377,183.630311 281.056831,183.653908 281.273053,183.700619 L281.110766,185.245473 C280.875764,185.18913 280.63113,185.1612 280.377346,185.1612 C279.714234,185.1612 279.176809,185.377422 278.765073,185.809865 C278.353818,186.24279 278.148191,186.804774 278.148191,187.495817 L278.148191,191.573211 L276.490169,191.573211 L276.490169,183.771409 L277.788463,183.771409 L278.007093,185.146753 L278.091366,185.146753 C278.350447,184.681563 278.687541,184.312204 279.103612,184.03964 C279.520164,183.766593 279.968017,183.630311 280.447654,183.630311" id="Fill-136" fill="#B6FAFF"></path>
                    <path d="M286.347716,190.374071 C286.752229,190.374071 287.156742,190.310505 287.561255,190.183372 L287.561255,191.432065 C287.377779,191.512005 287.141332,191.578942 286.851912,191.633359 C286.562975,191.687294 286.262961,191.714261 285.952834,191.714261 C284.381976,191.714261 283.596547,190.886454 283.596547,189.231322 L283.596547,185.026796 L282.531329,185.026796 L282.531329,184.293375 L283.674078,183.686606 L284.23847,182.036289 L285.26131,182.036289 L285.26131,183.771361 L287.483242,183.771361 L287.483242,185.026796 L285.26131,185.026796 L285.26131,189.20291 C285.26131,189.602607 285.361475,189.898287 285.561324,190.088023 C285.761172,190.279203 286.023143,190.374071 286.347716,190.374071" id="Fill-137" fill="#B6FAFF"></path>
                    <path d="M295.344613,191.573308 L295.112018,190.550468 L295.027263,190.550468 C294.796595,190.912603 294.46865,191.197207 294.042949,191.403797 C293.617728,191.61087 293.131831,191.714406 292.58622,191.714406 C291.641394,191.714406 290.935904,191.479403 290.470233,191.008916 C290.004561,190.53891 289.771966,189.826197 289.771966,188.871739 L289.771966,183.771505 L291.443471,183.771505 L291.443471,188.58232 C291.443471,189.179458 291.565788,189.627793 291.810422,189.926362 C292.055056,190.224931 292.438381,190.374216 292.960395,190.374216 C293.656253,190.374216 294.167673,190.166181 294.494655,189.749629 C294.821636,189.33404 294.984886,188.636255 294.984886,187.6582 L294.984886,183.771505 L296.649649,183.771505 L296.649649,191.573308 L295.344613,191.573308 Z" id="Fill-138" fill="#B6FAFF"></path>
                    <path d="M306.598789,191.573308 L304.934026,191.573308 L304.934026,186.776458 C304.934026,186.174505 304.813154,185.725206 304.570927,185.429045 C304.328701,185.132884 303.943932,184.984562 303.417584,184.984562 C302.716428,184.984562 302.204045,185.191635 301.879472,185.605297 C301.554898,186.019441 301.392611,186.712892 301.392611,187.686613 L301.392611,191.573308 L299.735072,191.573308 L299.735072,183.771505 L301.032884,183.771505 L301.26596,184.794345 L301.350715,184.794345 C301.585718,184.422578 301.919441,184.136048 302.352367,183.933792 C302.78481,183.731535 303.264447,183.630407 303.791277,183.630407 C305.663112,183.630407 306.598789,184.582457 306.598789,186.487039 L306.598789,191.573308 Z" id="Fill-139" fill="#B6FAFF"></path>
                    <path d="M309.627821,191.573404 L311.28536,191.573404 L311.28536,183.771602 L309.627821,183.771602 L309.627821,191.573404 Z M309.5291,181.704733 C309.5291,181.40809 309.610003,181.180311 309.772289,181.020432 C309.934576,180.860553 310.166208,180.780614 310.467185,180.780614 C310.759012,180.780614 310.985828,180.860553 311.148115,181.020432 C311.310402,181.180311 311.391304,181.40809 311.391304,181.704733 C311.391304,181.986929 311.310402,182.20893 311.148115,182.370735 C310.985828,182.533503 310.759012,182.614406 310.467185,182.614406 C310.166208,182.614406 309.934576,182.533503 309.772289,182.370735 C309.610003,182.20893 309.5291,181.986929 309.5291,181.704733 Z" id="Fill-140" fill="#B6FAFF"></path>
                    <path d="M317.284384,190.374071 C317.688897,190.374071 318.093409,190.310505 318.497922,190.183372 L318.497922,191.432065 C318.314447,191.512005 318.077999,191.578942 317.78858,191.633359 C317.499642,191.687294 317.199629,191.714261 316.889502,191.714261 C315.318643,191.714261 314.533214,190.886454 314.533214,189.231322 L314.533214,185.026796 L313.467997,185.026796 L313.467997,184.293375 L314.610746,183.686606 L315.175138,182.036289 L316.197977,182.036289 L316.197977,183.771361 L318.419909,183.771361 L318.419909,185.026796 L316.197977,185.026796 L316.197977,189.20291 C316.197977,189.602607 316.298143,189.898287 316.497991,190.088023 C316.69784,190.279203 316.95981,190.374071 317.284384,190.374071" id="Fill-141" fill="#B6FAFF"></path>
                    <path d="M319.593912,183.771409 L321.399773,183.771409 L322.987005,188.194565 C323.226823,188.82445 323.386702,189.417254 323.466641,189.972014 L323.522984,189.972014 C323.565362,189.713415 323.642894,189.399917 323.756061,189.030077 C323.868747,188.6612 324.465885,186.90831 325.547475,183.771409 L327.339371,183.771409 L324.002621,192.610017 C323.396333,194.232884 322.385051,195.043836 320.969256,195.043836 C320.602786,195.043836 320.245466,195.003866 319.897296,194.923927 L319.897296,193.612149 C320.146264,193.668492 320.430868,193.696423 320.750626,193.696423 C321.550021,193.696423 322.112005,193.233159 322.436578,192.307113 L322.725998,191.573211 L319.593912,183.771409 Z" id="Fill-142" fill="#B6FAFF"></path>
                </g>
            </g>
        </g>
    </g>
</svg>