<?xml version="1.0" encoding="UTF-8" standalone="no"?>
<svg width="60px" height="75px" viewBox="0 0 60 75" version="1.1" xmlns="http://www.w3.org/2000/svg" xmlns:xlink="http://www.w3.org/1999/xlink">
    <!-- Generator: Sketch 48 (47235) - http://www.bohemiancoding.com/sketch -->
    <title>預算編列</title>
    <desc>Created with Sketch.</desc>
    <defs>
        <polygon id="path-1" points="0 0.400601504 25.715188 0.400601504 25.715188 26.1156541 0 26.1156541"></polygon>
    </defs>
    <g id="解決方案-決策大腦" stroke="none" stroke-width="1" fill="none" fill-rule="evenodd" transform="translate(-747.000000, -1440.000000)">
        <g id="03" transform="translate(0.000000, 1246.000000)">
            <g id="預算編列" transform="translate(747.000000, 194.000000)">
                <path d="M51.7850075,65.2243759 C51.7850075,66.880015 50.6260602,68.2221203 49.1964361,68.2221203 L7.1495188,68.2221203 C5.72034586,68.2221203 4.56049624,66.880015 4.56049624,65.2243759 L4.56049624,16.3058797 C4.56049624,14.6506917 5.72034586,13.3085865 7.1495188,13.3085865 L49.1964361,13.3085865 C50.6260602,13.3085865 51.7850075,14.6506917 51.7850075,16.3058797 L51.7850075,65.2243759 Z" id="Fill-1" fill="#FFFFFF"></path>
                <path d="M7.14933835,13.9852782 C6.09505263,13.9852782 5.23745865,15.0264812 5.23745865,16.3058797 L5.23745865,65.2243759 C5.23745865,66.5042256 6.09505263,67.5454286 7.14933835,67.5454286 L49.1962556,67.5454286 C50.2505414,67.5454286 51.1081353,66.5042256 51.1081353,65.2243759 L51.1081353,16.3058797 C51.1081353,15.0264812 50.2505414,13.9852782 49.1962556,13.9852782 L7.14933835,13.9852782 Z M49.1962556,68.898812 L7.14933835,68.898812 C5.34888722,68.898812 3.88407519,67.250391 3.88407519,65.2243759 L3.88407519,16.3058797 C3.88407519,14.2798647 5.34888722,12.6318947 7.14933835,12.6318947 L49.1962556,12.6318947 C50.9967068,12.6318947 52.4615188,14.2798647 52.4615188,16.3058797 L52.4615188,65.2243759 C52.4615188,67.250391 50.9967068,68.898812 49.1962556,68.898812 Z" id="Fill-3" fill="#0F9696"></path>
                <path d="M25.0384962,13.3085865 C25.0384962,6.58136842 19.584812,1.12768421 12.8571429,1.12768421 C6.13037594,1.12768421 0.676691729,6.58136842 0.676691729,13.3085865 C0.676691729,20.0358045 6.13037594,25.4894887 12.8571429,25.4894887 C19.584812,25.4894887 25.0384962,20.0358045 25.0384962,13.3085865" id="Fill-5" fill="#FFFFFF"></path>
                <g id="Group-9" transform="translate(0.000000, 0.050526)">
                    <mask id="mask-2" fill="white">
                        <use xlink:href="#path-1"></use>
                    </mask>
                    <g id="Clip-8"></g>
                    <path d="M12.8571429,1.75384962 C6.51383459,1.75384962 1.35338346,6.91430075 1.35338346,13.2580602 C1.35338346,19.6018195 6.51383459,24.7622707 12.8571429,24.7622707 C19.2009023,24.7622707 24.3618045,19.6018195 24.3618045,13.2580602 C24.3618045,6.91430075 19.2009023,1.75384962 12.8571429,1.75384962 M12.8571429,26.1156541 C5.76766917,26.1156541 0,20.347985 0,13.2580602 C0,6.16813534 5.76766917,0.400466165 12.8571429,0.400466165 C19.9470677,0.400466165 25.715188,6.16813534 25.715188,13.2580602 C25.715188,20.347985 19.9470677,26.1156541 12.8571429,26.1156541" id="Fill-7" fill="#0F9696" mask="url(#mask-2)"></path>
                </g>
                <path d="M12.2985113,20.3969326 L12.2985113,19.4524143 L12.1956541,19.4359106 C10.4254286,19.135459 9.12257143,17.6996389 9.09911278,16.0196489 L9.0977594,15.9218963 L10.2183609,15.9218963 L10.2201654,16.0162635 C10.2458797,17.3547543 11.4296391,18.4427276 12.858812,18.4427276 C14.3146015,18.4427276 15.4983609,17.3327494 15.4983609,15.9667525 C15.4983609,15.0023451 14.8803158,14.1733526 13.8034737,13.6930532 C13.4078346,13.5174371 12.9810677,13.3858308 12.5682857,13.2593026 C12.3282857,13.1856708 12.0909925,13.112039 11.8559549,13.0303669 C10.1556541,12.4370808 9.09911278,11.140484 9.09911278,9.64753568 C9.09911278,7.93877003 10.4015188,6.47925227 12.1956541,6.17795432 L12.2985113,6.16102747 L12.2985113,5.21693233 L13.4195639,5.21693233 L13.4195639,6.16102747 L13.5224211,6.17795432 C15.3170075,6.47925227 16.6185113,7.93877003 16.6185113,9.64753568 L16.6185113,9.7444419 L15.4983609,9.7444419 L15.4983609,9.64753568 C15.4983609,8.28196194 14.3146015,7.17113732 12.858812,7.17113732 C11.4034737,7.17113732 10.2201654,8.28196194 10.2201654,9.64753568 C10.2201654,10.3859696 10.6081353,11.1167864 11.2333985,11.5547687 C11.7801654,11.9377387 12.4582105,12.1442463 13.1136992,12.3439831 C13.3085865,12.4023807 13.5025714,12.4616247 13.6924962,12.5251004 C14.3682857,12.7510739 15.2141504,13.0938426 15.7595639,13.7552593 C16.3379098,14.456031 16.6185113,15.1809234 16.6185113,15.9667525 C16.6185113,17.6750949 15.3170075,19.1341895 13.5224211,19.4359106 L13.4195639,19.4532607 L13.4195639,20.3969326 L12.2985113,20.3969326 Z" id="Fill-10" fill="#0F9696"></path>
                <path d="M57.7232481,32.108797 L30.5085113,32.108797 C29.6924211,32.108797 29.0315188,32.7692481 29.0315188,33.5844361 L29.0315188,72.3340602 C29.0315188,73.1492481 29.6924211,73.8101504 30.5085113,73.8101504 L57.7236992,73.8101504 C58.5393383,73.8101504 59.1997895,73.1492481 59.1997895,72.3340602 L59.1997895,33.5844361 C59.1997895,32.7692481 58.5393383,32.108797 57.7232481,32.108797" id="Fill-12" fill="#FFFFFF"></path>
                <g id="Group-16" transform="translate(27.969925, 31.178346)" fill="#0F9696">
                    <path d="M2.53849624,1.60714286 C2.09729323,1.60714286 1.73864662,1.96578947 1.73864662,2.40609023 L1.73864662,41.1557143 C1.73864662,41.5964662 2.09729323,41.9551128 2.53849624,41.9551128 L29.7536842,41.9551128 C30.1948872,41.9551128 30.5535338,41.5964662 30.5535338,41.1557143 L30.5535338,2.40609023 C30.5535338,1.96578947 30.1944361,1.60714286 29.7532331,1.60714286 L2.53849624,1.60714286 Z M29.7536842,43.3084962 L2.53849624,43.3084962 C1.35112782,43.3084962 0.385263158,42.3426316 0.385263158,41.1557143 L0.385263158,2.40609023 C0.385263158,1.21962406 1.35112782,0.253759398 2.53849624,0.253759398 L29.7532331,0.253759398 C30.9406015,0.253759398 31.9069173,1.21962406 31.9069173,2.40609023 L31.9069173,41.1557143 C31.9069173,42.3426316 30.9410526,43.3084962 29.7536842,43.3084962 Z" id="Fill-14"></path>
                </g>
                <polygon id="Fill-17" fill="#FFFFFF" points="33.2652632 41.1207519 54.9667669 41.1207519 54.9667669 36.3442105 33.2652632 36.3442105"></polygon>
                <path d="M33.9415038,40.4440602 L54.2896241,40.4440602 L54.2896241,37.0209023 L33.9415038,37.0209023 L33.9415038,40.4440602 Z M32.5885714,41.7974436 L55.6434586,41.7974436 L55.6434586,35.6675188 L32.5885714,35.6675188 L32.5885714,41.7974436 Z" id="Fill-19" fill="#0F9696"></path>
                <polygon id="Fill-20" fill="#FFFFFF" points="33.2652632 69.3 54.9667669 69.3 54.9667669 45.0974436 33.2652632 45.0974436"></polygon>
                <path d="M33.9415038,68.6233083 L54.2896241,68.6233083 L54.2896241,45.7741353 L33.9415038,45.7741353 L33.9415038,68.6233083 Z M32.5885714,69.9766917 L55.6434586,69.9766917 L55.6434586,44.4207519 L32.5885714,44.4207519 L32.5885714,69.9766917 Z" id="Fill-21" fill="#0F9696"></path>
                <path d="M48.8068872,59.1737594 C49.3753083,59.7421805 49.3753083,60.8163158 48.8068872,61.3842857 C48.1753083,62.0158647 47.164782,61.9527068 46.5963609,61.3842857 C45.964782,60.7527068 45.964782,59.8053383 46.5963609,59.1737594 C47.164782,58.6053383 48.1753083,58.5421805 48.8068872,59.1737594 Z M41.8595188,52.226391 C42.4121504,52.7790226 42.4753083,53.8211278 41.8595188,54.4369173 C41.1489925,55.1474436 40.1542556,54.9421805 39.6489925,54.4369173 C39.0485414,53.8364662 39.0011729,52.9048872 39.6643308,52.2417293 C40.2643308,51.6417293 41.2590677,51.6259398 41.8595188,52.226391 Z M38.4643308,62.19 L49.4700451,51.1842857 L50.1963609,51.9106015 L39.1906466,62.9158647 L38.4643308,62.19 Z" id="Fill-22" fill="#0F9696"></path>
                <path d="M14.2422406,38.1686165 L11.0455489,33.4827519 C10.8348722,33.1741805 10.9147218,32.7528271 11.2232932,32.5421504 C11.5314135,32.3314737 11.9536692,32.4108722 12.1638947,32.7198947 L14.550812,36.2197444 L20.8020902,31.3886165 C21.0966767,31.1598947 21.5229925,31.2140301 21.7512632,31.5099699 C21.9795338,31.8059098 21.9249474,32.2308722 21.6294586,32.4591429 L14.2422406,38.1686165 Z" id="Fill-23" fill="#0F9696"></path>
                <path d="M14.2422406,49.4587218 L11.0455489,44.7728571 C10.8348722,44.4642857 10.9147218,44.0429323 11.2232932,43.8322556 C11.5314135,43.6220301 11.9536692,43.7009774 12.1638947,44.01 L14.550812,47.5098496 L20.8020902,42.6791729 C21.0966767,42.4504511 21.5229925,42.5045865 21.7512632,42.8005263 C21.9795338,43.096015 21.9249474,43.5214286 21.6294586,43.7496992 L14.2422406,49.4587218 Z" id="Fill-24" fill="#0F9696"></path>
                <path d="M14.2422406,60.7488271 L11.0455489,56.0629624 C10.8348722,55.754391 10.9147218,55.3330376 11.2232932,55.1223609 C11.5314135,54.9121353 11.9536692,54.9910827 12.1638947,55.3001053 L14.550812,58.7999549 L20.8020902,53.9692782 C21.0966767,53.7410075 21.5229925,53.7946917 21.7512632,54.0906316 C21.9795338,54.3861203 21.9249474,54.8115338 21.6294586,55.0398045 L14.2422406,60.7488271 Z" id="Fill-25" fill="#0F9696"></path>
            </g>
        </g>
    </g>
</svg>