<?xml version="1.0" encoding="UTF-8" standalone="no"?>
<svg width="60px" height="71px" viewBox="0 0 60 71" version="1.1" xmlns="http://www.w3.org/2000/svg" xmlns:xlink="http://www.w3.org/1999/xlink">
    <!-- Generator: Sketch 48 (47235) - http://www.bohemiancoding.com/sketch -->
    <title>佈局</title>
    <desc>Created with Sketch.</desc>
    <defs></defs>
    <g id="解決方案-決策大腦" stroke="none" stroke-width="1" fill="none" fill-rule="evenodd" transform="translate(-473.000000, -1443.000000)">
        <g id="03" transform="translate(0.000000, 1246.000000)">
            <g id="佈局" transform="translate(473.000000, 197.000000)">
                <path d="M51.7637021,22.1438723 C52.8645532,23.4468511 53.8551915,24.8562128 54.7071064,26.3336596 L54.9088085,26.6830213 L49.4368936,28.3255745 L43.8794468,27.2268511 L42.1117872,24.3953617 C41.9900851,24.2000426 41.7807234,24.0791915 41.5513617,24.0711064 L35.5037021,23.8898298 C35.3207234,23.8791915 35.1445532,23.9502553 35.0105106,24.0770638 L31.894766,27.0111064 C31.7373191,27.1591915 31.6577447,27.3757872 31.682,27.5906809 L32.4785957,34.6783404 C32.5058298,34.9153617 32.6581702,35.1251489 32.8764681,35.226 L39.8437021,38.4625957 C39.9802979,38.5268511 40.1343404,38.5430213 40.2790213,38.5106809 L44.0462553,37.6881277 L46.4573191,39.4051489 L46.3471064,43.0689787 C46.3428511,43.1800426 46.3628511,43.2847234 46.4071064,43.3834468 L50.1330638,51.4191915 L50.0168936,55.2894043 C50.0113617,55.4728085 50.0781702,55.6477021 50.2045532,55.7825957 L52.4398723,58.1574894 L52.2671064,58.3736596 C46.6360426,65.4281277 38.315617,69.1025957 29.922,69.1025957 C23.674766,69.1025957 17.3875319,67.0672766 12.1364681,62.8762128 C2.77178723,55.4008936 -0.938851064,42.753234 2.90370213,31.4034468 L3.22412766,30.4566383 L4.27391489,33.9511064 C4.31774468,34.0979149 4.41008511,34.2272766 4.53434043,34.3153617 L9.77646809,38.0417447 L8.3126383,39.4217447 C8.17859574,39.5481277 8.10157447,39.7191915 8.09561702,39.9025957 L8.00497872,42.9277021 C8.002,43.0345106 8.02370213,43.1417447 8.06795745,43.2379149 L9.96370213,47.3311064 C10.0526383,47.5230213 10.2288085,47.6655745 10.434766,47.712383 L14.8994468,48.7451489 L14.6134894,58.2625957 C14.6109362,58.3511064 14.6249787,58.4374894 14.654766,58.5191915 L16.5198723,63.6217447 C16.5896596,63.8119574 16.7394468,63.9613191 16.9313617,64.0319574 L19.9249787,65.1302553 C19.994766,65.1562128 20.0654043,65.1702553 20.1373191,65.172383 C20.5105106,65.1983404 20.8351915,64.8838723 20.8466809,64.5047234 L20.9875319,59.8081277 L24.8296596,57.1030213 C25.0058298,56.9783404 25.114766,56.7757872 25.1215745,56.5600426 L25.2037021,53.8204681 L29.1496596,50.1047234 C29.2488085,50.0111064 29.3173191,49.8911064 29.3479574,49.7583404 L30.5079574,44.7468511 C30.5934894,44.3770638 30.3615745,44.006 29.9909362,43.919617 C29.948383,43.9098298 29.9024255,43.9042979 29.8568936,43.9030213 L26.2143404,43.7936596 L23.5313617,39.0017447 C23.4139149,38.7919574 23.1913617,38.6574894 22.9513617,38.6502553 L16.3194468,38.4506809 L14.608383,34.7442979 C14.5160426,34.5438723 14.3309362,34.398766 14.1134894,34.3570638 C13.8943404,34.3136596 13.6705106,34.3774894 13.5122128,34.5294043 L11.6011489,36.3221702 L11.6722128,33.9553617 C11.6777447,33.7715319 11.6113617,33.5966383 11.4849787,33.4621702 L9.72497872,31.5928085 L9.78965957,29.4511064 L16.2832766,28.7221702 C16.374766,28.7115319 16.4624255,28.6834468 16.5424255,28.6383404 L21.674766,25.7647234 C21.7730638,25.7098298 21.8568936,25.6306809 21.9173191,25.5362128 L24.955617,20.8004681 L27.7662553,19.9553617 C27.9743404,19.8940851 28.1415745,19.7366383 28.214766,19.5345106 L29.3139149,16.5383404 C29.4437021,16.1821702 29.2585957,15.786 28.9011489,15.6549362 C28.8696596,15.6438723 28.8339149,15.6340851 28.7977447,15.6268511 L22.9271064,14.4655745 L21.3296596,13.3306809 L21.962,13.1455745 C28.4330638,11.252383 35.3896596,11.7200426 41.5496596,14.4630213 L42.1922128,14.7494043 L39.615617,15.9400426 L35.7454043,15.8238723 C35.4841277,15.8106809 35.2373191,15.953234 35.1122128,16.1864255 L32.974766,20.1591915 C32.8875319,20.3213191 32.8688085,20.5072766 32.922,20.6834468 C32.9751915,20.8600426 33.0939149,21.0051489 33.2560426,21.0919574 C33.2845532,21.1072766 33.3139149,21.1208936 33.3441277,21.1315319 L36.3394468,22.2306809 C36.4637021,22.2774894 36.594766,22.2872766 36.722,22.2583404 L40.5905106,21.4140851 L43.3968936,22.4425957 C43.4262553,22.4540851 43.4479574,22.4608936 43.4705106,22.4655745 L48.4896596,23.6268511 C48.6671064,23.6685532 48.8560426,23.6374894 49.009234,23.5413191 L51.5854043,21.9328085 L51.7637021,22.1438723 Z M55.6781702,28.1719574 C60.1215745,37.3621702 59.2858298,48.2945106 53.4964681,56.7021702 L53.2722128,57.0277021 L51.4041277,55.0447234 L51.5164681,51.2974894 C51.5207234,51.1872766 51.5002979,51.0804681 51.4573191,50.9842979 L47.7305106,42.9477021 L47.8466809,39.0779149 C47.8539149,38.8468511 47.7458298,38.6289787 47.5573191,38.4953617 L44.5930638,36.3881277 C44.434766,36.2749362 44.2360426,36.2340851 44.0445532,36.2762128 L40.2066809,37.1140851 L33.8049787,34.1362128 L33.0913617,27.7766383 L35.7471064,25.2762128 L41.1428511,25.4383404 L42.8700851,28.2111064 C42.9700851,28.3719574 43.134766,28.4851489 43.3207234,28.5213191 L49.3402979,29.7115319 C49.449234,29.733234 49.5632766,29.7268511 49.6713617,29.6953617 L55.5594468,27.9268511 L55.6781702,28.1719574 Z M15.7594468,47.5302553 L11.0781702,46.4455745 L9.38838298,42.8068511 L9.46582979,40.2294043 L13.7539149,36.1915319 L15.2466809,39.4166383 C15.3568936,39.6553617 15.589234,39.8085532 15.8522128,39.8162128 L22.5194468,40.0162128 L25.2024255,44.8085532 C25.3198723,45.0179149 25.5424255,45.1528085 25.7828511,45.1600426 L28.974766,45.2557872 L28.0534894,49.2438723 L24.0513617,53.0128085 C23.9185957,53.1374894 23.8394468,53.312383 23.8339149,53.4940851 L23.7534894,56.1736596 L19.9113617,58.878766 C19.7351915,59.0030213 19.6258298,59.2064255 19.6194468,59.4221702 L19.4968936,63.5051489 L17.7002979,62.8494043 L15.9913617,58.1715319 L16.2896596,48.2217447 C16.2998723,47.8957872 16.0768936,47.6051489 15.7594468,47.5302553 Z M4.12753191,28.3847234 C7.26710638,21.759617 12.7543404,16.6340851 19.5777447,13.9519574 L19.7385957,13.8889787 L22.2505106,15.6745106 C22.3300851,15.7311064 22.4194468,15.7698298 22.5164681,15.7881277 L27.7454043,16.8225957 L27.0411489,18.7349362 L24.3177447,19.5545106 C24.1598723,19.6017447 24.0241277,19.7038723 23.935617,19.8417447 L20.8522128,24.6468511 L15.9917872,27.3685532 L9.042,28.1485532 C8.7032766,28.1864255 8.43944681,28.4719574 8.42880851,28.8128085 L8.33774468,31.8370638 C8.3326383,32.0213191 8.39902128,32.1966383 8.52540426,32.3302553 L10.2854043,34.1991915 L10.2117872,36.659617 L5.52582979,33.3277021 L4.07476596,28.4957872 L4.12753191,28.3847234 Z M43.8781702,15.632383 C46.2705106,16.9745106 48.4551915,18.6494043 50.3709362,20.6119574 L50.6479574,20.8953617 L48.5275319,22.2200426 L43.8560426,21.1383404 L40.882,20.0506809 C40.7581702,20.0047234 40.6266809,19.9949362 40.4994468,20.0238723 L36.6309362,20.8681277 L34.5709362,20.1128085 L36.1300851,17.2153617 L39.7368936,17.3238723 C39.8466809,17.3306809 39.9509362,17.3051489 40.048383,17.2600426 L43.7360426,15.5528085 L43.8781702,15.632383 Z M30.8645532,10.632383 C18.8632766,10.2694043 7.85561702,17.0694043 2.80370213,27.9536596 L2.7432766,28.0842979 L2.5313617,28.1477021 L2.60582979,28.3974894 L2.55859574,28.5051489 C-0.665659574,35.8191915 -0.848638298,43.9502553 2.0432766,51.4017447 C4.93519149,58.8536596 10.555617,64.732383 17.869234,67.9562128 C21.4168936,69.5208936 25.1815745,70.3719574 29.0594468,70.486 C37.0530638,70.7289787 44.6624255,67.8413191 50.4854043,62.3591915 C56.308383,56.8770638 59.6479574,49.4557872 59.889234,41.4617447 C60.1305106,33.4681277 57.2441277,25.858766 51.762,20.0357872 C46.2798723,14.212383 38.8581702,10.873234 30.8645532,10.632383 Z" id="Fill-1" fill="#0F9696"></path>
                <path d="M12.15,8.125 C12.15,5.76401284 10.236103,3.85000002 7.875,3.85000002 C5.51389705,3.85000002 3.60000002,5.76401284 3.60000002,8.125 C3.60000002,10.4862585 5.51374145,12.4 7.875,12.4 C10.2362585,12.4 12.15,10.4862585 12.15,8.125 Z M13.35,8.125 C13.35,11.1490003 10.8990003,13.6 7.875,13.6 C4.85099972,13.6 2.39999998,11.1490003 2.39999998,8.125 C2.39999998,5.10128737 4.85113907,2.64999998 7.875,2.64999998 C10.8988609,2.64999998 13.35,5.10128737 13.35,8.125 Z" id="Stroke-6" fill="#0F9696" fill-rule="nonzero"></path>
                <path d="M56.4,5.49979235 C56.4,3.34626201 54.6538493,1.60000002 52.5002077,1.60000002 C50.3462064,1.60000002 48.6,3.34620636 48.6,5.49979235 C48.6,7.65373799 50.3461507,9.39999998 52.5002077,9.39999998 C54.653905,9.39999998 56.4,7.65368233 56.4,5.49979235 Z M57.6,5.49979235 C57.6,8.31638981 55.3166809,10.6 52.5002077,10.6 C49.6833918,10.6 47.4,8.31646259 47.4,5.49979235 C47.4,2.68346463 49.6834646,0.399999976 52.5002077,0.399999976 C55.3166082,0.399999976 57.6,2.68353741 57.6,5.49979235 Z" id="Stroke-10" fill="#0F9696" fill-rule="nonzero"></path>
                <path d="M6.89999998,13 C6.89999998,12.6686291 7.16862914,12.4 7.5,12.4 C7.83137086,12.4 8.10000002,12.6686291 8.10000002,13 L8.10000002,21.25 C8.10000002,21.5813709 7.83137086,21.85 7.5,21.85 C7.16862914,21.85 6.89999998,21.5813709 6.89999998,21.25 L6.89999998,13 Z" id="Stroke-12" fill="#0F9696" fill-rule="nonzero"></path>
                <path d="M19.65,43.75 C19.65,43.4186291 19.9186291,43.15 20.25,43.15 C20.5813709,43.15 20.85,43.4186291 20.85,43.75 L20.85,54.25 C20.85,54.5813709 20.5813709,54.85 20.25,54.85 C19.9186291,54.85 19.65,54.5813709 19.65,54.25 L19.65,43.75 Z" id="Stroke-14" fill="#0F9696" fill-rule="nonzero"></path>
                <path d="M51.9,10.75 C51.9,10.4186291 52.1686291,10.15 52.5,10.15 C52.8313709,10.15 53.1,10.4186291 53.1,10.75 L53.1,37.75 C53.1,38.0813709 52.8313709,38.35 52.5,38.35 C52.1686291,38.35 51.9,38.0813709 51.9,37.75 L51.9,10.75 Z" id="Stroke-16" fill="#0F9696" fill-rule="nonzero"></path>
                <path d="M25.5,40.125 C25.5,42.8176294 23.3176294,45 20.625,45 C17.9323706,45 15.75,42.8176294 15.75,40.125 C15.75,37.4327976 17.9323706,35.25 20.625,35.25 C23.3176294,35.25 25.5,37.4327976 25.5,40.125" id="Fill-18" fill="#FFFFFF"></path>
                <path d="M24.9,40.125 C24.9,37.7640128 22.986103,35.85 20.625,35.85 C18.263897,35.85 16.35,37.7640128 16.35,40.125 C16.35,42.4862585 18.2637415,44.4 20.625,44.4 C22.9862585,44.4 24.9,42.4862585 24.9,40.125 Z M26.1,40.125 C26.1,43.1490003 23.6490003,45.6 20.625,45.6 C17.6009997,45.6 15.15,43.1490003 15.15,40.125 C15.15,37.1012874 17.6011391,34.65 20.625,34.65 C23.6488609,34.65 26.1,37.1012874 26.1,40.125 Z" id="Stroke-20" fill="#0F9696" fill-rule="nonzero"></path>
            </g>
        </g>
    </g>
</svg>