<?xml version="1.0" encoding="UTF-8" standalone="no"?>
<svg width="60px" height="61px" viewBox="0 0 60 61" version="1.1" xmlns="http://www.w3.org/2000/svg" xmlns:xlink="http://www.w3.org/1999/xlink">
    <!-- Generator: Sketch 48 (47235) - http://www.bohemiancoding.com/sketch -->
    <title>人才預測</title>
    <desc>Created with Sketch.</desc>
    <defs></defs>
    <g id="解決方案-決策大腦" stroke="none" stroke-width="1" fill="none" fill-rule="evenodd" transform="translate(-1020.000000, -1448.000000)">
        <g id="03" transform="translate(0.000000, 1246.000000)" fill="#0F9696">
            <g id="人才預測" transform="translate(1020.000000, 202.000000)">
                <path d="M1.73303846,28.0236538 L8.51111538,28.0236538 L10.9630385,32.9282692 C11.0688077,33.1405769 11.2822692,33.2721154 11.5195769,33.2721154 C11.7568846,33.2721154 11.9699615,33.1401923 12.0765,32.9278846 L14.5284231,28.0236538 L15.2230385,28.0236538 C15.5661154,28.0236538 15.8449615,27.7444231 15.8449615,27.4017308 C15.8449615,27.0582692 15.5661154,26.7794231 15.2230385,26.7794231 L14.1438077,26.7794231 C13.9065,26.7794231 13.6934231,26.9109615 13.5876538,27.1228846 L11.5195769,31.2586538 L9.45188462,27.1232692 C9.34765385,26.9140385 9.12880769,26.7794231 8.89534615,26.7794231 L1.73303846,26.7794231 C1.46342308,26.7794231 1.24419231,26.5598077 1.24419231,26.2905769 L1.24419231,2.11788462 C1.24419231,1.84788462 1.46342308,1.62865385 1.73303846,1.62865385 L21.3061154,1.62865385 C21.5757308,1.62865385 21.7949615,1.84788462 21.7949615,2.11788462 L21.7949615,12.6148077 C21.7949615,12.9575 22.0741923,13.2367308 22.4168846,13.2367308 C22.7599615,13.2367308 23.0391923,12.9575 23.0391923,12.6148077 L23.0391923,2.11788462 C23.0391923,1.16211538 22.2615,0.384807692 21.3061154,0.384807692 L1.73303846,0.384807692 C0.777653846,0.384807692 -3.84615385e-05,1.16211538 -3.84615385e-05,2.11788462 L-3.84615385e-05,26.2905769 C-3.84615385e-05,27.2463462 0.777653846,28.0236538 1.73303846,28.0236538" id="Fill-1"></path>
                <path d="M11.5196923,13.163 C9.72584615,13.163 8.26623077,11.7033846 8.26623077,9.90915385 C8.26623077,8.11530769 9.72584615,6.65569231 11.5196923,6.65569231 C13.3135385,6.65569231 14.7731538,8.11530769 14.7731538,9.90915385 C14.7731538,11.7033846 13.3135385,13.163 11.5196923,13.163 M11.5196923,5.41184615 C9.03969231,5.41184615 7.022,7.42915385 7.022,9.90915385 C7.022,12.3891538 9.03969231,14.4068462 11.5196923,14.4068462 C13.9996923,14.4068462 16.017,12.3891538 16.017,9.90915385 C16.017,7.42915385 13.9996923,5.41184615 11.5196923,5.41184615" id="Fill-4"></path>
                <path d="M11.5196923,17.1259615 C12.7231538,17.1259615 13.8958462,17.4617308 14.9108462,18.0967308 C15.0523846,18.1848077 15.2185385,18.2132692 15.3808462,18.1755769 C15.5423846,18.1386538 15.6800769,18.0405769 15.7681538,17.8998077 C15.9504615,17.6086538 15.8616154,17.2240385 15.5708462,17.0421154 C14.3577692,16.2832692 12.9566154,15.8821154 11.5196923,15.8821154 C7.30315385,15.8825 3.87315385,19.3125 3.87315385,23.5282692 C3.87315385,23.8713462 4.15238462,24.1505769 4.49507692,24.1505769 L15.2231538,24.1505769 C15.5662308,24.1505769 15.8450769,23.8713462 15.8450769,23.5282692 C15.8450769,23.1855769 15.5662308,22.9063462 15.2231538,22.9063462 L5.13430769,22.9063462 L5.19892308,22.5048077 C5.70238462,19.3882692 8.36046154,17.1259615 11.5196923,17.1259615" id="Fill-6"></path>
                <path d="M58.2545769,0.384692308 L38.6811154,0.384692308 C37.7257308,0.384692308 36.9484231,1.162 36.9484231,2.11776923 L36.9484231,12.6146923 C36.9484231,12.9573846 37.2272692,13.2366154 37.5703462,13.2366154 C37.9134231,13.2366154 38.1926538,12.9573846 38.1926538,12.6146923 L38.1926538,2.11776923 C38.1926538,1.84815385 38.4118846,1.62853846 38.6811154,1.62853846 L58.2541923,1.62853846 C58.5238077,1.62853846 58.7434231,1.84815385 58.7434231,2.11776923 L58.7434231,26.2904615 C58.7434231,26.5600769 58.5238077,26.7793077 58.2541923,26.7793077 L51.0918846,26.7793077 C50.8549615,26.7793077 50.6415,26.9112308 50.5353462,27.1235385 L48.4680385,31.2585385 L46.4003462,27.1231538 C46.2938077,26.9112308 46.0807308,26.7793077 45.8434231,26.7793077 L44.7645769,26.7793077 C44.4215,26.7793077 44.1426538,27.0585385 44.1426538,27.4012308 C44.1426538,27.7443077 44.4215,28.0231538 44.7645769,28.0231538 L45.4588077,28.0231538 L47.9111154,32.9281538 C48.0176538,33.1400769 48.2307308,33.272 48.4680385,33.272 C48.7049615,33.272 48.9184231,33.1400769 49.0245769,32.9277692 L51.4765,28.0231538 L58.2545769,28.0231538 C59.2099615,28.0231538 59.9872692,27.2462308 59.9872692,26.2904615 L59.9872692,2.11776923 C59.9872692,1.162 59.2099615,0.384692308 58.2545769,0.384692308" id="Fill-8"></path>
                <path d="M48.4679231,13.163 C46.6740769,13.163 45.2144615,11.7033846 45.2144615,9.90915385 C45.2144615,8.11530769 46.6740769,6.65569231 48.4679231,6.65569231 C50.2617692,6.65569231 51.7213846,8.11530769 51.7213846,9.90915385 C51.7206154,11.7033846 50.2613846,13.163 48.4679231,13.163 M48.4679231,5.41184615 C45.9879231,5.41184615 43.9702308,7.42915385 43.9702308,9.90915385 C43.9702308,12.3891538 45.9879231,14.4068462 48.4679231,14.4068462 C50.9479231,14.4068462 52.9652308,12.3891538 52.9652308,9.90915385 C52.9652308,7.42915385 50.9479231,5.41184615 48.4679231,5.41184615" id="Fill-10"></path>
                <path d="M44.1425,23.5284615 C44.1425,23.8715385 44.4217308,24.1503846 44.7644231,24.1503846 L55.4921154,24.1503846 C55.8351923,24.1503846 56.1144231,23.8715385 56.1144231,23.5284615 C56.1144231,19.3123077 52.6844231,15.8823077 48.4678846,15.8823077 C47.0305769,15.8823077 45.6294231,16.2834615 44.4163462,17.0426923 C44.1255769,17.2242308 44.0375,17.6088462 44.2190385,17.9 C44.4009615,18.1903846 44.7859615,18.2784615 45.0763462,18.0973077 C46.0917308,17.4619231 47.2644231,17.1261538 48.4678846,17.1261538 C51.6271154,17.1261538 54.2851923,19.3880769 54.7886538,22.505 L54.8532692,22.9065385 L44.7644231,22.9065385 C44.4217308,22.9065385 44.1425,23.1853846 44.1425,23.5284615" id="Fill-12"></path>
                <path d="M39.7802692,17.1094615 L39.7825769,17.1094615 C39.9106538,17.1094615 40.0325769,17.1602308 40.1248846,17.2517692 C40.2175769,17.3436923 40.2691154,17.4671538 40.2691154,17.5983077 L40.2691154,17.5986923 C40.2691154,17.5986923 40.2529615,23.6783077 40.2268077,29.7575385 C40.2141154,32.7971538 40.1987308,35.8371538 40.1818077,38.1171538 C40.1729615,39.2579231 40.1641154,40.2083077 40.1552692,40.8736923 C40.1502692,41.2079231 40.1456538,41.471 40.1406538,41.6502308 C40.1329615,41.9498462 40.1245,42.2602308 39.7802692,42.2602308 L32.6179615,42.2602308 C32.3806538,42.2602308 32.1675769,42.3917692 32.0614231,42.6040769 L29.9937308,46.7386923 L27.9260385,42.6040769 C27.8198846,42.3917692 27.6068077,42.2602308 27.3695,42.2602308 L20.2068077,42.2602308 C19.9375769,42.2602308 19.7183462,42.0406154 19.7183462,41.771 L19.7183462,17.5983077 C19.7183462,17.3286923 19.9375769,17.1094615 20.2068077,17.1094615 L39.7802692,17.1094615 Z M18.4741154,17.5983077 L18.4741154,41.771 C18.4741154,42.7263846 19.2514231,43.5040769 20.2068077,43.5040769 L26.9848846,43.5040769 L29.4371923,48.4086923 C29.5437308,48.621 29.7564231,48.7521538 29.9937308,48.7521538 C30.2310385,48.7521538 30.4441154,48.621 30.5502692,48.4086923 L33.0021923,43.5040769 L39.7798846,43.5040769 C40.7352692,43.5040769 41.5129615,42.7263846 41.5129615,41.771 L41.5129615,17.5983077 C41.5129615,16.6425385 40.7352692,15.8652308 39.7798846,15.8652308 L20.2068077,15.8652308 C19.2514231,15.8652308 18.4741154,16.6425385 18.4741154,17.5983077 Z" id="Fill-14"></path>
                <path d="M29.9936154,22.1361154 C31.7874615,22.1361154 33.2470769,23.5957308 33.2470769,25.3899615 C33.2470769,27.1838077 31.7874615,28.6434231 29.9936154,28.6434231 C28.1997692,28.6434231 26.7401538,27.1838077 26.7401538,25.3899615 C26.7401538,23.5957308 28.1997692,22.1361154 29.9936154,22.1361154 M29.9936154,29.8868846 C32.4736154,29.8868846 34.4909231,27.8695769 34.4909231,25.3895769 C34.4909231,22.9095769 32.4736154,20.8922692 29.9936154,20.8922692 C27.5136154,20.8922692 25.4963077,22.9095769 25.4963077,25.3895769 C25.4963077,27.8695769 27.5136154,29.8868846 29.9936154,29.8868846" id="Fill-16"></path>
                <path d="M23.6733846,37.9853462 C24.1760769,34.8684231 26.8337692,32.6065 29.9937692,32.6065 C33.1526154,32.6065 35.8110769,34.8684231 36.3141538,37.9853462 L36.3787692,38.3868846 L23.6087692,38.3868846 L23.6733846,37.9853462 Z M22.9691538,39.6311154 L37.018,39.6311154 C37.3610769,39.6311154 37.6399231,39.3522692 37.6399231,39.0088077 C37.6399231,34.7926538 34.2103077,31.3626538 29.9937692,31.3626538 C25.7772308,31.3626538 22.3472308,34.7926538 22.3472308,39.0088077 C22.3472308,39.3522692 22.6260769,39.6311154 22.9691538,39.6311154 Z" id="Fill-18"></path>
                <path d="M48.9077692,56.5633462 C49.2862308,56.5633462 49.5943077,56.2552692 49.5943077,55.8768077 C49.5943077,55.4979615 49.2862308,55.1906538 48.9077692,55.1906538 C48.5293077,55.1906538 48.2212308,55.4979615 48.2212308,55.8768077 C48.2212308,56.2552692 48.5293077,56.5633462 48.9077692,56.5633462" id="Fill-20"></path>
                <path d="M43.6140385,56.5633462 C43.9928846,56.5633462 44.3009615,56.2552692 44.3009615,55.8768077 C44.3009615,55.4979615 43.9928846,55.1906538 43.6140385,55.1906538 C43.2355769,55.1906538 42.9278846,55.4979615 42.9278846,55.8768077 C42.9278846,56.2552692 43.2355769,56.5633462 43.6140385,56.5633462" id="Fill-22"></path>
                <path d="M54.2011154,56.5633462 C54.5795769,56.5633462 54.8872692,56.2552692 54.8872692,55.8768077 C54.8872692,55.4979615 54.5795769,55.1906538 54.2011154,55.1906538 C53.8226538,55.1906538 53.5145769,55.4979615 53.5145769,55.8768077 C53.5145769,56.2552692 53.8226538,56.5633462 54.2011154,56.5633462" id="Fill-24"></path>
                <path d="M39.0073077,59.1284615 L58.7430769,59.1284615 L58.7430769,52.6261538 L39.0073077,52.6261538 L39.0073077,59.1284615 Z M1.24423077,59.1284615 L37.7634615,59.1284615 L37.7634615,52.6261538 L1.24423077,52.6261538 L1.24423077,59.1284615 Z M59.3653846,51.3815385 L0.621923077,51.3815385 C0.279230769,51.3815385 0,51.6607692 0,52.0034615 L0,59.75 C0,60.0926923 0.279230769,60.3719231 0.621923077,60.3719231 L59.3653846,60.3719231 C59.7080769,60.3719231 59.9873077,60.0926923 59.9873077,59.75 L59.9873077,52.0034615 C59.9873077,51.6607692 59.7080769,51.3815385 59.3653846,51.3815385 Z" id="Fill-26"></path>
            </g>
        </g>
    </g>
</svg>