<?xml version="1.0" encoding="UTF-8" standalone="no"?>
<svg width="72px" height="72px" viewBox="0 0 72 72" version="1.1" xmlns="http://www.w3.org/2000/svg" xmlns:xlink="http://www.w3.org/1999/xlink">
    <!-- Generator: Sketch 48 (47235) - http://www.bohemiancoding.com/sketch -->
    <title>找出人選</title>
    <desc>Created with Sketch.</desc>
    <defs></defs>
    <g id="解決方案-決策大腦" stroke="none" stroke-width="1" fill="none" fill-rule="evenodd" transform="translate(-471.000000, -2465.000000)">
        <g id="03-copy" transform="translate(0.000000, 2288.000000)" fill="#0F9696">
            <g id="找出人選" transform="translate(471.000000, 177.000000)">
                <path d="M35.1912114,9.4910004 C21.0202523,9.4910004 9.49101075,21.0201568 9.49101075,35.1910112 C9.49101075,49.362266 21.0202523,60.8910221 35.1912114,60.8910221 C49.3621705,60.8910221 60.8910117,49.362266 60.8910117,35.1910112 C60.8910117,21.0201568 49.3621705,9.4910004 35.1912114,9.4910004 M35.1912114,62.2921348 C20.2472327,62.2921348 8.08988764,50.1344793 8.08988764,35.1910112 C8.08988764,20.2475432 20.2472327,8.08988764 35.1912114,8.08988764 C50.1347898,8.08988764 62.2921348,20.2475432 62.2921348,35.1910112 C62.2921348,50.1344793 50.1347898,62.2921348 35.1912114,62.2921348" id="Fill-1"></path>
                <g id="Group-5" transform="translate(0.000000, 35.595506)">
                    <path d="M14.4578406,1.49472809 L0.689557131,1.49472809 C0.308834572,1.49472809 -0.000157649092,1.17800899 -0.000157649092,0.786862921 C-0.000157649092,0.395716854 0.308834572,0.0789977528 0.689557131,0.0789977528 L14.4578406,0.0789977528 C14.8385632,0.0789977528 15.1475554,0.395716854 15.1475554,0.786862921 C15.1475554,1.17800899 14.8385632,1.49472809 14.4578406,1.49472809" id="Fill-3"></path>
                </g>
                <g id="Group-8" transform="translate(55.820225, 35.595506)">
                    <path d="M15.1440674,1.49472809 L1.01426966,1.49472809 C0.62352809,1.49472809 0.306404494,1.17800899 0.306404494,0.786862921 C0.306404494,0.395716854 0.62352809,0.0789977528 1.01426966,0.0789977528 L15.1440674,0.0789977528 C15.534809,0.0789977528 15.8519326,0.395716854 15.8519326,0.786862921 C15.8519326,1.17800899 15.534809,1.49472809 15.1440674,1.49472809" id="Fill-6"></path>
                </g>
                <path d="M43.9063595,55.011236 C43.522389,55.011236 43.2107607,54.6993959 43.2107607,54.3142754 L43.2107607,45.5859402 C43.2091708,45.4537168 43.1924764,42.1071116 45.4140203,39.2017819 C46.2821277,38.0671301 46.8791502,36.9746943 47.2392716,35.8623453 C48.2230471,32.8247923 49.609475,25.276909 41.2579167,20.8068034 C40.9021675,20.6236024 32.2437508,16.2745687 25.5353957,22.4368945 C24.2670209,23.6022125 23.3742695,25.0415355 22.9537303,26.5999392 C22.5435257,28.1169236 22.4385897,29.7470146 22.6409095,31.445607 C22.6655536,31.6527038 22.7017248,31.855818 22.7374984,32.0597288 L22.7482305,32.1194682 C22.867476,32.7973121 23.0244826,34.55883 21.9023823,36.2681755 L20.0306252,38.994685 C20.0008139,39.0846925 19.9809396,39.2236863 20.0143284,39.2866119 C20.0389724,39.3328104 20.1454984,39.4009134 20.3641152,39.4443241 C20.5008501,39.4590599 20.9368911,39.5160115 21.3105271,39.6765115 C21.6153981,39.8083367 21.8411696,40.0791556 21.9151018,40.4013505 C21.9834693,40.69726 21.9178842,41.0094983 21.7398109,41.2516423 C21.9707498,41.3926275 22.1361035,41.6104774 22.2088433,41.8709415 C22.2855579,42.1465396 22.2481943,42.4356787 22.1031123,42.6845931 C22.1019198,42.687381 22.1003299,42.6901688 22.0987399,42.6921601 C22.1297438,42.7060993 22.1706847,42.7216316 22.2239477,42.7371639 C22.747833,42.8924865 23.0654236,43.4102286 22.9628724,43.9403169 C22.8778106,44.3788046 22.6468718,45.8651227 23.2446893,46.5804033 C23.4879502,46.8711354 23.8687409,47.0041553 24.4029608,47.0073414 L26.602643,46.791881 C28.5340228,46.602706 30.3079986,47.9408702 30.6454634,49.8358063 C30.8561305,51.0162583 30.963054,52.523286 30.963054,54.3142754 C30.963054,54.6993959 30.6514257,55.011236 30.2674551,55.011236 C29.8830871,55.011236 29.5718563,54.6993959 29.5718563,54.3142754 C29.5718563,52.6053283 29.4720876,51.1811392 29.2757299,50.0807381 C29.0650629,48.8963035 27.9521047,48.05557 26.7377879,48.1794298 L24.4518514,48.4008642 C23.4704608,48.4155999 22.7049046,48.1049546 22.1782369,47.4756989 C21.3379536,46.4704827 21.392409,44.9499139 21.5450433,43.9709831 C21.1507381,43.79973 20.8852181,43.5452398 20.754048,43.2130883 C20.6689862,42.9980262 20.6137358,42.6754331 20.7619977,42.2751786 C20.4376499,42.0198919 20.3195969,41.7319477 20.2806433,41.5176821 C20.249242,41.3460307 20.2480496,41.113445 20.3561655,40.8497948 C20.288593,40.8386434 20.2321502,40.8314747 20.2015438,40.8290851 L20.1399336,40.8203233 C19.3179346,40.6705764 18.9450936,40.2504087 18.7773549,39.9242312 C18.4096812,39.2101454 18.7447611,38.4510558 18.7841121,38.366624 L18.8409525,38.2674565 L20.7480858,35.4899693 C21.5879717,34.2103498 21.4687261,32.87577 21.3780996,32.3616122 L21.3673675,32.3018728 C21.326824,32.0716767 21.2870755,31.8426753 21.259649,31.6104879 C21.0358649,29.7342702 21.153918,27.9257572 21.6110258,26.2359267 C22.1003299,24.4222363 23.1325985,22.7535137 24.5953435,21.4093755 C32.025929,14.5815521 41.8068435,19.5220065 41.9050223,19.5729842 C51.4522157,24.6830987 49.4143098,33.6623397 48.5624994,36.2924695 C48.1526923,37.5585481 47.4841224,38.7871899 46.5186313,40.0496841 C44.5864564,42.575469 44.6015609,45.5473087 44.6019584,45.5771784 L44.6019584,54.3142754 C44.6019584,54.6993959 44.2903301,55.011236 43.9063595,55.011236" id="Fill-9"></path>
                <path d="M34.5445616,30.1746351 L37.4554384,30.1746351 L37.4554384,27.2635672 L35.4476253,27.2635672 C35.2298207,27.6366399 34.9176602,27.9487787 34.5445616,28.1669614 L34.5445616,30.1746351 Z M38.8314607,31.5505618 L33.1685393,31.5505618 L33.1685393,27.2301518 L33.6403184,27.0736893 C33.9760678,26.9624358 34.2434093,26.6951129 34.3550637,26.3589936 L34.5115371,25.8876404 L38.8314607,25.8876404 L38.8314607,31.5505618 Z" id="Fill-11"></path>
                <path d="M41.4401537,27.505618 L40.2677114,27.505618 C39.9214628,27.505618 39.6404494,27.1436533 39.6404494,26.6966292 C39.6404494,26.2496051 39.9214628,25.8876404 40.2677114,25.8876404 L41.4401537,25.8876404 C41.7864024,25.8876404 42.0674157,26.2496051 42.0674157,26.6966292 C42.0674157,27.1436533 41.7864024,27.505618 41.4401537,27.505618" id="Fill-13"></path>
                <path d="M41.4401537,32.3595506 L40.2677114,32.3595506 C39.9214628,32.3595506 39.6404494,31.9975859 39.6404494,31.5505618 C39.6404494,31.1035377 39.9214628,30.741573 40.2677114,30.741573 L41.4401537,30.741573 C41.7864024,30.741573 42.0674157,31.1035377 42.0674157,31.5505618 C42.0674157,31.9975859 41.7864024,32.3595506 41.4401537,32.3595506" id="Fill-15"></path>
                <path d="M30.9232998,27.505618 L29.7508575,27.505618 C29.4046089,27.505618 29.1235955,27.1436533 29.1235955,26.6966292 C29.1235955,26.2496051 29.4046089,25.8876404 29.7508575,25.8876404 L30.9232998,25.8876404 C31.2695484,25.8876404 31.5505618,26.2496051 31.5505618,26.6966292 C31.5505618,27.1436533 31.2695484,27.505618 30.9232998,27.505618" id="Fill-17"></path>
                <path d="M30.9232998,32.3595506 L29.7508575,32.3595506 C29.4046089,32.3595506 29.1235955,31.9975859 29.1235955,31.5505618 C29.1235955,31.1035377 29.4046089,30.741573 29.7508575,30.741573 L30.9232998,30.741573 C31.2695484,30.741573 31.5505618,31.1035377 31.5505618,31.5505618 C31.5505618,31.9975859 31.2695484,32.3595506 30.9232998,32.3595506" id="Fill-19"></path>
                <path d="M33.1685393,25.0786517 C32.7219775,25.0786517 32.3595506,24.7979967 32.3595506,24.4513897 L32.3595506,23.2789474 C32.3595506,22.9323403 32.7219775,22.6516854 33.1685393,22.6516854 C33.6151011,22.6516854 33.9775281,22.9323403 33.9775281,23.2789474 L33.9775281,24.4513897 C33.9775281,24.7979967 33.6151011,25.0786517 33.1685393,25.0786517" id="Fill-21"></path>
                <path d="M38.0224719,25.0786517 C37.5759101,25.0786517 37.2134831,24.7979967 37.2134831,24.4513897 L37.2134831,23.2789474 C37.2134831,22.9323403 37.5759101,22.6516854 38.0224719,22.6516854 C38.4690337,22.6516854 38.8314607,22.9323403 38.8314607,23.2789474 L38.8314607,24.4513897 C38.8314607,24.7979967 38.4690337,25.0786517 38.0224719,25.0786517" id="Fill-23"></path>
                <path d="M33.1685393,35.5955056 C32.7219775,35.5955056 32.3595506,35.3148507 32.3595506,34.9682436 L32.3595506,33.7958013 C32.3595506,33.4495527 32.7219775,33.1685393 33.1685393,33.1685393 C33.6151011,33.1685393 33.9775281,33.4495527 33.9775281,33.7958013 L33.9775281,34.9682436 C33.9775281,35.3148507 33.6151011,35.5955056 33.1685393,35.5955056" id="Fill-25"></path>
                <path d="M38.0224719,35.5955056 C37.5759101,35.5955056 37.2134831,35.3148507 37.2134831,34.9682436 L37.2134831,33.7958013 C37.2134831,33.4495527 37.5759101,33.1685393 38.0224719,33.1685393 C38.4690337,33.1685393 38.8314607,33.4495527 38.8314607,33.7958013 L38.8314607,34.9682436 C38.8314607,35.3148507 38.4690337,35.5955056 38.0224719,35.5955056" id="Fill-27"></path>
                <path d="M36.93097,41.2584269 C33.4359777,41.2588222 29.9304076,39.7702522 27.9970159,37.8204074 C25.8873272,35.6922979 24.8401223,32.7507319 25.1245483,29.7494808 C25.1605913,29.3688401 25.4939887,29.091759 25.8720481,29.1265423 C26.2489321,29.1625115 26.5255227,29.5004635 26.4894798,29.8807089 C26.2442309,32.4696981 27.1468721,35.0069074 28.9662583,36.8421252 C31.3396092,39.2358532 36.4698552,40.7825272 40.3241018,39.2690555 C40.676696,39.1303173 41.0743439,39.307001 41.2114639,39.66274 C41.3489757,40.0188742 41.1742456,40.4196735 40.8212597,40.5584117 C39.5840457,41.0437977 38.2578996,41.2584269 36.93097,41.2584269" id="Fill-29"></path>
                <g id="Group-33" transform="translate(34.786517, 0.000000)">
                    <path d="M0.909303371,13.750137 C0.518561798,13.750137 0.201438202,13.442467 0.201438202,13.0624966 L0.201438202,0.824854189 C0.201438202,0.445276661 0.518561798,0.13721374 0.909303371,0.13721374 C1.30004494,0.13721374 1.61716854,0.445276661 1.61716854,0.824854189 L1.61716854,13.0624966 C1.61716854,13.442467 1.30004494,13.750137 0.909303371,13.750137" id="Fill-31"></path>
                </g>
                <path d="M35.5955056,72 C35.1489438,72 34.7865169,71.6891684 34.7865169,71.3052934 L34.7865169,58.9418976 C34.7865169,58.5584196 35.1489438,58.247191 35.5955056,58.247191 C36.0420674,58.247191 36.4044944,58.5584196 36.4044944,58.9418976 L36.4044944,71.3052934 C36.4044944,71.6891684 36.0420674,72 35.5955056,72" id="Fill-34"></path>
            </g>
        </g>
    </g>
</svg>