<?xml version="1.0" encoding="UTF-8" standalone="no"?>
<svg width="74px" height="62px" viewBox="0 0 74 62" version="1.1" xmlns="http://www.w3.org/2000/svg" xmlns:xlink="http://www.w3.org/1999/xlink">
    <!-- Generator: Sketch 48 (47235) - http://www.bohemiancoding.com/sketch -->
    <title>Page 1</title>
    <desc>Created with Sketch.</desc>
    <defs></defs>
    <g id="解決方案-決策大腦" stroke="none" stroke-width="1" fill="none" fill-rule="evenodd" transform="translate(-1013.000000, -2470.000000)">
        <g id="03-copy" transform="translate(0.000000, 2288.000000)" fill="#0F9696">
            <g id="Page-1" transform="translate(1013.000000, 182.000000)">
                <path d="M11.2262342,11.5095872 C8.72824345,11.5095872 6.69606006,13.5413759 6.69606006,16.0397614 C6.69606006,18.5373574 8.72824345,20.569146 11.2262342,20.569146 C13.724225,20.569146 15.7564084,18.5373574 15.7564084,16.0397614 C15.7564084,13.5413759 13.724225,11.5095872 11.2262342,11.5095872 M11.2262342,21.9507781 C7.96637206,21.9507781 5.314428,19.2988341 5.314428,16.0397614 C5.314428,12.7798992 7.96637206,10.1279552 11.2262342,10.1279552 C14.4860964,10.1279552 17.1380405,12.7798992 17.1380405,16.0397614 C17.1380405,19.2988341 14.4860964,21.9507781 11.2262342,21.9507781" id="Fill-1"></path>
                <path d="M11.2262342,61.3385424 C10.844509,61.3385424 10.5354182,61.0294516 10.5354182,60.6477264 L10.5354182,42.6928255 C10.5354182,42.3111003 10.844509,42.0020095 11.2262342,42.0020095 C11.6079594,42.0020095 11.9170503,42.3111003 11.9170503,42.6928255 L11.9170503,60.6477264 C11.9170503,61.0294516 11.6079594,61.3385424 11.2262342,61.3385424" id="Fill-3"></path>
                <path d="M18.4620782,61.3385424 L3.99007445,61.3385424 L3.99007445,29.869701 C3.99007445,29.4879758 4.29916528,29.1788849 4.68089048,29.1788849 C5.06261569,29.1788849 5.37170652,29.4879758 5.37170652,29.869701 L5.37170652,59.9569103 L17.0804461,59.9569103 L17.0804461,29.869701 C17.0804461,29.4879758 17.389537,29.1788849 17.7712622,29.1788849 C18.1529874,29.1788849 18.4620782,29.4879758 18.4620782,29.869701 L18.4620782,61.3385424 Z" id="Fill-5"></path>
                <path d="M73.3766701,55.4180516 L17.703697,55.4180516 C17.3592628,55.4180516 17.0803672,55.1089608 17.0803672,54.7272356 C17.0803672,54.3455104 17.3592628,54.0364196 17.703697,54.0364196 L73.3766701,54.0364196 C73.7211044,54.0364196 74,54.3455104 74,54.7272356 C74,55.1089608 73.7211044,55.4180516 73.3766701,55.4180516" id="Fill-7"></path>
                <path d="M11.2262342,11.5095872 C10.844509,11.5095872 10.5354182,11.2004964 10.5354182,10.8187712 L10.5354182,0.691013408 C10.5354182,0.309288206 10.844509,0.000197376009 11.2262342,0.000197376009 C11.6079594,0.000197376009 11.9170503,0.309288206 11.9170503,0.691013408 L11.9170503,10.8187712 C11.9170503,11.2004964 11.6079594,11.5095872 11.2262342,11.5095872" id="Fill-9"></path>
                <path d="M72.3644069,17.2288729 C72.0482105,17.2288729 71.7631996,17.0101803 71.6909599,16.6888521 L70.3649879,10.7573083 L64.0098752,10.8417852 L64.0007959,10.8417852 C63.6230182,10.8417852 63.3147169,10.5386157 63.3099798,10.1604433 C63.3048481,9.77871805 63.6099914,9.46528495 63.9913218,9.46015317 L71.4679251,9.36107042 L73.0394328,16.3872616 C73.1227255,16.7599075 72.8882428,17.1290006 72.5159917,17.2122933 C72.4650687,17.2233464 72.4145404,17.2288729 72.3644069,17.2288729" id="Fill-11"></path>
                <g id="Group-15" transform="translate(0.000000, 22.258093)">
                    <path d="M0.0601996828,24.0725307 L0.0278300173,23.4156634 C-0.0100661765,22.6439232 -0.0021711361,20.3733096 0.0100661765,16.9369933 C0.0179612168,14.7449353 0.0270405133,12.0890437 0.0270405133,9.07669106 C0.0270405133,0.326223068 5.42606387,0.326223068 8.02037413,0.326223068 C8.40209934,0.326223068 8.71119017,0.635313899 8.71119017,1.0170391 C8.71119017,1.3987643 8.40209934,1.70785513 8.02037413,1.70785513 C4.67524553,1.70785513 1.40867258,2.27669279 1.40867258,9.07669106 C1.40867258,12.0906227 1.39959328,14.7488828 1.39169824,16.9417303 C1.38222419,19.6426236 1.37511866,21.6187522 1.39051399,22.6908987 L4.93104484,22.6908987 C5.31277004,22.6908987 4.53362558,22.9999895 4.53362558,23.3817147 C4.53362558,23.7634399 5.31277004,24.0725307 4.93104484,24.0725307 L0.0601996828,24.0725307 Z" id="Fill-13"></path>
                </g>
                <path d="M22.3922688,46.3306233 L17.5210289,46.3306233 C17.1393037,46.3306233 17.9184481,46.0215325 17.9184481,45.6398073 C17.9184481,45.2580821 17.1393037,44.9489912 17.5210289,44.9489912 L21.0619545,44.9489912 C21.0773498,43.8768448 21.0702443,41.9007161 21.0607702,39.1998228 C21.0528752,37.0069754 21.0437959,34.3487153 21.0437959,31.3347836 C21.0437959,24.5347854 17.7776177,23.9659477 14.4316996,23.9659477 C14.0499744,23.9659477 13.7408835,23.6568569 13.7408835,23.2751317 C13.7408835,22.8934065 14.0499744,22.5843156 14.4316996,22.5843156 C17.0264046,22.5843156 22.4254279,22.5843156 22.4254279,31.3347836 C22.4254279,34.3471363 22.4345072,37.0030279 22.4424023,39.1950858 C22.4546396,42.6314021 22.4625346,44.9020157 22.4246384,45.6737559 L22.3922688,46.3306233 Z" id="Fill-16"></path>
                <path d="M21.7647059,39.2942027 C21.5748302,39.2942027 21.8464196,39.2164366 21.7098354,39.0636675 C21.4556151,38.7790513 21.4800897,38.3424556 21.7647059,38.0882353 L29.9417496,31.0111264 L37.4140106,36.3647533 L47.3345236,22.955422 L55.0420567,29.4388292 L70.3710671,9.72688711 C70.6055498,9.42569132 71.0393823,9.37200505 71.3405781,9.60569824 C71.6417738,9.84018094 71.6958549,10.2740134 71.4617669,10.5752092 L55.2508805,31.4200895 L47.5705853,24.9591832 L37.7156011,38.2796954 L30.0364901,32.7792207 L22.6852676,39.1185381 C22.5534204,39.2365689 22.3892036,39.2942027 22.2253815,39.2942027" id="Fill-18"></path>
                <path d="M38.2800176,55.4180516 C37.8982924,55.4180516 37.5892015,55.1089608 37.5892015,54.7272356 L37.5892015,44.1099853 C37.5892015,43.7282601 37.8982924,43.4191693 38.2800176,43.4191693 C38.6617428,43.4191693 38.9708336,43.7282601 38.9708336,44.1099853 L38.9708336,54.7272356 C38.9708336,55.1089608 38.6617428,55.4180516 38.2800176,55.4180516" id="Fill-22"></path>
                <path d="M54.7427781,55.4180516 C54.3610529,55.4180516 54.0519621,55.1089608 54.0519621,54.7272356 L54.0519621,37.1449807 C54.0519621,36.7632555 54.3610529,36.4541646 54.7427781,36.4541646 C55.1245033,36.4541646 55.4335942,36.7632555 55.4335942,37.1449807 L55.4335942,54.7272356 C55.4335942,55.1089608 55.1245033,55.4180516 54.7427781,55.4180516" id="Fill-24"></path>
                <path d="M29.9057877,55.4180516 C29.5240625,55.4180516 29.2149717,55.1089608 29.2149717,54.7272356 L29.2149717,38.8329403 C29.2149717,38.4516099 29.5240625,38.1421243 29.9057877,38.1421243 C30.2875129,38.1421243 30.5966037,38.4516099 30.5966037,38.8329403 L30.5966037,54.7272356 C30.5966037,55.1089608 30.2875129,55.4180516 29.9057877,55.4180516" id="Fill-26"></path>
                <path d="M46.4842277,55.4180516 C46.1025025,55.4180516 45.7934117,55.1089608 45.7934117,54.7272356 L45.7934117,33.97828 C45.7934117,33.5969495 46.1025025,33.287464 46.4842277,33.287464 C46.8659529,33.287464 47.1750437,33.5969495 47.1750437,33.97828 L47.1750437,54.7272356 C47.1750437,55.1089608 46.8659529,55.4180516 46.4842277,55.4180516" id="Fill-28"></path>
                <path d="M63.5614593,55.4180516 C63.1797341,55.4180516 62.8706433,55.1089608 62.8706433,54.7272356 L62.8706433,29.869701 C62.8706433,29.4879758 63.1797341,29.1788849 63.5614593,29.1788849 C63.9431845,29.1788849 64.2522753,29.4879758 64.2522753,29.869701 L64.2522753,54.7272356 C64.2522753,55.1089608 63.9431845,55.4180516 63.5614593,55.4180516" id="Fill-30"></path>
                <path d="M27.6138511,8.5277489 L17.3637202,8.5277489 C16.981995,8.5277489 16.6729042,8.21865807 16.6729042,7.83693287 C16.6729042,7.45520767 16.981995,7.14611684 17.3637202,7.14611684 L27.6138511,7.14611684 C27.9955763,7.14611684 28.3046671,7.45520767 28.3046671,7.83693287 C28.3046671,8.21865807 27.9955763,8.5277489 27.6138511,8.5277489" id="Fill-32"></path>
                <path d="M22.4890225,13.6568014 C22.1072973,13.6568014 21.7982065,13.3477105 21.7982065,12.9659853 L21.7982065,2.95231087 C21.7982065,2.57058567 22.1072973,2.26149484 22.4890225,2.26149484 C22.8707477,2.26149484 23.1798385,2.57058567 23.1798385,2.95231087 L23.1798385,12.9659853 C23.1798385,13.3477105 22.8707477,13.6568014 22.4890225,13.6568014" id="Fill-34"></path>
            </g>
        </g>
    </g>
</svg>