<?xml version="1.0" encoding="UTF-8"?>
<svg width="299px" height="303px" viewBox="0 0 299 303" version="1.1" xmlns="http://www.w3.org/2000/svg" xmlns:xlink="http://www.w3.org/1999/xlink">
    <!-- Generator: Sketch 50.2 (55047) - http://www.bohemiancoding.com/sketch -->
    <title>五環圖</title>
    <desc>Created with Sketch.</desc>
    <defs>
        <polygon id="path-1" points="0 41 44 41 44 0 0 0"></polygon>
        <linearGradient x1="150.109231%" y1="0%" x2="150.109231%" y2="100%" id="linearGradient-3">
            <stop stop-color="#38E0E0" offset="0%"></stop>
            <stop stop-color="#22C7C7" offset="100%"></stop>
        </linearGradient>
    </defs>
    <g id="design" stroke="none" stroke-width="1" fill="none" fill-rule="evenodd">
        <g id="解決方案-決策大腦-copy" transform="translate(-803.000000, -866.000000)">
            <g id="01" transform="translate(0.000000, 800.000000)">
                <g id="五環圖" transform="translate(792.000000, 66.000000)">
                    <g id="Group-42" transform="translate(12.000000, 0.941000)">
                        <path d="M278.648582,79 C290.468938,100.174779 297.204946,124.574498 297.204946,150.547497 C297.204946,175.245817 291.11388,198.521493 280.351973,218.9543 M65.0746062,276.072449 C88.4840545,291.814055 116.669281,301 147,301 C177.442539,301 205.723736,291.746198 229.184108,275.898079 M17.2848016,220.220473 C6.25414803,199.592811 0,176.026773 0,151 C0,125.926537 6.27750519,102.319265 17.3465876,81.6641096 M232.703311,29.4542687 C209.141515,13.3910454 180.667456,4 150,4 C119.485058,4 91.1417505,13.2978716 67.6485821,29.2151099" id="Oval-3" stroke="#4BC8C8"></path>
                        <g id="money-bag" transform="translate(241.000000, 7.000000)" fill="#0F9696" fill-rule="nonzero">
                            <path d="M37.4536175,25.1351003 C36.4371866,22.8022152 34.9168192,20.3747595 32.9349482,17.9203215 C32.7110161,17.6429381 32.3012167,17.5969713 32.0198751,17.8179287 C31.7384445,18.0387982 31.6919999,18.4427443 31.9159321,18.7202155 C33.8256848,21.0852687 35.2861468,23.4141108 36.2568463,25.6420544 C37.4326684,28.3407409 37.8922108,30.9052183 37.6226364,33.2642949 C37.3437909,35.7045826 36.2487341,37.7658852 34.3676862,39.3910737 C32.8322532,40.7177851 30.769617,41.7677285 28.2370976,42.5118997 C23.856603,43.7990603 19.5591024,43.714773 19.5161345,43.7137183 C19.5057045,43.7135426 19.4950963,43.7135426 19.4846663,43.7137183 C19.4413419,43.7141578 15.1437521,43.7988845 10.7634358,42.5118997 C8.23091643,41.7677285 6.16828016,40.7177851 4.63284723,39.3910737 C2.75188841,37.7659731 1.65683162,35.7045826 1.37798616,33.2642949 C0.947415966,29.4958017 2.3534104,25.28179 5.55692397,20.7394184 C7.97872531,17.3054375 10.9266603,14.4335182 12.8004875,12.7597261 L26.200135,12.7597261 C27.042555,13.5118075 28.1257555,14.5263309 29.2731404,15.7248096 C29.5200719,15.982857 29.9322783,15.9943707 30.1938296,15.7510011 C30.4553809,15.5075436 30.4672372,15.1011366 30.2203948,14.8433529 C29.3112944,13.8937809 28.4416853,13.0573243 27.6948287,12.3701941 C28.1974281,12.0052716 28.5243227,11.4180732 28.5243227,10.7568708 C28.5243227,9.6525231 27.6129936,8.75401559 26.4928871,8.75401559 L26.3068416,8.75401559 C27.0396132,7.69633787 27.9931078,6.23972387 28.697977,4.87513153 C29.6701029,2.99303823 29.9546537,1.73444218 29.5933491,0.91415747 C29.3788663,0.427242515 28.9373313,0.112066156 28.3500442,0.0266363122 C27.4784739,-0.100365874 26.3284147,0.244693353 24.8725882,0.68159845 C23.228755,1.17475365 21.365536,1.73382694 19.5002667,1.73382694 C17.6349082,1.73382694 15.7717784,1.17475365 14.1279452,0.68159845 C12.6721187,0.244781243 11.5219704,-0.100277983 10.6503109,0.0266363122 C10.0630238,0.112066156 9.62148878,0.427242515 9.40709513,0.91415747 C9.04579058,1.73444218 9.33034132,2.99303823 10.3024672,4.87513153 C11.0074256,6.23981176 11.9609202,7.69642576 12.6936027,8.75401559 L12.5075571,8.75401559 C11.3874506,8.75401559 10.4761216,9.6525231 10.4761216,10.7568708 C10.4761216,11.4178095 10.8026596,12.0048321 11.3049024,12.3697546 C6.79327553,16.5176724 -0.88513714,24.9311058 0.0836012268,33.4079963 C0.649671773,38.3616089 4.22402841,41.9381487 10.420406,43.750984 C14.9040413,45.0626661 19.1603569,45.0045703 19.5002667,44.9977148 C19.539223,44.9985059 19.6294378,45 19.7656513,45 C20.8184533,45 24.6103237,44.9123729 28.5800383,43.750984 C34.7764158,41.9382366 38.3507725,38.3616968 38.9169322,33.4079963 C39.2120911,30.8246225 38.7198326,28.0412091 37.4536175,25.1351003 Z M10.6017268,1.42559395 C10.6192884,1.38560365 10.6459428,1.32522268 10.8404571,1.29692184 C11.4228411,1.2124588 12.5525753,1.551102 13.7486334,1.90996008 C15.3937146,2.40355473 17.4411071,3.01782344 19.5001775,3.01782344 C21.5593372,3.01782344 23.6066405,2.40355473 25.2517217,1.90996008 C26.4477798,1.551102 27.5779597,1.21263458 28.1598089,1.29692184 C28.3543232,1.32522268 28.3808884,1.38560365 28.3985391,1.42559395 C28.4563942,1.5568149 28.8538916,2.86436612 25.059436,8.27632917 C24.9521055,8.42943492 24.8613559,8.58939615 24.7867416,8.7539277 L14.2137027,8.7539277 C14.1390883,8.58939615 14.0484279,8.42943492 13.9410082,8.27632917 C10.1464635,2.86445401 10.5440501,1.55690279 10.6017268,1.42559395 Z M12.5076463,10.0381 L26.4928871,10.0381 C26.8948418,10.0381 27.2218255,10.3604834 27.2218255,10.7567829 C27.2218255,11.1530825 26.8948418,11.4754659 26.4928871,11.4754659 L12.5076463,11.4754659 C12.1056916,11.4754659 11.7787079,11.1530825 11.7787079,10.7567829 C11.7787079,10.3604834 12.1056025,10.0381 12.5076463,10.0381 Z" id="Shape"></path>
                            <path d="M26.898067,21.0761116 C24.8944869,19.092436 22.2305469,18 19.3971418,18 C16.5636475,18 13.8997967,19.092436 11.8962166,21.0761116 C10.4320139,22.5257683 9.43531316,24.3483808 9.01388278,26.3469075 C8.94031103,26.6960839 9.16647272,27.0381884 9.51906352,27.1110293 C9.87156504,27.1839585 10.2172808,26.9600436 10.2908526,26.6107788 C10.6602292,24.8588856 11.5343401,23.2608068 12.8186313,21.9892742 C16.4460577,18.3980611 22.3480474,18.3979727 25.9754737,21.9892742 C29.6028108,25.5805758 29.6028108,31.424021 25.9754737,35.0154109 C22.3483152,38.6068008 16.4460577,38.6068892 12.8188099,35.0155877 C11.5655902,33.774818 10.7004972,32.2181984 10.317192,30.5141291 C10.2388881,30.1660135 9.8904937,29.9464301 9.53870647,30.024133 C9.18709781,30.101659 8.96548971,30.446769 9.04379362,30.7948846 C9.48111693,32.7388691 10.4674605,34.5141881 11.8963059,35.9288387 C13.9642613,37.9762501 16.6807908,39 19.3971418,39 C22.1136714,39 24.8300224,37.9763385 26.898067,35.9288387 C31.0339777,31.8339276 31.0339777,25.1710228 26.898067,21.0761116 Z" id="Shape"></path>
                            <path d="M20.1495185,27.9607527 L20.0950204,27.9389945 L20.0950204,24.2685403 L20.1842672,24.2754018 C20.8852422,24.3296618 21.3171434,24.5637656 21.6324655,24.7346712 C21.8182089,24.835427 21.9649536,24.9149663 22.093699,24.9149663 C22.5001012,24.9149663 22.7126769,24.3320092 22.7126769,24.0195398 C22.7126769,23.5944876 22.25236,23.3268888 21.8661238,23.1771997 C21.4108068,23.0006965 20.7789127,22.8838703 20.1759342,22.86464 L20.0950204,22.8621121 L20.0950204,22.3075038 C20.0950204,22.1551964 19.8954442,22 19.6995345,22 C19.4651262,22 19.3199648,22.1596203 19.3199648,22.3075038 L19.3199648,22.8902804 L19.2453008,22.898767 C18.3559159,23.0002451 16.2872397,23.5079062 16.2872397,26.0255372 C16.2872397,28.1830294 17.8690166,28.7923492 19.2645501,29.3299843 L19.3199648,29.3513813 L19.3199648,33.5766244 L19.2301346,33.5690407 C18.1837553,33.4802022 17.6237753,32.9640545 17.2149566,32.5872134 C16.9927145,32.382271 16.8171375,32.2204839 16.6508934,32.2204839 C16.3156554,32.2204839 16,32.7248949 16,33.1159104 C16,33.8881007 17.2613716,35.0317151 19.2379677,35.0662935 L19.3199648,35.067738 L19.3199648,35.6925865 C19.3199648,35.8403797 19.4651262,36 19.6995345,36 C19.8953609,36 20.0950204,35.8448939 20.0950204,35.6926768 L20.0950204,35.0261176 L20.1668512,35.0152836 C21.9672869,34.7443444 23,33.4784869 23,31.5422782 C23.0000833,29.285565 21.591967,28.5355844 20.1495185,27.9607527 Z M19.4157947,27.6780767 L19.3030487,27.6319421 C18.4352464,27.27713 17.7168554,26.898393 17.7168554,25.8527356 C17.7168554,24.9859288 18.2719189,24.4527175 19.3221314,24.3105218 L19.4157947,24.2978822 L19.4157947,27.6780767 Z M20.0977703,33.5331983 L19.9992738,33.5529703 L19.9992738,29.658524 L20.1154364,29.7125132 C20.8712427,30.0634431 21.5706344,30.5509712 21.5706344,31.7323239 C21.5706344,32.7030464 21.0474864,33.342611 20.0977703,33.5331983 Z" id="Shape"></path>
                        </g>
                        <g id="Group-5" transform="translate(14.000000, 0.000000)" stroke="#0F9696" stroke-width="1.5">
                            <g id="Page-1" transform="translate(0.000000, 18.000000)">
                                <path d="M12.5856,3.74217143 C12.5856,5.49302857 11.1974824,6.91245714 9.48412941,6.91245714 C7.77301176,6.91245714 6.38377647,5.49302857 6.38377647,3.74217143 C6.38377647,1.99131429 7.77301176,0.571885714 9.48412941,0.571885714 C11.1974824,0.571885714 12.5856,1.99131429 12.5856,3.74217143 Z" id="Stroke-1"></path>
                                <path d="M9.48468824,9.65794286 L9.48468824,15.1025143" id="Stroke-3"></path>
                                <polyline id="Stroke-5" points="4.51976471 16.1032 4.51976471 23.6952 14.4500588 23.6952 14.4500588 16.1032"></polyline>
                                <path d="M0.558823529,23.6947429 L0.558823529,13.8856 C0.558823529,11.5507429 1.77929412,9.65817143 4.06264706,9.65817143 L14.9082941,9.65817143" id="Stroke-7"></path>
                                <path d="M14.9081824,9.65794286 C17.1915353,9.65794286 18.4120059,11.5505143 18.4120059,13.8853714 L18.4120059,23.6945143" id="Stroke-9"></path>
                            </g>
                            <g id="Page-1-Copy-3" transform="translate(22.000000, 18.000000)">
                                <path d="M12.5856,3.74217143 C12.5856,5.49302857 11.1974824,6.91245714 9.48412941,6.91245714 C7.77301176,6.91245714 6.38377647,5.49302857 6.38377647,3.74217143 C6.38377647,1.99131429 7.77301176,0.571885714 9.48412941,0.571885714 C11.1974824,0.571885714 12.5856,1.99131429 12.5856,3.74217143 Z" id="Stroke-1"></path>
                                <path d="M9.48468824,9.65794286 L9.48468824,15.1025143" id="Stroke-3"></path>
                                <polyline id="Stroke-5" points="4.51976471 16.1032 4.51976471 23.6952 14.4500588 23.6952 14.4500588 16.1032"></polyline>
                                <path d="M0.558823529,23.6947429 L0.558823529,13.8856 C0.558823529,11.5507429 1.77929412,9.65817143 4.06264706,9.65817143 L14.9082941,9.65817143" id="Stroke-7"></path>
                                <path d="M14.9081824,9.65794286 C17.1915353,9.65794286 18.4120059,11.5505143 18.4120059,13.8853714 L18.4120059,23.6945143" id="Stroke-9"></path>
                            </g>
                            <g id="Page-1-Copy-4" transform="translate(11.000000, 0.000000)">
                                <path d="M12.5856,3.71098667 C12.5856,5.44725333 11.1974824,6.85485333 9.48412941,6.85485333 C7.77301176,6.85485333 6.38377647,5.44725333 6.38377647,3.71098667 C6.38377647,1.97472 7.77301176,0.56712 9.48412941,0.56712 C11.1974824,0.56712 12.5856,1.97472 12.5856,3.71098667 Z" id="Stroke-1"></path>
                                <path d="M9.48468824,9.57746 L9.48468824,14.97666" id="Stroke-3"></path>
                                <path d="M0.558823529,16.6972867 L0.558823529,13.7698867 C0.558823529,11.4544867 1.77929412,9.57768667 4.06264706,9.57768667 L14.9082941,9.57768667" id="Stroke-7"></path>
                                <path d="M14.9081824,9.57746 C17.1915353,9.57746 18.4120059,11.45426 18.4120059,13.76966 L18.4120059,16.69706" id="Stroke-9"></path>
                            </g>
                        </g>
                    </g>
                    <g id="Page-1" transform="translate(24.000000, 213.000000)">
                        <mask id="mask-2" fill="white">
                            <use xlink:href="#path-1"></use>
                        </mask>
                        <g id="Clip-4"></g>
                        <path d="M24.7079282,38.8979181 L30.413706,38.8979181 L30.413706,21.3249637 L24.7079282,21.3249637 L24.7079282,38.8979181 Z M13.5851461,38.8979181 L19.2910879,38.8979181 L19.2910879,26.2310209 L13.5851461,26.2310209 L13.5851461,38.8979181 Z M2.80984343,38.8979181 L8.5157852,38.8979181 L8.5157852,31.2958907 L2.80984343,31.2958907 L2.80984343,38.8979181 Z M42.4351132,38.8979181 L42.4351132,15.551201 C42.4351132,15.2473441 42.1556867,15 41.8121429,15 L34.8600967,15 C34.5172089,15 34.2384383,15.2473441 34.2384383,15.551201 L34.2384383,24.0185324 C34.2384383,24.3222293 34.5172089,24.5692531 34.8600967,24.5692531 C35.2044603,24.5692531 35.4845428,24.3222293 35.4845428,24.0185324 L35.4845428,16.1025621 L41.1891727,16.1025621 L41.1891727,38.8979181 L35.4845428,38.8979181 L35.4845428,27.7721681 C35.4845428,27.4681511 35.2044603,27.220807 34.8600967,27.220807 C34.5172089,27.220807 34.2384383,27.4681511 34.2384383,27.7721681 L34.2384383,38.8979181 L31.6598105,38.8979181 L31.6598105,20.7737626 C31.6598105,20.4702259 31.3803839,20.223202 31.0368402,20.223202 L24.0861058,20.223202 C23.7419061,20.223202 23.4618237,20.4702259 23.4618237,20.7737626 L23.4618237,38.8979181 L20.5371924,38.8979181 L20.5371924,25.6798199 C20.5371924,25.3761231 20.2577659,25.1290992 19.9140582,25.1290992 L12.9620119,25.1290992 C12.6184682,25.1290992 12.3390417,25.3761231 12.3390417,25.6798199 L12.3390417,38.8979181 L9.76172569,38.8979181 L9.76172569,30.7445296 C9.76172569,30.4405126 9.48229919,30.1931685 9.13875545,30.1931685 L2.1867092,30.1931685 C1.84316546,30.1931685 1.56373895,30.4405126 1.56373895,30.7445296 L1.56373895,38.8979181 L0.623134231,38.8979181 C0.279426508,38.8979181 0,39.1452622 0,39.4494394 C0,39.7529761 0.279426508,40 0.623134231,40 L43.3770298,40 C43.7205735,40 44,39.7529761 44,39.4494394 C44,39.1452622 43.7205735,38.8979181 43.3770298,38.8979181 L42.4351132,38.8979181 Z" id="Fill-3" fill="#138F8F" mask="url(#mask-2)"></path>
                        <path d="M37.7055734,1.10775905 L37.9752601,1.05892916 L37.9752601,2.13919177 L37.8128352,2.1907081 C36.9478457,2.46504044 36.366487,3.21803215 36.366487,4.06441696 C36.366487,5.15637346 37.3235683,6.04479306 38.5000766,6.04479306 C39.0976779,6.04479306 39.5840333,6.46830151 39.5840333,6.98883765 C39.5840333,7.50968984 39.0976779,7.93335632 38.5000766,7.93335632 C37.901556,7.93335632 37.4147408,7.50968984 37.4147408,6.98883765 C37.4147408,6.70344352 37.1792247,6.47114597 36.8900776,6.47114597 C36.6013902,6.47114597 36.366487,6.70344352 36.366487,6.98883765 C36.366487,7.83553851 36.9478457,8.58868824 37.8128352,8.86302059 L37.9752601,8.91437889 L37.9752601,9.94043874 L37.7055734,9.89160884 C35.5865407,9.50744875 34.0484071,7.66044621 34.0484071,5.50007901 C34.0484071,3.33923774 35.5865407,1.49191915 37.7055734,1.10775905 M39.5840333,4.06441696 C39.5840333,4.35028516 39.8193963,4.58274074 40.1088498,4.58274074 C40.3973839,4.58274074 40.6324404,4.35028516 40.6324404,4.06441696 C40.6324404,3.21803215 40.0510817,2.46504044 39.185939,2.1907081 L39.0236672,2.13919177 L39.0236672,1.05892916 L39.2932007,1.10775905 C41.4129996,1.49207717 42.9515929,3.33939577 42.9515929,5.50007901 C42.9515929,7.66028818 41.4129996,9.50729072 39.2932007,9.89160884 L39.0236672,9.94043874 L39.0236672,8.91437889 L39.185939,8.86302059 C40.0510817,8.58868824 40.6324404,7.83553851 40.6324404,6.98883765 C40.6324404,5.8971972 39.6756655,5.00893563 38.5000766,5.00893563 C37.901556,5.00893563 37.4147408,4.58526915 37.4147408,4.06441696 C37.4147408,3.54388082 37.901556,3.12037237 38.5000766,3.12037237 C39.0976779,3.12037237 39.5840333,3.54388082 39.5840333,4.06441696 M38.5000766,11 C41.5328263,11 44,8.5327472 44,5.50007901 C44,2.46741082 41.5328263,0 38.5000766,0 C35.467327,0 33,2.46741082 33,5.50007901 C33,8.5327472 35.467327,11 38.5000766,11" id="Fill-5" fill="#138F8F" mask="url(#mask-2)"></path>
                        <path d="M4.05098165,24.8303153 L12.9190101,16.2163908 L17.7365058,20.8943811 C17.9766055,21.1282726 18.3681603,21.128111 18.6092288,20.8942196 L28.7728594,11.0218364 L28.7728594,12.8425714 C28.7728594,13.1669181 29.0481587,13.4308536 29.3864297,13.4308536 C29.7248622,13.4308536 30,13.1669181 30,12.8425714 L30,9.5889283 C30,9.26425856 29.7248622,9 29.3864297,9 L26.0366588,9 C25.6983878,9 25.4230885,9.26425856 25.4230885,9.5889283 C25.4230885,9.913275 25.6983878,10.177372 26.0366588,10.177372 L27.9178976,10.177372 L18.1727866,19.6433527 L13.3552909,14.9648778 C13.2351603,14.8484167 13.0770852,14.7901053 12.9190101,14.7901053 C12.760935,14.7901053 12.6028599,14.8484167 12.4825679,14.9650393 L3.17664397,24.0026497 C3.06281053,24.1136189 2.99983884,24.2607703 3.00000031,24.4168056 C3.00000031,24.5726793 3.06281053,24.7195076 3.17680544,24.8304768 C3.40947775,25.0558073 3.81572588,25.0572611 4.05098165,24.8303153" id="Fill-6" fill="#138F8F" mask="url(#mask-2)"></path>
                    </g>
                    <g id="Group-93" transform="translate(0.178986, 43.867250)">
                        <path d="M228.706191,106.995072 C228.706191,144.461721 198.330543,174.83737 160.860703,174.83737 C123.392458,174.83737 93.0168098,144.461721 93.0168098,106.995072 C93.0168098,69.5252317 123.392458,39.1511788 160.860703,39.1511788 C198.330543,39.1511788 228.706191,69.5252317 228.706191,106.995072 Z" id="Stroke-57" stroke="#009190" stroke-width="0.9"></path>
                        <path d="M216.051703,106.995085 C216.051703,137.473909 191.342914,162.18432 160.860846,162.18432 C130.3804,162.18432 105.671611,137.473909 105.671611,106.995085 C105.671611,76.5146396 130.3804,51.8042282 160.860846,51.8042282 C191.342914,51.8042282 216.051703,76.5146396 216.051703,106.995085 Z" id="Stroke-59" stroke="#009190" stroke-width="0.75"></path>
                        <g id="outer-circles" transform="translate(56.000000, 2.000000)">
                            <path d="M133.759532,205.881334 C133.759532,209.130101 131.128533,211.762668 127.879766,211.762668 C124.634135,211.762668 122,209.130101 122,205.881334 C122,202.637271 124.634135,200 127.879766,200 C131.128533,200 133.759532,202.637271 133.759532,205.881334" id="Fill-43" fill="#009190"></path>
                            <path d="M160.07799,14.036334 C160.07799,17.2851006 157.446991,19.9176678 154.198224,19.9176678 C150.949458,19.9176678 148.318458,17.2851006 148.318458,14.036334 C148.318458,10.7922711 150.949458,8.15500012 154.198224,8.15500012 C157.446991,8.15500012 160.07799,10.7922711 160.07799,14.036334" id="Fill-45" fill="#009190"></path>
                            <path d="M14.387334,144.318814 C14.387334,147.566013 11.7531989,150.19858 8.50756811,150.19858 C5.25880146,150.19858 2.62466633,147.566013 2.62466633,144.318814 C2.62466633,141.073183 5.25880146,138.43748 8.50756811,138.43748 C11.7531989,138.43748 14.387334,141.073183 14.387334,144.318814" id="Fill-47" fill="#009190"></path>
                            <path d="M212.432367,133.107709 C212.432367,136.356475 209.798231,138.989042 206.549465,138.989042 C203.303834,138.989042 200.669699,136.356475 200.669699,133.107709 C200.669699,129.863646 203.303834,127.226375 206.549465,127.226375 C209.798231,127.226375 212.432367,129.863646 212.432367,133.107709" id="Fill-49" fill="#009190"></path>
                            <path d="M32.0597036,35.7990017 C32.0597036,39.0477683 29.4287044,41.6803355 26.1799377,41.6803355 C22.9311711,41.6803355 20.2970359,39.0477683 20.2970359,35.7990017 C20.2970359,32.5549388 22.9311711,29.9176678 26.1799377,29.9176678 C29.4287044,29.9176678 32.0597036,32.5549388 32.0597036,35.7990017" id="Fill-51" fill="#009190"></path>
                            <path d="M209.05158,104.995058 C209.05158,162.536799 162.402301,209.18451 104.86056,209.18451 C47.3188187,209.18451 0.672675806,162.536799 0.672675806,104.995058 C0.672675806,47.4517492 47.3188187,0.804038389 104.86056,0.804038389 C162.402301,0.804038389 209.05158,47.4517492 209.05158,104.995058 Z" id="Stroke-53" stroke="#009190"></path>
                            <path d="M188.211964,104.995058 C188.211964,151.028138 150.893482,188.34662 104.860403,188.34662 C58.8273237,188.34662 21.5088415,151.028138 21.5088415,104.995058 C21.5088415,58.960411 58.8273237,21.6419288 104.860403,21.6419288 C150.893482,21.6419288 188.211964,58.960411 188.211964,104.995058 Z" id="Stroke-55" stroke="#009190"></path>
                            <path d="M124.725858,38.3133386 C124.725858,41.5621053 122.094859,44.1946725 118.846093,44.1946725 C115.597326,44.1946725 112.963191,41.5621053 112.963191,38.3133386 C112.963191,35.0692758 115.597326,32.4320048 118.846093,32.4320048 C122.094859,32.4320048 124.725858,35.0692758 124.725858,38.3133386" id="Fill-85" fill="#7EC7C5"></path>
                            <path d="M57.3964239,171.675367 C57.3964239,174.924133 54.7654246,177.556701 51.516658,177.556701 C48.2678913,177.556701 45.6337562,174.924133 45.6337562,171.675367 C45.6337562,168.431304 48.2678913,165.794033 51.516658,165.794033 C54.7654246,165.794033 57.3964239,168.431304 57.3964239,171.675367" id="Fill-87" fill="#7EC7C5"></path>
                            <path d="M158.023051,131.642471 C158.023051,134.891238 155.392052,137.523805 152.143285,137.523805 C148.897655,137.523805 146.263519,134.891238 146.263519,131.642471 C146.263519,128.398408 148.897655,125.761137 152.143285,125.761137 C155.392052,125.761137 158.023051,128.398408 158.023051,131.642471" id="Fill-89" fill="#7EC7C5"></path>
                            <path d="M46.7626677,83.8813338 C46.7626677,87.1301005 44.1316684,89.7626677 40.8829018,89.7626677 C37.6341351,89.7626677 35,87.1301005 35,83.8813338 C35,80.637271 37.6341351,78 40.8829018,78 C44.1316684,78 46.7626677,80.637271 46.7626677,83.8813338" id="Fill-91" fill="#7EC7C5"></path>
                        </g>
                        <g id="text" transform="translate(0.821014, 0.132750)" fill="#0F9696">
                            <path d="M32.546875,14 L31.140625,14 L31.140625,10.1386719 L27.1914062,10.1386719 L27.1914062,14 L25.7910156,14 L25.7910156,5.43359375 L27.1914062,5.43359375 L27.1914062,8.9375 L31.140625,8.9375 L31.140625,5.43359375 L32.546875,5.43359375 L32.546875,14 Z M39.2265625,14 L39.0332031,13.1503906 L38.9628906,13.1503906 C38.7714834,13.4511734 38.4990252,13.6874991 38.1455078,13.859375 C37.7919904,14.0312509 37.3886741,14.1171875 36.9355469,14.1171875 C36.1503867,14.1171875 35.5644551,13.921877 35.1777344,13.53125 C34.7910137,13.140623 34.5976562,12.5488321 34.5976562,11.7558594 L34.5976562,7.51953125 L35.9863281,7.51953125 L35.9863281,11.515625 C35.9863281,12.0117212 36.0878896,12.3837878 36.2910156,12.6318359 C36.4941416,12.8798841 36.8124978,13.0039062 37.2460938,13.0039062 C37.8242216,13.0039062 38.2490221,12.8310564 38.5205078,12.4853516 C38.7919935,12.1396467 38.9277344,11.5605509 38.9277344,10.7480469 L38.9277344,7.51953125 L40.3105469,7.51953125 L40.3105469,14 L39.2265625,14 Z M47.734375,14 L46.3515625,14 L46.3515625,10.0039062 C46.3515625,9.50781002 46.2578134,9.13769653 46.0703125,8.89355469 C45.8828116,8.64941284 45.5898457,8.52734375 45.1914062,8.52734375 C44.6601536,8.52734375 44.2705091,8.70019358 44.0224609,9.04589844 C43.7744128,9.39160329 43.6503906,9.96679285 43.6503906,10.7714844 L43.6503906,14 L42.2734375,14 L42.2734375,7.51953125 L43.3515625,7.51953125 L43.5449219,8.36914062 L43.6152344,8.36914062 C43.7949228,8.06054533 44.0556624,7.82226646 44.3974609,7.65429688 C44.7392595,7.48632729 45.1152323,7.40234375 45.5253906,7.40234375 C46.5214894,7.40234375 47.181639,7.7421841 47.5058594,8.421875 L47.5996094,8.421875 C47.7910166,8.1015609 48.0605451,7.8515634 48.4082031,7.671875 C48.7558611,7.4921866 49.1542946,7.40234375 49.6035156,7.40234375 C50.376957,7.40234375 50.9404279,7.5976543 51.2939453,7.98828125 C51.6474627,8.3789082 51.8242188,8.97460537 51.8242188,9.77539062 L51.8242188,14 L50.4472656,14 L50.4472656,10.0039062 C50.4472656,9.50781002 50.35254,9.13769653 50.1630859,8.89355469 C49.9736319,8.64941284 49.6796895,8.52734375 49.28125,8.52734375 C48.7460911,8.52734375 48.3544934,8.69433427 48.1064453,9.02832031 C47.8583972,9.36230636 47.734375,9.87499654 47.734375,10.5664062 L47.734375,14 Z M57.8007812,14 L57.5253906,13.0976562 L57.4785156,13.0976562 C57.1660141,13.4921895 56.8515641,13.7607415 56.5351562,13.9033203 C56.2187484,14.0458992 55.8125025,14.1171875 55.3164062,14.1171875 C54.6796843,14.1171875 54.182619,13.9453142 53.8251953,13.6015625 C53.4677717,13.2578108 53.2890625,12.7714875 53.2890625,12.1425781 C53.2890625,11.474606 53.5371069,10.9707048 54.0332031,10.6308594 C54.5292994,10.2910139 55.2851512,10.1054689 56.3007812,10.0742188 L57.4199219,10.0390625 L57.4199219,9.69335938 C57.4199219,9.2792948 57.3232432,8.96972759 57.1298828,8.76464844 C56.9365225,8.55956929 56.6367208,8.45703125 56.2304688,8.45703125 C55.8984358,8.45703125 55.5800796,8.50585889 55.2753906,8.60351562 C54.9707016,8.70117236 54.6777358,8.81640559 54.3964844,8.94921875 L53.9511719,7.96484375 C54.3027361,7.78124908 54.6874979,7.64160204 55.1054688,7.54589844 C55.5234396,7.45019483 55.9179669,7.40234375 56.2890625,7.40234375 C57.1132854,7.40234375 57.7353495,7.58202945 58.1552734,7.94140625 C58.5751974,8.30078305 58.7851562,8.86523053 58.7851562,9.63476562 L58.7851562,14 L57.8007812,14 Z M55.75,13.0625 C56.2500025,13.0625 56.6513657,12.922853 56.9541016,12.6435547 C57.2568375,12.3642564 57.4082031,11.9726588 57.4082031,11.46875 L57.4082031,10.90625 L56.5761719,10.9414062 C55.9277311,10.9648439 55.4560562,11.0732412 55.1611328,11.2666016 C54.8662095,11.4599619 54.71875,11.7558574 54.71875,12.1542969 C54.71875,12.4433608 54.8046866,12.6669914 54.9765625,12.8251953 C55.1484384,12.9833992 55.4062483,13.0625 55.75,13.0625 Z M66.4082031,14 L65.0253906,14 L65.0253906,10.015625 C65.0253906,9.5156225 64.9248057,9.14257936 64.7236328,8.89648438 C64.5224599,8.65038939 64.2031272,8.52734375 63.765625,8.52734375 C63.1835908,8.52734375 62.7578138,8.69921703 62.4882812,9.04296875 C62.2187487,9.38672047 62.0839844,9.96288658 62.0839844,10.7714844 L62.0839844,14 L60.7070312,14 L60.7070312,7.51953125 L61.7851562,7.51953125 L61.9785156,8.36914062 L62.0488281,8.36914062 C62.2441416,8.06054533 62.5214826,7.82226646 62.8808594,7.65429688 C63.2402362,7.48632729 63.6386697,7.40234375 64.0761719,7.40234375 C65.6308671,7.40234375 66.4082031,8.19335146 66.4082031,9.77539062 L66.4082031,14 Z M21.8300781,23.4179688 L22.8027344,23.4179688 C23.4550814,23.4179688 23.9277329,23.2968762 24.2207031,23.0546875 C24.5136733,22.8124988 24.6601562,22.4531274 24.6601562,21.9765625 C24.6601562,21.4921851 24.5019547,21.1445323 24.1855469,20.9335938 C23.869139,20.7226552 23.3925813,20.6171875 22.7558594,20.6171875 L21.8300781,20.6171875 L21.8300781,23.4179688 Z M21.8300781,24.578125 L21.8300781,28 L20.4296875,28 L20.4296875,19.4335938 L22.8496094,19.4335938 C23.9550837,19.4335938 24.7734348,19.6406229 25.3046875,20.0546875 C25.8359402,20.4687521 26.1015625,21.0937458 26.1015625,21.9296875 C26.1015625,22.9960991 25.5468805,23.7558571 24.4375,24.2089844 L26.8574219,28 L25.2636719,28 L23.2128906,24.578125 L21.8300781,24.578125 Z M30.7832031,28.1171875 C29.7753856,28.1171875 28.9873075,27.8232451 28.4189453,27.2353516 C27.8505831,26.647458 27.5664062,25.8378958 27.5664062,24.8066406 C27.5664062,23.7480416 27.8300755,22.9160187 28.3574219,22.3105469 C28.8847683,21.7050751 29.6093704,21.4023438 30.53125,21.4023438 C31.386723,21.4023438 32.0624975,21.6621068 32.5585938,22.1816406 C33.05469,22.7011745 33.3027344,23.4160111 33.3027344,24.3261719 L33.3027344,25.0703125 L28.984375,25.0703125 C29.0039063,25.6992219 29.1738265,26.1826155 29.4941406,26.5205078 C29.8144547,26.8584001 30.2656221,27.0273438 30.8476562,27.0273438 C31.2304707,27.0273438 31.5869124,26.9912113 31.9169922,26.9189453 C32.247072,26.8466793 32.6015606,26.7265633 32.9804688,26.5585938 L32.9804688,27.6777344 C32.6445296,27.8378914 32.3046892,27.9511715 31.9609375,28.0175781 C31.6171858,28.0839847 31.2246116,28.1171875 30.7832031,28.1171875 Z M30.53125,22.4453125 C30.0937478,22.4453125 29.7431654,22.583983 29.4794922,22.8613281 C29.215819,23.1386733 29.058594,23.5429661 29.0078125,24.0742188 L31.9492188,24.0742188 C31.9414062,23.5390598 31.8125012,23.1337904 31.5625,22.8583984 C31.3124987,22.5830064 30.9687522,22.4453125 30.53125,22.4453125 Z M39.2207031,26.1542969 C39.2207031,26.7871125 38.9902367,27.2724592 38.5292969,27.6103516 C38.0683571,27.9482439 37.4082074,28.1171875 36.5488281,28.1171875 C35.6855426,28.1171875 34.9921901,27.9863294 34.46875,27.7246094 L34.46875,26.5351562 C35.2304726,26.8867205 35.9394498,27.0625 36.5957031,27.0625 C37.4433636,27.0625 37.8671875,26.8066432 37.8671875,26.2949219 C37.8671875,26.1308586 37.820313,25.9941412 37.7265625,25.8847656 C37.632812,25.7753901 37.4785167,25.66211 37.2636719,25.5449219 C37.0488271,25.4277338 36.7500019,25.2949226 36.3671875,25.1464844 C35.62109,24.8574204 35.1162123,24.5683608 34.8525391,24.2792969 C34.5888659,23.9902329 34.4570312,23.6152367 34.4570312,23.1542969 C34.4570312,22.5996066 34.6806618,22.1689468 35.1279297,21.8623047 C35.5751975,21.5556625 36.1835899,21.4023438 36.953125,21.4023438 C37.7148476,21.4023438 38.4355435,21.5566391 39.1152344,21.8652344 L38.6699219,22.9023438 C37.9706996,22.6132798 37.3828149,22.46875 36.90625,22.46875 C36.1796839,22.46875 35.8164062,22.6757792 35.8164062,23.0898438 C35.8164062,23.2929698 35.9111319,23.464843 36.1005859,23.6054688 C36.29004,23.7460945 36.7031218,23.9394519 37.3398438,24.1855469 C37.8750027,24.3925792 38.2636707,24.5820304 38.5058594,24.7539062 C38.7480481,24.9257821 38.9277338,25.1240223 39.0449219,25.3486328 C39.16211,25.5732433 39.2207031,25.8417953 39.2207031,26.1542969 Z M46.4570312,24.7480469 C46.4570312,25.8066459 46.1855496,26.6328095 45.6425781,27.2265625 C45.0996067,27.8203155 44.3437548,28.1171875 43.375,28.1171875 C42.7695282,28.1171875 42.2343773,27.9804701 41.7695312,27.7070312 C41.3046852,27.4335924 40.9472669,27.0410182 40.6972656,26.5292969 C40.4472644,26.0175756 40.3222656,25.4238315 40.3222656,24.7480469 C40.3222656,23.6972604 40.5917942,22.8769561 41.1308594,22.2871094 C41.6699246,21.6972627 42.4296826,21.4023438 43.4101562,21.4023438 C44.3476609,21.4023438 45.089841,21.7040985 45.6367188,22.3076172 C46.1835965,22.9111358 46.4570312,23.7246043 46.4570312,24.7480469 Z M41.7402344,24.7480469 C41.7402344,26.2441481 42.2929632,26.9921875 43.3984375,26.9921875 C44.492193,26.9921875 45.0390625,26.2441481 45.0390625,24.7480469 C45.0390625,23.2675707 44.4882868,22.5273438 43.3867188,22.5273438 C42.8085909,22.5273438 42.3896497,22.7187481 42.1298828,23.1015625 C41.8701159,23.4843769 41.7402344,24.0331996 41.7402344,24.7480469 Z M52.609375,28 L52.4160156,27.1503906 L52.3457031,27.1503906 C52.1542959,27.4511734 51.8818377,27.6874991 51.5283203,27.859375 C51.1748029,28.0312509 50.7714866,28.1171875 50.3183594,28.1171875 C49.5331992,28.1171875 48.9472676,27.921877 48.5605469,27.53125 C48.1738262,27.140623 47.9804688,26.5488321 47.9804688,25.7558594 L47.9804688,21.5195312 L49.3691406,21.5195312 L49.3691406,25.515625 C49.3691406,26.0117212 49.4707021,26.3837878 49.6738281,26.6318359 C49.8769541,26.8798841 50.1953103,27.0039062 50.6289062,27.0039062 C51.2070341,27.0039062 51.6318346,26.8310564 51.9033203,26.4853516 C52.174806,26.1396467 52.3105469,25.5605509 52.3105469,24.7480469 L52.3105469,21.5195312 L53.6933594,21.5195312 L53.6933594,28 L52.609375,28 Z M58.9433594,21.4023438 C59.2207045,21.4023438 59.4492179,21.4218748 59.6289062,21.4609375 L59.4941406,22.7441406 C59.2988271,22.6972654 59.0957042,22.6738281 58.8847656,22.6738281 C58.3339816,22.6738281 57.887697,22.8535138 57.5458984,23.2128906 C57.2040999,23.5722674 57.0332031,24.0390596 57.0332031,24.6132812 L57.0332031,28 L55.65625,28 L55.65625,21.5195312 L56.734375,21.5195312 L56.9160156,22.6621094 L56.9863281,22.6621094 C57.2011729,22.2753887 57.4814436,21.9687511 57.8271484,21.7421875 C58.1728533,21.5156239 58.5449199,21.4023438 58.9433594,21.4023438 Z M63.4433594,28.1171875 C62.4628857,28.1171875 61.717776,27.8310575 61.2080078,27.2587891 C60.6982396,26.6865206 60.4433594,25.8652397 60.4433594,24.7949219 C60.4433594,23.7050727 60.7099583,22.8671904 61.2431641,22.28125 C61.7763699,21.6953096 62.54687,21.4023438 63.5546875,21.4023438 C64.2382847,21.4023438 64.8535129,21.5292956 65.4003906,21.7832031 L64.984375,22.890625 C64.4023408,22.6640614 63.9218769,22.5507812 63.5429688,22.5507812 C62.4218694,22.5507812 61.8613281,23.2949144 61.8613281,24.7832031 C61.8613281,25.5097693 62.0009752,26.0556622 62.2802734,26.4208984 C62.5595717,26.7861346 62.9687473,26.96875 63.5078125,26.96875 C64.1210968,26.96875 64.7011691,26.8164078 65.2480469,26.5117188 L65.2480469,27.7128906 C65.0019519,27.8574226 64.7392592,27.9609372 64.4599609,28.0234375 C64.1806627,28.0859378 63.8417989,28.1171875 63.4433594,28.1171875 Z M69.6015625,28.1171875 C68.593745,28.1171875 67.8056669,27.8232451 67.2373047,27.2353516 C66.6689425,26.647458 66.3847656,25.8378958 66.3847656,24.8066406 C66.3847656,23.7480416 66.6484349,22.9160187 67.1757812,22.3105469 C67.7031276,21.7050751 68.4277298,21.4023438 69.3496094,21.4023438 C70.2050824,21.4023438 70.8808569,21.6621068 71.3769531,22.1816406 C71.8730494,22.7011745 72.1210938,23.4160111 72.1210938,24.3261719 L72.1210938,25.0703125 L67.8027344,25.0703125 C67.8222657,25.6992219 67.9921859,26.1826155 68.3125,26.5205078 C68.6328141,26.8584001 69.0839815,27.0273438 69.6660156,27.0273438 C70.04883,27.0273438 70.4052718,26.9912113 70.7353516,26.9189453 C71.0654313,26.8466793 71.41992,26.7265633 71.7988281,26.5585938 L71.7988281,27.6777344 C71.4628889,27.8378914 71.1230486,27.9511715 70.7792969,28.0175781 C70.4355452,28.0839847 70.042971,28.1171875 69.6015625,28.1171875 Z M69.3496094,22.4453125 C68.9121072,22.4453125 68.5615248,22.583983 68.2978516,22.8613281 C68.0341784,23.1386733 67.8769534,23.5429661 67.8261719,24.0742188 L70.7675781,24.0742188 C70.7597656,23.5390598 70.6308606,23.1337904 70.3808594,22.8583984 C70.1308581,22.5830064 69.7871116,22.4453125 69.3496094,22.4453125 Z" id="Human-Resource"></path>
                            <path d="M33.7567824,225.47998 C33.7567824,226.30518 33.4584455,226.952634 32.8617629,227.422363 C32.2650802,227.892092 31.442009,228.126953 30.3925246,228.126953 C29.3430402,228.126953 28.4839993,227.964032 27.8153762,227.638184 L27.8153762,226.203613 C28.2385554,226.402508 28.6881765,226.559081 29.1642531,226.67334 C29.6403297,226.787598 30.0836033,226.844727 30.4940871,226.844727 C31.0950016,226.844727 31.5382751,226.73047 31.8239211,226.501953 C32.109567,226.273436 32.2523879,225.966636 32.2523879,225.581543 C32.2523879,225.234536 32.1212043,224.940431 31.8588332,224.699219 C31.5964621,224.458007 31.0548008,224.172365 30.2338332,223.842285 C29.3874748,223.49951 28.7908011,223.108075 28.4437941,222.667969 C28.0967872,222.227862 27.9232863,221.698896 27.9232863,221.081055 C27.9232863,220.306637 28.1983487,219.697268 28.7484816,219.25293 C29.2986146,218.808592 30.0370512,218.586426 30.9638137,218.586426 C31.85249,218.586426 32.7369212,218.781085 33.617134,219.17041 L33.1347121,220.408203 C32.3095127,220.061196 31.5731919,219.887695 30.9257277,219.887695 C30.4348398,219.887695 30.0624477,219.994546 29.8085402,220.208252 C29.5546327,220.421957 29.4276808,220.704425 29.4276808,221.055664 C29.4276808,221.296876 29.4784616,221.503173 29.5800246,221.674561 C29.6815876,221.845948 29.8487409,222.007812 30.0814894,222.160156 C30.314238,222.312501 30.7331791,222.513508 31.3383254,222.763184 C32.0196439,223.046714 32.5189879,223.311197 32.8363722,223.556641 C33.1537566,223.802085 33.3865017,224.079263 33.5346144,224.388184 C33.6827272,224.697104 33.7567824,225.061033 33.7567824,225.47998 Z M40.8703888,228 L40.572049,227.022461 L40.5212677,227.022461 C40.1827244,227.449872 39.8420702,227.740803 39.4992951,227.895264 C39.1565199,228.049724 38.7164202,228.126953 38.1789826,228.126953 C37.4892005,228.126953 36.950713,227.940757 36.5635041,227.568359 C36.1762951,227.195962 35.9826935,226.669111 35.9826935,225.987793 C35.9826935,225.264157 36.2514083,224.718264 36.7888459,224.350098 C37.3262835,223.981932 38.1451229,223.780925 39.2453888,223.74707 L40.4577912,223.708984 L40.4577912,223.334473 C40.4577912,222.885903 40.3530559,222.550538 40.1435822,222.328369 C39.9341085,222.1062 39.6093233,221.995117 39.169217,221.995117 C38.8095146,221.995117 38.4646288,222.048014 38.134549,222.153809 C37.8044692,222.259603 37.4870896,222.384439 37.1824006,222.52832 L36.6999787,221.461914 C37.08084,221.26302 37.4976652,221.111736 37.950467,221.008057 C38.4032687,220.904378 38.8306733,220.852539 39.2326935,220.852539 C40.1256016,220.852539 40.7995044,221.047199 41.254422,221.436523 C41.7093397,221.825848 41.9367951,222.437333 41.9367951,223.270996 L41.9367951,228 L40.8703888,228 Z M38.6487092,226.984375 C39.1903785,226.984375 39.6251886,226.833091 39.9531525,226.530518 C40.2811164,226.227944 40.4450959,225.803714 40.4450959,225.257812 L40.4450959,224.648438 L39.5437287,224.686523 C38.8412512,224.711914 38.33027,224.829345 38.0107697,225.038818 C37.6912694,225.248292 37.5315217,225.568845 37.5315217,226.000488 C37.5315217,226.313641 37.6246197,226.555907 37.8108185,226.727295 C37.9970174,226.898682 38.2763115,226.984375 38.6487092,226.984375 Z M46.5938586,228 L45.1021593,228 L45.1021593,218.123047 L46.5938586,218.123047 L46.5938586,228 Z M52.875922,228.126953 C51.7841197,228.126953 50.9303685,227.808516 50.3146427,227.171631 C49.698917,226.534746 49.3910587,225.65772 49.3910587,224.540527 C49.3910587,223.393712 49.6767004,222.492354 50.2479923,221.836426 C50.8192843,221.180498 51.6042699,220.852539 52.6029728,220.852539 C53.5297353,220.852539 54.2618243,221.133949 54.7992619,221.696777 C55.3366995,222.259606 55.6054142,223.034012 55.6054142,224.02002 L55.6054142,224.826172 L50.9271916,224.826172 C50.9483505,225.50749 51.1324307,226.031167 51.4794377,226.397217 C51.8264446,226.763267 52.3152092,226.946289 52.9457462,226.946289 C53.3604619,226.946289 53.7466071,226.907146 54.1041935,226.828857 C54.4617799,226.750569 54.8458093,226.620444 55.2562931,226.438477 L55.2562931,227.650879 C54.892359,227.824382 54.5241986,227.947103 54.1518009,228.019043 C53.7794032,228.090983 53.3541145,228.126953 52.875922,228.126953 Z M52.6029728,221.982422 C52.1290121,221.982422 51.7492145,222.132648 51.4635685,222.433105 C51.1779226,222.733563 51.0075955,223.171547 50.9525822,223.74707 L54.1391056,223.74707 C54.130642,223.167315 53.990995,222.728273 53.7201603,222.429932 C53.4493256,222.13159 53.0769335,221.982422 52.6029728,221.982422 Z M63.09988,226.000488 C63.09988,226.686039 62.850208,227.211831 62.3508566,227.577881 C61.8515051,227.943931 61.136343,228.126953 60.2053488,228.126953 C59.2701228,228.126953 58.5189909,227.98519 57.9519308,227.70166 L57.9519308,226.413086 C58.7771303,226.793947 59.545189,226.984375 60.25613,226.984375 C61.1744289,226.984375 61.6335714,226.707197 61.6335714,226.152832 C61.6335714,225.975097 61.5827907,225.826986 61.4812277,225.708496 C61.3796647,225.590006 61.2125114,225.467286 60.9797628,225.340332 C60.7470143,225.213378 60.4232871,225.0695 60.0085714,224.908691 C59.2002992,224.595539 58.6533483,224.282391 58.3677023,223.969238 C58.0820563,223.656086 57.9392355,223.24984 57.9392355,222.750488 C57.9392355,222.149574 58.181502,221.683026 58.6660421,221.35083 C59.1505823,221.018634 59.809674,220.852539 60.6433371,220.852539 C61.4685365,220.852539 62.2492904,221.019692 62.9856222,221.354004 L62.5032003,222.477539 C61.7457096,222.164386 61.1088344,222.007812 60.5925558,222.007812 C59.8054425,222.007812 59.4118917,222.232094 59.4118917,222.680664 C59.4118917,222.900717 59.5145112,223.086913 59.7197531,223.239258 C59.924995,223.391602 60.3725003,223.601073 61.0622824,223.867676 C61.6420379,224.091961 62.0630949,224.2972 62.325466,224.483398 C62.5878371,224.669597 62.7824966,224.884358 62.9094503,225.127686 C63.0364041,225.371014 63.09988,225.661945 63.09988,226.000488 Z" id="Sales"></path>
                            <path d="M253.246729,221.347168 C253.246729,222.857918 252.869047,224.032222 252.113672,224.870117 C251.358297,225.708012 250.288728,226.126953 248.904932,226.126953 C247.504208,226.126953 246.428292,225.711186 245.677148,224.879639 C244.926005,224.048092 244.550439,222.866381 244.550439,221.334473 C244.550439,219.802564 244.928121,218.626143 245.683496,217.805176 C246.438871,216.984208 247.516904,216.57373 248.917627,216.57373 C250.297191,216.57373 251.363587,216.990556 252.116846,217.824219 C252.870105,218.657882 253.246729,219.832186 253.246729,221.347168 Z M246.162744,221.347168 C246.162744,222.489752 246.393373,223.356198 246.854639,223.946533 C247.315904,224.536868 247.999328,224.832031 248.904932,224.832031 C249.806303,224.832031 250.486554,224.540042 250.945703,223.956055 C251.404853,223.372067 251.634424,222.502447 251.634424,221.347168 C251.634424,220.208816 251.406968,219.345543 250.952051,218.757324 C250.497133,218.169105 249.818999,217.875 248.917627,217.875 C248.007792,217.875 247.321194,218.169105 246.857812,218.757324 C246.394431,219.345543 246.162744,220.208816 246.162744,221.347168 Z M258.742236,226.126953 C257.85356,226.126953 257.163788,225.807458 256.6729,225.168457 L256.584033,225.168457 C256.643278,225.760908 256.6729,226.120605 256.6729,226.247559 L256.6729,229.123047 L255.181201,229.123047 L255.181201,218.979492 L256.387256,218.979492 C256.42111,219.110678 256.490934,219.423826 256.596729,219.918945 L256.6729,219.918945 C257.138398,219.208004 257.836633,218.852539 258.767627,218.852539 C259.643608,218.852539 260.325974,219.169919 260.814746,219.804688 C261.303518,220.439456 261.5479,221.330235 261.5479,222.477051 C261.5479,223.623866 261.299286,224.518877 260.802051,225.162109 C260.304815,225.805342 259.618217,226.126953 258.742236,226.126953 Z M258.38042,220.071289 C257.787969,220.071289 257.355275,220.24479 257.082324,220.591797 C256.809374,220.938804 256.6729,221.49316 256.6729,222.254883 L256.6729,222.477051 C256.6729,223.331873 256.808316,223.950763 257.07915,224.33374 C257.349985,224.716717 257.792201,224.908203 258.405811,224.908203 C258.922089,224.908203 259.319872,224.696617 259.59917,224.273438 C259.878468,223.850258 260.018115,223.247237 260.018115,222.464355 C260.018115,221.677242 259.879526,221.081626 259.602344,220.67749 C259.325161,220.273354 258.917858,220.071289 258.38042,220.071289 Z M266.446729,226.126953 C265.354926,226.126953 264.501175,225.808516 263.885449,225.171631 C263.269723,224.534746 262.961865,223.65772 262.961865,222.540527 C262.961865,221.393712 263.247507,220.492354 263.818799,219.836426 C264.390091,219.180498 265.175076,218.852539 266.173779,218.852539 C267.100542,218.852539 267.832631,219.133949 268.370068,219.696777 C268.907506,220.259606 269.176221,221.034012 269.176221,222.02002 L269.176221,222.826172 L264.497998,222.826172 C264.519157,223.50749 264.703237,224.031167 265.050244,224.397217 C265.397251,224.763267 265.886016,224.946289 266.516553,224.946289 C266.931268,224.946289 267.317414,224.907146 267.675,224.828857 C268.032586,224.750569 268.416616,224.620444 268.8271,224.438477 L268.8271,225.650879 C268.463165,225.824382 268.095005,225.947103 267.722607,226.019043 C267.35021,226.090983 266.924921,226.126953 266.446729,226.126953 Z M266.173779,219.982422 C265.699819,219.982422 265.320021,220.132648 265.034375,220.433105 C264.748729,220.733563 264.578402,221.171547 264.523389,221.74707 L267.709912,221.74707 C267.701449,221.167315 267.561801,220.728273 267.290967,220.429932 C267.020132,220.13159 266.64774,219.982422 266.173779,219.982422 Z M274.53208,218.852539 C274.832537,218.852539 275.080093,218.873698 275.274756,218.916016 L275.12876,220.306152 C274.91717,220.255371 274.69712,220.22998 274.468604,220.22998 C273.871921,220.22998 273.388446,220.42464 273.018164,220.813965 C272.647882,221.20329 272.462744,221.708981 272.462744,222.331055 L272.462744,226 L270.971045,226 L270.971045,218.979492 L272.139014,218.979492 L272.335791,220.217285 L272.411963,220.217285 C272.644711,219.798338 272.948338,219.466147 273.322852,219.220703 C273.697365,218.975259 274.100437,218.852539 274.53208,218.852539 Z M280.80835,226 L280.51001,225.022461 L280.459229,225.022461 C280.120685,225.449872 279.780031,225.740803 279.437256,225.895264 C279.094481,226.049724 278.654381,226.126953 278.116943,226.126953 C277.427161,226.126953 276.888674,225.940757 276.501465,225.568359 C276.114256,225.195962 275.920654,224.669111 275.920654,223.987793 C275.920654,223.264157 276.189369,222.718264 276.726807,222.350098 C277.264244,221.981932 278.083084,221.780925 279.18335,221.74707 L280.395752,221.708984 L280.395752,221.334473 C280.395752,220.885903 280.291017,220.550538 280.081543,220.328369 C279.872069,220.1062 279.547284,219.995117 279.107178,219.995117 C278.747475,219.995117 278.40259,220.048014 278.07251,220.153809 C277.74243,220.259603 277.42505,220.384439 277.120361,220.52832 L276.637939,219.461914 C277.018801,219.26302 277.435626,219.111736 277.888428,219.008057 C278.341229,218.904378 278.768634,218.852539 279.170654,218.852539 C280.063562,218.852539 280.737465,219.047199 281.192383,219.436523 C281.6473,219.825848 281.874756,220.437333 281.874756,221.270996 L281.874756,226 L280.80835,226 Z M278.58667,224.984375 C279.128339,224.984375 279.563149,224.833091 279.891113,224.530518 C280.219077,224.227944 280.383057,223.803714 280.383057,223.257812 L280.383057,222.648438 L279.481689,222.686523 C278.779212,222.711914 278.268231,222.829345 277.94873,223.038818 C277.62923,223.248292 277.469482,223.568845 277.469482,224.000488 C277.469482,224.313641 277.56258,224.555907 277.748779,224.727295 C277.934978,224.898682 278.214272,224.984375 278.58667,224.984375 Z M286.672021,224.920898 C287.035956,224.920898 287.399884,224.86377 287.763818,224.749512 L287.763818,225.873047 C287.598778,225.944987 287.386134,226.005289 287.125879,226.053955 C286.865624,226.102621 286.595851,226.126953 286.316553,226.126953 C284.903134,226.126953 284.196436,225.382169 284.196436,223.892578 L284.196436,220.109375 L283.237939,220.109375 L283.237939,219.449219 L284.26626,218.90332 L284.774072,217.417969 L285.694482,217.417969 L285.694482,218.979492 L287.693994,218.979492 L287.693994,220.109375 L285.694482,220.109375 L285.694482,223.867188 C285.694482,224.22689 285.784407,224.492431 285.964258,224.663818 C286.144109,224.835206 286.380028,224.920898 286.672021,224.920898 Z M290.75835,226 L289.26665,226 L289.26665,218.979492 L290.75835,218.979492 L290.75835,226 Z M289.177783,217.119629 C289.177783,216.853026 289.250781,216.647787 289.396777,216.503906 C289.542774,216.360025 289.751187,216.288086 290.022021,216.288086 C290.284393,216.288086 290.488573,216.360025 290.63457,216.503906 C290.780567,216.647787 290.853564,216.853026 290.853564,217.119629 C290.853564,217.373536 290.780567,217.573486 290.63457,217.719482 C290.488573,217.865479 290.284393,217.938477 290.022021,217.938477 C289.751187,217.938477 289.542774,217.865479 289.396777,217.719482 C289.250781,217.573486 289.177783,217.373536 289.177783,217.119629 Z M299.218213,222.477051 C299.218213,223.623866 298.924108,224.518877 298.335889,225.162109 C297.74767,225.805342 296.92883,226.126953 295.879346,226.126953 C295.223418,226.126953 294.643671,225.978843 294.140088,225.682617 C293.636505,225.386392 293.249301,224.961103 292.978467,224.406738 C292.707632,223.852374 292.572217,223.209151 292.572217,222.477051 C292.572217,221.338699 292.864206,220.450036 293.448193,219.811035 C294.032181,219.172035 294.855252,218.852539 295.917432,218.852539 C296.933062,218.852539 297.73709,219.17944 298.329541,219.833252 C298.921992,220.487064 299.218213,221.368321 299.218213,222.477051 Z M294.10835,222.477051 C294.10835,224.097827 294.707139,224.908203 295.904736,224.908203 C297.089638,224.908203 297.68208,224.097827 297.68208,222.477051 C297.68208,220.873202 297.085406,220.071289 295.892041,220.071289 C295.265736,220.071289 294.811883,220.278644 294.530469,220.693359 C294.249055,221.108075 294.10835,221.702633 294.10835,222.477051 Z M307.20835,226 L305.710303,226 L305.710303,221.683594 C305.710303,221.141924 305.601336,220.737794 305.383398,220.471191 C305.165461,220.204589 304.819517,220.071289 304.345557,220.071289 C303.71502,220.071289 303.253761,220.257485 302.961768,220.629883 C302.669774,221.002281 302.523779,221.62646 302.523779,222.502441 L302.523779,226 L301.03208,226 L301.03208,218.979492 L302.200049,218.979492 L302.409521,219.899902 L302.485693,219.899902 C302.697283,219.565591 302.997736,219.307455 303.387061,219.125488 C303.776385,218.943521 304.208022,218.852539 304.681982,218.852539 C306.366236,218.852539 307.20835,219.709464 307.20835,221.42334 L307.20835,226 Z" id="Operation"></path>
                            <path d="M254.365044,17.8876953 C253.493295,17.8876953 252.807755,18.1966115 252.308404,18.8144531 C251.809052,19.4322948 251.55938,20.2849881 251.55938,21.3725586 C251.55938,22.5109106 251.799531,23.3720674 252.279839,23.9560547 C252.760148,24.540042 253.455209,24.8320312 254.365044,24.8320312 C254.758601,24.8320312 255.139457,24.7928878 255.507622,24.7145996 C255.875788,24.6363115 256.25876,24.5358079 256.656548,24.4130859 L256.656548,25.7143555 C255.92868,25.9894219 255.103493,26.1269531 254.180962,26.1269531 C252.822557,26.1269531 251.779436,25.7154175 251.051568,24.892334 C250.3237,24.0692504 249.959771,22.891772 249.959771,21.3598633 C249.959771,20.3950147 250.136446,19.5507849 250.4898,18.8271484 C250.843155,18.103512 251.354136,17.5491556 252.022759,17.1640625 C252.691382,16.7789694 253.476368,16.5864258 254.37774,16.5864258 C255.325661,16.5864258 256.201629,16.785317 257.005669,17.1831055 L256.459771,18.4462891 C256.146618,18.2981763 255.815486,18.1680507 255.466363,18.0559082 C255.11724,17.9437657 254.750137,17.8876953 254.365044,17.8876953 Z M263.431613,26 L263.133274,25.0224609 L263.082492,25.0224609 C262.743949,25.4498719 262.403295,25.7408033 262.06052,25.8952637 C261.717745,26.0497241 261.277645,26.1269531 260.740207,26.1269531 C260.050425,26.1269531 259.511938,25.9407571 259.124729,25.5683594 C258.73752,25.1959617 258.543918,24.6691115 258.543918,23.987793 C258.543918,23.2641565 258.812633,22.7182636 259.35007,22.3500977 C259.887508,21.9819318 260.706347,21.7809246 261.806613,21.7470703 L263.019016,21.7089844 L263.019016,21.3344727 C263.019016,20.8859027 262.91428,20.5505382 262.704807,20.3283691 C262.495333,20.1062001 262.170548,19.9951172 261.730442,19.9951172 C261.370739,19.9951172 261.025853,20.0480138 260.695774,20.1538086 C260.365694,20.2596034 260.048314,20.3844394 259.743625,20.5283203 L259.261203,19.4619141 C259.642065,19.2630198 260.05889,19.1117355 260.511692,19.0080566 C260.964493,18.9043777 261.391898,18.8525391 261.793918,18.8525391 C262.686826,18.8525391 263.360729,19.0471986 263.815647,19.4365234 C264.270564,19.8258483 264.49802,20.4373331 264.49802,21.2709961 L264.49802,26 L263.431613,26 Z M261.209934,24.984375 C261.751603,24.984375 262.186413,24.8330907 262.514377,24.5305176 C262.842341,24.2279445 263.00632,23.8037137 263.00632,23.2578125 L263.00632,22.6484375 L262.104953,22.6865234 C261.402476,22.7119142 260.891495,22.8293447 260.571994,23.0388184 C260.252494,23.2482921 260.092746,23.5688455 260.092746,24.0004883 C260.092746,24.3136409 260.185844,24.5559073 260.372043,24.7272949 C260.558242,24.8986825 260.837536,24.984375 261.209934,24.984375 Z M270.682753,26.1269531 C269.794076,26.1269531 269.104305,25.8074576 268.613417,25.168457 L268.52455,25.168457 C268.583795,25.7609079 268.613417,26.1206048 268.613417,26.2475586 L268.613417,29.1230469 L267.121718,29.1230469 L267.121718,18.9794922 L268.327772,18.9794922 C268.361627,19.1106777 268.43145,19.4238256 268.537245,19.9189453 L268.613417,19.9189453 C269.078914,19.2080043 269.777149,18.8525391 270.708143,18.8525391 C271.584124,18.8525391 272.266491,19.1699187 272.755263,19.8046875 C273.244035,20.4394563 273.488417,21.3302352 273.488417,22.4770508 C273.488417,23.6238664 273.239803,24.518877 272.742567,25.1621094 C272.245332,25.8053418 271.558734,26.1269531 270.682753,26.1269531 Z M270.320936,20.0712891 C269.728485,20.0712891 269.295791,20.2447899 269.022841,20.5917969 C268.74989,20.9388038 268.613417,21.4931603 268.613417,22.2548828 L268.613417,22.4770508 C268.613417,23.3318728 268.748832,23.9507631 269.019667,24.3337402 C269.290502,24.7167174 269.732717,24.9082031 270.346327,24.9082031 C270.862606,24.9082031 271.260388,24.6966167 271.539686,24.2734375 C271.818985,23.8502583 271.958632,23.247237 271.958632,22.4643555 C271.958632,21.6772422 271.820043,21.0816264 271.54286,20.6774902 C271.265678,20.2733541 270.858374,20.0712891 270.320936,20.0712891 Z M277.254693,26 L275.762994,26 L275.762994,18.9794922 L277.254693,18.9794922 L277.254693,26 Z M275.674126,17.1196289 C275.674126,16.853026 275.747124,16.6477872 275.893121,16.5039062 C276.039117,16.3600253 276.24753,16.2880859 276.518365,16.2880859 C276.780736,16.2880859 276.984917,16.3600253 277.130914,16.5039062 C277.27691,16.6477872 277.349908,16.853026 277.349908,17.1196289 C277.349908,17.3735364 277.27691,17.5734856 277.130914,17.7194824 C276.984917,17.8654792 276.780736,17.9384766 276.518365,17.9384766 C276.24753,17.9384766 276.039117,17.8654792 275.893121,17.7194824 C275.747124,17.5734856 275.674126,17.3735364 275.674126,17.1196289 Z M282.544406,24.9208984 C282.908341,24.9208984 283.272269,24.8637701 283.636203,24.7495117 L283.636203,25.8730469 C283.471163,25.9449873 283.258519,26.0052895 282.998264,26.0539551 C282.738009,26.1026207 282.468236,26.1269531 282.188938,26.1269531 C280.775519,26.1269531 280.068821,25.3821689 280.068821,23.8925781 L280.068821,20.109375 L279.110324,20.109375 L279.110324,19.4492188 L280.138645,18.9033203 L280.646457,17.4179688 L281.566867,17.4179688 L281.566867,18.9794922 L283.566379,18.9794922 L283.566379,20.109375 L281.566867,20.109375 L281.566867,23.8671875 C281.566867,24.2268898 281.656792,24.4924308 281.836643,24.6638184 C282.016494,24.8352059 282.252413,24.9208984 282.544406,24.9208984 Z M289.97328,26 L289.67494,25.0224609 L289.624159,25.0224609 C289.285616,25.4498719 288.944962,25.7408033 288.602186,25.8952637 C288.259411,26.0497241 287.819312,26.1269531 287.281874,26.1269531 C286.592092,26.1269531 286.053604,25.9407571 285.666395,25.5683594 C285.279186,25.1959617 285.085585,24.6691115 285.085585,23.987793 C285.085585,23.2641565 285.3543,22.7182636 285.891737,22.3500977 C286.429175,21.9819318 287.248014,21.7809246 288.34828,21.7470703 L289.560683,21.7089844 L289.560683,21.3344727 C289.560683,20.8859027 289.455947,20.5505382 289.246474,20.3283691 C289.037,20.1062001 288.712215,19.9951172 288.272108,19.9951172 C287.912406,19.9951172 287.56752,20.0480138 287.23744,20.1538086 C286.907361,20.2596034 286.589981,20.3844394 286.285292,20.5283203 L285.80287,19.4619141 C286.183731,19.2630198 286.600557,19.1117355 287.053358,19.0080566 C287.50616,18.9043777 287.933565,18.8525391 288.335585,18.8525391 C289.228493,18.8525391 289.902396,19.0471986 290.357313,19.4365234 C290.812231,19.8258483 291.039686,20.4373331 291.039686,21.2709961 L291.039686,26 L289.97328,26 Z M287.751601,24.984375 C288.29327,24.984375 288.72808,24.8330907 289.056044,24.5305176 C289.384008,24.2279445 289.547987,23.8037137 289.547987,23.2578125 L289.547987,22.6484375 L288.64662,22.6865234 C287.944143,22.7119142 287.433161,22.8293447 287.113661,23.0388184 C286.794161,23.2482921 286.634413,23.5688455 286.634413,24.0004883 C286.634413,24.3136409 286.727511,24.5559073 286.91371,24.7272949 C287.099909,24.8986825 287.379203,24.984375 287.751601,24.984375 Z M295.155084,26 L293.663384,26 L293.663384,16.1230469 L295.155084,16.1230469 L295.155084,26 Z" id="Capital"></path>
                        </g>
                    </g>
                    <g id="DM" transform="translate(101.000000, 91.000000)">
                        <path d="M38.7598475,98.7376666 L40.4533161,95.2554989 C40.5785838,95.1835788 40.6878399,95.0873679 40.7740203,94.9711528 L52.2854628,101.661144 L44.3389696,101.661144 L38.7598475,98.7376666 Z M27.0204743,82.3346608 L28.4252621,79.7979319 C28.5024948,79.8165072 28.5820822,79.8288908 28.665437,79.8288908 C29.2399731,79.8288908 29.7057241,79.3578384 29.7057241,78.7767627 C29.7057241,78.6872199 29.6911252,78.6019637 29.6704042,78.519089 L39.0791389,73.0036324 C39.2006391,73.122229 39.3508662,73.2079615 39.5175758,73.256067 L39.5175758,93.3855781 C39.3183719,93.4760735 39.1554297,93.6289631 39.0466446,93.8190035 L34.4480013,91.671881 L27.0204743,82.3346608 Z M19.3056792,61.2768574 C19.3956271,61.3025771 19.4884005,61.3206762 19.5863542,61.3206762 C19.8656164,61.3206762 20.1180355,61.2077951 20.3045243,61.0268043 L21.0080955,61.4435594 L38.797522,71.9867499 C38.7885743,72.0210429 38.7819813,72.0558122 38.776801,72.0920104 L22.6125582,74.1824541 C22.449145,73.8185673 22.0884117,73.5637513 21.6669283,73.5637513 C21.5765095,73.5637513 21.4903291,73.5789927 21.4065033,73.6009021 L17.6329315,64.0264887 L19.3056792,61.2768574 Z M24.4218759,36.0524552 L30.1775971,34.8140971 C30.240231,34.9336463 30.3245277,35.0384304 30.4262488,35.1251155 L19.7351685,59.2316613 C19.6861916,59.224517 19.6372148,59.21642 19.5863542,59.21642 C19.4860459,59.21642 19.3913887,59.2349954 19.300028,59.2616677 L17.6277513,56.5487109 L24.4218759,36.0524552 Z M44.4152604,21.4550708 L47.5163424,21.2955131 C47.5210517,21.3164699 47.5285866,21.3359979 47.5347088,21.3560021 L39.9367046,27.1824771 L31.7156585,33.4857199 C31.5951001,33.3937956 31.4566463,33.3247333 31.3031227,33.2928218 L30.9480406,28.335579 L44.4152604,21.4550708 Z M54.0528676,21.737988 C53.8131636,21.9304098 53.6563436,22.224758 53.6563436,22.5586384 C53.6563436,22.8753723 53.7976229,23.1563843 54.0170769,23.3492824 L52.6217077,27.8907226 L49.189561,39.0607128 C49.1810843,39.0602365 49.1730784,39.0578551 49.1641307,39.0578551 C48.8010428,39.0578551 48.4826933,39.2464665 48.2962045,39.5312889 L40.5611594,37.0545727 L32.129607,34.3544757 C32.1300779,34.3439973 32.1329035,34.3339952 32.1329035,34.3235168 C32.1329035,34.1882499 32.1055895,34.0606038 32.0599092,33.9420072 L40.6440433,27.3596575 L47.8426978,21.8399144 C48.02589,22.0023298 48.2632393,22.1042562 48.525548,22.1042562 C49.0708864,22.1042562 49.5130908,21.6784515 49.5573583,21.1388132 L53.2927847,20.7558747 L54.0528676,21.737988 Z M57.6757414,25.1744317 L57.6757414,36.3048897 C57.2401301,36.4306307 56.918955,36.8316682 56.918955,37.3122464 C56.918955,37.3222486 56.9217806,37.3317744 56.9217806,37.3413002 L50.0325279,39.5331941 C49.9538824,39.412216 49.8512194,39.309337 49.7316028,39.2297963 L53.2033077,27.9312074 L54.5360431,23.5940963 C54.5887874,23.6026695 54.6415316,23.6107665 54.6966306,23.6107665 C55.0239278,23.6107665 55.3126086,23.4545428 55.5033358,23.2154445 L57.6757414,25.1744317 Z M56.9217806,55.5080137 L40.6953748,59.7389119 C40.6383921,59.6403195 40.5663396,59.5531582 40.481572,59.4783804 L45.5770477,48.5079564 L48.9969502,41.1454411 C49.0515782,41.1544906 49.1066771,41.1625876 49.1641307,41.1625876 C49.470236,41.1625876 49.7429052,41.0258919 49.9331614,40.8129896 L56.9377922,44.2980151 C56.9269608,44.3589804 56.918955,44.4218509 56.918955,44.4861502 C56.918955,44.9672047 57.2401301,45.3682423 57.6757414,45.4935069 L57.6757414,54.5263768 C57.2481359,54.64926 56.9330829,55.0388665 56.9217806,55.5080137 Z M56.918955,68.8051221 C56.918955,69.0175482 56.9825307,69.2147329 57.0894321,69.3800061 L50.3847844,77.1811859 C50.250569,77.1173628 50.1022257,77.0787832 49.9444638,77.0787832 C49.8573415,77.0787832 49.7744576,77.093072 49.6934574,77.1130762 L40.5451477,61.0020372 C40.7222179,60.8186649 40.8324158,60.5695644 40.8390088,60.2942679 L57.0654146,56.0633697 C57.1991591,56.2938949 57.4157874,56.4663124 57.6757414,56.5410902 L57.6757414,67.7977654 C57.2401301,67.9230301 56.918955,68.3245439 56.918955,68.8051221 Z M57.439334,85.0442836 L50.8580703,78.6238731 C50.9362449,78.4762227 50.9847508,78.309997 50.9847508,78.1309113 C50.9847508,77.9184853 50.9211751,77.7217769 50.8142737,77.5565037 L52.1936312,75.951401 L57.5189213,69.7548476 C57.5688401,69.7791384 57.6215843,69.7972375 57.6757414,69.8129551 L57.6757414,84.9428335 C57.5919157,84.9671244 57.5127992,85.0009411 57.439334,85.0442836 Z M56.9632225,93.5546616 L53.2814823,93.5546616 C53.1689298,93.1560056 52.8331558,92.8568945 52.4173235,92.8030735 L50.7356282,81.514963 L50.373953,79.0873048 C50.4055054,79.0725398 50.4347031,79.054917 50.4643718,79.0372942 L51.2042047,79.758876 L57.0456355,85.4577047 C56.9674609,85.6053551 56.918955,85.7715809 56.918955,85.9506665 C56.918955,86.4312447 57.2401301,86.8322822 57.6757414,86.9580232 L57.6757414,92.8340325 C57.3310198,92.9335774 57.0616471,93.2060162 56.9632225,93.5546616 Z M53.3252789,100.895744 C53.0474295,100.895744 52.7964232,101.007672 52.6099344,101.187234 L41.5105567,94.7372936 L51.3911644,94.3715017 C51.572002,94.6825201 51.9025957,94.8935173 52.2849919,94.8935173 C52.694702,94.8935173 53.0455458,94.6520374 53.215081,94.3038683 L56.9745249,94.1647911 C57.0244436,94.3200622 57.1049728,94.4605682 57.2151707,94.5748782 L53.5970062,100.936705 C53.5098839,100.912414 53.4199361,100.895744 53.3252789,100.895744 Z M22.6935583,74.7511463 L38.441498,72.7140472 L29.3873746,78.0213643 C29.2004149,77.8384683 28.946112,77.7246346 28.665437,77.7246346 C28.3828783,77.7246346 28.1271626,77.8394209 27.939732,78.024222 L22.6483489,74.9511887 C22.6695408,74.8868894 22.6850816,74.8206848 22.6935583,74.7511463 Z M20.6318215,60.5552756 L38.8050569,60.5552756 C38.9034815,60.9043974 39.1728542,61.1768362 39.5175758,61.2759048 L39.5175758,71.2408773 C39.3527499,71.2885065 39.2034647,71.3732864 39.0829063,71.4899778 L21.8199809,61.2597109 L20.6318215,60.5552756 Z M48.1271402,40.0790242 C48.1266693,40.0895026 48.1238437,40.0995048 48.1238437,40.1104595 C48.1238437,40.1904765 48.1346751,40.268112 48.1511577,40.3428898 L47.1056904,40.9211078 L38.4857655,45.6859287 C38.2969221,45.4920781 38.0350844,45.3711 37.7445198,45.3711 C37.6625778,45.3711 37.5834613,45.3830073 37.5071705,45.4011064 L33.3700398,37.8761757 L31.8267982,35.0684368 C31.8767169,35.0184262 31.9209845,34.9622238 31.9600718,34.9026873 L40.0878735,37.5051445 L48.1271402,40.0790242 Z M57.1902114,43.7836202 L50.1855805,40.2985947 C50.1968829,40.237153 50.2044178,40.1747588 50.2044178,40.1104595 C50.2044178,40.1004574 50.2015922,40.0909315 50.2015922,40.0814057 L57.0908449,37.8895118 C57.2260021,38.0976513 57.4332119,38.2500646 57.6757414,38.3200794 L57.6757414,43.4787935 C57.4859562,43.5335671 57.3187756,43.6393038 57.1902114,43.7836202 Z M39.9687279,59.2335665 C39.9574256,59.2316613 39.9451814,59.231185 39.933879,59.2297562 L38.1735382,47.3796216 C38.5333296,47.2138721 38.7848069,46.8490328 38.7848069,46.4232281 C38.7848069,46.3427348 38.7739754,46.2655756 38.7570219,46.1903215 L46.45816,41.9332274 L48.422885,40.8472826 C48.4417223,40.8663342 48.4633851,40.8820518 48.4836351,40.9001509 L45.0039244,48.3922175 L39.9687279,59.2335665 Z M40.8079273,72.5016211 C40.8281774,72.4201753 40.8418344,72.3363479 40.8418344,72.2487103 C40.8418344,72.1591675 40.8272355,72.0739113 40.8065145,71.9910365 L40.7580086,71.8357655 C40.6360375,71.5466565 40.3878567,71.3285149 40.0850479,71.2408773 L40.0850479,61.3444908 L49.176375,77.3550323 L40.8079273,72.5016211 Z M51.8555026,92.885472 C51.5644671,93.0197862 51.345955,93.2846043 51.2729607,93.6070537 L40.9633346,94.1395477 C40.9233055,93.9333134 40.8234681,93.7489886 40.6831306,93.6051485 L49.6557829,79.1368391 C49.7066435,79.1520805 49.7584459,79.1625589 49.8121321,79.1697033 L49.8747659,79.5916976 L51.8555026,92.885472 Z M40.5272523,73.0007747 L48.9376128,77.8780005 C48.9178337,77.9594464 48.9041767,78.0432737 48.9041767,78.1309113 C48.9041767,78.4019212 49.0077816,78.6462588 49.1740203,78.8324888 L40.1877109,93.3241365 C40.1542748,93.3155633 40.1198968,93.3108003 40.0850479,93.3060374 L40.0850479,73.256067 C40.2536413,73.2074852 40.4057521,73.1208002 40.5272523,73.0007747 Z M37.0098671,45.6778318 C36.8210237,45.8683484 36.7042328,46.132214 36.7042328,46.4232281 C36.7042328,46.557066 36.7310759,46.6837596 36.7762852,46.8018799 L20.2969894,59.3674044 L30.9438022,35.3604035 C30.9927791,35.3675479 31.0417559,35.3756449 31.0926165,35.3756449 C31.1745585,35.3756449 31.253204,35.3637376 31.3294949,35.3456385 L33.2447721,38.8287588 L37.0098671,45.6778318 Z M20.5823737,59.9813443 C20.573897,59.9503853 20.5658911,59.9194264 20.5541178,59.8898963 L28.0890172,54.1443909 L37.1191232,47.2591198 C37.2599316,47.367238 37.428054,47.4377292 37.6117172,47.4615438 L39.372529,59.3121546 C39.0970343,59.4388482 38.8893536,59.6831858 38.8050569,59.9813443 L20.5823737,59.9813443 Z M59,44.4861502 C59,44.0050957 58.6788249,43.6040582 58.2432135,43.4787935 L58.2432135,38.3200794 C58.6788249,38.1943384 59,37.7933009 59,37.3122464 C59,36.8316682 58.6788249,36.4306307 58.2432135,36.3048897 L58.2432135,24.9162817 L55.72797,22.6496101 C55.7303246,22.6191274 55.7369176,22.5895973 55.7369176,22.5586384 C55.7369176,21.9775626 55.2711667,21.5065103 54.6966306,21.5065103 C54.6641363,21.5065103 54.6335258,21.5131784 54.6015025,21.5160361 L53.5466166,20.1528896 L49.4471604,20.5734551 C49.2743286,20.2343355 48.9291361,20 48.525548,20 C48.066861,20 47.6816393,20.3024452 47.5436564,20.7196766 L44.3262544,20.8849498 L30.3546673,27.9959831 L30.7375343,33.3380695 C30.3598475,33.4776229 30.0876493,33.8296024 30.0593934,34.2525493 L23.9867354,35.5594934 L17.0051802,56.6225361 L18.8182654,59.5645892 C18.7123059,59.6822332 18.6346022,59.8241681 18.5898638,59.9813443 L18.5823289,60.0061115 C18.561137,60.0904151 18.5460672,60.1775764 18.5460672,60.2685481 C18.5460672,60.5424158 18.6520267,60.7900874 18.8220329,60.97727 L17,63.9712389 L20.9120256,73.8957266 C20.7745137,74.0429007 20.6798565,74.2291307 20.6445366,74.4372701 L20.628054,74.4391753 L20.6431238,74.4482248 C20.6346471,74.5029983 20.6266413,74.5587245 20.6266413,74.6158794 C20.6266413,75.1969552 21.0923922,75.6680076 21.6669283,75.6680076 C21.9179346,75.6680076 22.1449235,75.5746544 22.3248192,75.4246226 L27.659057,78.5228993 C27.638807,78.6048214 27.62515,78.6886488 27.62515,78.7767627 C27.62515,79.0668243 27.740999,79.3292609 27.9289006,79.5197776 L26.338095,82.3927684 L34.0896227,92.1372179 L38.907249,94.3857904 C38.9232606,94.7944486 39.1681449,95.1426178 39.5175758,95.3016992 L39.6098783,95.3355159 C39.6593261,95.3526624 39.7092448,95.3679037 39.7615182,95.3774295 L38.0054157,98.9886723 L44.2005158,102.235076 L52.3292594,102.235076 C52.4531143,102.675645 52.8496384,103 53.3252789,103 C53.8009194,103 54.1974435,102.675645 54.3212984,102.235076 L54.3354264,102.189828 C54.3533217,102.112192 54.365566,102.031699 54.365566,101.947872 C54.365566,101.670194 54.2572518,101.419665 54.0834782,101.231529 L57.7082357,94.8592243 C57.7892359,94.8797048 57.8721198,94.8935173 57.959242,94.8935173 C58.534249,94.8935173 59,94.4224649 59,93.8413892 C59,93.360811 58.6788249,92.9597734 58.2432135,92.8340325 L58.2432135,86.9580232 C58.6788249,86.8322822 59,86.4312447 59,85.9506665 C59,85.469612 58.6788249,85.0685745 58.2432135,84.9428335 L58.2432135,69.8129551 C58.6788249,69.6872142 59,69.2861766 59,68.8051221 C59,68.3245439 58.6788249,67.9230301 58.2432135,67.7977654 L58.2432135,56.5415665 C58.6788249,56.4158255 59,56.014788 59,55.5337335 C59,55.052679 58.6788249,54.6516415 58.2432135,54.5263768 L58.2432135,45.4939832 C58.6788249,45.3682423 59,44.9672047 59,44.4861502 Z" id="Fill-25" fill="url(#linearGradient-3)" opacity="0.85"></path>
                        <path d="M76.6607239,101.661144 L68.7141416,101.661144 L80.2261841,94.9716291 C80.3123654,95.0878442 80.4211518,95.1835788 80.5468918,95.2554989 L82.2403794,98.7376666 L76.6607239,101.661144 Z M86.551803,91.6723573 L81.9535791,93.8190035 C81.8447928,93.6294394 81.6813778,93.4765498 81.4821717,93.3855781 L81.4821717,73.2565433 C81.6488832,73.2084378 81.7995829,73.1227053 81.9206136,73.0041087 L91.3294537,78.5195653 C91.3087325,78.60244 91.2946044,78.6876962 91.2946044,78.7767627 C91.2946044,79.3578384 91.7603606,79.8288908 92.3349031,79.8288908 C92.4177879,79.8288908 92.4973762,79.8165072 92.5750807,79.7979319 L93.9798843,82.3346608 L86.551803,91.6723573 Z M103.367532,64.0264887 L99.5934473,73.6013784 C99.5100915,73.579469 99.4239101,73.5637513 99.3334903,73.5637513 C98.9120022,73.5637513 98.5507939,73.8185673 98.3873789,74.1829304 L82.2234257,72.0920104 C82.2177745,72.0562885 82.2111814,72.0210429 82.2027045,71.9867499 L99.9918595,61.4440357 L100.695439,61.0268043 C100.8824,61.2082714 101.134822,61.3206762 101.414088,61.3206762 C101.511572,61.3206762 101.604817,61.3025771 101.694295,61.2773337 L103.367532,64.0264887 Z M103.372242,56.5487109 L101.700417,59.262144 C101.608584,59.2354717 101.513926,59.21642 101.414088,59.21642 C101.362756,59.21642 101.314249,59.224517 101.265272,59.2316613 L90.5740716,35.1251155 C90.6757939,35.0384304 90.7596206,34.9336463 90.822726,34.8140971 L96.5780409,36.0529315 L103.372242,56.5487109 Z M90.051803,28.3360553 L89.6971878,33.2928218 C89.5436625,33.3247333 89.4052072,33.3937956 89.2841765,33.4857199 L81.0635091,27.1824771 L73.4649489,21.3564784 C73.471071,21.3359979 73.478606,21.3164699 73.4837863,21.2959894 L76.5849031,21.4555471 L90.051803,28.3360553 Z M67.7068084,20.7558747 L71.4422766,21.1392895 C71.4870156,21.6789278 71.929225,22.1042562 72.4740985,22.1042562 C72.7368811,22.1042562 72.9737621,22.0028061 73.1569564,21.8403907 L80.3561625,27.3601338 L88.9403929,33.9420072 C88.8947121,34.0606038 88.8669268,34.1887262 88.8669268,34.3235168 C88.8669268,34.3344715 88.8697524,34.3439973 88.8702234,34.3544757 L80.4390474,37.0545727 L72.7034446,39.5317652 C72.5174247,39.2469428 72.1986006,39.0583314 71.8355086,39.0583314 C71.8270318,39.0583314 71.8190258,39.0607128 71.810078,39.0607128 L68.3783638,27.8907226 L66.982979,23.3492824 C67.2019645,23.1563843 67.3432454,22.8753723 67.3432454,22.5586384 C67.3432454,22.224758 67.1868945,21.9308861 66.9467169,21.737988 L67.7068084,20.7558747 Z M65.4967034,23.2159208 C65.6874327,23.4545428 65.9756459,23.6107665 66.3029467,23.6107665 C66.3580463,23.6107665 66.4112621,23.6026695 66.464007,23.5945726 L67.7962863,27.9312074 L71.2685011,39.2302726 C71.1484123,39.309337 71.0457481,39.412216 70.9671017,39.5331941 L64.0777718,37.3417765 C64.0782427,37.3317744 64.0805974,37.3227248 64.0805974,37.3127227 C64.0805974,36.8316682 63.7598897,36.4306307 63.3242734,36.3048897 L63.3242734,25.1744317 L65.4967034,23.2159208 Z M63.3242734,54.5263768 L63.3242734,45.4939832 C63.7598897,45.3682423 64.0805974,44.9672047 64.0805974,44.4866265 C64.0805974,44.4218509 64.0730624,44.3594567 64.06176,44.2980151 L71.0664693,40.8129896 C71.2567277,41.0263682 71.5293999,41.1625876 71.8355086,41.1625876 C71.8929629,41.1625876 71.9480624,41.1544906 72.0026911,41.1454411 L75.4226319,48.5084327 L80.5181647,59.4783804 C80.4333961,59.5531582 80.3618138,59.6403195 80.3043595,59.7389119 L64.0782427,55.5080137 C64.0664693,55.0388665 63.7518837,54.6497363 63.3242734,54.5263768 Z M63.3242734,67.7977654 L63.3242734,56.5415665 C63.5837594,56.4667887 63.8003902,56.2943712 63.9346071,56.0633697 L80.1607239,60.2947442 C80.1677879,60.5700407 80.2775161,60.8186649 80.4545883,61.0025134 L71.306176,77.1135525 C71.2256459,77.093072 71.1422901,77.0792595 71.0556378,77.0792595 C70.8974031,77.0792595 70.7490581,77.1173628 70.6148412,77.1811859 L63.9101184,69.3804824 C64.0174919,69.2147329 64.0805974,69.0180245 64.0805974,68.8055984 C64.0805974,68.3245439 63.7598897,67.9235064 63.3242734,67.7977654 Z M63.3242734,84.9433098 L63.3242734,69.8129551 C63.3779602,69.7972375 63.4307051,69.7791384 63.4810953,69.7553238 L68.8064451,75.9518773 L70.1853471,77.5565037 C70.0784446,77.7217769 70.0153391,77.9189616 70.0153391,78.1313876 C70.0153391,78.3104733 70.0633746,78.4762227 70.1415501,78.6238731 L63.5606835,85.0442836 C63.4867465,85.0009411 63.4081001,84.9671244 63.3242734,84.9433098 Z M63.3242734,92.8340325 L63.3242734,86.9580232 C63.7598897,86.8327585 64.0805974,86.431721 64.0805974,85.9506665 C64.0805974,85.7715809 64.032091,85.6053551 63.9543864,85.458181 L69.7958827,79.758876 L70.535253,79.0372942 C70.564922,79.054917 70.594591,79.0725398 70.6261437,79.0873048 L70.2644645,81.514963 L68.5827503,92.8030735 C68.1669133,92.8568945 67.8306647,93.1560056 67.7185818,93.5546616 L64.0363294,93.5546616 C63.9383746,93.2060162 63.6689989,92.9335774 63.3242734,92.8340325 Z M67.4030544,100.936705 L63.7848493,94.5748782 C63.8945775,94.4605682 63.9755786,94.3200622 64.0254978,94.1652674 L67.7845129,94.3043446 C67.9540501,94.6525137 68.3048977,94.8939936 68.7146125,94.8939936 C69.0974839,94.8939936 69.4280813,94.6829964 69.6089209,94.3715017 L79.4891685,94.7372936 L68.3901372,101.187234 C68.2036464,101.007672 67.9521663,100.895744 67.6743138,100.895744 C67.5796555,100.895744 67.4901776,100.91289 67.4030544,100.936705 Z M98.3520587,74.951665 L93.0606163,78.0246983 C92.8727126,77.8394209 92.617465,77.7246346 92.3349031,77.7246346 C92.053754,77.7246346 91.7999193,77.8384683 91.6124865,78.0218406 L82.5582616,72.7140472 L98.3063778,74.7516225 C98.3153256,74.8206848 98.3303956,74.8873656 98.3520587,74.951665 Z M99.179965,61.2597109 L81.9168461,71.4904541 C81.7962863,71.3732864 81.6474704,71.2889827 81.4821717,71.2413536 L81.4821717,61.2763811 C81.8273681,61.1768362 82.0967438,60.9043974 82.1946986,60.5557519 L100.368609,60.5557519 L99.179965,61.2597109 Z M80.9118676,37.5051445 L89.0397605,34.9026873 C89.0793192,34.9627001 89.1235872,35.0184262 89.1735065,35.0689131 L87.6297766,37.8761757 L83.4930705,45.4011064 C83.4163079,45.3830073 83.3376615,45.3711 83.2557185,45.3711 C82.9651507,45.3711 82.7028391,45.4920781 82.5144645,45.686405 L73.8944429,40.921584 L72.848493,40.3433661 C72.8654467,40.268112 72.8762783,40.1904765 72.8762783,40.1104595 C72.8762783,40.0995048 72.8734526,40.0899789 72.8729817,40.0790242 L80.9118676,37.5051445 Z M63.3242734,43.4787935 L63.3242734,38.3200794 C63.5663348,38.2505408 63.7735468,38.0976513 63.9087056,37.8899881 L70.7985065,40.0814057 C70.7980355,40.0914078 70.7952099,40.1004574 70.7952099,40.1104595 C70.7952099,40.1747588 70.8032158,40.2376293 70.8140474,40.2985947 L63.8098089,43.7836202 C63.6807723,43.6393038 63.5140608,43.5335671 63.3242734,43.4787935 Z M75.9962325,48.3922175 L72.5164828,40.9001509 C72.536733,40.8825281 72.5583961,40.8668105 72.5772336,40.8472826 L74.5419806,41.9332274 L82.2427341,46.1907978 C82.2257804,46.2655756 82.2154198,46.3432111 82.2154198,46.4232281 C82.2154198,46.8490328 82.4668999,47.2138721 82.8266954,47.3796216 L81.0663348,59.2297562 C81.0545614,59.231185 81.0427879,59.2316613 81.0314855,59.2335665 L75.9962325,48.3922175 Z M71.8232643,77.3550323 L80.9146932,61.3444908 L80.9146932,71.2413536 C80.612352,71.3285149 80.3641685,71.5466565 80.241725,71.8357655 L80.1932185,71.9910365 C80.1724973,72.0739113 80.1583692,72.1591675 80.1583692,72.2487103 C80.1583692,72.3363479 80.1720264,72.4201753 80.1918057,72.5016211 L71.8232643,77.3550323 Z M71.1248654,79.5916976 L71.1879709,79.1697033 C71.2416577,79.1630352 71.2934607,79.1520805 71.3443219,79.1373154 L80.3166039,93.6051485 C80.1762648,93.7489886 80.0768972,93.9337897 80.0368676,94.1395477 L69.7271259,93.6070537 C69.6541308,93.2846043 69.4356163,93.0197862 69.1441066,92.8859483 L71.1248654,79.5916976 Z M80.9146932,73.2565433 L80.9146932,93.3060374 C80.8803149,93.3112766 80.8459365,93.3160395 80.8120291,93.3241365 L71.8256189,78.8329651 C71.9918595,78.6462588 72.0959365,78.4019212 72.0959365,78.1313876 C72.0959365,78.04375 72.0822793,77.9599226 72.0620291,77.8784768 L80.4724839,73.0007747 C80.5944564,73.1212765 80.7465689,73.2079615 80.9146932,73.2565433 Z M87.7555167,38.8292351 L89.6703445,35.3456385 C89.7471071,35.3637376 89.8257535,35.3756449 89.9076964,35.3756449 C89.9585576,35.3756449 90.007535,35.3675479 90.0565124,35.3604035 L100.703445,59.3674044 L84.2239639,46.8018799 C84.2687029,46.6842359 84.2960172,46.557066 84.2960172,46.4232281 C84.2960172,46.132214 84.178754,45.8688247 83.9899085,45.6783081 L87.7555167,38.8292351 Z M82.1946986,59.9818206 C82.1108719,59.6831858 81.902718,59.4388482 81.6276911,59.3121546 L83.3880517,47.4620201 C83.5721878,47.4382055 83.7398412,47.367238 83.8806512,47.2595961 L92.9108584,54.1448672 L100.445842,59.8898963 C100.43454,59.9194264 100.426534,59.9508616 100.417586,59.9818206 L82.1946986,59.9818206 Z M62.7567949,45.4939832 L62.7567949,54.5263768 C62.3207078,54.6521178 62,55.0531553 62,55.5337335 C62,56.014788 62.3207078,56.4158255 62.7567949,56.5415665 L62.7567949,67.7977654 C62.3207078,67.9235064 62,68.3245439 62,68.8055984 C62,69.2861766 62.3207078,69.6872142 62.7567949,69.8129551 L62.7567949,84.9433098 C62.3207078,85.0685745 62,85.469612 62,85.9506665 C62,86.431721 62.3207078,86.8327585 62.7567949,86.9580232 L62.7567949,92.8340325 C62.3207078,92.9597734 62,93.360811 62,93.8418655 C62,94.4229412 62.4657562,94.8939936 63.0402987,94.8939936 C63.127422,94.8939936 63.2107777,94.8797048 63.2917788,94.8592243 L66.916106,101.232006 C66.7428014,101.419665 66.6340151,101.67067 66.6340151,101.947872 C66.6340151,102.031699 66.6462594,102.112192 66.6646259,102.190304 L66.6782831,102.235076 C66.8026103,102.675645 67.1991389,103 67.6743138,103 C68.1499596,103 68.5464882,102.675645 68.6708154,102.235076 L76.7991792,102.235076 L82.9943488,98.9891486 L81.2382266,95.3774295 C81.2905005,95.36838 81.3404198,95.3526624 81.3898681,95.3359921 L81.4821717,95.3021754 C81.8320775,95.1426178 82.0764935,94.7949249 82.0929763,94.3857904 L86.9106566,92.1372179 L94.6618003,82.3927684 L93.0714478,79.5197776 C93.2588805,79.3292609 93.3752018,79.0668243 93.3752018,78.7767627 C93.3752018,78.6891251 93.3615447,78.6048214 93.3412944,78.5233756 L98.675592,75.4250988 C98.8550188,75.5746544 99.0824812,75.6684838 99.3334903,75.6684838 C99.9080328,75.6684838 100.373789,75.1974315 100.373789,74.6163557 C100.373789,74.5587245 100.365783,74.5034746 100.356835,74.4482248 L100.371905,74.4396516 L100.355893,74.4372701 C100.320573,74.2291307 100.225444,74.0429007 100.087931,73.8957266 L104,63.9717152 L102.178418,60.97727 C102.347955,60.7900874 102.454386,60.5428921 102.454386,60.2685481 C102.454386,60.1775764 102.439316,60.0908914 102.417653,60.0061115 L102.410118,59.9818206 C102.36585,59.8241681 102.287675,59.6822332 102.182185,59.5645892 L103.995291,56.6230123 L97.0131862,35.5594934 L90.9409311,34.2525493 C90.912204,33.8300787 90.6400027,33.4776229 90.2627826,33.3385458 L90.6456539,27.9964594 L76.6734392,20.8854261 L73.456472,20.7196766 C73.3180167,20.3024452 72.9332616,20 72.4740985,20 C72.0709769,20 71.7253095,20.2343355 71.5524758,20.5734551 L67.4529736,20.1528896 L66.3980759,21.5160361 C66.3665231,21.5131784 66.3354413,21.5065103 66.3029467,21.5065103 C65.7284042,21.5065103 65.262648,21.9775626 65.262648,22.5586384 C65.262648,22.5895973 65.2692411,22.6191274 65.2720667,22.6496101 L62.7567949,24.916758 L62.7567949,36.3048897 C62.3207078,36.4306307 62,36.8316682 62,37.3127227 C62,37.7937772 62.3207078,38.1948147 62.7567949,38.3200794 L62.7567949,43.4787935 C62.3207078,43.6045345 62,44.005572 62,44.4866265 C62,44.9672047 62.3207078,45.3682423 62.7567949,45.4939832 Z" id="Fill-27" fill="url(#linearGradient-3)" opacity="0.85"></path>
                        <path d="M41.9798051,69.3661021 C42.8944907,69.3661021 43.7626669,69.2276183 44.5843337,68.9518276 C45.4051845,68.6756446 46.1179212,68.1923243 46.7237678,67.5018668 C47.3292065,66.8114093 47.8069482,65.8996916 48.1569929,64.7671059 C48.5070376,63.6349125 48.68206,62.2128054 48.68206,60.5 C48.68206,58.7879792 48.5070376,57.3588106 48.1569929,56.2121019 C47.8069482,55.0665702 47.3292065,54.1552447 46.7237678,53.4781256 C46.1179212,52.8013988 45.4051845,52.32514 44.5843337,52.048957 C43.7626669,51.7731663 42.8944907,51.6346825 41.9798051,51.6346825 L35.317532,51.6346825 L35.317532,69.3661021 L41.9798051,69.3661021 Z M29,46 L42.7908644,46 C44.4672441,46 46.0424454,46.2557831 47.5160602,46.7665648 C48.989675,47.2785233 50.2813319,48.0992262 51.3898068,49.2314196 C52.4986898,50.3640053 53.3766574,51.8559428 54.0261576,53.7056627 C54.6752499,55.5565596 55,57.8213387 55,60.5 C55,63.1794459 54.6752499,65.4371635 54.0261576,67.2735451 C53.3766574,69.1111036 52.4986898,70.6018641 51.3898068,71.7477882 C50.2813319,72.8944969 48.989675,73.7230459 47.5160602,74.2334352 C46.0424454,74.7450015 44.4672441,75 42.7908644,75 L29,75 L29,46 Z" id="Fill-30" fill="#4BC8C8"></path>
                        <path d="M93.3853585,48.5343826 C90.8437901,45.9342699 87.5132048,45.9888456 87.1756399,46.0027883 C84.7397654,46.0661279 82.6725903,46.9915242 81.1404392,48.6602651 C81.1019306,48.6196322 81.0695669,48.5746172 81.030239,48.5343826 C78.4886706,45.9342699 75.1589047,45.9888456 74.8205205,46.0027883 C71.3141885,46.0936149 68.5681967,47.9687077 67.0888925,51.281491 C66.0823429,53.5350282 66.0065547,55.7136733 66.001229,55.9546826 L66,55.9925271 L66.0630886,75 L71.4039053,74.9808786 L71.3416361,56.0538749 C71.3592517,55.4790377 71.6062804,51.6985767 74.9880739,51.6101402 C74.9966769,51.6009778 76.4026509,51.6316517 77.304326,52.5538612 C77.9843717,53.2498006 78.3207075,54.4054505 78.3035015,56.0028845 L78.192482,74.9111651 L78.4177984,74.9127586 L78.4177984,75 L83.7586151,74.9808786 L83.6963459,56.0686143 C83.8659476,51.9117006 86.7332006,51.6260747 87.3427837,51.6101402 C87.3526157,51.6009778 88.7573607,51.6316517 89.6590358,52.5538612 C90.3394911,53.2498006 90.675827,54.4054505 90.658621,56.0028845 L90.5476015,74.9111651 L95.8884182,74.9458227 L95.9990281,56.0518831 C96.03344,52.873348 95.153887,50.3441438 93.3853585,48.5343826" id="Fill-32" fill="#4BC8C8"></path>
                    </g>
                    <g id="運營" transform="translate(256.000000, 211.000000)" stroke="#009190" stroke-width="1.2">
                        <path d="M17.1137158,11.71859 C17.9928425,13.0157993 19.9960701,12.9999911 20.0004136,12.9999911 C20.0030197,12.9999911 22.007116,13.0157993 22.8862428,11.71859 C23.7471268,10.4464879 24.855591,8.14777706 24.9763406,6.59205572 C25.0962215,5.03726427 24.7565589,2.73762356 24.0476978,1.78261709 C22.7159771,-0.00650895466 20.0030197,3.39689747e-07 20.0004136,3.39689747e-07 C19.9960701,3.39689747e-07 17.2839814,-0.00650895466 15.9531295,1.78261709 C15.2442684,2.73762356 14.903737,5.03726427 15.023618,6.59205572 C15.1434989,8.14777706 16.2528318,10.4464879 17.1137158,11.71859 Z" id="Stroke-1"></path>
                        <path d="M14.4182945,14 C13.1346187,14.1995181 11.3081366,14.5621205 9.24715475,15.210988 C7.62247325,15.7245301 6.40980126,17.0916627 5.8100051,18.622747 C5.40453542,19.6567711 5.18218108,20.638747 5.0588585,21.4116627 C5.03550195,21.56 5.01681671,21.6987952 5,21.8297831 C5.03269917,22.4795181 5.60540173,23 6.31357228,23 L16,23 L14.4182945,14 Z" id="Stroke-3"></path>
                        <path d="M20.9842018,16 C20.4824334,16.0752294 20.1136524,16.0834862 20.0051875,16.0834862 L20.0004716,16.0834862 L19.9957557,16.0834862 C19.8872907,16.0834862 19.5175666,16.0752294 19.0157982,16 L18,23 L20.0004716,23 L22,23 L20.9842018,16 Z" id="Stroke-5"></path>
                        <path d="M34.9402022,21.4116627 C34.8178034,20.638747 34.5963646,19.6567711 34.1908604,18.622747 C33.5910133,17.0916627 32.377304,15.7245301 30.7515502,15.210988 C28.692262,14.5621205 26.8646904,14.1995181 25.5809055,14 L24,23 L33.6863161,23 C34.3945468,23 34.9682324,22.4803855 35,21.8297831 C34.9831819,21.6987952 34.9635607,21.56 34.9402022,21.4116627 Z" id="Stroke-7"></path>
                        <polygon id="Stroke-9" points="0 41 10 41 10 32 0 32"></polygon>
                        <polygon id="Stroke-11" points="15 41 25 41 25 32 15 32"></polygon>
                        <polygon id="Stroke-12" points="30 41 40 41 40 32 30 32"></polygon>
                        <path d="M20,32 L20,23" id="Stroke-13"></path>
                        <polyline id="Stroke-14" points="5 32 5 28 35 28 35 32"></polyline>
                        <path d="M14,14 L17,11" id="Stroke-15"></path>
                        <path d="M26,14 L23,11" id="Stroke-16"></path>
                        <path d="M16,23 L25,23" id="Stroke-17"></path>
                        <path d="M20,17 L14,14" id="Stroke-18"></path>
                        <path d="M20,17 L26,14" id="Stroke-19"></path>
                        <path d="M15,3 L25,3" id="Stroke-20"></path>
                    </g>
                </g>
            </g>
        </g>
    </g>
</svg>