<?xml version="1.0" encoding="UTF-8" standalone="no"?>
<svg width="296px" height="296px" viewBox="0 0 296 296" version="1.1" xmlns="http://www.w3.org/2000/svg" xmlns:xlink="http://www.w3.org/1999/xlink">
    <!-- Generator: Sketch 49.3 (51167) - http://www.bohemiancoding.com/sketch -->
    <title>五環圖</title>
    <desc>Created with Sketch.</desc>
    <defs>
        <polygon id="path-1" points="0 41 44 41 44 0 0 0"></polygon>
        <linearGradient x1="150.109231%" y1="0%" x2="150.109231%" y2="100%" id="linearGradient-3">
            <stop stop-color="#38E0E0" offset="0%"></stop>
            <stop stop-color="#22C7C7" offset="100%"></stop>
        </linearGradient>
    </defs>
    <g id="design" stroke="none" stroke-width="1" fill="none" fill-rule="evenodd">
        <g id="解決方案-決策大腦" transform="translate(-806.000000, -870.000000)">
            <g id="01" transform="translate(0.000000, 800.000000)">
                <g id="五環圖" transform="translate(806.000000, 69.000000)">
                    <g id="Group-42" transform="translate(0.000000, 0.941000)">
                        <path d="M19.5563642,76.4525032 C7.73600862,97.627282 1,122.027001 1,148 C1,172.698321 7.09106591,195.973997 17.852973,216.406803 M66.0746062,270.072449 C89.4840545,285.814055 117.669281,295 148,295 C178.442539,295 206.723736,285.746198 230.184108,269.898079 M277.715198,217.220473 C288.745852,196.592811 295,173.026773 295,148 C295,122.926537 288.722495,99.3192645 277.653412,78.6641096 M230.703311,26.4542687 C207.141515,10.3910454 178.667456,1 148,1 C117.485058,1 89.1417505,10.2978716 65.6485821,26.2151099" id="Oval-3" stroke="#4BC8C8"></path>
                        <g id="money-bag" transform="translate(240.000000, 4.000000)" fill="#0F9696" fill-rule="nonzero">
                            <path d="M38.3304445,26.0747645 C37.2908494,23.654665 35.7358331,21.1364595 33.7087957,18.5902629 C33.4797602,18.3025096 33.0606216,18.2548243 32.7728683,18.4840422 C32.4850239,18.7131689 32.4375209,19.1322163 32.6665565,19.4200608 C34.619832,21.8735309 36.1135776,24.2894362 37.1063992,26.6006709 C38.309018,29.4002473 38.7790332,32.060597 38.5033153,34.5078671 C38.218115,37.0393844 37.0981021,39.1777483 35.1741855,40.8636941 C33.6037603,42.2400043 31.494117,43.3291996 28.9038821,44.1011915 C24.423557,45.4364723 20.0281172,45.3490339 19.9841701,45.3479398 C19.9735025,45.3477575 19.9626525,45.3477575 19.9519848,45.3479398 C19.907673,45.3483957 15.5121421,45.4362899 11.0319994,44.1011915 C8.44176439,43.3291996 6.33212109,42.2400043 4.76169598,40.8636941 C2.83787051,39.1778395 1.71785761,37.0393844 1.43265733,34.5078671 C0.99227453,30.5984897 2.43031127,26.2269382 5.70683222,21.5147511 C8.1838259,17.9523916 11.1989436,14.9731063 13.115475,13.2367398 L26.8204976,13.2367398 C27.6821161,14.0169377 28.7900026,15.0693887 29.9635361,16.3126723 C30.2160952,16.5803667 30.6376956,16.5923108 30.9052076,16.3398429 C31.1727197,16.0872839 31.1848461,15.6656834 30.9323782,15.3982626 C30.0025597,14.413191 29.1131323,13.5454637 28.349255,12.8326453 C28.8633085,12.4540802 29.197653,11.8449296 29.197653,11.1590083 C29.197653,10.0133748 28.265555,9.0812768 27.1199215,9.0812768 L26.929636,9.0812768 C27.6791073,7.98405805 28.6543318,6.47298888 29.3752649,5.05738157 C30.3695453,3.10492666 30.6605809,1.79927828 30.2910423,0.948327427 C30.0716715,0.44320927 29.620074,0.116250117 29.0194028,0.0276264984 C28.1279695,-0.104123634 26.9517007,0.25383555 25.4626963,0.707074242 C23.7814004,1.21866593 21.8757191,1.79864005 19.9679407,1.79864005 C18.0600711,1.79864005 16.154481,1.21866593 14.4731852,0.707074242 C12.9841807,0.253926727 11.8078207,-0.104032458 10.9162963,0.0276264984 C10.3156251,0.116250117 9.86402759,0.44320927 9.64474796,0.948327427 C9.27520935,1.79927828 9.56624494,3.10492666 10.5605254,5.05738157 C11.2815496,6.47308005 12.2567741,7.98414923 13.0061543,9.0812768 L12.8158688,9.0812768 C11.6702353,9.0812768 10.7381373,10.0133748 10.7381373,11.1590083 C10.7381373,11.8446561 11.072117,12.4536243 11.5858058,12.8321894 C6.97135997,17.1351761 -0.882042066,25.8631437 0.108773639,34.6569408 C0.687744811,39.7957431 4.34356026,43.5059909 10.6811519,45.3865987 C15.2669683,46.7473177 19.6202845,46.68705 19.9679407,46.6799382 C20.0077849,46.6807588 20.1000556,46.6823088 20.2393733,46.6823088 C21.3161685,46.6823088 25.1944548,46.5914058 29.2546383,45.3865987 C35.59223,43.5060821 39.2480454,39.7958342 39.8271078,34.6569408 C40.1289934,31.9769881 39.6255164,29.0895176 38.3304445,26.0747645 Z M10.8666051,1.47888384 C10.8845669,1.43739851 10.9118286,1.37476021 11.1107759,1.34540136 C11.7064324,1.25778068 12.861913,1.60908397 14.0852289,1.98135788 C15.7678012,2.49340545 17.8618533,3.13063845 19.9678495,3.13063845 C22.073937,3.13063845 24.1678979,2.49340545 25.8504702,1.98135788 C27.0737861,1.60908397 28.2297226,1.25796303 28.824832,1.34540136 C29.0237793,1.37476021 29.0509499,1.43739851 29.0690028,1.47888384 C29.1281764,1.61501045 29.5347327,2.97144417 25.6538023,8.58573218 C25.5440257,8.74456176 25.451208,8.9105031 25.3748932,9.08118563 L14.560897,9.08118563 C14.4845822,8.9105031 14.3918557,8.74456176 14.2819879,8.58573218 C10.4009664,2.97153535 10.8076138,1.61510163 10.8666051,1.47888384 Z M12.81596,10.4133664 L27.1199215,10.4133664 C27.5310366,10.4133664 27.8654722,10.747802 27.8654722,11.1589171 C27.8654722,11.5700323 27.5310366,11.9044679 27.1199215,11.9044679 L12.81596,11.9044679 C12.4048449,11.9044679 12.0704092,11.5700323 12.0704092,11.1589171 C12.0704092,10.747802 12.4047537,10.4133664 12.81596,10.4133664 Z" id="Shape"></path>
                            <path d="M27.6275926,21.3290244 C25.5815905,19.2830224 22.8612466,18.1562624 19.9678495,18.1562624 C17.0743613,18.1562624 14.3541086,19.2830224 12.3081065,21.3290244 C10.8129021,22.8242289 9.79509811,24.7041073 9.36474473,26.765427 C9.28961525,27.1255744 9.52056548,27.4784277 9.88062172,27.5535572 C10.2405868,27.6287779 10.5936224,27.3978276 10.6687519,27.037589 C11.0459494,25.2306519 11.9385679,23.582362 13.2500516,22.2708783 C16.9542818,18.5668305 22.9812349,18.5667393 26.6854651,22.2708783 C30.3896042,25.9750174 30.3896042,32.0020617 26.6854651,35.7062919 C22.9815085,39.4105221 16.9542818,39.4106133 13.2502339,35.7064742 C11.9704797,34.42672 11.08707,32.8211919 10.695649,31.0635813 C10.6156872,30.704528 10.2599162,30.4780454 9.90068057,30.5581896 C9.54162727,30.6381515 9.31532704,30.9941048 9.39528888,31.3531581 C9.84187169,33.3582219 10.8490992,35.1893208 12.3081977,36.6484193 C14.4199381,38.7601597 17.193985,39.8160754 19.9678495,39.8160754 C22.7418965,39.8160754 25.515761,38.7602508 27.6275926,36.6484193 C31.8510733,32.4248474 31.8510733,25.5525963 27.6275926,21.3290244 Z" id="Shape"></path>
                            <path d="M20.6782973,28.4490022 L20.6186678,28.4270287 L20.6186678,24.7202455 L20.7163179,24.7271749 C21.4832952,24.781972 21.9558633,25.0183929 22.3008754,25.1909901 C22.504108,25.2927431 22.6646699,25.3730697 22.8055377,25.3730697 C23.2502058,25.3730697 23.4827972,24.7843426 23.4827972,24.4687805 C23.4827972,24.0395213 22.9791379,23.769274 22.5565345,23.6181032 C22.0583458,23.439853 21.3669539,23.3218706 20.7072003,23.30245 L20.6186678,23.299897 L20.6186678,22.7397994 C20.6186678,22.5859845 20.4003,22.429252 20.1859439,22.429252 C19.9294642,22.429252 19.7706346,22.5904522 19.7706346,22.7397994 L19.7706346,23.3283441 L19.6889404,23.3369147 C18.715813,23.4393972 16.4523548,23.952083 16.4523548,26.4946326 C16.4523548,28.6734789 18.1830683,29.2888295 19.7100022,29.831786 L19.7706346,29.8533948 L19.7706346,34.1204579 L19.6723463,34.1127991 C18.5274422,34.0230814 17.9147357,33.5018249 17.4674235,33.121254 C17.2242556,32.9142832 17.0321466,32.7508948 16.8502493,32.7508948 C16.483446,32.7508948 16.1380692,33.2602982 16.1380692,33.6551839 C16.1380692,34.4350171 17.5182088,35.5899506 19.6809169,35.6248712 L19.7706346,35.62633 L19.7706346,36.257363 C19.7706346,36.4066191 19.9294642,36.5678192 20.1859439,36.5678192 C20.4002088,36.5678192 20.6186678,36.4111779 20.6186678,36.2574542 L20.6186678,35.5842976 L20.697262,35.5733564 C22.6672228,35.2997356 23.797174,34.021349 23.797174,32.0659764 C23.7972652,29.7869271 22.2565636,29.0295234 20.6782973,28.4490022 Z M19.8754877,28.1635284 L19.7521258,28.1169372 C18.8026131,27.7586133 18.0165799,27.3761276 18.0165799,26.3201206 C18.0165799,25.4447345 18.623907,24.9062457 19.7730052,24.7626426 L19.8754877,24.7498779 L19.8754877,28.1635284 Z M20.6216767,34.076602 L20.513906,34.0965697 L20.513906,30.1635775 L20.6410061,30.2181011 C21.4679775,30.5725043 22.2332224,31.0648578 22.2332224,32.2579031 C22.2332224,33.2382335 21.660816,33.8841283 20.6216767,34.076602 Z" id="Shape"></path>
                        </g>
                        <g id="Group-5" transform="translate(16.000000, 6.000000)" stroke="#0F9696" stroke-width="1.5">
                            <g id="Page-1" transform="translate(0.000000, 18.000000)">
                                <path d="M12.5856,3.74217143 C12.5856,5.49302857 11.1974824,6.91245714 9.48412941,6.91245714 C7.77301176,6.91245714 6.38377647,5.49302857 6.38377647,3.74217143 C6.38377647,1.99131429 7.77301176,0.571885714 9.48412941,0.571885714 C11.1974824,0.571885714 12.5856,1.99131429 12.5856,3.74217143 Z" id="Stroke-1"></path>
                                <path d="M9.48468824,9.65794286 L9.48468824,15.1025143" id="Stroke-3"></path>
                                <polyline id="Stroke-5" points="4.51976471 16.1032 4.51976471 23.6952 14.4500588 23.6952 14.4500588 16.1032"></polyline>
                                <path d="M0.558823529,23.6947429 L0.558823529,13.8856 C0.558823529,11.5507429 1.77929412,9.65817143 4.06264706,9.65817143 L14.9082941,9.65817143" id="Stroke-7"></path>
                                <path d="M14.9081824,9.65794286 C17.1915353,9.65794286 18.4120059,11.5505143 18.4120059,13.8853714 L18.4120059,23.6945143" id="Stroke-9"></path>
                            </g>
                            <g id="Page-1-Copy-3" transform="translate(22.000000, 18.000000)">
                                <path d="M12.5856,3.74217143 C12.5856,5.49302857 11.1974824,6.91245714 9.48412941,6.91245714 C7.77301176,6.91245714 6.38377647,5.49302857 6.38377647,3.74217143 C6.38377647,1.99131429 7.77301176,0.571885714 9.48412941,0.571885714 C11.1974824,0.571885714 12.5856,1.99131429 12.5856,3.74217143 Z" id="Stroke-1"></path>
                                <path d="M9.48468824,9.65794286 L9.48468824,15.1025143" id="Stroke-3"></path>
                                <polyline id="Stroke-5" points="4.51976471 16.1032 4.51976471 23.6952 14.4500588 23.6952 14.4500588 16.1032"></polyline>
                                <path d="M0.558823529,23.6947429 L0.558823529,13.8856 C0.558823529,11.5507429 1.77929412,9.65817143 4.06264706,9.65817143 L14.9082941,9.65817143" id="Stroke-7"></path>
                                <path d="M14.9081824,9.65794286 C17.1915353,9.65794286 18.4120059,11.5505143 18.4120059,13.8853714 L18.4120059,23.6945143" id="Stroke-9"></path>
                            </g>
                            <g id="Page-1-Copy-4" transform="translate(11.000000, 0.000000)">
                                <path d="M12.5856,3.71098667 C12.5856,5.44725333 11.1974824,6.85485333 9.48412941,6.85485333 C7.77301176,6.85485333 6.38377647,5.44725333 6.38377647,3.71098667 C6.38377647,1.97472 7.77301176,0.56712 9.48412941,0.56712 C11.1974824,0.56712 12.5856,1.97472 12.5856,3.71098667 Z" id="Stroke-1"></path>
                                <path d="M9.48468824,9.57746 L9.48468824,14.97666" id="Stroke-3"></path>
                                <path d="M0.558823529,16.6972867 L0.558823529,13.7698867 C0.558823529,11.4544867 1.77929412,9.57768667 4.06264706,9.57768667 L14.9082941,9.57768667" id="Stroke-7"></path>
                                <path d="M14.9081824,9.57746 C17.1915353,9.57746 18.4120059,11.45426 18.4120059,13.76966 L18.4120059,16.69706" id="Stroke-9"></path>
                            </g>
                        </g>
                    </g>
                    <path d="M25.98,54.6 C25.98,56.36 25.92,57.86 25.84,59.1 C27,64.36 29.86,68.38 34.4,71.16 L33,73 C29.26,70.48 26.62,67.12 25.08,62.9 C23.76,66.98 21.02,70.36 16.86,73.04 L15.58,71.16 C20.94,67.96 23.68,63.48 23.84,57.74 C23.84,56.4 23.86,55.36 23.86,54.6 L25.98,54.6 Z M46,54.62 L48.16,54.62 L48.16,56.78 L48.1,58.18 L55.68,58.18 C55.6,61.78 55.46,64.7 55.26,66.92 C55.06,69.12 54.72,70.68 54.22,71.56 C53.74,72.4 52.98,72.86 51.92,72.94 L49.08,72.94 L48.52,70.92 C49.36,70.96 50.16,71 50.92,71 C51.92,71 52.56,70.32 52.88,69 C53.2,67.64 53.42,64.7 53.52,60.2 L47.94,60.2 C47.62,63.08 47.02,65.5 46.12,67.44 C44.92,69.88 42.98,71.78 40.28,73.12 L39.16,71.28 C41.78,69.84 43.56,68.04 44.48,65.88 C45.1,64.28 45.54,62.4 45.78,60.2 L40.24,60.2 L40.24,58.18 L45.94,58.18 L46,56.78 L46,54.62 Z" id="人力" fill="#009190"></path>
                    <path d="M20.08,264.06 L18.38,264.06 L18.38,263.22 C18.14,263.46 17.92,263.72 17.68,263.98 L16.56,262.42 C17.88,261.08 19.1,259.48 20.22,257.64 L21.58,257.64 C22.94,258.94 24.2,260.28 25.38,261.64 L24.04,263.04 C23.88,262.86 23.76,262.7 23.64,262.54 L23.64,264.06 L22.04,264.06 L22.04,265.78 L24.56,265.78 L24.56,267.62 L22.04,267.62 L22.04,272.86 C22.84,272.66 23.64,272.46 24.44,272.24 L24.44,274.18 C22.28,274.78 19.98,275.3 17.54,275.72 L17.04,273.74 C18.06,273.62 19.08,273.46 20.08,273.28 L20.08,267.62 L17.5,267.62 L17.5,265.78 L20.08,265.78 L20.08,264.06 Z M18.66,268.2 C19,269.36 19.32,270.7 19.6,272.22 L18.08,272.62 C17.82,271.26 17.5,269.98 17.12,268.74 L18.66,268.2 Z M23.36,268.14 L24.88,268.56 C24.62,269.88 24.28,271.06 23.88,272.08 L22.44,271.56 C22.8,270.66 23.1,269.52 23.36,268.14 Z M19.22,262.26 L23.42,262.26 C22.48,261.12 21.7,260.24 21.08,259.64 C20.52,260.56 19.9,261.42 19.22,262.26 Z M29.06,257.6 L31.06,257.6 L31.06,262.78 L34.44,262.78 L34.44,274.08 C34.44,275.36 33.76,276 32.44,276 L30.7,276 L30.2,274.08 C30.78,274.14 31.32,274.18 31.82,274.18 C32.24,274.18 32.46,273.9 32.46,273.38 L32.46,271 C31.1,271.38 29.66,271.72 28.14,272.02 L27.68,270.14 C29.32,269.94 30.9,269.62 32.46,269.2 L32.46,264.62 L27.62,264.62 L27.62,266.18 C28.58,266.3 29.28,266.42 29.76,266.5 C30.32,266.62 31.02,266.78 31.88,267 L31.2,268.6 C30.44,268.36 29.66,268.18 28.86,268.02 C28.46,267.94 28.04,267.86 27.62,267.8 L27.62,268.98 C27.58,271.92 26.98,274.3 25.78,276.14 L24.18,274.7 C25.16,273.24 25.66,271.38 25.7,269.12 L25.7,262.78 L29.06,262.78 L29.06,257.6 Z M26.44,258.16 C27.04,259.16 27.64,260.26 28.2,261.46 L26.64,262.24 C26.08,261.04 25.46,259.96 24.8,258.98 L26.44,258.16 Z M33.54,258.02 L35.18,258.82 C34.74,260.02 34.16,261.2 33.44,262.34 L31.92,261.54 C32.6,260.34 33.14,259.18 33.54,258.02 Z M56.38,269.98 L56.38,276.18 L54.32,276.18 L54.32,275.36 L44.4,275.36 L44.4,276.18 L42.34,276.18 L42.34,269.98 L56.38,269.98 Z M44.4,273.56 L54.32,273.56 L54.32,271.74 L44.4,271.74 L44.4,273.56 Z M42.4,263.6 C41.76,264.28 41.1,264.92 40.4,265.54 L39.74,263.48 C41.74,261.64 43.14,259.64 43.94,257.48 L45.98,257.88 C45.78,258.4 45.58,258.88 45.34,259.36 L49.48,259.36 C49.2,258.78 48.92,258.24 48.6,257.76 L50.76,257.4 C51.02,258 51.28,258.64 51.54,259.36 L57.1,259.36 L57.1,261.08 L51.34,261.08 L51.34,262.06 L56.22,262.06 L56.22,263.66 L51.34,263.66 L51.34,264.6 L56.26,264.6 L56.26,266.2 L51.34,266.2 L51.34,267.2 L57.48,267.2 L57.48,268.94 L42.4,268.94 L42.4,263.6 Z M49.28,267.2 L49.28,266.2 L44.36,266.2 L44.36,267.2 L49.28,267.2 Z M49.28,264.6 L49.28,263.66 L44.36,263.66 L44.36,264.6 L49.28,264.6 Z M49.28,262.06 L49.28,261.08 L44.36,261.08 L44.36,262.06 L49.28,262.06 Z" id="銷售" fill="#009190"></path>
                    <g id="Page-1" transform="translate(15.000000, 211.000000)">
                        <mask id="mask-2" fill="white">
                            <use xlink:href="#path-1"></use>
                        </mask>
                        <g id="Clip-4"></g>
                        <path d="M24.7079282,38.8979181 L30.413706,38.8979181 L30.413706,21.3249637 L24.7079282,21.3249637 L24.7079282,38.8979181 Z M13.5851461,38.8979181 L19.2910879,38.8979181 L19.2910879,26.2310209 L13.5851461,26.2310209 L13.5851461,38.8979181 Z M2.80984343,38.8979181 L8.5157852,38.8979181 L8.5157852,31.2958907 L2.80984343,31.2958907 L2.80984343,38.8979181 Z M42.4351132,38.8979181 L42.4351132,15.551201 C42.4351132,15.2473441 42.1556867,15 41.8121429,15 L34.8600967,15 C34.5172089,15 34.2384383,15.2473441 34.2384383,15.551201 L34.2384383,24.0185324 C34.2384383,24.3222293 34.5172089,24.5692531 34.8600967,24.5692531 C35.2044603,24.5692531 35.4845428,24.3222293 35.4845428,24.0185324 L35.4845428,16.1025621 L41.1891727,16.1025621 L41.1891727,38.8979181 L35.4845428,38.8979181 L35.4845428,27.7721681 C35.4845428,27.4681511 35.2044603,27.220807 34.8600967,27.220807 C34.5172089,27.220807 34.2384383,27.4681511 34.2384383,27.7721681 L34.2384383,38.8979181 L31.6598105,38.8979181 L31.6598105,20.7737626 C31.6598105,20.4702259 31.3803839,20.223202 31.0368402,20.223202 L24.0861058,20.223202 C23.7419061,20.223202 23.4618237,20.4702259 23.4618237,20.7737626 L23.4618237,38.8979181 L20.5371924,38.8979181 L20.5371924,25.6798199 C20.5371924,25.3761231 20.2577659,25.1290992 19.9140582,25.1290992 L12.9620119,25.1290992 C12.6184682,25.1290992 12.3390417,25.3761231 12.3390417,25.6798199 L12.3390417,38.8979181 L9.76172569,38.8979181 L9.76172569,30.7445296 C9.76172569,30.4405126 9.48229919,30.1931685 9.13875545,30.1931685 L2.1867092,30.1931685 C1.84316546,30.1931685 1.56373895,30.4405126 1.56373895,30.7445296 L1.56373895,38.8979181 L0.623134231,38.8979181 C0.279426508,38.8979181 0,39.1452622 0,39.4494394 C0,39.7529761 0.279426508,40 0.623134231,40 L43.3770298,40 C43.7205735,40 44,39.7529761 44,39.4494394 C44,39.1452622 43.7205735,38.8979181 43.3770298,38.8979181 L42.4351132,38.8979181 Z" id="Fill-3" fill="#138F8F" mask="url(#mask-2)"></path>
                        <path d="M37.7055734,1.10775905 L37.9752601,1.05892916 L37.9752601,2.13919177 L37.8128352,2.1907081 C36.9478457,2.46504044 36.366487,3.21803215 36.366487,4.06441696 C36.366487,5.15637346 37.3235683,6.04479306 38.5000766,6.04479306 C39.0976779,6.04479306 39.5840333,6.46830151 39.5840333,6.98883765 C39.5840333,7.50968984 39.0976779,7.93335632 38.5000766,7.93335632 C37.901556,7.93335632 37.4147408,7.50968984 37.4147408,6.98883765 C37.4147408,6.70344352 37.1792247,6.47114597 36.8900776,6.47114597 C36.6013902,6.47114597 36.366487,6.70344352 36.366487,6.98883765 C36.366487,7.83553851 36.9478457,8.58868824 37.8128352,8.86302059 L37.9752601,8.91437889 L37.9752601,9.94043874 L37.7055734,9.89160884 C35.5865407,9.50744875 34.0484071,7.66044621 34.0484071,5.50007901 C34.0484071,3.33923774 35.5865407,1.49191915 37.7055734,1.10775905 M39.5840333,4.06441696 C39.5840333,4.35028516 39.8193963,4.58274074 40.1088498,4.58274074 C40.3973839,4.58274074 40.6324404,4.35028516 40.6324404,4.06441696 C40.6324404,3.21803215 40.0510817,2.46504044 39.185939,2.1907081 L39.0236672,2.13919177 L39.0236672,1.05892916 L39.2932007,1.10775905 C41.4129996,1.49207717 42.9515929,3.33939577 42.9515929,5.50007901 C42.9515929,7.66028818 41.4129996,9.50729072 39.2932007,9.89160884 L39.0236672,9.94043874 L39.0236672,8.91437889 L39.185939,8.86302059 C40.0510817,8.58868824 40.6324404,7.83553851 40.6324404,6.98883765 C40.6324404,5.8971972 39.6756655,5.00893563 38.5000766,5.00893563 C37.901556,5.00893563 37.4147408,4.58526915 37.4147408,4.06441696 C37.4147408,3.54388082 37.901556,3.12037237 38.5000766,3.12037237 C39.0976779,3.12037237 39.5840333,3.54388082 39.5840333,4.06441696 M38.5000766,11 C41.5328263,11 44,8.5327472 44,5.50007901 C44,2.46741082 41.5328263,0 38.5000766,0 C35.467327,0 33,2.46741082 33,5.50007901 C33,8.5327472 35.467327,11 38.5000766,11" id="Fill-5" fill="#138F8F" mask="url(#mask-2)"></path>
                        <path d="M4.05098165,24.8303153 L12.9190101,16.2163908 L17.7365058,20.8943811 C17.9766055,21.1282726 18.3681603,21.128111 18.6092288,20.8942196 L28.7728594,11.0218364 L28.7728594,12.8425714 C28.7728594,13.1669181 29.0481587,13.4308536 29.3864297,13.4308536 C29.7248622,13.4308536 30,13.1669181 30,12.8425714 L30,9.5889283 C30,9.26425856 29.7248622,9 29.3864297,9 L26.0366588,9 C25.6983878,9 25.4230885,9.26425856 25.4230885,9.5889283 C25.4230885,9.913275 25.6983878,10.177372 26.0366588,10.177372 L27.9178976,10.177372 L18.1727866,19.6433527 L13.3552909,14.9648778 C13.2351603,14.8484167 13.0770852,14.7901053 12.9190101,14.7901053 C12.760935,14.7901053 12.6028599,14.8484167 12.4825679,14.9650393 L3.17664397,24.0026497 C3.06281053,24.1136189 2.99983884,24.2607703 3.00000031,24.4168056 C3.00000031,24.5726793 3.06281053,24.7195076 3.17680544,24.8304768 C3.40947775,25.0558073 3.81572588,25.0572611 4.05098165,24.8303153" id="Fill-6" fill="#138F8F" mask="url(#mask-2)"></path>
                    </g>
                    <path d="M255.66,258.18 L255.66,261.62 L254.58,261.62 L254.58,262.46 L250.62,262.46 L250.62,263.2 L254.76,263.2 L254.76,269.44 L250.62,269.44 L250.62,270.24 L255.68,270.24 L255.68,271.94 L250.62,271.94 L250.62,273.58 L248.62,273.58 L248.62,271.94 L243.56,271.94 L243.56,270.24 L248.62,270.24 L248.62,269.44 L244.46,269.44 L244.46,263.2 L248.62,263.2 L248.62,262.46 L244.7,262.46 L244.7,261.72 L243.52,261.72 L243.52,258.18 L255.66,258.18 Z M245.52,260.84 L248.62,260.84 L248.62,259.86 L245.52,259.86 L245.52,260.84 Z M250.62,259.86 L250.62,260.84 L253.66,260.84 L253.66,259.86 L250.62,259.86 Z M252.76,267.86 L252.76,267.06 L250.62,267.06 L250.62,267.86 L252.76,267.86 Z M248.62,267.86 L248.62,267.06 L246.46,267.06 L246.46,267.86 L248.62,267.86 Z M246.46,265.6 L248.62,265.6 L248.62,264.76 L246.46,264.76 L246.46,265.6 Z M250.62,264.76 L250.62,265.6 L252.76,265.6 L252.76,264.76 L250.62,264.76 Z M239.8,257.66 C240.98,258.6 241.98,259.54 242.82,260.5 L241.48,261.84 C240.76,260.96 239.74,259.98 238.44,258.94 L239.8,257.66 Z M238.04,262.4 L242.94,262.4 L242.94,264.02 C242.34,265.02 241.62,266 240.82,267 L243.14,267 L243.14,268.36 C242.86,269.8 242.56,271 242.2,271.92 C242.36,272.04 242.5,272.16 242.64,272.28 C243.28,272.84 243.88,273.24 244.44,273.48 C245.02,273.68 245.84,273.8 246.92,273.84 C248,273.86 249.24,273.88 250.64,273.88 C252.08,273.88 253.96,273.82 256.28,273.72 L255.8,275.68 L250.9,275.68 C249.54,275.68 248.18,275.64 246.84,275.6 C245.48,275.56 244.46,275.42 243.76,275.16 C242.92,274.84 242.18,274.36 241.5,273.7 C241.36,273.56 241.2,273.5 241.04,273.5 C240.68,273.5 240.06,274.36 239.22,276.08 L237.72,274.68 C238.62,272.96 239.48,271.94 240.32,271.6 C240.68,270.72 240.96,269.78 241.18,268.74 L238.36,268.74 L238.36,267.18 C239.28,266.14 240.06,265.18 240.66,264.28 L238.04,264.28 L238.04,262.4 Z M264.18,266.1 L275.86,266.1 L275.86,270.12 L270.98,270.12 L270.76,270.88 L277.6,270.88 L277.6,276.14 L275.56,276.14 L275.56,275.42 L264.86,275.42 L264.86,276.16 L262.84,276.16 L262.84,270.88 L268.66,270.88 L268.88,270.12 L264.18,270.12 L264.18,266.1 Z M273.86,268.58 L273.86,267.64 L266.18,267.64 L266.18,268.58 L273.86,268.58 Z M264.86,273.76 L275.56,273.76 L275.56,272.52 L264.86,272.52 L264.86,273.76 Z M278.64,263.52 L278.64,267.24 L276.64,267.24 L276.64,265.32 L263.36,265.32 L263.36,267.22 L261.36,267.22 L261.36,263.52 L262.06,263.52 L261.24,262.22 C262.6,261.86 263.5,261.4 263.98,260.86 C264.44,260.26 264.7,259.52 264.76,258.62 L264.76,257.6 L266.68,257.6 L266.68,258.62 C266.64,259.38 266.5,260.04 266.3,260.64 C267.62,261.2 268.74,261.76 269.7,262.3 L268.5,263.52 L271,263.52 L270.04,262.02 C271.32,261.7 272.18,261.3 272.62,260.82 C273.06,260.3 273.3,259.64 273.36,258.84 L273.36,257.58 L275.28,257.58 L275.28,258.84 C275.24,259.46 275.14,260.02 274.98,260.54 C276.2,260.98 277.32,261.5 278.36,262.1 L277.44,263.52 L278.64,263.52 Z M274.1,262.02 C273.46,262.66 272.52,263.16 271.26,263.52 L276.9,263.52 C275.98,262.92 275.06,262.42 274.1,262.02 Z M265.44,262.1 C264.88,262.66 264.1,263.14 263.1,263.52 L268.04,263.52 C267.34,263.08 266.48,262.6 265.44,262.1 Z M263,258.12 C263.38,258.8 263.7,259.52 263.98,260.3 L262.42,260.98 C262.14,260.14 261.84,259.4 261.48,258.76 L263,258.12 Z M271.44,258.08 C271.82,258.78 272.14,259.52 272.42,260.32 L270.86,261 C270.58,260.12 270.26,259.36 269.92,258.72 L271.44,258.08 Z M267.98,258.04 L269.64,258.48 C269.48,259.3 269.16,260.08 268.7,260.84 L267.08,260.28 C267.52,259.58 267.82,258.84 267.98,258.04 Z M276.68,258.08 L278.34,258.52 C278.18,259.32 277.88,260.1 277.46,260.86 L275.84,260.3 C276.24,259.6 276.52,258.86 276.68,258.08 Z" id="運營" fill="#009190"></path>
                    <path d="M249.148971,58.355493 C248.53328,59.149933 247.778562,59.864929 246.904678,60.500481 L245.772601,59.010906 C247.162871,58.077439 248.096338,56.925501 248.592863,55.535231 L250.499519,55.773563 C250.380353,56.091339 250.281048,56.369393 250.161882,56.647447 L257.053649,56.647447 L257.053649,58.077439 C256.537263,59.130072 255.961294,60.003956 255.345603,60.699091 L253.955333,59.567014 C254.29297,59.209516 254.610746,58.812296 254.908661,58.355493 L249.148971,58.355493 Z M240.549158,56.667308 L245.514408,56.667308 L245.514408,58.415076 L240.549158,58.415076 L240.549158,56.667308 Z M240.151938,60.242288 L245.931489,60.242288 L245.931489,62.009917 L240.151938,62.009917 L240.151938,60.242288 Z M251.055627,58.454798 L252.803395,58.812296 C252.723951,59.070489 252.644507,59.328682 252.565063,59.567014 C253.995055,60.838118 255.742823,61.572975 257.828228,61.811307 L256.994066,63.539214 C256.47768,63.45977 256.001016,63.340604 255.564074,63.221438 L255.564074,71.324726 L252.207565,71.324726 C254.134082,71.642502 255.981155,72.059583 257.728923,72.575969 L257.053649,74.224432 C254.948383,73.489575 252.723951,72.933467 250.420075,72.536247 L251.035766,71.324726 L246.567041,71.324726 L247.361481,72.377359 C245.891767,73.132077 243.786501,73.747768 241.045683,74.224432 L240.112216,72.615691 C242.475675,72.258193 244.322748,71.841112 245.673296,71.324726 L242.316787,71.324726 L242.316787,63.002967 L247.162871,63.002967 L246.408153,61.811307 C249.029805,61.354504 250.578963,60.242288 251.055627,58.454798 Z M248.53328,63.002967 L254.948383,63.002967 C253.756723,62.526303 252.684229,61.851029 251.770623,60.937423 C250.996044,61.890751 249.92355,62.566025 248.53328,63.002967 Z M253.538252,69.696124 L253.538252,68.82224 L244.342609,68.82224 L244.342609,69.696124 L253.538252,69.696124 Z M244.342609,67.511414 L253.538252,67.511414 L253.538252,66.716974 L244.342609,66.716974 L244.342609,67.511414 Z M244.342609,65.386287 L253.538252,65.386287 L253.538252,64.552125 L244.342609,64.552125 L244.342609,65.386287 Z M266.508474,61.791446 C265.654451,62.287971 264.780567,62.744774 263.866961,63.161855 L262.65544,61.414087 C266.091393,59.944373 268.871933,58.037717 270.977199,55.71398 L272.645523,55.71398 C274.472735,57.978134 277.233414,59.88479 280.907699,61.394226 L279.716039,63.141994 C278.782572,62.744774 277.908688,62.327693 277.114248,61.87089 L277.114248,62.883801 L272.844133,62.883801 L272.844133,65.088372 L279.676317,65.088372 L279.676317,67.014889 L272.844133,67.014889 L272.844133,71.702085 L274.552179,71.702085 C275.148009,70.470703 275.664395,69.179738 276.121198,67.809329 L277.988132,68.504464 C277.571051,69.696124 277.114248,70.748757 276.637584,71.702085 L280.391313,71.702085 L280.391313,73.668324 L263.211548,73.668324 L263.211548,71.702085 L267.02486,71.702085 C266.667362,70.629591 266.210559,69.596819 265.674312,68.643491 L267.561107,67.948356 C268.097354,69.000989 268.593879,70.252232 269.030821,71.702085 L270.778589,71.702085 L270.778589,67.014889 L263.926544,67.014889 L263.926544,65.088372 L270.778589,65.088372 L270.778589,62.883801 L266.508474,62.883801 L266.508474,61.791446 Z M275.723978,61.036728 C274.214542,60.043678 272.903716,58.911601 271.811361,57.660358 C270.579979,58.931462 269.20957,60.043678 267.719995,61.036728 L275.723978,61.036728 Z" id="資金" fill="#009190"></path>
                    <g id="Group-93" transform="translate(42.178986, 42.867250)">
                        <path d="M172.706191,104.995072 C172.706191,142.461721 142.330543,172.83737 104.860703,172.83737 C67.392458,172.83737 37.0168098,142.461721 37.0168098,104.995072 C37.0168098,67.5252317 67.392458,37.1511788 104.860703,37.1511788 C142.330543,37.1511788 172.706191,67.5252317 172.706191,104.995072 Z" id="Stroke-57" stroke="#009190" stroke-width="0.9"></path>
                        <path d="M160.051703,104.995085 C160.051703,135.473909 135.342914,160.18432 104.860846,160.18432 C74.3804005,160.18432 49.6716113,135.473909 49.6716113,104.995085 C49.6716113,74.5146396 74.3804005,49.8042282 104.860846,49.8042282 C135.342914,49.8042282 160.051703,74.5146396 160.051703,104.995085 Z" id="Stroke-59" stroke="#009190" stroke-width="0.75"></path>
                        <g id="outer-circles">
                            <path d="M133.759532,205.881334 C133.759532,209.130101 131.128533,211.762668 127.879766,211.762668 C124.634135,211.762668 122,209.130101 122,205.881334 C122,202.637271 124.634135,200 127.879766,200 C131.128533,200 133.759532,202.637271 133.759532,205.881334" id="Fill-43" fill="#009190"></path>
                            <path d="M160.07799,14.036334 C160.07799,17.2851006 157.446991,19.9176678 154.198224,19.9176678 C150.949458,19.9176678 148.318458,17.2851006 148.318458,14.036334 C148.318458,10.7922711 150.949458,8.15500012 154.198224,8.15500012 C157.446991,8.15500012 160.07799,10.7922711 160.07799,14.036334" id="Fill-45" fill="#009190"></path>
                            <path d="M14.387334,144.318814 C14.387334,147.566013 11.7531989,150.19858 8.50756811,150.19858 C5.25880146,150.19858 2.62466633,147.566013 2.62466633,144.318814 C2.62466633,141.073183 5.25880146,138.43748 8.50756811,138.43748 C11.7531989,138.43748 14.387334,141.073183 14.387334,144.318814" id="Fill-47" fill="#009190"></path>
                            <path d="M212.432367,133.107709 C212.432367,136.356475 209.798231,138.989042 206.549465,138.989042 C203.303834,138.989042 200.669699,136.356475 200.669699,133.107709 C200.669699,129.863646 203.303834,127.226375 206.549465,127.226375 C209.798231,127.226375 212.432367,129.863646 212.432367,133.107709" id="Fill-49" fill="#009190"></path>
                            <path d="M32.0597036,35.7990017 C32.0597036,39.0477683 29.4287044,41.6803355 26.1799377,41.6803355 C22.9311711,41.6803355 20.2970359,39.0477683 20.2970359,35.7990017 C20.2970359,32.5549388 22.9311711,29.9176678 26.1799377,29.9176678 C29.4287044,29.9176678 32.0597036,32.5549388 32.0597036,35.7990017" id="Fill-51" fill="#009190"></path>
                            <path d="M209.05158,104.995058 C209.05158,162.536799 162.402301,209.18451 104.86056,209.18451 C47.3188187,209.18451 0.672675806,162.536799 0.672675806,104.995058 C0.672675806,47.4517492 47.3188187,0.804038389 104.86056,0.804038389 C162.402301,0.804038389 209.05158,47.4517492 209.05158,104.995058 Z" id="Stroke-53" stroke="#009190"></path>
                            <path d="M188.211964,104.995058 C188.211964,151.028138 150.893482,188.34662 104.860403,188.34662 C58.8273237,188.34662 21.5088415,151.028138 21.5088415,104.995058 C21.5088415,58.960411 58.8273237,21.6419288 104.860403,21.6419288 C150.893482,21.6419288 188.211964,58.960411 188.211964,104.995058 Z" id="Stroke-55" stroke="#009190"></path>
                            <path d="M124.725858,38.3133386 C124.725858,41.5621053 122.094859,44.1946725 118.846093,44.1946725 C115.597326,44.1946725 112.963191,41.5621053 112.963191,38.3133386 C112.963191,35.0692758 115.597326,32.4320048 118.846093,32.4320048 C122.094859,32.4320048 124.725858,35.0692758 124.725858,38.3133386" id="Fill-85" fill="#7EC7C5"></path>
                            <path d="M57.3964239,171.675367 C57.3964239,174.924133 54.7654246,177.556701 51.516658,177.556701 C48.2678913,177.556701 45.6337562,174.924133 45.6337562,171.675367 C45.6337562,168.431304 48.2678913,165.794033 51.516658,165.794033 C54.7654246,165.794033 57.3964239,168.431304 57.3964239,171.675367" id="Fill-87" fill="#7EC7C5"></path>
                            <path d="M158.023051,131.642471 C158.023051,134.891238 155.392052,137.523805 152.143285,137.523805 C148.897655,137.523805 146.263519,134.891238 146.263519,131.642471 C146.263519,128.398408 148.897655,125.761137 152.143285,125.761137 C155.392052,125.761137 158.023051,128.398408 158.023051,131.642471" id="Fill-89" fill="#7EC7C5"></path>
                            <path d="M46.7626677,83.8813338 C46.7626677,87.1301005 44.1316684,89.7626677 40.8829018,89.7626677 C37.6341351,89.7626677 35,87.1301005 35,83.8813338 C35,80.637271 37.6341351,78 40.8829018,78 C44.1316684,78 46.7626677,80.637271 46.7626677,83.8813338" id="Fill-91" fill="#7EC7C5"></path>
                        </g>
                    </g>
                    <g id="DM" transform="translate(87.000000, 88.000000)">
                        <path d="M38.7598475,98.7376666 L40.4533161,95.2554989 C40.5785838,95.1835788 40.6878399,95.0873679 40.7740203,94.9711528 L52.2854628,101.661144 L44.3389696,101.661144 L38.7598475,98.7376666 Z M27.0204743,82.3346608 L28.4252621,79.7979319 C28.5024948,79.8165072 28.5820822,79.8288908 28.665437,79.8288908 C29.2399731,79.8288908 29.7057241,79.3578384 29.7057241,78.7767627 C29.7057241,78.6872199 29.6911252,78.6019637 29.6704042,78.519089 L39.0791389,73.0036324 C39.2006391,73.122229 39.3508662,73.2079615 39.5175758,73.256067 L39.5175758,93.3855781 C39.3183719,93.4760735 39.1554297,93.6289631 39.0466446,93.8190035 L34.4480013,91.671881 L27.0204743,82.3346608 Z M19.3056792,61.2768574 C19.3956271,61.3025771 19.4884005,61.3206762 19.5863542,61.3206762 C19.8656164,61.3206762 20.1180355,61.2077951 20.3045243,61.0268043 L21.0080955,61.4435594 L38.797522,71.9867499 C38.7885743,72.0210429 38.7819813,72.0558122 38.776801,72.0920104 L22.6125582,74.1824541 C22.449145,73.8185673 22.0884117,73.5637513 21.6669283,73.5637513 C21.5765095,73.5637513 21.4903291,73.5789927 21.4065033,73.6009021 L17.6329315,64.0264887 L19.3056792,61.2768574 Z M24.4218759,36.0524552 L30.1775971,34.8140971 C30.240231,34.9336463 30.3245277,35.0384304 30.4262488,35.1251155 L19.7351685,59.2316613 C19.6861916,59.224517 19.6372148,59.21642 19.5863542,59.21642 C19.4860459,59.21642 19.3913887,59.2349954 19.300028,59.2616677 L17.6277513,56.5487109 L24.4218759,36.0524552 Z M44.4152604,21.4550708 L47.5163424,21.2955131 C47.5210517,21.3164699 47.5285866,21.3359979 47.5347088,21.3560021 L39.9367046,27.1824771 L31.7156585,33.4857199 C31.5951001,33.3937956 31.4566463,33.3247333 31.3031227,33.2928218 L30.9480406,28.335579 L44.4152604,21.4550708 Z M54.0528676,21.737988 C53.8131636,21.9304098 53.6563436,22.224758 53.6563436,22.5586384 C53.6563436,22.8753723 53.7976229,23.1563843 54.0170769,23.3492824 L52.6217077,27.8907226 L49.189561,39.0607128 C49.1810843,39.0602365 49.1730784,39.0578551 49.1641307,39.0578551 C48.8010428,39.0578551 48.4826933,39.2464665 48.2962045,39.5312889 L40.5611594,37.0545727 L32.129607,34.3544757 C32.1300779,34.3439973 32.1329035,34.3339952 32.1329035,34.3235168 C32.1329035,34.1882499 32.1055895,34.0606038 32.0599092,33.9420072 L40.6440433,27.3596575 L47.8426978,21.8399144 C48.02589,22.0023298 48.2632393,22.1042562 48.525548,22.1042562 C49.0708864,22.1042562 49.5130908,21.6784515 49.5573583,21.1388132 L53.2927847,20.7558747 L54.0528676,21.737988 Z M57.6757414,25.1744317 L57.6757414,36.3048897 C57.2401301,36.4306307 56.918955,36.8316682 56.918955,37.3122464 C56.918955,37.3222486 56.9217806,37.3317744 56.9217806,37.3413002 L50.0325279,39.5331941 C49.9538824,39.412216 49.8512194,39.309337 49.7316028,39.2297963 L53.2033077,27.9312074 L54.5360431,23.5940963 C54.5887874,23.6026695 54.6415316,23.6107665 54.6966306,23.6107665 C55.0239278,23.6107665 55.3126086,23.4545428 55.5033358,23.2154445 L57.6757414,25.1744317 Z M56.9217806,55.5080137 L40.6953748,59.7389119 C40.6383921,59.6403195 40.5663396,59.5531582 40.481572,59.4783804 L45.5770477,48.5079564 L48.9969502,41.1454411 C49.0515782,41.1544906 49.1066771,41.1625876 49.1641307,41.1625876 C49.470236,41.1625876 49.7429052,41.0258919 49.9331614,40.8129896 L56.9377922,44.2980151 C56.9269608,44.3589804 56.918955,44.4218509 56.918955,44.4861502 C56.918955,44.9672047 57.2401301,45.3682423 57.6757414,45.4935069 L57.6757414,54.5263768 C57.2481359,54.64926 56.9330829,55.0388665 56.9217806,55.5080137 Z M56.918955,68.8051221 C56.918955,69.0175482 56.9825307,69.2147329 57.0894321,69.3800061 L50.3847844,77.1811859 C50.250569,77.1173628 50.1022257,77.0787832 49.9444638,77.0787832 C49.8573415,77.0787832 49.7744576,77.093072 49.6934574,77.1130762 L40.5451477,61.0020372 C40.7222179,60.8186649 40.8324158,60.5695644 40.8390088,60.2942679 L57.0654146,56.0633697 C57.1991591,56.2938949 57.4157874,56.4663124 57.6757414,56.5410902 L57.6757414,67.7977654 C57.2401301,67.9230301 56.918955,68.3245439 56.918955,68.8051221 Z M57.439334,85.0442836 L50.8580703,78.6238731 C50.9362449,78.4762227 50.9847508,78.309997 50.9847508,78.1309113 C50.9847508,77.9184853 50.9211751,77.7217769 50.8142737,77.5565037 L52.1936312,75.951401 L57.5189213,69.7548476 C57.5688401,69.7791384 57.6215843,69.7972375 57.6757414,69.8129551 L57.6757414,84.9428335 C57.5919157,84.9671244 57.5127992,85.0009411 57.439334,85.0442836 Z M56.9632225,93.5546616 L53.2814823,93.5546616 C53.1689298,93.1560056 52.8331558,92.8568945 52.4173235,92.8030735 L50.7356282,81.514963 L50.373953,79.0873048 C50.4055054,79.0725398 50.4347031,79.054917 50.4643718,79.0372942 L51.2042047,79.758876 L57.0456355,85.4577047 C56.9674609,85.6053551 56.918955,85.7715809 56.918955,85.9506665 C56.918955,86.4312447 57.2401301,86.8322822 57.6757414,86.9580232 L57.6757414,92.8340325 C57.3310198,92.9335774 57.0616471,93.2060162 56.9632225,93.5546616 Z M53.3252789,100.895744 C53.0474295,100.895744 52.7964232,101.007672 52.6099344,101.187234 L41.5105567,94.7372936 L51.3911644,94.3715017 C51.572002,94.6825201 51.9025957,94.8935173 52.2849919,94.8935173 C52.694702,94.8935173 53.0455458,94.6520374 53.215081,94.3038683 L56.9745249,94.1647911 C57.0244436,94.3200622 57.1049728,94.4605682 57.2151707,94.5748782 L53.5970062,100.936705 C53.5098839,100.912414 53.4199361,100.895744 53.3252789,100.895744 Z M22.6935583,74.7511463 L38.441498,72.7140472 L29.3873746,78.0213643 C29.2004149,77.8384683 28.946112,77.7246346 28.665437,77.7246346 C28.3828783,77.7246346 28.1271626,77.8394209 27.939732,78.024222 L22.6483489,74.9511887 C22.6695408,74.8868894 22.6850816,74.8206848 22.6935583,74.7511463 Z M20.6318215,60.5552756 L38.8050569,60.5552756 C38.9034815,60.9043974 39.1728542,61.1768362 39.5175758,61.2759048 L39.5175758,71.2408773 C39.3527499,71.2885065 39.2034647,71.3732864 39.0829063,71.4899778 L21.8199809,61.2597109 L20.6318215,60.5552756 Z M48.1271402,40.0790242 C48.1266693,40.0895026 48.1238437,40.0995048 48.1238437,40.1104595 C48.1238437,40.1904765 48.1346751,40.268112 48.1511577,40.3428898 L47.1056904,40.9211078 L38.4857655,45.6859287 C38.2969221,45.4920781 38.0350844,45.3711 37.7445198,45.3711 C37.6625778,45.3711 37.5834613,45.3830073 37.5071705,45.4011064 L33.3700398,37.8761757 L31.8267982,35.0684368 C31.8767169,35.0184262 31.9209845,34.9622238 31.9600718,34.9026873 L40.0878735,37.5051445 L48.1271402,40.0790242 Z M57.1902114,43.7836202 L50.1855805,40.2985947 C50.1968829,40.237153 50.2044178,40.1747588 50.2044178,40.1104595 C50.2044178,40.1004574 50.2015922,40.0909315 50.2015922,40.0814057 L57.0908449,37.8895118 C57.2260021,38.0976513 57.4332119,38.2500646 57.6757414,38.3200794 L57.6757414,43.4787935 C57.4859562,43.5335671 57.3187756,43.6393038 57.1902114,43.7836202 Z M39.9687279,59.2335665 C39.9574256,59.2316613 39.9451814,59.231185 39.933879,59.2297562 L38.1735382,47.3796216 C38.5333296,47.2138721 38.7848069,46.8490328 38.7848069,46.4232281 C38.7848069,46.3427348 38.7739754,46.2655756 38.7570219,46.1903215 L46.45816,41.9332274 L48.422885,40.8472826 C48.4417223,40.8663342 48.4633851,40.8820518 48.4836351,40.9001509 L45.0039244,48.3922175 L39.9687279,59.2335665 Z M40.8079273,72.5016211 C40.8281774,72.4201753 40.8418344,72.3363479 40.8418344,72.2487103 C40.8418344,72.1591675 40.8272355,72.0739113 40.8065145,71.9910365 L40.7580086,71.8357655 C40.6360375,71.5466565 40.3878567,71.3285149 40.0850479,71.2408773 L40.0850479,61.3444908 L49.176375,77.3550323 L40.8079273,72.5016211 Z M51.8555026,92.885472 C51.5644671,93.0197862 51.345955,93.2846043 51.2729607,93.6070537 L40.9633346,94.1395477 C40.9233055,93.9333134 40.8234681,93.7489886 40.6831306,93.6051485 L49.6557829,79.1368391 C49.7066435,79.1520805 49.7584459,79.1625589 49.8121321,79.1697033 L49.8747659,79.5916976 L51.8555026,92.885472 Z M40.5272523,73.0007747 L48.9376128,77.8780005 C48.9178337,77.9594464 48.9041767,78.0432737 48.9041767,78.1309113 C48.9041767,78.4019212 49.0077816,78.6462588 49.1740203,78.8324888 L40.1877109,93.3241365 C40.1542748,93.3155633 40.1198968,93.3108003 40.0850479,93.3060374 L40.0850479,73.256067 C40.2536413,73.2074852 40.4057521,73.1208002 40.5272523,73.0007747 Z M37.0098671,45.6778318 C36.8210237,45.8683484 36.7042328,46.132214 36.7042328,46.4232281 C36.7042328,46.557066 36.7310759,46.6837596 36.7762852,46.8018799 L20.2969894,59.3674044 L30.9438022,35.3604035 C30.9927791,35.3675479 31.0417559,35.3756449 31.0926165,35.3756449 C31.1745585,35.3756449 31.253204,35.3637376 31.3294949,35.3456385 L33.2447721,38.8287588 L37.0098671,45.6778318 Z M20.5823737,59.9813443 C20.573897,59.9503853 20.5658911,59.9194264 20.5541178,59.8898963 L28.0890172,54.1443909 L37.1191232,47.2591198 C37.2599316,47.367238 37.428054,47.4377292 37.6117172,47.4615438 L39.372529,59.3121546 C39.0970343,59.4388482 38.8893536,59.6831858 38.8050569,59.9813443 L20.5823737,59.9813443 Z M59,44.4861502 C59,44.0050957 58.6788249,43.6040582 58.2432135,43.4787935 L58.2432135,38.3200794 C58.6788249,38.1943384 59,37.7933009 59,37.3122464 C59,36.8316682 58.6788249,36.4306307 58.2432135,36.3048897 L58.2432135,24.9162817 L55.72797,22.6496101 C55.7303246,22.6191274 55.7369176,22.5895973 55.7369176,22.5586384 C55.7369176,21.9775626 55.2711667,21.5065103 54.6966306,21.5065103 C54.6641363,21.5065103 54.6335258,21.5131784 54.6015025,21.5160361 L53.5466166,20.1528896 L49.4471604,20.5734551 C49.2743286,20.2343355 48.9291361,20 48.525548,20 C48.066861,20 47.6816393,20.3024452 47.5436564,20.7196766 L44.3262544,20.8849498 L30.3546673,27.9959831 L30.7375343,33.3380695 C30.3598475,33.4776229 30.0876493,33.8296024 30.0593934,34.2525493 L23.9867354,35.5594934 L17.0051802,56.6225361 L18.8182654,59.5645892 C18.7123059,59.6822332 18.6346022,59.8241681 18.5898638,59.9813443 L18.5823289,60.0061115 C18.561137,60.0904151 18.5460672,60.1775764 18.5460672,60.2685481 C18.5460672,60.5424158 18.6520267,60.7900874 18.8220329,60.97727 L17,63.9712389 L20.9120256,73.8957266 C20.7745137,74.0429007 20.6798565,74.2291307 20.6445366,74.4372701 L20.628054,74.4391753 L20.6431238,74.4482248 C20.6346471,74.5029983 20.6266413,74.5587245 20.6266413,74.6158794 C20.6266413,75.1969552 21.0923922,75.6680076 21.6669283,75.6680076 C21.9179346,75.6680076 22.1449235,75.5746544 22.3248192,75.4246226 L27.659057,78.5228993 C27.638807,78.6048214 27.62515,78.6886488 27.62515,78.7767627 C27.62515,79.0668243 27.740999,79.3292609 27.9289006,79.5197776 L26.338095,82.3927684 L34.0896227,92.1372179 L38.907249,94.3857904 C38.9232606,94.7944486 39.1681449,95.1426178 39.5175758,95.3016992 L39.6098783,95.3355159 C39.6593261,95.3526624 39.7092448,95.3679037 39.7615182,95.3774295 L38.0054157,98.9886723 L44.2005158,102.235076 L52.3292594,102.235076 C52.4531143,102.675645 52.8496384,103 53.3252789,103 C53.8009194,103 54.1974435,102.675645 54.3212984,102.235076 L54.3354264,102.189828 C54.3533217,102.112192 54.365566,102.031699 54.365566,101.947872 C54.365566,101.670194 54.2572518,101.419665 54.0834782,101.231529 L57.7082357,94.8592243 C57.7892359,94.8797048 57.8721198,94.8935173 57.959242,94.8935173 C58.534249,94.8935173 59,94.4224649 59,93.8413892 C59,93.360811 58.6788249,92.9597734 58.2432135,92.8340325 L58.2432135,86.9580232 C58.6788249,86.8322822 59,86.4312447 59,85.9506665 C59,85.469612 58.6788249,85.0685745 58.2432135,84.9428335 L58.2432135,69.8129551 C58.6788249,69.6872142 59,69.2861766 59,68.8051221 C59,68.3245439 58.6788249,67.9230301 58.2432135,67.7977654 L58.2432135,56.5415665 C58.6788249,56.4158255 59,56.014788 59,55.5337335 C59,55.052679 58.6788249,54.6516415 58.2432135,54.5263768 L58.2432135,45.4939832 C58.6788249,45.3682423 59,44.9672047 59,44.4861502 Z" id="Fill-25" fill="url(#linearGradient-3)" opacity="0.85"></path>
                        <path d="M76.6607239,101.661144 L68.7141416,101.661144 L80.2261841,94.9716291 C80.3123654,95.0878442 80.4211518,95.1835788 80.5468918,95.2554989 L82.2403794,98.7376666 L76.6607239,101.661144 Z M86.551803,91.6723573 L81.9535791,93.8190035 C81.8447928,93.6294394 81.6813778,93.4765498 81.4821717,93.3855781 L81.4821717,73.2565433 C81.6488832,73.2084378 81.7995829,73.1227053 81.9206136,73.0041087 L91.3294537,78.5195653 C91.3087325,78.60244 91.2946044,78.6876962 91.2946044,78.7767627 C91.2946044,79.3578384 91.7603606,79.8288908 92.3349031,79.8288908 C92.4177879,79.8288908 92.4973762,79.8165072 92.5750807,79.7979319 L93.9798843,82.3346608 L86.551803,91.6723573 Z M103.367532,64.0264887 L99.5934473,73.6013784 C99.5100915,73.579469 99.4239101,73.5637513 99.3334903,73.5637513 C98.9120022,73.5637513 98.5507939,73.8185673 98.3873789,74.1829304 L82.2234257,72.0920104 C82.2177745,72.0562885 82.2111814,72.0210429 82.2027045,71.9867499 L99.9918595,61.4440357 L100.695439,61.0268043 C100.8824,61.2082714 101.134822,61.3206762 101.414088,61.3206762 C101.511572,61.3206762 101.604817,61.3025771 101.694295,61.2773337 L103.367532,64.0264887 Z M103.372242,56.5487109 L101.700417,59.262144 C101.608584,59.2354717 101.513926,59.21642 101.414088,59.21642 C101.362756,59.21642 101.314249,59.224517 101.265272,59.2316613 L90.5740716,35.1251155 C90.6757939,35.0384304 90.7596206,34.9336463 90.822726,34.8140971 L96.5780409,36.0529315 L103.372242,56.5487109 Z M90.051803,28.3360553 L89.6971878,33.2928218 C89.5436625,33.3247333 89.4052072,33.3937956 89.2841765,33.4857199 L81.0635091,27.1824771 L73.4649489,21.3564784 C73.471071,21.3359979 73.478606,21.3164699 73.4837863,21.2959894 L76.5849031,21.4555471 L90.051803,28.3360553 Z M67.7068084,20.7558747 L71.4422766,21.1392895 C71.4870156,21.6789278 71.929225,22.1042562 72.4740985,22.1042562 C72.7368811,22.1042562 72.9737621,22.0028061 73.1569564,21.8403907 L80.3561625,27.3601338 L88.9403929,33.9420072 C88.8947121,34.0606038 88.8669268,34.1887262 88.8669268,34.3235168 C88.8669268,34.3344715 88.8697524,34.3439973 88.8702234,34.3544757 L80.4390474,37.0545727 L72.7034446,39.5317652 C72.5174247,39.2469428 72.1986006,39.0583314 71.8355086,39.0583314 C71.8270318,39.0583314 71.8190258,39.0607128 71.810078,39.0607128 L68.3783638,27.8907226 L66.982979,23.3492824 C67.2019645,23.1563843 67.3432454,22.8753723 67.3432454,22.5586384 C67.3432454,22.224758 67.1868945,21.9308861 66.9467169,21.737988 L67.7068084,20.7558747 Z M65.4967034,23.2159208 C65.6874327,23.4545428 65.9756459,23.6107665 66.3029467,23.6107665 C66.3580463,23.6107665 66.4112621,23.6026695 66.464007,23.5945726 L67.7962863,27.9312074 L71.2685011,39.2302726 C71.1484123,39.309337 71.0457481,39.412216 70.9671017,39.5331941 L64.0777718,37.3417765 C64.0782427,37.3317744 64.0805974,37.3227248 64.0805974,37.3127227 C64.0805974,36.8316682 63.7598897,36.4306307 63.3242734,36.3048897 L63.3242734,25.1744317 L65.4967034,23.2159208 Z M63.3242734,54.5263768 L63.3242734,45.4939832 C63.7598897,45.3682423 64.0805974,44.9672047 64.0805974,44.4866265 C64.0805974,44.4218509 64.0730624,44.3594567 64.06176,44.2980151 L71.0664693,40.8129896 C71.2567277,41.0263682 71.5293999,41.1625876 71.8355086,41.1625876 C71.8929629,41.1625876 71.9480624,41.1544906 72.0026911,41.1454411 L75.4226319,48.5084327 L80.5181647,59.4783804 C80.4333961,59.5531582 80.3618138,59.6403195 80.3043595,59.7389119 L64.0782427,55.5080137 C64.0664693,55.0388665 63.7518837,54.6497363 63.3242734,54.5263768 Z M63.3242734,67.7977654 L63.3242734,56.5415665 C63.5837594,56.4667887 63.8003902,56.2943712 63.9346071,56.0633697 L80.1607239,60.2947442 C80.1677879,60.5700407 80.2775161,60.8186649 80.4545883,61.0025134 L71.306176,77.1135525 C71.2256459,77.093072 71.1422901,77.0792595 71.0556378,77.0792595 C70.8974031,77.0792595 70.7490581,77.1173628 70.6148412,77.1811859 L63.9101184,69.3804824 C64.0174919,69.2147329 64.0805974,69.0180245 64.0805974,68.8055984 C64.0805974,68.3245439 63.7598897,67.9235064 63.3242734,67.7977654 Z M63.3242734,84.9433098 L63.3242734,69.8129551 C63.3779602,69.7972375 63.4307051,69.7791384 63.4810953,69.7553238 L68.8064451,75.9518773 L70.1853471,77.5565037 C70.0784446,77.7217769 70.0153391,77.9189616 70.0153391,78.1313876 C70.0153391,78.3104733 70.0633746,78.4762227 70.1415501,78.6238731 L63.5606835,85.0442836 C63.4867465,85.0009411 63.4081001,84.9671244 63.3242734,84.9433098 Z M63.3242734,92.8340325 L63.3242734,86.9580232 C63.7598897,86.8327585 64.0805974,86.431721 64.0805974,85.9506665 C64.0805974,85.7715809 64.032091,85.6053551 63.9543864,85.458181 L69.7958827,79.758876 L70.535253,79.0372942 C70.564922,79.054917 70.594591,79.0725398 70.6261437,79.0873048 L70.2644645,81.514963 L68.5827503,92.8030735 C68.1669133,92.8568945 67.8306647,93.1560056 67.7185818,93.5546616 L64.0363294,93.5546616 C63.9383746,93.2060162 63.6689989,92.9335774 63.3242734,92.8340325 Z M67.4030544,100.936705 L63.7848493,94.5748782 C63.8945775,94.4605682 63.9755786,94.3200622 64.0254978,94.1652674 L67.7845129,94.3043446 C67.9540501,94.6525137 68.3048977,94.8939936 68.7146125,94.8939936 C69.0974839,94.8939936 69.4280813,94.6829964 69.6089209,94.3715017 L79.4891685,94.7372936 L68.3901372,101.187234 C68.2036464,101.007672 67.9521663,100.895744 67.6743138,100.895744 C67.5796555,100.895744 67.4901776,100.91289 67.4030544,100.936705 Z M98.3520587,74.951665 L93.0606163,78.0246983 C92.8727126,77.8394209 92.617465,77.7246346 92.3349031,77.7246346 C92.053754,77.7246346 91.7999193,77.8384683 91.6124865,78.0218406 L82.5582616,72.7140472 L98.3063778,74.7516225 C98.3153256,74.8206848 98.3303956,74.8873656 98.3520587,74.951665 Z M99.179965,61.2597109 L81.9168461,71.4904541 C81.7962863,71.3732864 81.6474704,71.2889827 81.4821717,71.2413536 L81.4821717,61.2763811 C81.8273681,61.1768362 82.0967438,60.9043974 82.1946986,60.5557519 L100.368609,60.5557519 L99.179965,61.2597109 Z M80.9118676,37.5051445 L89.0397605,34.9026873 C89.0793192,34.9627001 89.1235872,35.0184262 89.1735065,35.0689131 L87.6297766,37.8761757 L83.4930705,45.4011064 C83.4163079,45.3830073 83.3376615,45.3711 83.2557185,45.3711 C82.9651507,45.3711 82.7028391,45.4920781 82.5144645,45.686405 L73.8944429,40.921584 L72.848493,40.3433661 C72.8654467,40.268112 72.8762783,40.1904765 72.8762783,40.1104595 C72.8762783,40.0995048 72.8734526,40.0899789 72.8729817,40.0790242 L80.9118676,37.5051445 Z M63.3242734,43.4787935 L63.3242734,38.3200794 C63.5663348,38.2505408 63.7735468,38.0976513 63.9087056,37.8899881 L70.7985065,40.0814057 C70.7980355,40.0914078 70.7952099,40.1004574 70.7952099,40.1104595 C70.7952099,40.1747588 70.8032158,40.2376293 70.8140474,40.2985947 L63.8098089,43.7836202 C63.6807723,43.6393038 63.5140608,43.5335671 63.3242734,43.4787935 Z M75.9962325,48.3922175 L72.5164828,40.9001509 C72.536733,40.8825281 72.5583961,40.8668105 72.5772336,40.8472826 L74.5419806,41.9332274 L82.2427341,46.1907978 C82.2257804,46.2655756 82.2154198,46.3432111 82.2154198,46.4232281 C82.2154198,46.8490328 82.4668999,47.2138721 82.8266954,47.3796216 L81.0663348,59.2297562 C81.0545614,59.231185 81.0427879,59.2316613 81.0314855,59.2335665 L75.9962325,48.3922175 Z M71.8232643,77.3550323 L80.9146932,61.3444908 L80.9146932,71.2413536 C80.612352,71.3285149 80.3641685,71.5466565 80.241725,71.8357655 L80.1932185,71.9910365 C80.1724973,72.0739113 80.1583692,72.1591675 80.1583692,72.2487103 C80.1583692,72.3363479 80.1720264,72.4201753 80.1918057,72.5016211 L71.8232643,77.3550323 Z M71.1248654,79.5916976 L71.1879709,79.1697033 C71.2416577,79.1630352 71.2934607,79.1520805 71.3443219,79.1373154 L80.3166039,93.6051485 C80.1762648,93.7489886 80.0768972,93.9337897 80.0368676,94.1395477 L69.7271259,93.6070537 C69.6541308,93.2846043 69.4356163,93.0197862 69.1441066,92.8859483 L71.1248654,79.5916976 Z M80.9146932,73.2565433 L80.9146932,93.3060374 C80.8803149,93.3112766 80.8459365,93.3160395 80.8120291,93.3241365 L71.8256189,78.8329651 C71.9918595,78.6462588 72.0959365,78.4019212 72.0959365,78.1313876 C72.0959365,78.04375 72.0822793,77.9599226 72.0620291,77.8784768 L80.4724839,73.0007747 C80.5944564,73.1212765 80.7465689,73.2079615 80.9146932,73.2565433 Z M87.7555167,38.8292351 L89.6703445,35.3456385 C89.7471071,35.3637376 89.8257535,35.3756449 89.9076964,35.3756449 C89.9585576,35.3756449 90.007535,35.3675479 90.0565124,35.3604035 L100.703445,59.3674044 L84.2239639,46.8018799 C84.2687029,46.6842359 84.2960172,46.557066 84.2960172,46.4232281 C84.2960172,46.132214 84.178754,45.8688247 83.9899085,45.6783081 L87.7555167,38.8292351 Z M82.1946986,59.9818206 C82.1108719,59.6831858 81.902718,59.4388482 81.6276911,59.3121546 L83.3880517,47.4620201 C83.5721878,47.4382055 83.7398412,47.367238 83.8806512,47.2595961 L92.9108584,54.1448672 L100.445842,59.8898963 C100.43454,59.9194264 100.426534,59.9508616 100.417586,59.9818206 L82.1946986,59.9818206 Z M62.7567949,45.4939832 L62.7567949,54.5263768 C62.3207078,54.6521178 62,55.0531553 62,55.5337335 C62,56.014788 62.3207078,56.4158255 62.7567949,56.5415665 L62.7567949,67.7977654 C62.3207078,67.9235064 62,68.3245439 62,68.8055984 C62,69.2861766 62.3207078,69.6872142 62.7567949,69.8129551 L62.7567949,84.9433098 C62.3207078,85.0685745 62,85.469612 62,85.9506665 C62,86.431721 62.3207078,86.8327585 62.7567949,86.9580232 L62.7567949,92.8340325 C62.3207078,92.9597734 62,93.360811 62,93.8418655 C62,94.4229412 62.4657562,94.8939936 63.0402987,94.8939936 C63.127422,94.8939936 63.2107777,94.8797048 63.2917788,94.8592243 L66.916106,101.232006 C66.7428014,101.419665 66.6340151,101.67067 66.6340151,101.947872 C66.6340151,102.031699 66.6462594,102.112192 66.6646259,102.190304 L66.6782831,102.235076 C66.8026103,102.675645 67.1991389,103 67.6743138,103 C68.1499596,103 68.5464882,102.675645 68.6708154,102.235076 L76.7991792,102.235076 L82.9943488,98.9891486 L81.2382266,95.3774295 C81.2905005,95.36838 81.3404198,95.3526624 81.3898681,95.3359921 L81.4821717,95.3021754 C81.8320775,95.1426178 82.0764935,94.7949249 82.0929763,94.3857904 L86.9106566,92.1372179 L94.6618003,82.3927684 L93.0714478,79.5197776 C93.2588805,79.3292609 93.3752018,79.0668243 93.3752018,78.7767627 C93.3752018,78.6891251 93.3615447,78.6048214 93.3412944,78.5233756 L98.675592,75.4250988 C98.8550188,75.5746544 99.0824812,75.6684838 99.3334903,75.6684838 C99.9080328,75.6684838 100.373789,75.1974315 100.373789,74.6163557 C100.373789,74.5587245 100.365783,74.5034746 100.356835,74.4482248 L100.371905,74.4396516 L100.355893,74.4372701 C100.320573,74.2291307 100.225444,74.0429007 100.087931,73.8957266 L104,63.9717152 L102.178418,60.97727 C102.347955,60.7900874 102.454386,60.5428921 102.454386,60.2685481 C102.454386,60.1775764 102.439316,60.0908914 102.417653,60.0061115 L102.410118,59.9818206 C102.36585,59.8241681 102.287675,59.6822332 102.182185,59.5645892 L103.995291,56.6230123 L97.0131862,35.5594934 L90.9409311,34.2525493 C90.912204,33.8300787 90.6400027,33.4776229 90.2627826,33.3385458 L90.6456539,27.9964594 L76.6734392,20.8854261 L73.456472,20.7196766 C73.3180167,20.3024452 72.9332616,20 72.4740985,20 C72.0709769,20 71.7253095,20.2343355 71.5524758,20.5734551 L67.4529736,20.1528896 L66.3980759,21.5160361 C66.3665231,21.5131784 66.3354413,21.5065103 66.3029467,21.5065103 C65.7284042,21.5065103 65.262648,21.9775626 65.262648,22.5586384 C65.262648,22.5895973 65.2692411,22.6191274 65.2720667,22.6496101 L62.7567949,24.916758 L62.7567949,36.3048897 C62.3207078,36.4306307 62,36.8316682 62,37.3127227 C62,37.7937772 62.3207078,38.1948147 62.7567949,38.3200794 L62.7567949,43.4787935 C62.3207078,43.6045345 62,44.005572 62,44.4866265 C62,44.9672047 62.3207078,45.3682423 62.7567949,45.4939832 Z" id="Fill-27" fill="url(#linearGradient-3)" opacity="0.85"></path>
                        <path d="M41.9798051,69.3661021 C42.8944907,69.3661021 43.7626669,69.2276183 44.5843337,68.9518276 C45.4051845,68.6756446 46.1179212,68.1923243 46.7237678,67.5018668 C47.3292065,66.8114093 47.8069482,65.8996916 48.1569929,64.7671059 C48.5070376,63.6349125 48.68206,62.2128054 48.68206,60.5 C48.68206,58.7879792 48.5070376,57.3588106 48.1569929,56.2121019 C47.8069482,55.0665702 47.3292065,54.1552447 46.7237678,53.4781256 C46.1179212,52.8013988 45.4051845,52.32514 44.5843337,52.048957 C43.7626669,51.7731663 42.8944907,51.6346825 41.9798051,51.6346825 L35.317532,51.6346825 L35.317532,69.3661021 L41.9798051,69.3661021 Z M29,46 L42.7908644,46 C44.4672441,46 46.0424454,46.2557831 47.5160602,46.7665648 C48.989675,47.2785233 50.2813319,48.0992262 51.3898068,49.2314196 C52.4986898,50.3640053 53.3766574,51.8559428 54.0261576,53.7056627 C54.6752499,55.5565596 55,57.8213387 55,60.5 C55,63.1794459 54.6752499,65.4371635 54.0261576,67.2735451 C53.3766574,69.1111036 52.4986898,70.6018641 51.3898068,71.7477882 C50.2813319,72.8944969 48.989675,73.7230459 47.5160602,74.2334352 C46.0424454,74.7450015 44.4672441,75 42.7908644,75 L29,75 L29,46 Z" id="Fill-30" fill="#4BC8C8"></path>
                        <path d="M93.3853585,48.5343826 C90.8437901,45.9342699 87.5132048,45.9888456 87.1756399,46.0027883 C84.7397654,46.0661279 82.6725903,46.9915242 81.1404392,48.6602651 C81.1019306,48.6196322 81.0695669,48.5746172 81.030239,48.5343826 C78.4886706,45.9342699 75.1589047,45.9888456 74.8205205,46.0027883 C71.3141885,46.0936149 68.5681967,47.9687077 67.0888925,51.281491 C66.0823429,53.5350282 66.0065547,55.7136733 66.001229,55.9546826 L66,55.9925271 L66.0630886,75 L71.4039053,74.9808786 L71.3416361,56.0538749 C71.3592517,55.4790377 71.6062804,51.6985767 74.9880739,51.6101402 C74.9966769,51.6009778 76.4026509,51.6316517 77.304326,52.5538612 C77.9843717,53.2498006 78.3207075,54.4054505 78.3035015,56.0028845 L78.192482,74.9111651 L78.4177984,74.9127586 L78.4177984,75 L83.7586151,74.9808786 L83.6963459,56.0686143 C83.8659476,51.9117006 86.7332006,51.6260747 87.3427837,51.6101402 C87.3526157,51.6009778 88.7573607,51.6316517 89.6590358,52.5538612 C90.3394911,53.2498006 90.675827,54.4054505 90.658621,56.0028845 L90.5476015,74.9111651 L95.8884182,74.9458227 L95.9990281,56.0518831 C96.03344,52.873348 95.153887,50.3441438 93.3853585,48.5343826" id="Fill-32" fill="#4BC8C8"></path>
                    </g>
                    <g id="運營" transform="translate(238.000000, 209.000000)" stroke="#009190" stroke-width="1.2">
                        <path d="M17.1137158,11.71859 C17.9928425,13.0157993 19.9960701,12.9999911 20.0004136,12.9999911 C20.0030197,12.9999911 22.007116,13.0157993 22.8862428,11.71859 C23.7471268,10.4464879 24.855591,8.14777706 24.9763406,6.59205572 C25.0962215,5.03726427 24.7565589,2.73762356 24.0476978,1.78261709 C22.7159771,-0.00650895466 20.0030197,3.39689745e-07 20.0004136,3.39689745e-07 C19.9960701,3.39689745e-07 17.2839814,-0.00650895466 15.9531295,1.78261709 C15.2442684,2.73762356 14.903737,5.03726427 15.023618,6.59205572 C15.1434989,8.14777706 16.2528318,10.4464879 17.1137158,11.71859 Z" id="Stroke-1"></path>
                        <path d="M14.4182945,14 C13.1346187,14.1995181 11.3081366,14.5621205 9.24715475,15.210988 C7.62247325,15.7245301 6.40980126,17.0916627 5.8100051,18.622747 C5.40453542,19.6567711 5.18218108,20.638747 5.0588585,21.4116627 C5.03550195,21.56 5.01681671,21.6987952 5,21.8297831 C5.03269917,22.4795181 5.60540173,23 6.31357228,23 L16,23 L14.4182945,14 Z" id="Stroke-3"></path>
                        <path d="M20.9842018,16 C20.4824334,16.0752294 20.1136524,16.0834862 20.0051875,16.0834862 L20.0004716,16.0834862 L19.9957557,16.0834862 C19.8872907,16.0834862 19.5175666,16.0752294 19.0157982,16 L18,23 L20.0004716,23 L22,23 L20.9842018,16 Z" id="Stroke-5"></path>
                        <path d="M34.9402022,21.4116627 C34.8178034,20.638747 34.5963646,19.6567711 34.1908604,18.622747 C33.5910133,17.0916627 32.377304,15.7245301 30.7515502,15.210988 C28.692262,14.5621205 26.8646904,14.1995181 25.5809055,14 L24,23 L33.6863161,23 C34.3945468,23 34.9682324,22.4803855 35,21.8297831 C34.9831819,21.6987952 34.9635607,21.56 34.9402022,21.4116627 Z" id="Stroke-7"></path>
                        <polygon id="Stroke-9" points="0 41 10 41 10 32 0 32"></polygon>
                        <polygon id="Stroke-11" points="15 41 25 41 25 32 15 32"></polygon>
                        <polygon id="Stroke-12" points="30 41 40 41 40 32 30 32"></polygon>
                        <path d="M20,32 L20,23" id="Stroke-13"></path>
                        <polyline id="Stroke-14" points="5 32 5 28 35 28 35 32"></polyline>
                        <path d="M14,14 L17,11" id="Stroke-15"></path>
                        <path d="M26,14 L23,11" id="Stroke-16"></path>
                        <path d="M16,23 L25,23" id="Stroke-17"></path>
                        <path d="M20,17 L14,14" id="Stroke-18"></path>
                        <path d="M20,17 L26,14" id="Stroke-19"></path>
                        <path d="M15,3 L25,3" id="Stroke-20"></path>
                    </g>
                </g>
            </g>
        </g>
    </g>
</svg>