<svg width="361" height="296" viewBox="0 0 361 296" fill="none" xmlns="http://www.w3.org/2000/svg">
<path d="M12.7801 237.64V242.96H9.08006V256H11.1601V251.78H16.4401V253.08C16.4401 253.74 16.2201 254.08 15.7801 254.08L14.0001 253.98L14.5401 255.96H16.4401C17.8201 255.96 18.5201 255.14 18.5201 253.54V242.96H14.8401V237.64H12.7801ZM11.1601 248.36H16.4401V250.02H11.1601V248.36ZM16.4401 246.6H11.1601V244.94H16.4401V246.6ZM10.3001 238.4L8.56006 239.24C9.20006 240.2 9.80006 241.3 10.3601 242.5L12.0401 241.66C11.4801 240.46 10.9001 239.38 10.3001 238.4ZM17.3201 238.18C16.8801 239.32 16.2801 240.46 15.5201 241.62L17.2001 242.5C17.9601 241.38 18.5601 240.22 19.0401 239.02L17.3201 238.18ZM3.16006 237.62C2.66006 239.9 1.80006 242.06 0.560059 244.08L2.26006 245.16C2.46006 244.84 2.66006 244.5 2.86006 244.14V245.54H3.82006V247.42H1.30006V249.34H3.82006V253.06C3.82006 253.42 3.56006 253.7 3.06006 253.88L3.92006 255.68C5.70006 255.2 7.28006 254.6 8.66006 253.88L8.30006 252.06C7.50006 252.54 6.68006 252.92 5.86006 253.24V249.34H8.38006V247.42H5.86006V245.54H7.70006V243.68H3.10006C3.42006 243.04 3.74006 242.34 4.04006 241.6H8.04006V239.62H4.72006C4.88006 239.12 5.02006 238.6 5.16006 238.04L3.16006 237.62Z" fill="#0F9696"/>
<path d="M39.7801 249.98H25.7401V256.18H27.8001V255.36H37.7201V256.18H39.7801V249.98ZM27.8001 253.56V251.74H37.7201V253.56H27.8001ZM25.8001 243.6V248.94H40.8801V247.2H34.7401V246.2H39.6601V244.6H34.7401V243.66H39.6201V242.06H34.7401V241.08H40.5001V239.36H34.9401C34.6801 238.64 34.4201 238 34.1601 237.4L32.0001 237.76C32.3201 238.24 32.6001 238.78 32.8801 239.36H28.7401C28.9801 238.88 29.1801 238.4 29.3801 237.88L27.3401 237.48C26.5401 239.64 25.1401 241.64 23.1401 243.48L23.8001 245.54C24.5001 244.92 25.1601 244.28 25.8001 243.6ZM32.6801 247.2H27.7601V246.2H32.6801V247.2ZM32.6801 244.6H27.7601V243.66H32.6801V244.6ZM32.6801 242.06H27.7601V241.08H32.6801V242.06Z" fill="#0F9696"/>
<path d="M321.8 237.72L320.34 239.1C321.78 240.26 322.88 241.34 323.66 242.34L325.16 240.86C324.24 239.82 323.12 238.76 321.8 237.72ZM333.18 255.76H337.76L338.28 253.7C337.72 253.74 336.94 253.78 335.92 253.82C334.88 253.82 333.88 253.84 332.88 253.84C331.36 253.84 330.02 253.82 328.88 253.8C327.72 253.76 326.86 253.6 326.28 253.3C325.82 253.04 325.36 252.64 324.92 252.12L324.72 251.92V244.3H320.14V246.22H322.78V251.7C321.98 252.14 321.1 253.16 320.1 254.76L321.64 256.2C322.64 254.4 323.32 253.5 323.7 253.5C323.94 253.5 324.18 253.66 324.44 254C325.02 254.68 325.7 255.14 326.5 255.38C327.34 255.58 328.38 255.7 329.66 255.72C330.92 255.74 332.1 255.76 333.18 255.76ZM327.12 238.5V240.42H336.56V238.5H327.12ZM325.84 243V244.98H329.82C328.34 248.46 327.2 250.32 326.4 250.56L326.92 252.38C330.38 252.02 333.18 251.56 335.34 251C335.54 251.54 335.72 252.1 335.92 252.7L337.78 252.24C336.98 249.88 336.06 247.8 335.02 245.96L333.32 246.52C333.78 247.38 334.22 248.28 334.62 249.22C333.14 249.6 331.36 249.92 329.26 250.2C330.14 248.92 331.02 247.18 331.9 244.98H338.02V243H325.84Z" fill="#0F9696"/>
<path d="M346.18 244.8V249.18H356.74V244.8H346.18ZM354.82 247.64H348.1V246.36H354.82V247.64ZM358.6 250.12H344.38V256.1H346.42V255.36H356.58V256.1H358.6V250.12ZM346.42 253.6V251.84H356.58V253.6H346.42ZM342.72 238.76V240.58H346.98V241.54H349.06V240.58H353.74V241.54H355.82V240.58H360.08V238.76H355.82V237.6H353.74V238.76H349.06V237.6H346.98V238.76H342.72ZM359.74 242.06H343.06V246.26H345.06V243.82H357.74V246.16H359.74V242.06Z" fill="#0F9696"/>
<path d="M321.52 45.8L320.48 47.34C321.58 47.7 322.66 48.22 323.7 48.88L324.82 47.2C323.82 46.64 322.72 46.18 321.52 45.8ZM327.48 45.48C327.04 46.84 326.22 47.96 324.98 48.88L326.22 50.5C326.92 49.94 327.54 49.32 328.06 48.64H330.06C329.8 49.5 329.36 50.2 328.76 50.74C327.94 51.42 326.6 51.96 324.74 52.34L325.52 54.2C327.82 53.66 329.44 52.92 330.36 51.96C330.54 51.76 330.72 51.54 330.92 51.3C332.18 52.74 334.2 53.74 337 54.32L337.74 52.5C334.82 51.98 332.84 51.02 331.78 49.66C331.88 49.34 331.98 49 332.06 48.64H334.76C334.56 49.28 334.32 49.86 334.04 50.36L336.04 50.96C336.4 50 336.68 49.02 336.9 48.06V46.82H329.12C329.28 46.48 329.42 46.12 329.54 45.74L327.48 45.48ZM335.58 54.42H322.38V60.64H324.46V56.36H333.48V60.4H335.58V54.42ZM328.08 56.82C327.94 58.7 327.44 60.04 326.56 60.82C325.56 61.6 323.5 62.06 320.38 62.2L321.22 64.1C325 63.78 327.38 63.1 328.36 62.04C329.28 61.24 329.9 59.54 330.18 56.98L328.08 56.82ZM323.96 49.66C322.92 50.58 321.62 51.46 320.08 52.26L321.44 53.88C322.92 53 324.16 52.08 325.16 51.08L323.96 49.66ZM330.52 60.24L329.46 61.82C331.86 62.4 334.18 63.22 336.46 64.26L337.58 62.52C335.46 61.62 333.1 60.86 330.52 60.24Z" fill="#0F9696"/>
<path d="M346.08 51.72V52.82H350.38V55.04H343.48V56.98H350.38V61.7H348.62C348.18 60.24 347.68 58.98 347.14 57.92L345.24 58.62C345.78 59.58 346.24 60.62 346.6 61.7H342.76V63.68H360.06V61.7H356.28C356.76 60.74 357.22 59.68 357.64 58.48L355.76 57.78C355.3 59.16 354.78 60.46 354.18 61.7H352.46V56.98H359.34V55.04H352.46V52.82H356.76V51.8C357.56 52.26 358.44 52.68 359.38 53.08L360.58 51.32C356.88 49.8 354.1 47.88 352.26 45.6H350.58C348.46 47.94 345.66 49.86 342.2 51.34L343.42 53.1C344.34 52.68 345.22 52.22 346.08 51.72ZM355.36 50.96H347.3C348.8 49.96 350.18 48.84 351.42 47.56C352.52 48.82 353.84 49.96 355.36 50.96Z" fill="#0F9696"/>
<path d="M54.2482 76.6512C42.3873 97.8985 35.6284 122.382 35.6284 148.442H36.6284C36.6284 122.557 43.3415 98.2408 55.1214 77.1386L54.2482 76.6512ZM35.6284 148.442C35.6284 173.224 41.7402 196.579 52.539 217.082L53.4238 216.616C42.6988 196.253 36.6284 173.058 36.6284 148.442H35.6284ZM100.924 270.93C124.413 286.725 152.695 295.942 183.128 295.942V294.942C152.9 294.942 124.812 285.788 101.482 270.1L100.924 270.93ZM183.128 295.942C213.674 295.942 242.052 286.657 265.592 270.755L265.033 269.926C241.652 285.72 213.468 294.942 183.128 294.942V295.942ZM313.285 217.899C324.353 197.2 330.628 173.553 330.628 148.442H329.628C329.628 173.385 323.396 196.87 312.403 217.427L313.285 217.899ZM330.628 148.442C330.628 123.285 324.33 99.5963 313.223 78.8703L312.341 79.3427C323.372 99.927 329.628 123.453 329.628 148.442H330.628ZM266.113 26.4835C242.471 10.3655 213.899 0.942383 183.128 0.942383V1.94238C213.692 1.94238 242.069 11.3014 265.55 27.3098L266.113 26.4835ZM183.128 0.942383C152.51 0.942383 124.07 10.272 100.497 26.2436L101.057 27.0714C124.47 11.2085 152.717 1.94238 183.128 1.94238V0.942383Z" fill="#4BC8C8"/>
<path fill-rule="evenodd" clip-rule="evenodd" d="M309.388 46.4069C308.454 44.2344 307.059 41.9738 305.239 39.6882C305.033 39.4299 304.657 39.387 304.399 39.5928C304.14 39.7985 304.098 40.1747 304.303 40.4331C306.057 42.6355 307.398 44.8042 308.289 46.879C309.368 49.3921 309.79 51.7802 309.543 53.9771C309.287 56.2496 308.281 58.1692 306.554 59.6826C305.145 60.9181 303.251 61.8959 300.926 62.5889C296.904 63.7875 292.958 63.709 292.919 63.7081C292.909 63.7079 292.899 63.7079 292.89 63.7081L292.886 63.7081C292.747 63.7103 288.852 63.7718 284.882 62.5889C282.557 61.8959 280.663 60.9181 279.254 59.6826C277.527 58.1693 276.521 56.2496 276.265 53.9771C275.87 50.4677 277.161 46.5435 280.102 42.3134C282.326 39.1156 285.032 36.4411 286.753 34.8824H299.055C299.829 35.5828 300.823 36.5275 301.877 37.6436C302.104 37.8839 302.482 37.8946 302.722 37.668C302.962 37.4413 302.973 37.0628 302.747 36.8228C301.912 35.9385 301.113 35.1595 300.428 34.5196C300.889 34.1798 301.189 33.633 301.189 33.0173C301.189 31.9888 300.353 31.1521 299.324 31.1521H299.153C299.826 30.1672 300.702 28.8107 301.349 27.5399C302.241 25.7872 302.503 24.6152 302.171 23.8513C301.974 23.3979 301.569 23.1044 301.029 23.0248C300.229 22.9065 299.173 23.2279 297.837 23.6347L297.836 23.635C296.327 24.0942 294.616 24.6146 292.904 24.6146C291.192 24.6146 289.481 24.0942 287.972 23.635L287.971 23.6347C286.635 23.228 285.579 22.9066 284.778 23.0248C284.239 23.1044 283.834 23.3979 283.637 23.8513C283.305 24.6152 283.567 25.7872 284.459 27.5399C285.106 28.8108 285.982 30.1672 286.655 31.1521H286.484C285.455 31.1521 284.619 31.9888 284.619 33.0173C284.619 33.6327 284.918 34.1794 285.379 34.5192C281.237 38.382 274.187 46.2169 275.077 54.1109C275.596 58.724 278.878 62.0546 284.567 63.7428C288.684 64.9643 292.592 64.9102 292.904 64.9038C292.94 64.9045 293.023 64.9059 293.148 64.9059C294.114 64.9059 297.596 64.8243 301.24 63.7428C306.93 62.0547 310.211 58.724 310.731 54.1109C311.002 51.7052 310.55 49.1132 309.388 46.4069ZM284.734 24.3278C284.75 24.2905 284.775 24.2343 284.953 24.2079C285.488 24.1293 286.525 24.4446 287.623 24.7788C289.134 25.2385 291.014 25.8105 292.904 25.8105C294.795 25.8105 296.674 25.2385 298.185 24.7788C299.283 24.4446 300.321 24.1294 300.855 24.2079C301.033 24.2343 301.058 24.2905 301.074 24.3277L301.074 24.3278C301.127 24.45 301.492 25.6676 298.008 30.7075C297.91 30.85 297.826 30.999 297.758 31.1522H288.05C287.982 30.999 287.899 30.85 287.8 30.7075C284.316 25.6677 284.681 24.45 284.734 24.3278ZM299.325 32.3481H286.484C286.115 32.3481 285.815 32.6483 285.815 33.0174C285.815 33.3864 286.115 33.6866 286.484 33.6866H299.325C299.694 33.6866 299.994 33.3864 299.994 33.0174C299.994 32.6483 299.694 32.3481 299.325 32.3481Z" fill="#0F9696"/>
<path d="M299.78 42.1465C297.943 40.3098 295.501 39.2983 292.904 39.2983C290.307 39.2983 287.865 40.3098 286.028 42.1465C284.686 43.4887 283.772 45.1762 283.386 47.0266C283.318 47.3499 283.526 47.6667 283.849 47.7341C284.172 47.8017 284.489 47.5943 284.556 47.271C284.895 45.6489 285.696 44.1693 286.874 42.992C290.199 39.6669 295.609 39.6668 298.934 42.992C302.259 46.3171 302.259 51.7275 298.934 55.0527C295.609 58.3779 290.199 58.378 286.874 55.0529C285.725 53.904 284.932 52.4628 284.581 50.885C284.509 50.5627 284.189 50.3594 283.867 50.4313C283.545 50.5031 283.341 50.8226 283.413 51.145C283.814 52.9449 284.718 54.5886 286.028 55.8984C287.924 57.7941 290.414 58.742 292.904 58.742C295.394 58.742 297.884 57.7942 299.78 55.8984C303.571 52.107 303.571 45.9379 299.78 42.1465Z" fill="#0F9696"/>
<path fill-rule="evenodd" clip-rule="evenodd" d="M293.542 48.5381L293.488 48.5184V45.1909L293.576 45.1971C294.264 45.2463 294.688 45.4585 294.998 45.6134L294.998 45.6134C295.181 45.7048 295.325 45.7769 295.451 45.7769C295.85 45.7769 296.059 45.2484 296.059 44.9651C296.059 44.5798 295.607 44.3372 295.228 44.2015C294.78 44.0415 294.16 43.9356 293.567 43.9181L293.488 43.9158V43.4131C293.488 43.275 293.292 43.1343 293.1 43.1343C292.869 43.1343 292.727 43.279 292.727 43.4131V43.9414L292.653 43.9491C291.78 44.0411 289.748 44.5013 289.748 46.7837C289.748 48.7396 291.301 49.292 292.672 49.7794L292.672 49.7794L292.727 49.7988V53.6293L292.638 53.6224C291.611 53.5419 291.061 53.0739 290.659 52.7323C290.441 52.5465 290.268 52.3998 290.105 52.3998C289.776 52.3998 289.466 52.8571 289.466 53.2116C289.466 53.9116 290.705 54.9484 292.646 54.9798L292.727 54.9811V55.5475C292.727 55.6815 292.869 55.8262 293.1 55.8262C293.292 55.8262 293.488 55.6856 293.488 55.5476V54.9433L293.559 54.9335C295.327 54.6879 296.341 53.5403 296.341 51.785C296.341 49.7391 294.958 49.0592 293.542 48.5381ZM292.821 48.282L292.71 48.2402C291.858 47.9186 291.152 47.5752 291.152 46.6272C291.152 45.8414 291.697 45.358 292.729 45.2291L292.821 45.2177V48.282ZM293.394 53.6079L293.491 53.59C294.424 53.4172 294.938 52.8374 294.938 51.9574C294.938 50.8864 294.251 50.4444 293.508 50.1263L293.394 50.0773V53.6079Z" fill="#0F9696"/>
<path fill-rule="evenodd" clip-rule="evenodd" d="M63.714 44.1752C63.714 45.926 62.3259 47.3455 60.6126 47.3455C58.9014 47.3455 57.5122 45.926 57.5122 44.1752C57.5122 42.4243 58.9014 41.0049 60.6126 41.0049C62.3259 41.0049 63.714 42.4243 63.714 44.1752Z" stroke="#0F9696" stroke-width="1.5"/>
<path d="M60.6128 50.0908V55.5354" stroke="#0F9696" stroke-width="1.5"/>
<path d="M55.6479 56.5361V64.1281H65.5782V56.5361" stroke="#0F9696" stroke-width="1.5"/>
<path d="M51.687 64.1279V54.3187C51.687 51.9839 52.9075 50.0913 55.1908 50.0913H66.0365" stroke="#0F9696" stroke-width="1.5"/>
<path d="M66.0361 50.0908V50.0908C68.3195 50.0908 69.54 51.9834 69.54 54.3182V64.1274" stroke="#0F9696" stroke-width="1.5"/>
<path fill-rule="evenodd" clip-rule="evenodd" d="M85.714 44.1752C85.714 45.926 84.3259 47.3455 82.6126 47.3455C80.9014 47.3455 79.5122 45.926 79.5122 44.1752C79.5122 42.4243 80.9014 41.0049 82.6126 41.0049C84.3259 41.0049 85.714 42.4243 85.714 44.1752Z" stroke="#0F9696" stroke-width="1.5"/>
<path d="M82.6128 50.0908V55.5354" stroke="#0F9696" stroke-width="1.5"/>
<path d="M77.6479 56.5361V64.1281H87.5782V56.5361" stroke="#0F9696" stroke-width="1.5"/>
<path d="M73.687 64.1279V54.3187C73.687 51.9839 74.9075 50.0913 77.1908 50.0913H88.0365" stroke="#0F9696" stroke-width="1.5"/>
<path d="M88.0361 50.0908V50.0908C90.3195 50.0908 91.54 51.9834 91.54 54.3182V64.1274" stroke="#0F9696" stroke-width="1.5"/>
<path fill-rule="evenodd" clip-rule="evenodd" d="M74.714 26.1439C74.714 27.8801 73.3259 29.2877 71.6126 29.2877C69.9014 29.2877 68.5122 27.8801 68.5122 26.1439C68.5122 24.4076 69.9014 23 71.6126 23C73.3259 23 74.714 24.4076 74.714 26.1439Z" stroke="#0F9696" stroke-width="1.5"/>
<path d="M71.6128 32.0103V37.4095" stroke="#0F9696" stroke-width="1.5"/>
<path d="M62.687 39.1303V36.2029C62.687 33.8875 63.9075 32.0107 66.1908 32.0107H77.0365" stroke="#0F9696" stroke-width="1.5"/>
<path d="M77.0361 32.0103C79.3195 32.0103 80.54 33.8871 80.54 36.2025V39.1299" stroke="#0F9696" stroke-width="1.5"/>
<path fill-rule="evenodd" clip-rule="evenodd" d="M10.4 47C10.4 48.76 10.34 50.26 10.26 51.5C11.42 56.76 14.28 60.78 18.82 63.56L17.42 65.4C13.68 62.88 11.04 59.52 9.5 55.3C8.18 59.38 5.44 62.76 1.28 65.44L0 63.56C5.36 60.36 8.1 55.88 8.26 50.14C8.26 48.8 8.28 47.76 8.28 47H10.4ZM30.42 47.02H32.58V49.18L32.52 50.58H40.1C40.02 54.18 39.88 57.1 39.68 59.32C39.48 61.52 39.14 63.08 38.64 63.96C38.16 64.8 37.4 65.26 36.34 65.34H33.5L32.94 63.32C33.78 63.36 34.58 63.4 35.34 63.4C36.34 63.4 36.98 62.72 37.3 61.4C37.62 60.04 37.84 57.1 37.94 52.6H32.36C32.04 55.48 31.44 57.9 30.54 59.84C29.34 62.28 27.4 64.18 24.7 65.52L23.58 63.68C26.2 62.24 27.98 60.44 28.9 58.28C29.52 56.68 29.96 54.8 30.2 52.6H24.66V50.58H30.36L30.42 49.18V47.02Z" fill="#009190"/>
<mask id="mask0" mask-type="alpha" maskUnits="userSpaceOnUse" x="50" y="216" width="45" height="42">
<path fill-rule="evenodd" clip-rule="evenodd" d="M50.1284 257.501H94.1284V216.501H50.1284V257.501Z" fill="white"/>
</mask>
<g mask="url(#mask0)">
<path fill-rule="evenodd" clip-rule="evenodd" d="M74.8363 255.399H80.5421V237.826H74.8363V255.399ZM63.7136 255.399H69.4195V242.732H63.7136V255.399ZM52.9383 255.399H58.6442V247.797H52.9383V255.399ZM92.5635 255.399V232.052C92.5635 231.748 92.2841 231.501 91.9406 231.501H84.9885C84.6456 231.501 84.3669 231.748 84.3669 232.052V240.52C84.3669 240.823 84.6456 241.07 84.9885 241.07C85.3329 241.07 85.613 240.823 85.613 240.52V232.604H91.3176V255.399H85.613V244.273C85.613 243.969 85.3329 243.722 84.9885 243.722C84.6456 243.722 84.3669 243.969 84.3669 244.273V255.399H81.7882V237.275C81.7882 236.971 81.5088 236.724 81.1653 236.724H74.2145C73.8703 236.724 73.5902 236.971 73.5902 237.275V255.399H70.6656V242.181C70.6656 241.877 70.3862 241.63 70.0425 241.63H63.0904C62.7469 241.63 62.4675 241.877 62.4675 242.181V255.399H59.8901V247.246C59.8901 246.941 59.6107 246.694 59.2672 246.694H52.3151C51.9716 246.694 51.6922 246.941 51.6922 247.246V255.399H50.7516C50.4078 255.399 50.1284 255.646 50.1284 255.95C50.1284 256.254 50.4078 256.501 50.7516 256.501H93.5054C93.849 256.501 94.1284 256.254 94.1284 255.95C94.1284 255.646 93.849 255.399 93.5054 255.399H92.5635Z" fill="#138F8F"/>
<path fill-rule="evenodd" clip-rule="evenodd" d="M87.834 217.609L88.1037 217.56V218.64L87.9413 218.692C87.0763 218.966 86.4949 219.719 86.4949 220.565C86.4949 221.657 87.452 222.546 88.6285 222.546C89.2261 222.546 89.7125 222.969 89.7125 223.49C89.7125 224.011 89.2261 224.434 88.6285 224.434C88.03 224.434 87.5432 224.011 87.5432 223.49C87.5432 223.204 87.3076 222.972 87.0185 222.972C86.7298 222.972 86.4949 223.204 86.4949 223.49C86.4949 224.337 87.0763 225.09 87.9413 225.364L88.1037 225.415V226.441L87.834 226.393C85.715 226.008 84.1768 224.161 84.1768 222.001C84.1768 219.84 85.715 217.993 87.834 217.609M89.7125 220.565C89.7125 220.851 89.9478 221.084 90.2373 221.084C90.5258 221.084 90.7609 220.851 90.7609 220.565C90.7609 219.719 90.1795 218.966 89.3144 218.692L89.1521 218.64V217.56L89.4216 217.609C91.5414 217.993 93.08 219.84 93.08 222.001C93.08 224.161 91.5414 226.008 89.4216 226.393L89.1521 226.441V225.415L89.3144 225.364C90.1795 225.09 90.7609 224.337 90.7609 223.49C90.7609 222.398 89.8041 221.51 88.6285 221.51C88.03 221.51 87.5432 221.086 87.5432 220.565C87.5432 220.045 88.03 219.621 88.6285 219.621C89.2261 219.621 89.7125 220.045 89.7125 220.565M88.6285 227.501C91.6612 227.501 94.1284 225.034 94.1284 222.001C94.1284 218.968 91.6612 216.501 88.6285 216.501C85.5957 216.501 83.1284 218.968 83.1284 222.001C83.1284 225.034 85.5957 227.501 88.6285 227.501" fill="#138F8F"/>
<path fill-rule="evenodd" clip-rule="evenodd" d="M54.1794 241.331L63.0474 232.717L67.8649 237.395C68.105 237.629 68.4966 237.629 68.7376 237.395L78.9013 227.523V229.344C78.9013 229.668 79.1766 229.932 79.5148 229.932C79.8533 229.932 80.1284 229.668 80.1284 229.344V226.09C80.1284 225.765 79.8533 225.501 79.5148 225.501H76.1651C75.8268 225.501 75.5515 225.765 75.5515 226.09C75.5515 226.414 75.8268 226.678 76.1651 226.678H78.0463L68.3012 236.144L63.4837 231.466C63.3636 231.349 63.2055 231.291 63.0474 231.291C62.8894 231.291 62.7313 231.349 62.611 231.466L53.3051 240.504C53.1912 240.615 53.1283 240.762 53.1284 240.918C53.1284 241.074 53.1912 241.22 53.3052 241.331C53.5379 241.557 53.9441 241.558 54.1794 241.331" fill="#138F8F"/>
</g>
<path fill-rule="evenodd" clip-rule="evenodd" d="M250.014 147.363C250.014 184.83 219.638 215.206 182.168 215.206C144.7 215.206 114.324 184.83 114.324 147.363C114.324 109.894 144.7 79.5195 182.168 79.5195C219.638 79.5195 250.014 109.894 250.014 147.363Z" stroke="#009190" stroke-width="0.9"/>
<path fill-rule="evenodd" clip-rule="evenodd" d="M237.359 147.363C237.359 177.842 212.65 202.552 182.168 202.552C151.688 202.552 126.979 177.842 126.979 147.363C126.979 116.883 151.688 92.1724 182.168 92.1724C212.65 92.1724 237.359 116.883 237.359 147.363Z" stroke="#009190" stroke-width="0.75"/>
<path fill-rule="evenodd" clip-rule="evenodd" d="M211.067 248.249C211.067 251.498 208.436 254.131 205.187 254.131C201.941 254.131 199.307 251.498 199.307 248.249C199.307 245.005 201.941 242.368 205.187 242.368C208.436 242.368 211.067 245.005 211.067 248.249" fill="#009190"/>
<path fill-rule="evenodd" clip-rule="evenodd" d="M237.386 56.4048C237.386 59.6535 234.755 62.2861 231.506 62.2861C228.257 62.2861 225.626 59.6535 225.626 56.4048C225.626 53.1607 228.257 50.5234 231.506 50.5234C234.755 50.5234 237.386 53.1607 237.386 56.4048" fill="#009190"/>
<path fill-rule="evenodd" clip-rule="evenodd" d="M91.6948 186.687C91.6948 189.934 89.0607 192.567 85.815 192.567C82.5663 192.567 79.9321 189.934 79.9321 186.687C79.9321 183.441 82.5663 180.806 85.815 180.806C89.0607 180.806 91.6948 183.441 91.6948 186.687" fill="#009190"/>
<path fill-rule="evenodd" clip-rule="evenodd" d="M289.74 175.476C289.74 178.725 287.106 181.357 283.857 181.357C280.611 181.357 277.977 178.725 277.977 175.476C277.977 172.232 280.611 169.595 283.857 169.595C287.106 169.595 289.74 172.232 289.74 175.476" fill="#009190"/>
<path fill-rule="evenodd" clip-rule="evenodd" d="M109.367 78.1675C109.367 81.4162 106.736 84.0488 103.487 84.0488C100.239 84.0488 97.6045 81.4162 97.6045 78.1675C97.6045 74.9234 100.239 72.2861 103.487 72.2861C106.736 72.2861 109.367 74.9234 109.367 78.1675" fill="#009190"/>
<path fill-rule="evenodd" clip-rule="evenodd" d="M286.359 147.363C286.359 204.905 239.71 251.553 182.168 251.553C124.626 251.553 77.98 204.905 77.98 147.363C77.98 89.8201 124.626 43.1724 182.168 43.1724C239.71 43.1724 286.359 89.8201 286.359 147.363Z" stroke="#009190"/>
<path fill-rule="evenodd" clip-rule="evenodd" d="M265.519 147.363C265.519 193.396 228.201 230.715 182.167 230.715C136.134 230.715 98.8159 193.396 98.8159 147.363C98.8159 101.329 136.134 64.0103 182.167 64.0103C228.201 64.0103 265.519 101.329 265.519 147.363Z" stroke="#009190"/>
<path fill-rule="evenodd" clip-rule="evenodd" d="M202.033 80.6816C202.033 83.9304 199.402 86.563 196.153 86.563C192.905 86.563 190.271 83.9304 190.271 80.6816C190.271 77.4376 192.905 74.8003 196.153 74.8003C199.402 74.8003 202.033 77.4376 202.033 80.6816" fill="#7EC7C5"/>
<path fill-rule="evenodd" clip-rule="evenodd" d="M134.704 214.044C134.704 217.293 132.073 219.925 128.824 219.925C125.575 219.925 122.941 217.293 122.941 214.044C122.941 210.8 125.575 208.163 128.824 208.163C132.073 208.163 134.704 210.8 134.704 214.044" fill="#7EC7C5"/>
<path fill-rule="evenodd" clip-rule="evenodd" d="M235.33 174.011C235.33 177.259 232.699 179.892 229.451 179.892C226.205 179.892 223.571 177.259 223.571 174.011C223.571 170.767 226.205 168.129 229.451 168.129C232.699 168.129 235.33 170.767 235.33 174.011" fill="#7EC7C5"/>
<path fill-rule="evenodd" clip-rule="evenodd" d="M124.07 126.249C124.07 129.498 121.439 132.131 118.19 132.131C114.941 132.131 112.307 129.498 112.307 126.249C112.307 123.005 114.941 120.368 118.19 120.368C121.439 120.368 124.07 123.005 124.07 126.249" fill="#7EC7C5"/>
<path opacity="0.85" fill-rule="evenodd" clip-rule="evenodd" d="M160.888 186.239L162.582 182.756C162.707 182.685 162.816 182.588 162.902 182.472L174.414 189.162H166.467L160.888 186.239ZM149.149 169.836L150.554 167.299C150.631 167.317 150.711 167.33 150.794 167.33C151.368 167.33 151.834 166.859 151.834 166.278C151.834 166.188 151.82 166.103 151.799 166.02L161.208 160.505C161.329 160.623 161.479 160.709 161.646 160.757V180.887C161.447 180.977 161.284 181.13 161.175 181.32L156.576 179.173L149.149 169.836ZM141.434 148.778C141.524 148.804 141.617 148.822 141.715 148.822C141.994 148.822 142.246 148.709 142.433 148.528L143.137 148.945L160.926 159.488C160.917 159.522 160.91 159.557 160.905 159.593L144.741 161.683C144.578 161.32 144.217 161.065 143.795 161.065C143.705 161.065 143.619 161.08 143.535 161.102L139.761 151.527L141.434 148.778ZM146.55 123.553L152.306 122.315C152.369 122.435 152.453 122.539 152.555 122.626L141.864 146.733C141.815 146.725 141.766 146.717 141.715 146.717C141.614 146.717 141.52 146.736 141.428 146.763L139.756 144.05L146.55 123.553ZM166.544 108.956L169.645 108.796C169.649 108.817 169.657 108.837 169.663 108.857L162.065 114.683L153.844 120.987C153.724 120.895 153.585 120.826 153.432 120.794L153.076 115.837L166.544 108.956ZM176.181 109.239C175.942 109.431 175.785 109.726 175.785 110.06C175.785 110.376 175.926 110.657 176.145 110.85L174.75 115.392L171.318 126.562C171.31 126.561 171.301 126.559 171.293 126.559C170.929 126.559 170.611 126.747 170.425 127.032L162.69 124.556L154.258 121.855C154.258 121.845 154.261 121.835 154.261 121.824C154.261 121.689 154.234 121.562 154.188 121.443L162.772 114.861L169.971 109.341C170.154 109.503 170.392 109.605 170.654 109.605C171.199 109.605 171.642 109.179 171.686 108.64L175.421 108.257L176.181 109.239ZM179.804 112.675V123.806C179.369 123.932 179.047 124.333 179.047 124.813C179.047 124.823 179.05 124.833 179.05 124.842L172.161 127.034C172.082 126.913 171.98 126.81 171.86 126.731L175.332 115.432L176.664 111.095C176.717 111.104 176.77 111.112 176.825 111.112C177.152 111.112 177.441 110.956 177.632 110.716L179.804 112.675ZM179.05 143.009L162.824 147.24C162.767 147.141 162.695 147.054 162.61 146.979L167.705 136.009L171.125 128.646C171.18 128.655 171.235 128.664 171.293 128.664C171.599 128.664 171.871 128.527 172.062 128.314L179.066 131.799C179.055 131.86 179.047 131.923 179.047 131.987C179.047 132.468 179.369 132.869 179.804 132.994V142.027C179.377 142.15 179.061 142.54 179.05 143.009V143.009ZM179.047 156.306C179.047 156.519 179.111 156.716 179.218 156.881L172.513 164.682C172.379 164.618 172.231 164.58 172.073 164.58C171.986 164.58 171.903 164.594 171.822 164.614L162.674 148.503C162.851 148.32 162.961 148.071 162.967 147.795L179.194 143.564C179.328 143.795 179.544 143.967 179.804 144.042V155.299C179.369 155.424 179.047 155.826 179.047 156.306V156.306ZM179.568 172.545L172.986 166.125C173.065 165.977 173.113 165.811 173.113 165.632C173.113 165.419 173.05 165.223 172.943 165.057L174.322 163.452L179.647 157.256C179.697 157.28 179.75 157.298 179.804 157.314V172.444C179.72 172.468 179.641 172.502 179.568 172.545V172.545ZM179.092 181.056H175.41C175.297 180.657 174.962 180.358 174.546 180.304L172.864 169.016L172.502 166.588C172.534 166.574 172.563 166.556 172.593 166.538L173.333 167.26L179.174 172.959C179.096 173.106 179.047 173.273 179.047 173.452C179.047 173.932 179.369 174.333 179.804 174.459V180.335C179.459 180.435 179.19 180.707 179.092 181.056V181.056ZM175.454 188.397C175.176 188.397 174.925 188.509 174.738 188.688L163.639 182.238L173.52 181.872C173.7 182.184 174.031 182.394 174.413 182.394C174.823 182.394 175.174 182.153 175.343 181.805L179.103 181.666C179.153 181.821 179.233 181.962 179.344 182.076L175.725 188.438C175.638 188.413 175.548 188.397 175.454 188.397V188.397ZM144.822 162.252L160.57 160.215L151.516 165.522C151.329 165.339 151.075 165.226 150.794 165.226C150.511 165.226 150.256 165.34 150.068 165.525L144.777 162.452C144.798 162.388 144.813 162.322 144.822 162.252V162.252ZM142.76 148.056H160.933C161.032 148.405 161.301 148.678 161.646 148.777V158.742C161.481 158.789 161.332 158.874 161.211 158.991L143.948 148.761L142.76 148.056ZM170.256 127.58C170.255 127.59 170.252 127.6 170.252 127.611C170.252 127.691 170.263 127.769 170.28 127.844L169.234 128.422L160.614 133.187C160.425 132.993 160.164 132.872 159.873 132.872C159.791 132.872 159.712 132.884 159.636 132.902L155.498 125.377L153.955 122.569C154.005 122.519 154.049 122.463 154.088 122.404L162.216 125.006L170.256 127.58ZM179.319 131.285L172.314 127.8C172.325 127.738 172.333 127.676 172.333 127.611C172.333 127.601 172.33 127.592 172.33 127.582L179.219 125.39C179.354 125.599 179.562 125.751 179.804 125.821V130.98C179.614 131.035 179.447 131.14 179.319 131.285V131.285ZM162.097 146.735C162.086 146.733 162.074 146.732 162.062 146.731L160.302 134.881C160.662 134.715 160.913 134.35 160.913 133.924C160.913 133.844 160.902 133.767 160.885 133.691L168.587 129.434L170.551 128.348C170.57 128.367 170.592 128.383 170.612 128.401L167.132 135.893L162.097 146.735ZM162.936 160.003C162.957 159.921 162.97 159.837 162.97 159.75C162.97 159.66 162.956 159.575 162.935 159.492L162.886 159.337C162.764 159.048 162.516 158.829 162.213 158.742V148.845L171.305 164.856L162.936 160.003ZM173.984 180.386C173.693 180.521 173.474 180.786 173.401 181.108L163.092 181.641C163.052 181.434 162.952 181.25 162.812 181.106L171.784 166.638C171.835 166.653 171.887 166.664 171.941 166.671L172.003 167.093L173.984 180.386ZM162.656 160.502L171.066 165.379C171.046 165.46 171.033 165.544 171.033 165.632C171.033 165.903 171.136 166.147 171.302 166.333L162.316 180.825C162.283 180.817 162.248 180.812 162.213 180.807V160.757C162.382 160.708 162.534 160.622 162.656 160.502V160.502ZM159.138 133.179C158.949 133.369 158.833 133.633 158.833 133.924C158.833 134.058 158.859 134.185 158.905 134.303L142.425 146.868L153.072 122.861C153.121 122.869 153.17 122.877 153.221 122.877C153.303 122.877 153.382 122.865 153.458 122.847L155.373 126.33L159.138 133.179ZM142.711 147.482C142.702 147.451 142.694 147.42 142.683 147.391L150.217 141.645L159.248 134.76C159.388 134.868 159.556 134.939 159.74 134.963L161.501 146.813C161.225 146.94 161.018 147.184 160.933 147.482H142.711ZM181.128 131.987C181.128 131.506 180.807 131.105 180.372 130.98V125.821C180.807 125.695 181.128 125.294 181.128 124.813C181.128 124.333 180.807 123.932 180.372 123.806V112.417L177.856 110.151C177.859 110.12 177.865 110.091 177.865 110.06C177.865 109.479 177.4 109.007 176.825 109.007C176.793 109.007 176.762 109.014 176.73 109.017L175.675 107.654L171.576 108.074C171.403 107.735 171.058 107.501 170.654 107.501C170.195 107.501 169.81 107.803 169.672 108.221L166.455 108.386L152.483 115.497L152.866 120.839C152.488 120.979 152.216 121.331 152.188 121.754L146.115 123.06L139.134 144.124L140.947 147.066C140.841 147.183 140.763 147.325 140.718 147.482L140.711 147.507C140.69 147.591 140.674 147.679 140.674 147.77C140.674 148.043 140.78 148.291 140.95 148.478L139.128 151.472L143.04 161.397C142.903 161.544 142.808 161.73 142.773 161.938L142.756 161.94L142.772 161.949C142.763 162.004 142.755 162.06 142.755 162.117C142.755 162.698 143.221 163.169 143.795 163.169C144.046 163.169 144.273 163.076 144.453 162.926L149.787 166.024C149.767 166.106 149.754 166.19 149.754 166.278C149.754 166.568 149.869 166.83 150.057 167.021L148.467 169.894L156.218 179.638L161.036 181.887C161.052 182.295 161.297 182.644 161.646 182.803L161.738 182.836C161.788 182.854 161.838 182.869 161.89 182.878L160.134 186.49L166.329 189.736H174.458C174.582 190.177 174.978 190.501 175.454 190.501C175.929 190.501 176.326 190.177 176.45 189.736L176.464 189.691C176.482 189.613 176.494 189.533 176.494 189.449C176.494 189.171 176.386 188.921 176.212 188.733L179.837 182.36C179.918 182.381 180.001 182.394 180.088 182.394C180.663 182.394 181.128 181.923 181.128 181.342C181.128 180.862 180.807 180.461 180.372 180.335V174.459C180.807 174.333 181.128 173.932 181.128 173.452C181.128 172.971 180.807 172.57 180.372 172.444V157.314C180.807 157.188 181.128 156.787 181.128 156.306C181.128 155.826 180.807 155.424 180.372 155.299V144.043C180.807 143.917 181.128 143.516 181.128 143.035C181.128 142.554 180.807 142.153 180.372 142.027V132.995C180.807 132.869 181.128 132.468 181.128 131.987V131.987Z" fill="url(#paint0_linear)"/>
<path opacity="0.85" fill-rule="evenodd" clip-rule="evenodd" d="M198.789 189.162H190.843L202.355 182.473C202.441 182.589 202.55 182.685 202.675 182.756L204.369 186.239L198.789 189.162ZM208.68 179.173L204.082 181.32C203.973 181.13 203.81 180.978 203.611 180.887V160.758C203.777 160.709 203.928 160.624 204.049 160.505L213.458 166.021C213.437 166.103 213.423 166.189 213.423 166.278C213.423 166.859 213.889 167.33 214.463 167.33C214.546 167.33 214.626 167.317 214.703 167.299L216.108 169.836L208.68 179.173ZM225.496 151.527L221.722 161.102C221.639 161.08 221.552 161.065 221.462 161.065C221.04 161.065 220.679 161.32 220.516 161.684L204.352 159.593C204.346 159.557 204.34 159.522 204.331 159.488L222.12 148.945L222.824 148.528C223.011 148.709 223.263 148.822 223.543 148.822C223.64 148.822 223.733 148.804 223.823 148.778L225.496 151.527ZM225.501 144.05L223.829 146.763C223.737 146.736 223.642 146.717 223.543 146.717C223.491 146.717 223.443 146.725 223.394 146.733L212.702 122.626C212.804 122.539 212.888 122.435 212.951 122.315L218.706 123.554L225.501 144.05ZM212.18 115.837L211.826 120.794C211.672 120.826 211.534 120.895 211.413 120.987L203.192 114.683L195.593 108.857C195.599 108.837 195.607 108.817 195.612 108.797L198.713 108.957L212.18 115.837ZM189.835 108.257L193.571 108.64C193.615 109.18 194.058 109.605 194.603 109.605C194.865 109.605 195.102 109.504 195.285 109.341L202.485 114.861L211.069 121.443C211.023 121.562 210.995 121.69 210.995 121.824C210.995 121.835 210.998 121.845 210.999 121.855L202.567 124.556L194.832 127.033C194.646 126.748 194.327 126.559 193.964 126.559C193.955 126.559 193.947 126.562 193.938 126.562L190.507 115.392L189.111 110.85C189.33 110.657 189.472 110.376 189.472 110.06C189.472 109.726 189.315 109.432 189.075 109.239L189.835 108.257ZM187.625 110.717C187.816 110.956 188.104 111.112 188.431 111.112C188.486 111.112 188.54 111.104 188.592 111.096L189.925 115.432L193.397 126.731C193.277 126.81 193.174 126.913 193.096 127.034L186.206 124.843C186.207 124.833 186.209 124.824 186.209 124.814C186.209 124.333 185.888 123.932 185.453 123.806V112.675L187.625 110.717ZM185.453 142.027V132.995C185.888 132.869 186.209 132.468 186.209 131.988C186.209 131.923 186.201 131.86 186.19 131.799L193.195 128.314C193.385 128.527 193.658 128.664 193.964 128.664C194.021 128.664 194.076 128.655 194.131 128.646L197.551 136.009L202.647 146.979C202.562 147.054 202.49 147.141 202.433 147.24L186.207 143.009C186.195 142.54 185.88 142.151 185.453 142.027V142.027ZM185.453 155.299V144.043C185.712 143.968 185.929 143.795 186.063 143.564L202.289 147.796C202.296 148.071 202.406 148.32 202.583 148.503L193.435 164.615C193.354 164.594 193.271 164.58 193.184 164.58C193.026 164.58 192.877 164.618 192.743 164.682L186.039 156.881C186.146 156.716 186.209 156.519 186.209 156.307C186.209 155.826 185.888 155.424 185.453 155.299V155.299ZM185.453 172.444V157.314C185.506 157.298 185.559 157.28 185.61 157.256L190.935 163.453L192.314 165.057C192.207 165.223 192.144 165.42 192.144 165.632C192.144 165.811 192.192 165.977 192.27 166.125L185.689 172.545C185.615 172.502 185.537 172.468 185.453 172.444V172.444ZM185.453 180.335V174.459C185.888 174.334 186.209 173.933 186.209 173.452C186.209 173.273 186.161 173.106 186.083 172.959L191.924 167.26L192.664 166.538C192.693 166.556 192.723 166.574 192.755 166.588L192.393 169.016L190.711 180.304C190.295 180.358 189.959 180.657 189.847 181.056H186.165C186.067 180.707 185.797 180.435 185.453 180.335V180.335ZM189.531 188.438L185.913 182.076C186.023 181.962 186.104 181.821 186.154 181.666L189.913 181.805C190.082 182.153 190.433 182.395 190.843 182.395C191.226 182.395 191.556 182.184 191.737 181.872L201.618 182.238L190.519 188.688C190.332 188.509 190.081 188.397 189.803 188.397C189.708 188.397 189.619 188.414 189.531 188.438V188.438ZM220.48 162.453L215.189 165.526C215.001 165.34 214.746 165.226 214.463 165.226C214.182 165.226 213.928 165.339 213.741 165.523L204.687 160.215L220.435 162.253C220.444 162.322 220.459 162.388 220.48 162.453V162.453ZM221.308 148.761L204.045 158.991C203.925 158.874 203.776 158.79 203.611 158.742V148.777C203.956 148.678 204.225 148.405 204.323 148.057H222.497L221.308 148.761ZM203.04 125.006L211.168 122.404C211.208 122.464 211.252 122.519 211.302 122.57L209.758 125.377L205.621 132.902C205.545 132.884 205.466 132.872 205.384 132.872C205.094 132.872 204.831 132.993 204.643 133.187L196.023 128.423L194.977 127.844C194.994 127.769 195.005 127.691 195.005 127.611C195.005 127.6 195.002 127.591 195.001 127.58L203.04 125.006ZM185.453 130.98V125.821C185.695 125.752 185.902 125.599 186.037 125.391L192.927 127.582C192.926 127.592 192.924 127.601 192.924 127.611C192.924 127.676 192.932 127.739 192.942 127.8L185.938 131.285C185.809 131.14 185.642 131.035 185.453 130.98V130.98ZM198.125 135.893L194.645 128.401C194.665 128.384 194.687 128.368 194.706 128.348L196.67 129.434L204.371 133.692C204.354 133.767 204.344 133.844 204.344 133.924C204.344 134.35 204.595 134.715 204.955 134.881L203.195 146.731C203.183 146.732 203.171 146.733 203.16 146.735L198.125 135.893ZM193.952 164.856L203.043 148.845V158.742C202.741 158.829 202.493 159.048 202.37 159.337L202.322 159.492C202.301 159.575 202.287 159.66 202.287 159.75C202.287 159.837 202.3 159.921 202.32 160.003L193.952 164.856ZM193.253 167.093L193.316 166.671C193.37 166.664 193.422 166.653 193.473 166.638L202.445 181.106C202.305 181.25 202.205 181.435 202.165 181.641L191.856 181.108C191.783 180.786 191.564 180.521 191.273 180.387L193.253 167.093ZM203.043 160.758V180.807C203.009 180.812 202.974 180.817 202.94 180.825L193.954 166.334C194.12 166.147 194.224 165.903 194.224 165.632C194.224 165.545 194.211 165.461 194.19 165.379L202.601 160.502C202.723 160.622 202.875 160.709 203.043 160.758V160.758ZM209.884 126.33L211.799 122.847C211.876 122.865 211.954 122.877 212.036 122.877C212.087 122.877 212.136 122.869 212.185 122.861L222.832 146.868L206.352 134.303C206.397 134.185 206.424 134.058 206.424 133.924C206.424 133.633 206.307 133.37 206.118 133.179L209.884 126.33ZM204.323 147.483C204.239 147.184 204.031 146.94 203.756 146.813L205.516 134.963C205.701 134.939 205.868 134.868 206.009 134.761L215.039 141.646L222.574 147.391C222.563 147.42 222.555 147.452 222.546 147.483H204.323ZM184.885 132.995V142.027C184.449 142.153 184.128 142.554 184.128 143.035C184.128 143.516 184.449 143.917 184.885 144.043V155.299C184.449 155.424 184.128 155.826 184.128 156.307C184.128 156.787 184.449 157.188 184.885 157.314V172.444C184.449 172.57 184.128 172.971 184.128 173.452C184.128 173.933 184.449 174.334 184.885 174.459V180.335C184.449 180.461 184.128 180.862 184.128 181.343C184.128 181.924 184.594 182.395 185.169 182.395C185.256 182.395 185.339 182.381 185.42 182.36L189.045 188.733C188.871 188.921 188.762 189.172 188.762 189.449C188.762 189.533 188.775 189.613 188.793 189.691L188.807 189.736C188.931 190.177 189.328 190.501 189.803 190.501C190.278 190.501 190.675 190.177 190.799 189.736H198.928L205.123 186.49L203.367 182.878C203.419 182.869 203.469 182.854 203.518 182.837L203.611 182.803C203.96 182.644 204.205 182.296 204.221 181.887L209.039 179.638L216.79 169.894L215.2 167.021C215.387 166.83 215.504 166.568 215.504 166.278C215.504 166.19 215.49 166.106 215.47 166.024L220.804 162.926C220.983 163.076 221.211 163.169 221.462 163.169C222.036 163.169 222.502 162.698 222.502 162.117C222.502 162.06 222.494 162.004 222.485 161.949L222.5 161.941L222.484 161.938C222.449 161.73 222.354 161.544 222.216 161.397L226.128 151.473L224.307 148.478C224.476 148.291 224.583 148.044 224.583 147.77C224.583 147.679 224.568 147.592 224.546 147.507L224.539 147.483C224.494 147.325 224.416 147.183 224.311 147.066L226.124 144.124L219.142 123.06L213.069 121.754C213.041 121.331 212.768 120.979 212.391 120.84L212.774 115.497L198.802 108.386L195.585 108.221C195.446 107.803 195.062 107.501 194.603 107.501C194.199 107.501 193.854 107.735 193.681 108.074L189.581 107.654L188.526 109.017C188.495 109.014 188.464 109.007 188.431 109.007C187.857 109.007 187.391 109.479 187.391 110.06C187.391 110.091 187.398 110.12 187.4 110.151L184.885 112.418V123.806C184.449 123.932 184.128 124.333 184.128 124.814C184.128 125.295 184.449 125.696 184.885 125.821V130.98C184.449 131.106 184.128 131.507 184.128 131.988C184.128 132.468 184.449 132.869 184.885 132.995V132.995Z" fill="url(#paint1_linear)"/>
<path fill-rule="evenodd" clip-rule="evenodd" d="M164.108 156.867C165.023 156.867 165.891 156.729 166.713 156.453C167.534 156.177 168.246 155.693 168.852 155.003C169.458 154.312 169.935 153.401 170.285 152.268C170.635 151.136 170.81 149.714 170.81 148.001C170.81 146.289 170.635 144.86 170.285 143.713C169.935 142.568 169.458 141.656 168.852 140.979C168.246 140.302 167.534 139.826 166.713 139.55C165.891 139.274 165.023 139.136 164.108 139.136H157.446V156.867H164.108ZM151.128 133.501H164.919C166.596 133.501 168.171 133.757 169.644 134.268C171.118 134.779 172.41 135.6 173.518 136.732C174.627 137.865 175.505 139.357 176.155 141.207C176.804 143.058 177.128 145.322 177.128 148.001C177.128 150.68 176.804 152.938 176.155 154.775C175.505 156.612 174.627 158.103 173.518 159.249C172.41 160.395 171.118 161.224 169.644 161.734C168.171 162.246 166.596 162.501 164.919 162.501H151.128V133.501Z" fill="#4BC8C8"/>
<path fill-rule="evenodd" clip-rule="evenodd" d="M215.514 136.035C212.972 133.435 209.642 133.49 209.304 133.504C206.868 133.567 204.801 134.493 203.269 136.161C203.23 136.121 203.198 136.076 203.159 136.035C200.617 133.435 197.287 133.49 196.949 133.504C193.443 133.595 190.697 135.47 189.217 138.782C188.211 141.036 188.135 143.215 188.13 143.456L188.128 143.494L188.192 162.501L193.532 162.482L193.47 143.555C193.488 142.98 193.735 139.2 197.116 139.111C197.125 139.102 198.531 139.133 199.433 140.055C200.113 140.751 200.449 141.906 200.432 143.504L200.321 162.412L200.546 162.414V162.501L205.887 162.482L205.825 143.57C205.994 139.413 208.862 139.127 209.471 139.111C209.481 139.102 210.886 139.133 211.787 140.055C212.468 140.751 212.804 141.906 212.787 143.504L212.676 162.412L218.017 162.447L218.127 143.553C218.162 140.374 217.282 137.845 215.514 136.035" fill="#4BC8C8"/>
<path fill-rule="evenodd" clip-rule="evenodd" d="M288.242 226.22C289.121 227.517 291.124 227.501 291.129 227.501C291.131 227.501 293.136 227.517 294.015 226.22C294.876 224.947 295.984 222.649 296.105 221.093C296.225 219.538 295.885 217.239 295.176 216.284C293.844 214.494 291.131 214.501 291.129 214.501C291.124 214.501 288.412 214.494 287.082 216.284C286.373 217.239 286.032 219.538 286.152 221.093C286.272 222.649 287.381 224.947 288.242 226.22Z" stroke="#009190" stroke-width="1.2"/>
<path fill-rule="evenodd" clip-rule="evenodd" d="M285.547 228.501C284.263 228.7 282.437 229.063 280.376 229.712C278.751 230.226 277.538 231.593 276.938 233.124C276.533 234.158 276.311 235.14 276.187 235.913C276.164 236.061 276.145 236.2 276.128 236.331C276.161 236.98 276.734 237.501 277.442 237.501H287.128L285.547 228.501Z" stroke="#009190" stroke-width="1.2"/>
<path fill-rule="evenodd" clip-rule="evenodd" d="M292.113 230.501C291.611 230.576 291.242 230.584 291.134 230.584H291.129H291.124C291.016 230.584 290.646 230.576 290.144 230.501L289.128 237.501H291.129H293.128L292.113 230.501Z" stroke="#009190" stroke-width="1.2"/>
<path fill-rule="evenodd" clip-rule="evenodd" d="M306.069 235.913C305.946 235.14 305.725 234.158 305.319 233.124C304.719 231.593 303.506 230.226 301.88 229.712C299.821 229.063 297.993 228.7 296.709 228.501L295.128 237.501H304.815C305.523 237.501 306.097 236.981 306.128 236.331C306.112 236.2 306.092 236.061 306.069 235.913Z" stroke="#009190" stroke-width="1.2"/>
<path fill-rule="evenodd" clip-rule="evenodd" d="M271.128 255.501H281.128V246.501H271.128V255.501Z" stroke="#009190" stroke-width="1.2"/>
<path fill-rule="evenodd" clip-rule="evenodd" d="M286.128 255.501H296.128V246.501H286.128V255.501Z" stroke="#009190" stroke-width="1.2"/>
<path fill-rule="evenodd" clip-rule="evenodd" d="M301.128 255.501H311.128V246.501H301.128V255.501Z" stroke="#009190" stroke-width="1.2"/>
<path d="M291.128 246.501V237.501" stroke="#009190" stroke-width="1.2"/>
<path d="M276.128 246.501V242.501H306.128V246.501" stroke="#009190" stroke-width="1.2"/>
<path d="M285.128 228.501L288.128 225.501" stroke="#009190" stroke-width="1.2"/>
<path d="M297.128 228.501L294.128 225.501" stroke="#009190" stroke-width="1.2"/>
<path d="M287.128 237.501H296.128" stroke="#009190" stroke-width="1.2"/>
<path d="M291.128 231.501L285.128 228.501" stroke="#009190" stroke-width="1.2"/>
<path d="M291.128 231.501L297.128 228.501" stroke="#009190" stroke-width="1.2"/>
<path d="M286.128 217.501H296.128" stroke="#009190" stroke-width="1.2"/>
<defs>
<linearGradient id="paint0_linear" x1="181.174" y1="107.501" x2="181.174" y2="190.501" gradientUnits="userSpaceOnUse">
<stop stop-color="#38E0E0"/>
<stop offset="1" stop-color="#22C7C7"/>
</linearGradient>
<linearGradient id="paint1_linear" x1="226.174" y1="107.501" x2="226.174" y2="190.501" gradientUnits="userSpaceOnUse">
<stop stop-color="#38E0E0"/>
<stop offset="1" stop-color="#22C7C7"/>
</linearGradient>
</defs>
</svg>
