<svg width="305" height="308" viewBox="0 0 305 308" fill="none" xmlns="http://www.w3.org/2000/svg">
<path fill-rule="evenodd" clip-rule="evenodd" d="M262.114 233.719C262.993 235.016 264.996 235 265 235C265.003 235 267.007 235.016 267.886 233.719C268.747 232.446 269.856 230.148 269.976 228.592C270.096 227.037 269.757 224.738 269.048 223.783C267.716 221.993 265.003 222 265 222C264.996 222 262.284 221.993 260.953 223.783C260.244 224.738 259.904 227.037 260.024 228.592C260.143 230.148 261.253 232.446 262.114 233.719Z" stroke="#009190" stroke-width="1.2"/>
<path fill-rule="evenodd" clip-rule="evenodd" d="M259.418 236C258.135 236.2 256.308 236.562 254.247 237.211C252.622 237.725 251.41 239.092 250.81 240.623C250.405 241.657 250.182 242.639 250.059 243.412C250.036 243.56 250.017 243.699 250 243.83C250.033 244.48 250.605 245 251.314 245H261L259.418 236Z" stroke="#009190" stroke-width="1.2"/>
<path fill-rule="evenodd" clip-rule="evenodd" d="M265.984 238C265.482 238.075 265.114 238.083 265.005 238.083H265H264.996C264.887 238.083 264.518 238.075 264.016 238L263 245H265H267L265.984 238Z" stroke="#009190" stroke-width="1.2"/>
<path fill-rule="evenodd" clip-rule="evenodd" d="M279.94 243.412C279.818 242.639 279.596 241.657 279.191 240.623C278.591 239.092 277.377 237.725 275.752 237.211C273.692 236.562 271.865 236.2 270.581 236L269 245H278.686C279.395 245 279.968 244.48 280 243.83C279.983 243.699 279.964 243.56 279.94 243.412Z" stroke="#009190" stroke-width="1.2"/>
<path fill-rule="evenodd" clip-rule="evenodd" d="M245 263H255V254H245V263Z" stroke="#009190" stroke-width="1.2"/>
<path fill-rule="evenodd" clip-rule="evenodd" d="M260 263H270V254H260V263Z" stroke="#009190" stroke-width="1.2"/>
<path fill-rule="evenodd" clip-rule="evenodd" d="M275 263H285V254H275V263Z" stroke="#009190" stroke-width="1.2"/>
<path d="M265 254V245" stroke="#009190" stroke-width="1.2"/>
<path d="M250 254V250H280V254" stroke="#009190" stroke-width="1.2"/>
<path d="M259 236L262 233" stroke="#009190" stroke-width="1.2"/>
<path d="M271 236L268 233" stroke="#009190" stroke-width="1.2"/>
<path d="M261 245H270" stroke="#009190" stroke-width="1.2"/>
<path d="M265 239L259 236" stroke="#009190" stroke-width="1.2"/>
<path d="M265 239L271 236" stroke="#009190" stroke-width="1.2"/>
<path d="M260 225H270" stroke="#009190" stroke-width="1.2"/>
<path fill-rule="evenodd" clip-rule="evenodd" d="M65.4965 38.2436C89.0699 22.272 117.51 12.9424 148.128 12.9424C178.899 12.9424 207.471 22.3655 231.113 38.4835L230.55 39.3098C207.069 23.3014 178.692 13.9424 148.128 13.9424C117.717 13.9424 89.4705 23.2085 66.0575 39.0714L65.4965 38.2436ZM0.628418 160.442C0.628418 134.382 7.38733 109.899 19.2482 88.6512L20.1214 89.1386C8.34152 110.241 1.62842 134.557 1.62842 160.442C1.62842 185.058 7.6988 208.253 18.4238 228.616L17.539 229.082C6.74017 208.579 0.628418 185.224 0.628418 160.442ZM278.223 90.8703C289.33 111.596 295.628 135.285 295.628 160.442C295.628 185.553 289.353 209.2 278.285 229.899L277.403 229.427C288.396 208.87 294.628 185.385 294.628 160.442C294.628 135.453 288.372 111.927 277.341 91.3427L278.223 90.8703ZM230.592 282.755C207.052 298.657 178.674 307.942 148.128 307.942C117.695 307.942 89.4134 298.725 65.924 282.93L66.482 282.1C89.8116 297.788 117.9 306.942 148.128 306.942C178.468 306.942 206.652 297.72 230.033 281.926L230.592 282.755Z" fill="#4BC8C8"/>
<path fill-rule="evenodd" clip-rule="evenodd" d="M271.652 47.1169C270.766 45.0541 269.44 42.9077 267.713 40.7374C267.517 40.4921 267.16 40.4515 266.915 40.6468C266.669 40.8421 266.629 41.1993 266.824 41.4447C268.489 43.5359 269.762 45.5952 270.609 47.5652C271.634 49.9515 272.034 52.2191 271.799 54.3051C271.556 56.4629 270.601 58.2855 268.962 59.7226C267.623 60.8957 265.825 61.8241 263.617 62.4821C259.798 63.6203 256.052 63.5457 256.014 63.5448C256.005 63.5447 255.996 63.5447 255.987 63.5448L255.983 63.5449C255.852 63.5469 252.153 63.6053 248.384 62.4821C246.176 61.8241 244.377 60.8957 243.039 59.7226C241.399 58.2856 240.444 56.4629 240.201 54.3051C239.826 50.9728 241.052 47.2467 243.844 43.2301C245.956 40.1937 248.526 37.6542 250.159 36.1742H261.841C262.576 36.8392 263.52 37.7363 264.52 38.796C264.735 39.0242 265.095 39.0344 265.323 38.8192C265.551 38.6039 265.561 38.2446 265.346 38.0166C264.553 37.177 263.795 36.4373 263.144 35.8298C263.582 35.5071 263.867 34.9879 263.867 34.4032C263.867 33.4267 263.073 32.6322 262.096 32.6322H261.934C262.573 31.697 263.404 30.409 264.019 29.2024C264.866 27.5382 265.114 26.4253 264.799 25.6999C264.612 25.2694 264.227 24.9907 263.715 24.9152C262.956 24.8029 261.953 25.108 260.684 25.4943L260.683 25.4945C259.25 25.9305 257.626 26.4247 256 26.4247C254.374 26.4247 252.75 25.9306 251.318 25.4946L251.317 25.4943C250.047 25.108 249.045 24.8029 248.285 24.9152C247.773 24.9907 247.388 25.2694 247.201 25.6999C246.886 26.4253 247.134 27.5382 247.982 29.2024C248.596 30.4091 249.427 31.6971 250.066 32.6322H249.904C248.928 32.6322 248.133 33.4267 248.133 34.4032C248.133 34.9876 248.418 35.5067 248.856 35.8294C244.922 39.4971 238.228 46.9366 239.073 54.4321C239.566 58.8123 242.682 61.9748 248.084 63.5778C251.993 64.7376 255.704 64.6862 256 64.6802C256.034 64.6809 256.113 64.6822 256.232 64.6822C257.149 64.6822 260.455 64.6047 263.916 63.5778C269.318 61.9749 272.434 58.8124 272.928 54.4321C273.185 52.1478 272.756 49.6866 271.652 47.1169ZM248.243 26.1525C248.258 26.1171 248.281 26.0637 248.451 26.0387C248.958 25.964 249.943 26.2634 250.986 26.5807C252.42 27.0172 254.205 27.5604 256 27.5604C257.795 27.5604 259.58 27.0172 261.014 26.5807C262.057 26.2634 263.042 25.9641 263.55 26.0387C263.719 26.0637 263.742 26.117 263.758 26.1524L263.758 26.1525C263.808 26.2685 264.155 27.4247 260.847 32.2101C260.753 32.3455 260.674 32.4869 260.609 32.6324H251.392C251.326 32.4869 251.247 32.3455 251.154 32.2101C247.846 27.4247 248.192 26.2686 248.243 26.1525ZM262.096 33.7679H249.904C249.554 33.7679 249.269 34.053 249.269 34.4034C249.269 34.7539 249.554 35.0389 249.904 35.0389H262.096C262.447 35.0389 262.732 34.7539 262.732 34.4034C262.732 34.053 262.447 33.7679 262.096 33.7679Z" fill="#0F9696"/>
<path d="M262.529 43.072C260.785 41.3281 258.467 40.3677 256 40.3677C253.534 40.3677 251.215 41.3281 249.471 43.072C248.197 44.3465 247.329 45.9489 246.963 47.7059C246.898 48.0128 247.095 48.3136 247.402 48.3776C247.709 48.4418 248.01 48.2449 248.074 47.9378C248.396 46.3977 249.156 44.9927 250.274 43.8748C253.432 40.7176 258.569 40.7176 261.726 43.8748C264.883 47.0321 264.883 52.1694 261.726 55.3268C258.569 58.4842 253.432 58.4842 250.274 55.3269C249.184 54.2361 248.431 52.8676 248.097 51.3695C248.029 51.0634 247.726 50.8704 247.419 50.9387C247.113 51.0069 246.92 51.3103 246.989 51.6163C247.369 53.3254 248.228 54.8861 249.471 56.1298C251.271 57.9298 253.636 58.8298 256 58.8298C258.365 58.8298 260.729 57.9299 262.529 56.1298C266.129 52.5298 266.129 46.6721 262.529 43.072Z" fill="#0F9696"/>
<path fill-rule="evenodd" clip-rule="evenodd" d="M256.606 49.1408L256.555 49.1221V45.9625L256.638 45.9684C257.292 46.0152 257.695 46.2167 257.989 46.3638L257.989 46.3638C258.162 46.4505 258.299 46.519 258.419 46.519C258.798 46.519 258.996 46.0172 258.996 45.7482C258.996 45.3823 258.567 45.152 258.207 45.0231C257.782 44.8712 257.193 44.7706 256.63 44.7541L256.555 44.7519V44.2745C256.555 44.1434 256.369 44.0098 256.186 44.0098C255.968 44.0098 255.832 44.1472 255.832 44.2745V44.7761L255.762 44.7834C254.933 44.8708 253.004 45.3078 253.004 47.475C253.004 49.3321 254.479 49.8566 255.78 50.3194L255.78 50.3195L255.832 50.3379V53.975L255.748 53.9685C254.772 53.892 254.25 53.4477 253.869 53.1233C253.662 52.9469 253.498 52.8076 253.343 52.8076C253.03 52.8076 252.736 53.2418 252.736 53.5784C252.736 54.2431 253.912 55.2275 255.756 55.2573L255.832 55.2586V55.7964C255.832 55.9236 255.968 56.061 256.186 56.061C256.369 56.061 256.555 55.9275 256.555 55.7965V55.2227L256.622 55.2134C258.301 54.9802 259.264 53.8905 259.264 52.2238C259.264 50.2812 257.951 49.6356 256.606 49.1408ZM255.921 48.8976L255.816 48.8579C255.007 48.5524 254.337 48.2264 254.337 47.3263C254.337 46.5802 254.854 46.1212 255.834 45.9988L255.921 45.9879V48.8976ZM256.465 53.9546L256.557 53.9376C257.443 53.7735 257.931 53.223 257.931 52.3874C257.931 51.3705 257.279 50.9508 256.574 50.6487L256.465 50.6022V53.9546Z" fill="#0F9696"/>
<path fill-rule="evenodd" clip-rule="evenodd" d="M24.9253 19.7549C23.6439 19.7549 22.575 20.8228 22.575 22.1752C22.575 23.5275 23.6439 24.5955 24.9253 24.5955C26.2089 24.5955 27.2768 23.5275 27.2768 22.1752C27.2768 20.8228 26.2089 19.7549 24.9253 19.7549ZM21.075 22.1752C21.075 20.0258 22.7845 18.2549 24.9253 18.2549C27.0684 18.2549 28.7768 20.0258 28.7768 22.1752C28.7768 24.3246 27.0684 26.0955 24.9253 26.0955C22.7845 26.0955 21.075 24.3246 21.075 22.1752Z" fill="#0F9696"/>
<path fill-rule="evenodd" clip-rule="evenodd" d="M24.1758 33.5354V28.0908H25.6758V33.5354H24.1758Z" fill="#0F9696"/>
<path fill-rule="evenodd" clip-rule="evenodd" d="M19.2109 34.5361H20.7109V41.3781H29.1412V34.5361H30.6412V42.8781H19.2109V34.5361Z" fill="#0F9696"/>
<path fill-rule="evenodd" clip-rule="evenodd" d="M17.4893 29.7877C17.0246 30.3898 16.75 31.2722 16.75 32.3187V42.1279H15.25V32.3187C15.25 31.0304 15.5857 29.7991 16.302 28.8712C17.0346 27.9221 18.1299 27.3413 19.5038 27.3413H30.3495V28.8413H19.5038C18.5944 28.8413 17.9378 29.2068 17.4893 29.7877Z" fill="#0F9696"/>
<path fill-rule="evenodd" clip-rule="evenodd" d="M32.3638 29.7873C31.9154 29.2064 31.2588 28.8408 30.3494 28.8408V27.3408C31.7233 27.3408 32.8186 27.9216 33.5512 28.8707C34.2675 29.7986 34.6032 31.0299 34.6032 32.3182V42.1274H33.1032V32.3182C33.1032 31.2717 32.8286 30.3893 32.3638 29.7873Z" fill="#0F9696"/>
<path fill-rule="evenodd" clip-rule="evenodd" d="M46.9253 19.7549C45.6439 19.7549 44.575 20.8228 44.575 22.1752C44.575 23.5275 45.6439 24.5955 46.9253 24.5955C48.2089 24.5955 49.2768 23.5275 49.2768 22.1752C49.2768 20.8228 48.2089 19.7549 46.9253 19.7549ZM43.075 22.1752C43.075 20.0258 44.7845 18.2549 46.9253 18.2549C49.0684 18.2549 50.7768 20.0258 50.7768 22.1752C50.7768 24.3246 49.0684 26.0955 46.9253 26.0955C44.7845 26.0955 43.075 24.3246 43.075 22.1752Z" fill="#0F9696"/>
<path fill-rule="evenodd" clip-rule="evenodd" d="M46.1758 33.5354V28.0908H47.6758V33.5354H46.1758Z" fill="#0F9696"/>
<path fill-rule="evenodd" clip-rule="evenodd" d="M41.2109 34.5361H42.7109V41.3781H51.1412V34.5361H52.6412V42.8781H41.2109V34.5361Z" fill="#0F9696"/>
<path fill-rule="evenodd" clip-rule="evenodd" d="M39.4893 29.7877C39.0246 30.3898 38.75 31.2722 38.75 32.3187V42.1279H37.25V32.3187C37.25 31.0304 37.5857 29.7991 38.302 28.8712C39.0346 27.9221 40.1299 27.3413 41.5038 27.3413H52.3495V28.8413H41.5038C40.5944 28.8413 39.9378 29.2068 39.4893 29.7877Z" fill="#0F9696"/>
<path fill-rule="evenodd" clip-rule="evenodd" d="M54.3638 29.7873C53.9154 29.2064 53.2588 28.8408 52.3494 28.8408V27.3408C53.7233 27.3408 54.8186 27.9216 55.5512 28.8707C56.2675 29.7986 56.6032 31.0299 56.6032 32.3182V42.1274H55.1032V32.3182C55.1032 31.2717 54.8286 30.3893 54.3638 29.7873Z" fill="#0F9696"/>
<path fill-rule="evenodd" clip-rule="evenodd" d="M35.9253 1.75C34.638 1.75 33.575 2.8121 33.575 4.14387C33.575 5.47563 34.638 6.53773 35.9253 6.53773C37.2148 6.53773 38.2768 5.47563 38.2768 4.14387C38.2768 2.8121 37.2148 1.75 35.9253 1.75ZM32.075 4.14387C32.075 2.0031 33.7903 0.25 35.9253 0.25C38.0625 0.25 39.7768 2.0031 39.7768 4.14387C39.7768 6.28464 38.0625 8.03773 35.9253 8.03773C33.7903 8.03773 32.075 6.28464 32.075 4.14387Z" fill="#0F9696"/>
<path fill-rule="evenodd" clip-rule="evenodd" d="M35.1758 15.4095V10.0103H36.6758V15.4095H35.1758Z" fill="#0F9696"/>
<path fill-rule="evenodd" clip-rule="evenodd" d="M28.4875 11.6993C28.0239 12.2948 27.75 13.1675 27.75 14.2029V17.1303H26.25V14.2029C26.25 12.923 26.5864 11.6996 27.3038 10.7779C28.0374 9.83545 29.1324 9.26074 30.5038 9.26074H41.3495V10.7607H30.5038C29.5919 10.7607 28.9349 11.1244 28.4875 11.6993Z" fill="#0F9696"/>
<path fill-rule="evenodd" clip-rule="evenodd" d="M43.3657 11.6988C42.9182 11.1239 42.2613 10.7603 41.3494 10.7603V9.26025C42.7208 9.26025 43.8158 9.83496 44.5494 10.7774C45.2668 11.6991 45.6032 12.9225 45.6032 14.2025V17.1299H44.1032V14.2025C44.1032 13.167 43.8293 12.2943 43.3657 11.6988Z" fill="#0F9696"/>
<mask id="mask0" mask-type="alpha" maskUnits="userSpaceOnUse" x="9" y="227" width="44" height="41">
<path fill-rule="evenodd" clip-rule="evenodd" d="M9 268H53V227H9V268Z" fill="white"/>
</mask>
<g mask="url(#mask0)">
<path fill-rule="evenodd" clip-rule="evenodd" d="M33.7079 265.898H39.4137V248.325H33.7079V265.898ZM22.5851 265.898H28.2911V253.231H22.5851V265.898ZM11.8098 265.898H17.5158V258.296H11.8098V265.898ZM51.4351 265.898V242.551C51.4351 242.247 51.1557 242 50.8121 242H43.8601C43.5172 242 43.2384 242.247 43.2384 242.551V251.019C43.2384 251.322 43.5172 251.569 43.8601 251.569C44.2045 251.569 44.4845 251.322 44.4845 251.019V243.103H50.1892V265.898H44.4845V254.772C44.4845 254.468 44.2045 254.221 43.8601 254.221C43.5172 254.221 43.2384 254.468 43.2384 254.772V265.898H40.6598V247.774C40.6598 247.47 40.3804 247.223 40.0368 247.223H33.0861C32.7419 247.223 32.4618 247.47 32.4618 247.774V265.898H29.5372V252.68C29.5372 252.376 29.2578 252.129 28.9141 252.129H21.962C21.6185 252.129 21.339 252.376 21.339 252.68V265.898H18.7617V257.745C18.7617 257.441 18.4823 257.193 18.1388 257.193H11.1867C10.8432 257.193 10.5637 257.441 10.5637 257.745V265.898H9.62313C9.27943 265.898 9 266.145 9 266.449C9 266.753 9.27943 267 9.62313 267H52.377C52.7206 267 53 266.753 53 266.449C53 266.145 52.7206 265.898 52.377 265.898H51.4351Z" fill="#138F8F"/>
<path fill-rule="evenodd" clip-rule="evenodd" d="M46.7056 228.108L46.9753 228.059V229.139L46.8128 229.191C45.9478 229.465 45.3665 230.218 45.3665 231.064C45.3665 232.156 46.3236 233.045 47.5001 233.045C48.0977 233.045 48.584 233.468 48.584 233.989C48.584 234.51 48.0977 234.933 47.5001 234.933C46.9016 234.933 46.4147 234.51 46.4147 233.989C46.4147 233.703 46.1792 233.471 45.8901 233.471C45.6014 233.471 45.3665 233.703 45.3665 233.989C45.3665 234.836 45.9478 235.589 46.8128 235.863L46.9753 235.914V236.94L46.7056 236.892C44.5865 236.507 43.0484 234.66 43.0484 232.5C43.0484 230.339 44.5865 228.492 46.7056 228.108ZM48.584 231.064C48.584 231.35 48.8194 231.583 49.1089 231.583C49.3974 231.583 49.6324 231.35 49.6324 231.064C49.6324 230.218 49.0511 229.465 48.1859 229.191L48.0237 229.139V228.059L48.2932 228.108C50.413 228.492 51.9516 230.339 51.9516 232.5C51.9516 234.66 50.413 236.507 48.2932 236.892L48.0237 236.94V235.914L48.1859 235.863C49.0511 235.589 49.6324 234.836 49.6324 233.989C49.6324 232.897 48.6757 232.009 47.5001 232.009C46.9016 232.009 46.4147 231.585 46.4147 231.064C46.4147 230.544 46.9016 230.12 47.5001 230.12C48.0977 230.12 48.584 230.544 48.584 231.064ZM47.5001 238C50.5328 238 53 235.533 53 232.5C53 229.467 50.5328 227 47.5001 227C44.4673 227 42 229.467 42 232.5C42 235.533 44.4673 238 47.5001 238Z" fill="#138F8F"/>
<path fill-rule="evenodd" clip-rule="evenodd" d="M13.051 251.83L21.919 243.216L26.7365 247.894C26.9766 248.128 27.3682 248.128 27.6092 247.894L37.7729 238.022V239.843C37.7729 240.167 38.0482 240.431 38.3864 240.431C38.7249 240.431 39 240.167 39 239.843V236.589C39 236.264 38.7249 236 38.3864 236H35.0367C34.6984 236 34.4231 236.264 34.4231 236.589C34.4231 236.913 34.6984 237.177 35.0367 237.177H36.9179L27.1728 246.643L22.3553 241.965C22.2352 241.848 22.0771 241.79 21.919 241.79C21.7609 241.79 21.6029 241.848 21.4826 241.965L12.1766 251.003C12.0628 251.114 11.9998 251.261 12 251.417C12 251.573 12.0628 251.72 12.1768 251.83C12.4095 252.056 12.8157 252.057 13.051 251.83Z" fill="#138F8F"/>
</g>
<path fill-rule="evenodd" clip-rule="evenodd" d="M147.168 91.9693C109.948 91.9693 79.774 122.142 79.774 159.363C79.774 196.581 109.948 226.756 147.168 226.756C184.389 226.756 214.563 196.581 214.563 159.363C214.563 122.142 184.389 91.9693 147.168 91.9693ZM78.874 159.363C78.874 121.645 109.451 91.0693 147.168 91.0693C184.886 91.0693 215.463 121.645 215.463 159.363C215.463 197.078 184.886 227.656 147.168 227.656C109.451 227.656 78.874 197.078 78.874 159.363Z" fill="#009190"/>
<path fill-rule="evenodd" clip-rule="evenodd" d="M147.168 104.547C116.895 104.547 92.354 129.09 92.354 159.363C92.354 189.635 116.895 214.177 147.168 214.177C177.443 214.177 201.984 189.635 201.984 159.363C201.984 129.09 177.443 104.547 147.168 104.547ZM91.604 159.363C91.604 128.676 116.481 103.797 147.168 103.797C177.857 103.797 202.734 128.676 202.734 159.363C202.734 190.049 177.857 214.927 147.168 214.927C116.481 214.927 91.604 190.049 91.604 159.363Z" fill="#009190"/>
<path fill-rule="evenodd" clip-rule="evenodd" d="M176.067 260.249C176.067 263.498 173.436 266.131 170.187 266.131C166.942 266.131 164.307 263.498 164.307 260.249C164.307 257.005 166.942 254.368 170.187 254.368C173.436 254.368 176.067 257.005 176.067 260.249Z" fill="#009190"/>
<path fill-rule="evenodd" clip-rule="evenodd" d="M202.385 68.4048C202.385 71.6535 199.754 74.2861 196.505 74.2861C193.257 74.2861 190.626 71.6535 190.626 68.4048C190.626 65.1607 193.257 62.5234 196.505 62.5234C199.754 62.5234 202.385 65.1607 202.385 68.4048Z" fill="#009190"/>
<path fill-rule="evenodd" clip-rule="evenodd" d="M56.6946 198.687C56.6946 201.934 54.0604 204.567 50.8148 204.567C47.566 204.567 44.9319 201.934 44.9319 198.687C44.9319 195.441 47.566 192.806 50.8148 192.806C54.0604 192.806 56.6946 195.441 56.6946 198.687Z" fill="#009190"/>
<path fill-rule="evenodd" clip-rule="evenodd" d="M254.74 187.476C254.74 190.725 252.106 193.357 248.857 193.357C245.611 193.357 242.977 190.725 242.977 187.476C242.977 184.232 245.611 181.595 248.857 181.595C252.106 181.595 254.74 184.232 254.74 187.476Z" fill="#009190"/>
<path fill-rule="evenodd" clip-rule="evenodd" d="M74.3669 90.1675C74.3669 93.4162 71.7359 96.0488 68.4871 96.0488C65.2384 96.0488 62.6042 93.4162 62.6042 90.1675C62.6042 86.9234 65.2384 84.2861 68.4871 84.2861C71.7359 84.2861 74.3669 86.9234 74.3669 90.1675Z" fill="#009190"/>
<path fill-rule="evenodd" clip-rule="evenodd" d="M147.168 55.6724C89.9023 55.6724 43.48 102.096 43.48 159.363C43.48 216.629 89.9023 263.053 147.168 263.053C204.433 263.053 250.859 216.629 250.859 159.363C250.859 102.096 204.433 55.6724 147.168 55.6724ZM42.48 159.363C42.48 101.544 89.35 54.6724 147.168 54.6724C204.986 54.6724 251.859 101.544 251.859 159.363C251.859 217.181 204.986 264.053 147.168 264.053C89.35 264.053 42.48 217.181 42.48 159.363Z" fill="#009190"/>
<path fill-rule="evenodd" clip-rule="evenodd" d="M147.168 76.5103C101.411 76.5103 64.3162 113.605 64.3162 159.363C64.3162 205.12 101.411 242.215 147.168 242.215C192.925 242.215 230.019 205.12 230.019 159.363C230.019 113.605 192.925 76.5103 147.168 76.5103ZM63.3162 159.363C63.3162 113.053 100.858 75.5103 147.168 75.5103C193.477 75.5103 231.019 113.053 231.019 159.363C231.019 205.673 193.477 243.215 147.168 243.215C100.859 243.215 63.3162 205.673 63.3162 159.363Z" fill="#009190"/>
<path fill-rule="evenodd" clip-rule="evenodd" d="M167.033 92.6816C167.033 95.9304 164.402 98.563 161.153 98.563C157.905 98.563 155.271 95.9304 155.271 92.6816C155.271 89.4376 157.905 86.8003 161.153 86.8003C164.402 86.8003 167.033 89.4376 167.033 92.6816Z" fill="#7EC7C5"/>
<path fill-rule="evenodd" clip-rule="evenodd" d="M99.7038 226.044C99.7038 229.293 97.0728 231.925 93.8241 231.925C90.5753 231.925 87.9412 229.293 87.9412 226.044C87.9412 222.8 90.5753 220.163 93.8241 220.163C97.0728 220.163 99.7038 222.8 99.7038 226.044Z" fill="#7EC7C5"/>
<path fill-rule="evenodd" clip-rule="evenodd" d="M200.33 186.011C200.33 189.259 197.699 191.892 194.451 191.892C191.205 191.892 188.571 189.259 188.571 186.011C188.571 182.767 191.205 180.129 194.451 180.129C197.699 180.129 200.33 182.767 200.33 186.011Z" fill="#7EC7C5"/>
<path fill-rule="evenodd" clip-rule="evenodd" d="M89.07 138.249C89.07 141.498 86.439 144.131 83.1903 144.131C79.9415 144.131 77.3074 141.498 77.3074 138.249C77.3074 135.005 79.9415 132.368 83.1903 132.368C86.439 132.368 89.07 135.005 89.07 138.249Z" fill="#7EC7C5"/>
<path d="M147.479 128.406L136.188 126.85L145.165 123L156.456 124.556L147.479 128.406Z" fill="url(#paint0_linear)"/>
<path d="M147.439 186L136.188 184.444V126.85L147.439 128.406V186Z" fill="url(#paint1_linear)"/>
<path d="M156.456 182.09L147.439 186V128.407L156.456 124.497V182.09Z" fill="url(#paint2_linear)"/>
<path d="M122.423 146.62L111.132 145.084L120.109 141.233L131.42 142.769L122.423 146.62Z" fill="url(#paint3_linear)"/>
<path d="M122.383 179.277L111.132 177.741V145.084L122.383 146.62V179.277Z" fill="url(#paint4_linear)"/>
<path d="M131.42 175.366L122.383 179.276V146.62L131.42 142.709V175.366Z" fill="url(#paint5_linear)"/>
<path d="M173.413 155.737L162.122 154.201L171.099 150.351L182.41 151.887L173.413 155.737Z" fill="url(#paint6_linear)"/>
<path d="M173.373 175.925L162.122 174.369V154.201L173.373 155.737V175.925Z" fill="url(#paint7_linear)"/>
<path d="M182.41 172.015L173.373 175.925V155.737L182.41 151.827V172.015Z" fill="url(#paint8_linear)"/>
<path d="M240.221 77.5283C240.114 78.666 239.694 79.5547 238.961 80.1943C238.229 80.8291 237.255 81.1465 236.039 81.1465C235.189 81.1465 234.44 80.9463 233.791 80.5459C233.146 80.1406 232.648 79.5669 232.296 78.8247C231.945 78.0825 231.762 77.2207 231.747 76.2393V75.2432C231.747 74.2373 231.925 73.3511 232.282 72.5845C232.638 71.8179 233.148 71.2271 233.812 70.812C234.481 70.397 235.253 70.1895 236.127 70.1895C237.304 70.1895 238.251 70.5093 238.969 71.1489C239.687 71.7886 240.104 72.6919 240.221 73.8589H238.375C238.288 73.0923 238.063 72.5405 237.702 72.2036C237.345 71.8618 236.82 71.6909 236.127 71.6909C235.321 71.6909 234.701 71.9863 234.267 72.5771C233.837 73.1631 233.617 74.0249 233.607 75.1626V76.1074C233.607 77.2598 233.812 78.1387 234.223 78.7441C234.638 79.3496 235.243 79.6523 236.039 79.6523C236.767 79.6523 237.313 79.4888 237.68 79.1616C238.046 78.8345 238.278 78.29 238.375 77.5283H240.221Z" fill="#0F9696"/>
<path d="M247.197 81C247.119 80.8486 247.05 80.6021 246.992 80.2603C246.425 80.8511 245.732 81.1465 244.912 81.1465C244.116 81.1465 243.466 80.9194 242.963 80.4653C242.46 80.0112 242.209 79.4497 242.209 78.7808C242.209 77.936 242.521 77.2891 243.146 76.8398C243.776 76.3857 244.675 76.1587 245.842 76.1587H246.933V75.6387C246.933 75.2285 246.818 74.9014 246.589 74.6572C246.359 74.4082 246.01 74.2837 245.542 74.2837C245.136 74.2837 244.804 74.3862 244.545 74.5913C244.287 74.7915 244.157 75.0479 244.157 75.3604H242.377C242.377 74.9258 242.521 74.5205 242.81 74.1445C243.098 73.7637 243.488 73.4658 243.981 73.251C244.479 73.0361 245.034 72.9287 245.644 72.9287C246.572 72.9287 247.312 73.1631 247.863 73.6318C248.415 74.0957 248.698 74.75 248.713 75.5947V79.1689C248.713 79.8818 248.813 80.4507 249.013 80.8755V81H247.197ZM245.241 79.7183C245.593 79.7183 245.922 79.6328 246.23 79.4619C246.542 79.291 246.777 79.0615 246.933 78.7734V77.2793H245.974C245.314 77.2793 244.819 77.394 244.487 77.6235C244.155 77.853 243.989 78.1777 243.989 78.5977C243.989 78.9395 244.101 79.2129 244.326 79.418C244.555 79.6182 244.86 79.7183 245.241 79.7183Z" fill="#0F9696"/>
<path d="M258.267 77.1182C258.267 78.3438 257.988 79.3228 257.432 80.0552C256.875 80.7827 256.128 81.1465 255.19 81.1465C254.321 81.1465 253.625 80.8608 253.103 80.2896V84.0469H251.323V73.0752H252.964L253.037 73.8809C253.56 73.2461 254.27 72.9287 255.168 72.9287C256.135 72.9287 256.892 73.29 257.439 74.0127C257.991 74.7305 258.267 75.729 258.267 77.0083V77.1182ZM256.494 76.9644C256.494 76.1733 256.335 75.5459 256.018 75.082C255.706 74.6182 255.256 74.3862 254.67 74.3862C253.943 74.3862 253.42 74.6865 253.103 75.2871V78.8027C253.425 79.418 253.953 79.7256 254.685 79.7256C255.251 79.7256 255.693 79.4985 256.011 79.0444C256.333 78.5854 256.494 77.8921 256.494 76.9644Z" fill="#0F9696"/>
<path d="M262.422 81H260.643V73.0752H262.422V81ZM260.533 71.0171C260.533 70.7437 260.618 70.5166 260.789 70.3359C260.965 70.1553 261.214 70.0649 261.536 70.0649C261.858 70.0649 262.107 70.1553 262.283 70.3359C262.459 70.5166 262.547 70.7437 262.547 71.0171C262.547 71.2856 262.459 71.5103 262.283 71.6909C262.107 71.8667 261.858 71.9546 261.536 71.9546C261.214 71.9546 260.965 71.8667 260.789 71.6909C260.618 71.5103 260.533 71.2856 260.533 71.0171Z" fill="#0F9696"/>
<path d="M267.347 71.1489V73.0752H268.746V74.3936H267.347V78.8174C267.347 79.1201 267.406 79.3398 267.523 79.4766C267.645 79.6084 267.86 79.6743 268.167 79.6743C268.373 79.6743 268.58 79.6499 268.79 79.6011V80.978C268.385 81.0903 267.994 81.1465 267.618 81.1465C266.251 81.1465 265.567 80.3921 265.567 78.8833V74.3936H264.264V73.0752H265.567V71.1489H267.347Z" fill="#0F9696"/>
<path d="M275.597 81C275.519 80.8486 275.451 80.6021 275.392 80.2603C274.826 80.8511 274.132 81.1465 273.312 81.1465C272.516 81.1465 271.867 80.9194 271.364 80.4653C270.861 80.0112 270.609 79.4497 270.609 78.7808C270.609 77.936 270.922 77.2891 271.547 76.8398C272.177 76.3857 273.075 76.1587 274.242 76.1587H275.333V75.6387C275.333 75.2285 275.219 74.9014 274.989 74.6572C274.76 74.4082 274.411 74.2837 273.942 74.2837C273.537 74.2837 273.205 74.3862 272.946 74.5913C272.687 74.7915 272.558 75.0479 272.558 75.3604H270.778C270.778 74.9258 270.922 74.5205 271.21 74.1445C271.498 73.7637 271.889 73.4658 272.382 73.251C272.88 73.0361 273.434 72.9287 274.044 72.9287C274.972 72.9287 275.712 73.1631 276.264 73.6318C276.815 74.0957 277.099 74.75 277.113 75.5947V79.1689C277.113 79.8818 277.213 80.4507 277.414 80.8755V81H275.597ZM273.642 79.7183C273.993 79.7183 274.323 79.6328 274.63 79.4619C274.943 79.291 275.177 79.0615 275.333 78.7734V77.2793H274.374C273.715 77.2793 273.219 77.394 272.887 77.6235C272.555 77.853 272.389 78.1777 272.389 78.5977C272.389 78.9395 272.501 79.2129 272.726 79.418C272.956 79.6182 273.261 79.7183 273.642 79.7183Z" fill="#0F9696"/>
<path d="M281.621 81H279.841V69.75H281.621V81Z" fill="#0F9696"/>
<path d="M243.595 274.946C243.595 275.991 243.414 276.909 243.053 277.7C242.691 278.486 242.174 279.092 241.5 279.517C240.831 279.937 240.06 280.146 239.186 280.146C238.321 280.146 237.55 279.937 236.871 279.517C236.197 279.092 235.675 278.489 235.304 277.708C234.938 276.926 234.752 276.025 234.747 275.005V274.404C234.747 273.364 234.93 272.446 235.296 271.65C235.667 270.854 236.188 270.247 236.856 269.827C237.53 269.402 238.302 269.189 239.171 269.189C240.04 269.189 240.809 269.399 241.478 269.819C242.152 270.234 242.672 270.835 243.038 271.621C243.404 272.402 243.59 273.313 243.595 274.353V274.946ZM241.742 274.39C241.742 273.208 241.517 272.302 241.068 271.672C240.624 271.042 239.991 270.728 239.171 270.728C238.37 270.728 237.743 271.042 237.289 271.672C236.839 272.297 236.61 273.184 236.6 274.331V274.946C236.6 276.118 236.827 277.024 237.281 277.664C237.74 278.303 238.375 278.623 239.186 278.623C240.006 278.623 240.636 278.311 241.075 277.686C241.52 277.061 241.742 276.147 241.742 274.946V274.39Z" fill="#0F9696"/>
<path d="M252.958 276.118C252.958 277.344 252.68 278.323 252.123 279.055C251.566 279.783 250.819 280.146 249.882 280.146C249.013 280.146 248.317 279.861 247.794 279.29V283.047H246.015V272.075H247.655L247.729 272.881C248.251 272.246 248.961 271.929 249.86 271.929C250.827 271.929 251.583 272.29 252.13 273.013C252.682 273.73 252.958 274.729 252.958 276.008V276.118ZM251.186 275.964C251.186 275.173 251.027 274.546 250.709 274.082C250.397 273.618 249.948 273.386 249.362 273.386C248.634 273.386 248.112 273.687 247.794 274.287V277.803C248.117 278.418 248.644 278.726 249.376 278.726C249.943 278.726 250.385 278.499 250.702 278.044C251.024 277.585 251.186 276.892 251.186 275.964Z" fill="#0F9696"/>
<path d="M258.71 280.146C257.583 280.146 256.667 279.792 255.964 279.084C255.266 278.372 254.917 277.424 254.917 276.243V276.023C254.917 275.232 255.068 274.526 255.371 273.906C255.678 273.281 256.108 272.795 256.66 272.449C257.211 272.102 257.827 271.929 258.505 271.929C259.584 271.929 260.417 272.273 261.003 272.961C261.594 273.65 261.889 274.624 261.889 275.884V276.602H256.711C256.765 277.256 256.982 277.773 257.363 278.154C257.749 278.535 258.232 278.726 258.813 278.726C259.628 278.726 260.292 278.396 260.805 277.737L261.765 278.652C261.447 279.126 261.022 279.495 260.49 279.758C259.963 280.017 259.37 280.146 258.71 280.146ZM258.498 273.357C258.01 273.357 257.614 273.528 257.312 273.87C257.014 274.211 256.823 274.688 256.74 275.298H260.131V275.166C260.092 274.57 259.934 274.121 259.655 273.818C259.377 273.511 258.991 273.357 258.498 273.357Z" fill="#0F9696"/>
<path d="M268.176 273.701C267.942 273.662 267.7 273.643 267.451 273.643C266.636 273.643 266.086 273.955 265.803 274.58V280H264.023V272.075H265.723L265.767 272.961C266.196 272.273 266.792 271.929 267.554 271.929C267.808 271.929 268.018 271.963 268.184 272.031L268.176 273.701Z" fill="#0F9696"/>
<path d="M274.566 280C274.488 279.849 274.419 279.602 274.361 279.26C273.794 279.851 273.101 280.146 272.281 280.146C271.485 280.146 270.835 279.919 270.333 279.465C269.83 279.011 269.578 278.45 269.578 277.781C269.578 276.936 269.891 276.289 270.516 275.84C271.146 275.386 272.044 275.159 273.211 275.159H274.302V274.639C274.302 274.229 274.188 273.901 273.958 273.657C273.729 273.408 273.379 273.284 272.911 273.284C272.505 273.284 272.173 273.386 271.915 273.591C271.656 273.792 271.526 274.048 271.526 274.36H269.747C269.747 273.926 269.891 273.521 270.179 273.145C270.467 272.764 270.857 272.466 271.351 272.251C271.849 272.036 272.403 271.929 273.013 271.929C273.941 271.929 274.681 272.163 275.232 272.632C275.784 273.096 276.067 273.75 276.082 274.595V278.169C276.082 278.882 276.182 279.451 276.382 279.875V280H274.566ZM272.61 278.718C272.962 278.718 273.292 278.633 273.599 278.462C273.912 278.291 274.146 278.062 274.302 277.773V276.279H273.343C272.684 276.279 272.188 276.394 271.856 276.624C271.524 276.853 271.358 277.178 271.358 277.598C271.358 277.939 271.47 278.213 271.695 278.418C271.924 278.618 272.229 278.718 272.61 278.718Z" fill="#0F9696"/>
<path d="M280.926 270.149V272.075H282.325V273.394H280.926V277.817C280.926 278.12 280.985 278.34 281.102 278.477C281.224 278.608 281.439 278.674 281.747 278.674C281.952 278.674 282.159 278.65 282.369 278.601V279.978C281.964 280.09 281.573 280.146 281.197 280.146C279.83 280.146 279.146 279.392 279.146 277.883V273.394H277.843V272.075H279.146V270.149H280.926Z" fill="#0F9696"/>
<path d="M286.334 280H284.555V272.075H286.334V280ZM284.445 270.017C284.445 269.744 284.53 269.517 284.701 269.336C284.877 269.155 285.126 269.065 285.448 269.065C285.771 269.065 286.02 269.155 286.195 269.336C286.371 269.517 286.459 269.744 286.459 270.017C286.459 270.286 286.371 270.51 286.195 270.691C286.02 270.867 285.771 270.955 285.448 270.955C285.126 270.955 284.877 270.867 284.701 270.691C284.53 270.51 284.445 270.286 284.445 270.017Z" fill="#0F9696"/>
<path d="M288.696 275.964C288.696 275.188 288.85 274.49 289.157 273.87C289.465 273.245 289.897 272.766 290.454 272.434C291.01 272.097 291.65 271.929 292.373 271.929C293.442 271.929 294.309 272.273 294.973 272.961C295.642 273.65 296.003 274.563 296.057 275.701L296.064 276.118C296.064 276.899 295.913 277.598 295.61 278.213C295.312 278.828 294.882 279.304 294.321 279.641C293.764 279.978 293.12 280.146 292.387 280.146C291.269 280.146 290.373 279.775 289.699 279.033C289.03 278.286 288.696 277.292 288.696 276.052V275.964ZM290.476 276.118C290.476 276.934 290.644 277.573 290.981 278.037C291.318 278.496 291.787 278.726 292.387 278.726C292.988 278.726 293.454 278.491 293.786 278.022C294.123 277.554 294.292 276.868 294.292 275.964C294.292 275.164 294.118 274.529 293.771 274.06C293.43 273.591 292.963 273.357 292.373 273.357C291.792 273.357 291.33 273.589 290.988 274.053C290.646 274.512 290.476 275.2 290.476 276.118Z" fill="#0F9696"/>
<path d="M299.971 272.075L300.022 272.991C300.608 272.283 301.377 271.929 302.329 271.929C303.979 271.929 304.819 272.874 304.849 274.763V280H303.069V274.866C303.069 274.363 302.959 273.992 302.739 273.752C302.524 273.508 302.17 273.386 301.677 273.386C300.959 273.386 300.425 273.711 300.073 274.36V280H298.293V272.075H299.971Z" fill="#0F9696"/>
<path d="M17.6577 281.253C17.6577 280.785 17.4917 280.423 17.1597 280.169C16.8325 279.916 16.2393 279.659 15.3799 279.4C14.5205 279.142 13.8369 278.854 13.3291 278.536C12.3574 277.926 11.8716 277.13 11.8716 276.148C11.8716 275.289 12.2207 274.581 12.9189 274.024C13.6221 273.468 14.5327 273.189 15.6509 273.189C16.3931 273.189 17.0547 273.326 17.6357 273.6C18.2168 273.873 18.6733 274.264 19.0054 274.771C19.3374 275.274 19.5034 275.833 19.5034 276.449H17.6577C17.6577 275.892 17.4819 275.458 17.1304 275.145C16.7837 274.828 16.2856 274.669 15.6362 274.669C15.0308 274.669 14.5596 274.798 14.2227 275.057C13.8906 275.316 13.7246 275.677 13.7246 276.141C13.7246 276.532 13.9053 276.859 14.2666 277.123C14.6279 277.381 15.2236 277.635 16.0537 277.884C16.8838 278.128 17.5503 278.409 18.0532 278.727C18.5562 279.039 18.9248 279.4 19.1592 279.811C19.3936 280.216 19.5107 280.692 19.5107 281.239C19.5107 282.127 19.1689 282.835 18.4854 283.363C17.8066 283.885 16.8838 284.146 15.7168 284.146C14.9453 284.146 14.2349 284.005 13.5854 283.722C12.9409 283.434 12.438 283.038 12.0767 282.535C11.7202 282.032 11.542 281.446 11.542 280.777H13.395C13.395 281.383 13.5952 281.852 13.9956 282.184C14.396 282.516 14.9697 282.682 15.7168 282.682C16.3613 282.682 16.8447 282.552 17.167 282.293C17.4941 282.03 17.6577 281.683 17.6577 281.253Z" fill="#0F9696"/>
<path d="M26.4497 284C26.3716 283.849 26.3032 283.602 26.2446 283.26C25.6782 283.851 24.9849 284.146 24.1646 284.146C23.3687 284.146 22.7192 283.919 22.2163 283.465C21.7134 283.011 21.4619 282.45 21.4619 281.781C21.4619 280.936 21.7744 280.289 22.3994 279.84C23.0293 279.386 23.9277 279.159 25.0947 279.159H26.186V278.639C26.186 278.229 26.0713 277.901 25.8418 277.657C25.6123 277.408 25.2632 277.284 24.7944 277.284C24.3892 277.284 24.0571 277.386 23.7983 277.591C23.5396 277.792 23.4102 278.048 23.4102 278.36H21.6304C21.6304 277.926 21.7744 277.521 22.0625 277.145C22.3506 276.764 22.7412 276.466 23.2344 276.251C23.7324 276.036 24.2866 275.929 24.897 275.929C25.8247 275.929 26.5645 276.163 27.1162 276.632C27.668 277.096 27.9512 277.75 27.9658 278.595V282.169C27.9658 282.882 28.0659 283.451 28.2661 283.875V284H26.4497ZM24.4941 282.718C24.8457 282.718 25.1753 282.633 25.4829 282.462C25.7954 282.291 26.0298 282.062 26.186 281.773V280.279H25.2266C24.5674 280.279 24.0718 280.394 23.7397 280.624C23.4077 280.853 23.2417 281.178 23.2417 281.598C23.2417 281.939 23.354 282.213 23.5786 282.418C23.8081 282.618 24.1133 282.718 24.4941 282.718Z" fill="#0F9696"/>
<path d="M32.4731 284H30.6934V272.75H32.4731V284Z" fill="#0F9696"/>
<path d="M38.6577 284.146C37.5298 284.146 36.6143 283.792 35.9111 283.084C35.2129 282.372 34.8638 281.424 34.8638 280.243V280.023C34.8638 279.232 35.0151 278.526 35.3179 277.906C35.6255 277.281 36.0552 276.795 36.6069 276.449C37.1587 276.102 37.7739 275.929 38.4526 275.929C39.5317 275.929 40.3643 276.273 40.9502 276.961C41.541 277.65 41.8364 278.624 41.8364 279.884V280.602H36.6582C36.7119 281.256 36.9292 281.773 37.3101 282.154C37.6958 282.535 38.1792 282.726 38.7603 282.726C39.5757 282.726 40.2397 282.396 40.7524 281.737L41.7119 282.652C41.3945 283.126 40.9697 283.495 40.4375 283.758C39.9102 284.017 39.3169 284.146 38.6577 284.146ZM38.4453 277.357C37.957 277.357 37.5615 277.528 37.2588 277.87C36.9609 278.211 36.7705 278.688 36.6875 279.298H40.0786V279.166C40.0396 278.57 39.8809 278.121 39.6025 277.818C39.3242 277.511 38.9385 277.357 38.4453 277.357Z" fill="#0F9696"/>
<path d="M48.4165 281.847C48.4165 281.529 48.2847 281.288 48.021 281.122C47.7622 280.956 47.3301 280.809 46.7246 280.682C46.1191 280.555 45.6138 280.394 45.2085 280.199C44.3198 279.769 43.8755 279.146 43.8755 278.331C43.8755 277.647 44.1636 277.076 44.7397 276.617C45.3159 276.158 46.0483 275.929 46.937 275.929C47.8843 275.929 48.6484 276.163 49.2295 276.632C49.8154 277.101 50.1084 277.708 50.1084 278.456H48.3286C48.3286 278.114 48.2017 277.831 47.9478 277.606C47.6938 277.376 47.3569 277.262 46.937 277.262C46.5464 277.262 46.2266 277.352 45.9775 277.533C45.7334 277.713 45.6113 277.955 45.6113 278.258C45.6113 278.531 45.7261 278.744 45.9556 278.895C46.1851 279.046 46.6489 279.2 47.3472 279.356C48.0454 279.508 48.5923 279.691 48.9878 279.906C49.3882 280.116 49.6836 280.37 49.874 280.667C50.0693 280.965 50.167 281.327 50.167 281.751C50.167 282.464 49.8716 283.043 49.2808 283.487C48.6899 283.927 47.916 284.146 46.959 284.146C46.3096 284.146 45.731 284.029 45.2231 283.795C44.7153 283.561 44.3198 283.238 44.0366 282.828C43.7534 282.418 43.6118 281.976 43.6118 281.502H45.3403C45.3647 281.922 45.5234 282.247 45.8164 282.477C46.1094 282.701 46.4976 282.813 46.981 282.813C47.4497 282.813 47.8062 282.726 48.0503 282.55C48.2944 282.369 48.4165 282.135 48.4165 281.847Z" fill="#0F9696"/>
<path d="M19.918 62H18.0723V57.2612H13.3042V62H11.4512V51.3359H13.3042V55.7744H18.0723V51.3359H19.918V62Z" fill="#0F9696"/>
<path d="M27.4941 61.2236C26.9717 61.8389 26.2295 62.1465 25.2676 62.1465C24.4082 62.1465 23.7563 61.895 23.312 61.3921C22.8726 60.8892 22.6528 60.1616 22.6528 59.2095V54.0752H24.4326V59.1875C24.4326 60.1934 24.8501 60.6963 25.6851 60.6963C26.5493 60.6963 27.1328 60.3862 27.4355 59.7661V54.0752H29.2153V62H27.5381L27.4941 61.2236Z" fill="#0F9696"/>
<path d="M33.4517 54.0752L33.5029 54.9028C34.0596 54.2534 34.8213 53.9287 35.7881 53.9287C36.8477 53.9287 37.5728 54.334 37.9634 55.1445C38.5396 54.334 39.3501 53.9287 40.395 53.9287C41.269 53.9287 41.9185 54.1704 42.3433 54.6538C42.7729 55.1372 42.9927 55.8501 43.0024 56.7925V62H41.2227V56.8438C41.2227 56.3408 41.1128 55.9722 40.8931 55.7378C40.6733 55.5034 40.3096 55.3862 39.8018 55.3862C39.3965 55.3862 39.0645 55.4961 38.8057 55.7158C38.5518 55.9307 38.3735 56.2139 38.271 56.5654L38.2783 62H36.4985V56.7852C36.4741 55.8525 35.998 55.3862 35.0703 55.3862C34.3574 55.3862 33.8521 55.6768 33.5542 56.2578V62H31.7744V54.0752H33.4517Z" fill="#0F9696"/>
<path d="M50.3149 62C50.2368 61.8486 50.1685 61.6021 50.1099 61.2603C49.5435 61.8511 48.8501 62.1465 48.0298 62.1465C47.2339 62.1465 46.5845 61.9194 46.0815 61.4653C45.5786 61.0112 45.3271 60.4497 45.3271 59.7808C45.3271 58.936 45.6396 58.2891 46.2646 57.8398C46.8945 57.3857 47.793 57.1587 48.96 57.1587H50.0513V56.6387C50.0513 56.2285 49.9365 55.9014 49.707 55.6572C49.4775 55.4082 49.1284 55.2837 48.6597 55.2837C48.2544 55.2837 47.9224 55.3862 47.6636 55.5913C47.4048 55.7915 47.2754 56.0479 47.2754 56.3604H45.4956C45.4956 55.9258 45.6396 55.5205 45.9277 55.1445C46.2158 54.7637 46.6064 54.4658 47.0996 54.251C47.5977 54.0361 48.1519 53.9287 48.7622 53.9287C49.6899 53.9287 50.4297 54.1631 50.9814 54.6318C51.5332 55.0957 51.8164 55.75 51.8311 56.5947V60.1689C51.8311 60.8818 51.9312 61.4507 52.1313 61.8755V62H50.3149ZM48.3594 60.7183C48.7109 60.7183 49.0405 60.6328 49.3481 60.4619C49.6606 60.291 49.895 60.0615 50.0513 59.7734V58.2793H49.0918C48.4326 58.2793 47.937 58.394 47.605 58.6235C47.2729 58.853 47.1069 59.1777 47.1069 59.5977C47.1069 59.9395 47.2192 60.2129 47.4438 60.418C47.6733 60.6182 47.9785 60.7183 48.3594 60.7183Z" fill="#0F9696"/>
<path d="M56.0967 54.0752L56.1479 54.9907C56.7339 54.2827 57.5029 53.9287 58.4551 53.9287C60.1055 53.9287 60.9453 54.8735 60.9746 56.7632V62H59.1948V56.8657C59.1948 56.3628 59.085 55.9917 58.8652 55.7524C58.6504 55.5083 58.2964 55.3862 57.8032 55.3862C57.0854 55.3862 56.5508 55.7109 56.1992 56.3604V62H54.4194V54.0752H56.0967Z" fill="#0F9696"/>
<path d="M6.96436 74.8911H4.89893V79H3.0459V68.3359H6.7959C8.02637 68.3359 8.97607 68.6118 9.64502 69.1636C10.314 69.7153 10.6484 70.5137 10.6484 71.5586C10.6484 72.2715 10.4751 72.8696 10.1284 73.353C9.78662 73.8315 9.30811 74.2002 8.69287 74.459L11.0879 78.9048V79H9.10303L6.96436 74.8911ZM4.89893 73.4043H6.80322C7.42822 73.4043 7.9165 73.248 8.26807 72.9355C8.61963 72.6182 8.79541 72.186 8.79541 71.6392C8.79541 71.0679 8.63184 70.626 8.30469 70.3135C7.98242 70.001 7.49902 69.8398 6.85449 69.8301H4.89893V73.4043Z" fill="#0F9696"/>
<path d="M16.4741 79.1465C15.3462 79.1465 14.4307 78.7925 13.7275 78.0845C13.0293 77.3716 12.6802 76.4243 12.6802 75.2427V75.0229C12.6802 74.2319 12.8315 73.5264 13.1343 72.9062C13.4419 72.2812 13.8716 71.7954 14.4233 71.4487C14.9751 71.1021 15.5903 70.9287 16.269 70.9287C17.3481 70.9287 18.1807 71.2729 18.7666 71.9614C19.3574 72.6499 19.6528 73.624 19.6528 74.8838V75.6016H14.4746C14.5283 76.2559 14.7456 76.7734 15.1265 77.1543C15.5122 77.5352 15.9956 77.7256 16.5767 77.7256C17.3921 77.7256 18.0562 77.396 18.5688 76.7368L19.5283 77.6523C19.2109 78.126 18.7861 78.4946 18.2539 78.7583C17.7266 79.0171 17.1333 79.1465 16.4741 79.1465ZM16.2617 72.3569C15.7734 72.3569 15.3779 72.5278 15.0752 72.8696C14.7773 73.2114 14.5869 73.6875 14.5039 74.2979H17.895V74.166C17.856 73.5703 17.6973 73.1211 17.4189 72.8184C17.1406 72.5107 16.7549 72.3569 16.2617 72.3569Z" fill="#0F9696"/>
<path d="M26.2329 76.8467C26.2329 76.5293 26.1011 76.2876 25.8374 76.1216C25.5786 75.9556 25.1465 75.8091 24.541 75.6821C23.9355 75.5552 23.4302 75.394 23.0249 75.1987C22.1362 74.769 21.6919 74.1465 21.6919 73.3311C21.6919 72.6475 21.98 72.0762 22.5562 71.6172C23.1323 71.1582 23.8647 70.9287 24.7534 70.9287C25.7007 70.9287 26.4648 71.1631 27.0459 71.6318C27.6318 72.1006 27.9248 72.7085 27.9248 73.4556H26.145C26.145 73.1138 26.0181 72.8306 25.7642 72.606C25.5103 72.3765 25.1733 72.2617 24.7534 72.2617C24.3628 72.2617 24.043 72.3521 23.7939 72.5327C23.5498 72.7134 23.4277 72.9551 23.4277 73.2578C23.4277 73.5312 23.5425 73.7437 23.772 73.895C24.0015 74.0464 24.4653 74.2002 25.1636 74.3564C25.8618 74.5078 26.4087 74.6909 26.8042 74.9058C27.2046 75.1157 27.5 75.3696 27.6904 75.6675C27.8857 75.9653 27.9834 76.3267 27.9834 76.7515C27.9834 77.4644 27.688 78.043 27.0972 78.4873C26.5063 78.9268 25.7324 79.1465 24.7754 79.1465C24.126 79.1465 23.5474 79.0293 23.0396 78.7949C22.5317 78.5605 22.1362 78.2383 21.853 77.8281C21.5698 77.418 21.4282 76.9761 21.4282 76.5024H23.1567C23.1812 76.9224 23.3398 77.2471 23.6328 77.4766C23.9258 77.7012 24.314 77.8135 24.7974 77.8135C25.2661 77.8135 25.6226 77.7256 25.8667 77.5498C26.1108 77.3691 26.2329 77.1348 26.2329 76.8467Z" fill="#0F9696"/>
<path d="M29.9565 74.9644C29.9565 74.188 30.1104 73.4897 30.418 72.8696C30.7256 72.2446 31.1577 71.7661 31.7144 71.4341C32.271 71.0972 32.9106 70.9287 33.6333 70.9287C34.7026 70.9287 35.5693 71.2729 36.2334 71.9614C36.9023 72.6499 37.2637 73.563 37.3174 74.7007L37.3247 75.1182C37.3247 75.8994 37.1733 76.5977 36.8706 77.2129C36.5728 77.8281 36.1431 78.3042 35.5815 78.6411C35.0249 78.978 34.3804 79.1465 33.6479 79.1465C32.5298 79.1465 31.6338 78.7754 30.96 78.0332C30.291 77.2861 29.9565 76.2925 29.9565 75.0522V74.9644ZM31.7363 75.1182C31.7363 75.9336 31.9048 76.5732 32.2417 77.0371C32.5786 77.4961 33.0474 77.7256 33.6479 77.7256C34.2485 77.7256 34.7148 77.4912 35.0469 77.0225C35.3838 76.5537 35.5522 75.8677 35.5522 74.9644C35.5522 74.1636 35.3789 73.5288 35.0322 73.0601C34.6904 72.5913 34.2241 72.3569 33.6333 72.3569C33.0522 72.3569 32.5908 72.5889 32.249 73.0527C31.9072 73.5117 31.7363 74.2002 31.7363 75.1182Z" fill="#0F9696"/>
<path d="M44.3809 78.2236C43.8584 78.8389 43.1162 79.1465 42.1543 79.1465C41.2949 79.1465 40.6431 78.895 40.1987 78.3921C39.7593 77.8892 39.5396 77.1616 39.5396 76.2095V71.0752H41.3193V76.1875C41.3193 77.1934 41.7368 77.6963 42.5718 77.6963C43.436 77.6963 44.0195 77.3862 44.3223 76.7661V71.0752H46.1021V79H44.4248L44.3809 78.2236Z" fill="#0F9696"/>
<path d="M52.814 72.7012C52.5796 72.6621 52.3379 72.6426 52.0889 72.6426C51.2734 72.6426 50.7241 72.9551 50.4409 73.5801V79H48.6611V71.0752H50.3604L50.4043 71.9614C50.834 71.2729 51.4297 70.9287 52.1914 70.9287C52.4453 70.9287 52.6553 70.9629 52.8213 71.0312L52.814 72.7012Z" fill="#0F9696"/>
<path d="M57.7974 77.7256C58.2417 77.7256 58.6104 77.5962 58.9033 77.3374C59.1963 77.0786 59.3525 76.7588 59.3721 76.3779H61.0493C61.0298 76.8711 60.876 77.3325 60.5879 77.7622C60.2998 78.187 59.9092 78.5239 59.416 78.7729C58.9229 79.022 58.3906 79.1465 57.8193 79.1465C56.7109 79.1465 55.832 78.7876 55.1826 78.0698C54.5332 77.3521 54.2085 76.3608 54.2085 75.0962V74.9131C54.2085 73.707 54.5308 72.7427 55.1753 72.02C55.8198 71.2925 56.6987 70.9287 57.812 70.9287C58.7544 70.9287 59.521 71.2046 60.1118 71.7563C60.7075 72.3032 61.02 73.0234 61.0493 73.917H59.3721C59.3525 73.4629 59.1963 73.0894 58.9033 72.7964C58.6152 72.5034 58.2466 72.3569 57.7974 72.3569C57.2212 72.3569 56.7769 72.5669 56.4644 72.9868C56.1519 73.4019 55.9932 74.0342 55.9883 74.8838V75.1694C55.9883 76.0288 56.1421 76.6709 56.4497 77.0957C56.7622 77.5156 57.2114 77.7256 57.7974 77.7256Z" fill="#0F9696"/>
<path d="M66.6333 79.1465C65.5054 79.1465 64.5898 78.7925 63.8867 78.0845C63.1885 77.3716 62.8394 76.4243 62.8394 75.2427V75.0229C62.8394 74.2319 62.9907 73.5264 63.2935 72.9062C63.6011 72.2812 64.0308 71.7954 64.5825 71.4487C65.1343 71.1021 65.7495 70.9287 66.4282 70.9287C67.5073 70.9287 68.3398 71.2729 68.9258 71.9614C69.5166 72.6499 69.812 73.624 69.812 74.8838V75.6016H64.6338C64.6875 76.2559 64.9048 76.7734 65.2856 77.1543C65.6714 77.5352 66.1548 77.7256 66.7358 77.7256C67.5513 77.7256 68.2153 77.396 68.728 76.7368L69.6875 77.6523C69.3701 78.126 68.9453 78.4946 68.4131 78.7583C67.8857 79.0171 67.2925 79.1465 66.6333 79.1465ZM66.4209 72.3569C65.9326 72.3569 65.5371 72.5278 65.2344 72.8696C64.9365 73.2114 64.7461 73.6875 64.6631 74.2979H68.0542V74.166C68.0151 73.5703 67.8564 73.1211 67.5781 72.8184C67.2998 72.5107 66.9141 72.3569 66.4209 72.3569Z" fill="#0F9696"/>
<defs>
<linearGradient id="paint0_linear" x1="136.188" y1="125.703" x2="156.464" y2="125.703" gradientUnits="userSpaceOnUse">
<stop stop-color="#009191"/>
<stop offset="1" stop-color="#006262"/>
</linearGradient>
<linearGradient id="paint1_linear" x1="141.813" y1="121.462" x2="141.813" y2="184.867" gradientUnits="userSpaceOnUse">
<stop stop-color="white"/>
<stop offset="0.9988" stop-color="#4DBDBC"/>
</linearGradient>
<linearGradient id="paint2_linear" x1="151.951" y1="132.079" x2="151.951" y2="185.689" gradientUnits="userSpaceOnUse">
<stop stop-color="#009191"/>
<stop offset="1" stop-color="#1D2088"/>
</linearGradient>
<linearGradient id="paint3_linear" x1="111.135" y1="143.926" x2="131.412" y2="143.926" gradientUnits="userSpaceOnUse">
<stop stop-color="#009191"/>
<stop offset="1" stop-color="#006262"/>
</linearGradient>
<linearGradient id="paint4_linear" x1="116.761" y1="127.178" x2="116.761" y2="184.967" gradientUnits="userSpaceOnUse">
<stop stop-color="white"/>
<stop offset="0.9988" stop-color="#4DBDBC"/>
</linearGradient>
<linearGradient id="paint5_linear" x1="126.899" y1="149.922" x2="126.899" y2="177.355" gradientUnits="userSpaceOnUse">
<stop stop-color="#009191"/>
<stop offset="1" stop-color="#1D2088"/>
</linearGradient>
<linearGradient id="paint6_linear" x1="162.125" y1="153.04" x2="182.401" y2="153.04" gradientUnits="userSpaceOnUse">
<stop stop-color="#009191"/>
<stop offset="1" stop-color="#006262"/>
</linearGradient>
<linearGradient id="paint7_linear" x1="167.75" y1="127.177" x2="167.75" y2="184.967" gradientUnits="userSpaceOnUse">
<stop stop-color="white"/>
<stop offset="0.9988" stop-color="#4DBDBC"/>
</linearGradient>
<linearGradient id="paint8_linear" x1="177.888" y1="150.322" x2="177.888" y2="178.977" gradientUnits="userSpaceOnUse">
<stop stop-color="#169090"/>
<stop offset="0.9988" stop-color="#FFE200"/>
</linearGradient>
</defs>
</svg>
