<svg width="369" height="296" viewBox="0 0 369 296" fill="none" xmlns="http://www.w3.org/2000/svg">
<path fill-rule="evenodd" clip-rule="evenodd" d="M293.114 230.719C293.993 232.016 295.996 232 296 232C296.003 232 298.007 232.016 298.886 230.719C299.747 229.446 300.856 227.148 300.976 225.592C301.096 224.037 300.757 221.738 300.048 220.783C298.716 218.993 296.003 219 296 219C295.996 219 293.284 218.993 291.953 220.783C291.244 221.738 290.904 224.037 291.024 225.592C291.143 227.148 292.253 229.446 293.114 230.719Z" stroke="#009190" stroke-width="1.2"/>
<path fill-rule="evenodd" clip-rule="evenodd" d="M290.418 233C289.135 233.2 287.308 233.562 285.247 234.211C283.622 234.725 282.41 236.092 281.81 237.623C281.405 238.657 281.182 239.639 281.059 240.412C281.036 240.56 281.017 240.699 281 240.83C281.033 241.48 281.605 242 282.314 242H292L290.418 233Z" stroke="#009190" stroke-width="1.2"/>
<path fill-rule="evenodd" clip-rule="evenodd" d="M296.984 235C296.482 235.075 296.114 235.083 296.005 235.083H296H295.996C295.887 235.083 295.518 235.075 295.016 235L294 242H296H298L296.984 235Z" stroke="#009190" stroke-width="1.2"/>
<path fill-rule="evenodd" clip-rule="evenodd" d="M310.94 240.412C310.818 239.639 310.596 238.657 310.191 237.623C309.591 236.092 308.377 234.725 306.752 234.211C304.692 233.562 302.865 233.2 301.581 233L300 242H309.686C310.395 242 310.968 241.48 311 240.83C310.983 240.699 310.964 240.56 310.94 240.412Z" stroke="#009190" stroke-width="1.2"/>
<path fill-rule="evenodd" clip-rule="evenodd" d="M276 260H286V251H276V260Z" stroke="#009190" stroke-width="1.2"/>
<path fill-rule="evenodd" clip-rule="evenodd" d="M291 260H301V251H291V260Z" stroke="#009190" stroke-width="1.2"/>
<path fill-rule="evenodd" clip-rule="evenodd" d="M306 260H316V251H306V260Z" stroke="#009190" stroke-width="1.2"/>
<path d="M296 251V242" stroke="#009190" stroke-width="1.2"/>
<path d="M281 251V247H311V251" stroke="#009190" stroke-width="1.2"/>
<path d="M290 233L293 230" stroke="#009190" stroke-width="1.2"/>
<path d="M302 233L299 230" stroke="#009190" stroke-width="1.2"/>
<path d="M292 242H301" stroke="#009190" stroke-width="1.2"/>
<path d="M296 236L290 233" stroke="#009190" stroke-width="1.2"/>
<path d="M296 236L302 233" stroke="#009190" stroke-width="1.2"/>
<path d="M291 222H301" stroke="#009190" stroke-width="1.2"/>
<path fill-rule="evenodd" clip-rule="evenodd" d="M105.497 26.2436C129.07 10.272 157.51 0.942383 188.128 0.942383C218.899 0.942383 247.471 10.3655 271.113 26.4835L270.55 27.3098C247.069 11.3014 218.692 1.94238 188.128 1.94238C157.717 1.94238 129.47 11.2085 106.057 27.0714L105.497 26.2436ZM40.6284 148.442C40.6284 122.382 47.3873 97.8985 59.2482 76.6512L60.1214 77.1386C48.3415 98.2408 41.6284 122.557 41.6284 148.442C41.6284 173.058 47.6988 196.253 58.4238 216.616L57.539 217.082C46.7402 196.579 40.6284 173.224 40.6284 148.442ZM318.223 78.8703C329.33 99.5963 335.628 123.285 335.628 148.442C335.628 173.553 329.353 197.2 318.285 217.899L317.403 217.427C328.396 196.87 334.628 173.385 334.628 148.442C334.628 123.453 328.372 99.927 317.341 79.3427L318.223 78.8703ZM270.592 270.755C247.052 286.657 218.674 295.942 188.128 295.942C157.695 295.942 129.413 286.725 105.924 270.93L106.482 270.1C129.812 285.788 157.9 294.942 188.128 294.942C218.468 294.942 246.652 285.72 270.033 269.926L270.592 270.755Z" fill="#4BC8C8"/>
<path fill-rule="evenodd" clip-rule="evenodd" d="M311.927 49.1351C310.925 46.8022 309.426 44.3748 307.472 41.9203C307.251 41.6429 306.847 41.597 306.569 41.8179C306.292 42.0388 306.246 42.4427 306.467 42.7202C308.35 45.0853 309.79 47.4141 310.747 49.6421C311.906 52.3407 312.359 54.9052 312.093 57.2643C311.818 59.7046 310.739 61.7659 308.884 63.3911C307.37 64.7178 305.337 65.7677 302.84 66.5119C298.521 67.7991 294.284 67.7148 294.242 67.7137L294.232 67.7136L294.211 67.7137L294.207 67.7138C294.058 67.7161 289.875 67.7821 285.612 66.5119C283.115 65.7677 281.081 64.7178 279.568 63.3911C277.713 61.766 276.634 59.7046 276.359 57.2643C275.934 53.4958 277.32 49.2818 280.479 44.7394C282.866 41.3054 285.773 38.4335 287.62 36.7597H300.832C301.662 37.5118 302.73 38.5263 303.861 39.7248C304.105 39.9829 304.511 39.9944 304.769 39.751C305.027 39.5075 305.039 39.1011 304.795 38.8434C303.899 37.8938 303.042 37.0573 302.305 36.3702C302.801 36.0053 303.123 35.4181 303.123 34.7569C303.123 33.6525 302.225 32.754 301.12 32.754H300.937C301.659 31.6963 302.599 30.2397 303.294 28.8751C304.253 26.993 304.533 25.7344 304.177 24.9142C303.966 24.4272 303.53 24.1121 302.951 24.0266C302.092 23.8996 300.958 24.2447 299.523 24.6816L299.522 24.6819C297.901 25.175 296.065 25.7338 294.226 25.7338C292.387 25.7338 290.551 25.175 288.93 24.6819L288.929 24.6816C287.494 24.2448 286.36 23.8997 285.5 24.0266C284.921 24.1121 284.486 24.4272 284.275 24.9142C283.919 25.7344 284.199 26.993 285.158 28.8751C285.853 30.2398 286.793 31.6964 287.515 32.754H287.332C286.227 32.754 285.329 33.6525 285.329 34.7569C285.329 35.4178 285.651 36.0048 286.146 36.3698C281.698 40.5177 274.127 48.9311 275.082 57.408C275.641 62.3616 279.165 65.9381 285.274 67.751C289.694 69.0627 293.891 69.0046 294.226 68.9977C294.264 68.9985 294.353 69 294.488 69C295.526 69 299.264 68.9124 303.178 67.751C309.287 65.9382 312.811 62.3617 313.369 57.408C313.66 54.8246 313.175 52.0412 311.927 49.1351ZM285.453 25.4258C285.47 25.3858 285.496 25.3254 285.688 25.2971C286.262 25.2126 287.376 25.5513 288.555 25.9101C290.177 26.4037 292.196 27.018 294.226 27.018C296.256 27.018 298.275 26.4037 299.897 25.9101C301.076 25.5513 302.19 25.2128 302.764 25.2971C302.955 25.3254 302.982 25.3857 302.999 25.4257L302.999 25.4258C303.056 25.557 303.448 26.8646 299.707 32.2765C299.601 32.4296 299.512 32.5896 299.438 32.7541H289.014C288.94 32.5896 288.851 32.4296 288.745 32.2765C285.004 26.8646 285.396 25.5571 285.453 25.4258ZM301.12 34.0378H287.332C286.935 34.0378 286.613 34.3602 286.613 34.7565C286.613 35.1528 286.935 35.4752 287.332 35.4752H301.12C301.516 35.4752 301.839 35.1528 301.839 34.7565C301.839 34.3602 301.516 34.0378 301.12 34.0378Z" fill="#0F9696"/>
<path d="M301.61 44.5604C299.637 42.5881 297.015 41.502 294.226 41.502C291.437 41.502 288.814 42.5881 286.842 44.5604C285.401 46.0017 284.42 47.8138 284.005 49.8009C283.932 50.148 284.155 50.4882 284.502 50.5606C284.849 50.6331 285.189 50.4105 285.262 50.0632C285.625 48.3214 286.486 46.7325 287.75 45.4683C291.321 41.8977 297.131 41.8976 300.701 45.4683C304.272 49.0389 304.272 54.8488 300.701 58.4195C297.131 61.9903 291.321 61.9903 287.75 58.4197C286.517 57.1861 285.665 55.6384 285.288 53.9441C285.211 53.598 284.868 53.3797 284.521 53.4569C284.175 53.534 283.957 53.8772 284.034 54.2233C284.465 56.1561 285.436 57.9212 286.842 59.3277C288.878 61.3633 291.552 62.3812 294.226 62.3812C296.9 62.3812 299.574 61.3634 301.61 59.3277C305.681 55.2563 305.681 48.6317 301.61 44.5604Z" fill="#0F9696"/>
<path fill-rule="evenodd" clip-rule="evenodd" d="M294.911 51.4239L294.853 51.4027V47.8295L294.947 47.8362C295.687 47.889 296.142 48.1169 296.475 48.2833L296.475 48.2833C296.671 48.3814 296.825 48.4588 296.961 48.4588C297.39 48.4588 297.614 47.8913 297.614 47.5871C297.614 47.1733 297.128 46.9128 296.721 46.7671C296.241 46.5953 295.574 46.4815 294.938 46.4628L294.853 46.4604V45.9204C294.853 45.7722 294.643 45.6211 294.436 45.6211C294.189 45.6211 294.036 45.7765 294.036 45.9204V46.4878L293.957 46.496C293.019 46.5948 290.837 47.089 290.837 49.54C290.837 51.6402 292.505 52.2334 293.977 52.7568L293.977 52.7569L294.036 52.7777V56.891L293.941 56.8836C292.837 56.7971 292.247 56.2946 291.815 55.9278C291.581 55.7283 291.396 55.5708 291.22 55.5708C290.867 55.5708 290.534 56.0618 290.534 56.4425C290.534 57.1942 291.864 58.3075 293.949 58.3412L294.036 58.3426V58.9509C294.036 59.0948 294.189 59.2501 294.436 59.2501C294.642 59.2501 294.853 59.0991 294.853 58.951V58.3021L294.929 58.2915C296.828 58.0278 297.917 56.7954 297.917 54.9105C297.917 52.7136 296.432 51.9835 294.911 51.4239ZM294.137 51.1487L294.018 51.1038C293.102 50.7584 292.345 50.3897 292.345 49.3717C292.345 48.5279 292.93 48.0088 294.038 47.8704L294.137 47.8581V51.1487ZM294.752 56.8683L294.856 56.849C295.858 56.6635 296.409 56.0409 296.409 55.0959C296.409 53.9458 295.672 53.4712 294.875 53.1296L294.752 53.077V56.8683Z" fill="#0F9696"/>
<path fill-rule="evenodd" clip-rule="evenodd" d="M66.9253 39.7549C65.6439 39.7549 64.575 40.8228 64.575 42.1752C64.575 43.5275 65.6439 44.5955 66.9253 44.5955C68.2089 44.5955 69.2768 43.5275 69.2768 42.1752C69.2768 40.8228 68.2089 39.7549 66.9253 39.7549ZM63.075 42.1752C63.075 40.0258 64.7845 38.2549 66.9253 38.2549C69.0684 38.2549 70.7768 40.0258 70.7768 42.1752C70.7768 44.3246 69.0684 46.0955 66.9253 46.0955C64.7845 46.0955 63.075 44.3246 63.075 42.1752Z" fill="#0F9696"/>
<path fill-rule="evenodd" clip-rule="evenodd" d="M66.1758 53.5354V48.0908H67.6758V53.5354H66.1758Z" fill="#0F9696"/>
<path fill-rule="evenodd" clip-rule="evenodd" d="M61.2109 54.5361H62.7109V61.3781H71.1412V54.5361H72.6412V62.8781H61.2109V54.5361Z" fill="#0F9696"/>
<path fill-rule="evenodd" clip-rule="evenodd" d="M59.4893 49.7873C59.0246 50.3893 58.75 51.2717 58.75 52.3182V62.1274H57.25V52.3182C57.25 51.0299 57.5857 49.7986 58.302 48.8707C59.0346 47.9216 60.1299 47.3408 61.5038 47.3408H72.3495V48.8408H61.5038C60.5944 48.8408 59.9378 49.2064 59.4893 49.7873Z" fill="#0F9696"/>
<path fill-rule="evenodd" clip-rule="evenodd" d="M74.3638 49.7873C73.9154 49.2064 73.2588 48.8408 72.3494 48.8408V47.3408C73.7233 47.3408 74.8186 47.9216 75.5512 48.8707C76.2675 49.7986 76.6032 51.0299 76.6032 52.3182V62.1274H75.1032V52.3182C75.1032 51.2717 74.8286 50.3893 74.3638 49.7873Z" fill="#0F9696"/>
<path fill-rule="evenodd" clip-rule="evenodd" d="M88.9253 39.7549C87.6439 39.7549 86.575 40.8228 86.575 42.1752C86.575 43.5275 87.6439 44.5955 88.9253 44.5955C90.2089 44.5955 91.2768 43.5275 91.2768 42.1752C91.2768 40.8228 90.2089 39.7549 88.9253 39.7549ZM85.075 42.1752C85.075 40.0258 86.7845 38.2549 88.9253 38.2549C91.0684 38.2549 92.7768 40.0258 92.7768 42.1752C92.7768 44.3246 91.0684 46.0955 88.9253 46.0955C86.7845 46.0955 85.075 44.3246 85.075 42.1752Z" fill="#0F9696"/>
<path fill-rule="evenodd" clip-rule="evenodd" d="M88.1758 53.5354V48.0908H89.6758V53.5354H88.1758Z" fill="#0F9696"/>
<path fill-rule="evenodd" clip-rule="evenodd" d="M83.2109 54.5361H84.7109V61.3781H93.1412V54.5361H94.6412V62.8781H83.2109V54.5361Z" fill="#0F9696"/>
<path fill-rule="evenodd" clip-rule="evenodd" d="M81.4893 49.7873C81.0246 50.3893 80.75 51.2717 80.75 52.3182V62.1274H79.25V52.3182C79.25 51.0299 79.5857 49.7986 80.302 48.8707C81.0346 47.9216 82.1299 47.3408 83.5038 47.3408H94.3495V48.8408H83.5038C82.5944 48.8408 81.9378 49.2064 81.4893 49.7873Z" fill="#0F9696"/>
<path fill-rule="evenodd" clip-rule="evenodd" d="M96.3638 49.7873C95.9154 49.2064 95.2588 48.8408 94.3494 48.8408V47.3408C95.7233 47.3408 96.8186 47.9216 97.5512 48.8707C98.2675 49.7986 98.6032 51.0299 98.6032 52.3182V62.1274H97.1032V52.3182C97.1032 51.2717 96.8286 50.3893 96.3638 49.7873Z" fill="#0F9696"/>
<path fill-rule="evenodd" clip-rule="evenodd" d="M77.9253 21.75C76.638 21.75 75.575 22.8121 75.575 24.1439C75.575 25.4756 76.638 26.5377 77.9253 26.5377C79.2148 26.5377 80.2768 25.4756 80.2768 24.1439C80.2768 22.8121 79.2148 21.75 77.9253 21.75ZM74.075 24.1439C74.075 22.0031 75.7903 20.25 77.9253 20.25C80.0625 20.25 81.7768 22.0031 81.7768 24.1439C81.7768 26.2846 80.0625 28.0377 77.9253 28.0377C75.7903 28.0377 74.075 26.2846 74.075 24.1439Z" fill="#0F9696"/>
<path fill-rule="evenodd" clip-rule="evenodd" d="M77.1758 35.4099V30.0107H78.6758V35.4099H77.1758Z" fill="#0F9696"/>
<path fill-rule="evenodd" clip-rule="evenodd" d="M70.4875 31.6993C70.0239 32.2948 69.75 33.1675 69.75 34.2029V37.1303H68.25V34.2029C68.25 32.923 68.5864 31.6996 69.3038 30.7779C70.0374 29.8355 71.1324 29.2607 72.5038 29.2607H83.3495V30.7607H72.5038C71.5919 30.7607 70.9349 31.1244 70.4875 31.6993Z" fill="#0F9696"/>
<path fill-rule="evenodd" clip-rule="evenodd" d="M85.3657 31.6993C84.9182 31.1244 84.2613 30.7607 83.3494 30.7607V29.2607C84.7208 29.2607 85.8158 29.8355 86.5494 30.7779C87.2668 31.6996 87.6032 32.923 87.6032 34.2029V37.1303H86.1032V34.2029C86.1032 33.1675 85.8293 32.2948 85.3657 31.6993Z" fill="#0F9696"/>
<path fill-rule="evenodd" clip-rule="evenodd" d="M18.4 43C18.4 44.76 18.34 46.26 18.26 47.5C19.42 52.76 22.28 56.78 26.82 59.56L25.42 61.4C21.68 58.88 19.04 55.52 17.5 51.3C16.18 55.38 13.44 58.76 9.28 61.44L8 59.56C13.36 56.36 16.1 51.88 16.26 46.14C16.26 44.8 16.28 43.76 16.28 43H18.4ZM38.42 43.02H40.58V45.18L40.52 46.58H48.1C48.02 50.18 47.88 53.1 47.68 55.32C47.48 57.52 47.14 59.08 46.64 59.96C46.16 60.8 45.4 61.26 44.34 61.34H41.5L40.94 59.32C41.78 59.36 42.58 59.4 43.34 59.4C44.34 59.4 44.98 58.72 45.3 57.4C45.62 56.04 45.84 53.1 45.94 48.6H40.36C40.04 51.48 39.44 53.9 38.54 55.84C37.34 58.28 35.4 60.18 32.7 61.52L31.58 59.68C34.2 58.24 35.98 56.44 36.9 54.28C37.52 52.68 37.96 50.8 38.2 48.6H32.66V46.58H38.36L38.42 45.18V43.02Z" fill="#009190"/>
<mask id="mask0" mask-type="alpha" maskUnits="userSpaceOnUse" x="52" y="220" width="44" height="41">
<path fill-rule="evenodd" clip-rule="evenodd" d="M52 261H96V220H52V261Z" fill="white"/>
</mask>
<g mask="url(#mask0)">
<path fill-rule="evenodd" clip-rule="evenodd" d="M76.7079 258.898H82.4137V241.325H76.7079V258.898ZM65.5851 258.898H71.2911V246.231H65.5851V258.898ZM54.8098 258.898H60.5158V251.296H54.8098V258.898ZM94.4351 258.898V235.551C94.4351 235.247 94.1557 235 93.8121 235H86.8601C86.5172 235 86.2384 235.247 86.2384 235.551V244.019C86.2384 244.322 86.5172 244.569 86.8601 244.569C87.2045 244.569 87.4845 244.322 87.4845 244.019V236.103H93.1892V258.898H87.4845V247.772C87.4845 247.468 87.2045 247.221 86.8601 247.221C86.5172 247.221 86.2384 247.468 86.2384 247.772V258.898H83.6598V240.774C83.6598 240.47 83.3804 240.223 83.0368 240.223H76.0861C75.7419 240.223 75.4618 240.47 75.4618 240.774V258.898H72.5372V245.68C72.5372 245.376 72.2578 245.129 71.9141 245.129H64.962C64.6185 245.129 64.339 245.376 64.339 245.68V258.898H61.7617V250.745C61.7617 250.441 61.4823 250.193 61.1388 250.193H54.1867C53.8432 250.193 53.5637 250.441 53.5637 250.745V258.898H52.6231C52.2794 258.898 52 259.145 52 259.449C52 259.753 52.2794 260 52.6231 260H95.377C95.7206 260 96 259.753 96 259.449C96 259.145 95.7206 258.898 95.377 258.898H94.4351Z" fill="#138F8F"/>
<path fill-rule="evenodd" clip-rule="evenodd" d="M89.7056 221.108L89.9753 221.059V222.139L89.8128 222.191C88.9478 222.465 88.3665 223.218 88.3665 224.064C88.3665 225.156 89.3236 226.045 90.5001 226.045C91.0977 226.045 91.584 226.468 91.584 226.989C91.584 227.51 91.0977 227.933 90.5001 227.933C89.9016 227.933 89.4147 227.51 89.4147 226.989C89.4147 226.703 89.1792 226.471 88.8901 226.471C88.6014 226.471 88.3665 226.703 88.3665 226.989C88.3665 227.836 88.9478 228.589 89.8128 228.863L89.9753 228.914V229.94L89.7056 229.892C87.5865 229.507 86.0484 227.66 86.0484 225.5C86.0484 223.339 87.5865 221.492 89.7056 221.108ZM91.584 224.064C91.584 224.35 91.8194 224.583 92.1089 224.583C92.3974 224.583 92.6324 224.35 92.6324 224.064C92.6324 223.218 92.0511 222.465 91.1859 222.191L91.0237 222.139V221.059L91.2932 221.108C93.413 221.492 94.9516 223.339 94.9516 225.5C94.9516 227.66 93.413 229.507 91.2932 229.892L91.0237 229.94V228.914L91.1859 228.863C92.0511 228.589 92.6324 227.836 92.6324 226.989C92.6324 225.897 91.6757 225.009 90.5001 225.009C89.9016 225.009 89.4147 224.585 89.4147 224.064C89.4147 223.544 89.9016 223.12 90.5001 223.12C91.0977 223.12 91.584 223.544 91.584 224.064ZM90.5001 231C93.5328 231 96 228.533 96 225.5C96 222.467 93.5328 220 90.5001 220C87.4673 220 85 222.467 85 225.5C85 228.533 87.4673 231 90.5001 231Z" fill="#138F8F"/>
<path fill-rule="evenodd" clip-rule="evenodd" d="M56.051 244.83L64.919 236.216L69.7365 240.894C69.9766 241.128 70.3682 241.128 70.6092 240.894L80.7729 231.022V232.843C80.7729 233.167 81.0482 233.431 81.3864 233.431C81.7249 233.431 82 233.167 82 232.843V229.589C82 229.264 81.7249 229 81.3864 229H78.0367C77.6984 229 77.4231 229.264 77.4231 229.589C77.4231 229.913 77.6984 230.177 78.0367 230.177H79.9179L70.1728 239.643L65.3553 234.965C65.2352 234.848 65.0771 234.79 64.919 234.79C64.7609 234.79 64.6029 234.848 64.4826 234.965L55.1766 244.003C55.0628 244.114 54.9998 244.261 55 244.417C55 244.573 55.0628 244.72 55.1768 244.83C55.4095 245.056 55.8157 245.057 56.051 244.83Z" fill="#138F8F"/>
</g>
<path fill-rule="evenodd" clip-rule="evenodd" d="M187.168 79.9693C149.948 79.9693 119.774 110.142 119.774 147.363C119.774 184.581 149.948 214.756 187.168 214.756C224.389 214.756 254.563 184.581 254.563 147.363C254.563 110.142 224.389 79.9693 187.168 79.9693ZM118.874 147.363C118.874 109.645 149.451 79.0693 187.168 79.0693C224.886 79.0693 255.463 109.645 255.463 147.363C255.463 185.078 224.886 215.656 187.168 215.656C149.451 215.656 118.874 185.078 118.874 147.363Z" fill="#009190"/>
<path fill-rule="evenodd" clip-rule="evenodd" d="M187.168 92.5469C156.895 92.5469 132.354 117.089 132.354 147.363C132.354 177.634 156.895 202.177 187.168 202.177C217.443 202.177 241.984 177.634 241.984 147.363C241.984 117.089 217.443 92.5469 187.168 92.5469ZM131.604 147.363C131.604 116.675 156.481 91.7969 187.168 91.7969C217.857 91.7969 242.734 116.675 242.734 147.363C242.734 178.049 217.857 202.927 187.168 202.927C156.481 202.927 131.604 178.049 131.604 147.363Z" fill="#009190"/>
<path fill-rule="evenodd" clip-rule="evenodd" d="M216.067 248.249C216.067 251.498 213.436 254.131 210.187 254.131C206.942 254.131 204.307 251.498 204.307 248.249C204.307 245.005 206.942 242.368 210.187 242.368C213.436 242.368 216.067 245.005 216.067 248.249Z" fill="#009190"/>
<path fill-rule="evenodd" clip-rule="evenodd" d="M242.385 56.4038C242.385 59.6526 239.754 62.2851 236.505 62.2851C233.257 62.2851 230.626 59.6526 230.626 56.4038C230.626 53.1597 233.257 50.5225 236.505 50.5225C239.754 50.5225 242.385 53.1597 242.385 56.4038Z" fill="#009190"/>
<path fill-rule="evenodd" clip-rule="evenodd" d="M96.6946 186.687C96.6946 189.934 94.0604 192.567 90.8148 192.567C87.566 192.567 84.9319 189.934 84.9319 186.687C84.9319 183.441 87.566 180.806 90.8148 180.806C94.0604 180.806 96.6946 183.441 96.6946 186.687Z" fill="#009190"/>
<path fill-rule="evenodd" clip-rule="evenodd" d="M294.74 175.475C294.74 178.724 292.106 181.356 288.857 181.356C285.611 181.356 282.977 178.724 282.977 175.475C282.977 172.231 285.611 169.594 288.857 169.594C292.106 169.594 294.74 172.231 294.74 175.475Z" fill="#009190"/>
<path fill-rule="evenodd" clip-rule="evenodd" d="M114.367 78.1665C114.367 81.4153 111.736 84.0478 108.487 84.0478C105.238 84.0478 102.604 81.4153 102.604 78.1665C102.604 74.9224 105.238 72.2852 108.487 72.2852C111.736 72.2852 114.367 74.9224 114.367 78.1665Z" fill="#009190"/>
<path fill-rule="evenodd" clip-rule="evenodd" d="M187.168 43.6719C129.902 43.6719 83.48 90.0957 83.48 147.363C83.48 204.628 129.902 251.052 187.168 251.052C244.433 251.052 290.859 204.628 290.859 147.363C290.859 90.0957 244.433 43.6719 187.168 43.6719ZM82.48 147.363C82.48 89.5435 129.35 42.6719 187.168 42.6719C244.986 42.6719 291.859 89.5434 291.859 147.363C291.859 205.181 244.986 252.052 187.168 252.052C129.35 252.052 82.48 205.181 82.48 147.363Z" fill="#009190"/>
<path fill-rule="evenodd" clip-rule="evenodd" d="M187.168 64.5098C141.411 64.5098 104.316 101.604 104.316 147.363C104.316 193.12 141.411 230.214 187.168 230.214C232.925 230.214 270.019 193.12 270.019 147.363C270.019 101.604 232.925 64.5098 187.168 64.5098ZM103.316 147.363C103.316 101.052 140.858 63.5098 187.168 63.5098C233.477 63.5098 271.019 101.052 271.019 147.363C271.019 193.672 233.477 231.214 187.168 231.214C140.859 231.214 103.316 193.672 103.316 147.363Z" fill="#009190"/>
<path fill-rule="evenodd" clip-rule="evenodd" d="M207.033 80.6811C207.033 83.9299 204.402 86.5625 201.153 86.5625C197.905 86.5625 195.271 83.9299 195.271 80.6811C195.271 77.4371 197.905 74.7998 201.153 74.7998C204.402 74.7998 207.033 77.4371 207.033 80.6811Z" fill="#7EC7C5"/>
<path fill-rule="evenodd" clip-rule="evenodd" d="M139.704 214.043C139.704 217.292 137.073 219.925 133.824 219.925C130.575 219.925 127.941 217.292 127.941 214.043C127.941 210.799 130.575 208.162 133.824 208.162C137.073 208.162 139.704 210.799 139.704 214.043Z" fill="#7EC7C5"/>
<path fill-rule="evenodd" clip-rule="evenodd" d="M240.33 174.01C240.33 177.259 237.699 179.892 234.451 179.892C231.205 179.892 228.571 177.259 228.571 174.01C228.571 170.766 231.205 168.129 234.451 168.129C237.699 168.129 240.33 170.766 240.33 174.01Z" fill="#7EC7C5"/>
<path fill-rule="evenodd" clip-rule="evenodd" d="M129.07 126.249C129.07 129.498 126.439 132.131 123.19 132.131C119.942 132.131 117.307 129.498 117.307 126.249C117.307 123.005 119.942 120.368 123.19 120.368C126.439 120.368 129.07 123.005 129.07 126.249Z" fill="#7EC7C5"/>
<path d="M12.7801 241.64V246.96H9.08006V260H11.1601V255.78H16.4401V257.08C16.4401 257.74 16.2201 258.08 15.7801 258.08L14.0001 257.98L14.5401 259.96H16.4401C17.8201 259.96 18.5201 259.14 18.5201 257.54V246.96H14.8401V241.64H12.7801ZM11.1601 252.36H16.4401V254.02H11.1601V252.36ZM16.4401 250.6H11.1601V248.94H16.4401V250.6ZM10.3001 242.4L8.56006 243.24C9.20006 244.2 9.80006 245.3 10.3601 246.5L12.0401 245.66C11.4801 244.46 10.9001 243.38 10.3001 242.4ZM17.3201 242.18C16.8801 243.32 16.2801 244.46 15.5201 245.62L17.2001 246.5C17.9601 245.38 18.5601 244.22 19.0401 243.02L17.3201 242.18ZM3.16006 241.62C2.66006 243.9 1.80006 246.06 0.560059 248.08L2.26006 249.16C2.46006 248.84 2.66006 248.5 2.86006 248.14V249.54H3.82006V251.42H1.30006V253.34H3.82006V257.06C3.82006 257.42 3.56006 257.7 3.06006 257.88L3.92006 259.68C5.70006 259.2 7.28006 258.6 8.66006 257.88L8.30006 256.06C7.50006 256.54 6.68006 256.92 5.86006 257.24V253.34H8.38006V251.42H5.86006V249.54H7.70006V247.68H3.10006C3.42006 247.04 3.74006 246.34 4.04006 245.6H8.04006V243.62H4.72006C4.88006 243.12 5.02006 242.6 5.16006 242.04L3.16006 241.62Z" fill="#009190"/>
<path d="M40.3801 253.98H26.3401V260.18H28.4001V259.36H38.3201V260.18H40.3801V253.98ZM28.4001 257.56V255.74H38.3201V257.56H28.4001ZM26.4001 247.6V252.94H41.4801V251.2H35.3401V250.2H40.2601V248.6H35.3401V247.66H40.2201V246.06H35.3401V245.08H41.1001V243.36H35.5401C35.2801 242.64 35.0201 242 34.7601 241.4L32.6001 241.76C32.9201 242.24 33.2001 242.78 33.4801 243.36H29.3401C29.5801 242.88 29.7801 242.4 29.9801 241.88L27.9401 241.48C27.1401 243.64 25.7401 245.64 23.7401 247.48L24.4001 249.54C25.1001 248.92 25.7601 248.28 26.4001 247.6ZM33.2801 251.2H28.3601V250.2H33.2801V251.2ZM33.2801 248.6H28.3601V247.66H33.2801V248.6ZM33.2801 246.06H28.3601V245.08H33.2801V246.06Z" fill="#009190"/>
<path d="M187.479 116.406L176.188 114.85L185.165 111L196.456 112.556L187.479 116.406Z" fill="url(#paint0_linear)"/>
<path d="M187.439 173.999L176.188 172.443V114.85L187.439 116.406V173.999Z" fill="url(#paint1_linear)"/>
<path d="M196.456 170.09L187.439 174V116.406L196.456 112.496V170.09Z" fill="url(#paint2_linear)"/>
<path d="M162.423 134.62L151.132 133.084L160.109 129.233L171.42 130.769L162.423 134.62Z" fill="url(#paint3_linear)"/>
<path d="M162.383 167.277L151.132 165.741V133.084L162.383 134.62V167.277Z" fill="url(#paint4_linear)"/>
<path d="M171.42 163.367L162.383 167.277V134.62L171.42 130.71V163.367Z" fill="url(#paint5_linear)"/>
<path d="M213.413 143.737L202.122 142.201L211.099 138.351L222.41 139.887L213.413 143.737Z" fill="url(#paint6_linear)"/>
<path d="M213.373 163.926L202.122 162.37V142.201L213.373 143.737V163.926Z" fill="url(#paint7_linear)"/>
<path d="M222.41 160.015L213.373 163.925V143.736L222.41 139.826V160.015Z" fill="url(#paint8_linear)"/>
<path d="M329.84 241.7L328.52 242.96C329.88 243.94 330.94 244.84 331.7 245.68L333.02 244.36C332.14 243.46 331.08 242.58 329.84 241.7ZM328.06 246.48V248.2H330.82C330.2 249.16 329.42 250.18 328.5 251.22V252.66H331.82C331.5 253.76 331.08 254.76 330.52 255.68C329.64 255.88 328.74 256.9 327.78 258.78L329.12 260.02C329.96 258.34 330.56 257.5 330.94 257.5C331.12 257.5 331.28 257.56 331.4 257.7C332.08 258.34 332.86 258.82 333.7 259.14C334.42 259.4 335.46 259.54 336.82 259.58C338.12 259.62 339.48 259.66 340.9 259.66H345.82L346.24 257.86C343.94 257.96 342.08 258.02 340.64 258.02C339.24 258.02 337.98 258 336.9 257.98C335.78 257.94 334.94 257.82 334.34 257.6C333.74 257.36 333.12 256.96 332.48 256.4C332.36 256.3 332.26 256.2 332.14 256.12C332.74 255.12 333.24 253.86 333.64 252.32V251.06H330.7C331.54 250.04 332.26 249 332.88 247.96V246.48H328.06ZM335.14 242.58V244.34H344.56V242.58H335.14ZM333.88 247.1V248.9H337.9C336.38 252.52 335.22 254.46 334.42 254.7L334.9 256.34C338.38 255.98 341.22 255.54 343.4 255C343.6 255.56 343.8 256.12 344 256.72L345.7 256.28C344.88 253.92 343.94 251.84 342.9 250.02L341.36 250.52C341.84 251.42 342.3 252.36 342.74 253.36C341.18 253.76 339.3 254.08 337.06 254.36C337.92 253.1 338.84 251.28 339.8 248.9H346V247.1H333.88Z" fill="#009190"/>
<path d="M354.86 248.84V253.12H365.24V248.84H354.86ZM363.5 251.72H356.62V250.28H363.5V251.72ZM367.12 254.2H353.06V260.08H354.92V259.3H365.28V260.08H367.12V254.2ZM354.92 257.72V255.76H365.28V257.72H354.92ZM351.34 242.84V244.5H355.68V245.52H357.56V244.5H362.44V245.52H364.32V244.5H368.66V242.84H364.32V241.64H362.44V242.84H357.56V241.64H355.68V242.84H351.34ZM368.26 246.14H351.74V250.22H353.56V247.74H366.44V250.12H368.26V246.14Z" fill="#009190"/>
<path d="M323.46 47.8795L322.52 49.2995C323.62 49.6595 324.7 50.1595 325.76 50.8195L326.78 49.2795C325.78 48.7195 324.66 48.2595 323.46 47.8795ZM329.58 47.5195C329.14 48.8795 328.28 50.0395 327.02 50.9595L328.14 52.4395C328.86 51.8795 329.5 51.2395 330.02 50.5395H332.2C331.94 51.4595 331.48 52.2195 330.84 52.7995C330 53.5195 328.64 54.0595 326.76 54.4595L327.46 56.1595C329.74 55.5995 331.36 54.8595 332.3 53.9195C332.52 53.6795 332.72 53.4395 332.92 53.1595C334.18 54.6395 336.22 55.6795 339.04 56.2595L339.72 54.5995C336.76 54.0595 334.76 53.0795 333.7 51.6595C333.82 51.2995 333.92 50.9395 334 50.5395H336.92C336.72 51.2195 336.46 51.8395 336.16 52.3795L337.98 52.9195C338.34 51.9595 338.64 50.9795 338.86 50.0195V48.8795H331.02C331.18 48.5195 331.32 48.1595 331.44 47.7595L329.58 47.5195ZM337.54 56.4595H324.42V62.6395H326.32V58.2195H335.62V62.4395H337.54V56.4595ZM330.18 58.7595C330.02 60.7195 329.5 62.0795 328.62 62.8795C327.62 63.6995 325.56 64.1795 322.42 64.3395L323.16 66.0595C326.9 65.7395 329.26 65.0595 330.26 63.9995C331.18 63.1795 331.8 61.4795 332.08 58.9195L330.18 58.7595ZM326 51.6995C324.96 52.6595 323.66 53.5395 322.14 54.3795L323.4 55.8395C324.88 54.9595 326.12 54.0195 327.12 52.9995L326 51.6995ZM332.46 62.2995L331.5 63.7395C333.9 64.3395 336.22 65.1595 338.5 66.2195L339.54 64.6395C337.4 63.7195 335.04 62.9395 332.46 62.2995Z" fill="#009190"/>
<path d="M348.7 53.6195V54.7395H353.08V57.1595H346.1V58.9195H353.08V63.8195H351.16C350.68 62.3195 350.16 61.0395 349.6 59.9595L347.9 60.5795C348.46 61.5995 348.94 62.6795 349.32 63.8195H345.4V65.6195H362.62V63.8195H358.76C359.28 62.8195 359.76 61.6995 360.2 60.4395L358.48 59.8195C358 61.2395 357.46 62.5795 356.84 63.8195H354.96V58.9195H361.92V57.1595H354.96V54.7395H359.34V53.6995C360.18 54.1795 361.1 54.6195 362.06 55.0195L363.14 53.4395C359.42 51.8995 356.64 49.9795 354.78 47.6595H353.26C351.1 50.0195 348.3 51.9595 344.84 53.4795L345.94 55.0595C346.9 54.6195 347.82 54.1395 348.7 53.6195ZM358.24 53.0395H349.64C351.24 51.9995 352.7 50.7995 354.02 49.4395C355.2 50.7995 356.6 51.9995 358.24 53.0395Z" fill="#009190"/>
<defs>
<linearGradient id="paint0_linear" x1="176.188" y1="113.703" x2="196.464" y2="113.703" gradientUnits="userSpaceOnUse">
<stop stop-color="#009191"/>
<stop offset="1" stop-color="#006262"/>
</linearGradient>
<linearGradient id="paint1_linear" x1="181.813" y1="109.461" x2="181.813" y2="172.867" gradientUnits="userSpaceOnUse">
<stop stop-color="white"/>
<stop offset="0.9988" stop-color="#4DBDBC"/>
</linearGradient>
<linearGradient id="paint2_linear" x1="191.951" y1="120.078" x2="191.951" y2="173.688" gradientUnits="userSpaceOnUse">
<stop stop-color="#009191"/>
<stop offset="1" stop-color="#1D2088"/>
</linearGradient>
<linearGradient id="paint3_linear" x1="151.135" y1="131.926" x2="171.412" y2="131.926" gradientUnits="userSpaceOnUse">
<stop stop-color="#009191"/>
<stop offset="1" stop-color="#006262"/>
</linearGradient>
<linearGradient id="paint4_linear" x1="156.761" y1="115.178" x2="156.761" y2="172.967" gradientUnits="userSpaceOnUse">
<stop stop-color="white"/>
<stop offset="0.9988" stop-color="#4DBDBC"/>
</linearGradient>
<linearGradient id="paint5_linear" x1="166.899" y1="137.923" x2="166.899" y2="165.355" gradientUnits="userSpaceOnUse">
<stop stop-color="#009191"/>
<stop offset="1" stop-color="#1D2088"/>
</linearGradient>
<linearGradient id="paint6_linear" x1="202.125" y1="141.04" x2="222.401" y2="141.04" gradientUnits="userSpaceOnUse">
<stop stop-color="#009191"/>
<stop offset="1" stop-color="#006262"/>
</linearGradient>
<linearGradient id="paint7_linear" x1="207.75" y1="115.178" x2="207.75" y2="172.968" gradientUnits="userSpaceOnUse">
<stop stop-color="white"/>
<stop offset="0.9988" stop-color="#4DBDBC"/>
</linearGradient>
<linearGradient id="paint8_linear" x1="217.888" y1="138.321" x2="217.888" y2="166.976" gradientUnits="userSpaceOnUse">
<stop stop-color="#169090"/>
<stop offset="0.9988" stop-color="#FFE200"/>
</linearGradient>
</defs>
</svg>
