<svg width="362" height="296" viewBox="0 0 362 296" fill="none" xmlns="http://www.w3.org/2000/svg">
<path fill-rule="evenodd" clip-rule="evenodd" d="M289.114 230.719C289.993 232.016 291.996 232 292 232C292.003 232 294.007 232.016 294.886 230.719C295.747 229.446 296.856 227.148 296.976 225.592C297.096 224.037 296.757 221.738 296.048 220.783C294.716 218.993 292.003 219 292 219C291.996 219 289.284 218.993 287.953 220.783C287.244 221.738 286.904 224.037 287.024 225.592C287.143 227.148 288.253 229.446 289.114 230.719Z" stroke="#009190" stroke-width="1.2"/>
<path fill-rule="evenodd" clip-rule="evenodd" d="M286.418 233C285.135 233.2 283.308 233.562 281.247 234.211C279.622 234.725 278.41 236.092 277.81 237.623C277.405 238.657 277.182 239.639 277.059 240.412C277.036 240.56 277.017 240.699 277 240.83C277.033 241.48 277.605 242 278.314 242H288L286.418 233Z" stroke="#009190" stroke-width="1.2"/>
<path fill-rule="evenodd" clip-rule="evenodd" d="M292.984 235C292.482 235.075 292.114 235.083 292.005 235.083H292H291.996C291.887 235.083 291.518 235.075 291.016 235L290 242H292H294L292.984 235Z" stroke="#009190" stroke-width="1.2"/>
<path fill-rule="evenodd" clip-rule="evenodd" d="M306.94 240.412C306.818 239.639 306.596 238.657 306.191 237.623C305.591 236.092 304.377 234.725 302.752 234.211C300.692 233.562 298.865 233.2 297.581 233L296 242H305.686C306.395 242 306.968 241.48 307 240.83C306.983 240.699 306.964 240.56 306.94 240.412Z" stroke="#009190" stroke-width="1.2"/>
<path fill-rule="evenodd" clip-rule="evenodd" d="M272 260H282V251H272V260Z" stroke="#009190" stroke-width="1.2"/>
<path fill-rule="evenodd" clip-rule="evenodd" d="M287 260H297V251H287V260Z" stroke="#009190" stroke-width="1.2"/>
<path fill-rule="evenodd" clip-rule="evenodd" d="M302 260H312V251H302V260Z" stroke="#009190" stroke-width="1.2"/>
<path d="M292 251V242" stroke="#009190" stroke-width="1.2"/>
<path d="M277 251V247H307V251" stroke="#009190" stroke-width="1.2"/>
<path d="M286 233L289 230" stroke="#009190" stroke-width="1.2"/>
<path d="M298 233L295 230" stroke="#009190" stroke-width="1.2"/>
<path d="M288 242H297" stroke="#009190" stroke-width="1.2"/>
<path d="M292 236L286 233" stroke="#009190" stroke-width="1.2"/>
<path d="M292 236L298 233" stroke="#009190" stroke-width="1.2"/>
<path d="M287 222H297" stroke="#009190" stroke-width="1.2"/>
<path fill-rule="evenodd" clip-rule="evenodd" d="M101.497 26.2436C125.07 10.272 153.51 0.942383 184.128 0.942383C214.899 0.942383 243.471 10.3655 267.113 26.4835L266.55 27.3098C243.069 11.3014 214.692 1.94238 184.128 1.94238C153.717 1.94238 125.47 11.2085 102.057 27.0714L101.497 26.2436ZM36.6284 148.442C36.6284 122.382 43.3873 97.8985 55.2482 76.6512L56.1214 77.1386C44.3415 98.2408 37.6284 122.557 37.6284 148.442C37.6284 173.058 43.6988 196.253 54.4238 216.616L53.539 217.082C42.7402 196.579 36.6284 173.224 36.6284 148.442ZM314.223 78.8703C325.33 99.5963 331.628 123.285 331.628 148.442C331.628 173.553 325.353 197.2 314.285 217.899L313.403 217.427C324.396 196.87 330.628 173.385 330.628 148.442C330.628 123.453 324.372 99.927 313.341 79.3427L314.223 78.8703ZM266.592 270.755C243.052 286.657 214.674 295.942 184.128 295.942C153.695 295.942 125.413 286.725 101.924 270.93L102.482 270.1C125.812 285.788 153.9 294.942 184.128 294.942C214.468 294.942 242.652 285.72 266.033 269.926L266.592 270.755Z" fill="#4BC8C8"/>
<path fill-rule="evenodd" clip-rule="evenodd" d="M311.459 47.0748C310.419 44.6547 308.864 42.1365 306.837 39.5903C306.608 39.3025 306.189 39.2548 305.901 39.484C305.613 39.7132 305.566 40.1322 305.795 40.4201C307.748 42.8735 309.242 45.2894 310.235 47.6007C311.437 50.4003 311.907 53.0606 311.632 55.5079C311.346 58.0394 310.226 60.1778 308.303 61.8637C306.732 63.24 304.622 64.3292 302.032 65.1012C297.552 66.4365 293.156 66.349 293.113 66.3479C293.102 66.3478 293.091 66.3478 293.08 66.3479L293.076 66.348C292.922 66.3504 288.582 66.419 284.16 65.1012C281.57 64.3292 279.46 63.24 277.89 61.8637C275.966 60.1778 274.846 58.0394 274.561 55.5079C274.121 51.5985 275.559 47.2269 278.835 42.5148C281.312 38.9524 284.327 35.9731 286.244 34.2367H299.949C300.81 35.0169 301.918 36.0694 303.092 37.3127C303.344 37.5804 303.766 37.5923 304.034 37.3398C304.301 37.0873 304.313 36.6657 304.061 36.3983C303.131 35.4132 302.241 34.5455 301.478 33.8327C301.992 33.4541 302.326 32.8449 302.326 32.159C302.326 31.0134 301.394 30.0813 300.248 30.0813H300.058C300.807 28.9841 301.783 27.473 302.504 26.0574C303.498 24.1049 303.789 22.7993 303.419 21.9483C303.2 21.4432 302.748 21.1163 302.148 21.0276C301.256 20.8959 300.08 21.2538 298.591 21.7071L298.59 21.7074C296.909 22.2189 295.004 22.7986 293.096 22.7986C291.189 22.7986 289.284 22.2189 287.603 21.7074L287.602 21.7071C286.113 21.2539 284.936 20.896 284.045 21.0276C283.444 21.1163 282.992 21.4432 282.773 21.9483C282.404 22.7993 282.695 24.1049 283.689 26.0574C284.41 27.4731 285.385 28.9842 286.134 30.0813H285.944C284.799 30.0813 283.866 31.0134 283.866 32.159C283.866 32.8447 284.2 33.4536 284.714 33.8322C280.1 38.1352 272.246 46.8632 273.237 55.6569C273.816 60.7957 277.472 64.506 283.809 66.3866C288.395 67.7473 292.749 67.6871 293.096 67.6799C293.136 67.6808 293.228 67.6823 293.368 67.6823C294.445 67.6823 298.323 67.5914 302.383 66.3866C308.721 64.5061 312.376 60.7958 312.955 55.6569C313.257 52.977 312.754 50.0895 311.459 47.0748ZM283.995 22.4789C284.013 22.4374 284.04 22.3748 284.239 22.3454C284.835 22.2578 285.99 22.6091 287.214 22.9814C288.896 23.4934 290.99 24.1306 293.096 24.1306C295.202 24.1306 297.296 23.4934 298.979 22.9814C300.202 22.6091 301.358 22.258 301.953 22.3454C302.152 22.3748 302.179 22.4373 302.197 22.4788L302.197 22.4789C302.257 22.615 302.663 23.9714 298.782 29.5857C298.672 29.7446 298.58 29.9105 298.503 30.0812H287.689C287.613 29.9105 287.52 29.7446 287.41 29.5857C283.529 23.9715 283.936 22.6151 283.995 22.4789ZM300.994 32.1589C300.994 31.7478 300.659 31.4134 300.248 31.4134H285.944C285.533 31.4134 285.199 31.7478 285.199 32.1589C285.199 32.57 285.533 32.9045 285.944 32.9045H300.248C300.659 32.9045 300.994 32.57 300.994 32.1589Z" fill="#0F9696"/>
<path d="M300.756 42.329C298.71 40.283 295.99 39.1562 293.096 39.1562C290.203 39.1562 287.483 40.283 285.437 42.329C283.941 43.8242 282.924 45.7041 282.493 47.7654C282.418 48.1256 282.649 48.4784 283.009 48.5535C283.369 48.6288 283.722 48.3978 283.797 48.0376C284.174 46.2306 285.067 44.5823 286.378 43.2709C290.083 39.5668 296.11 39.5667 299.814 43.2709C303.518 46.975 303.518 53.002 299.814 56.7063C296.11 60.4105 290.083 60.4106 286.379 56.7065C285.099 55.4267 284.216 53.8212 283.824 52.0636C283.744 51.7045 283.388 51.478 283.029 51.5582C282.67 51.6381 282.444 51.9941 282.524 52.3531C282.97 54.3582 283.978 56.1893 285.437 57.6484C287.548 59.7601 290.322 60.8161 293.096 60.8161C295.87 60.8161 298.644 59.7602 300.756 57.6484C304.98 53.4248 304.98 46.5526 300.756 42.329Z" fill="#0F9696"/>
<path fill-rule="evenodd" clip-rule="evenodd" d="M293.807 49.4489L293.747 49.427V45.7202L293.845 45.7271C294.612 45.7819 295.084 46.0183 295.429 46.1909L295.429 46.1909C295.632 46.2927 295.793 46.373 295.934 46.373C296.378 46.373 296.611 45.7843 296.611 45.4687C296.611 45.0395 296.107 44.7692 295.685 44.6181C295.187 44.4398 294.495 44.3218 293.835 44.3024L293.747 44.2998V43.7397C293.747 43.5859 293.529 43.4292 293.314 43.4292C293.058 43.4292 292.899 43.5904 292.899 43.7397V44.3283L292.817 44.3369C291.844 44.4393 289.581 44.952 289.581 47.4946C289.581 49.6734 291.311 50.2887 292.838 50.8317L292.838 50.8317L292.899 50.8533V55.1204L292.801 55.1127C291.656 55.023 291.043 54.5018 290.596 54.1212C290.353 53.9142 290.16 53.7508 289.979 53.7508C289.612 53.7508 289.266 54.2602 289.266 54.6551C289.266 55.435 290.646 56.5899 292.809 56.6248L292.899 56.6263V57.2573C292.899 57.4066 293.058 57.5678 293.314 57.5678C293.528 57.5678 293.747 57.4111 293.747 57.2574V56.5842L293.826 56.5733C295.796 56.2997 296.925 55.0213 296.925 53.0659C296.926 50.7869 295.385 50.0295 293.807 49.4489ZM293.004 49.1635L292.88 49.1169C291.931 48.7586 291.145 48.3761 291.145 47.3201C291.145 46.4447 291.752 45.9062 292.901 45.7626L293.004 45.7498V49.1635ZM293.642 55.0965L293.75 55.0765C294.789 54.8841 295.362 54.2382 295.362 53.2579C295.362 52.0648 294.596 51.5725 293.769 51.218L293.642 51.1635V55.0965Z" fill="#0F9696"/>
<path fill-rule="evenodd" clip-rule="evenodd" d="M65.6126 40.7549C64.3312 40.7549 63.2622 41.8228 63.2622 43.1752C63.2622 44.5275 64.3312 45.5955 65.6126 45.5955C66.8962 45.5955 67.964 44.5275 67.964 43.1752C67.964 41.8228 66.8962 40.7549 65.6126 40.7549ZM61.7622 43.1752C61.7622 41.0258 63.4717 39.2549 65.6126 39.2549C67.7556 39.2549 69.464 41.0258 69.464 43.1752C69.464 45.3246 67.7556 47.0955 65.6126 47.0955C63.4717 47.0955 61.7622 45.3246 61.7622 43.1752Z" fill="#0F9696"/>
<path fill-rule="evenodd" clip-rule="evenodd" d="M64.863 54.5354V49.0908H66.363V54.5354H64.863Z" fill="#0F9696"/>
<path fill-rule="evenodd" clip-rule="evenodd" d="M59.8982 55.5361H61.3982V62.3781H69.8285V55.5361H71.3285V63.8781H59.8982V55.5361Z" fill="#0F9696"/>
<path fill-rule="evenodd" clip-rule="evenodd" d="M58.1766 50.7877C57.7118 51.3898 57.4373 52.2722 57.4373 53.3187V63.1279H55.9373V53.3187C55.9373 52.0304 56.2729 50.7991 56.9892 49.8712C57.7219 48.9221 58.8172 48.3413 60.1911 48.3413H71.0367V49.8413H60.1911C59.2816 49.8413 58.625 50.2068 58.1766 50.7877Z" fill="#0F9696"/>
<path fill-rule="evenodd" clip-rule="evenodd" d="M73.0511 50.7873C72.6027 50.2064 71.9461 49.8408 71.0366 49.8408V48.3408C72.4105 48.3408 73.5058 48.9216 74.2385 49.8707C74.9548 50.7986 75.2904 52.0299 75.2904 53.3182V63.1274H73.7904V53.3182C73.7904 52.2717 73.5159 51.3893 73.0511 50.7873Z" fill="#0F9696"/>
<path fill-rule="evenodd" clip-rule="evenodd" d="M87.6126 40.7549C86.3312 40.7549 85.2622 41.8228 85.2622 43.1752C85.2622 44.5275 86.3312 45.5955 87.6126 45.5955C88.8962 45.5955 89.964 44.5275 89.964 43.1752C89.964 41.8228 88.8962 40.7549 87.6126 40.7549ZM83.7622 43.1752C83.7622 41.0258 85.4717 39.2549 87.6126 39.2549C89.7556 39.2549 91.464 41.0258 91.464 43.1752C91.464 45.3246 89.7556 47.0955 87.6126 47.0955C85.4717 47.0955 83.7622 45.3246 83.7622 43.1752Z" fill="#0F9696"/>
<path fill-rule="evenodd" clip-rule="evenodd" d="M86.863 54.5354V49.0908H88.363V54.5354H86.863Z" fill="#0F9696"/>
<path fill-rule="evenodd" clip-rule="evenodd" d="M81.8982 55.5361H83.3982V62.3781H91.8285V55.5361H93.3285V63.8781H81.8982V55.5361Z" fill="#0F9696"/>
<path fill-rule="evenodd" clip-rule="evenodd" d="M80.1766 50.7877C79.7118 51.3898 79.4373 52.2722 79.4373 53.3187V63.1279H77.9373V53.3187C77.9373 52.0304 78.2729 50.7991 78.9892 49.8712C79.7219 48.9221 80.8172 48.3413 82.1911 48.3413H93.0367V49.8413H82.1911C81.2816 49.8413 80.625 50.2068 80.1766 50.7877Z" fill="#0F9696"/>
<path fill-rule="evenodd" clip-rule="evenodd" d="M95.0511 50.7873C94.6027 50.2064 93.9461 49.8408 93.0366 49.8408V48.3408C94.4105 48.3408 95.5058 48.9216 96.2385 49.8707C96.9548 50.7986 97.2904 52.0299 97.2904 53.3182V63.1274H95.7904V53.3182C95.7904 52.2717 95.5159 51.3893 95.0511 50.7873Z" fill="#0F9696"/>
<path fill-rule="evenodd" clip-rule="evenodd" d="M76.6126 22.75C75.3253 22.75 74.2622 23.8121 74.2622 25.1439C74.2622 26.4756 75.3253 27.5377 76.6126 27.5377C77.9021 27.5377 78.964 26.4756 78.964 25.1439C78.964 23.8121 77.9021 22.75 76.6126 22.75ZM72.7622 25.1439C72.7622 23.0031 74.4776 21.25 76.6126 21.25C78.7498 21.25 80.464 23.0031 80.464 25.1439C80.464 27.2846 78.7498 29.0377 76.6126 29.0377C74.4776 29.0377 72.7622 27.2846 72.7622 25.1439Z" fill="#0F9696"/>
<path fill-rule="evenodd" clip-rule="evenodd" d="M75.863 36.4095V31.0103H77.363V36.4095H75.863Z" fill="#0F9696"/>
<path fill-rule="evenodd" clip-rule="evenodd" d="M69.1747 32.6993C68.7111 33.2948 68.4373 34.1675 68.4373 35.2029V38.1303H66.9373V35.2029C66.9373 33.923 67.2736 32.6996 67.9911 31.7779C68.7247 30.8355 69.8197 30.2607 71.1911 30.2607H82.0367V31.7607H71.1911C70.2792 31.7607 69.6222 32.1244 69.1747 32.6993Z" fill="#0F9696"/>
<path fill-rule="evenodd" clip-rule="evenodd" d="M84.053 32.6988C83.6055 32.1239 82.9485 31.7603 82.0366 31.7603V30.2603C83.4081 30.2603 84.503 30.835 85.2366 31.7774C85.9541 32.6991 86.2904 33.9225 86.2904 35.2025V38.1299H84.7904V35.2025C84.7904 34.167 84.5166 33.2943 84.053 32.6988Z" fill="#0F9696"/>
<path fill-rule="evenodd" clip-rule="evenodd" d="M17.4 43.9907C17.4 45.7507 17.34 47.2507 17.26 48.4907C18.42 53.7507 21.28 57.7707 25.82 60.5507L24.42 62.3907C20.68 59.8707 18.04 56.5107 16.5 52.2907C15.18 56.3707 12.44 59.7507 8.28 62.4307L7 60.5507C12.36 57.3507 15.1 52.8707 15.26 47.1307C15.26 45.7907 15.28 44.7507 15.28 43.9907H17.4ZM37.42 44.0107H39.58V46.1707L39.52 47.5707H47.1C47.02 51.1707 46.88 54.0907 46.68 56.3107C46.48 58.5107 46.14 60.0707 45.64 60.9507C45.16 61.7907 44.4 62.2507 43.34 62.3307H40.5L39.94 60.3107C40.78 60.3507 41.58 60.3907 42.34 60.3907C43.34 60.3907 43.98 59.7107 44.3 58.3907C44.62 57.0307 44.84 54.0907 44.94 49.5907H39.36C39.04 52.4707 38.44 54.8907 37.54 56.8307C36.34 59.2707 34.4 61.1707 31.7 62.5107L30.58 60.6707C33.2 59.2307 34.98 57.4307 35.9 55.2707C36.52 53.6707 36.96 51.7907 37.2 49.5907H31.66V47.5707H37.36L37.42 46.1707V44.0107Z" fill="#009190"/>
<path fill-rule="evenodd" clip-rule="evenodd" d="M3.52 247.66H1.82V246.82C1.58 247.06 1.36 247.32 1.12 247.58L0 246.02C1.32 244.68 2.54 243.08 3.66 241.24H5.02C6.38 242.54 7.64 243.88 8.82 245.24L7.48 246.64C7.32 246.46 7.2 246.3 7.08 246.14V247.66H5.48V249.38H8V251.22H5.48V256.46C6.28 256.26 7.08 256.06 7.88 255.84V257.78C5.72 258.38 3.42 258.9 0.98 259.32L0.48 257.34C1.5 257.22 2.52 257.06 3.52 256.88V251.22H0.94V249.38H3.52V247.66ZM2.1 251.8C2.44 252.96 2.76 254.3 3.04 255.82L1.52 256.22C1.26 254.86 0.94 253.58 0.56 252.34L2.1 251.8ZM6.8 251.74L8.32 252.16C8.06 253.48 7.72 254.66 7.32 255.68L5.88 255.16C6.24 254.26 6.54 253.12 6.8 251.74ZM2.66 245.86H6.86C5.92 244.72 5.14 243.84 4.52 243.24C3.96 244.16 3.34 245.02 2.66 245.86ZM12.5 241.2H14.5V246.38H17.88V257.68C17.88 258.96 17.2 259.6 15.88 259.6H14.14L13.64 257.68C14.22 257.74 14.76 257.78 15.26 257.78C15.68 257.78 15.9 257.5 15.9 256.98V254.6C14.54 254.98 13.1 255.32 11.58 255.62L11.12 253.74C12.76 253.54 14.34 253.22 15.9 252.8V248.22H11.06V249.78C12.02 249.9 12.72 250.02 13.2 250.1C13.76 250.22 14.46 250.38 15.32 250.6L14.64 252.2C13.88 251.96 13.1 251.78 12.3 251.62C11.9 251.54 11.48 251.46 11.06 251.4V252.58C11.02 255.52 10.42 257.9 9.22 259.74L7.62 258.3C8.6 256.84 9.1 254.98 9.14 252.72V246.38H12.5V241.2ZM9.88 241.76C10.48 242.76 11.08 243.86 11.64 245.06L10.08 245.84C9.52 244.64 8.9 243.56 8.24 242.58L9.88 241.76ZM16.98 241.62L18.62 242.42C18.18 243.62 17.6 244.8 16.88 245.94L15.36 245.14C16.04 243.94 16.58 242.78 16.98 241.62ZM39.82 253.58V259.78H37.76V258.96H27.84V259.78H25.78V253.58H39.82ZM27.84 257.16H37.76V255.34H27.84V257.16ZM25.84 247.2C25.2 247.88 24.54 248.52 23.84 249.14L23.18 247.08C25.18 245.24 26.58 243.24 27.38 241.08L29.42 241.48C29.22 242 29.02 242.48 28.78 242.96H32.92C32.64 242.38 32.36 241.84 32.04 241.36L34.2 241C34.46 241.6 34.72 242.24 34.98 242.96H40.54V244.68H34.78V245.66H39.66V247.26H34.78V248.2H39.7V249.8H34.78V250.8H40.92V252.54H25.84V247.2ZM32.72 250.8V249.8H27.8V250.8H32.72ZM32.72 248.2V247.26H27.8V248.2H32.72ZM32.72 245.66V244.68H27.8V245.66H32.72Z" fill="#009190"/>
<mask id="mask0" mask-type="alpha" maskUnits="userSpaceOnUse" x="51" y="219" width="45" height="42">
<path fill-rule="evenodd" clip-rule="evenodd" d="M51.1284 260.501H95.1284V219.501H51.1284V260.501Z" fill="white"/>
</mask>
<g mask="url(#mask0)">
<path fill-rule="evenodd" clip-rule="evenodd" d="M75.8363 258.399H81.5421V240.826H75.8363V258.399ZM64.7136 258.399H70.4195V245.732H64.7136V258.399ZM53.9383 258.399H59.6442V250.797H53.9383V258.399ZM93.5635 258.399V235.052C93.5635 234.748 93.2841 234.501 92.9406 234.501H85.9885C85.6456 234.501 85.3669 234.748 85.3669 235.052V243.52C85.3669 243.823 85.6456 244.07 85.9885 244.07C86.3329 244.07 86.613 243.823 86.613 243.52V235.604H92.3176V258.399H86.613V247.273C86.613 246.969 86.3329 246.722 85.9885 246.722C85.6456 246.722 85.3669 246.969 85.3669 247.273V258.399H82.7882V240.275C82.7882 239.971 82.5088 239.724 82.1653 239.724H75.2145C74.8703 239.724 74.5902 239.971 74.5902 240.275V258.399H71.6656V245.181C71.6656 244.877 71.3862 244.63 71.0425 244.63H64.0904C63.7469 244.63 63.4675 244.877 63.4675 245.181V258.399H60.8901V250.246C60.8901 249.941 60.6107 249.694 60.2672 249.694H53.3151C52.9716 249.694 52.6922 249.941 52.6922 250.246V258.399H51.7516C51.4078 258.399 51.1284 258.646 51.1284 258.95C51.1284 259.254 51.4078 259.501 51.7516 259.501H94.5054C94.849 259.501 95.1284 259.254 95.1284 258.95C95.1284 258.646 94.849 258.399 94.5054 258.399H93.5635Z" fill="#138F8F"/>
<path fill-rule="evenodd" clip-rule="evenodd" d="M88.834 220.609L89.1037 220.56V221.64L88.9413 221.692C88.0763 221.966 87.4949 222.719 87.4949 223.565C87.4949 224.657 88.452 225.546 89.6285 225.546C90.2261 225.546 90.7125 225.969 90.7125 226.49C90.7125 227.011 90.2261 227.434 89.6285 227.434C89.03 227.434 88.5432 227.011 88.5432 226.49C88.5432 226.204 88.3076 225.972 88.0185 225.972C87.7298 225.972 87.4949 226.204 87.4949 226.49C87.4949 227.337 88.0763 228.09 88.9413 228.364L89.1037 228.415V229.441L88.834 229.393C86.715 229.008 85.1768 227.161 85.1768 225.001C85.1768 222.84 86.715 220.993 88.834 220.609ZM90.7125 223.565C90.7125 223.851 90.9478 224.084 91.2373 224.084C91.5258 224.084 91.7609 223.851 91.7609 223.565C91.7609 222.719 91.1795 221.966 90.3144 221.692L90.1521 221.64V220.56L90.4216 220.609C92.5414 220.993 94.08 222.84 94.08 225.001C94.08 227.161 92.5414 229.008 90.4216 229.393L90.1521 229.441V228.415L90.3144 228.364C91.1795 228.09 91.7609 227.337 91.7609 226.49C91.7609 225.398 90.8041 224.51 89.6285 224.51C89.03 224.51 88.5432 224.086 88.5432 223.565C88.5432 223.045 89.03 222.621 89.6285 222.621C90.2261 222.621 90.7125 223.045 90.7125 223.565ZM89.6285 230.501C92.6612 230.501 95.1284 228.034 95.1284 225.001C95.1284 221.968 92.6612 219.501 89.6285 219.501C86.5957 219.501 84.1284 221.968 84.1284 225.001C84.1284 228.034 86.5957 230.501 89.6285 230.501Z" fill="#138F8F"/>
<path fill-rule="evenodd" clip-rule="evenodd" d="M55.1794 244.331L64.0474 235.717L68.8649 240.395C69.105 240.629 69.4966 240.629 69.7376 240.395L79.9013 230.523V232.344C79.9013 232.668 80.1766 232.932 80.5148 232.932C80.8533 232.932 81.1284 232.668 81.1284 232.344V229.09C81.1284 228.765 80.8533 228.501 80.5148 228.501H77.1651C76.8268 228.501 76.5515 228.765 76.5515 229.09C76.5515 229.414 76.8268 229.678 77.1651 229.678H79.0463L69.3012 239.144L64.4837 234.466C64.3636 234.349 64.2055 234.291 64.0474 234.291C63.8894 234.291 63.7313 234.349 63.611 234.466L54.3051 243.504C54.1912 243.615 54.1283 243.762 54.1284 243.918C54.1284 244.074 54.1912 244.22 54.3052 244.331C54.5379 244.557 54.9441 244.558 55.1794 244.331Z" fill="#138F8F"/>
</g>
<path fill-rule="evenodd" clip-rule="evenodd" d="M338.94 240.6V244.04H337.86V244.88H333.9V245.62H338.04V251.86H333.9V252.66H338.96V254.36H333.9V256H331.9V254.36H326.84V252.66H331.9V251.86H327.74V245.62H331.9V244.88H327.98V244.14H326.8V240.6H338.94ZM328.8 243.26H331.9V242.28H328.8V243.26ZM333.9 242.28V243.26H336.94V242.28H333.9ZM336.04 250.28V249.48H333.9V250.28H336.04ZM331.9 250.28V249.48H329.74V250.28H331.9ZM329.74 248.02H331.9V247.18H329.74V248.02ZM333.9 247.18V248.02H336.04V247.18H333.9ZM323.08 240.08C324.26 241.02 325.26 241.96 326.1 242.92L324.76 244.26C324.04 243.38 323.02 242.4 321.72 241.36L323.08 240.08ZM321.32 244.82H326.22V246.44C325.62 247.44 324.9 248.42 324.1 249.42H326.42V250.78C326.14 252.22 325.84 253.42 325.48 254.34C325.64 254.46 325.78 254.58 325.92 254.7C326.56 255.26 327.16 255.66 327.72 255.9C328.3 256.1 329.12 256.22 330.2 256.26C331.28 256.28 332.52 256.3 333.92 256.3C335.36 256.3 337.24 256.24 339.56 256.14L339.08 258.1H334.18C332.82 258.1 331.46 258.06 330.12 258.02C328.76 257.98 327.74 257.84 327.04 257.58C326.2 257.26 325.46 256.78 324.78 256.12C324.64 255.98 324.48 255.92 324.32 255.92C323.96 255.92 323.34 256.78 322.5 258.5L321 257.1C321.9 255.38 322.76 254.36 323.6 254.02C323.96 253.14 324.24 252.2 324.46 251.16H321.64V249.6C322.56 248.56 323.34 247.6 323.94 246.7H321.32V244.82ZM347.46 248.52H359.14V252.54H354.26L354.04 253.3H360.88V258.56H358.84V257.84H348.14V258.58H346.12V253.3H351.94L352.16 252.54H347.46V248.52ZM357.14 251V250.06H349.46V251H357.14ZM348.14 256.18H358.84V254.94H348.14V256.18ZM361.92 245.94V249.66H359.92V247.74H346.64V249.64H344.64V245.94H345.34L344.52 244.64C345.88 244.28 346.78 243.82 347.26 243.28C347.72 242.68 347.98 241.94 348.04 241.04V240.02H349.96V241.04C349.92 241.8 349.78 242.46 349.58 243.06C350.9 243.62 352.02 244.18 352.98 244.72L351.78 245.94H354.28L353.32 244.44C354.6 244.12 355.46 243.72 355.9 243.24C356.34 242.72 356.58 242.06 356.64 241.26V240H358.56V241.26C358.52 241.88 358.42 242.44 358.26 242.96C359.48 243.4 360.6 243.92 361.64 244.52L360.72 245.94H361.92ZM357.38 244.44C356.74 245.08 355.8 245.58 354.54 245.94H360.18C359.26 245.34 358.34 244.84 357.38 244.44ZM348.72 244.52C348.16 245.08 347.38 245.56 346.38 245.94H351.32C350.62 245.5 349.76 245.02 348.72 244.52ZM346.28 240.54C346.66 241.22 346.98 241.94 347.26 242.72L345.7 243.4C345.42 242.56 345.12 241.82 344.76 241.18L346.28 240.54ZM354.72 240.5C355.1 241.2 355.42 241.94 355.7 242.74L354.14 243.42C353.86 242.54 353.54 241.78 353.2 241.14L354.72 240.5ZM351.26 240.46L352.92 240.9C352.76 241.72 352.44 242.5 351.98 243.26L350.36 242.7C350.8 242 351.1 241.26 351.26 240.46ZM359.96 240.5L361.62 240.94C361.46 241.74 361.16 242.52 360.74 243.28L359.12 242.72C359.52 242.02 359.8 241.28 359.96 240.5Z" fill="#009190"/>
<path fill-rule="evenodd" clip-rule="evenodd" d="M330.037 48.3779C329.421 49.1723 328.666 49.8873 327.792 50.5229L326.66 49.0333C328.051 48.0998 328.984 46.9479 329.481 45.5576L331.387 45.7959C331.268 46.1137 331.169 46.3918 331.05 46.6698H337.941V48.0998C337.425 49.1525 336.849 50.0263 336.233 50.7215L334.843 49.5894C335.181 49.2319 335.499 48.8347 335.796 48.3779H330.037ZM321.437 46.6897H326.402V48.4375H321.437V46.6897ZM321.04 50.2647H326.819V52.0323H321.04V50.2647ZM331.943 48.4772L333.691 48.8347C333.612 49.0929 333.532 49.3511 333.453 49.5894C334.883 50.8605 336.631 51.5954 338.716 51.8337L337.882 53.5616C337.365 53.4822 336.889 53.363 336.452 53.2438V61.3471H333.095C335.022 61.6649 336.869 62.082 338.617 62.5984L337.941 64.2468C335.836 63.512 333.612 62.9559 331.308 62.5586L331.924 61.3471H327.455L328.249 62.3997C326.78 63.1545 324.674 63.7702 321.933 64.2468L321 62.6381C323.363 62.2806 325.211 61.8635 326.561 61.3471H323.205V53.0254H328.051L327.296 51.8337C329.918 51.3769 331.467 50.2647 331.943 48.4772ZM329.421 53.0254H335.836C334.645 52.5487 333.572 51.8734 332.658 50.9598C331.884 51.9131 330.811 52.5884 329.421 53.0254ZM334.426 59.7185V58.8446H325.23V59.7185H334.426ZM325.23 57.5338H334.426V56.7394H325.23V57.5338ZM325.23 55.4087H334.426V54.5745H325.23V55.4087ZM347.396 51.8138C346.542 52.3104 345.668 52.7672 344.755 53.1842L343.543 51.4365C346.979 49.9668 349.76 48.0601 351.865 45.7364H353.533C355.361 48.0005 358.121 49.9072 361.795 51.4166L360.604 53.1644C359.67 52.7672 358.796 52.3501 358.002 51.8933V52.9062H353.732V55.1108H360.564V57.0373H353.732V61.7245H355.44C356.036 60.4931 356.552 59.2021 357.009 57.8317L358.876 58.5269C358.459 59.7185 358.002 60.7711 357.525 61.7245H361.279V63.6907H344.099V61.7245H347.913C347.555 60.652 347.098 59.6192 346.562 58.6659L348.449 57.9707C348.985 59.0234 349.482 60.2746 349.919 61.7245H351.666V57.0373H344.814V55.1108H351.666V52.9062H347.396V51.8138ZM356.612 51.0591C355.102 50.0661 353.792 48.934 352.699 47.6827C351.468 48.9538 350.097 50.0661 348.608 51.0591H356.612Z" fill="#009190"/>
<path fill-rule="evenodd" clip-rule="evenodd" d="M183.168 79.9693C145.948 79.9693 115.774 110.142 115.774 147.363C115.774 184.581 145.948 214.756 183.168 214.756C220.389 214.756 250.563 184.581 250.563 147.363C250.563 110.142 220.389 79.9693 183.168 79.9693ZM114.874 147.363C114.874 109.645 145.451 79.0693 183.168 79.0693C220.886 79.0693 251.463 109.645 251.463 147.363C251.463 185.078 220.886 215.656 183.168 215.656C145.451 215.656 114.874 185.078 114.874 147.363Z" fill="#009190"/>
<path fill-rule="evenodd" clip-rule="evenodd" d="M183.168 92.5474C152.895 92.5474 128.354 117.09 128.354 147.363C128.354 177.635 152.895 202.177 183.168 202.177C213.443 202.177 237.984 177.635 237.984 147.363C237.984 117.09 213.443 92.5474 183.168 92.5474ZM127.604 147.363C127.604 116.676 152.481 91.7974 183.168 91.7974C213.857 91.7974 238.734 116.676 238.734 147.363C238.734 178.049 213.857 202.927 183.168 202.927C152.481 202.927 127.604 178.049 127.604 147.363Z" fill="#009190"/>
<path fill-rule="evenodd" clip-rule="evenodd" d="M212.067 248.249C212.067 251.498 209.436 254.131 206.187 254.131C202.942 254.131 200.307 251.498 200.307 248.249C200.307 245.005 202.942 242.368 206.187 242.368C209.436 242.368 212.067 245.005 212.067 248.249Z" fill="#009190"/>
<path fill-rule="evenodd" clip-rule="evenodd" d="M238.385 56.4048C238.385 59.6535 235.754 62.2861 232.505 62.2861C229.257 62.2861 226.626 59.6535 226.626 56.4048C226.626 53.1607 229.257 50.5234 232.505 50.5234C235.754 50.5234 238.385 53.1607 238.385 56.4048Z" fill="#009190"/>
<path fill-rule="evenodd" clip-rule="evenodd" d="M92.6946 186.687C92.6946 189.934 90.0604 192.567 86.8148 192.567C83.566 192.567 80.9319 189.934 80.9319 186.687C80.9319 183.441 83.566 180.806 86.8148 180.806C90.0604 180.806 92.6946 183.441 92.6946 186.687Z" fill="#009190"/>
<path fill-rule="evenodd" clip-rule="evenodd" d="M290.74 175.476C290.74 178.725 288.106 181.357 284.857 181.357C281.611 181.357 278.977 178.725 278.977 175.476C278.977 172.232 281.611 169.595 284.857 169.595C288.106 169.595 290.74 172.232 290.74 175.476Z" fill="#009190"/>
<path fill-rule="evenodd" clip-rule="evenodd" d="M110.367 78.1675C110.367 81.4162 107.736 84.0488 104.487 84.0488C101.238 84.0488 98.6042 81.4162 98.6042 78.1675C98.6042 74.9234 101.238 72.2861 104.487 72.2861C107.736 72.2861 110.367 74.9234 110.367 78.1675Z" fill="#009190"/>
<path fill-rule="evenodd" clip-rule="evenodd" d="M183.168 43.6724C125.902 43.6724 79.48 90.0962 79.48 147.363C79.48 204.629 125.902 251.053 183.168 251.053C240.433 251.053 286.859 204.629 286.859 147.363C286.859 90.0962 240.433 43.6724 183.168 43.6724ZM78.48 147.363C78.48 89.5439 125.35 42.6724 183.168 42.6724C240.986 42.6724 287.859 89.5439 287.859 147.363C287.859 205.181 240.986 252.053 183.168 252.053C125.35 252.053 78.48 205.181 78.48 147.363Z" fill="#009190"/>
<path fill-rule="evenodd" clip-rule="evenodd" d="M183.168 64.5103C137.411 64.5103 100.316 101.605 100.316 147.363C100.316 193.12 137.411 230.215 183.168 230.215C228.925 230.215 266.019 193.12 266.019 147.363C266.019 101.605 228.925 64.5103 183.168 64.5103ZM99.3162 147.363C99.3162 101.053 136.858 63.5103 183.168 63.5103C229.477 63.5103 267.019 101.053 267.019 147.363C267.019 193.673 229.477 231.215 183.168 231.215C136.859 231.215 99.3162 193.673 99.3162 147.363Z" fill="#009190"/>
<path fill-rule="evenodd" clip-rule="evenodd" d="M203.033 80.6816C203.033 83.9304 200.402 86.563 197.153 86.563C193.905 86.563 191.271 83.9304 191.271 80.6816C191.271 77.4376 193.905 74.8003 197.153 74.8003C200.402 74.8003 203.033 77.4376 203.033 80.6816Z" fill="#7EC7C5"/>
<path fill-rule="evenodd" clip-rule="evenodd" d="M135.704 214.044C135.704 217.293 133.073 219.925 129.824 219.925C126.575 219.925 123.941 217.293 123.941 214.044C123.941 210.8 126.575 208.163 129.824 208.163C133.073 208.163 135.704 210.8 135.704 214.044Z" fill="#7EC7C5"/>
<path fill-rule="evenodd" clip-rule="evenodd" d="M236.33 174.011C236.33 177.259 233.699 179.892 230.451 179.892C227.205 179.892 224.571 177.259 224.571 174.011C224.571 170.767 227.205 168.129 230.451 168.129C233.699 168.129 236.33 170.767 236.33 174.011Z" fill="#7EC7C5"/>
<path fill-rule="evenodd" clip-rule="evenodd" d="M125.07 126.249C125.07 129.498 122.439 132.131 119.19 132.131C115.942 132.131 113.307 129.498 113.307 126.249C113.307 123.005 115.942 120.368 119.19 120.368C122.439 120.368 125.07 123.005 125.07 126.249Z" fill="#7EC7C5"/>
<path d="M183.479 116.406L172.188 114.85L181.165 111L192.456 112.556L183.479 116.406Z" fill="url(#paint0_linear)"/>
<path d="M183.439 174L172.188 172.444V114.85L183.439 116.406V174Z" fill="url(#paint1_linear)"/>
<path d="M192.456 170.09L183.439 174V116.407L192.456 112.497V170.09Z" fill="url(#paint2_linear)"/>
<path d="M158.423 134.62L147.132 133.084L156.109 129.233L167.42 130.769L158.423 134.62Z" fill="url(#paint3_linear)"/>
<path d="M158.383 167.277L147.132 165.741V133.084L158.383 134.62V167.277Z" fill="url(#paint4_linear)"/>
<path d="M167.42 163.366L158.383 167.276V134.62L167.42 130.709V163.366Z" fill="url(#paint5_linear)"/>
<path d="M209.413 143.737L198.122 142.201L207.099 138.351L218.41 139.887L209.413 143.737Z" fill="url(#paint6_linear)"/>
<path d="M209.373 163.925L198.122 162.369V142.201L209.373 143.737V163.925Z" fill="url(#paint7_linear)"/>
<path d="M218.41 160.015L209.373 163.925V143.737L218.41 139.827V160.015Z" fill="url(#paint8_linear)"/>
<defs>
<linearGradient id="paint0_linear" x1="172.188" y1="113.703" x2="192.464" y2="113.703" gradientUnits="userSpaceOnUse">
<stop stop-color="#009191"/>
<stop offset="1" stop-color="#006262"/>
</linearGradient>
<linearGradient id="paint1_linear" x1="177.813" y1="109.462" x2="177.813" y2="172.867" gradientUnits="userSpaceOnUse">
<stop stop-color="white"/>
<stop offset="0.9988" stop-color="#4DBDBC"/>
</linearGradient>
<linearGradient id="paint2_linear" x1="187.951" y1="120.079" x2="187.951" y2="173.689" gradientUnits="userSpaceOnUse">
<stop stop-color="#009191"/>
<stop offset="1" stop-color="#1D2088"/>
</linearGradient>
<linearGradient id="paint3_linear" x1="147.135" y1="131.926" x2="167.412" y2="131.926" gradientUnits="userSpaceOnUse">
<stop stop-color="#009191"/>
<stop offset="1" stop-color="#006262"/>
</linearGradient>
<linearGradient id="paint4_linear" x1="152.761" y1="115.178" x2="152.761" y2="172.967" gradientUnits="userSpaceOnUse">
<stop stop-color="white"/>
<stop offset="0.9988" stop-color="#4DBDBC"/>
</linearGradient>
<linearGradient id="paint5_linear" x1="162.899" y1="137.922" x2="162.899" y2="165.355" gradientUnits="userSpaceOnUse">
<stop stop-color="#009191"/>
<stop offset="1" stop-color="#1D2088"/>
</linearGradient>
<linearGradient id="paint6_linear" x1="198.125" y1="141.04" x2="218.401" y2="141.04" gradientUnits="userSpaceOnUse">
<stop stop-color="#009191"/>
<stop offset="1" stop-color="#006262"/>
</linearGradient>
<linearGradient id="paint7_linear" x1="203.75" y1="115.177" x2="203.75" y2="172.967" gradientUnits="userSpaceOnUse">
<stop stop-color="white"/>
<stop offset="0.9988" stop-color="#4DBDBC"/>
</linearGradient>
<linearGradient id="paint8_linear" x1="213.888" y1="138.322" x2="213.888" y2="166.977" gradientUnits="userSpaceOnUse">
<stop stop-color="#169090"/>
<stop offset="0.9988" stop-color="#FFE200"/>
</linearGradient>
</defs>
</svg>
