<?xml version="1.0" encoding="UTF-8" standalone="no"?>
<svg width="350px" height="264px" viewBox="0 0 350 264" version="1.1" xmlns="http://www.w3.org/2000/svg" xmlns:xlink="http://www.w3.org/1999/xlink">
    <!-- Generator: Sketch 49.3 (51167) - http://www.bohemiancoding.com/sketch -->
    <title>SC_F1</title>
    <desc>Created with Sketch.</desc>
    <defs></defs>
    <g id="design" stroke="none" stroke-width="1" fill="none" fill-rule="evenodd">
        <g id="解決方案-供應鏈大腦" transform="translate(-746.000000, -1331.000000)">
            <g id="SC_F1" transform="translate(747.000000, 1332.000000)">
                <path d="M160.398922,23.9191375 C160.398922,34.0215182 168.587055,42.2102426 178.688845,42.2102426 C188.792408,42.2102426 196.981132,34.0215182 196.981132,23.9191375 C196.981132,13.8173475 188.792408,5.62803235 178.688845,5.62803235 C168.587055,5.62803235 160.398922,13.8173475 160.398922,23.9191375 Z" id="Stroke-1" stroke="#006464" stroke-width="2"></path>
                <path d="M184.962938,29.0635108 C184.962938,30.3923584 184.464628,31.4891298 183.467992,32.3538578 C182.471356,33.2185859 181.079018,33.7633075 179.290937,33.9880391 L179.290937,37.3883086 L177.40027,37.3883086 L177.40027,34.1199461 C176.305924,34.1199461 175.245794,34.0344517 174.219845,33.8634602 C173.193896,33.6924688 172.353608,33.4555271 171.698956,33.152628 L171.698956,30.8662399 C172.509943,31.2277646 173.445497,31.5233311 174.505644,31.7529481 C175.56579,31.9825652 176.530656,32.097372 177.40027,32.097372 L177.40027,25.6485849 C175.397227,25.0134739 173.992676,24.2757791 173.186573,23.4354784 C172.380471,22.5951777 171.977426,21.5106199 171.977426,20.1817722 C171.977426,18.9017793 172.473294,17.8514192 173.465044,17.0306604 C174.456794,16.2099016 175.768523,15.7115912 177.40027,15.5357143 L177.40027,12.8682615 L179.290937,12.8682615 L179.290937,15.5064016 C181.088789,15.5552563 182.823105,15.9167756 184.493935,16.5909704 L183.731806,18.5109501 C182.275936,17.9344648 180.795661,17.5924871 179.290937,17.4850067 L179.290937,23.8458558 C180.824974,24.3344027 181.973042,24.8107288 182.735175,25.2748484 C183.497308,25.738968 184.059129,26.2714761 184.420654,26.8723888 C184.782178,27.4733015 184.962938,28.2036682 184.962938,29.0635108 Z M182.471361,29.2540431 C182.471361,28.5505356 182.253961,27.9813869 181.819154,27.5465802 C181.384348,27.1117734 180.541617,26.6794159 179.290937,26.2494946 L179.290937,31.9508086 C181.41123,31.6576805 182.471361,30.7587676 182.471361,29.2540431 Z M174.454346,20.1524596 C174.454346,20.8950509 174.674189,21.4910692 175.113881,21.9405323 C175.553574,22.3899955 176.315695,22.815025 177.40027,23.2156334 L177.40027,17.5436321 C176.432947,17.6999671 175.700137,18.0053043 175.201819,18.459653 C174.703502,18.9140016 174.454346,19.4782648 174.454346,20.1524596 Z" id="$" fill="#006464"></path>
                <g id="Group-96">
                    <path d="M133.989995,0.938005391 L133.989995,23.5158695" id="Stroke-5" stroke="#006464" stroke-width="2" stroke-linecap="round"></path>
                    <path d="M123.347709,11.7250674 L143.983827,11.7250674" id="Line-2" stroke="#006464" stroke-width="2" stroke-linecap="round"></path>
                    <path d="M155.208219,25.8216355 L143.537521,25.8216355" id="Stroke-7" stroke="#006464" stroke-width="2" stroke-linecap="round"></path>
                    <path d="M149.373524,19.5710584 L149.373524,31.9117832" id="Stroke-9" stroke="#006464" stroke-width="2" stroke-linecap="round"></path>
                    <polygon id="Fill-11" fill="#009190" opacity="0.3" points="149.086884 206.841854 176.305831 206.841854 176.305831 180.194788 149.086884 180.194788"></polygon>
                    <polygon id="Fill-13" fill="#009190" opacity="0.3" points="231.070856 236.075141 303.297271 236.075141 303.297271 192.501703 231.070856 192.501703"></polygon>
                    <polygon id="Fill-15" fill="#009190" opacity="0.3" points="182.505277 206.841854 209.724225 206.841854 209.724225 180.194788 182.505277 180.194788"></polygon>
                    <polygon id="Fill-17" fill="#009190" opacity="0.3" points="40.0101709 257.063264 82.617463 257.063264 82.617463 230.416792 40.0101709 230.416792"></polygon>
                    <polygon id="Stroke-19" stroke="#006464" stroke-width="2" points="241.807677 100.243089 224.054639 105.635036 201.859328 60.1345462 219.612367 54.7437854"></polygon>
                    <polygon id="Stroke-21" stroke="#006464" stroke-width="2" points="113.417276 105.713767 94.8219116 102.318288 111.885396 54.664698 130.479571 58.0607705"></polygon>
                    <path d="M130.479631,58.0605332 C133.064269,58.3465057 141.190304,60.3963713 149.254517,57.4191715 C157.318135,54.4419716 194.340636,67.1647842 194.628346,71.4638656 C194.914868,75.7629469 192.330824,81.2082918 188.022896,81.2082918 C183.716157,81.2082918 166.197329,74.3295243 166.197329,74.3295243 C166.197329,74.3295243 154.423198,95.2535792 136.044211,89.2351026" id="Stroke-23" stroke="#006464" stroke-width="2" stroke-linecap="round"></path>
                    <path d="M201.859209,60.1347836 C201.859209,60.1347836 184.487803,53.9822203 169.35507,60.3376936" id="Stroke-25" stroke="#006464" stroke-width="2"></path>
                    <path d="M159.360047,82.819943 C149.233711,90.3228663 130.479631,104.844577 127.429544,107.005984 C122.100363,110.781178 121.031555,120.67215 130.479631,120.092492" id="Stroke-27" stroke="#006464" stroke-width="2"></path>
                    <path d="M159.018717,105.713767 C159.018717,105.713767 135.575671,116.439519 128.578483,121.050678 C125.973634,122.767107 124.560644,134.735236 135.989998,131.082263 C147.289169,127.470228 167.921095,115.60474 167.921095,115.60474" id="Stroke-29" stroke="#006464" stroke-width="2" stroke-linecap="round"></path>
                    <path d="M135.989879,131.082145 C133.901007,134.359556 135.494114,143.978795 147.399617,138.534637 C159.304526,133.089292 174.450932,124.775915 174.450932,124.775915" id="Stroke-31" stroke="#006464" stroke-width="2" stroke-linecap="round"></path>
                    <path d="M218.220954,110.702921 C221.069525,108.588385 223.134025,106.832798 224.054223,105.634917" id="Stroke-33" stroke="#006464" stroke-width="2"></path>
                    <path d="M150.115983,137.269535 C147.289407,140.616956 151.264447,149.425742 161.890115,144.553529 C162.92504,144.079479 164.29642,143.394806 165.934704,142.540448" id="Stroke-35" stroke="#006464" stroke-width="2"></path>
                    <polygon id="Stroke-37" stroke="#006464" stroke-width="2" points="39.0439634 205.307689 39.0439634 218.517011 1.67846908 218.517011 1.67846908 256.489658 39.0439634 256.489658 89.5329744 256.489658 89.5329744 218.517011 89.5329744 205.307689"></polygon>
                    <polygon id="Stroke-39" stroke="#006464" stroke-width="2" points="58.8742232 205.30757 72.7063159 205.30757 72.7063159 172.830698 58.8742232 172.830698"></polygon>
                    <polyline id="Stroke-41" stroke="#006464" stroke-width="2" points="89.5327366 256.48948 96.4496747 256.48948 96.4496747 172.830639 82.6175819 172.830639 82.6175819 205.306917"></polyline>
                    <polygon id="Stroke-42" stroke="#006464" stroke-width="2" points="47.0810697 256.489539 82.617463 256.489539 82.617463 234.90573 47.0810697 234.90573"></polygon>
                    <polygon id="Stroke-43" stroke="#006464" stroke-width="2" points="9.15620459 233.787352 17.1978287 233.787352 17.1978287 225.761728 9.15620459 225.761728"></polygon>
                    <polygon id="Stroke-44" stroke="#006464" stroke-width="2" points="23.3919241 233.787352 31.4329537 233.787352 31.4329537 225.761728 23.3919241 225.761728"></polygon>
                    <polygon id="Stroke-45" stroke="#006464" stroke-width="2" points="45.5789124 218.424336 53.619942 218.424336 53.619942 210.398712 45.5789124 210.398712"></polygon>
                    <polygon id="Stroke-46" stroke="#006464" stroke-width="2" points="59.2505055 218.424336 67.2915352 218.424336 67.2915352 210.398712 59.2505055 210.398712"></polygon>
                    <path d="M211.380759,230.010378 L121.352376,230.010378" id="Stroke-47" stroke="#006464" stroke-width="2"></path>
                    <path d="M121.352257,206.841973 L211.38064,206.841973" id="Stroke-48" stroke="#006464" stroke-width="2"></path>
                    <path d="M109.670086,218.500635 C109.670086,224.940358 114.900589,230.15906 121.352078,230.15906 C127.804162,230.15906 133.034665,224.940358 133.034665,218.500635 C133.034665,212.060913 127.804162,206.84221 121.352078,206.84221 C114.900589,206.84221 109.670086,212.060913 109.670086,218.500635 Z" id="Stroke-49" stroke="#006464" stroke-width="2"></path>
                    <path d="M199.699182,218.500635 C199.699182,224.940358 204.929686,230.15906 211.38058,230.15906 C217.83207,230.15906 223.061384,224.940358 223.061384,218.500635 C223.061384,212.060913 217.83207,206.84221 211.38058,206.84221 C204.929686,206.84221 199.699182,212.060913 199.699182,218.500635 Z" id="Stroke-50" stroke="#006464" stroke-width="2"></path>
                    <polygon id="Stroke-51" stroke="#006464" stroke-width="2" points="152.84733 206.841854 176.305831 206.841854 176.305831 186.747832 152.84733 186.747832"></polygon>
                    <polygon id="Stroke-52" stroke="#006464" stroke-width="2" points="186.204495 206.841854 209.664186 206.841854 209.664186 186.747832 186.204495 186.747832"></polygon>
                    <path d="M144.061285,206.841973 L144.061285,230.010497" id="Stroke-53" stroke="#006464" stroke-width="2"></path>
                    <path d="M160.170451,206.841973 L160.170451,230.010497" id="Stroke-54" stroke="#006464" stroke-width="2"></path>
                    <path d="M174.332578,206.841973 L174.332578,230.010497" id="Stroke-55" stroke="#006464" stroke-width="2"></path>
                    <path d="M189.196564,206.841973 L189.196564,230.010497" id="Stroke-56" stroke="#006464" stroke-width="2"></path>
                    <path d="M126.272699,217.967552 C126.272699,220.573936 124.155293,222.686692 121.543905,222.686692 C118.932517,222.686692 116.815111,220.573936 116.815111,217.967552 C116.815111,215.361167 118.932517,213.247818 121.543905,213.247818 C124.155293,213.247818 126.272699,215.361167 126.272699,217.967552 Z" id="Stroke-57" stroke="#006464" stroke-width="2"></path>
                    <path d="M216.110206,217.967552 C216.110206,220.573936 213.992206,222.686692 211.380818,222.686692 C208.768836,222.686692 206.650836,220.573936 206.650836,217.967552 C206.650836,215.361167 208.768836,213.247818 211.380818,213.247818 C213.992206,213.247818 216.110206,215.361167 216.110206,217.967552 Z" id="Stroke-58" stroke="#006464" stroke-width="2"></path>
                    <polygon id="Stroke-59" stroke="#006464" stroke-width="2" points="121.543964 257.08403 211.295932 257.08403 211.295932 252.671628 121.543964 252.671628"></polygon>
                    <polygon id="Stroke-60" stroke="#006464" stroke-width="2" points="121.54337 252.671034 126.133064 252.671034 126.133064 230.283298 121.54337 230.283298"></polygon>
                    <polygon id="Stroke-61" stroke="#006464" stroke-width="2" points="161.416819 252.671034 166.007702 252.671034 166.007702 230.283298 161.416819 230.283298"></polygon>
                    <polygon id="Stroke-62" stroke="#006464" stroke-width="2" points="206.65036 252.671034 211.241243 252.671034 211.241243 230.283298 206.65036 230.283298"></polygon>
                    <path d="M145.981038,196.794606 L120.421181,196.794606" id="Stroke-63" stroke="#006464" stroke-width="2" stroke-linecap="round"></path>
                    <path d="M145.981038,190.523204 L141.087584,190.523204" id="Stroke-64" stroke="#006464" stroke-width="2" stroke-linecap="round"></path>
                    <path d="M136.342885,190.523204 L130.632666,190.523204" id="Stroke-65" stroke="#006464" stroke-width="2" stroke-linecap="round"></path>
                    <path d="M126.272699,238.558822 L134.495033,230.352834" id="Stroke-66" stroke="#006464" stroke-width="2"></path>
                    <path d="M166.007464,238.558822 L174.229799,230.352834" id="Stroke-67" stroke="#006464" stroke-width="2"></path>
                    <path d="M161.226419,238.558822 L153.004084,230.352834" id="Stroke-68" stroke="#006464" stroke-width="2"></path>
                    <path d="M205.484539,238.558822 L197.262204,230.352834" id="Stroke-69" stroke="#006464" stroke-width="2"></path>
                    <polygon id="Stroke-70" stroke="#006464" stroke-width="2" points="303.415506 236.556421 237.708161 236.556421 237.708161 187.956511 303.415506 187.956511 303.415506 202.172076"></polygon>
                    <polyline id="Stroke-71" stroke="#006464" stroke-width="2" points="333.611364 249.277098 347.593257 249.277098 347.593257 223.217996 329.959701 223.217996 329.959701 202.17172 303.415446 202.17172"></polyline>
                    <path d="M271.928636,249.277098 L313.248365,249.277098" id="Stroke-72" stroke="#006464" stroke-width="2"></path>
                    <polyline id="Stroke-73" stroke="#006464" stroke-width="2" points="237.708101 236.556421 237.708101 249.27686 251.374939 249.27686"></polyline>
                    <path d="M272.04586,250.821172 C272.04586,256.550709 267.392561,261.195093 261.651431,261.195093 C255.910895,261.195093 251.257596,256.550709 251.257596,250.821172 C251.257596,245.092227 255.910895,240.44725 261.651431,240.44725 C267.392561,240.44725 272.04586,245.092227 272.04586,250.821172 Z" id="Stroke-74" stroke="#006464" stroke-width="2"></path>
                    <path d="M333.822689,251.376267 C333.822689,257.106398 329.169389,261.751375 323.429448,261.751375 C317.688913,261.751375 313.035614,257.106398 313.035614,251.376267 C313.035614,245.648509 317.688913,241.003532 323.429448,241.003532 C329.169389,241.003532 333.822689,245.648509 333.822689,251.376267 Z" id="Stroke-75" stroke="#006464" stroke-width="2"></path>
                    <path d="M266.79574,250.555846 C266.79574,253.380567 264.501785,255.670127 261.671047,255.670127 C258.841499,255.670127 256.547544,253.380567 256.547544,250.555846 C256.547544,247.731125 258.841499,245.440972 261.671047,245.440972 C264.501785,245.440972 266.79574,247.731125 266.79574,250.555846 Z" id="Stroke-76" stroke="#006464" stroke-width="2"></path>
                    <path d="M328.553963,250.555846 C328.553963,253.380567 326.260007,255.670127 323.430459,255.670127 C320.599722,255.670127 318.305766,253.380567 318.305766,250.555846 C318.305766,247.731125 320.599722,245.440972 323.430459,245.440972 C326.260007,245.440972 328.553963,247.731125 328.553963,250.555846 Z" id="Stroke-77" stroke="#006464" stroke-width="2"></path>
                    <polyline id="Stroke-78" stroke="#006464" stroke-width="2" points="315.573707 202.172017 315.513073 223.142943 329.899781 223.142943"></polyline>
                    <path d="M254.693238,187.956451 L254.693238,236.556362" id="Stroke-79" stroke="#006464" stroke-width="2"></path>
                    <path d="M271.218098,187.956451 L271.218098,236.556362" id="Stroke-80" stroke="#006464" stroke-width="2"></path>
                    <path d="M288.389593,187.956451 L288.389593,236.556362" id="Stroke-81" stroke="#006464" stroke-width="2"></path>
                    <path d="M113.417276,105.713767 C113.417276,105.713767 121.104612,119.397733 128.578543,121.050678" id="Stroke-82" stroke="#006464" stroke-width="2"></path>
                    <path d="M31.4328943,160.121591 L57.162168,160.121591" id="Stroke-83" stroke="#006464" stroke-width="2" stroke-linecap="round"></path>
                    <path d="M44.2981851,147.280948 L44.2981851,172.961521" id="Stroke-84" stroke="#006464" stroke-width="2" stroke-linecap="round"></path>
                    <path d="M315.886027,155.613251 L315.886027,179.903713" id="Stroke-85" stroke="#006464" stroke-width="2" stroke-linecap="round"></path>
                    <path d="M328.055879,167.757473 L303.717602,167.757473" id="Stroke-86" stroke="#006464" stroke-width="2" stroke-linecap="round"></path>
                    <path d="M111.885277,54.664698 L0.216198897,26.8298371" id="Stroke-87" stroke="#006464" stroke-width="2" stroke-linecap="round"></path>
                    <path d="M94.5942701,102.205809 L0.216198897,80.6326088" id="Stroke-88" stroke="#006464" stroke-width="2" stroke-linecap="round"></path>
                    <path d="M334.313223,26.9085686 L219.728402,54.7440227" id="Stroke-89" stroke="#006464" stroke-width="2" stroke-linecap="round"></path>
                    <path d="M334.313223,86.4719076 L241.807796,100.243089" id="Stroke-90" stroke="#006464" stroke-width="2" stroke-linecap="round"></path>
                    <path d="M220.38217,116.478973 C220.38217,121.35178 216.425558,125.301405 211.542209,125.301405 C206.661238,125.301405 202.704626,121.35178 202.704626,116.478973 C202.704626,111.607353 206.661238,107.658322 211.542209,107.658322 C216.425558,107.658322 220.38217,111.607353 220.38217,116.478973 Z" id="Stroke-91" stroke="#006464" stroke-width="2"></path>
                    <path d="M205.592489,126.763306 C205.592489,131.147823 202.031776,134.702308 197.637654,134.702308 C193.245315,134.702308 189.682819,131.147823 189.682819,126.763306 C189.682819,122.377602 193.245315,118.823118 197.637654,118.823118 C202.031776,118.823118 205.592489,122.377602 205.592489,126.763306 Z" id="Stroke-92" stroke="#006464" stroke-width="2"></path>
                    <path d="M192.328387,136.433451 C192.328387,140.587766 188.954923,143.95536 184.792039,143.95536 C180.630939,143.95536 177.256286,140.587766 177.256286,136.433451 C177.256286,132.279136 180.630939,128.911542 184.792039,128.911542 C188.954923,128.911542 192.328387,132.279136 192.328387,136.433451 Z" id="Stroke-93" stroke="#006464" stroke-width="2"></path>
                    <path d="M179.34819,143.955775 C179.34819,147.694777 176.31237,150.724781 172.565596,150.724781 C168.820011,150.724781 165.783597,147.694777 165.783597,143.955775 C165.783597,140.216179 168.820011,137.186176 172.565596,137.186176 C176.31237,137.186176 179.34819,140.216179 179.34819,143.955775 Z" id="Stroke-94" stroke="#006464" stroke-width="2"></path>
                    <path d="M177.068316,37.9813265 C166.559468,37.9813265 158.04063,29.478809 158.04063,18.9900942 C158.04063,8.50251759 166.559468,0 177.068316,0 C187.576594,0 196.094862,8.50251759 196.094862,18.9900942 C196.094862,29.478809 187.576594,37.9813265 177.068316,37.9813265 Z" id="Fill-95" fill="#009190" opacity="0.3"></path>
                </g>
            </g>
        </g>
    </g>
</svg>