<?xml version="1.0" encoding="UTF-8" standalone="no"?>
<svg width="347px" height="331px" viewBox="0 0 347 331" version="1.1" xmlns="http://www.w3.org/2000/svg" xmlns:xlink="http://www.w3.org/1999/xlink">
    <!-- Generator: Sketch 49.3 (51167) - http://www.bohemiancoding.com/sketch -->
    <title>SC_F2</title>
    <desc>Created with Sketch.</desc>
    <defs></defs>
    <g id="design" stroke="none" stroke-width="1" fill="none" fill-rule="evenodd">
        <g id="解決方案-供應鏈大腦" transform="translate(-168.000000, -1754.000000)">
            <g id="SC_F2" transform="translate(170.000000, 1754.000000)">
                <path d="M274,20.5 C274,31.8214029 283.178157,41 294.499717,41 C305.821276,41 315,31.8214029 315,20.5 C315,9.17859709 305.821276,0 294.499717,0 C283.178157,0 274,9.17859709 274,20.5" id="Fill-1" fill="#4BC8C8"></path>
                <path d="M21,136 L46,143" id="Fill-4" fill="#009190"></path>
                <polyline id="Fill-6" fill="#4BC8C8" points="53 167.852539 46.0087271 141.712664 20.995535 135 2 154.147461 8.99321367 180.286683 34.0051119 187 46.6000127 174.305017"></polyline>
                <path d="M295.273206,26.3412826 C295.273206,25.8791492 295.11746,25.4982275 294.805346,25.1998066 C294.493232,24.9013858 293.971173,24.6119884 293.239169,24.3329036 L293.239169,28.1466323 C294.595401,27.9313568 295.273206,27.3293587 295.273206,26.3412826 M289.807782,18.9896874 C289.807782,19.4434418 289.944215,19.8224299 290.218327,20.124718 C290.491193,20.4276507 290.986464,20.7267161 291.702894,21.0212697 L291.702894,17.3042217 C291.086141,17.3996133 290.616413,17.5949082 290.293085,17.8894618 C289.969134,18.18466 289.807782,18.5507573 289.807782,18.9896874 M298,26.1621012 C298,27.317757 297.591947,28.2703835 296.775217,29.0193361 C295.95911,29.7682888 294.780427,30.2304222 293.239169,30.4063809 L293.239169,33 L291.702894,33 L291.702894,30.4779246 C289.792207,30.4456977 288.224783,30.1427651 287,29.5691267 L287,27.0470512 C287.66223,27.3815662 288.436597,27.6625846 289.322478,27.8894618 C290.208359,28.1169836 291.002039,28.2349339 291.702894,28.2420238 L291.702894,23.7715114 L290.732287,23.4009024 C289.468879,22.8981631 288.546242,22.2993877 287.965,21.6013535 C287.383134,20.9039639 287.092201,20.0415727 287.092201,19.0135353 C287.092201,17.9133097 287.506485,17.0090235 288.334428,16.2993877 C289.162372,15.5903964 290.284986,15.1598453 291.702894,15.008379 L291.702894,13 L293.239169,13 L293.239169,14.9722849 C294.802854,15.0283597 296.286175,15.3551402 297.687886,15.953271 L296.844368,18.1401869 C295.635159,17.6464712 294.433426,17.3519175 293.239169,17.2558814 L293.239169,21.6071544 L294.118197,21.9539156 C295.580959,22.535933 296.593929,23.1495327 297.156482,23.7953593 C297.719035,24.4405414 298,25.2294554 298,26.1621012" id="Fill-26" fill="#FFFFFF"></path>
                <path d="M203,145 L203,192" id="Fill-30" fill="#009190"></path>
                <path d="M201,100 L201,145" id="Fill-36" fill="#009190"></path>
                <path d="M231.395818,64.511432 L233.060881,64.511432 C234.177029,64.511432 234.985813,64.3131538 235.487232,63.9178932 C235.98865,63.5219846 236.239699,62.9342775 236.239699,62.1554198 C236.239699,61.3642507 235.968295,60.7959826 235.426844,60.4512635 C234.886072,60.1065445 234.069825,59.9341849 232.980138,59.9341849 L231.395818,59.9341849 L231.395818,64.511432 Z M231.395818,66.4073868 L231.395818,72 L229,72 L229,58 L233.140945,58 C235.031952,58 236.433074,58.3382394 237.342277,59.0153661 C238.25148,59.6918449 238.705403,60.7130427 238.705403,62.0789595 C238.705403,63.8219939 237.756847,65.0641488 235.858377,65.8041285 L240,72 L237.271712,72 L233.76246,66.4073868 L231.395818,66.4073868 Z" id="Fill-126" fill="#FFFFFF"></path>
                <path d="M245.651783,62.7087442 C244.965026,62.7087442 244.415123,62.9360572 244.001451,63.3900337 C243.58778,63.8446596 243.340821,64.5071146 243.261197,65.3767491 L247.876279,65.3767491 C247.864459,64.5006199 247.661667,63.8362166 247.269768,63.3854874 C246.877246,62.9347582 246.33854,62.7087442 245.651783,62.7087442 M246.047415,72 C244.466132,72 243.22885,71.5180965 242.337434,70.5549389 C241.446019,69.5924308 241,68.2662219 241,66.5769617 C241,64.8428884 241.414294,63.4796599 242.241637,62.4879258 C243.068358,61.4961918 244.205488,61 245.651783,61 C246.993572,61 248.053566,61.4254 248.832389,62.2768495 C249.610589,63.128299 250,64.2986361 250,65.7898093 L250,67.0088564 L243.225118,67.0088564 C243.254976,68.0389089 243.521841,68.8306075 244.024468,69.3839523 C244.526472,69.9379465 245.235001,70.2146189 246.148189,70.2146189 C246.749101,70.2146189 247.307714,70.1555175 247.825892,70.0366653 C248.343448,69.9184625 248.900194,69.7216744 249.494263,69.446301 L249.494263,71.2797426 C248.967376,71.5421267 248.434269,71.7278739 247.894318,71.8363347 C247.35499,71.9454449 246.739148,72 246.047415,72" id="Fill-128" fill="#FFFFFF"></path>
                <path d="M257.21541,72 L253,61 L255.489041,61 L257.747175,67.3947385 C258.134963,68.4695014 258.369266,69.3383298 258.449404,70.0005506 L258.530222,70.0005506 C258.589986,69.5234017 258.824288,68.6545733 259.23313,67.3947385 L261.490585,61 L264,61 L259.764895,72 L257.21541,72 Z" id="Fill-130" fill="#FFFFFF"></path>
                <path d="M269.651783,62.7087442 C268.965026,62.7087442 268.415123,62.9360572 268.001451,63.3900337 C267.58778,63.8446596 267.340821,64.5071146 267.261197,65.3767491 L271.876279,65.3767491 C271.864459,64.5006199 271.661667,63.8362166 271.269768,63.3854874 C270.877246,62.9347582 270.33854,62.7087442 269.651783,62.7087442 M270.047415,72 C268.466132,72 267.22885,71.5180965 266.337434,70.5549389 C265.446019,69.5924308 265,68.2662219 265,66.5769617 C265,64.8428884 265.414294,63.4796599 266.241637,62.4879258 C267.068358,61.4961918 268.205488,61 269.651783,61 C270.993572,61 272.053566,61.4254 272.832389,62.2768495 C273.610589,63.128299 274,64.2986361 274,65.7898093 L274,67.0088564 L267.225118,67.0088564 C267.254976,68.0389089 267.521841,68.8306075 268.024468,69.3839523 C268.526472,69.9379465 269.235001,70.2146189 270.148189,70.2146189 C270.749101,70.2146189 271.307714,70.1555175 271.825892,70.0366653 C272.343448,69.9184625 272.900194,69.7216744 273.494263,69.446301 L273.494263,71.2797426 C272.967376,71.5421267 272.434269,71.7278739 271.894318,71.8363347 C271.35499,71.9454449 270.739148,72 270.047415,72" id="Fill-132" fill="#FFFFFF"></path>
                <path d="M287,72 L284.816968,72 L284.816968,65.3574304 C284.816968,64.5232258 284.657997,63.9018689 284.340682,63.4913767 C284.02274,63.0815456 283.518915,62.875969 282.828581,62.875969 C281.909179,62.875969 281.237622,63.1628508 280.812031,63.7359534 C280.387065,64.3083949 280.17427,65.268854 280.17427,66.6173307 L280.17427,72 L278,72 L278,61.1956613 L279.702364,61.1956613 L280.007163,62.6122228 L280.118567,62.6122228 C280.426495,62.0979508 280.863978,61.700679 281.432267,61.4204074 C281.999305,61.1401358 282.628303,61 283.318637,61 C285.77267,61 287,62.3187308 287,64.9568536 L287,72 Z" id="Fill-134" fill="#FFFFFF"></path>
                <path d="M298.292317,71.8043387 L297.988132,70.3877772 L297.876952,70.3877772 C297.57589,70.8894898 297.146159,71.2834565 296.589007,71.5703383 C296.03248,71.8565591 295.396627,72 294.683323,72 C293.445971,72 292.523423,71.6741181 291.913804,71.0223544 C291.304185,70.3719127 291,69.3850129 291,68.062977 L291,61 L293.188007,61 L293.188007,67.6624001 C293.188007,68.4893336 293.347908,69.1100294 293.667708,69.5231657 C293.987508,69.9369629 294.489069,70.1432005 295.172392,70.1432005 C296.083073,70.1432005 296.75203,69.8556577 297.180512,69.27925 C297.607745,68.7028424 297.821362,67.7377561 297.821362,66.3826693 L297.821362,61 L300,61 L300,71.8043387 L298.292317,71.8043387 Z" id="Fill-136" fill="#FFFFFF"></path>
                <path d="M308.651783,62.7087442 C307.965026,62.7087442 307.415123,62.9360572 307.001451,63.3900337 C306.58778,63.8446596 306.340821,64.5071146 306.261197,65.3767491 L310.876279,65.3767491 C310.864459,64.5006199 310.661667,63.8362166 310.269768,63.3854874 C309.877246,62.9347582 309.33854,62.7087442 308.651783,62.7087442 M309.047415,72 C307.466132,72 306.22885,71.5180965 305.337434,70.5549389 C304.446019,69.5924308 304,68.2662219 304,66.5769617 C304,64.8428884 304.414294,63.4796599 305.241637,62.4879258 C306.068358,61.4961918 307.205488,61 308.651783,61 C309.993572,61 311.053566,61.4254 311.832389,62.2768495 C312.610589,63.128299 313,64.2986361 313,65.7898093 L313,67.0088564 L306.225118,67.0088564 C306.254976,68.0389089 306.521841,68.8306075 307.024468,69.3839523 C307.526472,69.9379465 308.235001,70.2146189 309.148189,70.2146189 C309.749101,70.2146189 310.307714,70.1555175 310.825892,70.0366653 C311.343448,69.9184625 311.900194,69.7216744 312.494263,69.446301 L312.494263,71.2797426 C311.967376,71.5421267 311.434269,71.7278739 310.894318,71.8363347 C310.35499,71.9454449 309.739148,72 309.047415,72" id="Fill-138" fill="#FFFFFF"></path>
                <path d="M7.87734699,206.909148 C6.5167642,206.909148 5.44653743,207.362957 4.66666667,208.269314 C3.88746647,209.176301 3.49786637,210.426796 3.49786637,212.02269 C3.49786637,213.693589 3.8720434,214.95732 4.62240917,215.813884 C5.37210436,216.670448 6.45708364,217.099676 7.87734699,217.099676 C8.49225799,217.099676 9.08705194,217.041689 9.66105828,216.927607 C10.2364058,216.812264 10.833882,216.664776 11.4548281,216.484513 L11.4548281,218.394291 C10.3188856,218.797677 9.03072421,219 7.58967325,219 C5.46933675,219 3.8405267,218.396182 2.70458425,217.187916 C1.56864179,215.980281 1,214.252026 1,212.004412 C1,210.588781 1.27560351,209.349631 1.82815167,208.288223 C2.37935869,207.226184 3.17666423,206.41248 4.22073884,205.84711 C5.26481346,205.28237 6.49061205,205 7.89746403,205 C9.37673738,205 10.7446964,205.291824 12,205.874842 L11.1477079,207.729155 C10.6588637,207.511705 10.1418556,207.320728 9.59668374,207.156222 C9.05218239,206.991716 8.47817605,206.909148 7.87734699,206.909148" id="Fill-140" fill="#FFFFFF"></path>
                <path d="M16.311272,213.480515 C16.311272,215.931094 17.2122544,217.156708 19.0142192,217.156708 C20.7967942,217.156708 21.688728,215.931094 21.688728,213.480515 C21.688728,211.055916 20.7909772,209.842643 18.9948294,209.842643 C18.0524819,209.842643 17.3699586,210.156353 16.9459669,210.783774 C16.5226215,211.410546 16.311272,212.309459 16.311272,213.480515 M24,213.480515 C24,215.214691 23.5572647,216.568257 22.6724405,217.540564 C21.7876163,218.513521 20.5550672,219 18.9760858,219 C17.9891417,219 17.1165977,218.775921 16.358454,218.327763 C15.6009566,217.879606 15.0186143,217.236597 14.6107808,216.398736 C14.2029473,215.560227 14,214.587919 14,213.480515 C14,211.759329 14.4395036,210.415505 15.3178645,209.449043 C16.1962254,208.483231 17.4345915,208 19.0336091,208 C20.5615305,208 21.7714581,208.494273 22.6627456,209.482818 C23.5540331,210.471363 24,211.804145 24,213.480515" id="Fill-142" fill="#FFFFFF"></path>
                <path d="M35,215.784306 C35,216.820914 34.6131502,217.615907 33.8387849,218.169934 C33.0650853,218.722662 31.9564711,219 30.5129422,219 C29.0634207,219 27.8988764,218.785664 27.019975,218.356991 L27.019975,216.408479 C28.2997087,216.984589 29.4902206,217.272319 30.5921764,217.272319 C32.0157303,217.272319 32.7268414,216.853389 32.7268414,216.01423 C32.7268414,215.745985 32.648273,215.522556 32.4904702,215.342643 C32.3333333,215.164029 32.0736579,214.978271 31.7134415,214.786018 C31.3525593,214.594414 30.851186,214.37683 30.20799,214.133266 C28.9548897,213.659778 28.1066167,213.18629 27.6645027,212.712801 C27.2217228,212.239313 27,211.625531 27,210.870158 C27,209.961502 27.3755306,209.255491 28.1272576,208.753425 C28.8783188,208.250709 29.8997087,208 31.1920932,208 C32.471161,208 33.6816479,208.252657 34.8228881,208.758621 L34.0751561,210.457074 C32.9012901,209.983585 31.9131918,209.746516 31.1135248,209.746516 C29.8930504,209.746516 29.2831461,210.086207 29.2831461,210.764289 C29.2831461,211.096835 29.4416146,211.37872 29.7605493,211.608644 C30.0781523,211.839218 30.7719517,212.156176 31.8412817,212.558869 C32.7401581,212.898559 33.3926758,213.209022 33.7995006,213.490257 C34.2063254,213.771493 34.5079484,214.096245 34.7050354,214.464513 C34.9021223,214.832782 35,215.272496 35,215.784306" id="Fill-144" fill="#FFFFFF"></path>
                <path d="M42.311284,217.199093 C42.8746322,217.199093 43.4366518,217.113824 44,216.943927 L44,218.620457 C43.7448989,218.728165 43.4160577,218.817922 43.0134763,218.89101 C42.6108949,218.962815 42.1936984,219 41.7618867,219 C39.5755908,219 38.4821107,217.887656 38.4821107,215.66425 L38.4821107,210.017902 L37,210.017902 L37,209.0325 L38.5903957,208.216995 L39.3756287,206 L40.7999431,206 L40.7999431,208.331114 L43.8923792,208.331114 L43.8923792,210.017902 L40.7999431,210.017902 L40.7999431,215.626424 C40.7999431,216.163683 40.9387871,216.559895 41.2171396,216.815703 C41.4948277,217.07151 41.8595426,217.199093 42.311284,217.199093" id="Fill-146" fill="#FFFFFF"></path>
                <g id="Group-8" transform="translate(0.000000, 3.000000)">
                    <path d="M74,142 L94,142" id="Stroke-8" stroke="#FFFFFF" stroke-width="2"></path>
                    <polygon id="Stroke-10" stroke="#FFFFFF" stroke-width="2" points="25.7743405 161.66597 19 137 43.2276395 143.33403 50 168"></polygon>
                    <path d="M25,162 L7,180" id="Stroke-12" stroke="#FFFFFF" stroke-width="2"></path>
                    <polyline id="Stroke-14" stroke="#FFFFFF" stroke-width="2" points="25 162 35.4156242 172.605373 59 179 48.5830908 168.393973"></polyline>
                    <polyline id="Stroke-16" stroke="#FFFFFF" stroke-width="2" points="19 136.730519 19.0013082 122 43 128.184029 43 143"></polyline>
                    <path d="M42,143 L25,160" id="Stroke-18" stroke="#FFFFFF" stroke-width="2"></path>
                    <polyline id="Stroke-20" stroke="#FFFFFF" stroke-width="2" points="18.3140727 137 0 155.043536 6.74303699 179.674601 30.8567522 186 43 174.037209"></polyline>
                    <path d="M57,154 L83,154" id="Stroke-22" stroke="#FFFFFF" stroke-width="2"></path>
                    <path d="M271,20 C271,31.0462224 279.953778,40 290.999354,40 C302.046222,40 311,31.0462224 311,20 C311,8.95442359 302.046222,0 290.999354,0 C279.953778,0 271,8.95442359 271,20 Z" id="Stroke-24" stroke="#FFFFFF" stroke-width="2"></path>
                    <polygon id="Page-1" fill="#4BC8C8" points="180.564253 81 143.776617 102.500229 161.97021 120.694439 161.953551 120.703695 161.953551 164.98448 200.333727 187.06101 237.247853 165.671228 237.247853 136.311337 263 121.390443 237.247853 121.390443 198.87323 99.311445"></polygon>
                    <polygon id="Stroke-40" stroke="#FFFFFF" stroke-width="2" points="201.22766 149 163 126.654866 199.771694 105 238 127.346446"></polygon>
                    <polyline id="Stroke-42" stroke="#FFFFFF" stroke-width="2" points="238 171.681485 201.22766 193 163 171"></polyline>
                    <path d="M163,127 L163,171" id="Stroke-44" stroke="#FFFFFF" stroke-width="2"></path>
                    <path d="M202,149 L202,193" id="Stroke-46" stroke="#FFFFFF" stroke-width="2"></path>
                    <path d="M239,143 L239,172" id="Stroke-48" stroke="#FFFFFF" stroke-width="2"></path>
                    <path d="M145,204 L182,183" id="Stroke-50" stroke="#FFFFFF" stroke-width="2"></path>
                    <polygon id="Stroke-52" stroke="#FFFFFF" stroke-width="2" points="164.229281 215 126 192.653231 162.771365 171 201 193.345457"></polygon>
                    <polyline id="Stroke-54" stroke="#FFFFFF" stroke-width="2" points="201 237.681525 164.229281 259 126 237"></polyline>
                    <path d="M126,193 L126,237" id="Stroke-56" stroke="#FFFFFF" stroke-width="2"></path>
                    <path d="M164,215 L164,259" id="Stroke-58" stroke="#FFFFFF" stroke-width="2"></path>
                    <path d="M201,193 L201,237" id="Stroke-60" stroke="#FFFFFF" stroke-width="2"></path>
                    <path d="M221,204 L258,183" id="Stroke-62" stroke="#FFFFFF" stroke-width="2"></path>
                    <polygon id="Stroke-64" stroke="#FFFFFF" stroke-width="2" points="240.227673 216 202 193.654876 238.772327 172 277 194.347092"></polygon>
                    <polyline id="Stroke-66" stroke="#FFFFFF" stroke-width="2" points="277 238.680839 240.227673 260 202 238"></polyline>
                    <path d="M202,193 L202,237" id="Stroke-68" stroke="#FFFFFF" stroke-width="2"></path>
                    <path d="M240,216 L240,260" id="Stroke-70" stroke="#FFFFFF" stroke-width="2"></path>
                    <path d="M277,194 L277,238" id="Stroke-72" stroke="#FFFFFF" stroke-width="2"></path>
                    <path d="M164,259 L164,303" id="Stroke-74" stroke="#FFFFFF" stroke-width="2"></path>
                    <path d="M184,270 L221,249" id="Stroke-76" stroke="#FFFFFF" stroke-width="2"></path>
                    <polygon id="Stroke-78" stroke="#FFFFFF" stroke-width="2" points="202.227685 282 164 259.653231 200.771669 238 239 260.345457"></polygon>
                    <polyline id="Stroke-80" stroke="#FFFFFF" stroke-width="2" points="239 303.682151 202.227685 325 164 303"></polyline>
                    <path d="M203,281 L203,325" id="Stroke-82" stroke="#FFFFFF" stroke-width="2"></path>
                    <path d="M239,260 L239,304" id="Stroke-84" stroke="#FFFFFF" stroke-width="2"></path>
                    <path d="M108,269 L145,248" id="Stroke-86" stroke="#FFFFFF" stroke-width="2"></path>
                    <polygon id="Stroke-88" stroke="#FFFFFF" stroke-width="2" points="127.227027 281 89 258.653887 125.772327 237 164 259.345457"></polygon>
                    <polyline id="Stroke-90" stroke="#FFFFFF" stroke-width="2" points="164 303.680899 159.944532 306.032389 137.619122 318.975921 127.227027 325 89 303"></polyline>
                    <polyline id="Stroke-92" stroke="#FFFFFF" stroke-width="2" points="89 258 89 264.333099 89 266.101704 89 295.355173 89 302"></polyline>
                    <path d="M127,281 L127,325" id="Stroke-94" stroke="#FFFFFF" stroke-width="2"></path>
                    <path d="M239,259 L239,303" id="Stroke-96" stroke="#FFFFFF" stroke-width="2"></path>
                    <path d="M260,271 L297,250" id="Stroke-98" stroke="#FFFFFF" stroke-width="2"></path>
                    <polygon id="Stroke-100" stroke="#FFFFFF" stroke-width="2" points="278.228306 283 240 260.654866 276.77234 239 315 261.34579"></polygon>
                    <polyline id="Stroke-102" stroke="#FFFFFF" stroke-width="2" points="315 304.680273 278.228306 326 240 304"></polyline>
                    <path d="M279,282 L279,326" id="Stroke-104" stroke="#FFFFFF" stroke-width="2"></path>
                    <path d="M316,261 L316,305" id="Stroke-106" stroke="#FFFFFF" stroke-width="2"></path>
                    <polyline id="Stroke-108" stroke="#FFFFFF" stroke-width="2" points="202 149 227.888893 149 265 128 239.111758 128"></polyline>
                    <polyline id="Stroke-110" stroke="#FFFFFF" stroke-width="2" points="163.175038 127 145 108.657199 181.718857 87 200 105.450539"></polyline>
                    <path d="M200,105 L200,148" id="Stroke-112" stroke="#FFFFFF" stroke-width="2"></path>
                    <polyline id="Stroke-114" stroke="#FFFFFF" stroke-width="2" points="146 181 95.4216309 181.120637 95.4216309 199.799294 74.727614 199.767514 74.727614 224.059691 21 272"></polyline>
                    <polyline id="Stroke-116" stroke="#FFFFFF" stroke-width="2" points="21 255 21 272 41 272"></polyline>
                    <polyline id="Stroke-118" stroke="#FFFFFF" stroke-width="2" points="239 154 293 154 293 131"></polyline>
                    <polyline id="Stroke-120" stroke="#FFFFFF" stroke-width="2" points="292 130 310.363955 129.932814 310.694854 107.916633 344 67"></polyline>
                    <path d="M344,67 L344,83" id="Stroke-122" stroke="#FFFFFF" stroke-width="2"></path>
                    <path d="M345,67 L328,67" id="Stroke-124" stroke="#FFFFFF" stroke-width="2"></path>
                    <path d="M248,13 L227,13" id="Stroke-148" stroke="#FFFFFF" stroke-width="2"></path>
                    <path d="M237,2 L237,24" id="Stroke-150" stroke="#FFFFFF" stroke-width="2"></path>
                    <path d="M261,28 L248,28" id="Stroke-152" stroke="#FFFFFF" stroke-width="2"></path>
                    <path d="M254,21 L254,35" id="Stroke-154" stroke="#FFFFFF" stroke-width="2"></path>
                </g>
            </g>
        </g>
    </g>
</svg>