<svg width="430" height="341" viewBox="0 0 430 341" fill="none" xmlns="http://www.w3.org/2000/svg">
<path d="M9.26018 191.68C6.98018 194.36 4.12018 196.58 0.680176 198.38L1.72018 200.26C5.16018 198.38 7.92018 196.14 10.0002 193.58C12.2602 196.3 15.0002 198.52 18.2202 200.22L19.2602 198.36C16.0402 196.72 13.2002 194.5 10.7402 191.68H9.26018ZM13.0402 200.46V202.62C13.0402 203.3 12.8002 203.66 12.3602 203.66C11.6602 203.66 10.8202 203.62 9.84018 203.54L10.4002 205.5C11.2802 205.54 12.2202 205.58 13.2202 205.58C14.4602 205.5 15.1002 204.76 15.1202 203.36V198.56H4.72018V207.5C4.72018 209 5.44018 209.76 6.90018 209.76H13.9002C15.3602 209.76 16.3402 209.56 16.8402 209.18C17.3402 208.8 17.7202 207.56 17.9602 205.48L16.0402 204.84C15.8802 206.08 15.6602 206.88 15.4002 207.26C15.1202 207.64 14.4202 207.84 13.2802 207.84H7.86018C7.18018 207.84 6.84018 207.46 6.84018 206.72V200.46H13.0402Z" fill="#0F9696"/>
<path d="M24.7802 199.86V210.14H26.7802V196.24C27.3002 195.02 27.7402 193.76 28.1002 192.44L26.2202 191.56C25.5202 194.48 24.4402 197.02 22.9602 199.18L23.6602 201.42C24.0602 200.9 24.4202 200.38 24.7802 199.86ZM29.4802 192.2L28.0402 193.58C29.2402 194.72 30.1802 195.78 30.8202 196.78L32.3802 195.22C31.5802 194.22 30.6202 193.22 29.4802 192.2ZM27.2802 197.62V199.56H29.2402V206.8C29.2402 207.16 29.0802 207.46 28.7802 207.7L29.5802 209.62C30.7802 208.54 31.9202 207.34 33.0002 206L32.4802 203.96C32.0602 204.48 31.6602 204.94 31.2602 205.38V197.62H27.2802ZM33.0602 193.74V195.52H35.2402V197.56H32.8202V199.44H35.7402C34.5602 200.58 33.2202 201.48 31.7402 202.16L32.8002 203.78C33.0802 203.64 33.3802 203.48 33.7002 203.32V210.04H35.6602V209.32H38.7002V210.04H40.6602V200.86H37.0402C37.4802 200.42 37.9202 199.96 38.3602 199.44H41.4602V197.56H39.7202C40.5002 196.34 41.2002 194.98 41.8402 193.46L40.1202 192.56C39.8402 193.28 39.5202 193.98 39.1802 194.66V193.74H37.1402V191.62H35.2402V193.74H33.0602ZM37.3802 197.56H37.1402V195.52H38.7202C38.3202 196.24 37.8602 196.92 37.3802 197.56ZM35.6602 205.92H38.7002V207.52H35.6602V205.92ZM38.7002 204.2H35.6602V202.66H38.7002V204.2Z" fill="#0F9696"/>
<path d="M200.06 327.04H204.3V330.96H198.66V332.98H204.3V337.34H196.24V339.42H214.04V337.34H206.4V332.98H212.36V330.96H206.4V327.04H212.74V325.02H206.4V321.74H204.3V325.02H200.82C201.06 324.26 201.26 323.44 201.44 322.58L199.3 322.18C198.68 325.36 197.48 327.88 195.68 329.76L197.06 331.5C198.28 330.3 199.28 328.8 200.06 327.04Z" fill="#0F9696"/>
<path d="M228.14 321.34L225.94 321.7C226.24 322.22 226.52 322.8 226.78 323.44H219.84V325.42H223.36L224.02 327.86H220V332.48C219.96 335.1 219.42 337.14 218.4 338.62L219.98 340.04C221.34 338.14 222.04 335.62 222.12 332.48V329.88H236.24V327.86H231.72C232.04 327.06 232.3 326.26 232.5 325.42H235.82V323.44H228.92C228.68 322.66 228.42 321.96 228.14 321.34ZM226.08 327.86L225.42 325.42H230.5C230.3 326.26 230.04 327.06 229.7 327.86H226.08Z" fill="#0F9696"/>
<path d="M403.86 195.24C403.06 196.86 402.12 198.26 401.04 199.42L402.72 200.6C403.88 199.36 404.9 197.88 405.76 196.16L403.86 195.24ZM398.16 195.6L396.22 196.26C396.84 197.34 397.34 198.46 397.74 199.64L399.76 199.12C399.28 197.8 398.76 196.64 398.16 195.6ZM392.72 196.1L390.72 196.76C391.44 197.82 392.1 199.04 392.7 200.44L394.62 199.58C394.08 198.34 393.44 197.18 392.72 196.1ZM404.84 192.6C400.74 193.24 395.74 193.58 389.86 193.58L390.52 195.52C396.88 195.52 402 195.12 405.86 194.34L404.84 192.6ZM389.92 201.66V203.7H395.24C393.84 205.56 391.72 207.12 388.88 208.38L390.08 210.34C393.2 208.62 395.5 206.46 396.96 203.86V211H399.04V203.76C400.38 206.16 402.6 208.32 405.68 210.28L407.18 208.38C404.26 207 402.12 205.44 400.76 203.7H406.1V201.66H399.04V200.04H396.96V201.66H389.92Z" fill="#0F9696"/>
<path d="M419.42 193.2H412.16V206.02H414.04V195.12H417.58V206.02H419.42V199.26L420.32 200.44C421.08 199.5 421.74 198.44 422.3 197.26H427.4C427.38 203.18 427.32 206.62 427.22 207.6C427.1 208.56 426.74 209.06 426.1 209.06C425.22 209.06 424.18 209.02 422.98 208.96L423.48 210.82C424.88 210.88 425.84 210.92 426.4 210.92C428.04 210.92 428.96 210.08 429.16 208.44C429.34 206.76 429.44 202.36 429.44 195.24H423.08C423.32 194.46 423.54 193.64 423.7 192.78L421.68 192.52C421.26 194.76 420.5 196.68 419.42 198.3V193.2ZM425.42 201.42L423.84 202.18C424.08 202.86 424.34 203.6 424.58 204.38C423.78 204.56 422.98 204.7 422.14 204.8C422.9 203.26 423.64 201.42 424.36 199.28L422.46 198.62C421.32 202.66 420.46 204.76 419.86 204.96L420.2 206.78C421.96 206.6 423.58 206.36 425.06 206.04C425.18 206.48 425.3 206.92 425.42 207.4L427.12 206.54C426.56 204.68 426 202.98 425.42 201.42ZM414.92 196.3V202.86C414.86 204.54 414.62 205.9 414.18 206.96C413.74 207.92 412.86 208.74 411.58 209.4L412.68 211.14C414.04 210.46 415.02 209.5 415.62 208.24C416.24 206.9 416.58 205.1 416.64 202.86V196.3H414.92ZM417.52 206.48L416.18 207.78C417.3 208.92 418.16 209.98 418.76 210.98L420.26 209.48C419.5 208.5 418.6 207.5 417.52 206.48Z" fill="#0F9696"/>
<path d="M352.58 37.5199V39.5399H358.26V52.3399C358.26 52.8199 358.02 53.0799 357.54 53.0799C356.76 53.0799 355.96 53.0199 355.12 52.9399L355.58 54.9799H358.26C359.66 54.9799 360.38 54.2599 360.38 52.8599V39.5399H364.36V37.5199H352.58ZM348.56 36.6999L347.08 38.1399C348.5 39.1799 349.6 40.1599 350.36 41.0799L351.8 39.6199C350.9 38.6599 349.82 37.6799 348.56 36.6999ZM345.78 42.4799V44.4799H348.52V51.5799C348.52 51.9999 348.34 52.3599 347.98 52.6599L348.78 54.5399C350.32 53.5999 351.78 52.5399 353.14 51.3399L352.58 49.1599C351.86 49.8199 351.18 50.3999 350.54 50.9199V42.4799H345.78Z" fill="#0F9696"/>
<path d="M370.62 39.5399V48.2399H376.76V49.7199H368.84V51.6799H376.76V55.1799H378.84V51.6799H386.76V49.7199H378.84V48.2399H384.98V39.5399H381.42C381.94 38.8199 382.44 37.9999 382.88 37.0999L380.86 36.3799C380.4 37.4999 379.86 38.5399 379.24 39.5399H375.36L376.54 38.9399C375.94 38.0399 375.3 37.2199 374.62 36.4799L372.88 37.3199C373.48 37.9799 374.06 38.7199 374.62 39.5399H370.62ZM382.96 46.3999H378.84V44.7399H382.96V46.3999ZM376.76 46.3999H372.64V44.7399H376.76V46.3999ZM372.64 42.9799V41.3599H376.76V42.9799H372.64ZM378.84 41.3599H382.96V42.9799H378.84V41.3599Z" fill="#0F9696"/>
<path d="M363.609 138.394L363.11 138.428L363.609 138.394ZM69.51 137.766L69.0112 137.73L69.51 137.766ZM341.28 70.7741C353.675 90.6485 361.452 113.7 363.11 138.428L364.108 138.361C362.438 113.465 354.608 90.2551 342.128 70.2449L341.28 70.7741ZM363.11 138.428C363.331 141.725 363.444 145.052 363.444 148.406H364.444C364.444 145.03 364.331 141.68 364.108 138.361L363.11 138.428ZM336.559 233.141C320.883 255.303 299.224 272.933 273.935 283.677L274.326 284.597C299.788 273.78 321.594 256.031 337.375 233.718L336.559 233.141ZM157.17 282.822C133.761 272.468 113.564 256.178 98.4873 235.86L97.6842 236.456C112.863 256.911 133.197 273.312 156.766 283.737L157.17 282.822ZM69.6318 148.406C69.6318 144.84 69.7589 141.304 70.0087 137.801L69.0112 137.73C68.7597 141.256 68.6318 144.816 68.6318 148.406H69.6318ZM70.0087 137.801C71.5666 115.96 77.8994 95.4392 87.9689 77.2771L87.0943 76.7922C76.9559 95.0787 70.5798 115.74 69.0112 137.73L70.0087 137.801ZM155.758 14.6236C174.279 6.19519 194.86 1.5 216.538 1.5V0.5C194.714 0.5 173.993 5.22699 155.343 13.7134L155.758 14.6236ZM216.538 1.5C236.865 1.5 256.226 5.6281 273.831 13.0912L274.221 12.1705C256.495 4.65602 237.001 0.5 216.538 0.5V1.5Z" fill="#4BC8C8"/>
<path fill-rule="evenodd" clip-rule="evenodd" d="M283.145 147.363C283.145 184.83 252.77 215.206 215.3 215.206C177.832 215.206 147.456 184.83 147.456 147.363C147.456 109.894 177.832 79.5195 215.3 79.5195C252.77 79.5195 283.145 109.894 283.145 147.363Z" stroke="#009190" stroke-width="0.9"/>
<path fill-rule="evenodd" clip-rule="evenodd" d="M270.491 147.363C270.491 177.842 245.782 202.552 215.3 202.552C184.82 202.552 160.111 177.842 160.111 147.363C160.111 116.883 184.82 92.1724 215.3 92.1724C245.782 92.1724 270.491 116.883 270.491 147.363Z" stroke="#009190" stroke-width="0.75"/>
<path fill-rule="evenodd" clip-rule="evenodd" d="M244.198 248.249C244.198 251.498 241.567 254.131 238.319 254.131C235.073 254.131 232.439 251.498 232.439 248.249C232.439 245.005 235.073 242.368 238.319 242.368C241.567 242.368 244.198 245.005 244.198 248.249" fill="#009190"/>
<path fill-rule="evenodd" clip-rule="evenodd" d="M270.517 56.4048C270.517 59.6535 267.886 62.2861 264.638 62.2861C261.389 62.2861 258.758 59.6535 258.758 56.4048C258.758 53.1607 261.389 50.5234 264.638 50.5234C267.886 50.5234 270.517 53.1607 270.517 56.4048" fill="#009190"/>
<path fill-rule="evenodd" clip-rule="evenodd" d="M124.827 186.687C124.827 189.934 122.192 192.567 118.947 192.567C115.698 192.567 113.064 189.934 113.064 186.687C113.064 183.441 115.698 180.806 118.947 180.806C122.192 180.806 124.827 183.441 124.827 186.687" fill="#009190"/>
<path fill-rule="evenodd" clip-rule="evenodd" d="M322.872 175.476C322.872 178.725 320.237 181.357 316.989 181.357C313.743 181.357 311.109 178.725 311.109 175.476C311.109 172.232 313.743 169.595 316.989 169.595C320.237 169.595 322.872 172.232 322.872 175.476" fill="#009190"/>
<path fill-rule="evenodd" clip-rule="evenodd" d="M142.499 78.1675C142.499 81.4162 139.868 84.0488 136.619 84.0488C133.37 84.0488 130.736 81.4162 130.736 78.1675C130.736 74.9234 133.37 72.2861 136.619 72.2861C139.868 72.2861 142.499 74.9234 142.499 78.1675" fill="#009190"/>
<path fill-rule="evenodd" clip-rule="evenodd" d="M319.491 147.363C319.491 204.905 272.841 251.553 215.3 251.553C157.758 251.553 111.112 204.905 111.112 147.363C111.112 89.8201 157.758 43.1724 215.3 43.1724C272.841 43.1724 319.491 89.8201 319.491 147.363Z" stroke="#009190"/>
<path fill-rule="evenodd" clip-rule="evenodd" d="M298.651 147.363C298.651 193.396 261.332 230.715 215.299 230.715C169.266 230.715 131.948 193.396 131.948 147.363C131.948 101.329 169.266 64.0103 215.299 64.0103C261.332 64.0103 298.651 101.329 298.651 147.363Z" stroke="#009190"/>
<path fill-rule="evenodd" clip-rule="evenodd" d="M235.165 80.6816C235.165 83.9304 232.534 86.563 229.285 86.563C226.036 86.563 223.402 83.9304 223.402 80.6816C223.402 77.4376 226.036 74.8003 229.285 74.8003C232.534 74.8003 235.165 77.4376 235.165 80.6816" fill="#7EC7C5"/>
<path fill-rule="evenodd" clip-rule="evenodd" d="M167.835 214.044C167.835 217.293 165.204 219.925 161.956 219.925C158.707 219.925 156.073 217.293 156.073 214.044C156.073 210.8 158.707 208.163 161.956 208.163C165.204 208.163 167.835 210.8 167.835 214.044" fill="#7EC7C5"/>
<path fill-rule="evenodd" clip-rule="evenodd" d="M268.462 174.011C268.462 177.259 265.831 179.892 262.582 179.892C259.337 179.892 256.703 177.259 256.703 174.011C256.703 170.767 259.337 168.129 262.582 168.129C265.831 168.129 268.462 170.767 268.462 174.011" fill="#7EC7C5"/>
<path fill-rule="evenodd" clip-rule="evenodd" d="M157.202 126.249C157.202 129.498 154.571 132.131 151.322 132.131C148.073 132.131 145.439 129.498 145.439 126.249C145.439 123.005 148.073 120.368 151.322 120.368C154.571 120.368 157.202 123.005 157.202 126.249" fill="#7EC7C5"/>
<path fill-rule="evenodd" clip-rule="evenodd" d="M203.987 106.859C203.511 106.859 203.111 107.168 202.968 107.593V107.593L199.629 107.762L185.124 115.014L185.521 120.461C185.129 120.604 184.846 120.963 184.817 121.394V121.394L178.513 122.727L171.265 144.206L173.147 147.207C173.037 147.327 172.956 147.471 172.91 147.632V147.632L172.903 147.657C172.88 147.743 172.864 147.832 172.864 147.925V147.925C172.864 148.204 172.975 148.456 173.151 148.647V148.647L171.26 151.701L175.321 161.821C175.178 161.971 175.08 162.161 175.043 162.374V162.374L175.026 162.376L175.042 162.385C175.033 162.441 175.024 162.497 175.024 162.556V162.556C175.024 163.148 175.508 163.629 176.105 163.629V163.629C176.365 163.629 176.601 163.533 176.788 163.381V163.381L182.325 166.54C182.304 166.624 182.29 166.709 182.29 166.799V166.799C182.29 167.094 182.41 167.362 182.605 167.557V167.557L180.954 170.486L189.001 180.424L194.002 182.717C194.019 183.134 194.273 183.489 194.636 183.651V183.651L194.732 183.685C194.783 183.703 194.835 183.718 194.889 183.728V183.728L193.066 187.411L199.497 190.721H207.936C208.065 191.171 208.477 191.501 208.97 191.501V191.501C209.463 191.501 209.876 191.171 210.004 190.721V190.721L210.018 190.675C210.037 190.596 210.05 190.514 210.05 190.428V190.428C210.05 190.145 209.938 189.89 209.757 189.698V189.698L213.52 183.2C213.604 183.22 213.691 183.235 213.781 183.235V183.235C214.377 183.235 214.861 182.754 214.861 182.162V182.162C214.861 181.672 214.528 181.262 214.076 181.134V181.134V175.142C214.528 175.014 214.861 174.605 214.861 174.114V174.114C214.861 173.624 214.528 173.215 214.076 173.087V173.087V157.657C214.528 157.53 214.861 157.121 214.861 156.63V156.63C214.861 156.139 214.528 155.73 214.076 155.603V155.603V144.123C214.528 143.995 214.861 143.587 214.861 143.096V143.096C214.861 142.606 214.528 142.197 214.076 142.068V142.068V132.857C214.528 132.729 214.861 132.321 214.861 131.83V131.83C214.861 131.339 214.528 130.93 214.076 130.802V130.802V125.542C214.528 125.414 214.861 125.005 214.861 124.515V124.515C214.861 124.024 214.528 123.615 214.076 123.487V123.487V111.873L211.465 109.561C211.467 109.53 211.474 109.5 211.474 109.469V109.469C211.474 108.876 210.99 108.395 210.394 108.395V108.395C210.36 108.395 210.328 108.402 210.295 108.405V108.405L209.2 107.015L204.944 107.444C204.765 107.098 204.406 106.859 203.987 106.859ZM205.059 108.021L208.936 107.63L209.726 108.631C209.476 108.828 209.314 109.128 209.314 109.469V109.469C209.314 109.792 209.461 110.078 209.688 110.274V110.274L208.24 114.906L204.677 126.297C204.667 126.297 204.659 126.295 204.65 126.295V126.295C204.273 126.295 203.942 126.487 203.749 126.777V126.777L195.719 124.251L186.966 121.498C186.967 121.487 186.97 121.477 186.97 121.466V121.466C186.97 121.329 186.941 121.198 186.894 121.077V121.077L195.805 114.365L203.279 108.736C203.469 108.901 203.715 109.005 203.987 109.005V109.005C204.553 109.005 205.013 108.571 205.059 108.021V108.021ZM186.108 120.415L185.74 115.36L199.72 108.343L202.94 108.181C202.945 108.202 202.952 108.222 202.959 108.242V108.242L195.071 114.183L186.537 120.612C186.411 120.518 186.267 120.448 186.108 120.415V120.415ZM211.231 110.138L213.487 112.136V123.487C213.034 123.615 212.701 124.024 212.701 124.515V124.515C212.701 124.525 212.704 124.534 212.704 124.544V124.544L205.552 126.779C205.47 126.656 205.364 126.551 205.239 126.47V126.47L208.844 114.947L210.227 110.525C210.281 110.533 210.337 110.541 210.394 110.541V110.541C210.734 110.541 211.033 110.382 211.231 110.138V110.138ZM171.911 144.131L178.965 123.229L184.94 121.967C185.005 122.088 185.092 122.195 185.197 122.283V122.283L174.099 146.867C174.048 146.859 173.998 146.852 173.945 146.852V146.852C173.841 146.852 173.742 146.871 173.647 146.898V146.898L171.911 144.131ZM188.254 125.089L186.652 122.226C186.704 122.174 186.75 122.118 186.79 122.057V122.057L195.228 124.711L203.573 127.336C203.573 127.346 203.57 127.357 203.57 127.367V127.367C203.57 127.449 203.581 127.528 203.599 127.605V127.605L202.513 128.194L193.565 133.053C193.369 132.856 193.096 132.732 192.795 132.732V132.732C192.71 132.732 192.628 132.744 192.549 132.763V132.763L188.254 125.089ZM186.136 122.509L188.123 126.061L192.033 133.045C191.837 133.239 191.715 133.508 191.715 133.805V133.805C191.715 133.942 191.743 134.072 191.79 134.191V134.191L174.682 147.006L185.735 122.524C185.786 122.531 185.836 122.539 185.89 122.539V122.539C185.975 122.539 186.056 122.527 186.136 122.509V122.509ZM205.711 127.559C205.723 127.497 205.73 127.433 205.73 127.367V127.367C205.73 127.357 205.727 127.348 205.727 127.338V127.338L212.879 125.103C213.02 125.315 213.235 125.47 213.487 125.542V125.542V130.802C213.29 130.859 213.116 130.966 212.983 131.113V131.113L205.711 127.559ZM205.449 128.084L212.72 131.638C212.709 131.7 212.701 131.764 212.701 131.83V131.83C212.701 132.321 213.034 132.729 213.487 132.857V132.857V142.068C213.043 142.194 212.716 142.591 212.704 143.07V143.07L195.859 147.384C195.8 147.284 195.725 147.195 195.637 147.119V147.119L200.927 135.931L204.477 128.423C204.534 128.432 204.591 128.441 204.65 128.441V128.441C204.968 128.441 205.251 128.302 205.449 128.084V128.084ZM195.068 146.865L193.24 134.78C193.614 134.612 193.875 134.24 193.875 133.805V133.805C193.875 133.723 193.864 133.644 193.847 133.568V133.568L201.841 129.227L203.88 128.119C203.9 128.139 203.923 128.155 203.944 128.173V128.173L200.332 135.813L195.104 146.869C195.093 146.867 195.08 146.867 195.068 146.865V146.865ZM174.949 147.538L182.772 141.679L192.146 134.658C192.292 134.768 192.466 134.84 192.657 134.864V134.864L194.485 146.949C194.199 147.078 193.983 147.327 193.896 147.632V147.632H174.979C174.97 147.601 174.962 147.569 174.949 147.538V147.538ZM195.703 148.673C195.887 148.485 196 148.232 196.008 147.951V147.951L212.853 143.636C212.992 143.872 213.217 144.047 213.487 144.123V144.123V155.603C213.034 155.73 212.701 156.139 212.701 156.63V156.63C212.701 156.847 212.767 157.048 212.878 157.216V157.216L205.918 165.172C205.778 165.107 205.624 165.067 205.46 165.067V165.067C205.37 165.067 205.283 165.082 205.2 165.102V165.102L195.703 148.673ZM176.264 148.935L175.03 148.217H193.896C193.998 148.573 194.278 148.851 194.636 148.952V148.952V159.114C194.464 159.163 194.31 159.249 194.185 159.368V159.368L176.264 148.935ZM174.69 148.698L175.421 149.123L193.888 159.874C193.879 159.91 193.872 159.946 193.866 159.981V159.981L177.086 162.114C176.917 161.743 176.542 161.483 176.105 161.483V161.483C176.01 161.483 175.921 161.498 175.834 161.521V161.521L171.917 151.757L173.653 148.953C173.747 148.979 173.843 148.998 173.945 148.998V148.998C174.235 148.998 174.496 148.882 174.69 148.698V148.698ZM195.976 160.4C195.996 160.317 196.011 160.231 196.011 160.142V160.142C196.011 160.05 195.996 159.963 195.974 159.879V159.879L195.924 159.72C195.797 159.426 195.539 159.203 195.225 159.114V159.114V149.022L204.663 165.349L195.976 160.4ZM206.409 166.643C206.49 166.492 206.54 166.323 206.54 166.14V166.14C206.54 165.924 206.474 165.723 206.363 165.555V165.555L207.795 163.918L213.324 157.599C213.376 157.623 213.43 157.642 213.487 157.657V157.657V173.087C213.4 173.112 213.317 173.146 213.241 173.19V173.19L206.409 166.643ZM177.123 162.898C177.145 162.832 177.162 162.765 177.171 162.694V162.694L193.519 160.616L184.119 166.029C183.925 165.842 183.661 165.726 183.37 165.726V165.726C183.076 165.726 182.811 165.843 182.617 166.032V166.032L177.123 162.898ZM195.225 181.615V161.169C195.4 161.119 195.558 161.031 195.684 160.908V160.908L204.415 165.882C204.394 165.965 204.381 166.051 204.381 166.14V166.14C204.381 166.416 204.488 166.665 204.661 166.856V166.856L195.332 181.634C195.297 181.625 195.261 181.621 195.225 181.615V181.615ZM184.449 166.799C184.449 166.708 184.435 166.621 184.414 166.536V166.536L194.181 160.912C194.306 161.033 194.463 161.12 194.636 161.169V161.169V181.697C194.429 181.79 194.26 181.945 194.147 182.139V182.139L189.373 179.95L181.662 170.427L183.12 167.84C183.201 167.859 183.283 167.871 183.37 167.871V167.871C183.966 167.871 184.449 167.391 184.449 166.799V166.799ZM208.028 181.103L206.281 169.591L205.906 167.116C205.939 167.101 205.969 167.083 206 167.065V167.065L206.768 167.8L212.832 173.612C212.751 173.763 212.701 173.932 212.701 174.114V174.114C212.701 174.605 213.034 175.014 213.487 175.142V175.142V181.134C213.128 181.235 212.849 181.514 212.747 181.869V181.869H208.924C208.807 181.462 208.459 181.158 208.028 181.103V181.103ZM195.846 181.921L205.16 167.166C205.213 167.181 205.267 167.192 205.323 167.2V167.2L205.389 167.63L207.444 181.187C207.142 181.323 206.915 181.594 206.84 181.922V181.922L196.136 182.466C196.095 182.255 195.992 182.067 195.846 181.921V181.921ZM208.856 182.634L212.758 182.491C212.81 182.65 212.894 182.793 213.008 182.91V182.91L209.252 189.397C209.162 189.373 209.068 189.356 208.97 189.356V189.356C208.682 189.356 208.421 189.47 208.227 189.653V189.653L196.705 183.075L206.962 182.702C207.15 183.019 207.493 183.235 207.89 183.235V183.235C208.316 183.235 208.679 182.988 208.856 182.634V182.634ZM193.849 187.155L195.607 183.604C195.737 183.53 195.851 183.432 195.94 183.314V183.314L207.891 190.136H199.642L193.849 187.155Z" fill="url(#paint0_radial)"/>
<mask id="mask0" mask-type="alpha" maskUnits="userSpaceOnUse" x="171" y="106" width="44" height="86">
<path fill-rule="evenodd" clip-rule="evenodd" d="M203.987 106.859C203.511 106.859 203.111 107.168 202.968 107.593V107.593L199.629 107.762L185.124 115.014L185.521 120.461C185.129 120.604 184.846 120.963 184.817 121.394V121.394L178.513 122.727L171.265 144.206L173.147 147.207C173.037 147.327 172.956 147.471 172.91 147.632V147.632L172.903 147.657C172.88 147.743 172.864 147.832 172.864 147.925V147.925C172.864 148.204 172.975 148.456 173.151 148.647V148.647L171.26 151.701L175.321 161.821C175.178 161.971 175.08 162.161 175.043 162.374V162.374L175.026 162.376L175.042 162.385C175.033 162.441 175.024 162.497 175.024 162.556V162.556C175.024 163.148 175.508 163.629 176.105 163.629V163.629C176.365 163.629 176.601 163.533 176.788 163.381V163.381L182.325 166.54C182.304 166.624 182.29 166.709 182.29 166.799V166.799C182.29 167.094 182.41 167.362 182.605 167.557V167.557L180.954 170.486L189.001 180.424L194.002 182.717C194.019 183.134 194.273 183.489 194.636 183.651V183.651L194.732 183.685C194.783 183.703 194.835 183.718 194.889 183.728V183.728L193.066 187.411L199.497 190.721H207.936C208.065 191.171 208.477 191.501 208.97 191.501V191.501C209.463 191.501 209.876 191.171 210.004 190.721V190.721L210.018 190.675C210.037 190.596 210.05 190.514 210.05 190.428V190.428C210.05 190.145 209.938 189.89 209.757 189.698V189.698L213.52 183.2C213.604 183.22 213.691 183.235 213.781 183.235V183.235C214.377 183.235 214.861 182.754 214.861 182.162V182.162C214.861 181.672 214.528 181.262 214.076 181.134V181.134V175.142C214.528 175.014 214.861 174.605 214.861 174.114V174.114C214.861 173.624 214.528 173.215 214.076 173.087V173.087V157.657C214.528 157.53 214.861 157.121 214.861 156.63V156.63C214.861 156.139 214.528 155.73 214.076 155.603V155.603V144.123C214.528 143.995 214.861 143.587 214.861 143.096V143.096C214.861 142.606 214.528 142.197 214.076 142.068V142.068V132.857C214.528 132.729 214.861 132.321 214.861 131.83V131.83C214.861 131.339 214.528 130.93 214.076 130.802V130.802V125.542C214.528 125.414 214.861 125.005 214.861 124.515V124.515C214.861 124.024 214.528 123.615 214.076 123.487V123.487V111.873L211.465 109.561C211.467 109.53 211.474 109.5 211.474 109.469V109.469C211.474 108.876 210.99 108.395 210.394 108.395V108.395C210.36 108.395 210.328 108.402 210.295 108.405V108.405L209.2 107.015L204.944 107.444C204.765 107.098 204.406 106.859 203.987 106.859ZM205.059 108.021L208.936 107.63L209.726 108.631C209.476 108.828 209.314 109.128 209.314 109.469V109.469C209.314 109.792 209.461 110.078 209.688 110.274V110.274L208.24 114.906L204.677 126.297C204.667 126.297 204.659 126.295 204.65 126.295V126.295C204.273 126.295 203.942 126.487 203.749 126.777V126.777L195.719 124.251L186.966 121.498C186.967 121.487 186.97 121.477 186.97 121.466V121.466C186.97 121.329 186.941 121.198 186.894 121.077V121.077L195.805 114.365L203.279 108.736C203.469 108.901 203.715 109.005 203.987 109.005V109.005C204.553 109.005 205.013 108.571 205.059 108.021V108.021ZM186.108 120.415L185.74 115.36L199.72 108.343L202.94 108.181C202.945 108.202 202.952 108.222 202.959 108.242V108.242L195.071 114.183L186.537 120.612C186.411 120.518 186.267 120.448 186.108 120.415V120.415ZM211.231 110.138L213.487 112.136V123.487C213.034 123.615 212.701 124.024 212.701 124.515V124.515C212.701 124.525 212.704 124.534 212.704 124.544V124.544L205.552 126.779C205.47 126.656 205.364 126.551 205.239 126.47V126.47L208.844 114.947L210.227 110.525C210.281 110.533 210.337 110.541 210.394 110.541V110.541C210.734 110.541 211.033 110.382 211.231 110.138V110.138ZM171.911 144.131L178.965 123.229L184.94 121.967C185.005 122.088 185.092 122.195 185.197 122.283V122.283L174.099 146.867C174.048 146.859 173.998 146.852 173.945 146.852V146.852C173.841 146.852 173.742 146.871 173.647 146.898V146.898L171.911 144.131ZM188.254 125.089L186.652 122.226C186.704 122.174 186.75 122.118 186.79 122.057V122.057L195.228 124.711L203.573 127.336C203.573 127.346 203.57 127.357 203.57 127.367V127.367C203.57 127.449 203.581 127.528 203.599 127.605V127.605L202.513 128.194L193.565 133.053C193.369 132.856 193.096 132.732 192.795 132.732V132.732C192.71 132.732 192.628 132.744 192.549 132.763V132.763L188.254 125.089ZM186.136 122.509L188.123 126.061L192.033 133.045C191.837 133.239 191.715 133.508 191.715 133.805V133.805C191.715 133.942 191.743 134.072 191.79 134.191V134.191L174.682 147.006L185.735 122.524C185.786 122.531 185.836 122.539 185.89 122.539V122.539C185.975 122.539 186.056 122.527 186.136 122.509V122.509ZM205.711 127.559C205.723 127.497 205.73 127.433 205.73 127.367V127.367C205.73 127.357 205.727 127.348 205.727 127.338V127.338L212.879 125.103C213.02 125.315 213.235 125.47 213.487 125.542V125.542V130.802C213.29 130.859 213.116 130.966 212.983 131.113V131.113L205.711 127.559ZM205.449 128.084L212.72 131.638C212.709 131.7 212.701 131.764 212.701 131.83V131.83C212.701 132.321 213.034 132.729 213.487 132.857V132.857V142.068C213.043 142.194 212.716 142.591 212.704 143.07V143.07L195.859 147.384C195.8 147.284 195.725 147.195 195.637 147.119V147.119L200.927 135.931L204.477 128.423C204.534 128.432 204.591 128.441 204.65 128.441V128.441C204.968 128.441 205.251 128.302 205.449 128.084V128.084ZM195.068 146.865L193.24 134.78C193.614 134.612 193.875 134.24 193.875 133.805V133.805C193.875 133.723 193.864 133.644 193.847 133.568V133.568L201.841 129.227L203.88 128.119C203.9 128.139 203.923 128.155 203.944 128.173V128.173L200.332 135.813L195.104 146.869C195.093 146.867 195.08 146.867 195.068 146.865V146.865ZM174.949 147.538L182.772 141.679L192.146 134.658C192.292 134.768 192.466 134.84 192.657 134.864V134.864L194.485 146.949C194.199 147.078 193.983 147.327 193.896 147.632V147.632H174.979C174.97 147.601 174.962 147.569 174.949 147.538V147.538ZM195.703 148.673C195.887 148.485 196 148.232 196.008 147.951V147.951L212.853 143.636C212.992 143.872 213.217 144.047 213.487 144.123V144.123V155.603C213.034 155.73 212.701 156.139 212.701 156.63V156.63C212.701 156.847 212.767 157.048 212.878 157.216V157.216L205.918 165.172C205.778 165.107 205.624 165.067 205.46 165.067V165.067C205.37 165.067 205.283 165.082 205.2 165.102V165.102L195.703 148.673ZM176.264 148.935L175.03 148.217H193.896C193.998 148.573 194.278 148.851 194.636 148.952V148.952V159.114C194.464 159.163 194.31 159.249 194.185 159.368V159.368L176.264 148.935ZM174.69 148.698L175.421 149.123L193.888 159.874C193.879 159.91 193.872 159.946 193.866 159.981V159.981L177.086 162.114C176.917 161.743 176.542 161.483 176.105 161.483V161.483C176.01 161.483 175.921 161.498 175.834 161.521V161.521L171.917 151.757L173.653 148.953C173.747 148.979 173.843 148.998 173.945 148.998V148.998C174.235 148.998 174.496 148.882 174.69 148.698V148.698ZM195.976 160.4C195.996 160.317 196.011 160.231 196.011 160.142V160.142C196.011 160.05 195.996 159.963 195.974 159.879V159.879L195.924 159.72C195.797 159.426 195.539 159.203 195.225 159.114V159.114V149.022L204.663 165.349L195.976 160.4ZM206.409 166.643C206.49 166.492 206.54 166.323 206.54 166.14V166.14C206.54 165.924 206.474 165.723 206.363 165.555V165.555L207.795 163.918L213.324 157.599C213.376 157.623 213.43 157.642 213.487 157.657V157.657V173.087C213.4 173.112 213.317 173.146 213.241 173.19V173.19L206.409 166.643ZM177.123 162.898C177.145 162.832 177.162 162.765 177.171 162.694V162.694L193.519 160.616L184.119 166.029C183.925 165.842 183.661 165.726 183.37 165.726V165.726C183.076 165.726 182.811 165.843 182.617 166.032V166.032L177.123 162.898ZM195.225 181.615V161.169C195.4 161.119 195.558 161.031 195.684 160.908V160.908L204.415 165.882C204.394 165.965 204.381 166.051 204.381 166.14V166.14C204.381 166.416 204.488 166.665 204.661 166.856V166.856L195.332 181.634C195.297 181.625 195.261 181.621 195.225 181.615V181.615ZM184.449 166.799C184.449 166.708 184.435 166.621 184.414 166.536V166.536L194.181 160.912C194.306 161.033 194.463 161.12 194.636 161.169V161.169V181.697C194.429 181.79 194.26 181.945 194.147 182.139V182.139L189.373 179.95L181.662 170.427L183.12 167.84C183.201 167.859 183.283 167.871 183.37 167.871V167.871C183.966 167.871 184.449 167.391 184.449 166.799V166.799ZM208.028 181.103L206.281 169.591L205.906 167.116C205.939 167.101 205.969 167.083 206 167.065V167.065L206.768 167.8L212.832 173.612C212.751 173.763 212.701 173.932 212.701 174.114V174.114C212.701 174.605 213.034 175.014 213.487 175.142V175.142V181.134C213.128 181.235 212.849 181.514 212.747 181.869V181.869H208.924C208.807 181.462 208.459 181.158 208.028 181.103V181.103ZM195.846 181.921L205.16 167.166C205.213 167.181 205.267 167.192 205.323 167.2V167.2L205.389 167.63L207.444 181.187C207.142 181.323 206.915 181.594 206.84 181.922V181.922L196.136 182.466C196.095 182.255 195.992 182.067 195.846 181.921V181.921ZM208.856 182.634L212.758 182.491C212.81 182.65 212.894 182.793 213.008 182.91V182.91L209.252 189.397C209.162 189.373 209.068 189.356 208.97 189.356V189.356C208.682 189.356 208.421 189.47 208.227 189.653V189.653L196.705 183.075L206.962 182.702C207.15 183.019 207.493 183.235 207.89 183.235V183.235C208.316 183.235 208.679 182.988 208.856 182.634V182.634ZM193.849 187.155L195.607 183.604C195.737 183.53 195.851 183.432 195.94 183.314V183.314L207.891 190.136H199.642L193.849 187.155Z" fill="white"/>
</mask>
<g mask="url(#mask0)">
</g>
<path fill-rule="evenodd" clip-rule="evenodd" d="M228.167 106.859C227.749 106.859 227.39 107.098 227.211 107.444V107.444L222.954 107.015L221.86 108.405C221.827 108.402 221.795 108.395 221.761 108.395V108.395C221.164 108.395 220.681 108.876 220.681 109.469V109.469C220.681 109.5 220.688 109.53 220.69 109.561V109.561L218.079 111.873V123.487C217.627 123.615 217.294 124.024 217.294 124.515V124.515C217.294 125.005 217.627 125.414 218.079 125.542V125.542V130.802C217.627 130.93 217.294 131.339 217.294 131.83V131.83C217.294 132.321 217.627 132.729 218.079 132.857V132.857V142.068C217.627 142.197 217.294 142.606 217.294 143.096V143.096C217.294 143.587 217.627 143.995 218.079 144.123V144.123V155.603C217.627 155.73 217.294 156.139 217.294 156.63V156.63C217.294 157.121 217.627 157.53 218.079 157.657V157.657V173.087C217.627 173.215 217.294 173.624 217.294 174.114V174.114C217.294 174.605 217.627 175.014 218.079 175.142V175.142V181.134C217.627 181.262 217.294 181.672 217.294 182.162V182.162C217.294 182.754 217.777 183.235 218.374 183.235V183.235C218.464 183.235 218.551 183.22 218.634 183.2V183.2L222.397 189.698C222.217 189.89 222.105 190.145 222.105 190.428V190.428C222.105 190.514 222.117 190.596 222.136 190.675V190.675L222.151 190.721C222.28 191.171 222.691 191.501 223.185 191.501V191.501C223.678 191.501 224.09 191.171 224.219 190.721V190.721H232.657L239.089 187.411L237.266 183.728C237.32 183.718 237.372 183.703 237.423 183.685V183.685L237.519 183.651C237.882 183.489 238.136 183.134 238.152 182.717V182.717L243.154 180.424L251.201 170.486L249.549 167.557C249.744 167.362 249.865 167.094 249.865 166.799V166.799C249.865 166.709 249.851 166.624 249.83 166.54V166.54L255.368 163.381C255.554 163.533 255.79 163.629 256.051 163.629V163.629C256.647 163.629 257.13 163.148 257.13 162.556V162.556C257.13 162.497 257.122 162.441 257.113 162.385V162.385L257.129 162.376L257.112 162.374C257.075 162.161 256.977 161.971 256.834 161.821V161.821L260.896 151.701L259.004 148.647C259.18 148.456 259.29 148.204 259.29 147.925V147.925C259.29 147.832 259.275 147.743 259.252 147.657V147.657L259.245 147.632C259.198 147.471 259.118 147.327 259.008 147.207V147.207L260.89 144.206L253.642 122.727L247.338 121.394C247.309 120.963 247.026 120.604 246.634 120.461V120.461L247.031 115.014L232.527 107.762L229.187 107.593C229.044 107.168 228.644 106.859 228.167 106.859ZM223.915 114.906L222.466 110.274C222.694 110.078 222.841 109.792 222.841 109.469V109.469C222.841 109.128 222.678 108.828 222.429 108.631V108.631L223.218 107.63L227.096 108.021C227.143 108.571 227.601 109.005 228.167 109.005V109.005C228.44 109.005 228.686 108.901 228.876 108.736V108.736L236.349 114.365L245.261 121.077C245.214 121.198 245.185 121.329 245.185 121.466V121.466C245.185 121.477 245.188 121.487 245.188 121.498V121.498L236.436 124.251L228.405 126.777C228.212 126.487 227.881 126.295 227.504 126.295V126.295C227.496 126.295 227.487 126.297 227.478 126.297V126.297L223.915 114.906ZM237.084 114.183L229.196 108.242C229.202 108.222 229.21 108.202 229.216 108.181V108.181L232.435 108.343L246.415 115.36L246.046 120.415C245.888 120.448 245.743 120.518 245.619 120.612V120.612L237.084 114.183ZM219.451 124.544C219.451 124.534 219.454 124.525 219.454 124.515V124.515C219.454 124.024 219.121 123.615 218.669 123.487V123.487V112.136L220.924 110.138C221.121 110.382 221.421 110.541 221.761 110.541V110.541C221.818 110.541 221.873 110.533 221.928 110.525V110.525L223.311 114.947L226.915 126.47C226.791 126.551 226.685 126.656 226.603 126.779V126.779L219.451 124.544ZM246.957 122.283C247.062 122.195 247.15 122.088 247.215 121.967V121.967L253.19 123.229L260.243 144.131L258.507 146.898C258.412 146.871 258.314 146.852 258.211 146.852V146.852C258.157 146.852 258.106 146.859 258.056 146.867V146.867L246.957 122.283ZM229.642 128.194L228.556 127.605C228.574 127.528 228.584 127.449 228.584 127.367V127.367C228.584 127.357 228.582 127.346 228.581 127.336V127.336L236.927 124.711L245.364 122.057C245.405 122.118 245.452 122.174 245.503 122.226V122.226L243.901 125.089L239.606 132.763C239.527 132.744 239.445 132.732 239.36 132.732V132.732C239.058 132.732 238.786 132.856 238.59 133.053V133.053L229.642 128.194ZM240.365 134.191C240.412 134.072 240.44 133.942 240.44 133.805V133.805C240.44 133.508 240.318 133.239 240.122 133.045V133.045L244.031 126.061L246.019 122.509C246.098 122.527 246.18 122.539 246.266 122.539V122.539C246.318 122.539 246.369 122.531 246.42 122.524V122.524L257.472 147.006L240.365 134.191ZM218.669 130.802V125.542C218.92 125.47 219.135 125.315 219.276 125.103V125.103L226.427 127.338C226.427 127.348 226.424 127.357 226.424 127.367V127.367C226.424 127.433 226.433 127.497 226.444 127.559V127.559L219.172 131.113C219.039 130.966 218.866 130.859 218.669 130.802V130.802ZM219.451 143.07C219.439 142.591 219.113 142.194 218.669 142.068V142.068V132.857C219.121 132.729 219.454 132.321 219.454 131.83V131.83C219.454 131.764 219.446 131.7 219.435 131.638V131.638L226.706 128.084C226.904 128.302 227.187 128.441 227.504 128.441V128.441C227.564 128.441 227.621 128.432 227.678 128.423V128.423L231.228 135.931L236.518 147.119C236.43 147.195 236.356 147.284 236.296 147.384V147.384L219.451 143.07ZM231.824 135.813L228.211 128.173C228.232 128.155 228.255 128.139 228.274 128.119V128.119L230.314 129.227L238.308 133.568C238.291 133.644 238.28 133.723 238.28 133.805V133.805C238.28 134.24 238.541 134.612 238.915 134.78V134.78L237.087 146.865C237.075 146.867 237.063 146.867 237.051 146.869V146.869L231.824 135.813ZM237.669 146.949L239.498 134.864C239.688 134.84 239.863 134.768 240.009 134.658V134.658L249.383 141.679L257.205 147.538C257.194 147.569 257.185 147.601 257.176 147.632V147.632H238.258C238.171 147.327 237.955 147.078 237.669 146.949V146.949ZM219.277 157.216C219.388 157.048 219.454 156.847 219.454 156.63V156.63C219.454 156.139 219.121 155.73 218.669 155.603V155.603V144.123C218.938 144.047 219.163 143.872 219.302 143.636V143.636L236.147 147.951C236.154 148.232 236.268 148.485 236.452 148.673V148.673L226.955 165.102C226.871 165.082 226.785 165.067 226.695 165.067V165.067C226.531 165.067 226.377 165.107 226.237 165.172V165.172L219.277 157.216ZM237.519 159.114V148.952C237.877 148.851 238.156 148.573 238.258 148.217V148.217H257.125L255.892 148.935L237.97 159.368C237.845 159.249 237.69 159.163 237.519 159.114V159.114ZM238.288 159.981C238.283 159.946 238.276 159.91 238.266 159.874V159.874L256.734 149.123L257.464 148.698C257.659 148.882 257.921 148.998 258.211 148.998V148.998C258.312 148.998 258.409 148.979 258.502 148.953V148.953L260.238 151.757L256.32 161.521C256.233 161.498 256.144 161.483 256.051 161.483V161.483C255.613 161.483 255.238 161.743 255.068 162.114V162.114L238.288 159.981ZM236.93 149.022V159.114C236.616 159.203 236.358 159.426 236.231 159.72V159.72L236.181 159.879C236.159 159.963 236.145 160.05 236.145 160.142V160.142C236.145 160.231 236.159 160.317 236.179 160.4V160.4L227.492 165.349L236.93 149.022ZM218.669 173.087V157.657C218.725 157.642 218.779 157.623 218.832 157.599V157.599L224.36 163.918L225.792 165.555C225.68 165.723 225.615 165.924 225.615 166.14V166.14C225.615 166.323 225.665 166.492 225.746 166.643V166.643L218.914 173.19C218.837 173.146 218.756 173.112 218.669 173.087V173.087ZM238.636 160.616L254.984 162.694C254.994 162.765 255.009 162.832 255.031 162.898V162.898L249.539 166.032C249.344 165.843 249.079 165.726 248.785 165.726V165.726C248.493 165.726 248.229 165.842 248.035 166.029V166.029L238.636 160.616ZM227.494 166.856C227.667 166.665 227.775 166.416 227.775 166.14V166.14C227.775 166.051 227.76 165.965 227.74 165.882V165.882L236.471 160.908C236.597 161.031 236.755 161.119 236.93 161.169V161.169V181.615C236.894 181.621 236.858 181.625 236.823 181.634V181.634L227.494 166.856ZM237.519 181.697V161.169C237.692 161.12 237.848 161.033 237.974 160.912V160.912L247.741 166.536C247.72 166.621 247.705 166.708 247.705 166.799V166.799C247.705 167.391 248.188 167.871 248.785 167.871V167.871C248.871 167.871 248.954 167.859 249.035 167.84V167.84L250.493 170.427L242.782 179.95L238.008 182.139C237.895 181.945 237.726 181.79 237.519 181.697V181.697ZM218.669 181.134V175.142C219.121 175.014 219.454 174.605 219.454 174.114V174.114C219.454 173.932 219.404 173.763 219.323 173.612V173.612L225.387 167.8L226.155 167.065C226.185 167.083 226.216 167.101 226.249 167.116V167.116L225.873 169.591L224.128 181.103C223.696 181.158 223.347 181.462 223.231 181.869V181.869H219.408C219.306 181.514 219.027 181.235 218.669 181.134V181.134ZM225.316 181.922C225.24 181.594 225.013 181.323 224.71 181.187V181.187L226.767 167.63L226.832 167.2C226.888 167.192 226.941 167.181 226.994 167.166V167.166L236.309 181.921C236.163 182.067 236.06 182.255 236.018 182.466V182.466L225.316 181.922ZM219.147 182.91C219.261 182.793 219.345 182.65 219.396 182.491V182.491L223.299 182.634C223.475 182.988 223.839 183.235 224.265 183.235V183.235C224.662 183.235 225.005 183.019 225.193 182.702V182.702L235.45 183.075L223.927 189.653C223.734 189.47 223.474 189.356 223.185 189.356V189.356C223.087 189.356 222.993 189.373 222.902 189.397V189.397L219.147 182.91ZM236.215 183.314C236.304 183.432 236.417 183.53 236.547 183.604V183.604L238.306 187.155L232.514 190.136H224.264L236.215 183.314Z" fill="url(#paint1_radial)"/>
<mask id="mask1" mask-type="alpha" maskUnits="userSpaceOnUse" x="217" y="106" width="44" height="86">
<path fill-rule="evenodd" clip-rule="evenodd" d="M228.167 106.859C227.749 106.859 227.39 107.098 227.211 107.444V107.444L222.954 107.015L221.86 108.405C221.827 108.402 221.795 108.395 221.761 108.395V108.395C221.164 108.395 220.681 108.876 220.681 109.469V109.469C220.681 109.5 220.688 109.53 220.69 109.561V109.561L218.079 111.873V123.487C217.627 123.615 217.294 124.024 217.294 124.515V124.515C217.294 125.005 217.627 125.414 218.079 125.542V125.542V130.802C217.627 130.93 217.294 131.339 217.294 131.83V131.83C217.294 132.321 217.627 132.729 218.079 132.857V132.857V142.068C217.627 142.197 217.294 142.606 217.294 143.096V143.096C217.294 143.587 217.627 143.995 218.079 144.123V144.123V155.603C217.627 155.73 217.294 156.139 217.294 156.63V156.63C217.294 157.121 217.627 157.53 218.079 157.657V157.657V173.087C217.627 173.215 217.294 173.624 217.294 174.114V174.114C217.294 174.605 217.627 175.014 218.079 175.142V175.142V181.134C217.627 181.262 217.294 181.672 217.294 182.162V182.162C217.294 182.754 217.777 183.235 218.374 183.235V183.235C218.464 183.235 218.551 183.22 218.634 183.2V183.2L222.397 189.698C222.217 189.89 222.105 190.145 222.105 190.428V190.428C222.105 190.514 222.117 190.596 222.136 190.675V190.675L222.151 190.721C222.28 191.171 222.691 191.501 223.185 191.501V191.501C223.678 191.501 224.09 191.171 224.219 190.721V190.721H232.657L239.089 187.411L237.266 183.728C237.32 183.718 237.372 183.703 237.423 183.685V183.685L237.519 183.651C237.882 183.489 238.136 183.134 238.152 182.717V182.717L243.154 180.424L251.201 170.486L249.549 167.557C249.744 167.362 249.865 167.094 249.865 166.799V166.799C249.865 166.709 249.851 166.624 249.83 166.54V166.54L255.368 163.381C255.554 163.533 255.79 163.629 256.051 163.629V163.629C256.647 163.629 257.13 163.148 257.13 162.556V162.556C257.13 162.497 257.122 162.441 257.113 162.385V162.385L257.129 162.376L257.112 162.374C257.075 162.161 256.977 161.971 256.834 161.821V161.821L260.896 151.701L259.004 148.647C259.18 148.456 259.29 148.204 259.29 147.925V147.925C259.29 147.832 259.275 147.743 259.252 147.657V147.657L259.245 147.632C259.198 147.471 259.118 147.327 259.008 147.207V147.207L260.89 144.206L253.642 122.727L247.338 121.394C247.309 120.963 247.026 120.604 246.634 120.461V120.461L247.031 115.014L232.527 107.762L229.187 107.593C229.044 107.168 228.644 106.859 228.167 106.859ZM223.915 114.906L222.466 110.274C222.694 110.078 222.841 109.792 222.841 109.469V109.469C222.841 109.128 222.678 108.828 222.429 108.631V108.631L223.218 107.63L227.096 108.021C227.143 108.571 227.601 109.005 228.167 109.005V109.005C228.44 109.005 228.686 108.901 228.876 108.736V108.736L236.349 114.365L245.261 121.077C245.214 121.198 245.185 121.329 245.185 121.466V121.466C245.185 121.477 245.188 121.487 245.188 121.498V121.498L236.436 124.251L228.405 126.777C228.212 126.487 227.881 126.295 227.504 126.295V126.295C227.496 126.295 227.487 126.297 227.478 126.297V126.297L223.915 114.906ZM237.084 114.183L229.196 108.242C229.202 108.222 229.21 108.202 229.216 108.181V108.181L232.435 108.343L246.415 115.36L246.046 120.415C245.888 120.448 245.743 120.518 245.619 120.612V120.612L237.084 114.183ZM219.451 124.544C219.451 124.534 219.454 124.525 219.454 124.515V124.515C219.454 124.024 219.121 123.615 218.669 123.487V123.487V112.136L220.924 110.138C221.121 110.382 221.421 110.541 221.761 110.541V110.541C221.818 110.541 221.873 110.533 221.928 110.525V110.525L223.311 114.947L226.915 126.47C226.791 126.551 226.685 126.656 226.603 126.779V126.779L219.451 124.544ZM246.957 122.283C247.062 122.195 247.15 122.088 247.215 121.967V121.967L253.19 123.229L260.243 144.131L258.507 146.898C258.412 146.871 258.314 146.852 258.211 146.852V146.852C258.157 146.852 258.106 146.859 258.056 146.867V146.867L246.957 122.283ZM229.642 128.194L228.556 127.605C228.574 127.528 228.584 127.449 228.584 127.367V127.367C228.584 127.357 228.582 127.346 228.581 127.336V127.336L236.927 124.711L245.364 122.057C245.405 122.118 245.452 122.174 245.503 122.226V122.226L243.901 125.089L239.606 132.763C239.527 132.744 239.445 132.732 239.36 132.732V132.732C239.058 132.732 238.786 132.856 238.59 133.053V133.053L229.642 128.194ZM240.365 134.191C240.412 134.072 240.44 133.942 240.44 133.805V133.805C240.44 133.508 240.318 133.239 240.122 133.045V133.045L244.031 126.061L246.019 122.509C246.098 122.527 246.18 122.539 246.266 122.539V122.539C246.318 122.539 246.369 122.531 246.42 122.524V122.524L257.472 147.006L240.365 134.191ZM218.669 130.802V125.542C218.92 125.47 219.135 125.315 219.276 125.103V125.103L226.427 127.338C226.427 127.348 226.424 127.357 226.424 127.367V127.367C226.424 127.433 226.433 127.497 226.444 127.559V127.559L219.172 131.113C219.039 130.966 218.866 130.859 218.669 130.802V130.802ZM219.451 143.07C219.439 142.591 219.113 142.194 218.669 142.068V142.068V132.857C219.121 132.729 219.454 132.321 219.454 131.83V131.83C219.454 131.764 219.446 131.7 219.435 131.638V131.638L226.706 128.084C226.904 128.302 227.187 128.441 227.504 128.441V128.441C227.564 128.441 227.621 128.432 227.678 128.423V128.423L231.228 135.931L236.518 147.119C236.43 147.195 236.356 147.284 236.296 147.384V147.384L219.451 143.07ZM231.824 135.813L228.211 128.173C228.232 128.155 228.255 128.139 228.274 128.119V128.119L230.314 129.227L238.308 133.568C238.291 133.644 238.28 133.723 238.28 133.805V133.805C238.28 134.24 238.541 134.612 238.915 134.78V134.78L237.087 146.865C237.075 146.867 237.063 146.867 237.051 146.869V146.869L231.824 135.813ZM237.669 146.949L239.498 134.864C239.688 134.84 239.863 134.768 240.009 134.658V134.658L249.383 141.679L257.205 147.538C257.194 147.569 257.185 147.601 257.176 147.632V147.632H238.258C238.171 147.327 237.955 147.078 237.669 146.949V146.949ZM219.277 157.216C219.388 157.048 219.454 156.847 219.454 156.63V156.63C219.454 156.139 219.121 155.73 218.669 155.603V155.603V144.123C218.938 144.047 219.163 143.872 219.302 143.636V143.636L236.147 147.951C236.154 148.232 236.268 148.485 236.452 148.673V148.673L226.955 165.102C226.871 165.082 226.785 165.067 226.695 165.067V165.067C226.531 165.067 226.377 165.107 226.237 165.172V165.172L219.277 157.216ZM237.519 159.114V148.952C237.877 148.851 238.156 148.573 238.258 148.217V148.217H257.125L255.892 148.935L237.97 159.368C237.845 159.249 237.69 159.163 237.519 159.114V159.114ZM238.288 159.981C238.283 159.946 238.276 159.91 238.266 159.874V159.874L256.734 149.123L257.464 148.698C257.659 148.882 257.921 148.998 258.211 148.998V148.998C258.312 148.998 258.409 148.979 258.502 148.953V148.953L260.238 151.757L256.32 161.521C256.233 161.498 256.144 161.483 256.051 161.483V161.483C255.613 161.483 255.238 161.743 255.068 162.114V162.114L238.288 159.981ZM236.93 149.022V159.114C236.616 159.203 236.358 159.426 236.231 159.72V159.72L236.181 159.879C236.159 159.963 236.145 160.05 236.145 160.142V160.142C236.145 160.231 236.159 160.317 236.179 160.4V160.4L227.492 165.349L236.93 149.022ZM218.669 173.087V157.657C218.725 157.642 218.779 157.623 218.832 157.599V157.599L224.36 163.918L225.792 165.555C225.68 165.723 225.615 165.924 225.615 166.14V166.14C225.615 166.323 225.665 166.492 225.746 166.643V166.643L218.914 173.19C218.837 173.146 218.756 173.112 218.669 173.087V173.087ZM238.636 160.616L254.984 162.694C254.994 162.765 255.009 162.832 255.031 162.898V162.898L249.539 166.032C249.344 165.843 249.079 165.726 248.785 165.726V165.726C248.493 165.726 248.229 165.842 248.035 166.029V166.029L238.636 160.616ZM227.494 166.856C227.667 166.665 227.775 166.416 227.775 166.14V166.14C227.775 166.051 227.76 165.965 227.74 165.882V165.882L236.471 160.908C236.597 161.031 236.755 161.119 236.93 161.169V161.169V181.615C236.894 181.621 236.858 181.625 236.823 181.634V181.634L227.494 166.856ZM237.519 181.697V161.169C237.692 161.12 237.848 161.033 237.974 160.912V160.912L247.741 166.536C247.72 166.621 247.705 166.708 247.705 166.799V166.799C247.705 167.391 248.188 167.871 248.785 167.871V167.871C248.871 167.871 248.954 167.859 249.035 167.84V167.84L250.493 170.427L242.782 179.95L238.008 182.139C237.895 181.945 237.726 181.79 237.519 181.697V181.697ZM218.669 181.134V175.142C219.121 175.014 219.454 174.605 219.454 174.114V174.114C219.454 173.932 219.404 173.763 219.323 173.612V173.612L225.387 167.8L226.155 167.065C226.185 167.083 226.216 167.101 226.249 167.116V167.116L225.873 169.591L224.128 181.103C223.696 181.158 223.347 181.462 223.231 181.869V181.869H219.408C219.306 181.514 219.027 181.235 218.669 181.134V181.134ZM225.316 181.922C225.24 181.594 225.013 181.323 224.71 181.187V181.187L226.767 167.63L226.832 167.2C226.888 167.192 226.941 167.181 226.994 167.166V167.166L236.309 181.921C236.163 182.067 236.06 182.255 236.018 182.466V182.466L225.316 181.922ZM219.147 182.91C219.261 182.793 219.345 182.65 219.396 182.491V182.491L223.299 182.634C223.475 182.988 223.839 183.235 224.265 183.235V183.235C224.662 183.235 225.005 183.019 225.193 182.702V182.702L235.45 183.075L223.927 189.653C223.734 189.47 223.474 189.356 223.185 189.356V189.356C223.087 189.356 222.993 189.373 222.902 189.397V189.397L219.147 182.91ZM236.215 183.314C236.304 183.432 236.417 183.53 236.547 183.604V183.604L238.306 187.155L232.514 190.136H224.264L236.215 183.314Z" fill="white"/>
</mask>
<g mask="url(#mask1)">
</g>
<path fill-rule="evenodd" clip-rule="evenodd" d="M182.553 165.459V158.236H197.518C198.446 158.236 199.232 158.022 199.855 157.599C200.421 157.214 200.708 156.478 200.708 155.408C200.708 154.328 200.423 153.612 199.837 153.221C199.198 152.797 198.416 152.582 197.518 152.582H193.199C191.661 152.582 190.248 152.406 188.997 152.059C187.715 151.705 186.604 151.122 185.696 150.325C184.785 149.528 184.074 148.47 183.584 147.18C183.102 145.914 182.858 144.35 182.858 142.532C182.858 140.654 183.102 139.06 183.584 137.793C184.074 136.504 184.784 135.445 185.696 134.647C186.607 133.85 187.722 133.281 189.01 132.956C190.262 132.641 191.671 132.482 193.199 132.482H208.662V139.705H194.051C193.139 139.705 192.389 139.914 191.757 140.343C191.192 140.727 190.905 141.463 190.905 142.532C190.905 143.601 191.192 144.337 191.759 144.722C192.392 145.151 193.144 145.359 194.059 145.359H198.393C199.931 145.359 201.345 145.527 202.597 145.857C203.885 146.196 205.002 146.781 205.915 147.595C206.827 148.408 207.537 149.473 208.027 150.76C208.51 152.03 208.756 153.594 208.756 155.408C208.756 157.287 208.509 158.882 208.024 160.15C207.529 161.441 206.813 162.493 205.894 163.276C204.981 164.055 203.863 164.622 202.573 164.961C201.318 165.291 199.904 165.459 198.369 165.459H182.553Z" fill="#006464"/>
<path fill-rule="evenodd" clip-rule="evenodd" d="M234.764 165.459C232.938 165.459 231.192 165.163 229.572 164.581C227.93 163.993 226.478 163.024 225.256 161.703C224.043 160.394 223.072 158.675 222.368 156.592C221.67 154.527 221.315 151.963 221.315 148.97C221.315 145.979 221.67 143.407 222.367 141.327C223.072 139.228 224.045 137.507 225.258 136.212C226.478 134.91 227.929 133.95 229.572 133.359C231.194 132.777 232.94 132.482 234.764 132.482H246.5V139.705H235.576C234.675 139.705 233.815 139.848 233.022 140.13C232.26 140.401 231.579 140.88 231 141.553C230.407 142.243 229.931 143.194 229.582 144.381C229.227 145.593 229.046 147.137 229.046 148.97C229.046 150.803 229.226 152.339 229.582 153.535C229.931 154.711 230.409 155.665 231.003 156.37C231.582 157.055 232.262 157.54 233.023 157.812C233.816 158.094 234.675 158.236 235.576 158.236H246.5V165.459H234.764Z" fill="#006464"/>
<path fill-rule="evenodd" clip-rule="evenodd" d="M204.26 283.001C204.26 283.277 204.577 283.501 204.967 283.501H211.554C211.944 283.501 212.26 283.277 212.26 283.001C212.26 282.724 211.944 282.501 211.554 282.501H204.967C204.577 282.501 204.26 282.724 204.26 283.001" fill="#009190"/>
<path fill-rule="evenodd" clip-rule="evenodd" d="M200.927 280.501H203.593C203.962 280.501 204.26 280.277 204.26 280.001C204.26 279.725 203.962 279.501 203.593 279.501H200.927C200.558 279.501 200.26 279.725 200.26 280.001C200.26 280.277 200.558 280.501 200.927 280.501" fill="#009190"/>
<mask id="mask2" mask-type="alpha" maskUnits="userSpaceOnUse" x="209" y="266" width="22" height="18">
<path fill-rule="evenodd" clip-rule="evenodd" d="M209.442 266.451H230.406V283.029H209.442V266.451Z" fill="white"/>
</mask>
<g mask="url(#mask2)">
<path fill-rule="evenodd" clip-rule="evenodd" d="M213.342 271.244V281.371C213.342 282.285 214.108 283.028 215.049 283.028H224.8C225.74 283.028 226.505 282.285 226.505 281.371V271.244L230.192 267.663C230.477 267.385 230.477 266.935 230.192 266.659C229.906 266.381 229.442 266.381 229.157 266.659L225.471 270.239H214.376L210.691 266.659C210.405 266.381 209.942 266.381 209.656 266.659C209.371 266.935 209.371 267.385 209.656 267.663L213.342 271.244ZM214.805 271.66H225.042V281.371C225.042 281.501 224.934 281.608 224.8 281.608H215.049C214.914 281.608 214.805 281.502 214.805 281.371V271.66Z" fill="#009190"/>
</g>
<path fill-rule="evenodd" clip-rule="evenodd" d="M207.927 280.501H210.593C210.962 280.501 211.26 280.277 211.26 280.001C211.26 279.725 210.962 279.501 210.593 279.501H207.927C207.559 279.501 207.26 279.725 207.26 280.001C207.26 280.277 207.559 280.501 207.927 280.501" fill="#009190"/>
<path fill-rule="evenodd" clip-rule="evenodd" d="M235.26 290.501C235.26 288.847 233.914 287.501 232.261 287.501C230.606 287.501 229.26 288.847 229.26 290.501C229.26 292.155 230.606 293.501 232.261 293.501C233.914 293.501 235.26 292.155 235.26 290.501M230.646 290.501C230.646 289.611 231.37 288.885 232.261 288.885C233.151 288.885 233.876 289.611 233.876 290.501C233.876 291.391 233.151 292.117 232.261 292.117C231.37 292.117 230.646 291.391 230.646 290.501" fill="#009190"/>
<path fill-rule="evenodd" clip-rule="evenodd" d="M212.26 290.501C212.26 292.155 213.606 293.501 215.26 293.501C216.914 293.501 218.26 292.155 218.26 290.501C218.26 288.847 216.914 287.501 215.26 287.501C213.606 287.501 212.26 288.847 212.26 290.501M216.876 290.501C216.876 291.391 216.151 292.117 215.26 292.117C214.37 292.117 213.645 291.391 213.645 290.501C213.645 289.611 214.37 288.885 215.26 288.885C216.151 288.885 216.876 289.611 216.876 290.501" fill="#009190"/>
<mask id="mask3" mask-type="alpha" maskUnits="userSpaceOnUse" x="192" y="285" width="47" height="28">
<path fill-rule="evenodd" clip-rule="evenodd" d="M192.26 285.484H238.258V312.501H192.26V285.484Z" fill="white"/>
</mask>
<g mask="url(#mask3)">
<path fill-rule="evenodd" clip-rule="evenodd" d="M237.531 311.027H235.352V309.799C235.352 308.309 234.157 307.098 232.69 307.098H231.479V301.946V301.936V297.765H232.206C235.543 297.765 238.258 295.01 238.258 291.625C238.258 288.239 235.543 285.484 232.206 285.484H228.816C228.415 285.484 228.09 285.815 228.09 286.222C228.09 286.628 228.415 286.959 228.816 286.959H232.206C234.741 286.959 236.806 289.052 236.806 291.625C236.806 294.198 234.741 296.291 232.206 296.291H224.949H224.938H221.074H221.064H209.454H209.444H205.581H205.569H198.312C195.776 296.291 193.712 294.198 193.712 291.625C193.712 289.052 195.776 286.959 198.312 286.959H225.912C226.312 286.959 226.637 286.628 226.637 286.222C226.637 285.815 226.312 285.484 225.912 285.484H198.312C194.974 285.484 192.26 288.239 192.26 291.625C192.26 295.01 194.974 297.765 198.312 297.765H199.038V301.936V301.946V307.098H197.829C196.36 307.098 195.165 308.309 195.165 309.799V311.027H192.987C192.585 311.027 192.26 311.358 192.26 311.764C192.26 312.171 192.585 312.501 192.987 312.501H197.829C198.229 312.501 198.554 312.171 198.554 311.764C198.554 311.358 198.229 311.027 197.829 311.027H196.618V309.799C196.618 309.122 197.162 308.572 197.829 308.572H201.702C202.37 308.572 202.912 309.122 202.912 309.799V311.027H200.733C200.331 311.027 200.007 311.358 200.007 311.764C200.007 312.171 200.331 312.501 200.733 312.501H237.531C237.934 312.501 238.258 312.171 238.258 311.764C238.258 311.358 237.934 311.027 237.531 311.027V311.027ZM230.027 297.765V300.366L226.949 297.765H230.027ZM215.986 297.765H219.063L215.986 300.366V297.765ZM214.532 297.765V300.366L211.455 297.765H214.532ZM200.491 297.765H203.569L200.491 300.366V297.765ZM210.659 309.799V311.027H204.365V309.799C204.365 308.309 203.17 307.098 201.702 307.098H200.491V302.286L205.838 297.765H209.186L214.532 302.286V307.098H213.321C211.854 307.098 210.659 308.309 210.659 309.799V309.799ZM218.406 311.027H212.112V309.799C212.112 309.122 212.654 308.572 213.323 308.572H217.196C217.863 308.572 218.406 309.122 218.406 309.799V311.027ZM226.153 309.799V311.027H219.859V309.799C219.859 308.309 218.664 307.098 217.195 307.098H215.986V302.286L221.332 297.765H224.68L230.027 302.286V307.098H228.816C227.348 307.098 226.153 308.309 226.153 309.799V309.799ZM233.901 311.027H227.606V309.799C227.606 309.122 228.149 308.572 228.816 308.572H232.69C233.357 308.572 233.901 309.122 233.901 309.799V311.027Z" fill="#009190"/>
</g>
<path fill-rule="evenodd" clip-rule="evenodd" d="M195.26 290.501C195.26 292.155 196.606 293.501 198.26 293.501C199.914 293.501 201.26 292.155 201.26 290.501C201.26 288.847 199.914 287.501 198.26 287.501C196.606 287.501 195.26 288.847 195.26 290.501M199.876 290.501C199.876 291.391 199.151 292.117 198.26 292.117C197.37 292.117 196.645 291.391 196.645 290.501C196.645 289.611 197.37 288.885 198.26 288.885C199.151 288.885 199.876 289.611 199.876 290.501" fill="#009190"/>
<mask id="mask4" mask-type="alpha" maskUnits="userSpaceOnUse" x="295" y="14" width="41" height="42">
<path fill-rule="evenodd" clip-rule="evenodd" d="M295.26 14.6738H336V55.4139H295.26V14.6738Z" fill="white"/>
</mask>
<g mask="url(#mask4)">
<path fill-rule="evenodd" clip-rule="evenodd" d="M302.56 21.5447L302.769 21.1825C303.118 20.5779 303.767 20.2024 304.464 20.2024H304.466L304.707 20.2026V20.221C305.295 20.3194 305.805 20.6628 306.121 21.1767L306.346 21.5447H302.56ZM319.682 21.5445H322.742V15.9085H319.682V21.5445ZM308.759 43.3906H327.653C328.941 43.3906 329.988 42.3432 329.988 41.0557V37.6204C329.988 37.0136 330.482 36.52 331.089 36.52H333.665C334.953 36.52 336 35.4726 336 34.1851V17.0087C336 15.7212 334.953 14.6738 333.665 14.6738H316.489C315.201 14.6738 314.154 15.7212 314.154 17.0087V34.1851C314.154 35.4726 315.201 36.52 316.489 36.52H326.553V35.2854H316.489C315.882 35.2854 315.388 34.7918 315.388 34.1851V17.0087C315.388 16.402 315.882 15.9084 316.489 15.9084H318.448V22.1616C318.448 22.5021 318.725 22.7789 319.065 22.7789H323.359C323.7 22.7789 323.976 22.5021 323.976 22.1616V15.9084H333.665C334.272 15.9084 334.765 16.402 334.765 17.0087V34.1851C334.765 34.7918 334.272 35.2854 333.665 35.2854H331.089C329.801 35.2854 328.754 36.3329 328.754 37.6204V41.0557C328.754 41.6625 328.26 42.156 327.653 42.156H308.759C308.153 42.156 307.659 41.6625 307.659 41.0557V22.3076C307.672 21.6919 307.513 21.0919 307.202 20.5674L306.985 20.2024H311.953V18.9679L304.464 18.9694C304.461 18.9694 304.458 18.9693 304.454 18.9693C303.636 18.9693 302.86 19.2804 302.268 19.8457C301.834 20.2589 301.525 20.7837 301.375 21.3635L301.328 21.5443H299.312C297.081 21.5471 295.263 23.3652 295.26 25.5972V44.4909C295.263 46.7227 297.081 48.5408 299.313 48.5435H308.142V50.7972L307.936 50.8275C306.29 51.0694 305.009 52.3346 304.748 53.9758L304.716 54.1795H302.989V55.414H328.271V54.1795H326.544L326.511 53.9759C326.25 52.3346 324.969 51.0694 323.324 50.8275L323.118 50.7972V48.5434H331.947C334.179 48.5407 335.997 46.7226 336 44.4906V37.8619H334.765V44.4909C334.765 46.0447 333.501 47.3089 331.947 47.3089H315.871V48.5434H321.883V51.3615C321.883 51.7 322.157 51.9756 322.495 51.9788C322.587 51.9742 322.68 51.9742 322.773 51.9791C323.891 52.0384 324.867 52.7967 325.2 53.8661L325.298 54.1795H305.962L306.059 53.8663C306.424 52.692 307.535 51.916 308.764 51.9787H315.388V50.7442H309.377V47.9262C309.377 47.5858 309.1 47.3089 308.759 47.3089H299.312C297.758 47.3089 296.494 46.0447 296.494 44.4909V42.5317H304.224V41.2972H296.494V25.5969C296.494 24.0431 297.758 22.7789 299.312 22.7789H306.424V41.0557C306.424 42.3432 307.472 43.3906 308.759 43.3906V43.3906Z" fill="#0F9696"/>
</g>
<path fill-rule="evenodd" clip-rule="evenodd" d="M298.695 27.3144V28.7905H299.929V27.3144C299.929 26.7076 300.423 26.214 301.03 26.214H302.506V24.9795H301.03C299.742 24.9795 298.695 26.0269 298.695 27.3144" fill="#0F9696"/>
<mask id="mask5" mask-type="alpha" maskUnits="userSpaceOnUse" x="295" y="14" width="41" height="42">
<path fill-rule="evenodd" clip-rule="evenodd" d="M295.26 55.414H336V14.6738H295.26V55.414Z" fill="white"/>
</mask>
<g mask="url(#mask5)">
<path fill-rule="evenodd" clip-rule="evenodd" d="M309.859 39.9552H323.117V38.7207H309.859V39.9552Z" fill="#0F9696"/>
<path fill-rule="evenodd" clip-rule="evenodd" d="M325.318 39.9552H326.553V38.7207H325.318V39.9552Z" fill="#0F9696"/>
<path fill-rule="evenodd" clip-rule="evenodd" d="M309.859 36.5202H312.812V35.2856H309.859V36.5202Z" fill="#0F9696"/>
<path fill-rule="evenodd" clip-rule="evenodd" d="M309.859 33.0846H312.812V31.8501H309.859V33.0846Z" fill="#0F9696"/>
<path fill-rule="evenodd" clip-rule="evenodd" d="M309.859 29.6496H312.812V28.415H309.859V29.6496Z" fill="#0F9696"/>
<path fill-rule="evenodd" clip-rule="evenodd" d="M309.859 26.214H312.812V24.9795H309.859V26.214Z" fill="#0F9696"/>
</g>
<path fill-rule="evenodd" clip-rule="evenodd" d="M350.242 168.978H344.505C344.166 168.978 343.889 169.221 343.889 169.52V207.734C343.889 208.033 344.166 208.276 344.505 208.276L366.917 208.243L367.093 208.173L367.075 208.14L367.124 208.16L375.875 200.161L375.87 200.104L375.885 200.111L375.946 199.987L375.97 199.888L375.966 169.52C375.966 169.221 375.691 168.978 375.353 168.978H369.616V166.737H378.37V210.102H341.486V166.737H350.242V168.978ZM373.913 200.383L367.346 206.396V200.383H373.913ZM350.854 172.967H369.003C369.341 172.967 369.616 172.725 369.616 172.427V170.061H374.742V199.301H366.734C366.397 199.301 366.122 199.544 366.122 199.842V207.193H345.116V170.061H350.242V172.427C350.242 172.725 350.516 172.967 350.854 172.967V172.967ZM351.466 171.885V166.737H354.558L354.615 166.738L354.895 166.643L354.947 166.602L355.153 166.324L355.175 166.275C355.56 164.135 357.559 162.582 359.928 162.582C362.294 162.582 364.298 164.138 364.692 166.281L364.806 166.529L364.84 166.571L364.905 166.618L365.262 166.731L368.39 166.736V171.885H351.466ZM378.985 165.656H365.798L365.746 165.489C364.993 163.104 362.655 161.501 359.928 161.501C357.202 161.501 354.864 163.104 354.11 165.489L354.059 165.656H340.872C340.535 165.656 340.261 165.899 340.261 166.197V210.642C340.261 210.941 340.535 211.182 340.872 211.182H378.985C379.322 211.182 379.596 210.941 379.596 210.642V166.197C379.596 165.899 379.322 165.656 378.985 165.656V165.656Z" fill="#009090"/>
<path fill-rule="evenodd" clip-rule="evenodd" d="M352.053 187.278C352.053 182.602 355.856 178.799 360.531 178.799C365.207 178.799 369.01 182.602 369.01 187.278C369.01 191.953 365.207 195.756 360.531 195.756C355.856 195.756 352.053 191.953 352.053 187.278M360.531 197.075C365.934 197.075 370.33 192.679 370.33 187.278C370.33 181.875 365.934 177.479 360.531 177.479C355.129 177.479 350.732 181.875 350.732 187.278C350.732 192.679 355.129 197.075 360.531 197.075" fill="#009090"/>
<path fill-rule="evenodd" clip-rule="evenodd" d="M357.417 191.67H357.42C357.595 191.669 357.763 191.601 357.88 191.483L365.153 184.213C365.409 183.955 365.409 183.536 365.152 183.279C364.895 183.022 364.474 183.023 364.217 183.28L357.416 190.083L355.391 188.057C355.14 187.807 354.707 187.808 354.457 188.057C354.201 188.314 354.201 188.732 354.457 188.989L356.95 191.483C357.07 191.602 357.24 191.67 357.417 191.67" fill="#009090"/>
<path fill-rule="evenodd" clip-rule="evenodd" d="M40.9999 36.021L42.9599 36.541C42.7599 37.441 42.5599 38.281 42.3399 39.081H49.8999C49.8999 46.041 49.7999 50.321 49.5999 51.921C49.3599 53.641 48.2199 54.501 46.1799 54.501C45.8999 54.501 45.3799 54.461 44.6599 54.401L44.1799 52.541C44.8199 52.601 45.3599 52.641 45.8399 52.641C46.8999 52.641 47.5199 52.081 47.6799 50.981C47.7999 50.041 47.8599 46.741 47.8999 41.081H47.1799C46.7599 44.281 46.1799 46.841 45.4199 48.721C44.4999 50.841 43.1199 52.761 41.3199 54.441L40.0199 52.781C41.6599 51.301 42.8799 49.661 43.6999 47.821C44.3999 46.121 44.9399 43.881 45.3199 41.081H44.3199C43.4799 45.321 41.9799 48.441 39.7999 50.401L38.4599 48.841C40.3799 47.201 41.7199 44.621 42.4599 41.081H41.6199C41.1199 42.261 40.5399 43.261 39.8799 44.061L38.3599 42.761C39.5999 41.201 40.4799 38.941 40.9999 36.021ZM34.2799 42.041C34.1199 42.981 33.9399 43.901 33.7199 44.781L31.8799 44.261C32.4199 42.161 32.7199 39.941 32.7999 37.621L34.6599 37.761C34.6199 38.521 34.5799 39.281 34.5199 40.041H35.3799V36.101H37.4199V40.041H38.7799V42.041H37.4199V46.041C37.8399 45.841 38.2599 45.641 38.6999 45.441V47.401C38.2599 47.601 37.8399 47.781 37.4199 47.981V54.581H35.3799V48.801C34.4799 49.121 33.5599 49.441 32.6199 49.721L32.1199 47.701C33.2199 47.481 34.2999 47.181 35.3799 46.821V42.041H34.2799ZM65.3799 36.001L67.4199 36.641C67.2199 37.081 67.0199 37.481 66.8199 37.881H72.9399V39.761H65.7799C65.0599 40.921 64.2799 41.941 63.4599 42.801C65.4599 42.701 67.4199 42.541 69.3399 42.301L68.2599 40.921L69.9399 39.881C71.3399 41.521 72.3999 42.961 73.1399 44.201L71.3999 45.421C71.1199 44.941 70.8199 44.441 70.4799 43.921C67.4799 44.281 64.4199 44.521 61.2799 44.661L60.6599 42.901C61.6999 42.101 62.6599 41.041 63.4999 39.761H60.4999V37.881H64.5599C64.8399 37.261 65.1199 36.641 65.3799 36.001ZM57.1199 36.221C58.3199 37.061 59.3599 37.921 60.1999 38.781L58.7199 40.261C57.9999 39.461 56.9599 38.581 55.6199 37.661L57.1199 36.221ZM56.6399 41.001C57.8799 41.961 58.9399 42.941 59.7799 43.901L58.2999 45.381C57.5599 44.481 56.5199 43.501 55.1599 42.441L56.6399 41.001ZM58.0999 46.421L59.9399 47.141C59.1799 49.681 58.3399 52.081 57.4199 54.321L55.4999 53.441C56.4999 51.161 57.3799 48.821 58.0999 46.421ZM65.1599 45.381H67.2599V54.181H65.1599V45.381ZM61.6999 45.381H63.6999C63.6199 48.021 63.3599 49.961 62.9199 51.201C62.4199 52.481 61.5999 53.621 60.4799 54.581L59.1599 52.901C60.0599 52.161 60.6999 51.281 61.0799 50.261C61.4199 49.301 61.6199 47.661 61.6999 45.381ZM70.8199 54.261C69.6199 54.261 69.0199 53.501 69.0199 52.001V45.381H71.0199V51.721C71.0199 52.121 71.1399 52.341 71.4199 52.341H73.4799V54.261H70.8199Z" fill="#009190"/>
<mask id="mask6" mask-type="alpha" maskUnits="userSpaceOnUse" x="52" y="163" width="47" height="49">
<path fill-rule="evenodd" clip-rule="evenodd" d="M52.2598 163.501H98.2598V211.501H52.2598V163.501Z" fill="white"/>
</mask>
<g mask="url(#mask6)">
<path fill-rule="evenodd" clip-rule="evenodd" d="M95.5372 205.892H93.446L93.4225 189.97H91.9937L92.0194 205.892H89.3397C89.4276 205.562 89.403 205.906 89.403 199.811C89.403 199.366 89.2443 198.956 88.9807 198.634C89.2443 198.312 89.403 197.902 89.403 197.457V191.848C89.403 190.813 88.5476 189.97 87.4951 189.97H82.6245C82.7124 189.637 82.6888 189.986 82.6888 183.887C82.6888 182.852 81.8324 182.009 80.7799 182.009H69.7397C68.6871 182.009 67.8307 182.852 67.8307 183.887C67.8307 190.007 67.8071 189.637 67.895 189.97H63.0245C61.973 189.97 61.1166 190.813 61.1166 191.848V197.457C61.1166 197.902 61.2752 198.312 61.5389 198.634C61.2752 198.956 61.1166 199.366 61.1166 199.811C61.1166 205.929 61.093 205.562 61.1798 205.892H58.5012V181.076L75.2598 169.737L92.0194 181.076V190.349H93.446V182.035C94.7526 182.838 96.4505 182.472 97.3112 181.239C98.2051 179.958 97.8728 178.199 96.5737 177.32L81.7059 167.258L80.8945 168.417L95.7645 178.48C96.9232 179.263 96.3529 181.055 94.9509 181.055C94.6615 181.055 94.3818 180.969 94.1417 180.806L75.6639 168.303C75.4195 168.139 75.0979 168.139 74.8557 168.303C73.428 169.268 57.2 180.252 56.3779 180.806C55.7262 181.247 54.8322 181.085 54.3853 180.443C53.9372 179.8 54.1034 178.919 54.7551 178.48L74.4484 165.152C74.9339 164.824 75.5856 164.824 76.0712 165.152L80.8967 168.417L81.7059 167.258L76.8793 163.993C75.9104 163.337 74.6091 163.337 73.6402 163.993L53.9469 177.318C52.6467 178.199 52.3155 179.958 53.2084 181.239C54.0755 182.483 55.784 182.827 57.0735 182.039V205.892H54.9823C53.4817 205.892 52.2598 207.097 52.2598 208.573V208.82C52.2598 210.299 53.4817 211.501 54.9823 211.501H95.5372C97.0378 211.501 98.2598 210.299 98.2598 208.82V208.573C98.2598 207.094 97.0378 205.892 95.5372 205.892V205.892ZM81.0082 202.891H82.9407C84.0447 202.891 84.943 202.008 84.943 200.919V199.337H87.4951C87.7598 199.337 87.9753 199.549 87.9753 199.811V205.42C87.9753 205.679 87.7598 205.892 87.4951 205.892H76.4538C76.1891 205.892 75.9736 205.679 75.9736 205.42V199.811C75.9736 199.549 76.1891 199.337 76.4538 199.337H79.007V200.919C79.007 202.008 79.9041 202.891 81.0082 202.891V202.891ZM80.4336 199.337H83.5152V200.919C83.5152 201.231 83.2569 201.484 82.9407 201.484H81.0082C80.6909 201.484 80.4336 201.231 80.4336 200.919V199.337ZM84.943 192.958V191.376H87.4951C87.7598 191.376 87.9753 191.589 87.9753 191.848V197.459C87.9753 197.718 87.7598 197.931 87.4951 197.931H76.4538C76.1891 197.931 75.9736 197.718 75.9736 197.459V191.848C75.9736 191.589 76.1891 191.376 76.4538 191.376H79.007V192.958C79.007 194.047 79.9041 194.932 81.0082 194.932H82.9407C84.0447 194.932 84.943 194.047 84.943 192.958V192.958ZM83.5152 191.376V192.958C83.5152 193.272 83.2569 193.523 82.9407 193.523H81.0082C80.6909 193.523 80.4336 193.272 80.4336 192.958V191.376H83.5152ZM73.7195 183.415H76.8011V184.997C76.8011 185.309 76.5428 185.564 76.2266 185.564H74.294C73.9767 185.564 73.7195 185.309 73.7195 184.997V183.415ZM69.2584 183.887C69.2584 183.628 69.4749 183.415 69.7397 183.415H72.2918V184.997C72.2918 186.084 73.1889 186.969 74.294 186.969H76.2266C77.3306 186.969 78.2288 186.084 78.2288 184.997V183.415H80.7799C81.0446 183.415 81.2611 183.628 81.2611 183.887V189.496C81.2611 189.757 81.0446 189.97 80.7799 189.97H69.7397C69.4749 189.97 69.2595 189.757 69.2595 189.496V183.887H69.2584ZM67.0043 191.376H70.0859V192.958C70.0859 193.272 69.8286 193.523 69.5114 193.523H67.5788C67.2615 193.523 67.0043 193.272 67.0043 192.958V191.376ZM62.5443 191.848C62.5443 191.589 62.7597 191.376 63.0245 191.376H65.5766V192.958C65.5766 194.047 66.4748 194.932 67.5799 194.932H69.5114C70.6154 194.932 71.5136 194.047 71.5136 192.958V191.376H74.0657C74.3305 191.376 74.5459 191.589 74.5459 191.848V197.459C74.5459 197.718 74.3305 197.931 74.0657 197.931H63.0245C62.7597 197.931 62.5443 197.718 62.5443 197.459V191.848ZM70.0859 199.337V200.919C70.0859 201.231 69.8286 201.484 69.5114 201.484H67.5788C67.2615 201.484 67.0043 201.231 67.0043 200.919V199.337H70.0859ZM62.5443 199.811C62.5443 199.549 62.7597 199.337 63.0245 199.337H65.5766V200.919C65.5766 202.008 66.4748 202.891 67.5799 202.891H69.5114C70.6154 202.891 71.5136 202.008 71.5136 200.919V199.337H74.0657C74.3305 199.337 74.5459 199.549 74.5459 199.811V205.42C74.5459 205.679 74.3305 205.892 74.0657 205.892H63.0245C62.7597 205.892 62.5443 205.679 62.5443 205.42V199.811ZM96.832 208.82C96.832 209.523 96.25 210.097 95.5372 210.097H54.9823C54.2684 210.097 53.6875 209.523 53.6875 208.82V208.573C53.6875 207.872 54.2684 207.298 54.9823 207.298H95.5372C96.25 207.298 96.832 207.872 96.832 208.573V208.82Z" fill="#009190"/>
</g>
<path fill-rule="evenodd" clip-rule="evenodd" d="M97.629 49.3768C97.2806 49.3768 96.9978 49.6585 96.9978 50.0027C96.9978 50.6925 96.4419 51.2521 95.7596 51.2521C95.0774 51.2521 94.5215 50.6925 94.5215 50.0027C94.5215 49.3117 95.0774 48.7508 95.7596 48.7508C96.108 48.7508 96.3909 48.4704 96.3909 48.1274C96.3909 47.7831 96.108 47.5015 95.7596 47.5015C94.3819 47.5015 93.2603 48.6231 93.2603 50.0027C93.2603 51.381 94.3819 52.5015 95.7596 52.5015C97.1386 52.5015 98.2603 51.381 98.2603 50.0027C98.2603 49.6585 97.9774 49.3768 97.629 49.3768" fill="#009190"/>
<path fill-rule="evenodd" clip-rule="evenodd" d="M135.629 49.3768C135.281 49.3768 134.998 49.6585 134.998 50.0027C134.998 50.6925 134.442 51.2521 133.76 51.2521C133.077 51.2521 132.523 50.6925 132.523 50.0027C132.523 49.3117 133.077 48.7508 133.76 48.7508C134.108 48.7508 134.391 48.4704 134.391 48.1274C134.391 47.7831 134.108 47.5015 133.76 47.5015C132.382 47.5015 131.26 48.6231 131.26 50.0027C131.26 51.381 132.382 52.5015 133.76 52.5015C135.139 52.5015 136.26 51.381 136.26 50.0027C136.26 49.6585 135.977 49.3768 135.629 49.3768" fill="#009190"/>
<mask id="mask7" mask-type="alpha" maskUnits="userSpaceOnUse" x="84" y="18" width="61" height="39">
<path fill-rule="evenodd" clip-rule="evenodd" d="M84.2603 18.499H144.965V56.5007H84.2603V18.499Z" fill="white"/>
</mask>
<g mask="url(#mask7)">
<path fill-rule="evenodd" clip-rule="evenodd" d="M143.671 40.1712H142.401C141.517 40.1712 140.796 40.8745 140.796 41.7388V42.6823C140.796 43.5491 141.517 44.2524 142.401 44.2524H143.671V46.766H139.526C139.474 46.766 139.422 46.7723 139.367 46.7849L139.164 46.8327L139.044 46.6603C137.846 44.9581 135.877 43.9404 133.777 43.9404C131.677 43.9404 129.709 44.9581 128.51 46.6603L128.391 46.8327L128.186 46.7861C128.133 46.7723 128.081 46.766 128.028 46.766H125.8V37.6551H143.671V40.1712ZM142.09 42.9968H143.671V41.4242H142.09V42.9968ZM133.777 55.2453C130.964 55.2453 128.674 52.9909 128.674 50.2206C128.674 47.4491 130.964 45.1934 133.777 45.1934C136.591 45.1934 138.879 47.4491 138.879 50.2206C138.879 52.9909 136.591 55.2453 133.777 55.2453V55.2453ZM127.647 48.4279C127.559 48.7198 127.491 49.0204 127.446 49.3236L127.407 49.5916H115.259V49.2771C115.259 48.994 115.211 48.7135 115.114 48.4442L114.961 48.0215H127.772L127.647 48.4279ZM101.197 46.766C101.145 46.766 101.093 46.7723 101.038 46.7861L100.835 46.8327L100.714 46.6603C99.5165 44.9581 97.547 43.9404 95.4482 43.9404C93.348 43.9404 91.3786 44.9581 90.181 46.6603L90.0602 46.8327L89.8573 46.7849C89.8025 46.7723 89.7503 46.766 89.6992 46.766H85.5537V41.4242H115.571C115.928 41.4242 116.218 41.1424 116.218 40.7977C116.218 40.453 115.928 40.1712 115.571 40.1712H85.5537V19.7541H124.505V46.766H101.197ZM113.965 51.1617C113.965 51.8561 113.396 52.4197 112.696 52.4197H106.946C106.246 52.4197 105.676 51.8561 105.676 51.1617V49.2771C105.676 48.5839 106.246 48.0215 106.946 48.0215H112.696C113.396 48.0215 113.965 48.5839 113.965 49.2771V51.1617ZM104.53 48.4442C104.431 48.7135 104.383 48.994 104.383 49.2771V49.5916H101.817L101.777 49.3224C101.734 49.0217 101.666 48.721 101.577 48.4279L101.452 48.0215H104.682L104.53 48.4442ZM95.4482 55.2453C92.6347 55.2453 90.3453 52.9909 90.3453 50.2206C90.3453 47.4491 92.6347 45.1934 95.4482 45.1934C98.2604 45.1934 100.55 47.4491 100.55 50.2206C100.55 52.9909 98.2604 55.2453 95.4482 55.2453V55.2453ZM125.8 33.8884L138.502 33.9073L141.919 35.1679C142.294 35.3553 142.599 35.5881 142.858 35.8749L143.336 36.4021H125.8V33.8884ZM125.8 23.5245H132.842C134.253 23.5245 135.477 24.4165 135.889 25.745L137.731 32.6329H125.8V23.5245ZM144.965 37.0286C144.965 36.8612 144.897 36.704 144.773 36.5832L144.699 36.4675C144.31 35.4132 143.526 34.5502 142.49 34.0381L139.11 32.7889L137.139 25.4242C136.561 23.5283 134.837 22.269 132.842 22.269H125.8V20.0686C125.8 19.2031 125.079 18.4985 124.194 18.4985H85.8649C84.9798 18.4985 84.2603 19.2031 84.2603 20.0686V46.4515C84.2603 47.3183 84.9798 48.0215 85.8649 48.0215H89.4415L89.317 48.4279C89.2299 48.7172 89.1614 49.0179 89.1166 49.3236L89.0768 49.5916H84.9076C84.5503 49.5916 84.2603 49.8747 84.2603 50.2206C84.2603 50.5666 84.5503 50.8471 84.9076 50.8471H89.078L89.1178 51.1164C89.566 54.1873 92.2874 56.5009 95.4482 56.5009C98.6077 56.5009 101.329 54.1873 101.777 51.1164L101.817 50.8471H104.383V51.1617C104.383 52.5481 105.533 53.6753 106.946 53.6753H112.696C114.109 53.6753 115.259 52.5481 115.259 51.1617V50.8471H127.408L127.447 51.1164C127.895 54.1873 130.617 56.5009 133.777 56.5009C136.938 56.5009 139.659 54.1873 140.106 51.1164L140.146 50.8471H144.318C144.674 50.8471 144.965 50.5666 144.965 50.2206C144.965 49.8747 144.674 49.5916 144.318 49.5916H140.146L140.106 49.3224C140.063 49.0179 139.996 48.7185 139.907 48.4291L139.781 48.0215H143.359C144.244 48.0215 144.965 47.3183 144.965 46.4515V37.9696C144.965 37.7633 144.95 37.562 144.922 37.3607L144.912 37.2877L144.935 37.2173C144.955 37.1569 144.965 37.094 144.965 37.0286V37.0286Z" fill="#009190"/>
</g>
<path fill-rule="evenodd" clip-rule="evenodd" d="M107.76 49.5015C107.629 49.5015 107.499 49.5565 107.403 49.6505C107.313 49.7425 107.26 49.8705 107.26 50.0015C107.26 50.1325 107.313 50.2595 107.404 50.3515C107.591 50.5405 107.929 50.5405 108.117 50.3515C108.207 50.2595 108.26 50.1325 108.26 50.0015C108.26 49.8705 108.207 49.7425 108.116 49.6485C108.022 49.5565 107.892 49.5015 107.76 49.5015" fill="#009190"/>
<path fill-rule="evenodd" clip-rule="evenodd" d="M118.865 41.4975H120.655C120.989 41.4975 121.26 41.2735 121.26 40.9995C121.26 40.7255 120.989 40.5015 120.655 40.5015H118.865C118.531 40.5015 118.26 40.7255 118.26 40.9995C118.26 41.2735 118.531 41.4975 118.865 41.4975" fill="#009190"/>
<defs>
<radialGradient id="paint0_radial" cx="0" cy="0" r="1" gradientUnits="userSpaceOnUse" gradientTransform="translate(214.861 191.501) rotate(-90) scale(98.0738 50.5206)">
<stop stop-color="#00DAD9"/>
<stop offset="0.521006" stop-color="#009696"/>
<stop offset="1" stop-color="#005055"/>
</radialGradient>
<radialGradient id="paint1_radial" cx="0" cy="0" r="1" gradientUnits="userSpaceOnUse" gradientTransform="translate(260.895 191.501) rotate(-90) scale(98.0738 50.5206)">
<stop stop-color="#00DAD9"/>
<stop offset="0.521006" stop-color="#009696"/>
<stop offset="1" stop-color="#005055"/>
</radialGradient>
</defs>
</svg>
