<?xml version="1.0" encoding="UTF-8" standalone="no"?>
<svg width="428px" height="340px" viewBox="0 0 428 340" version="1.1" xmlns="http://www.w3.org/2000/svg" xmlns:xlink="http://www.w3.org/1999/xlink">
    <!-- Generator: Sketch 49.3 (51167) - http://www.bohemiancoding.com/sketch -->
    <title>五環圖</title>
    <desc>Created with Sketch.</desc>
    <defs>
        <radialGradient cx="100%" cy="100%" fx="100%" fy="100%" r="224.931775%" gradientTransform="translate(1.000000,1.000000),scale(1.000000,0.515129),rotate(-90.000000),translate(-1.000000,-1.000000)" id="radialGradient-1">
            <stop stop-color="#00DAD9" offset="0%"></stop>
            <stop stop-color="#009696" offset="52.1006059%"></stop>
            <stop stop-color="#005055" offset="100%"></stop>
        </radialGradient>
        <path d="M32.7276889,0.357971429 C32.2515111,0.357971429 31.8516,0.6664 31.7083556,1.09188571 L28.3687556,1.26042857 L13.8639111,8.51214286 L14.2613778,13.9599143 C13.8692889,14.1022286 13.5867111,14.4611714 13.5573778,14.8924857 L7.25364444,16.2252857 L0.00537777778,37.7050286 L1.8876,40.7052857 C1.7776,40.8252571 1.69644444,40.97 1.65048889,41.1302857 L1.64315556,41.1555429 C1.62066667,41.2415143 1.60453333,41.3304 1.60453333,41.4231714 C1.60453333,41.7029429 1.71502222,41.9550286 1.89102222,42.1454286 L0,45.1991143 L4.0612,55.3199429 C3.91844444,55.4695429 3.82017778,55.6599429 3.78302222,55.8722 L3.7664,55.8746286 L3.78204444,55.8833714 C3.77275556,55.9392286 3.76444444,55.9955714 3.76444444,56.0543429 C3.76444444,56.6469143 4.24795556,57.1272857 4.84488889,57.1272857 C5.10546667,57.1272857 5.34111111,57.0320857 5.52786667,56.8795714 L11.0650222,60.0386571 C11.0444889,60.1222 11.0298222,60.2076857 11.0298222,60.2975429 C11.0298222,60.5928571 11.1505778,60.8609714 11.3451556,61.0552571 L9.69417778,63.9846 L17.7412889,73.9223143 L22.7421333,76.2153714 C22.7592444,76.6321143 23.0134667,76.9871714 23.3762222,77.1494 L23.4720444,77.1838857 C23.5233778,77.2013714 23.5752,77.2169143 23.6294667,77.2266286 L21.8064,80.9093143 L28.2377333,84.2194571 L36.6764444,84.2194571 C36.8050222,84.6692286 37.2171556,85 37.7104444,85 C38.2037333,85 38.6158667,84.6692286 38.7444444,84.2194571 L38.7586222,84.1738 C38.7776889,84.0941429 38.7904,84.0125429 38.7904,83.9270571 C38.7904,83.6438857 38.6779556,83.3884 38.4975556,83.1970286 L42.2600444,76.6981714 C42.3441333,76.7190571 42.4311556,76.7331429 42.5211111,76.7331429 C43.1175556,76.7331429 43.6015556,76.2527714 43.6015556,75.6602 C43.6015556,75.1701143 43.2681333,74.7606571 42.8159111,74.6329143 L42.8159111,68.6406571 C43.2681333,68.5129143 43.6015556,68.1034571 43.6015556,67.6128857 C43.6015556,67.1228 43.2681333,66.7133429 42.8159111,66.5856 L42.8159111,51.1559143 C43.2681333,51.0281714 43.6015556,50.6192 43.6015556,50.1286286 C43.6015556,49.6380571 43.2681333,49.2290857 42.8159111,49.1013429 L42.8159111,37.6219714 C43.2681333,37.4937429 43.6015556,37.0852571 43.6015556,36.5946857 C43.6015556,36.1041143 43.2681333,35.6951429 42.8159111,35.5669143 L42.8159111,26.3558286 C43.2681333,26.2280857 43.6015556,25.8191143 43.6015556,25.3285429 C43.6015556,24.8379714 43.2681333,24.429 42.8159111,24.3007714 L42.8159111,19.0404857 C43.2681333,18.9122571 43.6015556,18.5032857 43.6015556,18.0132 C43.6015556,17.5226286 43.2681333,17.1136571 42.8159111,16.9854286 L42.8159111,5.372 L40.2047556,3.05951429 C40.2072,3.02891429 40.2140444,2.9988 40.2140444,2.96722857 C40.2140444,2.37417143 39.7305333,1.8938 39.1340889,1.8938 C39.1003556,1.8938 39.0685778,1.90108571 39.0353333,1.904 L37.9402222,0.5134 L33.6844444,0.942771429 C33.5050222,0.596942857 33.1466667,0.357971429 32.7276889,0.357971429 Z M33.7988444,1.51931429 L37.6767111,1.12831429 L38.4657778,2.12985714 C38.2164444,2.32657143 38.0541333,2.62674286 38.0541333,2.96722857 C38.0541333,3.29022857 38.2008,3.57631429 38.4281333,3.77302857 L36.9800444,8.4048 L33.4170222,19.7957714 C33.4077333,19.7952857 33.3994222,19.7933429 33.3906222,19.7933429 C33.0136889,19.7933429 32.6827111,19.9852 32.4896,20.2756571 L24.4591111,17.7499429 L15.7065333,14.9964286 C15.7070222,14.9852571 15.7099556,14.9755429 15.7099556,14.9643714 C15.7099556,14.8274 15.6816,14.6967429 15.6341778,14.5758 L24.5451556,7.86322857 L32.0188,2.23428571 C32.2089778,2.39991429 32.4553778,2.50385714 32.7276889,2.50385714 C33.2933333,2.50385714 33.7528889,2.06962857 33.7988444,1.51931429 Z M14.8480444,13.9137714 L14.4799111,8.85845714 L28.4606667,1.84182857 L31.68,1.67911429 C31.6848889,1.70048571 31.6927111,1.7204 31.6990667,1.7408 L23.8108444,7.68205714 L15.2768,14.1104857 C15.1516444,14.0167429 15.0074222,13.9463143 14.8480444,13.9137714 Z M39.9715556,3.63702857 L42.2268,5.63477143 L42.2268,16.9854286 C41.7745778,17.1136571 41.4411556,17.5226286 41.4411556,18.0132 C41.4411556,18.0234 41.4440889,18.0321429 41.4440889,18.0423429 L34.2921333,20.2776 C34.2104889,20.1542286 34.1039111,20.0493143 33.9792444,19.9686857 L37.5838222,8.4456 L38.9673778,4.02317143 C39.0216444,4.03191429 39.0768889,4.03968571 39.1340889,4.03968571 C39.4738667,4.03968571 39.7735556,3.88085714 39.9715556,3.63702857 Z M0.651688889,37.6297429 L7.70488889,16.728 L13.6800889,15.4651429 C13.7451111,15.5870571 13.8321333,15.6939143 13.9377333,15.7818286 L2.83946667,40.3652857 C2.78813333,40.358 2.73777778,40.3502286 2.68497778,40.3502286 C2.58084444,40.3502286 2.48257778,40.3691714 2.38724444,40.3963714 L0.651688889,37.6297429 Z M16.9942667,18.5873143 L15.3921778,15.7245143 C15.444,15.6730286 15.4899556,15.6162 15.5305333,15.5554857 L23.9682667,18.2094286 L32.3136,20.8342286 C32.3136,20.8449143 32.3106667,20.8551143 32.3106667,20.8658 C32.3106667,20.9478857 32.3214222,21.0265714 32.3390222,21.1033143 L31.2536889,21.6929714 L22.3050667,26.5520571 C22.1090222,26.3543714 21.8367111,26.231 21.5355556,26.231 C21.4504889,26.231 21.3683556,26.2426571 21.2891556,26.2616 L16.9942667,18.5873143 Z M14.8759111,16.0072 L16.8637333,19.5592286 L20.7728889,26.5438 C20.5768444,26.7380857 20.4551111,27.0066857 20.4551111,27.3039429 C20.4551111,27.4404286 20.4834667,27.5701143 20.5304,27.6896 L3.42271111,40.5042 L14.4750222,16.0222571 C14.5263556,16.0295429 14.5767111,16.0378 14.63,16.0378 C14.7150667,16.0378 14.7967111,16.0251714 14.8759111,16.0072 Z M34.4510222,21.0576571 C34.4627556,20.9954857 34.4705778,20.9318571 34.4705778,20.8658 C34.4705778,20.8560857 34.4676444,20.8468571 34.4671556,20.8366571 L41.6196,18.6014 C41.7599111,18.8136571 41.9750222,18.9690857 42.2268,19.0404857 L42.2268,24.3007714 C42.0297778,24.3571143 41.8562222,24.4649429 41.7227556,24.6116286 L34.4510222,21.0576571 Z M34.1894667,21.5827143 L41.4607111,25.1362 C41.4494667,25.1988571 41.4411556,25.2624857 41.4411556,25.3285429 C41.4411556,25.8191143 41.7745778,26.2280857 42.2268,26.3558286 L42.2268,35.5669143 C41.7828889,35.6927143 41.4558222,36.0900286 41.4440889,36.5684571 L24.5989333,40.8825714 C24.5397778,40.7825143 24.4649778,40.6936286 24.3769778,40.6173714 L29.6667556,29.4299143 L33.2170667,21.9217429 C33.2737778,21.9309714 33.3314667,21.9392286 33.3906222,21.9392286 C33.7084,21.9392286 33.9914667,21.8003143 34.1894667,21.5827143 Z M23.8084,40.3638286 L21.9804444,28.2787714 C22.3544444,28.1102286 22.6150222,27.7381714 22.6150222,27.3039429 C22.6150222,27.2218571 22.6042667,27.1426857 22.5871556,27.0664286 L30.5814667,22.7251143 L32.6206222,21.6172 C32.6406667,21.6371143 32.6631556,21.6531429 32.6841778,21.6716 L29.0717778,29.3118857 L23.8445778,40.3672286 C23.8328444,40.3652857 23.8201333,40.3652857 23.8084,40.3638286 Z M3.68964444,41.0365429 L11.5118667,35.1778571 L20.8863111,28.1563714 C21.0324889,28.2666286 21.2065333,28.3385143 21.3976889,28.3628 L23.2256444,40.4478571 C22.9396444,40.5770571 22.7235556,40.8257429 22.6365333,41.1302857 L3.71897778,41.1302857 C3.71017778,41.0992 3.70186667,41.0671429 3.68964444,41.0365429 Z M24.4429778,42.1711714 C24.6268,41.9836857 24.7407111,41.7301429 24.7480444,41.4494 L41.5932,37.1348 C41.7320444,37.3703714 41.9569333,37.5457143 42.2268,37.6219714 L42.2268,49.1013429 C41.7745778,49.2290857 41.4411556,49.6380571 41.4411556,50.1286286 C41.4411556,50.3452571 41.5071556,50.5463429 41.6181333,50.7148857 L34.6578222,58.6704 C34.5184889,58.6053143 34.3644889,58.5659714 34.2002222,58.5659714 C34.1102667,58.5659714 34.0237333,58.5805429 33.9401333,58.6009429 L24.4429778,42.1711714 Z M5.00377778,42.4334571 L3.76982222,41.7160571 L22.6365333,41.7160571 C22.7387111,42.0711143 23.0183556,42.3494286 23.3762222,42.4504571 L23.3762222,52.6125714 C23.2046222,52.6611429 23.0501333,52.7476 22.9249778,52.8666 L5.00377778,42.4334571 Z M3.43053333,42.1964286 L4.16093333,42.6214286 L22.6287111,53.3727143 C22.6194222,53.4081714 22.6125778,53.4441143 22.6067111,53.4800571 L5.82657778,55.6128286 C5.65693333,55.2412571 5.28244444,54.9814 4.84488889,54.9814 C4.75053333,54.9814 4.66155556,54.9969429 4.57453333,55.0192857 L0.657066667,45.2554571 L2.3936,42.4514286 C2.48697778,42.4771714 2.58328889,42.4961143 2.68497778,42.4961143 C2.97488889,42.4961143 3.23644444,42.381 3.43053333,42.1964286 Z M24.7157778,53.8982571 C24.7363111,53.8152 24.7509778,53.7292286 24.7509778,53.6403429 C24.7509778,53.5490286 24.7358222,53.4620857 24.7143111,53.3775714 L24.6639556,53.2187429 C24.5368444,52.9244 24.2796889,52.7014571 23.9653333,52.6125714 L23.9653333,42.5204 L33.4033333,58.8476857 L24.7157778,53.8982571 Z M35.1491556,60.1416286 C35.2303111,59.9910571 35.2806667,59.8220286 35.2806667,59.6389143 C35.2806667,59.4222857 35.2146667,59.2216857 35.1036889,59.0531429 L36.5356444,57.4162857 L42.064,51.0976286 C42.1158222,51.1219143 42.1705778,51.1403714 42.2268,51.1559143 L42.2268,66.5856 C42.1397778,66.6103714 42.0576444,66.6448571 41.9813778,66.6890571 L35.1491556,60.1416286 Z M5.86324444,56.3962857 C5.88573333,56.3307143 5.90186667,56.2632 5.91115556,56.1922857 L22.2591111,54.1144 L12.8597333,59.5272 C12.6651556,59.3406857 12.4016444,59.2241143 12.1102667,59.2241143 C11.8164444,59.2241143 11.5514667,59.3416571 11.3568889,59.5301143 L5.86324444,56.3962857 Z M23.9653333,75.1137714 L23.9653333,54.6676286 C24.1403556,54.6180857 24.2982667,54.5296857 24.4244,54.4068 L33.1554667,59.381 C33.1344444,59.4640571 33.1207556,59.5495429 33.1207556,59.6389143 C33.1207556,59.9148 33.2283111,60.1639714 33.4008889,60.3543714 L24.0719111,75.1322286 C24.0372,75.1239714 24.0015111,75.1191143 23.9653333,75.1137714 Z M13.1897333,60.2975429 C13.1897333,60.2067143 13.1755556,60.1197714 13.1540444,60.0347714 L22.9210667,54.4106857 C23.0467111,54.5311429 23.2031556,54.6185714 23.3762222,54.6676286 L23.3762222,75.1953714 C23.1694222,75.2881429 23.0002667,75.4435714 22.8868444,75.6373714 L18.1133333,73.4482571 L10.4025778,63.9258286 L11.8604444,61.3389143 C11.9411111,61.3578571 12.0237333,61.37 12.1102667,61.37 C12.7067111,61.37 13.1897333,60.8896286 13.1897333,60.2975429 Z M36.7678667,74.6013429 L35.0215556,63.0899143 L34.6465778,60.6142286 C34.6788444,60.5991714 34.7096444,60.5812 34.7404444,60.5632286 L35.5084889,61.2990857 L41.5726667,67.1106571 C41.4915111,67.2612286 41.4411556,67.4302571 41.4411556,67.6128857 C41.4411556,68.1034571 41.7745778,68.5129143 42.2268,68.6401714 L42.2268,74.6329143 C41.8684444,74.7339429 41.5892889,75.0122571 41.4871111,75.3678 L37.6644889,75.3678 C37.5476444,74.9607714 37.1995556,74.6562286 36.7678667,74.6013429 Z M24.5862222,75.4192857 L33.9005333,60.6647429 C33.9533333,60.6798 34.0076,60.6909714 34.0628444,60.6982571 L34.1288444,61.1286 L36.1846222,74.6853714 C35.8824889,74.8218571 35.6556444,75.0924 35.5798667,75.4207429 L24.8766222,75.9642571 C24.8355556,75.7539429 24.7319111,75.5659714 24.5862222,75.4192857 Z M37.5960444,76.1323143 L41.4983556,75.99 C41.5506667,76.1483429 41.6342667,76.2916286 41.7486667,76.4082 L37.9920444,82.8954 C37.9020889,82.8711143 37.8087111,82.8541143 37.7104444,82.8541143 C37.422,82.8541143 37.1609333,82.9682571 36.9673333,83.1513714 L25.4452,76.5738286 L35.7025778,76.2008 C35.8898222,76.5179714 36.2330222,76.7331429 36.6304889,76.7331429 C37.0558222,76.7331429 37.4195556,76.4868857 37.5960444,76.1323143 Z M22.5896,80.6533429 L24.3471556,77.1022857 C24.4776889,77.0289429 24.5911111,76.9308286 24.6805778,76.8123143 L36.6309778,83.6341714 L28.3819556,83.6341714 L22.5896,80.6533429 Z" id="path-2"></path>
        <path d="M10.9076,0.357971429 C10.4891111,0.357971429 10.1302667,0.596942857 9.95084444,0.942771429 L5.69457778,0.5134 L4.59995556,1.904 C4.5672,1.90108571 4.53493333,1.8938 4.50168889,1.8938 C3.90475556,1.8938 3.42124444,2.37417143 3.42124444,2.96722857 C3.42124444,2.9988 3.42808889,3.02891429 3.43053333,3.05951429 L0.819377778,5.372 L0.819377778,16.9854286 C0.367155556,17.1136571 0.0342222222,17.5226286 0.0342222222,18.0132 C0.0342222222,18.5032857 0.367155556,18.9122571 0.819377778,19.0404857 L0.819377778,24.3007714 C0.367155556,24.429 0.0342222222,24.8379714 0.0342222222,25.3285429 C0.0342222222,25.8191143 0.367155556,26.2280857 0.819377778,26.3558286 L0.819377778,35.5669143 C0.367155556,35.6951429 0.0342222222,36.1041143 0.0342222222,36.5946857 C0.0342222222,37.0852571 0.367155556,37.4937429 0.819377778,37.6219714 L0.819377778,49.1013429 C0.367155556,49.2290857 0.0342222222,49.6380571 0.0342222222,50.1286286 C0.0342222222,50.6192 0.367155556,51.0281714 0.819377778,51.1559143 L0.819377778,66.5856 C0.367155556,66.7133429 0.0342222222,67.1228 0.0342222222,67.6128857 C0.0342222222,68.1034571 0.367155556,68.5129143 0.819377778,68.6406571 L0.819377778,74.6329143 C0.367155556,74.7606571 0.0342222222,75.1701143 0.0342222222,75.6602 C0.0342222222,76.2527714 0.517733333,76.7331429 1.11417778,76.7331429 C1.20462222,76.7331429 1.29115556,76.7190571 1.37475556,76.6981714 L5.13773333,83.1970286 C4.95733333,83.3884 4.84537778,83.6438857 4.84537778,83.9270571 C4.84537778,84.0125429 4.8576,84.0941429 4.87666667,84.1738 L4.89084444,84.2194571 C5.01991111,84.6692286 5.43106667,85 5.92484444,85 C6.41862222,85 6.83026667,84.6692286 6.95884444,84.2194571 L15.3975556,84.2194571 L21.8288889,80.9093143 L20.0058222,77.2266286 C20.0605778,77.2169143 20.1119111,77.2013714 20.1632444,77.1838857 L20.2590667,77.1494 C20.6223111,76.9871714 20.8760444,76.6321143 20.8926667,76.2153714 L25.8944889,73.9223143 L33.9411111,63.9846 L32.2896444,61.0552571 C32.4847111,60.8609714 32.6049778,60.5928571 32.6049778,60.2975429 C32.6049778,60.2076857 32.5912889,60.1222 32.5697778,60.0386571 L38.1079111,56.8795714 C38.2941778,57.0320857 38.5303111,57.1272857 38.7908889,57.1272857 C39.3868444,57.1272857 39.8703556,56.6469143 39.8703556,56.0543429 C39.8703556,55.9955714 39.8620444,55.9392286 39.8532444,55.8833714 L39.8693778,55.8746286 L39.8522667,55.8722 C39.8156,55.6599429 39.7168444,55.4695429 39.5745778,55.3199429 L43.6357778,45.1991143 L41.7437778,42.1454286 C41.9202667,41.9550286 42.0302667,41.7029429 42.0302667,41.4231714 C42.0302667,41.3304 42.0151111,41.2415143 41.9926222,41.1555429 L41.9848,41.1302857 C41.9383556,40.97 41.8581778,40.8252571 41.7481778,40.7052857 L43.6304,37.7050286 L36.3821333,16.2252857 L30.0784,14.8924857 C30.0490667,14.4611714 29.7664889,14.1022286 29.3744,13.9599143 L29.7713778,8.51214286 L15.2670222,1.26042857 L11.9274222,1.09188571 C11.7841778,0.6664 11.3842667,0.357971429 10.9076,0.357971429 Z M6.65524444,8.4048 L5.20666667,3.77302857 C5.43448889,3.57631429 5.58115556,3.29022857 5.58115556,2.96722857 C5.58115556,2.62674286 5.41835556,2.32657143 5.16951111,2.12985714 L5.95857778,1.12831429 L9.83644444,1.51931429 C9.88288889,2.06962857 10.3414667,2.50385714 10.9076,2.50385714 C11.1804,2.50385714 11.4263111,2.39991429 11.6164889,2.23428571 L19.0896444,7.86322857 L28.0016,14.5758 C27.9541778,14.6967429 27.9253333,14.8274 27.9253333,14.9643714 C27.9253333,14.9755429 27.9282667,14.9852571 27.9287556,14.9964286 L19.1761778,17.7499429 L11.1456889,20.2756571 C10.9525778,19.9852 10.6216,19.7933429 10.2446667,19.7933429 C10.2358667,19.7933429 10.2270667,19.7952857 10.2182667,19.7957714 L6.65524444,8.4048 Z M19.8239556,7.68205714 L11.9362222,1.7408 C11.9425778,1.7204 11.9504,1.70048571 11.9557778,1.67911429 L15.1751111,1.84182857 L29.1553778,8.85845714 L28.7867556,13.9137714 C28.6278667,13.9463143 28.4836444,14.0167429 28.3589778,14.1104857 L19.8239556,7.68205714 Z M2.1912,18.0423429 C2.19168889,18.0321429 2.19413333,18.0234 2.19413333,18.0132 C2.19413333,17.5226286 1.8612,17.1136571 1.40897778,16.9854286 L1.40897778,5.63477143 L3.66422222,3.63702857 C3.86173333,3.88085714 4.16142222,4.03968571 4.50168889,4.03968571 C4.5584,4.03968571 4.61315556,4.03191429 4.6684,4.02317143 L6.05146667,8.4456 L9.65555556,19.9686857 C9.53137778,20.0493143 9.4248,20.1542286 9.34315556,20.2776 L2.1912,18.0423429 Z M29.6975556,15.7818286 C29.8026667,15.6939143 29.8901778,15.5870571 29.9556889,15.4651429 L35.9304,16.728 L42.9836,37.6297429 L41.2475556,40.3963714 C41.1527111,40.3691714 41.0544444,40.3502286 40.9508,40.3502286 C40.8975111,40.3502286 40.8466667,40.358 40.7958222,40.3652857 L29.6975556,15.7818286 Z M12.3820889,21.6929714 L11.2962667,21.1033143 C11.3138667,21.0265714 11.3246222,20.9478857 11.3246222,20.8658 C11.3246222,20.8551143 11.3221778,20.8449143 11.3216889,20.8342286 L19.6670222,18.2094286 L28.1047556,15.5554857 C28.1453333,15.6162 28.1917778,15.6730286 28.2436,15.7245143 L26.6410222,18.5873143 L22.3466222,26.2616 C22.2669333,26.2426571 22.1852889,26.231 22.1002222,26.231 C21.7985778,26.231 21.5262667,26.3543714 21.3307111,26.5520571 L12.3820889,21.6929714 Z M23.1053778,27.6896 C23.1518222,27.5701143 23.1801778,27.4404286 23.1801778,27.3039429 C23.1801778,27.0066857 23.0584444,26.7380857 22.8624,26.5438 L26.7710667,19.5592286 L28.7593778,16.0072 C28.8385778,16.0251714 28.9207111,16.0378 29.0057778,16.0378 C29.0585778,16.0378 29.1089333,16.0295429 29.1597778,16.0222571 L40.2125778,40.5042 L23.1053778,27.6896 Z M1.40897778,24.3007714 L1.40897778,19.0404857 C1.66026667,18.9690857 1.87537778,18.8136571 2.01617778,18.6014 L9.16764444,20.8366571 C9.16764444,20.8468571 9.16471111,20.8560857 9.16471111,20.8658 C9.16471111,20.9318571 9.17302222,20.9954857 9.18426667,21.0576571 L1.91253333,24.6116286 C1.77906667,24.4649429 1.606,24.3571143 1.40897778,24.3007714 Z M2.19168889,36.5684571 C2.17946667,36.0900286 1.85288889,35.6927143 1.40897778,35.5669143 L1.40897778,26.3558286 C1.8612,26.2280857 2.19413333,25.8191143 2.19413333,25.3285429 C2.19413333,25.2624857 2.18582222,25.1988571 2.17506667,25.1362 L9.44631111,21.5827143 C9.64382222,21.8003143 9.92688889,21.9392286 10.2446667,21.9392286 C10.3043111,21.9392286 10.3615111,21.9309714 10.4182222,21.9217429 L13.9685333,29.4299143 L19.2583111,40.6173714 C19.1703111,40.6936286 19.096,40.7825143 19.0363556,40.8825714 L2.19168889,36.5684571 Z M14.564,29.3118857 L10.9516,21.6716 C10.9721333,21.6531429 10.9951111,21.6371143 11.0141778,21.6172 L13.0543111,22.7251143 L21.0486222,27.0664286 C21.0310222,27.1426857 21.0197778,27.2218571 21.0197778,27.3039429 C21.0197778,27.7381714 21.2808444,28.1102286 21.6548444,28.2787714 L19.8273778,40.3638286 C19.8151556,40.3652857 19.8029333,40.3652857 19.7912,40.3672286 L14.564,29.3118857 Z M20.4096444,40.4478571 L22.2380889,28.3628 C22.4282667,28.3385143 22.6028,28.2666286 22.7489778,28.1563714 L32.1234222,35.1778571 L39.9456444,41.0365429 C39.9339111,41.0671429 39.9256,41.0992 39.9163111,41.1302857 L20.9987556,41.1302857 C20.9112444,40.8257429 20.6956444,40.5770571 20.4096444,40.4478571 Z M2.01715556,50.7148857 C2.12813333,50.5463429 2.19413333,50.3452571 2.19413333,50.1286286 C2.19413333,49.6380571 1.8612,49.2290857 1.40897778,49.1013429 L1.40897778,37.6219714 C1.67835556,37.5457143 1.90324444,37.3703714 2.04257778,37.1348 L18.8872444,41.4494 C18.8945778,41.7301429 19.0084889,41.9836857 19.1923111,42.1711714 L9.69515556,58.6009429 C9.61106667,58.5805429 9.52502222,58.5659714 9.43506667,58.5659714 C9.2708,58.5659714 9.1168,58.6053143 8.97746667,58.6704 L2.01715556,50.7148857 Z M20.2590667,52.6125714 L20.2590667,42.4504571 C20.6174222,42.3494286 20.8965778,42.0711143 20.9987556,41.7160571 L39.8649778,41.7160571 L38.632,42.4334571 L20.7103111,52.8666 C20.5851556,52.7476 20.4301778,52.6611429 20.2590667,52.6125714 Z M21.0285778,53.4800571 C21.0232,53.4441143 21.0158667,53.4081714 21.0065778,53.3727143 L39.4743556,42.6214286 L40.2047556,42.1964286 C40.3988444,42.381 40.6608889,42.4961143 40.9508,42.4961143 C41.0524889,42.4961143 41.1488,42.4771714 41.2421778,42.4514286 L42.9782222,45.2554571 L39.0607556,55.0192857 C38.9737333,54.9969429 38.8842667,54.9814 38.7908889,54.9814 C38.3533333,54.9814 37.9783556,55.2412571 37.8087111,55.6128286 L21.0285778,53.4800571 Z M19.6699556,42.5204 L19.6699556,52.6125714 C19.3560889,52.7014571 19.0984444,52.9244 18.9713333,53.2187429 L18.9209778,53.3775714 C18.8994667,53.4620857 18.8848,53.5490286 18.8848,53.6403429 C18.8848,53.7292286 18.8989778,53.8152 18.9195111,53.8982571 L10.2319556,58.8476857 L19.6699556,42.5204 Z M1.40897778,66.5856 L1.40897778,51.1559143 C1.4652,51.1403714 1.51946667,51.1219143 1.57177778,51.0976286 L7.10013333,57.4162857 L8.53208889,59.0531429 C8.42062222,59.2216857 8.35511111,59.4222857 8.35511111,59.6389143 C8.35511111,59.8220286 8.40546667,59.9910571 8.48613333,60.1416286 L1.6544,66.6890571 C1.57764444,66.6448571 1.496,66.6103714 1.40897778,66.5856 Z M21.3766667,54.1144 L37.7246222,56.1922857 C37.7339111,56.2632 37.7495556,56.3307143 37.7715556,56.3962857 L32.2788889,59.5301143 C32.0838222,59.3416571 31.8188444,59.2241143 31.5255111,59.2241143 C31.2336444,59.2241143 30.9696444,59.3406857 30.7755556,59.5272 L21.3766667,54.1144 Z M10.2344,60.3543714 C10.4069778,60.1639714 10.5150222,59.9148 10.5150222,59.6389143 C10.5150222,59.5495429 10.5003556,59.4640571 10.4798222,59.381 L19.2108889,54.4068 C19.3375111,54.5296857 19.4954222,54.6180857 19.6699556,54.6676286 L19.6699556,75.1137714 C19.6337778,75.1191143 19.5985778,75.1239714 19.5633778,75.1322286 L10.2344,60.3543714 Z M20.2590667,75.1953714 L20.2590667,54.6676286 C20.4321333,54.6185714 20.5885778,54.5311429 20.7142222,54.4106857 L30.4817333,60.0347714 C30.4602222,60.1197714 30.4450667,60.2067143 30.4450667,60.2975429 C30.4450667,60.8896286 30.9285778,61.37 31.5255111,61.37 C31.6115556,61.37 31.6941778,61.3578571 31.7748444,61.3389143 L33.2332,63.9258286 L25.5219556,73.4482571 L20.7479556,75.6373714 C20.6355111,75.4435714 20.4658667,75.2881429 20.2590667,75.1953714 Z M1.40897778,74.6329143 L1.40897778,68.6401714 C1.8612,68.5129143 2.19413333,68.1034571 2.19413333,67.6128857 C2.19413333,67.4302571 2.14377778,67.2612286 2.06311111,67.1106571 L8.12728889,61.2990857 L8.89484444,60.5632286 C8.92564444,60.5812 8.95644444,60.5991714 8.9892,60.6142286 L8.61324444,63.0899143 L6.86791111,74.6013429 C6.43622222,74.6562286 6.08715556,74.9607714 5.9708,75.3678 L2.14866667,75.3678 C2.04648889,75.0122571 1.76684444,74.7339429 1.40897778,74.6329143 Z M8.05591111,75.4207429 C7.98013333,75.0924 7.75328889,74.8218571 7.45066667,74.6853714 L9.50693333,61.1286 L9.57195556,60.6982571 C9.62817778,60.6909714 9.68146667,60.6798 9.73426667,60.6647429 L19.0490667,75.4192857 C18.9033778,75.5659714 18.8002222,75.7539429 18.7581778,75.9642571 L8.05591111,75.4207429 Z M1.88711111,76.4082 C2.00102222,76.2916286 2.08511111,76.1483429 2.13644444,75.99 L6.03924444,76.1323143 C6.21524444,76.4868857 6.57946667,76.7331429 7.00528889,76.7331429 C7.40226667,76.7331429 7.74497778,76.5179714 7.9332,76.2008 L18.1905778,76.5738286 L6.66746667,83.1513714 C6.47386667,82.9682571 6.21377778,82.8541143 5.92484444,82.8541143 C5.82706667,82.8541143 5.73368889,82.8711143 5.64275556,82.8954 L1.88711111,76.4082 Z M18.9552,76.8123143 C19.0441778,76.9308286 19.1576,77.0289429 19.2876444,77.1022857 L21.0461778,80.6533429 L15.2538222,83.6341714 L7.00431111,83.6341714 L18.9552,76.8123143 Z" id="path-4"></path>
        <polygon id="path-6" points="0.181673684 0.9495 21.1453579 0.9495 21.1453579 17.5275 0.181673684 17.5275"></polygon>
        <polygon id="path-8" points="0.00023 0.983383333 45.9977 0.983383333 45.9977 27.9998833 0.00023 27.9998833"></polygon>
        <polygon id="path-10" points="0 4.33925049e-05 43.9132584 4.33925049e-05 43.9132584 43.913215 0 43.913215"></polygon>
        <polygon id="path-12" points="0 43.913215 43.9133018 43.913215 43.9133018 0 0 0"></polygon>
        <polygon id="path-14" points="0 0 46 0 46 48 0 48"></polygon>
        <polygon id="path-16" points="0.000124489796 0.997645161 60.7049592 0.997645161 60.7049592 38.999371 0.000124489796 38.999371"></polygon>
    </defs>
    <g id="design" stroke="none" stroke-width="1" fill="none" fill-rule="evenodd">
        <g id="解決方案-供應鏈大腦" transform="translate(-120.000000, -861.000000)">
            <g id="01" transform="translate(0.000000, 800.000000)">
                <g id="五環圖" transform="translate(120.000000, 60.000000)">
                    <g>
                        <g id="Group-42" transform="translate(66.000000, 0.941000)" stroke="#4BC8C8">
                            <path d="M273.443623,70.067323 C285.880912,90.0096106 293.68479,113.139956 295.348955,137.952057 C295.570861,141.260592 295.6836,144.599031 295.6836,147.9638 M268.706621,232.987359 C252.978321,255.224688 231.245991,272.913896 205.870024,283.694729 M88.7075694,282.837329 C65.2188236,272.447815 44.9531383,256.102393 29.8255271,235.715965 M0.8716,147.9638 C0.8716,144.385897 0.999073327,140.837766 1.24972611,137.323702 C2.81296057,115.407702 9.16736365,94.8167474 19.2713298,76.5924429 M87.2902277,13.7263451 C105.875885,5.2688885 126.526582,0.5578 148.2776,0.5578 C168.672756,0.5578 188.100495,4.69985799 205.765493,12.1886504" id="Stroke-1"></path>
                        </g>
                        <g id="Group-93" transform="translate(108.178986, 42.867250)">
                            <path d="M172.706191,104.995072 C172.706191,142.461721 142.330543,172.83737 104.860703,172.83737 C67.392458,172.83737 37.0168098,142.461721 37.0168098,104.995072 C37.0168098,67.5252317 67.392458,37.1511788 104.860703,37.1511788 C142.330543,37.1511788 172.706191,67.5252317 172.706191,104.995072 Z" id="Stroke-57" stroke="#009190" stroke-width="0.9"></path>
                            <path d="M160.051703,104.995085 C160.051703,135.473909 135.342914,160.18432 104.860846,160.18432 C74.3804005,160.18432 49.6716113,135.473909 49.6716113,104.995085 C49.6716113,74.5146396 74.3804005,49.8042282 104.860846,49.8042282 C135.342914,49.8042282 160.051703,74.5146396 160.051703,104.995085 Z" id="Stroke-59" stroke="#009190" stroke-width="0.75"></path>
                            <g id="outer-circles">
                                <path d="M133.759532,205.881334 C133.759532,209.130101 131.128533,211.762668 127.879766,211.762668 C124.634135,211.762668 122,209.130101 122,205.881334 C122,202.637271 124.634135,200 127.879766,200 C131.128533,200 133.759532,202.637271 133.759532,205.881334" id="Fill-43" fill="#009190"></path>
                                <path d="M160.07799,14.036334 C160.07799,17.2851006 157.446991,19.9176678 154.198224,19.9176678 C150.949458,19.9176678 148.318458,17.2851006 148.318458,14.036334 C148.318458,10.7922711 150.949458,8.15500012 154.198224,8.15500012 C157.446991,8.15500012 160.07799,10.7922711 160.07799,14.036334" id="Fill-45" fill="#009190"></path>
                                <path d="M14.387334,144.318814 C14.387334,147.566013 11.7531989,150.19858 8.50756811,150.19858 C5.25880146,150.19858 2.62466633,147.566013 2.62466633,144.318814 C2.62466633,141.073183 5.25880146,138.43748 8.50756811,138.43748 C11.7531989,138.43748 14.387334,141.073183 14.387334,144.318814" id="Fill-47" fill="#009190"></path>
                                <path d="M212.432367,133.107709 C212.432367,136.356475 209.798231,138.989042 206.549465,138.989042 C203.303834,138.989042 200.669699,136.356475 200.669699,133.107709 C200.669699,129.863646 203.303834,127.226375 206.549465,127.226375 C209.798231,127.226375 212.432367,129.863646 212.432367,133.107709" id="Fill-49" fill="#009190"></path>
                                <path d="M32.0597036,35.7990017 C32.0597036,39.0477683 29.4287044,41.6803355 26.1799377,41.6803355 C22.9311711,41.6803355 20.2970359,39.0477683 20.2970359,35.7990017 C20.2970359,32.5549388 22.9311711,29.9176678 26.1799377,29.9176678 C29.4287044,29.9176678 32.0597036,32.5549388 32.0597036,35.7990017" id="Fill-51" fill="#009190"></path>
                                <path d="M209.05158,104.995058 C209.05158,162.536799 162.402301,209.18451 104.86056,209.18451 C47.3188187,209.18451 0.672675806,162.536799 0.672675806,104.995058 C0.672675806,47.4517492 47.3188187,0.804038389 104.86056,0.804038389 C162.402301,0.804038389 209.05158,47.4517492 209.05158,104.995058 Z" id="Stroke-53" stroke="#009190"></path>
                                <path d="M188.211964,104.995058 C188.211964,151.028138 150.893482,188.34662 104.860403,188.34662 C58.8273237,188.34662 21.5088415,151.028138 21.5088415,104.995058 C21.5088415,58.960411 58.8273237,21.6419288 104.860403,21.6419288 C150.893482,21.6419288 188.211964,58.960411 188.211964,104.995058 Z" id="Stroke-55" stroke="#009190"></path>
                                <path d="M124.725858,38.3133386 C124.725858,41.5621053 122.094859,44.1946725 118.846093,44.1946725 C115.597326,44.1946725 112.963191,41.5621053 112.963191,38.3133386 C112.963191,35.0692758 115.597326,32.4320048 118.846093,32.4320048 C122.094859,32.4320048 124.725858,35.0692758 124.725858,38.3133386" id="Fill-85" fill="#7EC7C5"></path>
                                <path d="M57.3964239,171.675367 C57.3964239,174.924133 54.7654246,177.556701 51.516658,177.556701 C48.2678913,177.556701 45.6337562,174.924133 45.6337562,171.675367 C45.6337562,168.431304 48.2678913,165.794033 51.516658,165.794033 C54.7654246,165.794033 57.3964239,168.431304 57.3964239,171.675367" id="Fill-87" fill="#7EC7C5"></path>
                                <path d="M158.023051,131.642471 C158.023051,134.891238 155.392052,137.523805 152.143285,137.523805 C148.897655,137.523805 146.263519,134.891238 146.263519,131.642471 C146.263519,128.398408 148.897655,125.761137 152.143285,125.761137 C155.392052,125.761137 158.023051,128.398408 158.023051,131.642471" id="Fill-89" fill="#7EC7C5"></path>
                                <path d="M46.7626677,83.8813338 C46.7626677,87.1301005 44.1316684,89.7626677 40.8829018,89.7626677 C37.6341351,89.7626677 35,87.1301005 35,83.8813338 C35,80.637271 37.6341351,78 40.8829018,78 C44.1316684,78 46.7626677,80.637271 46.7626677,83.8813338" id="Fill-91" fill="#7EC7C5"></path>
                            </g>
                        </g>
                        <g id="SC" transform="translate(169.000000, 107.000000)">
                            <g id="Group-3">
                                <mask id="mask-3" fill="white">
                                    <use xlink:href="#path-2"></use>
                                </mask>
                                <use id="Clip-2" fill="url(#radialGradient-1)" xlink:href="#path-2"></use>
                            </g>
                            <g id="Group-6" transform="translate(46.000000, 0.000000)">
                                <mask id="mask-5" fill="white">
                                    <use xlink:href="#path-4"></use>
                                </mask>
                                <use id="Clip-5" fill="url(#radialGradient-1)" xlink:href="#path-4"></use>
                            </g>
                            <g id="Group-15" transform="translate(11.000000, 25.000000)" fill="#006464">
                                <path d="M0.293308318,33.9573239 L0.293308318,26.734975 L15.2575885,26.734975 C16.1855895,26.734975 16.9724878,26.5208407 17.5955591,26.0976345 C18.1615552,25.7129015 18.4485167,24.9763404 18.4485167,23.9071877 C18.4485167,22.826898 18.1631406,22.1110922 17.5770625,21.7197783 C16.9376085,21.2955596 16.1565234,21.0804129 15.2575885,21.0804129 L10.9394245,21.0804129 C9.40156405,21.0804129 7.98789511,20.9047519 6.73752476,20.557986 C5.45491747,20.2036267 4.34406435,19.6204525 3.43561691,18.8236503 C2.52505557,18.0268481 1.81425755,16.9683262 1.32436181,15.6789646 C0.842393186,14.4128894 0.597709554,12.8491524 0.597709554,11.0302767 C0.597709554,9.15267854 0.842393186,7.55856788 1.32436181,6.29148024 C1.81425755,5.00262481 2.5245271,3.94410293 3.43614538,3.14578203 C4.34670672,2.34847358 5.46178764,1.77947378 6.75020814,1.45447567 C8.00216392,1.14010834 9.41107659,0.980646652 10.9394245,0.980646652 L26.4025845,0.980646652 L26.4025845,8.20400805 L11.7907967,8.20400805 C10.8791784,8.20400805 10.1287448,8.41257381 9.49721791,8.84134858 C8.93175033,9.22608154 8.64531723,9.96213645 8.64531723,11.0302767 C8.64531723,12.0994293 8.93227881,12.8359904 9.49880333,13.2202172 C10.1319156,13.6494982 10.8839346,13.8580639 11.7987238,13.8580639 L16.1327421,13.8580639 C17.6706025,13.8580639 19.0847999,14.0256253 20.3367557,14.3556857 C21.6251762,14.6948581 22.7418425,15.279551 23.6550462,16.0935649 C24.5666645,16.9070727 25.2769341,17.9721755 25.7673583,19.259006 C26.2503838,20.5286248 26.4955959,22.0923618 26.4955959,23.9071877 C26.4955959,25.785292 26.2493269,27.3804152 25.7636589,28.6485153 C25.2690069,29.9393956 24.5529242,30.9913365 23.6344357,31.7744706 C22.7207035,32.5540611 21.6029803,33.121036 20.3135028,33.4597022 C19.0583762,33.7897626 17.6436503,33.9573239 16.1089607,33.9573239 L0.293308318,33.9573239 Z" id="Fill-7"></path>
                                <path d="M52.5034384,33.9573239 C50.678088,33.9573239 48.9314802,33.6621933 47.3122347,33.0800315 C45.6697364,32.4912889 44.2174888,31.5228755 42.9956561,30.2021277 C41.7833359,28.8930232 40.8114715,27.1738743 40.1075437,25.0902416 C39.409429,23.0258455 39.0553512,20.4612965 39.0553512,17.4689853 C39.0553512,14.4776865 39.409429,11.9055441 40.1070152,9.825455 C40.812,7.72663544 41.7849213,6.00546165 42.9982985,4.71053149 C44.2174888,3.40851415 45.6686794,2.44921287 47.3122347,1.85793906 C48.9335941,1.27577733 50.6796734,0.980646652 52.5034384,0.980646652 L64.2397972,0.980646652 L64.2397972,8.20400805 L53.316232,8.20400805 C52.4146548,8.20400805 51.5553554,8.34676423 50.7621154,8.62873299 C49.9995269,8.90007098 49.3188519,9.37896227 48.739644,10.0512325 C48.1472242,10.7412207 47.6705404,11.6929286 47.3222757,12.879526 C46.9666125,14.0914349 46.7864027,15.6359352 46.7864027,17.4689853 C46.7864027,19.3020354 46.966084,20.8379299 47.3217473,22.0336394 C47.6705404,23.2101123 48.1488097,24.1633389 48.7433433,24.8685139 C49.3220228,25.553946 50.0016408,26.0389121 50.7626439,26.3102501 C51.5564124,26.5922188 52.4151832,26.734975 53.316232,26.734975 L64.2397972,26.734975 L64.2397972,33.9573239 L52.5034384,33.9573239 Z" id="Fill-11"></path>
                            </g>
                        </g>
                        <g id="Page-1" transform="translate(190.000000, 266.000000)">
                            <path d="M12,17.4996041 C12,17.7759303 12.3162895,18 12.7063426,18 L19.2936574,18 C19.6837105,18 20,17.7759303 20,17.4996041 C20,17.2232779 19.6837105,17 19.2936574,17 L12.7063426,17 C12.3162895,17 12,17.2232779 12,17.4996041" id="Fill-1" fill="#009190"></path>
                            <path d="M8.66701847,15 L11.3329815,15 C11.7013193,15 12,14.7759303 12,14.5003959 C12,14.2240697 11.7013193,14 11.3329815,14 L8.66701847,14 C8.29762533,14 8,14.2240697 8,14.5003959 C8,14.7759303 8.29762533,15 8.66701847,15" id="Fill-3" fill="#009190"></path>
                            <g id="Group-7" transform="translate(17.000000, 0.000000)">
                                <mask id="mask-7" fill="white">
                                    <use xlink:href="#path-6"></use>
                                </mask>
                                <g id="Clip-6"></g>
                                <path d="M4.08204211,5.743125 L4.08204211,15.870375 C4.08204211,16.783875 4.84741053,17.5275 5.78877895,17.5275 L15.5394105,17.5275 C16.4796211,17.5275 17.2449895,16.783875 17.2449895,15.870375 L17.2449895,5.743125 L20.9317263,2.16225 C21.2165684,1.884375 21.2165684,1.434375 20.9317263,1.157625 C20.6457263,0.87975 20.1814105,0.87975 19.8965684,1.157625 L16.2109895,4.7385 L5.11604211,4.7385 L1.43046316,1.157625 C1.14446316,0.87975 0.681305263,0.87975 0.395305263,1.157625 C0.110463158,1.434375 0.110463158,1.884375 0.395305263,2.16225 L4.08204211,5.743125 Z M5.54446316,6.159375 L15.7814105,6.159375 L15.7814105,15.870375 C15.7814105,15.99975 15.6737263,16.106625 15.5394105,16.106625 L5.78877895,16.106625 C5.65330526,16.106625 5.54446316,16.000875 5.54446316,15.870375 L5.54446316,6.159375 Z" id="Fill-5" fill="#009190" mask="url(#mask-7)"></path>
                            </g>
                            <path d="M15.6670185,15 L18.3329815,15 C18.7013193,15 19,14.7759303 19,14.5003959 C19,14.2240697 18.7013193,14 18.3329815,14 L15.6670185,14 C15.2986807,14 15,14.2240697 15,14.5003959 C15,14.7759303 15.2986807,15 15.6670185,15" id="Fill-8" fill="#009190"></path>
                            <path d="M43,25 C43,23.3459993 41.6540007,22 40.0010961,22 C38.3459993,22 37,23.3459993 37,25 C37,26.6540007 38.3459993,28 40.0010961,28 C41.6540007,28 43,26.6540007 43,25 M38.3854585,25 C38.3854585,24.1099744 39.1099744,23.3843624 40.0010961,23.3843624 C40.8911217,23.3843624 41.6156376,24.1099744 41.6156376,25 C41.6156376,25.8900256 40.8911217,26.6156376 40.0010961,26.6156376 C39.1099744,26.6156376 38.3854585,25.8900256 38.3854585,25" id="Fill-10" fill="#009190"></path>
                            <path d="M20,25 C20,26.6540007 21.3462452,28 22.9994519,28 C24.6537548,28 26,26.6540007 26,25 C26,23.3459993 24.6537548,22 22.9994519,22 C21.3462452,22 20,23.3459993 20,25 M24.6153846,25 C24.6153846,25.8900256 23.8907363,26.6156376 22.9994519,26.6156376 C22.1092637,26.6156376 21.3846154,25.8900256 21.3846154,25 C21.3846154,24.1099744 22.1092637,23.3843624 22.9994519,23.3843624 C23.8907363,23.3843624 24.6153846,24.1099744 24.6153846,25" id="Fill-12" fill="#009190"></path>
                            <g id="Group-16" transform="translate(0.000000, 19.000000)">
                                <mask id="mask-9" fill="white">
                                    <use xlink:href="#path-8"></use>
                                </mask>
                                <g id="Clip-15"></g>
                                <path d="M45.27113,26.5263833 L43.09188,26.5263833 L43.09188,25.2978833 C43.09188,23.80805 41.89703,22.59705 40.42963,22.59705 L39.21868,22.59705 L39.21868,17.44505 L39.21868,17.43455 L39.21868,13.2637167 L39.94548,13.2637167 C43.28278,13.2637167 45.99793,10.5092167 45.99793,7.12355 C45.99793,3.73788333 43.28278,0.983383333 39.94548,0.983383333 L36.55643,0.983383333 C36.15508,0.983383333 35.82963,1.31355 35.82963,1.72071667 C35.82963,2.12671667 36.15508,2.45805 36.55643,2.45805 L39.94548,2.45805 C42.48123,2.45805 44.54548,4.55105 44.54548,7.12355 C44.54548,9.69721667 42.48123,11.7902167 39.94548,11.7902167 L32.68898,11.7902167 L32.67748,11.7902167 L28.81348,11.7902167 L28.80428,11.7902167 L17.19388,11.7902167 L17.18353,11.7902167 L13.32068,11.7902167 L13.30918,11.7902167 L6.05153,11.7902167 C3.51578,11.7902167 1.45153,9.69721667 1.45153,7.12355 C1.45153,4.55105 3.51578,2.45805 6.05153,2.45805 L33.65153,2.45805 C34.05173,2.45805 34.37718,2.12671667 34.37718,1.72071667 C34.37718,1.31355 34.05173,0.983383333 33.65153,0.983383333 L6.05153,0.983383333 C2.71423,0.983383333 0.00023,3.73788333 0.00023,7.12355 C0.00023,10.5092167 2.71423,13.2637167 6.05153,13.2637167 L6.77833,13.2637167 L6.77833,17.43455 L6.77833,17.44505 L6.77833,22.59705 L5.56853,22.59705 C4.09998,22.59705 2.90513,23.80805 2.90513,25.2978833 L2.90513,26.5263833 L0.72703,26.5263833 C0.32453,26.5263833 0.00023,26.85655 0.00023,27.26255 C0.00023,27.6697167 0.32453,27.9998833 0.72703,27.9998833 L5.56853,27.9998833 C5.96873,27.9998833 6.29418,27.6697167 6.29418,27.26255 C6.29418,26.85655 5.96873,26.5263833 5.56853,26.5263833 L4.35758,26.5263833 L4.35758,25.2978833 C4.35758,24.6212167 4.90153,24.07055 5.56853,24.07055 L9.44173,24.07055 C10.10988,24.07055 10.65153,24.6212167 10.65153,25.2978833 L10.65153,26.5263833 L8.47343,26.5263833 C8.07093,26.5263833 7.74663,26.85655 7.74663,27.26255 C7.74663,27.6697167 8.07093,27.9998833 8.47343,27.9998833 L45.27113,27.9998833 C45.67363,27.9998833 45.99793,27.6697167 45.99793,27.26255 C45.99793,26.85655 45.67363,26.5263833 45.27113,26.5263833 Z M37.76738,13.2637167 L37.76738,15.8653833 L34.68883,13.2637167 L37.76738,13.2637167 Z M23.72588,13.2637167 L26.80328,13.2637167 L23.72588,15.8653833 L23.72588,13.2637167 Z M22.27228,13.2637167 L22.27228,15.8653833 L19.19488,13.2637167 L22.27228,13.2637167 Z M8.23078,13.2637167 L11.30933,13.2637167 L8.23078,15.8653833 L8.23078,13.2637167 Z M18.39908,25.2978833 L18.39908,26.5263833 L12.10513,26.5263833 L12.10513,25.2978833 C12.10513,23.80805 10.91028,22.59705 9.44173,22.59705 L8.23078,22.59705 L8.23078,17.78455 L13.57828,13.2637167 L16.92593,13.2637167 L22.27228,17.78455 L22.27228,22.59705 L21.06133,22.59705 C19.59393,22.59705 18.39908,23.80805 18.39908,25.2978833 Z M26.14548,26.5263833 L19.85153,26.5263833 L19.85153,25.2978833 C19.85153,24.6212167 20.39433,24.07055 21.06248,24.07055 L24.93568,24.07055 C25.60268,24.07055 26.14548,24.6212167 26.14548,25.2978833 L26.14548,26.5263833 Z M33.89303,25.2978833 L33.89303,26.5263833 L27.59908,26.5263833 L27.59908,25.2978833 C27.59908,23.80805 26.40423,22.59705 24.93453,22.59705 L23.72588,22.59705 L23.72588,17.78455 L29.07223,13.2637167 L32.41988,13.2637167 L37.76738,17.78455 L37.76738,22.59705 L36.55643,22.59705 C35.08788,22.59705 33.89303,23.80805 33.89303,25.2978833 Z M41.64058,26.5263833 L35.34548,26.5263833 L35.34548,25.2978833 C35.34548,24.6212167 35.88943,24.07055 36.55643,24.07055 L40.42963,24.07055 C41.09663,24.07055 41.64058,24.6212167 41.64058,25.2978833 L41.64058,26.5263833 Z" id="Fill-14" fill="#009190" mask="url(#mask-9)"></path>
                            </g>
                            <path d="M3,25 C3,26.6540007 4.3462452,28 5.99945185,28 C7.6537548,28 9,26.6540007 9,25 C9,23.3459993 7.6537548,22 5.99945185,22 C4.3462452,22 3,23.3459993 3,25 M7.61538462,25 C7.61538462,25.8900256 6.89073634,26.6156376 5.99945185,26.6156376 C5.10926366,26.6156376 4.38461538,25.8900256 4.38461538,25 C4.38461538,24.1099744 5.10926366,23.3843624 5.99945185,23.3843624 C6.89073634,23.3843624 7.61538462,24.1099744 7.61538462,25" id="Fill-17" fill="#009190"></path>
                        </g>
                        <g id="Page-1" transform="translate(293.000000, 12.000000)">
                            <g id="Group-3">
                                <mask id="mask-11" fill="white">
                                    <use xlink:href="#path-10"></use>
                                </mask>
                                <g id="Clip-2"></g>
                                <path d="M7.86840631,7.40566864 L8.09361341,7.01522288 C8.46956607,6.36355424 9.16983432,5.95887574 9.9213925,5.95887574 L9.92252071,5.95887574 L10.1827022,5.95904931 L10.1827022,5.97892308 C10.816146,6.08497436 11.3662761,6.45511243 11.7064734,7.00906114 L11.9499053,7.40566864 L7.86840631,7.40566864 Z M26.324714,7.40575542 L29.6225444,7.40575542 L29.6225444,1.33071795 L26.324714,1.33071795 L26.324714,7.40575542 Z M14.5509389,30.9533925 L34.9165168,30.9533925 C36.3042959,30.9533925 37.4332821,29.8244063 37.4332821,28.4366272 L37.4332821,24.7337712 C37.4332821,24.0797594 37.9653609,23.5476805 38.6193728,23.5476805 L41.3964931,23.5476805 C42.7842722,23.5476805 43.9132584,22.4186943 43.9132584,21.0309152 L43.9132584,2.51680868 C43.9131716,1.12902959 42.7841854,4.33925049e-05 41.3964063,4.33925049e-05 L22.8822998,4.33925049e-05 C21.4946075,4.33925049e-05 20.3655345,1.12902959 20.3655345,2.51680868 L20.3655345,21.0309152 C20.3655345,22.4186943 21.4946075,23.5476805 22.8822998,23.5476805 L33.730426,23.5476805 L33.730426,22.2170059 L22.8822998,22.2170059 C22.228288,22.2170059 21.6962091,21.684927 21.6962091,21.0309152 L21.6962091,2.51680868 C21.6962091,1.86279684 22.228288,1.33071795 22.8822998,1.33071795 L24.9940394,1.33071795 L24.9940394,8.07104931 C24.9940394,8.43797633 25.2925799,8.73642998 25.6594201,8.73642998 L30.287925,8.73642998 C30.6548521,8.73642998 30.9533057,8.43797633 30.9533057,8.07104931 L30.9533057,1.33071795 L41.3964063,1.33071795 C42.0505049,1.33071795 42.582497,1.86279684 42.582497,2.51680868 L42.582497,21.0309152 C42.582497,21.684927 42.0505049,22.2170059 41.3964063,22.2170059 L38.619286,22.2170059 C37.2315937,22.2170059 36.1025207,23.3459921 36.1025207,24.7337712 L36.1025207,28.4366272 C36.1025207,29.0907258 35.5705286,29.6227179 34.91643,29.6227179 L14.5509389,29.6227179 C13.896927,29.6227179 13.3648481,29.0907258 13.3648481,28.4366272 L13.3648481,8.22839053 C13.3784734,7.56474556 13.2080276,6.91802367 12.8719961,6.35261933 L12.6381972,5.95922288 L17.9933531,5.95922288 L17.9933531,4.62854832 L9.92156607,4.63019724 C9.9179211,4.63019724 9.91418935,4.63011045 9.91045759,4.63011045 C9.02837475,4.63011045 8.19185404,4.96536095 7.55372387,5.5746785 C7.0862998,6.02014596 6.75356607,6.58581065 6.59119132,7.21074951 L6.54059566,7.40566864 L4.36810651,7.40566864 C1.96259961,7.40861933 0.00290729783,9.36831164 -4.33925049e-05,11.7741657 L-4.33925049e-05,32.1394832 C0.00290729783,34.5450769 1.96251282,36.5047692 4.36845365,36.5076331 L13.8855582,36.5076331 L13.8855582,38.9369191 L13.6631282,38.9695503 C11.8895897,39.2302525 10.5090138,40.5939921 10.2276568,42.3631045 L10.1926824,42.5825838 L8.33131755,42.5825838 L8.33131755,43.9132584 L35.5818107,43.9132584 L35.5818107,42.5825838 L33.7205325,42.5825838 L33.685645,42.3631913 C33.404288,40.5939921 32.0235385,39.2302525 30.2500868,38.9695503 L30.02757,38.9369191 L30.02757,36.5075464 L39.5450217,36.5075464 C41.9506154,36.5046824 43.9103077,34.5449901 43.9131716,32.1391361 L43.9131716,24.9941262 L42.582497,24.9941262 L42.582497,32.1393964 C42.582497,33.8142604 41.2198856,35.1768718 39.5450217,35.1768718 L22.2169191,35.1768718 L22.2169191,36.5075464 L28.6968955,36.5075464 L28.6968955,39.5451085 C28.6968955,39.9100394 28.9920513,40.2071045 29.3561144,40.2104892 C29.4557436,40.2055424 29.5563274,40.2055424 29.655783,40.2108363 C30.861574,40.2747968 31.9131479,41.0921381 32.2725247,42.2448166 L32.3777949,42.5825838 L11.5355937,42.5825838 L11.6403432,42.2450769 C12.0335661,40.9792308 13.2314596,40.1427968 14.5560592,40.2104024 L21.6962091,40.2104024 L21.6962091,38.8797278 L15.2162327,38.8797278 L15.2162327,35.8422525 C15.2162327,35.4754122 14.9178659,35.1768718 14.5509389,35.1768718 L4.36810651,35.1768718 C2.6932426,35.1768718 1.33063116,33.8142604 1.33063116,32.1393964 L1.33063116,30.0276568 L9.6620789,30.0276568 L9.6620789,28.6969822 L1.33063116,28.6969822 L1.33063116,11.7739053 C1.33063116,10.0990414 2.6932426,8.73642998 4.36810651,8.73642998 L12.0341736,8.73642998 L12.0341736,28.4366272 C12.0341736,29.8244063 13.1632465,30.9533925 14.5509389,30.9533925 Z" id="Fill-1" fill="#0F9696" mask="url(#mask-11)"></path>
                            </g>
                            <path d="M3.70285602,13.6252899 L3.70285602,15.2163195 L5.03353057,15.2163195 L5.03353057,13.6252899 C5.03353057,12.9712781 5.56560947,12.4391992 6.2196213,12.4391992 L7.81065089,12.4391992 L7.81065089,11.1085247 L6.2196213,11.1085247 C4.83184221,11.1085247 3.70285602,12.2375108 3.70285602,13.6252899" id="Fill-4" fill="#0F9696"></path>
                            <mask id="mask-13" fill="white">
                                <use xlink:href="#path-12"></use>
                            </mask>
                            <g id="Clip-7"></g>
                            <polygon id="Fill-6" fill="#0F9696" mask="url(#mask-13)" points="15.7369862 27.2505799 30.0276134 27.2505799 30.0276134 25.9199053 15.7369862 25.9199053"></polygon>
                            <polygon id="Fill-8" fill="#0F9696" mask="url(#mask-13)" points="32.3997081 27.2505799 33.7303826 27.2505799 33.7303826 25.9199053 32.3997081 25.9199053"></polygon>
                            <polygon id="Fill-9" fill="#0F9696" mask="url(#mask-13)" points="15.7369862 23.5477239 18.9191321 23.5477239 18.9191321 22.2170493 15.7369862 22.2170493"></polygon>
                            <polygon id="Fill-10" fill="#0F9696" mask="url(#mask-13)" points="15.7369862 19.8448679 18.9191321 19.8448679 18.9191321 18.5141933 15.7369862 18.5141933"></polygon>
                            <polygon id="Fill-11" fill="#0F9696" mask="url(#mask-13)" points="15.7369862 16.1420118 18.9191321 16.1420118 18.9191321 14.8113373 15.7369862 14.8113373"></polygon>
                            <polygon id="Fill-12" fill="#0F9696" mask="url(#mask-13)" points="15.7369862 12.4391558 18.9191321 12.4391558 18.9191321 11.1084813 15.7369862 11.1084813"></polygon>
                        </g>
                        <g id="Page-1" transform="translate(338.000000, 162.000000)" fill="#009090">
                            <path d="M9.98142857,7.47628571 L4.24428571,7.47628571 C3.9052381,7.47628571 3.62904762,7.71914286 3.62904762,8.01819048 L3.62904762,46.2324762 C3.62904762,46.5315238 3.9052381,46.774381 4.24428571,46.774381 L26.6566667,46.742 L26.8328571,46.6715238 L26.8147619,46.6381905 L26.8633333,46.6581905 L35.6147619,38.6591429 L35.61,38.6029524 L35.6242857,38.609619 L35.6861905,38.4858095 L35.71,38.3867619 L35.7061905,8.01819048 C35.7061905,7.71914286 35.4309524,7.47628571 35.0928571,7.47628571 L29.3557143,7.47628571 L29.3557143,5.23533333 L38.11,5.23533333 L38.11,48.6010476 L1.22619048,48.6010476 L1.22619048,5.23533333 L9.98142857,5.23533333 L9.98142857,7.47628571 Z M33.6528571,38.882 L27.0861905,44.894381 L27.0861905,38.882 L33.6528571,38.882 Z M10.5938095,11.4658095 L28.742381,11.4658095 C29.0804762,11.4658095 29.3557143,11.2239048 29.3557143,10.9258095 L29.3557143,8.55914286 L34.4814286,8.55914286 L34.4814286,37.8000952 L26.4738095,37.8000952 C26.1366667,37.8000952 25.8614286,38.0429524 25.8614286,38.3410476 L25.8614286,45.6915238 L4.85571429,45.6915238 L4.85571429,8.55914286 L9.98142857,8.55914286 L9.98142857,10.9258095 C9.98142857,11.2239048 10.2557143,11.4658095 10.5938095,11.4658095 Z M11.2061905,10.3839048 L11.2061905,5.23533333 L14.297619,5.23533333 L14.3547619,5.23628571 L14.6347619,5.142 L14.6871429,5.10104762 L14.8928571,4.82295238 L14.9147619,4.77342857 C15.2995238,2.63342857 17.2985714,1.08104762 19.6680952,1.08104762 C22.0338095,1.08104762 24.037619,2.63628571 24.4319048,4.78009524 L24.5461905,5.02771429 L24.5795238,5.06961905 L24.6442857,5.11628571 L25.0014286,5.22961905 L28.13,5.23438095 L28.13,10.3839048 L11.2061905,10.3839048 Z M38.7242857,4.15438095 L25.537619,4.15438095 L25.4852381,3.98771429 C24.7328571,1.60295238 22.3947619,9.52380952e-05 19.6680952,9.52380952e-05 C16.9414286,9.52380952e-05 14.6033333,1.60295238 13.85,3.98771429 L13.7985714,4.15438095 L0.611904762,4.15438095 C0.274761905,4.15438095 0.000476190476,4.3972381 0.000476190476,4.69533333 L0.000476190476,49.1410476 C0.000476190476,49.4391429 0.274761905,49.6810476 0.611904762,49.6810476 L38.7242857,49.6810476 C39.0614286,49.6810476 39.3357143,49.4391429 39.3357143,49.1410476 L39.3357143,4.69533333 C39.3357143,4.3972381 39.0614286,4.15438095 38.7242857,4.15438095 Z" id="Fill-1"></path>
                            <path d="M11.7931429,25.7760952 C11.7931429,21.1008571 15.596,17.2970476 20.2702857,17.2970476 C24.9464762,17.2970476 28.7493333,21.1008571 28.7493333,25.7760952 C28.7493333,30.4513333 24.9464762,34.2541905 20.2702857,34.2541905 C15.596,34.2541905 11.7931429,30.4513333 11.7931429,25.7760952 M20.2702857,35.5732381 C25.6740952,35.5732381 30.0693333,31.178 30.0693333,25.7760952 C30.0693333,20.3732381 25.6740952,15.978 20.2702857,15.978 C14.868381,15.978 10.4721905,20.3732381 10.4721905,25.7760952 C10.4721905,31.178 14.868381,35.5732381 20.2702857,35.5732381" id="Fill-3"></path>
                            <path d="M17.1567619,30.1687619 L17.159619,30.1687619 C17.3348571,30.1678095 17.5034286,30.0992381 17.619619,29.9811429 L24.8929524,22.711619 C25.1491429,22.4535238 25.1491429,22.0344762 24.892,21.7773333 C24.6348571,21.5201905 24.2139048,21.5211429 23.9567619,21.7782857 L17.1558095,28.5811429 L15.1310476,26.5554286 C14.879619,26.3059048 14.4472381,26.3068571 14.1967619,26.5554286 C13.9405714,26.8125714 13.9405714,27.2306667 14.1967619,27.4878095 L16.6900952,29.9811429 C16.8100952,30.1001905 16.979619,30.1687619 17.1567619,30.1687619" id="Fill-5"></path>
                        </g>
                        <path d="M40.74,36.52 L42.7,37.04 C42.5,37.94 42.3,38.78 42.08,39.58 L49.64,39.58 C49.64,46.54 49.54,50.82 49.34,52.42 C49.1,54.14 47.96,55 45.92,55 C45.64,55 45.12,54.96 44.4,54.9 L43.92,53.04 C44.56,53.1 45.1,53.14 45.58,53.14 C46.64,53.14 47.26,52.58 47.42,51.48 C47.54,50.54 47.6,47.24 47.64,41.58 L46.92,41.58 C46.5,44.78 45.92,47.34 45.16,49.22 C44.24,51.34 42.86,53.26 41.06,54.94 L39.76,53.28 C41.4,51.8 42.62,50.16 43.44,48.32 C44.14,46.62 44.68,44.38 45.06,41.58 L44.06,41.58 C43.22,45.82 41.72,48.94 39.54,50.9 L38.2,49.34 C40.12,47.7 41.46,45.12 42.2,41.58 L41.36,41.58 C40.86,42.76 40.28,43.76 39.62,44.56 L38.1,43.26 C39.34,41.7 40.22,39.44 40.74,36.52 Z M34.02,42.54 C33.86,43.48 33.68,44.4 33.46,45.28 L31.62,44.76 C32.16,42.66 32.46,40.44 32.54,38.12 L34.4,38.26 C34.36,39.02 34.32,39.78 34.26,40.54 L35.12,40.54 L35.12,36.6 L37.16,36.6 L37.16,40.54 L38.52,40.54 L38.52,42.54 L37.16,42.54 L37.16,46.54 C37.58,46.34 38,46.14 38.44,45.94 L38.44,47.9 C38,48.1 37.58,48.28 37.16,48.48 L37.16,55.08 L35.12,55.08 L35.12,49.3 C34.22,49.62 33.3,49.94 32.36,50.22 L31.86,48.2 C32.96,47.98 34.04,47.68 35.12,47.32 L35.12,42.54 L34.02,42.54 Z M65.12,36.5 L67.16,37.14 C66.96,37.58 66.76,37.98 66.56,38.38 L72.68,38.38 L72.68,40.26 L65.52,40.26 C64.8,41.42 64.02,42.44 63.2,43.3 C65.2,43.2 67.16,43.04 69.08,42.8 L68,41.42 L69.68,40.38 C71.08,42.02 72.14,43.46 72.88,44.7 L71.14,45.92 C70.86,45.44 70.56,44.94 70.22,44.42 C67.22,44.78 64.16,45.02 61.02,45.16 L60.4,43.4 C61.44,42.6 62.4,41.54 63.24,40.26 L60.24,40.26 L60.24,38.38 L64.3,38.38 C64.58,37.76 64.86,37.14 65.12,36.5 Z M56.86,36.72 C58.06,37.56 59.1,38.42 59.94,39.28 L58.46,40.76 C57.74,39.96 56.7,39.08 55.36,38.16 L56.86,36.72 Z M56.38,41.5 C57.62,42.46 58.68,43.44 59.52,44.4 L58.04,45.88 C57.3,44.98 56.26,44 54.9,42.94 L56.38,41.5 Z M57.84,46.92 L59.68,47.64 C58.92,50.18 58.08,52.58 57.16,54.82 L55.24,53.94 C56.24,51.66 57.12,49.32 57.84,46.92 Z M64.9,45.88 L67,45.88 L67,54.68 L64.9,54.68 L64.9,45.88 Z M61.44,45.88 L63.44,45.88 C63.36,48.52 63.1,50.46 62.66,51.7 C62.16,52.98 61.34,54.12 60.22,55.08 L58.9,53.4 C59.8,52.66 60.44,51.78 60.82,50.76 C61.16,49.8 61.36,48.16 61.44,45.88 Z M70.56,54.76 C69.36,54.76 68.76,54 68.76,52.5 L68.76,45.88 L70.76,45.88 L70.76,52.22 C70.76,52.62 70.88,52.84 71.16,52.84 L73.22,52.84 L73.22,54.76 L70.56,54.76 Z" id="物流" fill="#009190"></path>
                        <path d="M6.1,202.18 C6.1,202.46 6.08,202.72 6.08,202.96 L14.44,202.96 L14.44,202.18 L6.1,202.18 Z M14.44,200.58 L14.44,199.78 L6.1,199.78 L6.1,200.58 L14.44,200.58 Z M5.88,204.68 C5.82,204.96 5.76,205.22 5.72,205.48 L17.12,205.48 L17.12,211.08 L15.1,211.08 L15.1,210.4 L7.56,210.4 L7.56,211.04 L5.52,211.04 L5.52,206.28 C5,208.08 4.18,209.7 3.02,211.14 L1.38,209.68 C3.14,207.72 4.04,205.18 4.06,202.08 L4.06,198.06 L16.46,198.06 L16.46,204.68 L5.88,204.68 Z M7.56,208.66 L15.1,208.66 L15.1,207.2 L7.56,207.2 L7.56,208.66 Z M6.48,196.68 C5.08,197.4 3.56,198.02 1.88,198.54 L0.74,196.82 C4.42,195.74 7.26,194.32 9.26,192.58 L10.74,192.58 C12.38,194.18 15.2,195.6 19.2,196.82 L18.06,198.54 C16.34,197.98 14.82,197.38 13.54,196.72 L13.54,197.34 L6.48,197.34 L6.48,196.68 Z M11.76,195.66 C11.08,195.2 10.48,194.74 10,194.28 C9.42,194.76 8.82,195.22 8.18,195.66 L11.76,195.66 Z M27.16,192.52 L29.08,193.4 C28.92,193.92 28.78,194.42 28.62,194.9 L30.66,194.9 C30.4,194.3 30.12,193.7 29.8,193.14 L31.76,192.6 C32.16,193.44 32.46,194.2 32.66,194.9 L34.22,194.9 L34.22,196.78 L28.6,196.78 L28.6,194.96 C28.34,195.68 28.06,196.4 27.76,197.08 L27.76,211.12 L25.74,211.12 L25.74,200.72 C25.3,201.38 24.82,202.02 24.34,202.64 L23.64,200.4 C25.22,198.18 26.4,195.56 27.16,192.52 Z M34.72,194.74 L36.3,194.74 L36.3,192.58 L38.14,192.58 L38.14,194.74 L39.54,194.74 L39.54,196.4 C39.94,195.6 40.28,194.74 40.58,193.86 L42.14,194.68 C41.62,196.08 41.04,197.36 40.4,198.5 L41.94,198.5 L41.94,200.38 L39.16,200.38 C38.82,200.82 38.46,201.24 38.1,201.64 L41.4,201.64 L41.4,211.08 L39.56,211.08 L39.56,210.3 L37,210.3 L37,211.08 L35.16,211.08 L35.16,204.06 C34.92,204.2 34.7,204.34 34.46,204.46 L33.44,202.94 C34.72,202.3 35.86,201.46 36.86,200.38 L34.28,200.38 L34.28,198.5 L36.3,198.5 L36.3,196.52 L34.72,196.52 L34.72,194.74 Z M38.34,198.5 C38.74,197.88 39.12,197.22 39.48,196.52 L38.14,196.52 L38.14,198.5 L38.34,198.5 Z M37,206.84 L37,208.54 L39.56,208.54 L39.56,206.84 L37,206.84 Z M39.56,205.16 L39.56,203.4 L37,203.4 L37,205.16 L39.56,205.16 Z M30.62,209.82 L30.62,210.92 L28.82,210.92 L28.82,203.7 L33.88,203.7 L33.88,210.76 L32.08,210.76 L32.08,209.82 L30.62,209.82 Z M32.08,208.1 L32.08,205.42 L30.62,205.42 L30.62,208.1 L32.08,208.1 Z M29.12,197.92 L33.66,197.92 L33.66,199.7 L29.12,199.7 L29.12,197.92 Z M29.16,200.74 L33.68,200.74 L33.68,202.54 L29.16,202.54 L29.16,200.74 Z" id="倉儲" fill="#009190"></path>
                        <path d="M392.1,200.44 L392.1,202.52 C391.54,202.8 391,203.06 390.48,203.3 L390.48,208.82 C390.48,210.22 389.8,210.92 388.46,210.92 L386.8,210.92 L386.32,208.9 C386.82,208.98 387.3,209.02 387.74,209.02 C388.22,209.02 388.46,208.76 388.46,208.28 L388.46,204.14 C387.72,204.42 386.98,204.7 386.22,204.94 L385.72,202.94 C386.64,202.72 387.56,202.44 388.46,202.12 L388.46,198.02 L385.96,198.02 L385.96,196.04 L388.46,196.04 L388.46,192.66 L390.48,192.66 L390.48,196.04 L392.3,196.04 L392.3,198.02 L390.48,198.02 L390.48,201.28 C391.02,201.02 391.56,200.74 392.1,200.44 Z M401.88,195.34 L403.64,195.8 C403.16,197.36 402.54,198.72 401.82,199.9 L400.12,199.28 C400.8,198.24 401.38,196.94 401.88,195.34 Z M398.42,195.78 C398.86,196.82 399.22,197.76 399.48,198.64 L397.78,199.26 C397.46,198.24 397.1,197.24 396.66,196.28 L398.42,195.78 Z M394.64,196.02 C395.22,197.06 395.74,198.26 396.2,199.62 L394.48,200.06 C394.08,198.86 393.56,197.7 392.94,196.58 L394.64,196.02 Z M402.7,192.58 L403.7,194.28 C400.98,195.1 397.38,195.52 392.9,195.52 L392.26,193.66 C396.38,193.66 399.86,193.3 402.7,192.58 Z M392.58,201.68 L397.06,201.68 L397.06,199.7 L399.04,199.7 L399.04,201.68 L403.6,201.68 L403.6,203.68 L400.34,203.68 C401.18,205.26 402.54,206.68 404.38,207.96 L402.98,209.7 C401.2,208.08 399.88,206.3 399.04,204.38 L399.04,211.02 L397.06,211.02 L397.06,204.4 C396.12,206.6 394.72,208.46 392.86,209.94 L391.72,208.08 C393.48,206.92 394.82,205.44 395.7,203.68 L392.58,203.68 L392.58,201.68 Z M409.36,193.2 L415.12,193.2 L415.12,205.78 L409.36,205.78 L409.36,193.2 Z M413.26,204.06 L413.26,201.96 L411.24,201.96 L411.24,204.06 L413.26,204.06 Z M411.24,200.32 L413.26,200.32 L413.26,198.36 L411.24,198.36 L411.24,200.32 Z M411.24,196.72 L413.26,196.72 L413.26,194.92 L411.24,194.92 L411.24,196.72 Z M413.96,206.12 C414.74,207.4 415.34,208.54 415.78,209.52 L414.28,210.54 C413.84,209.48 413.26,208.3 412.52,207.02 L413.96,206.12 Z M410.38,206.18 L411.94,206.94 C411.5,208.26 410.94,209.56 410.26,210.84 L408.66,210.02 C409.38,208.72 409.96,207.44 410.38,206.18 Z M418.22,192.6 L420.12,192.6 L420.12,193.9 L422.64,193.9 L422.64,192.6 L424.56,192.6 L424.56,193.9 L426.74,193.9 L426.74,195.5 L424.56,195.5 L424.56,196.42 L426.36,196.42 L426.36,197.96 L424.56,197.96 L424.56,198.9 L427.14,198.9 L427.14,200.5 L422.3,200.5 L422.3,201.36 L426.2,201.36 L426.2,206.3 L427.2,206.3 L427.2,207.98 L426.2,207.98 L426.2,209.42 C426.2,210.46 425.58,211 424.34,211 L422.76,211 L422.34,209.3 L423.8,209.38 C424.14,209.38 424.32,209.26 424.32,209.02 L424.32,207.98 L418.4,207.98 L418.4,211.02 L416.52,211.02 L416.52,207.98 L415.42,207.98 L415.42,206.3 L416.52,206.3 L416.52,201.36 L420.38,201.36 L420.38,200.5 L415.62,200.5 L415.62,198.9 L418.22,198.9 L418.22,197.96 L416.42,197.96 L416.42,196.42 L418.22,196.42 L418.22,195.5 L416.02,195.5 L416.02,193.9 L418.22,193.9 L418.22,192.6 Z M418.4,206.3 L420.38,206.3 L420.38,205.26 L418.4,205.26 L418.4,206.3 Z M422.3,206.3 L424.32,206.3 L424.32,205.26 L422.3,205.26 L422.3,206.3 Z M420.12,198.9 L422.64,198.9 L422.64,197.96 L420.12,197.96 L420.12,198.9 Z M420.12,196.42 L422.64,196.42 L422.64,195.5 L420.12,195.5 L420.12,196.42 Z M424.32,203.9 L424.32,202.88 L422.3,202.88 L422.3,203.9 L424.32,203.9 Z M420.38,202.88 L418.4,202.88 L418.4,203.9 L420.38,203.9 L420.38,202.88 Z" id="採購" fill="#009190"></path>
                        <path d="M355.798423,38.766613 L365.987116,38.766613 L365.987116,40.69313 L362.511441,40.69313 L362.511441,53.424031 C362.511441,55.012911 361.816306,55.827212 360.465758,55.827212 L357.605774,55.827212 L357.148971,53.860973 C358.042716,53.940417 358.9166,53.980139 359.750762,53.980139 C360.247287,53.980139 360.50548,53.622641 360.50548,52.927506 L360.50548,40.69313 L355.798423,40.69313 L355.798423,38.766613 Z M350.416092,54.953328 L350.416092,56.125127 L348.429992,56.125127 L348.429992,48.677252 L354.805373,48.677252 L354.805373,55.767629 L352.819273,55.767629 L352.819273,54.953328 L350.416092,54.953328 Z M352.819273,53.066533 L352.819273,50.564047 L350.416092,50.564047 L350.416092,53.066533 L352.819273,53.066533 Z M347.99305,39.978134 L350.793451,39.978134 C350.535258,39.362443 350.237343,38.766613 349.919567,38.170783 L351.925528,37.634536 C352.283026,38.488559 352.580941,39.263138 352.799412,39.978134 L355.34162,39.978134 L355.34162,41.88479 L347.99305,41.88479 L347.99305,39.978134 Z M348.608741,42.957284 L354.567041,42.957284 L354.567041,44.764635 L348.608741,44.764635 L348.608741,42.957284 Z M348.608741,45.717963 L354.567041,45.717963 L354.567041,47.545175 L348.608741,47.545175 L348.608741,45.717963 Z M371.926544,38.270088 L379.155948,38.270088 L379.155948,42.699091 L371.926544,42.699091 L371.926544,38.270088 Z M377.130126,41.209516 L377.130126,39.759663 L373.932505,39.759663 L373.932505,41.209516 L377.130126,41.209516 Z M380.407191,38.270088 L387.656456,38.270088 L387.656456,42.699091 L380.407191,42.699091 L380.407191,38.270088 Z M385.650495,41.28896 L385.650495,39.719941 L382.413152,39.719941 L382.413152,41.28896 L385.650495,41.28896 Z M372.64154,43.572975 L386.94146,43.572975 L386.94146,50.564047 L380.844133,50.564047 L380.844133,51.676263 L388.450896,51.676263 L388.450896,53.424031 L380.844133,53.424031 L380.844133,56.045683 L378.738867,56.045683 L378.738867,53.424031 L371.132104,53.424031 L371.132104,51.676263 L378.738867,51.676263 L378.738867,50.564047 L372.64154,50.564047 L372.64154,43.572975 Z M384.895777,48.935445 L384.895777,47.783507 L380.844133,47.783507 L380.844133,48.935445 L384.895777,48.935445 Z M378.738867,48.935445 L378.738867,47.783507 L374.687223,47.783507 L374.687223,48.935445 L378.738867,48.935445 Z M374.687223,46.353515 L378.738867,46.353515 L378.738867,45.201577 L374.687223,45.201577 L374.687223,46.353515 Z M380.844133,45.201577 L380.844133,46.353515 L384.895777,46.353515 L384.895777,45.201577 L380.844133,45.201577 Z" id="訂單" fill="#009190"></path>
                        <path d="M198.06,327.04 C197.28,328.8 196.28,330.3 195.06,331.5 L193.68,329.76 C195.48,327.88 196.68,325.36 197.3,322.18 L199.44,322.58 C199.26,323.44 199.06,324.26 198.82,325.02 L202.3,325.02 L202.3,321.74 L204.4,321.74 L204.4,325.02 L210.74,325.02 L210.74,327.04 L204.4,327.04 L204.4,330.96 L210.36,330.96 L210.36,332.98 L204.4,332.98 L204.4,337.34 L212.04,337.34 L212.04,339.42 L194.24,339.42 L194.24,337.34 L202.3,337.34 L202.3,332.98 L196.66,332.98 L196.66,330.96 L202.3,330.96 L202.3,327.04 L198.06,327.04 Z M221.48,324.52 L217.88,324.52 L217.88,322.8 L225.3,322.8 C225.12,322.42 224.94,322.08 224.74,321.76 L226.88,321.4 C227.08,321.82 227.26,322.28 227.44,322.8 L234.16,322.8 L234.16,324.52 L231.1,324.52 L231.82,325 C230.96,325.44 230.08,325.86 229.16,326.22 C230.5,326.58 231.74,326.96 232.88,327.34 L231.96,328.26 L234.26,328.26 L234.26,330.02 L220.28,330.02 L220.28,332.02 C220.26,332.6 220.24,333.16 220.2,333.72 C221.3,332.82 222.12,331.68 222.68,330.28 L224.3,330.94 L223.98,331.7 L226.76,331.7 L226.76,330.36 L228.8,330.36 L228.8,331.7 L233.72,331.7 L233.72,333.5 L228.8,333.5 L228.8,334.8 L233.34,334.8 L233.34,336.6 L228.8,336.6 L228.8,337.88 L234.76,337.88 L234.76,339.66 L220.2,339.66 L220.2,337.88 L226.76,337.88 L226.76,336.6 L222.24,336.6 L222.24,334.8 L226.76,334.8 L226.76,333.5 L222.94,333.5 C222.46,334.16 221.94,334.72 221.38,335.18 L220.16,334.12 C219.92,336.54 219.32,338.54 218.38,340.14 L216.82,338.74 C217.74,337.14 218.24,334.9 218.28,332.02 L218.28,328.26 L220.32,328.26 L219.38,326.98 C221.08,326.8 222.64,326.56 224.06,326.26 C222.96,325.98 221.8,325.68 220.56,325.4 L221.48,324.52 Z M220.5,328.26 L230.82,328.26 C229.66,327.86 228.32,327.44 226.84,327.02 C224.88,327.58 222.76,328 220.5,328.26 Z M229.66,324.52 L222.44,324.52 C223.98,324.88 225.42,325.22 226.76,325.58 C227.82,325.26 228.78,324.9 229.66,324.52 Z" id="生產" fill="#009190"></path>
                    </g>
                    <g id="Page-1" transform="translate(50.000000, 164.000000)">
                        <mask id="mask-15" fill="white">
                            <use xlink:href="#path-14"></use>
                        </mask>
                        <g id="Clip-2"></g>
                        <path d="M43.2774723,42.3906766 L41.1862709,42.3906766 L41.1626899,26.4687306 L39.7338988,26.4687306 L39.7596235,42.3906766 L37.0799702,42.3906766 C37.1678628,42.0612134 37.14321,42.4054603 37.14321,36.3103898 C37.14321,35.8647696 36.9845745,35.4550524 36.7208966,35.132981 C36.9845745,34.8109095 37.14321,34.4011924 37.14321,33.9555722 L37.14321,28.3473048 C37.14321,27.3124522 36.2878647,26.4687306 35.2352969,26.4687306 L30.3647591,26.4687306 C30.4526517,26.1360994 30.4290707,26.4845702 30.4290707,20.3863318 C30.4290707,19.3514792 29.5726536,18.5077575 28.5200857,18.5077575 L17.4799143,18.5077575 C16.4273464,18.5077575 15.5709293,19.3514792 15.5709293,20.3863318 C15.5709293,26.5056896 15.5473483,26.1360994 15.6352409,26.4687306 L10.7647031,26.4687306 C9.7132072,26.4687306 8.85679001,27.3124522 8.85679001,28.3473048 L8.85679001,33.9555722 C8.85679001,34.4011924 9.01542548,34.8109095 9.27910336,35.132981 C9.01542548,35.4550524 8.85679001,35.8647696 8.85679001,36.3103898 C8.85679001,42.4276357 8.83320906,42.0612134 8.92002983,42.3906766 L6.24144841,42.3906766 L6.24144841,17.5753343 L23,6.23630674 L39.7596235,17.5753343 L39.7596235,26.8478245 L41.1862709,26.8478245 L41.1862709,18.5341568 C42.4928698,19.3366956 44.1906981,18.9713293 45.0514027,17.7379539 C45.9453351,16.4570599 45.6130581,14.6978105 44.3139622,13.8192418 L29.4461739,3.75688444 L28.6347749,4.91634172 L43.5047069,14.9786991 C44.6633889,15.7622303 44.0931587,17.5542148 42.6911641,17.5542148 C42.4017616,17.5542148 42.1220058,17.4676251 41.8819088,17.3050054 L23.4040917,4.80229674 C23.1597073,4.6375651 22.8381489,4.6375651 22.5959083,4.80229674 C21.168189,5.76745516 4.94020878,16.7506201 4.11809115,17.3050054 C3.46639948,17.7464017 2.57246715,17.583782 2.12550098,16.941751 C1.67746295,16.2986641 1.84360145,15.4179834 2.49529313,14.9786991 L22.188601,1.65127624 C22.6741542,1.32286894 23.3258458,1.32286894 23.811399,1.65127624 L28.6369186,4.91634172 L29.4461739,3.75688444 L24.6195824,0.491818967 C23.6506198,-0.163939656 22.3493802,-0.163939656 21.3804176,0.491818967 L1.6871097,13.8171298 C0.386941933,14.6978105 0.0557367881,16.4570599 0.94859726,17.7379539 C1.81573306,18.981889 3.52427999,19.3261359 4.81372915,18.5383807 L4.81372915,42.3906766 L2.72252773,42.3906766 C1.22192189,42.3906766 0,43.5955407 0,45.0717896 L0,45.318887 C0,46.7983038 1.22192189,48 2.72252773,48 L43.2774723,48 C44.7780781,48 46,46.7983038 46,45.318887 L46,45.0717896 C46,43.5934288 44.7780781,42.3906766 43.2774723,42.3906766 Z M28.7483922,39.3896042 L30.6809582,39.3896042 C31.7849753,39.3896042 32.6831951,38.5068116 32.6831951,37.4181044 L32.6831951,35.8362583 L35.2352969,35.8362583 C35.5000466,35.8362583 35.7154907,36.0485087 35.7154907,36.3103898 L35.7154907,41.9186572 C35.7154907,42.1784263 35.5000466,42.3906766 35.2352969,42.3906766 L24.1940535,42.3906766 C23.9293038,42.3906766 23.7138596,42.1784263 23.7138596,41.9186572 L23.7138596,36.3103898 C23.7138596,36.0485087 23.9293038,35.8362583 24.1940535,35.8362583 L26.7472271,35.8362583 L26.7472271,37.4181044 C26.7472271,38.5068116 27.6443751,39.3896042 28.7483922,39.3896042 Z M28.1738745,35.8362583 L31.2554758,35.8362583 L31.2554758,37.4181044 C31.2554758,37.7296162 30.9971572,37.9830494 30.6809582,37.9830494 L28.7483922,37.9830494 C28.4311213,37.9830494 28.1738745,37.7296162 28.1738745,37.4181044 L28.1738745,35.8362583 Z M32.6831951,29.4571314 L32.6831951,27.8752853 L35.2352969,27.8752853 C35.5000466,27.8752853 35.7154907,28.0875357 35.7154907,28.3473048 L35.7154907,33.9576841 C35.7154907,34.2174532 35.5000466,34.4297036 35.2352969,34.4297036 L24.1940535,34.4297036 C23.9293038,34.4297036 23.7138596,34.2174532 23.7138596,33.9576841 L23.7138596,28.3473048 C23.7138596,28.0875357 23.9293038,27.8752853 24.1940535,27.8752853 L26.7472271,27.8752853 L26.7472271,29.4571314 C26.7472271,30.5458385 27.6443751,31.4307431 28.7483922,31.4307431 L30.6809582,31.4307431 C31.7849753,31.4307431 32.6831951,30.5458385 32.6831951,29.4571314 Z M31.2554758,27.8752853 L31.2554758,29.4571314 C31.2554758,29.7707551 30.9971572,30.0220764 30.6809582,30.0220764 L28.7483922,30.0220764 C28.4311213,30.0220764 28.1738745,29.7707551 28.1738745,29.4571314 L28.1738745,27.8752853 L31.2554758,27.8752853 Z M21.4597353,19.9143123 L24.5413366,19.9143123 L24.5413366,21.4961584 C24.5413366,21.8076701 24.283018,22.0632153 23.9668189,22.0632153 L22.034253,22.0632153 C21.716982,22.0632153 21.4597353,21.8076701 21.4597353,21.4961584 L21.4597353,19.9143123 Z M16.9986485,20.3863318 C16.9986485,20.1265626 17.2151645,19.9143123 17.4799143,19.9143123 L20.032016,19.9143123 L20.032016,21.4961584 C20.032016,22.5827536 20.9291639,23.4676581 22.034253,23.4676581 L23.9668189,23.4676581 C25.0708361,23.4676581 25.9690558,22.5827536 25.9690558,21.4961584 L25.9690558,19.9143123 L28.5200857,19.9143123 C28.7848355,19.9143123 29.0013515,20.1265626 29.0013515,20.3863318 L29.0013515,25.9945991 C29.0013515,26.2564802 28.7848355,26.4687306 28.5200857,26.4687306 L17.4799143,26.4687306 C17.2151645,26.4687306 16.9997204,26.2564802 16.9997204,25.9945991 L16.9997204,20.3863318 L16.9986485,20.3863318 Z M14.7445242,27.8752853 L17.8261255,27.8752853 L17.8261255,29.4571314 C17.8261255,29.7707551 17.5688787,30.0220764 17.2516078,30.0220764 L15.3190418,30.0220764 C15.0017709,30.0220764 14.7445242,29.7707551 14.7445242,29.4571314 L14.7445242,27.8752853 Z M10.2845093,28.3473048 C10.2845093,28.0875357 10.4999534,27.8752853 10.7647031,27.8752853 L13.3168049,27.8752853 L13.3168049,29.4571314 C13.3168049,30.5458385 14.2150247,31.4307431 15.3201137,31.4307431 L17.2516078,31.4307431 C18.3556249,31.4307431 19.2538447,30.5458385 19.2538447,29.4571314 L19.2538447,27.8752853 L21.8059465,27.8752853 C22.0706962,27.8752853 22.2861404,28.0875357 22.2861404,28.3473048 L22.2861404,33.9576841 C22.2861404,34.2174532 22.0706962,34.4297036 21.8059465,34.4297036 L10.7647031,34.4297036 C10.4999534,34.4297036 10.2845093,34.2174532 10.2845093,33.9576841 L10.2845093,28.3473048 Z M17.8261255,35.8362583 L17.8261255,37.4181044 C17.8261255,37.7296162 17.5688787,37.9830494 17.2516078,37.9830494 L15.3190418,37.9830494 C15.0017709,37.9830494 14.7445242,37.7296162 14.7445242,37.4181044 L14.7445242,35.8362583 L17.8261255,35.8362583 Z M10.2845093,36.3103898 C10.2845093,36.0485087 10.4999534,35.8362583 10.7647031,35.8362583 L13.3168049,35.8362583 L13.3168049,37.4181044 C13.3168049,38.5068116 14.2150247,39.3896042 15.3201137,39.3896042 L17.2516078,39.3896042 C18.3556249,39.3896042 19.2538447,38.5068116 19.2538447,37.4181044 L19.2538447,35.8362583 L21.8059465,35.8362583 C22.0706962,35.8362583 22.2861404,36.0485087 22.2861404,36.3103898 L22.2861404,41.9186572 C22.2861404,42.1784263 22.0706962,42.3906766 21.8059465,42.3906766 L10.7647031,42.3906766 C10.4999534,42.3906766 10.2845093,42.1784263 10.2845093,41.9186572 L10.2845093,36.3103898 Z M44.5722807,45.318887 C44.5722807,46.0221644 43.99026,46.5955572 43.2774723,46.5955572 L2.72252773,46.5955572 C2.0086681,46.5955572 1.42771927,46.0221644 1.42771927,45.318887 L1.42771927,45.0717896 C1.42771927,44.3706242 2.0086681,43.7972314 2.72252773,43.7972314 L43.2774723,43.7972314 C43.99026,43.7972314 44.5722807,44.3706242 44.5722807,45.0717896 L44.5722807,45.318887 Z" id="Fill-1" fill="#009190" mask="url(#mask-15)"></path>
                    </g>
                    <g id="Page-1" transform="translate(82.000000, 17.000000)">
                        <path d="M13.3687788,31.875313 C13.0203933,31.875313 12.7375577,32.1569855 12.7375577,32.5012519 C12.7375577,33.1910366 12.1815975,33.7506259 11.4993931,33.7506259 C10.8171886,33.7506259 10.2612285,33.1910366 10.2612285,32.5012519 C10.2612285,31.8102153 10.8171886,31.2493741 11.4993931,31.2493741 C11.8477786,31.2493741 12.1306142,30.9689534 12.1306142,30.6259389 C12.1306142,30.2816725 11.8477786,30 11.4993931,30 C10.1216315,30 9,31.1216825 9,32.5012519 C9,33.8795694 10.1216315,35 11.4993931,35 C12.8783685,35 14,33.8795694 14,32.5012519 C14,32.1569855 13.7171644,31.875313 13.3687788,31.875313" id="Fill-1" fill="#009190"></path>
                        <path d="M51.3687788,31.875313 C51.0203933,31.875313 50.7375577,32.1569855 50.7375577,32.5012519 C50.7375577,33.1910366 50.1815975,33.7506259 49.4993931,33.7506259 C48.8171886,33.7506259 48.2624423,33.1910366 48.2624423,32.5012519 C48.2624423,31.8102153 48.8171886,31.2493741 49.4993931,31.2493741 C49.8477786,31.2493741 50.1306142,30.9689534 50.1306142,30.6259389 C50.1306142,30.2816725 49.8477786,30 49.4993931,30 C48.1216315,30 47,31.1216825 47,32.5012519 C47,33.8795694 48.1216315,35 49.4993931,35 C50.8783685,35 52,33.8795694 52,32.5012519 C52,32.1569855 51.7171644,31.875313 51.3687788,31.875313" id="Fill-3" fill="#009190"></path>
                        <g id="Group-7">
                            <mask id="mask-17" fill="white">
                                <use xlink:href="#path-16"></use>
                            </mask>
                            <g id="Clip-6"></g>
                            <path d="M59.4103898,22.6696935 L58.1405939,22.6696935 C57.2567163,22.6696935 56.5359204,23.3729516 56.5359204,24.2372419 L56.5359204,25.1807903 C56.5359204,26.0475968 57.2567163,26.7508548 58.1405939,26.7508548 L59.4103898,26.7508548 L59.4103898,29.2644677 L55.2661245,29.2644677 C55.2138388,29.2644677 55.1615531,29.2707581 55.1067776,29.2833387 L54.9038592,29.3311452 L54.784349,29.1587903 C53.5855122,27.456629 51.6173286,26.4388548 49.5171857,26.4388548 C47.4170429,26.4388548 45.4488592,27.456629 44.2500224,29.1587903 L44.1305122,29.3311452 L43.926349,29.2845968 C43.8728184,29.2707581 43.8205327,29.2644677 43.7682469,29.2644677 L41.5398796,29.2644677 L41.5398796,20.1535645 L59.4103898,20.1535645 L59.4103898,22.6696935 Z M57.8293694,25.4953065 L59.4103898,25.4953065 L59.4103898,23.9227258 L57.8293694,23.9227258 L57.8293694,25.4953065 Z M49.5171857,37.7438226 C46.7037163,37.7438226 44.414349,35.489371 44.414349,32.7191129 C44.414349,29.9475968 46.7037163,27.6918871 49.5171857,27.6918871 C52.3306551,27.6918871 54.6187776,29.9475968 54.6187776,32.7191129 C54.6187776,35.489371 52.3306551,37.7438226 49.5171857,37.7438226 Z M43.3873082,30.926371 C43.2989204,31.2182419 43.230451,31.5189194 43.1856347,31.8221129 L43.1470429,32.0900806 L30.9993286,32.0900806 L30.9993286,31.7755645 C30.9993286,31.4925 30.9507776,31.2119516 30.8536755,30.9427258 L30.7005531,30.5200161 L43.511798,30.5200161 L43.3873082,30.926371 Z M16.9369612,29.2644677 C16.8846755,29.2644677 16.8323898,29.2707581 16.7776143,29.2845968 L16.5746959,29.3311452 L16.4539408,29.1587903 C15.256349,27.456629 13.2869204,26.4388548 11.1880224,26.4388548 C9.08787959,26.4388548 7.11845102,27.456629 5.92085918,29.1587903 L5.80010408,29.3311452 L5.59718571,29.2833387 C5.5424102,29.2707581 5.49012449,29.2644677 5.43908367,29.2644677 L1.29357347,29.2644677 L1.29357347,23.9227258 L31.3105531,23.9227258 C31.6678388,23.9227258 31.9579,23.6409194 31.9579,23.2962097 C31.9579,22.9515 31.6678388,22.6696935 31.3105531,22.6696935 L1.29357347,22.6696935 L1.29357347,2.25256452 L40.2451857,2.25256452 L40.2451857,29.2644677 L16.9369612,29.2644677 Z M29.7046347,33.6601452 C29.7046347,34.3545968 29.1357163,34.9182097 28.4360837,34.9182097 L22.6859,34.9182097 C21.9862673,34.9182097 21.4161041,34.3545968 21.4161041,33.6601452 L21.4161041,31.7755645 C21.4161041,31.082371 21.9862673,30.5200161 22.6859,30.5200161 L28.4360837,30.5200161 C29.1357163,30.5200161 29.7046347,31.082371 29.7046347,31.7755645 L29.7046347,33.6601452 Z M20.2695531,30.9427258 C20.1712061,31.2119516 20.1226551,31.4925 20.1226551,31.7755645 L20.1226551,32.0900806 L17.5569204,32.0900806 L17.5170837,31.8208548 C17.4735122,31.5201774 17.4062878,31.2195 17.3166551,30.926371 L17.1921653,30.5200161 L20.4214306,30.5200161 L20.2695531,30.9427258 Z M11.1880224,37.7438226 C8.37455306,37.7438226 6.08518571,35.489371 6.08518571,32.7191129 C6.08518571,29.9475968 8.37455306,27.6918871 11.1880224,27.6918871 C14.0002469,27.6918871 16.2896143,29.9475968 16.2896143,32.7191129 C16.2896143,35.489371 14.0002469,37.7438226 11.1880224,37.7438226 Z M41.5398796,16.3869194 L54.2415735,16.4057903 L57.6588184,17.666371 C58.0335327,17.8538226 58.3385327,18.0865645 58.5974714,18.3734032 L59.0755122,18.9005323 L41.5398796,18.9005323 L41.5398796,16.3869194 Z M41.5398796,6.02298387 L48.5822673,6.02298387 C49.9927367,6.02298387 51.2164714,6.91495161 51.6285327,8.24346774 L53.4709816,15.131371 L41.5398796,15.131371 L41.5398796,6.02298387 Z M60.7050837,19.5270484 C60.7050837,19.3597258 60.6366143,19.2024677 60.5133694,19.0816935 L60.4386755,18.9659516 C60.0502673,17.9116935 59.2659816,17.0486613 58.2302265,16.536629 L54.8503286,15.287371 L52.8784102,7.92266129 C52.3007776,6.02675806 50.5765939,4.76743548 48.5822673,4.76743548 L41.5398796,4.76743548 L41.5398796,2.56708065 C41.5398796,1.70153226 40.8190837,0.997016129 39.9339612,0.997016129 L1.60479796,0.997016129 C0.71967551,0.997016129 0.000124489796,1.70153226 0.000124489796,2.56708065 L0.000124489796,28.9499516 C0.000124489796,29.8167581 0.71967551,30.5200161 1.60479796,30.5200161 L5.1813898,30.5200161 L5.0569,30.926371 C4.96975714,31.2157258 4.90128776,31.5164032 4.85647143,31.8221129 L4.81663469,32.0900806 L0.647471429,32.0900806 C0.290185714,32.0900806 0.000124489796,32.3731452 0.000124489796,32.7191129 C0.000124489796,33.0650806 0.290185714,33.345629 0.647471429,33.345629 L4.81787959,33.345629 L4.85771633,33.6148548 C5.30587959,36.6857903 8.02722653,38.999371 11.1880224,38.999371 C14.3475735,38.999371 17.0689204,36.6857903 17.5170837,33.6148548 L17.5569204,33.345629 L20.1226551,33.345629 L20.1226551,33.6601452 C20.1226551,35.0465323 21.2729408,36.1737581 22.6859,36.1737581 L28.4360837,36.1737581 C29.8490429,36.1737581 30.9993286,35.0465323 30.9993286,33.6601452 L30.9993286,33.345629 L43.1482878,33.345629 L43.1868796,33.6148548 C43.6350429,36.6857903 46.3563898,38.999371 49.5171857,38.999371 C52.6779816,38.999371 55.3993286,36.6857903 55.8462469,33.6148548 L55.8860837,33.345629 L60.0577367,33.345629 C60.4137776,33.345629 60.7050837,33.0650806 60.7050837,32.7191129 C60.7050837,32.3731452 60.4137776,32.0900806 60.0577367,32.0900806 L55.8860837,32.0900806 L55.8462469,31.8208548 C55.8026755,31.5164032 55.735451,31.2169839 55.6470633,30.927629 L55.5213286,30.5200161 L59.0991653,30.5200161 C59.9842878,30.5200161 60.7050837,29.8167581 60.7050837,28.9499516 L60.7050837,20.4680806 C60.7050837,20.2617581 60.6901449,20.0604677 60.6615122,19.8591774 L60.6515531,19.7862097 L60.6752061,19.7157581 C60.6951245,19.655371 60.7050837,19.5924677 60.7050837,19.5270484 Z" id="Fill-5" fill="#009190" mask="url(#mask-17)"></path>
                        </g>
                        <path d="M23.5,32 C23.3682692,32 23.2384615,32.055 23.1423077,32.149 C23.0528846,32.241 23,32.369 23,32.5 C23,32.631 23.0528846,32.758 23.1432692,32.85 C23.3307692,33.039 23.6692308,33.039 23.8567308,32.85 C23.9471154,32.758 24,32.631 24,32.5 C24,32.369 23.9471154,32.241 23.8557692,32.147 C23.7615385,32.055 23.6317308,32 23.5,32" id="Fill-8" fill="#009190"></path>
                        <path d="M34.6048856,23.996 L36.3951144,23.996 C36.7289647,23.996 37,23.772 37,23.498 C37,23.224 36.7289647,23 36.3951144,23 L34.6048856,23 C34.2710353,23 34,23.224 34,23.498 C34,23.772 34.2710353,23.996 34.6048856,23.996" id="Fill-10" fill="#009190"></path>
                    </g>
                </g>
            </g>
        </g>
    </g>
</svg>