<svg width="376" height="341" viewBox="0 0 376 341" fill="none" xmlns="http://www.w3.org/2000/svg">
<path fill-rule="evenodd" clip-rule="evenodd" d="M191.538 9.5C169.859 9.5 149.279 14.1952 130.757 22.6236L130.343 21.7134C148.993 13.227 169.714 8.5 191.538 8.5C212.001 8.5 231.495 12.656 249.221 20.1705L248.83 21.0912C231.226 13.6281 211.864 9.5 191.538 9.5ZM338.11 146.428C336.452 121.7 328.674 98.6485 316.279 78.7741L317.128 78.2449C329.607 98.2551 337.438 121.465 339.108 146.361C339.33 149.68 339.444 153.03 339.444 156.406H338.444C338.444 153.052 338.331 149.725 338.11 146.428ZM62.9686 85.2771C52.8991 103.439 46.5664 123.96 45.0085 145.801C44.7586 149.304 44.6316 152.84 44.6316 156.406H43.6316C43.6316 152.816 43.7595 149.256 44.011 145.73C45.5795 123.74 51.9556 103.079 62.094 84.7922L62.9686 85.2771ZM248.935 291.677C274.224 280.933 295.883 263.303 311.558 241.141L312.375 241.718C296.594 264.031 274.788 281.78 249.326 292.597L248.935 291.677ZM73.487 243.86C88.5637 264.178 108.761 280.468 132.17 290.822L131.765 291.737C108.197 281.312 87.8625 264.911 72.684 244.456L73.487 243.86Z" fill="#4BC8C8"/>
<path fill-rule="evenodd" clip-rule="evenodd" d="M190.3 87.9693C153.08 87.9693 122.906 118.142 122.906 155.363C122.906 192.581 153.08 222.756 190.3 222.756C227.521 222.756 257.695 192.581 257.695 155.363C257.695 118.142 227.521 87.9693 190.3 87.9693ZM122.006 155.363C122.006 117.645 152.583 87.0693 190.3 87.0693C228.018 87.0693 258.595 117.645 258.595 155.363C258.595 193.078 228.018 223.656 190.3 223.656C152.583 223.656 122.006 193.078 122.006 155.363Z" fill="#009190"/>
<path fill-rule="evenodd" clip-rule="evenodd" d="M190.3 100.547C160.027 100.547 135.486 125.09 135.486 155.363C135.486 185.635 160.026 210.177 190.3 210.177C220.575 210.177 245.116 185.635 245.116 155.363C245.116 125.09 220.575 100.547 190.3 100.547ZM134.736 155.363C134.736 124.676 159.612 99.7974 190.3 99.7974C220.989 99.7974 245.866 124.676 245.866 155.363C245.866 186.049 220.989 210.927 190.3 210.927C159.612 210.927 134.736 186.049 134.736 155.363Z" fill="#009190"/>
<path fill-rule="evenodd" clip-rule="evenodd" d="M219.198 256.249C219.198 259.498 216.567 262.131 213.319 262.131C210.073 262.131 207.439 259.498 207.439 256.249C207.439 253.005 210.073 250.368 213.319 250.368C216.567 250.368 219.198 253.005 219.198 256.249Z" fill="#009190"/>
<path fill-rule="evenodd" clip-rule="evenodd" d="M245.517 64.4048C245.517 67.6535 242.886 70.2861 239.637 70.2861C236.388 70.2861 233.757 67.6535 233.757 64.4048C233.757 61.1607 236.388 58.5234 239.637 58.5234C242.886 58.5234 245.517 61.1607 245.517 64.4048Z" fill="#009190"/>
<path fill-rule="evenodd" clip-rule="evenodd" d="M99.8261 194.687C99.8261 197.934 97.192 200.567 93.9464 200.567C90.6976 200.567 88.0635 197.934 88.0635 194.687C88.0635 191.441 90.6976 188.806 93.9464 188.806C97.192 188.806 99.8261 191.441 99.8261 194.687Z" fill="#009190"/>
<path fill-rule="evenodd" clip-rule="evenodd" d="M297.871 183.476C297.871 186.725 295.237 189.357 291.988 189.357C288.743 189.357 286.109 186.725 286.109 183.476C286.109 180.232 288.743 177.595 291.988 177.595C295.237 177.595 297.871 180.232 297.871 183.476Z" fill="#009190"/>
<path fill-rule="evenodd" clip-rule="evenodd" d="M117.499 86.1675C117.499 89.4162 114.868 92.0488 111.619 92.0488C108.37 92.0488 105.736 89.4162 105.736 86.1675C105.736 82.9234 108.37 80.2861 111.619 80.2861C114.868 80.2861 117.499 82.9234 117.499 86.1675Z" fill="#009190"/>
<path fill-rule="evenodd" clip-rule="evenodd" d="M190.299 51.6724C133.034 51.6724 86.6116 98.0962 86.6116 155.363C86.6116 212.629 133.034 259.053 190.299 259.053C247.565 259.053 293.99 212.629 293.99 155.363C293.99 98.0962 247.565 51.6724 190.299 51.6724ZM85.6116 155.363C85.6116 97.5439 132.482 50.6724 190.299 50.6724C248.117 50.6724 294.99 97.5439 294.99 155.363C294.99 213.181 248.117 260.053 190.299 260.053C132.482 260.053 85.6116 213.181 85.6116 155.363Z" fill="#009190"/>
<path fill-rule="evenodd" clip-rule="evenodd" d="M190.299 72.5103C144.542 72.5103 107.448 109.605 107.448 155.363C107.448 201.12 144.542 238.215 190.299 238.215C236.056 238.215 273.151 201.12 273.151 155.363C273.151 109.605 236.056 72.5103 190.299 72.5103ZM106.448 155.363C106.448 109.053 143.99 71.5103 190.299 71.5103C236.609 71.5103 274.151 109.053 274.151 155.363C274.151 201.673 236.609 239.215 190.299 239.215C143.99 239.215 106.448 201.673 106.448 155.363Z" fill="#009190"/>
<path fill-rule="evenodd" clip-rule="evenodd" d="M210.165 88.6816C210.165 91.9304 207.534 94.563 204.285 94.563C201.036 94.563 198.402 91.9304 198.402 88.6816C198.402 85.4376 201.036 82.8003 204.285 82.8003C207.534 82.8003 210.165 85.4376 210.165 88.6816Z" fill="#7EC7C5"/>
<path fill-rule="evenodd" clip-rule="evenodd" d="M142.835 222.044C142.835 225.293 140.204 227.925 136.956 227.925C133.707 227.925 131.073 225.293 131.073 222.044C131.073 218.8 133.707 216.163 136.956 216.163C140.204 216.163 142.835 218.8 142.835 222.044Z" fill="#7EC7C5"/>
<path fill-rule="evenodd" clip-rule="evenodd" d="M243.462 182.011C243.462 185.259 240.831 187.892 237.582 187.892C234.337 187.892 231.702 185.259 231.702 182.011C231.702 178.767 234.337 176.129 237.582 176.129C240.831 176.129 243.462 178.767 243.462 182.011Z" fill="#7EC7C5"/>
<path fill-rule="evenodd" clip-rule="evenodd" d="M132.202 134.249C132.202 137.498 129.571 140.131 126.322 140.131C123.073 140.131 120.439 137.498 120.439 134.249C120.439 131.005 123.073 128.368 126.322 128.368C129.571 128.368 132.202 131.005 132.202 134.249Z" fill="#7EC7C5"/>
<path fill-rule="evenodd" clip-rule="evenodd" d="M179.26 291.001C179.26 291.277 179.576 291.501 179.966 291.501H186.554C186.944 291.501 187.26 291.277 187.26 291.001C187.26 290.724 186.944 290.501 186.554 290.501H179.966C179.576 290.501 179.26 290.724 179.26 291.001Z" fill="#009190"/>
<path fill-rule="evenodd" clip-rule="evenodd" d="M175.927 288.501H178.593C178.961 288.501 179.26 288.277 179.26 288.001C179.26 287.725 178.961 287.501 178.593 287.501H175.927C175.558 287.501 175.26 287.725 175.26 288.001C175.26 288.277 175.558 288.501 175.927 288.501Z" fill="#009190"/>
<mask id="mask0" mask-type="alpha" maskUnits="userSpaceOnUse" x="184" y="274" width="22" height="18">
<path fill-rule="evenodd" clip-rule="evenodd" d="M184.442 274.451H205.405V291.029H184.442V274.451Z" fill="white"/>
</mask>
<g mask="url(#mask0)">
<path fill-rule="evenodd" clip-rule="evenodd" d="M188.342 279.244V289.371C188.342 290.285 189.107 291.028 190.049 291.028H199.799C200.74 291.028 201.505 290.285 201.505 289.371V279.244L205.192 275.663C205.477 275.385 205.477 274.935 205.192 274.659C204.906 274.381 204.441 274.381 204.157 274.659L200.471 278.239H189.376L185.69 274.659C185.404 274.381 184.941 274.381 184.655 274.659C184.37 274.935 184.37 275.385 184.655 275.663L188.342 279.244ZM189.804 279.66H200.041V289.371C200.041 289.501 199.934 289.608 199.799 289.608H190.049C189.913 289.608 189.804 289.502 189.804 289.371V279.66Z" fill="#009190"/>
</g>
<path fill-rule="evenodd" clip-rule="evenodd" d="M182.927 288.501H185.593C185.961 288.501 186.26 288.277 186.26 288.001C186.26 287.725 185.961 287.501 185.593 287.501H182.927C182.559 287.501 182.26 287.725 182.26 288.001C182.26 288.277 182.559 288.501 182.927 288.501Z" fill="#009190"/>
<path fill-rule="evenodd" clip-rule="evenodd" d="M210.26 298.501C210.26 296.847 208.914 295.501 207.261 295.501C205.606 295.501 204.26 296.847 204.26 298.501C204.26 300.155 205.606 301.501 207.261 301.501C208.914 301.501 210.26 300.155 210.26 298.501ZM205.645 298.501C205.645 297.611 206.37 296.885 207.261 296.885C208.151 296.885 208.876 297.611 208.876 298.501C208.876 299.391 208.151 300.117 207.261 300.117C206.37 300.117 205.645 299.391 205.645 298.501Z" fill="#009190"/>
<path fill-rule="evenodd" clip-rule="evenodd" d="M187.26 298.501C187.26 300.155 188.606 301.501 190.259 301.501C191.914 301.501 193.26 300.155 193.26 298.501C193.26 296.847 191.914 295.501 190.259 295.501C188.606 295.501 187.26 296.847 187.26 298.501ZM191.875 298.501C191.875 299.391 191.151 300.117 190.259 300.117C189.369 300.117 188.645 299.391 188.645 298.501C188.645 297.611 189.369 296.885 190.259 296.885C191.151 296.885 191.875 297.611 191.875 298.501Z" fill="#009190"/>
<mask id="mask1" mask-type="alpha" maskUnits="userSpaceOnUse" x="167" y="293" width="47" height="28">
<path fill-rule="evenodd" clip-rule="evenodd" d="M167.26 293.484H213.258V320.501H167.26V293.484Z" fill="white"/>
</mask>
<g mask="url(#mask1)">
<path fill-rule="evenodd" clip-rule="evenodd" d="M212.531 319.027H210.352V317.799C210.352 316.309 209.157 315.098 207.69 315.098H206.479V309.946V309.936V305.765H207.206C210.543 305.765 213.258 303.01 213.258 299.625C213.258 296.239 210.543 293.484 207.206 293.484H203.816C203.415 293.484 203.09 293.815 203.09 294.222C203.09 294.628 203.415 294.959 203.816 294.959H207.206C209.741 294.959 211.806 297.052 211.806 299.625C211.806 302.198 209.741 304.291 207.206 304.291H199.949H199.938H196.074H196.064H184.454H184.444H180.581H180.569H173.312C170.776 304.291 168.712 302.198 168.712 299.625C168.712 297.052 170.776 294.959 173.312 294.959H200.912C201.312 294.959 201.637 294.628 201.637 294.222C201.637 293.815 201.312 293.484 200.912 293.484H173.312C169.974 293.484 167.26 296.239 167.26 299.625C167.26 303.01 169.974 305.765 173.312 305.765H174.038V309.936V309.946V315.098H172.829C171.36 315.098 170.165 316.309 170.165 317.799V319.027H167.987C167.585 319.027 167.26 319.358 167.26 319.764C167.26 320.171 167.585 320.501 167.987 320.501H172.829C173.229 320.501 173.554 320.171 173.554 319.764C173.554 319.358 173.229 319.027 172.829 319.027H171.618V317.799C171.618 317.122 172.162 316.572 172.829 316.572H176.702C177.37 316.572 177.912 317.122 177.912 317.799V319.027H175.733C175.331 319.027 175.007 319.358 175.007 319.764C175.007 320.171 175.331 320.501 175.733 320.501H212.531C212.934 320.501 213.258 320.171 213.258 319.764C213.258 319.358 212.934 319.027 212.531 319.027ZM205.027 305.765V308.366L201.949 305.765H205.027ZM190.986 305.765H194.063L190.986 308.366V305.765ZM189.532 305.765V308.366L186.455 305.765H189.532ZM175.491 305.765H178.569L175.491 308.366V305.765ZM185.659 317.799V319.027H179.365V317.799C179.365 316.309 178.17 315.098 176.702 315.098H175.491V310.286L180.838 305.765H184.186L189.532 310.286V315.098H188.321C186.854 315.098 185.659 316.309 185.659 317.799ZM193.406 319.027H187.112V317.799C187.112 317.122 187.654 316.572 188.323 316.572H192.196C192.863 316.572 193.406 317.122 193.406 317.799V319.027ZM201.153 317.799V319.027H194.859V317.799C194.859 316.309 193.664 315.098 192.195 315.098H190.986V310.286L196.332 305.765H199.68L205.027 310.286V315.098H203.816C202.348 315.098 201.153 316.309 201.153 317.799ZM208.901 319.027H202.606V317.799C202.606 317.122 203.149 316.572 203.816 316.572H207.69C208.357 316.572 208.901 317.122 208.901 317.799V319.027Z" fill="#009190"/>
</g>
<path fill-rule="evenodd" clip-rule="evenodd" d="M170.26 298.501C170.26 300.155 171.606 301.501 173.259 301.501C174.914 301.501 176.26 300.155 176.26 298.501C176.26 296.847 174.914 295.501 173.259 295.501C171.606 295.501 170.26 296.847 170.26 298.501ZM174.875 298.501C174.875 299.391 174.151 300.117 173.259 300.117C172.369 300.117 171.645 299.391 171.645 298.501C171.645 297.611 172.369 296.885 173.259 296.885C174.151 296.885 174.875 297.611 174.875 298.501Z" fill="#009190"/>
<mask id="mask2" mask-type="alpha" maskUnits="userSpaceOnUse" x="268" y="0" width="44" height="44">
<path fill-rule="evenodd" clip-rule="evenodd" d="M268 0H311.913V43.9132H268V0Z" fill="white"/>
</mask>
<g mask="url(#mask2)">
<path fill-rule="evenodd" clip-rule="evenodd" d="M275.868 7.40563L276.094 7.01518C276.47 6.36351 277.17 5.95883 277.921 5.95883H277.923L278.183 5.95901V5.97888C278.816 6.08493 279.366 6.45507 279.707 7.00902L279.95 7.40563H275.868ZM294.325 7.40571H297.623V1.33067H294.325V7.40571ZM282.551 30.9533H302.917C304.304 30.9533 305.433 29.8244 305.433 28.4366V24.7337C305.433 24.0797 305.965 23.5476 306.619 23.5476H309.397C310.784 23.5476 311.913 22.4187 311.913 21.0309V2.51677C311.913 1.12899 310.784 0 309.396 0H290.882C289.495 0 288.366 1.12899 288.366 2.51677V21.0309C288.366 22.4187 289.495 23.5476 290.882 23.5476H301.73V22.217H290.882C290.228 22.217 289.696 21.6849 289.696 21.0309V2.51677C289.696 1.86275 290.228 1.33067 290.882 1.33067H292.994V8.07101C292.994 8.43793 293.293 8.73639 293.659 8.73639H298.288C298.655 8.73639 298.953 8.43793 298.953 8.07101V1.33067H309.396C310.051 1.33067 310.583 1.86275 310.583 2.51677V21.0309C310.583 21.6849 310.051 22.217 309.396 22.217H306.619C305.232 22.217 304.103 23.3459 304.103 24.7337V28.4366C304.103 29.0907 303.571 29.6227 302.916 29.6227H282.551C281.897 29.6227 281.365 29.0907 281.365 28.4366V8.22835C281.379 7.5647 281.208 6.91798 280.872 6.35258L280.638 5.95918H285.993V4.6285L277.922 4.63015C277.918 4.63015 277.914 4.63007 277.911 4.63007C277.028 4.63007 276.192 4.96532 275.554 5.57464C275.086 6.0201 274.754 6.58577 274.591 7.21071L274.541 7.40563H272.368C269.963 7.40858 268.003 9.36827 268 11.7741V32.1394C268.003 34.545 269.963 36.5047 272.368 36.5076H281.886V38.9369L281.663 38.9695C279.89 39.2302 278.509 40.5939 278.228 42.3631L278.193 42.5825H276.331V43.9132H303.582V42.5825H301.721L301.686 42.3631C301.404 40.5939 300.024 39.2302 298.25 38.9695L298.028 38.9369V36.5075H307.545C309.951 36.5046 311.91 34.5449 311.913 32.1391V24.9941H310.583V32.1394C310.583 33.8142 309.22 35.1768 307.545 35.1768H290.217V36.5075H296.697V39.5451C296.697 39.91 296.992 40.2071 297.356 40.2104C297.456 40.2055 297.556 40.2055 297.656 40.2108C298.862 40.2748 299.913 41.0921 300.273 42.2448L300.378 42.5825H279.536L279.64 42.245C280.034 40.9792 281.232 40.1428 282.556 40.2104H289.696V38.8797H283.216V35.8422C283.216 35.4754 282.918 35.1768 282.551 35.1768H272.368C270.693 35.1768 269.331 33.8142 269.331 32.1394V30.0276H277.662V28.6969H269.331V11.7739C269.331 10.099 270.693 8.73639 272.368 8.73639H280.034V28.4366C280.034 29.8244 281.163 30.9533 282.551 30.9533Z" fill="#0F9696"/>
</g>
<path fill-rule="evenodd" clip-rule="evenodd" d="M271.703 13.6252V15.2162H273.034V13.6252C273.034 12.9712 273.566 12.4391 274.22 12.4391H275.811V11.1084H274.22C272.832 11.1084 271.703 12.2374 271.703 13.6252Z" fill="#0F9696"/>
<mask id="mask3" mask-type="alpha" maskUnits="userSpaceOnUse" x="268" y="0" width="44" height="44">
<path fill-rule="evenodd" clip-rule="evenodd" d="M268 43.9132H311.913V0H268V43.9132Z" fill="white"/>
</mask>
<g mask="url(#mask3)">
<path fill-rule="evenodd" clip-rule="evenodd" d="M283.737 27.2506H298.028V25.9199H283.737V27.2506Z" fill="#0F9696"/>
<path fill-rule="evenodd" clip-rule="evenodd" d="M300.4 27.2506H301.73V25.9199H300.4V27.2506Z" fill="#0F9696"/>
<path fill-rule="evenodd" clip-rule="evenodd" d="M283.737 23.548H286.919V22.2173H283.737V23.548Z" fill="#0F9696"/>
<path fill-rule="evenodd" clip-rule="evenodd" d="M283.737 19.8448H286.919V18.5142H283.737V19.8448Z" fill="#0F9696"/>
<path fill-rule="evenodd" clip-rule="evenodd" d="M283.737 16.1422H286.919V14.8115H283.737V16.1422Z" fill="#0F9696"/>
<path fill-rule="evenodd" clip-rule="evenodd" d="M283.737 12.4391H286.919V11.1084H283.737V12.4391Z" fill="#0F9696"/>
</g>
<path fill-rule="evenodd" clip-rule="evenodd" d="M328.981 171.476H323.244C322.905 171.476 322.629 171.719 322.629 172.018V210.232C322.629 210.531 322.905 210.774 323.244 210.774L345.656 210.742L345.832 210.671L345.814 210.638L345.863 210.658L354.614 202.659L354.61 202.603L354.624 202.61L354.686 202.486L354.71 202.387L354.706 172.018C354.706 171.719 354.43 171.476 354.092 171.476H348.355V169.235H357.11V212.601H320.226V169.235H328.981V171.476ZM352.652 202.882L346.086 208.894V202.882H352.652ZM329.593 175.466H347.742C348.08 175.466 348.355 175.224 348.355 174.926V172.559H353.481V201.8H345.473C345.136 201.8 344.861 202.043 344.861 202.341V209.691H323.855V172.559H328.981V174.926C328.981 175.224 329.255 175.466 329.593 175.466ZM330.206 174.384V169.235H333.297L333.354 169.236L333.634 169.142L333.687 169.101L333.892 168.823L333.914 168.773C334.299 166.633 336.298 165.081 338.668 165.081C341.033 165.081 343.037 166.636 343.431 168.78L343.546 169.028L343.579 169.07L343.644 169.116L344.001 169.23L347.13 169.234V174.384H330.206ZM357.724 168.154H344.537L344.485 167.988C343.732 165.603 341.394 164 338.668 164C335.941 164 333.603 165.603 332.85 167.988L332.798 168.154H319.611C319.274 168.154 319 168.397 319 168.695V213.141C319 213.439 319.274 213.681 319.611 213.681H357.724C358.061 213.681 358.335 213.439 358.335 213.141V168.695C358.335 168.397 358.061 168.154 357.724 168.154Z" fill="#009090"/>
<path fill-rule="evenodd" clip-rule="evenodd" d="M330.793 189.776C330.793 185.101 334.595 181.297 339.27 181.297C343.946 181.297 347.749 185.101 347.749 189.776C347.749 194.451 343.946 198.254 339.27 198.254C334.595 198.254 330.793 194.451 330.793 189.776ZM339.27 199.573C344.674 199.573 349.069 195.178 349.069 189.776C349.069 184.373 344.674 179.978 339.27 179.978C333.868 179.978 329.472 184.373 329.472 189.776C329.472 195.178 333.868 199.573 339.27 199.573Z" fill="#009090"/>
<path fill-rule="evenodd" clip-rule="evenodd" d="M336.156 194.169H336.159C336.334 194.168 336.503 194.099 336.619 193.981L343.892 186.712C344.149 186.454 344.149 186.034 343.892 185.777C343.634 185.52 343.213 185.521 342.956 185.778L336.155 192.581L334.131 190.555C333.879 190.306 333.447 190.307 333.196 190.555C332.94 190.813 332.94 191.231 333.196 191.488L335.69 193.981C335.81 194.1 335.979 194.169 336.156 194.169Z" fill="#009090"/>
<mask id="mask4" mask-type="alpha" maskUnits="userSpaceOnUse" x="25" y="168" width="47" height="49">
<path fill-rule="evenodd" clip-rule="evenodd" d="M25.26 168.501H71.26V216.501H25.26V168.501Z" fill="white"/>
</mask>
<g mask="url(#mask4)">
<path fill-rule="evenodd" clip-rule="evenodd" d="M68.5375 210.892H66.4463L66.4227 194.97H64.9939L65.0196 210.892H62.34C62.4279 210.562 62.4032 210.906 62.4032 204.811C62.4032 204.366 62.2446 203.956 61.9809 203.634C62.2446 203.312 62.4032 202.902 62.4032 202.457V196.848C62.4032 195.813 61.5479 194.97 60.4953 194.97H55.6248C55.7127 194.637 55.6891 194.986 55.6891 188.887C55.6891 187.852 54.8327 187.009 53.7801 187.009H42.7399C41.6874 187.009 40.8309 187.852 40.8309 188.887C40.8309 195.007 40.8074 194.637 40.8953 194.97H36.0247C34.9732 194.97 34.1168 195.813 34.1168 196.848V202.457C34.1168 202.902 34.2754 203.312 34.5391 203.634C34.2754 203.956 34.1168 204.366 34.1168 204.811C34.1168 210.929 34.0932 210.562 34.18 210.892H31.5015V186.076L48.26 174.737L65.0196 186.076V195.349H66.4463V187.035C67.7529 187.838 69.4507 187.472 70.3114 186.239C71.2053 184.958 70.8731 183.199 69.574 182.32L54.7062 172.258L53.8948 173.417L68.7647 183.48C69.9234 184.263 69.3532 186.055 67.9512 186.055C67.6618 186.055 67.382 185.969 67.1419 185.806L48.6641 173.303C48.4197 173.139 48.0982 173.139 47.8559 173.303C46.4282 174.268 30.2002 185.252 29.3781 185.806C28.7264 186.247 27.8325 186.085 27.3855 185.443C26.9375 184.8 27.1036 183.919 27.7553 183.48L47.4486 170.152C47.9342 169.824 48.5859 169.824 49.0714 170.152L53.8969 173.417L54.7062 172.258L49.8796 168.993C48.9106 168.337 47.6094 168.337 46.6404 168.993L26.9471 182.318C25.647 183.199 25.3157 184.958 26.2086 186.239C27.0757 187.483 28.7843 187.827 30.0737 187.039V210.892H27.9825C26.4819 210.892 25.26 212.097 25.26 213.573V213.82C25.26 215.299 26.4819 216.501 27.9825 216.501H68.5375C70.0381 216.501 71.26 215.299 71.26 213.82V213.573C71.26 212.094 70.0381 210.892 68.5375 210.892ZM54.0084 207.891H55.941C57.045 207.891 57.9432 207.008 57.9432 205.919V204.337H60.4953C60.7601 204.337 60.9755 204.549 60.9755 204.811V210.42C60.9755 210.679 60.7601 210.892 60.4953 210.892H49.4541C49.1893 210.892 48.9739 210.679 48.9739 210.42V204.811C48.9739 204.549 49.1893 204.337 49.4541 204.337H52.0072V205.919C52.0072 207.008 52.9044 207.891 54.0084 207.891ZM53.4339 204.337H56.5155V205.919C56.5155 206.231 56.2572 206.484 55.941 206.484H54.0084C53.6911 206.484 53.4339 206.231 53.4339 205.919V204.337ZM57.9432 197.958V196.376H60.4953C60.7601 196.376 60.9755 196.589 60.9755 196.848V202.459C60.9755 202.718 60.7601 202.931 60.4953 202.931H49.4541C49.1893 202.931 48.9739 202.718 48.9739 202.459V196.848C48.9739 196.589 49.1893 196.376 49.4541 196.376H52.0072V197.958C52.0072 199.047 52.9044 199.932 54.0084 199.932H55.941C57.045 199.932 57.9432 199.047 57.9432 197.958ZM56.5155 196.376V197.958C56.5155 198.272 56.2572 198.523 55.941 198.523H54.0084C53.6911 198.523 53.4339 198.272 53.4339 197.958V196.376H56.5155ZM46.7197 188.415H49.8013V189.997C49.8013 190.309 49.543 190.564 49.2268 190.564H47.2943C46.977 190.564 46.7197 190.309 46.7197 189.997V188.415ZM42.2587 188.887C42.2587 188.628 42.4752 188.415 42.7399 188.415H45.292V189.997C45.292 191.084 46.1892 191.969 47.2943 191.969H49.2268C50.3308 191.969 51.2291 191.084 51.2291 189.997V188.415H53.7801C54.0448 188.415 54.2614 188.628 54.2614 188.887V194.496C54.2614 194.757 54.0448 194.97 53.7801 194.97H42.7399C42.4752 194.97 42.2597 194.757 42.2597 194.496V188.887H42.2587ZM40.0045 196.376H43.0861V197.958C43.0861 198.272 42.8289 198.523 42.5116 198.523H40.5791C40.2618 198.523 40.0045 198.272 40.0045 197.958V196.376ZM35.5445 196.848C35.5445 196.589 35.76 196.376 36.0247 196.376H38.5768V197.958C38.5768 199.047 39.475 199.932 40.5801 199.932H42.5116C43.6156 199.932 44.5139 199.047 44.5139 197.958V196.376H47.066C47.3307 196.376 47.5462 196.589 47.5462 196.848V202.459C47.5462 202.718 47.3307 202.931 47.066 202.931H36.0247C35.76 202.931 35.5445 202.718 35.5445 202.459V196.848ZM43.0861 204.337V205.919C43.0861 206.231 42.8289 206.484 42.5116 206.484H40.5791C40.2618 206.484 40.0045 206.231 40.0045 205.919V204.337H43.0861ZM35.5445 204.811C35.5445 204.549 35.76 204.337 36.0247 204.337H38.5768V205.919C38.5768 207.008 39.475 207.891 40.5801 207.891H42.5116C43.6156 207.891 44.5139 207.008 44.5139 205.919V204.337H47.066C47.3307 204.337 47.5462 204.549 47.5462 204.811V210.42C47.5462 210.679 47.3307 210.892 47.066 210.892H36.0247C35.76 210.892 35.5445 210.679 35.5445 210.42V204.811ZM69.8323 213.82C69.8323 214.523 69.2503 215.097 68.5375 215.097H27.9825C27.2687 215.097 26.6877 214.523 26.6877 213.82V213.573C26.6877 212.872 27.2687 212.298 27.9825 212.298H68.5375C69.2503 212.298 69.8323 212.872 69.8323 213.573V213.82Z" fill="#009190"/>
</g>
<path fill-rule="evenodd" clip-rule="evenodd" d="M67.3685 39.8778C67.0201 39.8778 66.7373 40.1594 66.7373 40.5037C66.7373 41.1935 66.1814 41.7531 65.4991 41.7531C64.8169 41.7531 64.261 41.1935 64.261 40.5037C64.261 39.8127 64.8169 39.2518 65.4991 39.2518C65.8475 39.2518 66.1304 38.9714 66.1304 38.6284C66.1304 38.2841 65.8475 38.0024 65.4991 38.0024C64.1214 38.0024 62.9998 39.1241 62.9998 40.5037C62.9998 41.882 64.1214 43.0024 65.4991 43.0024C66.8781 43.0024 67.9998 41.882 67.9998 40.5037C67.9998 40.1594 67.7169 39.8778 67.3685 39.8778Z" fill="#009190"/>
<path fill-rule="evenodd" clip-rule="evenodd" d="M105.369 39.8778C105.02 39.8778 104.737 40.1594 104.737 40.5037C104.737 41.1935 104.181 41.7531 103.499 41.7531C102.817 41.7531 102.262 41.1935 102.262 40.5037C102.262 39.8127 102.817 39.2518 103.499 39.2518C103.848 39.2518 104.13 38.9714 104.13 38.6284C104.13 38.2841 103.848 38.0024 103.499 38.0024C102.121 38.0024 101 39.1241 101 40.5037C101 41.882 102.121 43.0024 103.499 43.0024C104.878 43.0024 106 41.882 106 40.5037C106 40.1594 105.717 39.8778 105.369 39.8778Z" fill="#009190"/>
<mask id="mask5" mask-type="alpha" maskUnits="userSpaceOnUse" x="54" y="9" width="61" height="39">
<path fill-rule="evenodd" clip-rule="evenodd" d="M54 9H114.705V47.0017H54V9Z" fill="white"/>
</mask>
<g mask="url(#mask5)">
<path fill-rule="evenodd" clip-rule="evenodd" d="M113.41 30.6722H112.14C111.257 30.6722 110.536 31.3754 110.536 32.2397V33.1833C110.536 34.0501 111.257 34.7533 112.14 34.7533H113.41V37.267H109.266C109.214 37.267 109.161 37.2733 109.107 37.2858L108.904 37.3336L108.784 37.1613C107.585 35.4591 105.617 34.4413 103.517 34.4413C101.417 34.4413 99.4487 35.4591 98.2499 37.1613L98.1304 37.3336L97.9262 37.2871C97.8727 37.2733 97.8204 37.267 97.7681 37.267H95.5398V28.1561H113.41V30.6722ZM111.829 33.4978H113.41V31.9252H111.829V33.4978ZM103.517 45.7463C100.704 45.7463 98.4142 43.4919 98.4142 40.7216C98.4142 37.9501 100.704 35.6944 103.517 35.6944C106.331 35.6944 108.619 37.9501 108.619 40.7216C108.619 43.4919 106.331 45.7463 103.517 45.7463ZM97.3872 38.9289C97.2988 39.2207 97.2303 39.5214 97.1855 39.8246L97.1469 40.0926H84.9992V39.7781C84.9992 39.495 84.9507 39.2144 84.8535 38.9452L84.7004 38.5225H97.5117L97.3872 38.9289ZM70.9368 37.267C70.8846 37.267 70.8323 37.2733 70.7775 37.2871L70.5746 37.3336L70.4538 37.1613C69.2562 35.4591 67.2868 34.4414 65.1879 34.4414C63.0878 34.4414 61.1183 35.4591 59.9207 37.1613L59.8 37.3336L59.5971 37.2858C59.5423 37.2733 59.49 37.267 59.439 37.267H55.2934V31.9252H85.3104C85.6677 31.9252 85.9578 31.6434 85.9578 31.2987C85.9578 30.954 85.6677 30.6722 85.3104 30.6722H55.2934V10.2551H94.2451V37.267H70.9368ZM83.7045 41.6626C83.7045 42.3571 83.1356 42.9207 82.436 42.9207H76.6858C75.9861 42.9207 75.416 42.3571 75.416 41.6626V39.7781C75.416 39.0849 75.9861 38.5225 76.6858 38.5225H82.436C83.1356 38.5225 83.7045 39.0849 83.7045 39.7781V41.6626ZM74.2694 38.9452C74.1711 39.2144 74.1225 39.495 74.1225 39.7781V40.0926H71.5568L71.517 39.8234C71.4734 39.5227 71.4062 39.222 71.3165 38.9289L71.192 38.5225H74.4213L74.2694 38.9452ZM65.1879 45.7463C62.3744 45.7463 60.0851 43.4919 60.0851 40.7216C60.0851 37.9501 62.3744 35.6944 65.1879 35.6944C68.0001 35.6944 70.2895 37.9501 70.2895 40.7216C70.2895 43.4919 68.0001 45.7463 65.1879 45.7463ZM95.5398 24.3894L108.241 24.4083L111.659 25.6689C112.033 25.8563 112.338 26.0891 112.597 26.3759L113.075 26.903H95.5398V24.3894ZM95.5398 14.0255H102.582C103.993 14.0255 105.216 14.9174 105.628 16.246L107.471 23.1339H95.5398V14.0255ZM114.705 27.5295C114.705 27.3622 114.636 27.205 114.513 27.0842L114.439 26.9684C114.05 25.9142 113.266 25.0512 112.23 24.5391L108.85 23.2899L106.878 15.9252C106.301 14.0293 104.576 12.7699 102.582 12.7699H95.5398V10.5696C95.5398 9.70403 94.819 8.99951 93.9338 8.99951H55.6047C54.7196 8.99951 54 9.70403 54 10.5696V36.9524C54 37.8193 54.7196 38.5225 55.6047 38.5225H59.1813L59.0568 38.9289C58.9696 39.2182 58.9012 39.5189 58.8563 39.8246L58.8165 40.0926H54.6473C54.2901 40.0926 54 40.3756 54 40.7216C54 41.0676 54.2901 41.3481 54.6473 41.3481H58.8178L58.8576 41.6174C59.3058 44.6883 62.0271 47.0019 65.1879 47.0019C68.3474 47.0019 71.0688 44.6883 71.517 41.6174L71.5568 41.3481H74.1225V41.6626C74.1225 43.049 75.2728 44.1763 76.6858 44.1763H82.436C83.8489 44.1763 84.9992 43.049 84.9992 41.6626V41.3481H97.1482L97.1868 41.6174C97.6349 44.6883 100.356 47.0019 103.517 47.0019C106.678 47.0019 109.399 44.6883 109.846 41.6174L109.886 41.3481H114.058C114.414 41.3481 114.705 41.0676 114.705 40.7216C114.705 40.3756 114.414 40.0926 114.058 40.0926H109.886L109.846 39.8234C109.803 39.5189 109.735 39.2195 109.647 38.9301L109.521 38.5225H113.099C113.984 38.5225 114.705 37.8193 114.705 36.9524V28.4706C114.705 28.2643 114.69 28.063 114.661 27.8617L114.651 27.7887L114.675 27.7183C114.695 27.6579 114.705 27.595 114.705 27.5295Z" fill="#009190"/>
</g>
<path fill-rule="evenodd" clip-rule="evenodd" d="M77.4998 40.0024C77.368 40.0024 77.2382 40.0574 77.1421 40.1514C77.0526 40.2434 76.9998 40.3714 76.9998 40.5024C76.9998 40.6334 77.0526 40.7604 77.143 40.8524C77.3305 41.0414 77.669 41.0414 77.8565 40.8524C77.9469 40.7604 77.9998 40.6334 77.9998 40.5024C77.9998 40.3714 77.9469 40.2434 77.8555 40.1494C77.7613 40.0574 77.6315 40.0024 77.4998 40.0024Z" fill="#009190"/>
<path fill-rule="evenodd" clip-rule="evenodd" d="M88.6046 31.9984H90.3949C90.7287 31.9984 90.9998 31.7744 90.9998 31.5004C90.9998 31.2264 90.7287 31.0024 90.3949 31.0024H88.6046C88.2708 31.0024 87.9998 31.2264 87.9998 31.5004C87.9998 31.7744 88.2708 31.9984 88.6046 31.9984Z" fill="#009190"/>
<path fill-rule="evenodd" clip-rule="evenodd" d="M184.527 146.423C184.803 146.423 185.027 146.647 185.027 146.923V159.566C185.027 159.842 184.803 160.066 184.527 160.066C184.251 160.066 184.027 159.842 184.027 159.566V146.923C184.027 146.647 184.251 146.423 184.527 146.423Z" fill="url(#paint0_linear)"/>
<path d="M190.629 129.418L190.763 149.173L172.743 146.981L172.59 127.244L190.629 129.418Z" fill="url(#paint1_linear)"/>
<path d="M190.629 129.418L201.766 124.174L201.899 143.929L190.763 149.173L190.629 129.418Z" fill="url(#paint2_linear)"/>
<path d="M172.59 127.244L183.726 122L201.766 124.174L190.629 129.418L172.59 127.244Z" fill="#389495"/>
<path d="M213.836 159.566L213.97 177.338L197.742 175.374L197.608 157.602L213.836 159.566Z" fill="url(#paint3_linear)"/>
<path d="M213.836 159.566L223.866 154.837L224 172.628L213.97 177.338L213.836 159.566Z" fill="url(#paint4_linear)"/>
<path d="M197.608 157.602L207.639 152.892L223.866 154.837L213.836 159.566L197.608 157.602Z" fill="#389495"/>
<path d="M174.039 163.742L174.173 183.478L156.133 181.304L156 161.549L174.039 163.742Z" fill="url(#paint5_linear)"/>
<path d="M174.039 163.742L185.176 158.498L185.309 178.234L174.173 183.478L174.039 163.742Z" fill="url(#paint6_linear)"/>
<path d="M156 161.549L167.136 156.324L185.176 158.498L174.039 163.742L156 161.549Z" fill="#389495"/>
<path fill-rule="evenodd" clip-rule="evenodd" d="M197.112 136.608C197.142 136.334 197.39 136.136 197.664 136.167L211.342 137.705V156.553C211.342 156.829 211.118 157.053 210.842 157.053C210.566 157.053 210.342 156.829 210.342 156.553V138.598L197.553 137.161C197.278 137.13 197.081 136.883 197.112 136.608Z" fill="url(#paint7_linear)"/>
<path fill-rule="evenodd" clip-rule="evenodd" d="M205.634 169.141C205.748 169.393 205.637 169.689 205.386 169.803L195.954 174.094L180.465 172.286C180.19 172.254 179.994 172.005 180.026 171.731C180.058 171.457 180.306 171.26 180.581 171.292L195.793 173.069L204.972 168.893C205.223 168.779 205.52 168.89 205.634 169.141Z" fill="url(#paint8_linear)"/>
<path d="M310.937 228.038V232H309.084V221.336H313.164C314.355 221.336 315.3 221.646 315.998 222.266C316.701 222.886 317.053 223.707 317.053 224.727C317.053 225.772 316.708 226.585 316.02 227.166C315.336 227.747 314.377 228.038 313.142 228.038H310.937ZM310.937 226.551H313.164C313.823 226.551 314.326 226.397 314.672 226.089C315.019 225.777 315.192 225.328 315.192 224.742C315.192 224.166 315.017 223.707 314.665 223.365C314.313 223.018 313.83 222.84 313.215 222.83H310.937V226.551Z" fill="#0F9696"/>
<path d="M324.058 231.224C323.535 231.839 322.793 232.146 321.831 232.146C320.972 232.146 320.32 231.895 319.875 231.392C319.436 230.889 319.216 230.162 319.216 229.209V224.075H320.996V229.188C320.996 230.193 321.414 230.696 322.249 230.696C323.113 230.696 323.696 230.386 323.999 229.766V224.075H325.779V232H324.102L324.058 231.224Z" fill="#0F9696"/>
<path d="M332.491 225.701C332.256 225.662 332.015 225.643 331.766 225.643C330.95 225.643 330.401 225.955 330.118 226.58V232H328.338V224.075H330.037L330.081 224.961C330.511 224.273 331.106 223.929 331.868 223.929C332.122 223.929 332.332 223.963 332.498 224.031L332.491 225.701Z" fill="#0F9696"/>
<path d="M337.474 230.726C337.918 230.726 338.287 230.596 338.58 230.337C338.873 230.079 339.029 229.759 339.049 229.378H340.726C340.707 229.871 340.553 230.333 340.265 230.762C339.977 231.187 339.586 231.524 339.093 231.773C338.6 232.022 338.067 232.146 337.496 232.146C336.388 232.146 335.509 231.788 334.859 231.07C334.21 230.352 333.885 229.361 333.885 228.096V227.913C333.885 226.707 334.208 225.743 334.852 225.02C335.497 224.292 336.375 223.929 337.489 223.929C338.431 223.929 339.198 224.205 339.789 224.756C340.384 225.303 340.697 226.023 340.726 226.917H339.049C339.029 226.463 338.873 226.089 338.58 225.796C338.292 225.503 337.923 225.357 337.474 225.357C336.898 225.357 336.454 225.567 336.141 225.987C335.829 226.402 335.67 227.034 335.665 227.884V228.169C335.665 229.029 335.819 229.671 336.126 230.096C336.439 230.516 336.888 230.726 337.474 230.726Z" fill="#0F9696"/>
<path d="M344.574 224.939C345.155 224.266 345.89 223.929 346.779 223.929C348.468 223.929 349.325 224.893 349.35 226.822V232H347.57V226.888C347.57 226.341 347.45 225.955 347.211 225.73C346.977 225.501 346.63 225.386 346.171 225.386C345.458 225.386 344.926 225.704 344.574 226.338V232H342.794V220.75H344.574V224.939Z" fill="#0F9696"/>
<path d="M356.64 232C356.562 231.849 356.494 231.602 356.435 231.26C355.869 231.851 355.175 232.146 354.355 232.146C353.559 232.146 352.91 231.919 352.407 231.465C351.904 231.011 351.652 230.45 351.652 229.781C351.652 228.936 351.965 228.289 352.59 227.84C353.22 227.386 354.118 227.159 355.285 227.159H356.376V226.639C356.376 226.229 356.262 225.901 356.032 225.657C355.803 225.408 355.454 225.284 354.985 225.284C354.58 225.284 354.248 225.386 353.989 225.591C353.73 225.792 353.601 226.048 353.601 226.36H351.821C351.821 225.926 351.965 225.521 352.253 225.145C352.541 224.764 352.932 224.466 353.425 224.251C353.923 224.036 354.477 223.929 355.087 223.929C356.015 223.929 356.755 224.163 357.307 224.632C357.858 225.096 358.142 225.75 358.156 226.595V230.169C358.156 230.882 358.256 231.451 358.457 231.875V232H356.64ZM354.685 230.718C355.036 230.718 355.366 230.633 355.673 230.462C355.986 230.291 356.22 230.062 356.376 229.773V228.279H355.417C354.758 228.279 354.262 228.394 353.93 228.624C353.598 228.853 353.432 229.178 353.432 229.598C353.432 229.939 353.544 230.213 353.769 230.418C353.999 230.618 354.304 230.718 354.685 230.718Z" fill="#0F9696"/>
<path d="M365.212 229.847C365.212 229.529 365.081 229.288 364.817 229.122C364.558 228.956 364.126 228.809 363.521 228.682C362.915 228.555 362.41 228.394 362.004 228.199C361.116 227.769 360.671 227.146 360.671 226.331C360.671 225.647 360.959 225.076 361.536 224.617C362.112 224.158 362.844 223.929 363.733 223.929C364.68 223.929 365.444 224.163 366.025 224.632C366.611 225.101 366.904 225.708 366.904 226.456H365.125C365.125 226.114 364.998 225.831 364.744 225.606C364.49 225.376 364.153 225.262 363.733 225.262C363.342 225.262 363.022 225.352 362.773 225.533C362.529 225.713 362.407 225.955 362.407 226.258C362.407 226.531 362.522 226.744 362.751 226.895C362.981 227.046 363.445 227.2 364.143 227.356C364.841 227.508 365.388 227.691 365.784 227.906C366.184 228.116 366.479 228.37 366.67 228.667C366.865 228.965 366.963 229.327 366.963 229.751C366.963 230.464 366.667 231.043 366.077 231.487C365.486 231.927 364.712 232.146 363.755 232.146C363.105 232.146 362.527 232.029 362.019 231.795C361.511 231.561 361.116 231.238 360.833 230.828C360.549 230.418 360.408 229.976 360.408 229.502H362.136C362.161 229.922 362.319 230.247 362.612 230.477C362.905 230.701 363.293 230.813 363.777 230.813C364.246 230.813 364.602 230.726 364.846 230.55C365.09 230.369 365.212 230.135 365.212 229.847Z" fill="#0F9696"/>
<path d="M372.759 232.146C371.631 232.146 370.716 231.792 370.013 231.084C369.314 230.372 368.965 229.424 368.965 228.243V228.023C368.965 227.232 369.117 226.526 369.419 225.906C369.727 225.281 370.157 224.795 370.708 224.449C371.26 224.102 371.875 223.929 372.554 223.929C373.633 223.929 374.466 224.273 375.052 224.961C375.643 225.65 375.938 226.624 375.938 227.884V228.602H370.76C370.813 229.256 371.031 229.773 371.412 230.154C371.797 230.535 372.281 230.726 372.862 230.726C373.677 230.726 374.341 230.396 374.854 229.737L375.813 230.652C375.496 231.126 375.071 231.495 374.539 231.758C374.012 232.017 373.418 232.146 372.759 232.146ZM372.547 225.357C372.059 225.357 371.663 225.528 371.36 225.87C371.062 226.211 370.872 226.688 370.789 227.298H374.18V227.166C374.141 226.57 373.982 226.121 373.704 225.818C373.426 225.511 373.04 225.357 372.547 225.357Z" fill="#0F9696"/>
<path d="M154.937 336.038V340H153.084V329.336H157.164C158.355 329.336 159.3 329.646 159.998 330.266C160.701 330.886 161.053 331.707 161.053 332.727C161.053 333.772 160.708 334.585 160.02 335.166C159.336 335.747 158.377 336.038 157.142 336.038H154.937ZM154.937 334.551H157.164C157.823 334.551 158.326 334.397 158.672 334.089C159.019 333.777 159.192 333.328 159.192 332.742C159.192 332.166 159.017 331.707 158.665 331.365C158.313 331.018 157.83 330.84 157.215 330.83H154.937V334.551Z" fill="#0F9696"/>
<path d="M167.406 333.701C167.171 333.662 166.93 333.643 166.681 333.643C165.865 333.643 165.316 333.955 165.033 334.58V340H163.253V332.075H164.952L164.996 332.961C165.426 332.273 166.021 331.929 166.783 331.929C167.037 331.929 167.247 331.963 167.413 332.031L167.406 333.701Z" fill="#0F9696"/>
<path d="M168.683 335.964C168.683 335.188 168.837 334.49 169.145 333.87C169.452 333.245 169.884 332.766 170.441 332.434C170.998 332.097 171.637 331.929 172.36 331.929C173.429 331.929 174.296 332.273 174.96 332.961C175.629 333.65 175.99 334.563 176.044 335.701L176.051 336.118C176.051 336.899 175.9 337.598 175.597 338.213C175.299 338.828 174.87 339.304 174.308 339.641C173.751 339.978 173.107 340.146 172.375 340.146C171.256 340.146 170.36 339.775 169.687 339.033C169.018 338.286 168.683 337.292 168.683 336.052V335.964ZM170.463 336.118C170.463 336.934 170.631 337.573 170.968 338.037C171.305 338.496 171.774 338.726 172.375 338.726C172.975 338.726 173.441 338.491 173.773 338.022C174.11 337.554 174.279 336.868 174.279 335.964C174.279 335.164 174.105 334.529 173.759 334.06C173.417 333.591 172.951 333.357 172.36 333.357C171.779 333.357 171.317 333.589 170.976 334.053C170.634 334.512 170.463 335.2 170.463 336.118Z" fill="#0F9696"/>
<path d="M177.973 335.979C177.973 334.758 178.256 333.779 178.823 333.042C179.389 332.3 180.148 331.929 181.101 331.929C181.94 331.929 182.619 332.222 183.137 332.808V328.75H184.917V340H183.305L183.217 339.18C182.685 339.824 181.975 340.146 181.086 340.146C180.158 340.146 179.406 339.773 178.83 339.026C178.259 338.279 177.973 337.263 177.973 335.979ZM179.753 336.133C179.753 336.938 179.907 337.568 180.214 338.022C180.527 338.472 180.969 338.696 181.54 338.696C182.268 338.696 182.8 338.372 183.137 337.722V334.338C182.81 333.704 182.282 333.386 181.555 333.386C180.979 333.386 180.534 333.616 180.222 334.075C179.909 334.529 179.753 335.215 179.753 336.133Z" fill="#0F9696"/>
<path d="M192.324 339.224C191.802 339.839 191.06 340.146 190.098 340.146C189.238 340.146 188.586 339.895 188.142 339.392C187.703 338.889 187.483 338.162 187.483 337.209V332.075H189.263V337.188C189.263 338.193 189.68 338.696 190.515 338.696C191.379 338.696 191.963 338.386 192.266 337.766V332.075H194.045V340H192.368L192.324 339.224Z" fill="#0F9696"/>
<path d="M199.864 338.726C200.308 338.726 200.677 338.596 200.97 338.337C201.263 338.079 201.419 337.759 201.438 337.378H203.116C203.096 337.871 202.942 338.333 202.654 338.762C202.366 339.187 201.976 339.524 201.482 339.773C200.989 340.022 200.457 340.146 199.886 340.146C198.777 340.146 197.898 339.788 197.249 339.07C196.6 338.352 196.275 337.361 196.275 336.096V335.913C196.275 334.707 196.597 333.743 197.242 333.02C197.886 332.292 198.765 331.929 199.878 331.929C200.821 331.929 201.587 332.205 202.178 332.756C202.774 333.303 203.086 334.023 203.116 334.917H201.438C201.419 334.463 201.263 334.089 200.97 333.796C200.682 333.503 200.313 333.357 199.864 333.357C199.288 333.357 198.843 333.567 198.531 333.987C198.218 334.402 198.06 335.034 198.055 335.884V336.169C198.055 337.029 198.208 337.671 198.516 338.096C198.829 338.516 199.278 338.726 199.864 338.726Z" fill="#0F9696"/>
<path d="M207.44 330.149V332.075H208.839V333.394H207.44V337.817C207.44 338.12 207.499 338.34 207.616 338.477C207.738 338.608 207.953 338.674 208.26 338.674C208.465 338.674 208.673 338.65 208.883 338.601V339.978C208.478 340.09 208.087 340.146 207.711 340.146C206.344 340.146 205.66 339.392 205.66 337.883V333.394H204.356V332.075H205.66V330.149H207.44Z" fill="#0F9696"/>
<path d="M212.848 340H211.068V332.075H212.848V340ZM210.958 330.017C210.958 329.744 211.044 329.517 211.215 329.336C211.391 329.155 211.64 329.065 211.962 329.065C212.284 329.065 212.533 329.155 212.709 329.336C212.885 329.517 212.973 329.744 212.973 330.017C212.973 330.286 212.885 330.51 212.709 330.691C212.533 330.867 212.284 330.955 211.962 330.955C211.64 330.955 211.391 330.867 211.215 330.691C211.044 330.51 210.958 330.286 210.958 330.017Z" fill="#0F9696"/>
<path d="M215.209 335.964C215.209 335.188 215.363 334.49 215.671 333.87C215.979 333.245 216.411 332.766 216.967 332.434C217.524 332.097 218.164 331.929 218.886 331.929C219.956 331.929 220.822 332.273 221.486 332.961C222.155 333.65 222.517 334.563 222.57 335.701L222.578 336.118C222.578 336.899 222.426 337.598 222.124 338.213C221.826 338.828 221.396 339.304 220.834 339.641C220.278 339.978 219.633 340.146 218.901 340.146C217.783 340.146 216.887 339.775 216.213 339.033C215.544 338.286 215.209 337.292 215.209 336.052V335.964ZM216.989 336.118C216.989 336.934 217.158 337.573 217.495 338.037C217.832 338.496 218.3 338.726 218.901 338.726C219.501 338.726 219.968 338.491 220.3 338.022C220.637 337.554 220.805 336.868 220.805 335.964C220.805 335.164 220.632 334.529 220.285 334.06C219.943 333.591 219.477 333.357 218.886 333.357C218.305 333.357 217.844 333.589 217.502 334.053C217.16 334.512 216.989 335.2 216.989 336.118Z" fill="#0F9696"/>
<path d="M226.484 332.075L226.536 332.991C227.122 332.283 227.891 331.929 228.843 331.929C230.493 331.929 231.333 332.874 231.362 334.763V340H229.583V334.866C229.583 334.363 229.473 333.992 229.253 333.752C229.038 333.508 228.684 333.386 228.191 333.386C227.473 333.386 226.938 333.711 226.587 334.36V340H224.807V332.075H226.484Z" fill="#0F9696"/>
<path d="M9.44824 232.363L11.0889 224.336H12.9272L10.4663 235H8.69385L6.66504 227.214L4.59229 235H2.8125L0.351562 224.336H2.18994L3.84521 232.349L5.88135 224.336H7.43408L9.44824 232.363Z" fill="#0F9696"/>
<path d="M19.3462 235C19.2681 234.849 19.1997 234.602 19.1411 234.26C18.5747 234.851 17.8813 235.146 17.061 235.146C16.2651 235.146 15.6157 234.919 15.1128 234.465C14.6099 234.011 14.3584 233.45 14.3584 232.781C14.3584 231.936 14.6709 231.289 15.2959 230.84C15.9258 230.386 16.8242 230.159 17.9912 230.159H19.0825V229.639C19.0825 229.229 18.9678 228.901 18.7383 228.657C18.5088 228.408 18.1597 228.284 17.6909 228.284C17.2856 228.284 16.9536 228.386 16.6948 228.591C16.436 228.792 16.3066 229.048 16.3066 229.36H14.5269C14.5269 228.926 14.6709 228.521 14.959 228.145C15.2471 227.764 15.6377 227.466 16.1309 227.251C16.6289 227.036 17.1831 226.929 17.7935 226.929C18.7212 226.929 19.4609 227.163 20.0127 227.632C20.5645 228.096 20.8477 228.75 20.8623 229.595V233.169C20.8623 233.882 20.9624 234.451 21.1626 234.875V235H19.3462ZM17.3906 233.718C17.7422 233.718 18.0718 233.633 18.3794 233.462C18.6919 233.291 18.9263 233.062 19.0825 232.773V231.279H18.123C17.4639 231.279 16.9683 231.394 16.6362 231.624C16.3042 231.853 16.1382 232.178 16.1382 232.598C16.1382 232.939 16.2505 233.213 16.4751 233.418C16.7046 233.618 17.0098 233.718 17.3906 233.718Z" fill="#0F9696"/>
<path d="M27.6255 228.701C27.3911 228.662 27.1494 228.643 26.9004 228.643C26.085 228.643 25.5356 228.955 25.2524 229.58V235H23.4727V227.075H25.1719L25.2158 227.961C25.6455 227.273 26.2412 226.929 27.0029 226.929C27.2568 226.929 27.4668 226.963 27.6328 227.031L27.6255 228.701Z" fill="#0F9696"/>
<path d="M32.8433 235.146C31.7153 235.146 30.7998 234.792 30.0967 234.084C29.3984 233.372 29.0493 232.424 29.0493 231.243V231.023C29.0493 230.232 29.2007 229.526 29.5034 228.906C29.811 228.281 30.2407 227.795 30.7925 227.449C31.3442 227.102 31.9595 226.929 32.6382 226.929C33.7173 226.929 34.5498 227.273 35.1357 227.961C35.7266 228.65 36.022 229.624 36.022 230.884V231.602H30.8438C30.8975 232.256 31.1147 232.773 31.4956 233.154C31.8813 233.535 32.3647 233.726 32.9458 233.726C33.7612 233.726 34.4253 233.396 34.938 232.737L35.8975 233.652C35.5801 234.126 35.1553 234.495 34.623 234.758C34.0957 235.017 33.5024 235.146 32.8433 235.146ZM32.6309 228.357C32.1426 228.357 31.7471 228.528 31.4443 228.87C31.1465 229.211 30.9561 229.688 30.873 230.298H34.2642V230.166C34.2251 229.57 34.0664 229.121 33.7881 228.818C33.5098 228.511 33.124 228.357 32.6309 228.357Z" fill="#0F9696"/>
<path d="M39.9141 227.939C40.4951 227.266 41.23 226.929 42.1187 226.929C43.8081 226.929 44.665 227.893 44.6895 229.822V235H42.9097V229.888C42.9097 229.341 42.79 228.955 42.5508 228.73C42.3164 228.501 41.9697 228.386 41.5107 228.386C40.7979 228.386 40.2656 228.704 39.9141 229.338V235H38.1343V223.75H39.9141V227.939Z" fill="#0F9696"/>
<path d="M46.9116 230.964C46.9116 230.188 47.0654 229.49 47.373 228.87C47.6807 228.245 48.1128 227.766 48.6694 227.434C49.2261 227.097 49.8657 226.929 50.5884 226.929C51.6577 226.929 52.5244 227.273 53.1885 227.961C53.8574 228.65 54.2188 229.563 54.2725 230.701L54.2798 231.118C54.2798 231.899 54.1284 232.598 53.8257 233.213C53.5278 233.828 53.0981 234.304 52.5366 234.641C51.98 234.978 51.3354 235.146 50.603 235.146C49.4849 235.146 48.5889 234.775 47.915 234.033C47.2461 233.286 46.9116 232.292 46.9116 231.052V230.964ZM48.6914 231.118C48.6914 231.934 48.8599 232.573 49.1968 233.037C49.5337 233.496 50.0024 233.726 50.603 233.726C51.2036 233.726 51.6699 233.491 52.002 233.022C52.3389 232.554 52.5073 231.868 52.5073 230.964C52.5073 230.164 52.334 229.529 51.9873 229.06C51.6455 228.591 51.1792 228.357 50.5884 228.357C50.0073 228.357 49.5459 228.589 49.2041 229.053C48.8623 229.512 48.6914 230.2 48.6914 231.118Z" fill="#0F9696"/>
<path d="M61.3359 234.224C60.8135 234.839 60.0713 235.146 59.1094 235.146C58.25 235.146 57.5981 234.895 57.1538 234.392C56.7144 233.889 56.4946 233.162 56.4946 232.209V227.075H58.2744V232.188C58.2744 233.193 58.6919 233.696 59.5269 233.696C60.3911 233.696 60.9746 233.386 61.2773 232.766V227.075H63.0571V235H61.3799L61.3359 234.224Z" fill="#0F9696"/>
<path d="M70.062 232.847C70.062 232.529 69.9302 232.288 69.6665 232.122C69.4077 231.956 68.9756 231.809 68.3701 231.682C67.7646 231.555 67.2593 231.394 66.854 231.199C65.9653 230.769 65.521 230.146 65.521 229.331C65.521 228.647 65.8091 228.076 66.3853 227.617C66.9614 227.158 67.6938 226.929 68.5825 226.929C69.5298 226.929 70.2939 227.163 70.875 227.632C71.4609 228.101 71.7539 228.708 71.7539 229.456H69.9741C69.9741 229.114 69.8472 228.831 69.5933 228.606C69.3394 228.376 69.0024 228.262 68.5825 228.262C68.1919 228.262 67.8721 228.352 67.623 228.533C67.3789 228.713 67.2568 228.955 67.2568 229.258C67.2568 229.531 67.3716 229.744 67.6011 229.895C67.8306 230.046 68.2944 230.2 68.9927 230.356C69.6909 230.508 70.2378 230.691 70.6333 230.906C71.0337 231.116 71.3291 231.37 71.5195 231.667C71.7148 231.965 71.8125 232.327 71.8125 232.751C71.8125 233.464 71.5171 234.043 70.9263 234.487C70.3354 234.927 69.5615 235.146 68.6045 235.146C67.9551 235.146 67.3765 235.029 66.8687 234.795C66.3608 234.561 65.9653 234.238 65.6821 233.828C65.3989 233.418 65.2573 232.976 65.2573 232.502H66.9858C67.0103 232.922 67.1689 233.247 67.4619 233.477C67.7549 233.701 68.1431 233.813 68.6265 233.813C69.0952 233.813 69.4517 233.726 69.6958 233.55C69.9399 233.369 70.062 233.135 70.062 232.847Z" fill="#0F9696"/>
<path d="M76.0122 235H74.2324V227.075H76.0122V235ZM74.1226 225.017C74.1226 224.744 74.208 224.517 74.3789 224.336C74.5547 224.155 74.8037 224.065 75.126 224.065C75.4482 224.065 75.6973 224.155 75.873 224.336C76.0488 224.517 76.1367 224.744 76.1367 225.017C76.1367 225.286 76.0488 225.51 75.873 225.691C75.6973 225.867 75.4482 225.955 75.126 225.955C74.8037 225.955 74.5547 225.867 74.3789 225.691C74.208 225.51 74.1226 225.286 74.1226 225.017Z" fill="#0F9696"/>
<path d="M80.3584 227.075L80.4097 227.991C80.9956 227.283 81.7646 226.929 82.7168 226.929C84.3672 226.929 85.207 227.874 85.2363 229.763V235H83.4565V229.866C83.4565 229.363 83.3467 228.992 83.127 228.752C82.9121 228.508 82.5581 228.386 82.0649 228.386C81.3472 228.386 80.8125 228.711 80.4609 229.36V235H78.6812V227.075H80.3584Z" fill="#0F9696"/>
<path d="M87.4951 230.979C87.4951 229.749 87.7832 228.767 88.3594 228.035C88.9404 227.297 89.7095 226.929 90.6665 226.929C91.5698 226.929 92.2803 227.244 92.7979 227.874L92.8784 227.075H94.4824V234.758C94.4824 235.798 94.1577 236.619 93.5083 237.219C92.8638 237.82 91.9922 238.12 90.8936 238.12C90.3125 238.12 89.7437 237.998 89.187 237.754C88.6353 237.515 88.2153 237.2 87.9272 236.809L88.7695 235.74C89.3164 236.389 89.9902 236.714 90.791 236.714C91.3818 236.714 91.8481 236.553 92.1899 236.23C92.5317 235.913 92.7026 235.444 92.7026 234.824V234.29C92.1899 234.861 91.5063 235.146 90.6519 235.146C89.7241 235.146 88.9648 234.778 88.374 234.041C87.7881 233.303 87.4951 232.283 87.4951 230.979ZM89.2676 231.133C89.2676 231.929 89.4287 232.556 89.751 233.015C90.0781 233.469 90.5298 233.696 91.106 233.696C91.8237 233.696 92.356 233.389 92.7026 232.773V229.287C92.3657 228.687 91.8384 228.386 91.1206 228.386C90.5347 228.386 90.0781 228.618 89.751 229.082C89.4287 229.546 89.2676 230.229 89.2676 231.133Z" fill="#0F9696"/>
<path d="M53.937 62.5205H58.7783V64H52.084V53.3359H53.937V62.5205Z" fill="#0F9696"/>
<path d="M60.4438 59.9644C60.4438 59.188 60.5977 58.4897 60.9053 57.8696C61.2129 57.2446 61.645 56.7661 62.2017 56.4341C62.7583 56.0972 63.3979 55.9287 64.1206 55.9287C65.1899 55.9287 66.0566 56.2729 66.7207 56.9614C67.3896 57.6499 67.751 58.563 67.8047 59.7007L67.812 60.1182C67.812 60.8994 67.6606 61.5977 67.3579 62.2129C67.0601 62.8281 66.6304 63.3042 66.0688 63.6411C65.5122 63.978 64.8677 64.1465 64.1353 64.1465C63.0171 64.1465 62.1211 63.7754 61.4473 63.0332C60.7783 62.2861 60.4438 61.2925 60.4438 60.0522V59.9644ZM62.2236 60.1182C62.2236 60.9336 62.3921 61.5732 62.729 62.0371C63.0659 62.4961 63.5347 62.7256 64.1353 62.7256C64.7358 62.7256 65.2021 62.4912 65.5342 62.0225C65.8711 61.5537 66.0396 60.8677 66.0396 59.9644C66.0396 59.1636 65.8662 58.5288 65.5195 58.0601C65.1777 57.5913 64.7114 57.3569 64.1206 57.3569C63.5396 57.3569 63.0781 57.5889 62.7363 58.0527C62.3945 58.5117 62.2236 59.2002 62.2236 60.1182Z" fill="#0F9696"/>
<path d="M69.7559 59.979C69.7559 58.7485 70.0439 57.7671 70.6201 57.0347C71.2012 56.2974 71.9702 55.9287 72.9272 55.9287C73.8306 55.9287 74.541 56.2437 75.0586 56.8735L75.1392 56.0752H76.7432V63.7583C76.7432 64.7983 76.4185 65.6187 75.769 66.2192C75.1245 66.8198 74.2529 67.1201 73.1543 67.1201C72.5732 67.1201 72.0044 66.998 71.4478 66.7539C70.896 66.5146 70.4761 66.1997 70.188 65.8091L71.0303 64.7397C71.5771 65.3892 72.251 65.7139 73.0518 65.7139C73.6426 65.7139 74.1089 65.5527 74.4507 65.2305C74.7925 64.9131 74.9634 64.4443 74.9634 63.8242V63.2896C74.4507 63.8608 73.7671 64.1465 72.9126 64.1465C71.9849 64.1465 71.2256 63.7778 70.6348 63.0405C70.0488 62.3032 69.7559 61.2827 69.7559 59.979ZM71.5283 60.1328C71.5283 60.9287 71.6895 61.5562 72.0117 62.0151C72.3389 62.4692 72.7905 62.6963 73.3667 62.6963C74.0845 62.6963 74.6167 62.3887 74.9634 61.7734V58.2871C74.6265 57.6865 74.0991 57.3862 73.3813 57.3862C72.7954 57.3862 72.3389 57.6182 72.0117 58.082C71.6895 58.5459 71.5283 59.2295 71.5283 60.1328Z" fill="#0F9696"/>
<path d="M81.2212 64H79.4414V56.0752H81.2212V64ZM79.3315 54.0171C79.3315 53.7437 79.417 53.5166 79.5879 53.3359C79.7637 53.1553 80.0127 53.0649 80.335 53.0649C80.6572 53.0649 80.9062 53.1553 81.082 53.3359C81.2578 53.5166 81.3457 53.7437 81.3457 54.0171C81.3457 54.2856 81.2578 54.5103 81.082 54.6909C80.9062 54.8667 80.6572 54.9546 80.335 54.9546C80.0127 54.9546 79.7637 54.8667 79.5879 54.6909C79.417 54.5103 79.3315 54.2856 79.3315 54.0171Z" fill="#0F9696"/>
<path d="M88.3579 61.8467C88.3579 61.5293 88.2261 61.2876 87.9624 61.1216C87.7036 60.9556 87.2715 60.8091 86.666 60.6821C86.0605 60.5552 85.5552 60.394 85.1499 60.1987C84.2612 59.769 83.8169 59.1465 83.8169 58.3311C83.8169 57.6475 84.105 57.0762 84.6812 56.6172C85.2573 56.1582 85.9897 55.9287 86.8784 55.9287C87.8257 55.9287 88.5898 56.1631 89.1709 56.6318C89.7568 57.1006 90.0498 57.7085 90.0498 58.4556H88.27C88.27 58.1138 88.1431 57.8306 87.8892 57.606C87.6353 57.3765 87.2983 57.2617 86.8784 57.2617C86.4878 57.2617 86.168 57.3521 85.9189 57.5327C85.6748 57.7134 85.5527 57.9551 85.5527 58.2578C85.5527 58.5312 85.6675 58.7437 85.897 58.895C86.1265 59.0464 86.5903 59.2002 87.2886 59.3564C87.9868 59.5078 88.5337 59.6909 88.9292 59.9058C89.3296 60.1157 89.625 60.3696 89.8154 60.6675C90.0107 60.9653 90.1084 61.3267 90.1084 61.7515C90.1084 62.4644 89.813 63.043 89.2222 63.4873C88.6313 63.9268 87.8574 64.1465 86.9004 64.1465C86.251 64.1465 85.6724 64.0293 85.1646 63.7949C84.6567 63.5605 84.2612 63.2383 83.978 62.8281C83.6948 62.418 83.5532 61.9761 83.5532 61.5024H85.2817C85.3062 61.9224 85.4648 62.2471 85.7578 62.4766C86.0508 62.7012 86.439 62.8135 86.9224 62.8135C87.3911 62.8135 87.7476 62.7256 87.9917 62.5498C88.2358 62.3691 88.3579 62.1348 88.3579 61.8467Z" fill="#0F9696"/>
<path d="M94.645 54.1489V56.0752H96.0439V57.3936H94.645V61.8174C94.645 62.1201 94.7036 62.3398 94.8208 62.4766C94.9429 62.6084 95.1577 62.6743 95.4653 62.6743C95.6704 62.6743 95.8779 62.6499 96.0879 62.6011V63.978C95.6826 64.0903 95.292 64.1465 94.916 64.1465C93.5488 64.1465 92.8652 63.3921 92.8652 61.8833V57.3936H91.5615V56.0752H92.8652V54.1489H94.645Z" fill="#0F9696"/>
<path d="M100.053 64H98.2734V56.0752H100.053V64ZM98.1636 54.0171C98.1636 53.7437 98.249 53.5166 98.4199 53.3359C98.5957 53.1553 98.8447 53.0649 99.167 53.0649C99.4893 53.0649 99.7383 53.1553 99.9141 53.3359C100.09 53.5166 100.178 53.7437 100.178 54.0171C100.178 54.2856 100.09 54.5103 99.9141 54.6909C99.7383 54.8667 99.4893 54.9546 99.167 54.9546C98.8447 54.9546 98.5957 54.8667 98.4199 54.6909C98.249 54.5103 98.1636 54.2856 98.1636 54.0171Z" fill="#0F9696"/>
<path d="M106.003 62.7256C106.448 62.7256 106.816 62.5962 107.109 62.3374C107.402 62.0786 107.559 61.7588 107.578 61.3779H109.255C109.236 61.8711 109.082 62.3325 108.794 62.7622C108.506 63.187 108.115 63.5239 107.622 63.7729C107.129 64.022 106.597 64.1465 106.025 64.1465C104.917 64.1465 104.038 63.7876 103.389 63.0698C102.739 62.3521 102.415 61.3608 102.415 60.0962V59.9131C102.415 58.707 102.737 57.7427 103.381 57.02C104.026 56.2925 104.905 55.9287 106.018 55.9287C106.96 55.9287 107.727 56.2046 108.318 56.7563C108.914 57.3032 109.226 58.0234 109.255 58.917H107.578C107.559 58.4629 107.402 58.0894 107.109 57.7964C106.821 57.5034 106.453 57.3569 106.003 57.3569C105.427 57.3569 104.983 57.5669 104.67 57.9868C104.358 58.4019 104.199 59.0342 104.194 59.8838V60.1694C104.194 61.0288 104.348 61.6709 104.656 62.0957C104.968 62.5156 105.417 62.7256 106.003 62.7256Z" fill="#0F9696"/>
<path d="M115.792 61.8467C115.792 61.5293 115.66 61.2876 115.396 61.1216C115.137 60.9556 114.705 60.8091 114.1 60.6821C113.494 60.5552 112.989 60.394 112.583 60.1987C111.695 59.769 111.25 59.1465 111.25 58.3311C111.25 57.6475 111.539 57.0762 112.115 56.6172C112.691 56.1582 113.423 55.9287 114.312 55.9287C115.259 55.9287 116.023 56.1631 116.604 56.6318C117.19 57.1006 117.483 57.7085 117.483 58.4556H115.704C115.704 58.1138 115.577 57.8306 115.323 57.606C115.069 57.3765 114.732 57.2617 114.312 57.2617C113.921 57.2617 113.602 57.3521 113.353 57.5327C113.108 57.7134 112.986 57.9551 112.986 58.2578C112.986 58.5312 113.101 58.7437 113.331 58.895C113.56 59.0464 114.024 59.2002 114.722 59.3564C115.42 59.5078 115.967 59.6909 116.363 59.9058C116.763 60.1157 117.059 60.3696 117.249 60.6675C117.444 60.9653 117.542 61.3267 117.542 61.7515C117.542 62.4644 117.247 63.043 116.656 63.4873C116.065 63.9268 115.291 64.1465 114.334 64.1465C113.685 64.1465 113.106 64.0293 112.598 63.7949C112.09 63.5605 111.695 63.2383 111.412 62.8281C111.128 62.418 110.987 61.9761 110.987 61.5024H112.715C112.74 61.9224 112.898 62.2471 113.191 62.4766C113.484 62.7012 113.873 62.8135 114.356 62.8135C114.825 62.8135 115.181 62.7256 115.425 62.5498C115.669 62.3691 115.792 62.1348 115.792 61.8467Z" fill="#0F9696"/>
<path d="M278.595 57.9463C278.595 58.9912 278.414 59.9092 278.053 60.7002C277.691 61.4863 277.174 62.0918 276.5 62.5166C275.831 62.9365 275.06 63.1465 274.186 63.1465C273.321 63.1465 272.55 62.9365 271.871 62.5166C271.197 62.0918 270.675 61.4888 270.304 60.7075C269.938 59.9263 269.752 59.0254 269.747 58.0049V57.4043C269.747 56.3643 269.93 55.4463 270.296 54.6504C270.667 53.8545 271.188 53.2466 271.856 52.8267C272.53 52.4019 273.302 52.1895 274.171 52.1895C275.04 52.1895 275.809 52.3994 276.478 52.8193C277.152 53.2344 277.672 53.835 278.038 54.6211C278.404 55.4023 278.59 56.313 278.595 57.353V57.9463ZM276.742 57.3896C276.742 56.208 276.517 55.3022 276.068 54.6724C275.624 54.0425 274.991 53.7275 274.171 53.7275C273.37 53.7275 272.743 54.0425 272.289 54.6724C271.839 55.2974 271.61 56.1836 271.6 57.3311V57.9463C271.6 59.1182 271.827 60.0239 272.281 60.6636C272.74 61.3032 273.375 61.623 274.186 61.623C275.006 61.623 275.636 61.3105 276.075 60.6855C276.52 60.0605 276.742 59.1475 276.742 57.9463V57.3896Z" fill="#0F9696"/>
<path d="M285.167 56.7012C284.933 56.6621 284.691 56.6426 284.442 56.6426C283.627 56.6426 283.078 56.9551 282.794 57.5801V63H281.015V55.0752H282.714L282.758 55.9614C283.188 55.2729 283.783 54.9287 284.545 54.9287C284.799 54.9287 285.009 54.9629 285.175 55.0312L285.167 56.7012Z" fill="#0F9696"/>
<path d="M286.562 58.979C286.562 57.7583 286.845 56.7793 287.412 56.042C287.978 55.2998 288.737 54.9287 289.689 54.9287C290.529 54.9287 291.208 55.2217 291.726 55.8076V51.75H293.505V63H291.894L291.806 62.1797C291.274 62.8242 290.563 63.1465 289.675 63.1465C288.747 63.1465 287.995 62.7729 287.419 62.0259C286.848 61.2788 286.562 60.2632 286.562 58.979ZM288.342 59.1328C288.342 59.9385 288.496 60.5684 288.803 61.0225C289.116 61.4717 289.558 61.6963 290.129 61.6963C290.856 61.6963 291.389 61.3716 291.726 60.7222V57.3384C291.398 56.7036 290.871 56.3862 290.144 56.3862C289.567 56.3862 289.123 56.6157 288.811 57.0747C288.498 57.5288 288.342 58.2148 288.342 59.1328Z" fill="#0F9696"/>
<path d="M299.602 63.1465C298.474 63.1465 297.559 62.7925 296.855 62.0845C296.157 61.3716 295.808 60.4243 295.808 59.2427V59.0229C295.808 58.2319 295.959 57.5264 296.262 56.9062C296.57 56.2812 297 55.7954 297.551 55.4487C298.103 55.1021 298.718 54.9287 299.397 54.9287C300.476 54.9287 301.309 55.2729 301.895 55.9614C302.485 56.6499 302.781 57.624 302.781 58.8838V59.6016H297.603C297.656 60.2559 297.874 60.7734 298.254 61.1543C298.64 61.5352 299.124 61.7256 299.705 61.7256C300.52 61.7256 301.184 61.396 301.697 60.7368L302.656 61.6523C302.339 62.126 301.914 62.4946 301.382 62.7583C300.854 63.0171 300.261 63.1465 299.602 63.1465ZM299.39 56.3569C298.901 56.3569 298.506 56.5278 298.203 56.8696C297.905 57.2114 297.715 57.6875 297.632 58.2979H301.023V58.166C300.984 57.5703 300.825 57.1211 300.547 56.8184C300.269 56.5107 299.883 56.3569 299.39 56.3569Z" fill="#0F9696"/>
<path d="M309.068 56.7012C308.833 56.6621 308.592 56.6426 308.343 56.6426C307.527 56.6426 306.978 56.9551 306.695 57.5801V63H304.915V55.0752H306.614L306.658 55.9614C307.088 55.2729 307.684 54.9287 308.445 54.9287C308.699 54.9287 308.909 54.9629 309.075 55.0312L309.068 56.7012Z" fill="#0F9696"/>
<defs>
<linearGradient id="paint0_linear" x1="184.527" y1="153.245" x2="185.527" y2="153.245" gradientUnits="userSpaceOnUse">
<stop stop-color="#009191"/>
<stop offset="1" stop-color="#0052A5"/>
</linearGradient>
<linearGradient id="paint1_linear" x1="157.325" y1="140.75" x2="183.13" y2="138.05" gradientUnits="userSpaceOnUse">
<stop stop-color="white"/>
<stop offset="0.9988" stop-color="#4DBDBC"/>
</linearGradient>
<linearGradient id="paint2_linear" x1="197.628" y1="145.278" x2="193.013" y2="116.049" gradientUnits="userSpaceOnUse">
<stop stop-color="#009191"/>
<stop offset="1" stop-color="#1D2088"/>
</linearGradient>
<linearGradient id="paint3_linear" x1="192.096" y1="181.062" x2="213.275" y2="160.038" gradientUnits="userSpaceOnUse">
<stop stop-color="white"/>
<stop offset="0.9988" stop-color="#4DBDBC"/>
</linearGradient>
<linearGradient id="paint4_linear" x1="218.918" y1="153.237" x2="218.918" y2="176.138" gradientUnits="userSpaceOnUse">
<stop stop-color="#169090"/>
<stop offset="0.9988" stop-color="#FFE200"/>
</linearGradient>
<linearGradient id="paint5_linear" x1="151.417" y1="182.006" x2="164.654" y2="172.818" gradientUnits="userSpaceOnUse">
<stop stop-color="white"/>
<stop offset="0.9988" stop-color="#4DBDBC"/>
</linearGradient>
<linearGradient id="paint6_linear" x1="177.124" y1="180.219" x2="183.364" y2="157.601" gradientUnits="userSpaceOnUse">
<stop stop-color="#009191"/>
<stop offset="1" stop-color="#1D2088"/>
</linearGradient>
<linearGradient id="paint7_linear" x1="197.232" y1="146.611" x2="211.223" y2="146.611" gradientUnits="userSpaceOnUse">
<stop stop-color="#009191"/>
<stop offset="1" stop-color="#0052A5"/>
</linearGradient>
<linearGradient id="paint8_linear" x1="180.133" y1="171.468" x2="205.558" y2="171.468" gradientUnits="userSpaceOnUse">
<stop stop-color="#0052A5"/>
<stop offset="1" stop-color="#009191"/>
</linearGradient>
</defs>
</svg>
