<svg width="427" height="341" viewBox="0 0 427 341" fill="none" xmlns="http://www.w3.org/2000/svg">
<path fill-rule="evenodd" clip-rule="evenodd" d="M214.538 1.5C192.859 1.5 172.279 6.19519 153.757 14.6236L153.343 13.7134C171.993 5.22699 192.714 0.5 214.538 0.5C235.001 0.5 254.495 4.65602 272.221 12.1705L271.83 13.0912C254.226 5.6281 234.864 1.5 214.538 1.5ZM361.11 138.428C359.452 113.7 351.674 90.6485 339.279 70.7741L340.128 70.2449C352.607 90.2551 360.438 113.465 362.108 138.361C362.33 141.68 362.444 145.03 362.444 148.406H361.444C361.444 145.052 361.331 141.725 361.11 138.428ZM85.9686 77.2771C75.8991 95.4392 69.5664 115.96 68.0085 137.801C67.7586 141.304 67.6316 144.84 67.6316 148.406H66.6316C66.6316 144.816 66.7595 141.256 67.011 137.73C68.5795 115.74 74.9556 95.0787 85.094 76.7922L85.9686 77.2771ZM271.935 283.677C297.224 272.933 318.883 255.303 334.558 233.141L335.375 233.718C319.594 256.031 297.788 273.78 272.326 284.597L271.935 283.677ZM96.487 235.86C111.564 256.178 131.761 272.468 155.17 282.822L154.765 283.737C131.197 273.312 110.863 256.911 95.684 236.456L96.487 235.86Z" fill="#4BC8C8"/>
<path fill-rule="evenodd" clip-rule="evenodd" d="M213.3 79.9693C176.08 79.9693 145.906 110.142 145.906 147.363C145.906 184.581 176.08 214.756 213.3 214.756C250.521 214.756 280.695 184.581 280.695 147.363C280.695 110.142 250.521 79.9693 213.3 79.9693ZM145.006 147.363C145.006 109.645 175.583 79.0693 213.3 79.0693C251.018 79.0693 281.595 109.645 281.595 147.363C281.595 185.078 251.018 215.656 213.3 215.656C175.583 215.656 145.006 185.078 145.006 147.363Z" fill="#009190"/>
<path fill-rule="evenodd" clip-rule="evenodd" d="M213.3 92.5469C183.027 92.5469 158.486 117.089 158.486 147.363C158.486 177.634 183.026 202.177 213.3 202.177C243.575 202.177 268.116 177.634 268.116 147.363C268.116 117.089 243.575 92.5469 213.3 92.5469ZM157.736 147.363C157.736 116.675 182.612 91.7969 213.3 91.7969C243.989 91.7969 268.866 116.675 268.866 147.363C268.866 178.049 243.989 202.927 213.3 202.927C182.612 202.927 157.736 178.049 157.736 147.363Z" fill="#009190"/>
<path fill-rule="evenodd" clip-rule="evenodd" d="M242.198 248.249C242.198 251.498 239.567 254.131 236.319 254.131C233.073 254.131 230.439 251.498 230.439 248.249C230.439 245.005 233.073 242.368 236.319 242.368C239.567 242.368 242.198 245.005 242.198 248.249Z" fill="#009190"/>
<path fill-rule="evenodd" clip-rule="evenodd" d="M268.517 56.4038C268.517 59.6526 265.886 62.2851 262.637 62.2851C259.388 62.2851 256.757 59.6526 256.757 56.4038C256.757 53.1597 259.388 50.5225 262.637 50.5225C265.886 50.5225 268.517 53.1597 268.517 56.4038Z" fill="#009190"/>
<path fill-rule="evenodd" clip-rule="evenodd" d="M122.826 186.687C122.826 189.934 120.192 192.567 116.946 192.567C113.698 192.567 111.063 189.934 111.063 186.687C111.063 183.441 113.698 180.806 116.946 180.806C120.192 180.806 122.826 183.441 122.826 186.687Z" fill="#009190"/>
<path fill-rule="evenodd" clip-rule="evenodd" d="M320.871 175.475C320.871 178.724 318.237 181.356 314.988 181.356C311.743 181.356 309.109 178.724 309.109 175.475C309.109 172.231 311.743 169.594 314.988 169.594C318.237 169.594 320.871 172.231 320.871 175.475Z" fill="#009190"/>
<path fill-rule="evenodd" clip-rule="evenodd" d="M140.499 78.1665C140.499 81.4153 137.868 84.0478 134.619 84.0478C131.37 84.0478 128.736 81.4153 128.736 78.1665C128.736 74.9224 131.37 72.2852 134.619 72.2852C137.868 72.2852 140.499 74.9224 140.499 78.1665Z" fill="#009190"/>
<path fill-rule="evenodd" clip-rule="evenodd" d="M213.299 43.6719C156.034 43.6719 109.612 90.0957 109.612 147.363C109.612 204.628 156.034 251.052 213.299 251.052C270.565 251.052 316.99 204.628 316.99 147.363C316.99 90.0957 270.565 43.6719 213.299 43.6719ZM108.612 147.363C108.612 89.5435 155.482 42.6719 213.299 42.6719C271.117 42.6719 317.99 89.5434 317.99 147.363C317.99 205.181 271.117 252.052 213.299 252.052C155.482 252.052 108.612 205.181 108.612 147.363Z" fill="#009190"/>
<path fill-rule="evenodd" clip-rule="evenodd" d="M213.299 64.5098C167.542 64.5098 130.448 101.604 130.448 147.363C130.448 193.12 167.542 230.214 213.299 230.214C259.056 230.214 296.151 193.12 296.151 147.363C296.151 101.604 259.056 64.5098 213.299 64.5098ZM129.448 147.363C129.448 101.052 166.99 63.5098 213.299 63.5098C259.609 63.5098 297.151 101.052 297.151 147.363C297.151 193.672 259.609 231.214 213.299 231.214C166.99 231.214 129.448 193.672 129.448 147.363Z" fill="#009190"/>
<path fill-rule="evenodd" clip-rule="evenodd" d="M233.165 80.6811C233.165 83.9299 230.534 86.5625 227.285 86.5625C224.036 86.5625 221.402 83.9299 221.402 80.6811C221.402 77.4371 224.036 74.7998 227.285 74.7998C230.534 74.7998 233.165 77.4371 233.165 80.6811Z" fill="#7EC7C5"/>
<path fill-rule="evenodd" clip-rule="evenodd" d="M165.835 214.043C165.835 217.292 163.204 219.925 159.956 219.925C156.707 219.925 154.073 217.292 154.073 214.043C154.073 210.799 156.707 208.162 159.956 208.162C163.204 208.162 165.835 210.799 165.835 214.043Z" fill="#7EC7C5"/>
<path fill-rule="evenodd" clip-rule="evenodd" d="M266.462 174.01C266.462 177.259 263.831 179.892 260.582 179.892C257.337 179.892 254.702 177.259 254.702 174.01C254.702 170.766 257.337 168.129 260.582 168.129C263.831 168.129 266.462 170.766 266.462 174.01Z" fill="#7EC7C5"/>
<path fill-rule="evenodd" clip-rule="evenodd" d="M155.202 126.249C155.202 129.498 152.571 132.131 149.322 132.131C146.073 132.131 143.439 129.498 143.439 126.249C143.439 123.005 146.073 120.368 149.322 120.368C152.571 120.368 155.202 123.005 155.202 126.249Z" fill="#7EC7C5"/>
<path fill-rule="evenodd" clip-rule="evenodd" d="M202.26 283.002C202.26 283.278 202.576 283.502 202.966 283.502H209.554C209.944 283.502 210.26 283.278 210.26 283.002C210.26 282.725 209.944 282.502 209.554 282.502H202.966C202.576 282.502 202.26 282.725 202.26 283.002Z" fill="#009190"/>
<path fill-rule="evenodd" clip-rule="evenodd" d="M198.927 280.502H201.593C201.961 280.502 202.26 280.278 202.26 280.002C202.26 279.726 201.961 279.502 201.593 279.502H198.927C198.558 279.502 198.26 279.726 198.26 280.002C198.26 280.278 198.558 280.502 198.927 280.502Z" fill="#009190"/>
<mask id="mask0" mask-type="alpha" maskUnits="userSpaceOnUse" x="207" y="266" width="22" height="18">
<path fill-rule="evenodd" clip-rule="evenodd" d="M207.442 266.451H228.405V283.029H207.442V266.451Z" fill="white"/>
</mask>
<g mask="url(#mask0)">
<path fill-rule="evenodd" clip-rule="evenodd" d="M211.342 271.245V281.372C211.342 282.286 212.107 283.029 213.049 283.029H222.799C223.74 283.029 224.505 282.286 224.505 281.372V271.245L228.192 267.664C228.477 267.386 228.477 266.936 228.192 266.66C227.906 266.382 227.441 266.382 227.157 266.66L223.471 270.24H212.376L208.69 266.66C208.404 266.382 207.941 266.382 207.655 266.66C207.37 266.936 207.37 267.386 207.655 267.664L211.342 271.245ZM212.804 271.661H223.041V281.372C223.041 281.502 222.934 281.609 222.799 281.609H213.049C212.913 281.609 212.804 281.503 212.804 281.372V271.661Z" fill="#009190"/>
</g>
<path fill-rule="evenodd" clip-rule="evenodd" d="M205.927 280.502H208.593C208.961 280.502 209.26 280.278 209.26 280.002C209.26 279.726 208.961 279.502 208.593 279.502H205.927C205.559 279.502 205.26 279.726 205.26 280.002C205.26 280.278 205.559 280.502 205.927 280.502Z" fill="#009190"/>
<path fill-rule="evenodd" clip-rule="evenodd" d="M233.26 290.502C233.26 288.848 231.914 287.502 230.261 287.502C228.606 287.502 227.26 288.848 227.26 290.502C227.26 292.156 228.606 293.502 230.261 293.502C231.914 293.502 233.26 292.156 233.26 290.502ZM228.645 290.502C228.645 289.612 229.37 288.886 230.261 288.886C231.151 288.886 231.876 289.612 231.876 290.502C231.876 291.392 231.151 292.118 230.261 292.118C229.37 292.118 228.645 291.392 228.645 290.502Z" fill="#009190"/>
<path fill-rule="evenodd" clip-rule="evenodd" d="M210.26 290.502C210.26 292.156 211.606 293.502 213.259 293.502C214.914 293.502 216.26 292.156 216.26 290.502C216.26 288.848 214.914 287.502 213.259 287.502C211.606 287.502 210.26 288.848 210.26 290.502ZM214.875 290.502C214.875 291.392 214.151 292.118 213.259 292.118C212.369 292.118 211.645 291.392 211.645 290.502C211.645 289.612 212.369 288.886 213.259 288.886C214.151 288.886 214.875 289.612 214.875 290.502Z" fill="#009190"/>
<mask id="mask1" mask-type="alpha" maskUnits="userSpaceOnUse" x="190" y="285" width="47" height="28">
<path fill-rule="evenodd" clip-rule="evenodd" d="M190.26 285.485H236.258V312.502H190.26V285.485Z" fill="white"/>
</mask>
<g mask="url(#mask1)">
<path fill-rule="evenodd" clip-rule="evenodd" d="M235.531 311.028H233.352V309.8C233.352 308.31 232.157 307.099 230.69 307.099H229.479V301.947V301.937V297.766H230.206C233.543 297.766 236.258 295.011 236.258 291.626C236.258 288.24 233.543 285.485 230.206 285.485H226.816C226.415 285.485 226.09 285.816 226.09 286.223C226.09 286.629 226.415 286.96 226.816 286.96H230.206C232.741 286.96 234.806 289.053 234.806 291.626C234.806 294.199 232.741 296.292 230.206 296.292H222.949H222.938H219.074H219.064H207.454H207.444H203.581H203.569H196.312C193.776 296.292 191.712 294.199 191.712 291.626C191.712 289.053 193.776 286.96 196.312 286.96H223.912C224.312 286.96 224.637 286.629 224.637 286.223C224.637 285.816 224.312 285.485 223.912 285.485H196.312C192.974 285.485 190.26 288.24 190.26 291.626C190.26 295.011 192.974 297.766 196.312 297.766H197.038V301.937V301.947V307.099H195.829C194.36 307.099 193.165 308.31 193.165 309.8V311.028H190.987C190.585 311.028 190.26 311.359 190.26 311.765C190.26 312.172 190.585 312.502 190.987 312.502H195.829C196.229 312.502 196.554 312.172 196.554 311.765C196.554 311.359 196.229 311.028 195.829 311.028H194.618V309.8C194.618 309.123 195.162 308.573 195.829 308.573H199.702C200.37 308.573 200.912 309.123 200.912 309.8V311.028H198.733C198.331 311.028 198.007 311.359 198.007 311.765C198.007 312.172 198.331 312.502 198.733 312.502H235.531C235.934 312.502 236.258 312.172 236.258 311.765C236.258 311.359 235.934 311.028 235.531 311.028ZM228.027 297.766V300.367L224.949 297.766H228.027ZM213.986 297.766H217.063L213.986 300.367V297.766ZM212.532 297.766V300.367L209.455 297.766H212.532ZM198.491 297.766H201.569L198.491 300.367V297.766ZM208.659 309.8V311.028H202.365V309.8C202.365 308.31 201.17 307.099 199.702 307.099H198.491V302.287L203.838 297.766H207.186L212.532 302.287V307.099H211.321C209.854 307.099 208.659 308.31 208.659 309.8ZM216.406 311.028H210.112V309.8C210.112 309.123 210.654 308.573 211.323 308.573H215.196C215.863 308.573 216.406 309.123 216.406 309.8V311.028ZM224.153 309.8V311.028H217.859V309.8C217.859 308.31 216.664 307.099 215.195 307.099H213.986V302.287L219.332 297.766H222.68L228.027 302.287V307.099H226.816C225.348 307.099 224.153 308.31 224.153 309.8ZM231.901 311.028H225.606V309.8C225.606 309.123 226.149 308.573 226.816 308.573H230.69C231.357 308.573 231.901 309.123 231.901 309.8V311.028Z" fill="#009190"/>
</g>
<path fill-rule="evenodd" clip-rule="evenodd" d="M193.26 290.502C193.26 292.156 194.606 293.502 196.259 293.502C197.914 293.502 199.26 292.156 199.26 290.502C199.26 288.848 197.914 287.502 196.259 287.502C194.606 287.502 193.26 288.848 193.26 290.502ZM197.875 290.502C197.875 291.392 197.151 292.118 196.259 292.118C195.369 292.118 194.645 291.392 194.645 290.502C194.645 289.612 195.369 288.886 196.259 288.886C197.151 288.886 197.875 289.612 197.875 290.502Z" fill="#009190"/>
<mask id="mask2" mask-type="alpha" maskUnits="userSpaceOnUse" x="289" y="12" width="45" height="45">
<path fill-rule="evenodd" clip-rule="evenodd" d="M289.26 12.501H333.173V56.4141H289.26V12.501Z" fill="white"/>
</mask>
<g mask="url(#mask2)">
<path fill-rule="evenodd" clip-rule="evenodd" d="M297.128 19.9066L297.354 19.5162C297.73 18.8645 298.43 18.4598 299.181 18.4598H299.183L299.443 18.46V18.4799C300.076 18.5859 300.626 18.956 300.967 19.51L301.21 19.9066H297.128ZM315.585 19.9067H318.883V13.8317H315.585V19.9067ZM303.811 43.4543H324.177C325.564 43.4543 326.693 42.3253 326.693 40.9376V37.2347C326.693 36.5807 327.225 36.0486 327.879 36.0486H330.657C332.044 36.0486 333.173 34.9196 333.173 33.5318V15.0177C333.173 13.63 332.044 12.501 330.656 12.501H312.142C310.755 12.501 309.626 13.63 309.626 15.0177V33.5318C309.626 34.9196 310.755 36.0486 312.142 36.0486H322.99V34.7179H312.142C311.488 34.7179 310.956 34.1859 310.956 33.5318V15.0177C310.956 14.3637 311.488 13.8317 312.142 13.8317H314.254V20.572C314.254 20.9389 314.553 21.2374 314.919 21.2374H319.548C319.915 21.2374 320.213 20.9389 320.213 20.572V13.8317H330.656C331.311 13.8317 331.843 14.3637 331.843 15.0177V33.5318C331.843 34.1859 331.311 34.7179 330.656 34.7179H327.879C326.492 34.7179 325.363 35.8469 325.363 37.2347V40.9376C325.363 41.5917 324.831 42.1237 324.176 42.1237H303.811C303.157 42.1237 302.625 41.5917 302.625 40.9376V20.7293C302.639 20.0657 302.468 19.419 302.132 18.8536L301.898 18.4602H307.253V17.1295L299.182 17.1311C299.178 17.1311 299.174 17.131 299.171 17.131C298.288 17.131 297.452 17.4663 296.814 18.0756C296.346 18.5211 296.014 19.0867 295.851 19.7117L295.801 19.9066H293.628C291.223 19.9096 289.263 21.8692 289.26 24.2751V44.6404C289.263 47.046 291.223 49.0057 293.629 49.0086H303.146V51.4379L302.923 51.4705C301.15 51.7312 299.769 53.0949 299.488 54.864L299.453 55.0835H297.591V56.4142H324.842V55.0835H322.981L322.946 54.8641C322.664 53.0949 321.284 51.7312 319.51 51.4705L319.288 51.4379V49.0085H328.805C331.211 49.0056 333.17 47.0459 333.173 44.6401V37.4951H331.843V44.6403C331.843 46.3152 330.48 47.6778 328.805 47.6778H311.477V49.0085H317.957V52.046C317.957 52.411 318.252 52.708 318.616 52.7114C318.716 52.7065 318.816 52.7065 318.916 52.7118C320.122 52.7757 321.173 53.5931 321.533 54.7458L321.638 55.0835H300.796L300.9 54.746C301.294 53.4802 302.492 52.6437 303.816 52.7113H310.956V51.3807H304.476V48.3432C304.476 47.9763 304.178 47.6778 303.811 47.6778H293.628C291.953 47.6778 290.591 46.3152 290.591 44.6403V42.5286H298.922V41.1979H290.591V24.2748C290.591 22.6 291.953 21.2374 293.628 21.2374H301.294V40.9376C301.294 42.3253 302.423 43.4543 303.811 43.4543Z" fill="#0F9696"/>
</g>
<path fill-rule="evenodd" clip-rule="evenodd" d="M292.963 26.1261V27.7172H294.294V26.1261C294.294 25.4721 294.826 24.94 295.48 24.94H297.071V23.6094H295.48C294.092 23.6094 292.963 24.7384 292.963 26.1261Z" fill="#0F9696"/>
<mask id="mask3" mask-type="alpha" maskUnits="userSpaceOnUse" x="289" y="12" width="45" height="45">
<path fill-rule="evenodd" clip-rule="evenodd" d="M289.26 56.4142H333.173V12.501H289.26V56.4142Z" fill="white"/>
</mask>
<g mask="url(#mask3)">
<path fill-rule="evenodd" clip-rule="evenodd" d="M304.997 39.7516H319.288V38.4209H304.997V39.7516Z" fill="#0F9696"/>
<path fill-rule="evenodd" clip-rule="evenodd" d="M321.66 39.7516H322.99V38.4209H321.66V39.7516Z" fill="#0F9696"/>
<path fill-rule="evenodd" clip-rule="evenodd" d="M304.997 36.0484H308.179V34.7178H304.997V36.0484Z" fill="#0F9696"/>
<path fill-rule="evenodd" clip-rule="evenodd" d="M304.997 32.3463H308.179V31.0156H304.997V32.3463Z" fill="#0F9696"/>
<path fill-rule="evenodd" clip-rule="evenodd" d="M304.997 28.6432H308.179V27.3125H304.997V28.6432Z" fill="#0F9696"/>
<path fill-rule="evenodd" clip-rule="evenodd" d="M304.997 24.94H308.179V23.6094H304.997V24.94Z" fill="#0F9696"/>
</g>
<path fill-rule="evenodd" clip-rule="evenodd" d="M348.241 173.978H342.504C342.165 173.978 341.889 174.221 341.889 174.52V212.734C341.889 213.033 342.165 213.276 342.504 213.276L364.917 213.244L365.093 213.173L365.075 213.14L365.123 213.16L373.875 205.161L373.87 205.105L373.884 205.111L373.946 204.988L373.97 204.889L373.966 174.52C373.966 174.221 373.691 173.978 373.353 173.978H367.616V171.737H376.37V215.103H339.486V171.737H348.241V173.978ZM371.913 205.384L365.346 211.396V205.384H371.913ZM348.854 177.968H367.002C367.34 177.968 367.616 177.726 367.616 177.428V175.061H372.741V204.302H364.734C364.397 204.302 364.121 204.545 364.121 204.843V212.193H343.116V175.061H348.241V177.428C348.241 177.726 348.516 177.968 348.854 177.968ZM349.466 176.886V171.737H352.558L352.615 171.738L352.895 171.644L352.947 171.603L353.153 171.325L353.175 171.275C353.56 169.135 355.559 167.583 357.928 167.583C360.294 167.583 362.298 169.138 362.692 171.282L362.806 171.53L362.84 171.571L362.904 171.618L363.261 171.731L366.39 171.736V176.886H349.466ZM376.984 170.656H363.798L363.745 170.49C362.993 168.105 360.655 166.502 357.928 166.502C355.201 166.502 352.863 168.105 352.11 170.49L352.059 170.656H338.872C338.535 170.656 338.26 170.899 338.26 171.197V215.643C338.26 215.941 338.535 216.183 338.872 216.183H376.984C377.321 216.183 377.596 215.941 377.596 215.643V171.197C377.596 170.899 377.321 170.656 376.984 170.656Z" fill="#009090"/>
<path fill-rule="evenodd" clip-rule="evenodd" d="M350.053 192.278C350.053 187.602 353.856 183.799 358.53 183.799C363.206 183.799 367.009 187.602 367.009 192.278C367.009 196.953 363.206 200.756 358.53 200.756C353.856 200.756 350.053 196.953 350.053 192.278ZM358.53 202.075C363.934 202.075 368.329 197.679 368.329 192.278C368.329 186.875 363.934 182.479 358.53 182.479C353.128 182.479 348.732 186.875 348.732 192.278C348.732 197.679 353.128 202.075 358.53 202.075Z" fill="#009090"/>
<path fill-rule="evenodd" clip-rule="evenodd" d="M355.417 196.671H355.42C355.595 196.67 355.763 196.601 355.88 196.483L363.153 189.214C363.409 188.955 363.409 188.536 363.152 188.279C362.895 188.022 362.474 188.023 362.217 188.28L355.416 195.083L353.391 193.057C353.14 192.808 352.707 192.809 352.457 193.057C352.201 193.315 352.201 193.733 352.457 193.99L354.95 196.483C355.07 196.602 355.24 196.671 355.417 196.671Z" fill="#009090"/>
<path fill-rule="evenodd" clip-rule="evenodd" d="M38.9999 37.021L40.9599 37.541C40.7599 38.441 40.5599 39.281 40.3399 40.081H47.8999C47.8999 47.041 47.7999 51.321 47.5999 52.921C47.3599 54.641 46.2199 55.501 44.1799 55.501C43.8999 55.501 43.3799 55.461 42.6599 55.401L42.1799 53.541C42.8199 53.601 43.3599 53.641 43.8399 53.641C44.8999 53.641 45.5199 53.081 45.6799 51.981C45.7999 51.041 45.8599 47.741 45.8999 42.081H45.1799C44.7599 45.281 44.1799 47.841 43.4199 49.721C42.4999 51.841 41.1199 53.761 39.3199 55.441L38.0199 53.781C39.6599 52.301 40.8799 50.661 41.6999 48.821C42.3999 47.121 42.9399 44.881 43.3199 42.081H42.3199C41.4799 46.321 39.9799 49.441 37.7999 51.401L36.4599 49.841C38.3799 48.201 39.7199 45.621 40.4599 42.081H39.6199C39.1199 43.261 38.5399 44.261 37.8799 45.061L36.3599 43.761C37.5999 42.201 38.4799 39.941 38.9999 37.021ZM32.2799 43.041C32.1199 43.981 31.9399 44.901 31.7199 45.781L29.8799 45.261C30.4199 43.161 30.7199 40.941 30.7999 38.621L32.6599 38.761C32.6199 39.521 32.5799 40.281 32.5199 41.041H33.3799V37.101H35.4199V41.041H36.7799V43.041H35.4199V47.041C35.8399 46.841 36.2599 46.641 36.6999 46.441V48.401C36.2599 48.601 35.8399 48.781 35.4199 48.981V55.581H33.3799V49.801C32.4799 50.121 31.5599 50.441 30.6199 50.721L30.1199 48.701C31.2199 48.481 32.2999 48.181 33.3799 47.821V43.041H32.2799ZM63.3799 37.001L65.4199 37.641C65.2199 38.081 65.0199 38.481 64.8199 38.881H70.9399V40.761H63.7799C63.0599 41.921 62.2799 42.941 61.4599 43.801C63.4599 43.701 65.4199 43.541 67.3399 43.301L66.2599 41.921L67.9399 40.881C69.3399 42.521 70.3999 43.961 71.1399 45.201L69.3999 46.421C69.1199 45.941 68.8199 45.441 68.4799 44.921C65.4799 45.281 62.4199 45.521 59.2799 45.661L58.6599 43.901C59.6999 43.101 60.6599 42.041 61.4999 40.761H58.4999V38.881H62.5599C62.8399 38.261 63.1199 37.641 63.3799 37.001ZM55.1199 37.221C56.3199 38.061 57.3599 38.921 58.1999 39.781L56.7199 41.261C55.9999 40.461 54.9599 39.581 53.6199 38.661L55.1199 37.221ZM54.6399 42.001C55.8799 42.961 56.9399 43.941 57.7799 44.901L56.2999 46.381C55.5599 45.481 54.5199 44.501 53.1599 43.441L54.6399 42.001ZM56.0999 47.421L57.9399 48.141C57.1799 50.681 56.3399 53.081 55.4199 55.321L53.4999 54.441C54.4999 52.161 55.3799 49.821 56.0999 47.421ZM63.1599 46.381H65.2599V55.181H63.1599V46.381ZM59.6999 46.381H61.6999C61.6199 49.021 61.3599 50.961 60.9199 52.201C60.4199 53.481 59.5999 54.621 58.4799 55.581L57.1599 53.901C58.0599 53.161 58.6999 52.281 59.0799 51.261C59.4199 50.301 59.6199 48.661 59.6999 46.381ZM68.8199 55.261C67.6199 55.261 67.0199 54.501 67.0199 53.001V46.381H69.0199V52.721C69.0199 53.121 69.1399 53.341 69.4199 53.341H71.4799V55.261H68.8199Z" fill="#009190"/>
<mask id="mask4" mask-type="alpha" maskUnits="userSpaceOnUse" x="50" y="168" width="47" height="49">
<path fill-rule="evenodd" clip-rule="evenodd" d="M50.26 168.501H96.26V216.501H50.26V168.501Z" fill="white"/>
</mask>
<g mask="url(#mask4)">
<path fill-rule="evenodd" clip-rule="evenodd" d="M93.5375 210.892H91.4463L91.4227 194.97H89.9939L90.0196 210.892H87.34C87.4279 210.562 87.4032 210.906 87.4032 204.811C87.4032 204.366 87.2446 203.956 86.9809 203.634C87.2446 203.312 87.4032 202.902 87.4032 202.457V196.848C87.4032 195.813 86.5479 194.97 85.4953 194.97H80.6248C80.7127 194.637 80.6891 194.986 80.6891 188.887C80.6891 187.852 79.8327 187.009 78.7801 187.009H67.7399C66.6874 187.009 65.8309 187.852 65.8309 188.887C65.8309 195.007 65.8074 194.637 65.8953 194.97H61.0247C59.9732 194.97 59.1168 195.813 59.1168 196.848V202.457C59.1168 202.902 59.2754 203.312 59.5391 203.634C59.2754 203.956 59.1168 204.366 59.1168 204.811C59.1168 210.929 59.0932 210.562 59.18 210.892H56.5015V186.076L73.26 174.737L90.0196 186.076V195.349H91.4463V187.035C92.7529 187.838 94.4507 187.472 95.3114 186.239C96.2053 184.958 95.8731 183.199 94.574 182.32L79.7062 172.258L78.8948 173.417L93.7647 183.48C94.9234 184.263 94.3532 186.055 92.9512 186.055C92.6618 186.055 92.382 185.969 92.1419 185.806L73.6641 173.303C73.4197 173.139 73.0982 173.139 72.8559 173.303C71.4282 174.268 55.2002 185.252 54.3781 185.806C53.7264 186.247 52.8325 186.085 52.3855 185.443C51.9375 184.8 52.1036 183.919 52.7553 183.48L72.4486 170.152C72.9342 169.824 73.5859 169.824 74.0714 170.152L78.8969 173.417L79.7062 172.258L74.8796 168.993C73.9106 168.337 72.6094 168.337 71.6404 168.993L51.9471 182.318C50.647 183.199 50.3157 184.958 51.2086 186.239C52.0757 187.483 53.7843 187.827 55.0737 187.039V210.892H52.9825C51.4819 210.892 50.26 212.097 50.26 213.573V213.82C50.26 215.299 51.4819 216.501 52.9825 216.501H93.5375C95.0381 216.501 96.26 215.299 96.26 213.82V213.573C96.26 212.094 95.0381 210.892 93.5375 210.892ZM79.0084 207.891H80.941C82.045 207.891 82.9432 207.008 82.9432 205.919V204.337H85.4953C85.7601 204.337 85.9755 204.549 85.9755 204.811V210.42C85.9755 210.679 85.7601 210.892 85.4953 210.892H74.4541C74.1893 210.892 73.9739 210.679 73.9739 210.42V204.811C73.9739 204.549 74.1893 204.337 74.4541 204.337H77.0072V205.919C77.0072 207.008 77.9044 207.891 79.0084 207.891ZM78.4339 204.337H81.5155V205.919C81.5155 206.231 81.2572 206.484 80.941 206.484H79.0084C78.6911 206.484 78.4339 206.231 78.4339 205.919V204.337ZM82.9432 197.958V196.376H85.4953C85.7601 196.376 85.9755 196.589 85.9755 196.848V202.459C85.9755 202.718 85.7601 202.931 85.4953 202.931H74.4541C74.1893 202.931 73.9739 202.718 73.9739 202.459V196.848C73.9739 196.589 74.1893 196.376 74.4541 196.376H77.0072V197.958C77.0072 199.047 77.9044 199.932 79.0084 199.932H80.941C82.045 199.932 82.9432 199.047 82.9432 197.958ZM81.5155 196.376V197.958C81.5155 198.272 81.2572 198.523 80.941 198.523H79.0084C78.6911 198.523 78.4339 198.272 78.4339 197.958V196.376H81.5155ZM71.7197 188.415H74.8013V189.997C74.8013 190.309 74.543 190.564 74.2268 190.564H72.2943C71.977 190.564 71.7197 190.309 71.7197 189.997V188.415ZM67.2587 188.887C67.2587 188.628 67.4752 188.415 67.7399 188.415H70.292V189.997C70.292 191.084 71.1892 191.969 72.2943 191.969H74.2268C75.3308 191.969 76.2291 191.084 76.2291 189.997V188.415H78.7801C79.0448 188.415 79.2614 188.628 79.2614 188.887V194.496C79.2614 194.757 79.0448 194.97 78.7801 194.97H67.7399C67.4752 194.97 67.2597 194.757 67.2597 194.496V188.887H67.2587ZM65.0045 196.376H68.0861V197.958C68.0861 198.272 67.8289 198.523 67.5116 198.523H65.5791C65.2618 198.523 65.0045 198.272 65.0045 197.958V196.376ZM60.5445 196.848C60.5445 196.589 60.76 196.376 61.0247 196.376H63.5768V197.958C63.5768 199.047 64.475 199.932 65.5801 199.932H67.5116C68.6156 199.932 69.5139 199.047 69.5139 197.958V196.376H72.066C72.3307 196.376 72.5462 196.589 72.5462 196.848V202.459C72.5462 202.718 72.3307 202.931 72.066 202.931H61.0247C60.76 202.931 60.5445 202.718 60.5445 202.459V196.848ZM68.0861 204.337V205.919C68.0861 206.231 67.8289 206.484 67.5116 206.484H65.5791C65.2618 206.484 65.0045 206.231 65.0045 205.919V204.337H68.0861ZM60.5445 204.811C60.5445 204.549 60.76 204.337 61.0247 204.337H63.5768V205.919C63.5768 207.008 64.475 207.891 65.5801 207.891H67.5116C68.6156 207.891 69.5139 207.008 69.5139 205.919V204.337H72.066C72.3307 204.337 72.5462 204.549 72.5462 204.811V210.42C72.5462 210.679 72.3307 210.892 72.066 210.892H61.0247C60.76 210.892 60.5445 210.679 60.5445 210.42V204.811ZM94.8323 213.82C94.8323 214.523 94.2503 215.097 93.5375 215.097H52.9825C52.2687 215.097 51.6877 214.523 51.6877 213.82V213.573C51.6877 212.872 52.2687 212.298 52.9825 212.298H93.5375C94.2503 212.298 94.8323 212.872 94.8323 213.573V213.82Z" fill="#009190"/>
</g>
<path fill-rule="evenodd" clip-rule="evenodd" d="M95.6285 49.3763C95.2802 49.3763 94.9973 49.658 94.9973 50.0022C94.9973 50.692 94.4414 51.2516 93.7592 51.2516C93.077 51.2516 92.521 50.692 92.521 50.0022C92.521 49.3112 93.077 48.7504 93.7592 48.7504C94.1075 48.7504 94.3904 48.4699 94.3904 48.1269C94.3904 47.7826 94.1075 47.501 93.7592 47.501C92.3814 47.501 91.2598 48.6227 91.2598 50.0022C91.2598 51.3805 92.3814 52.501 93.7592 52.501C95.1381 52.501 96.2598 51.3805 96.2598 50.0022C96.2598 49.658 95.9769 49.3763 95.6285 49.3763Z" fill="#009190"/>
<path fill-rule="evenodd" clip-rule="evenodd" d="M133.629 49.3763C133.28 49.3763 132.997 49.658 132.997 50.0022C132.997 50.692 132.441 51.2516 131.759 51.2516C131.077 51.2516 130.522 50.692 130.522 50.0022C130.522 49.3112 131.077 48.7504 131.759 48.7504C132.108 48.7504 132.39 48.4699 132.39 48.1269C132.39 47.7826 132.108 47.501 131.759 47.501C130.381 47.501 129.26 48.6227 129.26 50.0022C129.26 51.3805 130.381 52.501 131.759 52.501C133.138 52.501 134.26 51.3805 134.26 50.0022C134.26 49.658 133.977 49.3763 133.629 49.3763Z" fill="#009190"/>
<mask id="mask5" mask-type="alpha" maskUnits="userSpaceOnUse" x="82" y="18" width="61" height="39">
<path fill-rule="evenodd" clip-rule="evenodd" d="M82.26 18.499H142.965V56.5007H82.26V18.499Z" fill="white"/>
</mask>
<g mask="url(#mask5)">
<path fill-rule="evenodd" clip-rule="evenodd" d="M141.67 40.1707H140.4C139.517 40.1707 138.796 40.874 138.796 41.7383V42.6818C138.796 43.5486 139.517 44.2519 140.4 44.2519H141.67V46.7655H137.526C137.474 46.7655 137.421 46.7718 137.367 46.7844L137.164 46.8322L137.044 46.6598C135.845 44.9577 133.877 43.9399 131.777 43.9399C129.677 43.9399 127.709 44.9577 126.51 46.6598L126.39 46.8322L126.186 46.7856C126.133 46.7718 126.08 46.7655 126.028 46.7655H123.8V37.6546H141.67V40.1707ZM140.089 42.9963H141.67V41.4238H140.089V42.9963ZM131.777 55.2449C128.964 55.2449 126.674 52.9904 126.674 50.2201C126.674 47.4486 128.964 45.1929 131.777 45.1929C134.591 45.1929 136.879 47.4486 136.879 50.2201C136.879 52.9904 134.591 55.2449 131.777 55.2449ZM125.647 48.4274C125.559 48.7193 125.49 49.02 125.446 49.3231L125.407 49.5911H113.259V49.2766C113.259 48.9935 113.211 48.713 113.114 48.4438L112.96 48.021H125.772L125.647 48.4274ZM99.1968 46.7655C99.1446 46.7655 99.0923 46.7718 99.0375 46.7856L98.8346 46.8322L98.7138 46.6598C97.5162 44.9577 95.5468 43.9399 93.4479 43.9399C91.3478 43.9399 89.3783 44.9577 88.1807 46.6598L88.06 46.8322L87.8571 46.7844C87.8023 46.7718 87.75 46.7655 87.699 46.7655H83.5535V41.4238H113.57C113.928 41.4238 114.218 41.142 114.218 40.7972C114.218 40.4525 113.928 40.1707 113.57 40.1707H83.5535V19.7536H122.505V46.7655H99.1968ZM111.965 51.1612C111.965 51.8556 111.396 52.4192 110.696 52.4192H104.946C104.246 52.4192 103.676 51.8556 103.676 51.1612V49.2766C103.676 48.5834 104.246 48.021 104.946 48.021H110.696C111.396 48.021 111.965 48.5834 111.965 49.2766V51.1612ZM102.529 48.4438C102.431 48.713 102.383 48.9935 102.383 49.2766V49.5911H99.8168L99.777 49.3219C99.7334 49.0212 99.6662 48.7205 99.5765 48.4274L99.4521 48.021H102.681L102.529 48.4438ZM93.4479 55.2449C90.6344 55.2449 88.3451 52.9904 88.3451 50.2201C88.3451 47.4486 90.6344 45.1929 93.4479 45.1929C96.2601 45.1929 98.5495 47.4486 98.5495 50.2201C98.5495 52.9904 96.2601 55.2449 93.4479 55.2449ZM123.8 33.8879L136.501 33.9068L139.919 35.1674C140.293 35.3549 140.598 35.5876 140.857 35.8744L141.335 36.4016H123.8V33.8879ZM123.8 23.524H130.842C132.253 23.524 133.476 24.416 133.888 25.7445L135.731 32.6324H123.8V23.524ZM142.965 37.0281C142.965 36.8608 142.896 36.7035 142.773 36.5827L142.699 36.467C142.31 35.4127 141.526 34.5497 140.49 34.0377L137.11 32.7884L135.138 25.4237C134.561 23.5278 132.836 22.2685 130.842 22.2685H123.8V20.0681C123.8 19.2026 123.079 18.498 122.194 18.498H83.8647C82.9796 18.498 82.26 19.2026 82.26 20.0681V46.451C82.26 47.3178 82.9796 48.021 83.8647 48.021H87.4413L87.3168 48.4274C87.2296 48.7168 87.1612 49.0174 87.1164 49.3231L87.0765 49.5911H82.9074C82.5501 49.5911 82.26 49.8742 82.26 50.2201C82.26 50.5661 82.5501 50.8467 82.9074 50.8467H87.0778L87.1176 51.1159C87.5658 54.1868 90.2871 56.5004 93.4479 56.5004C96.6075 56.5004 99.3288 54.1868 99.777 51.1159L99.8168 50.8467H102.383V51.1612C102.383 52.5476 103.533 53.6748 104.946 53.6748H110.696C112.109 53.6748 113.259 52.5476 113.259 51.1612V50.8467H125.408L125.447 51.1159C125.895 54.1868 128.616 56.5004 131.777 56.5004C134.938 56.5004 137.659 54.1868 138.106 51.1159L138.146 50.8467H142.318C142.674 50.8467 142.965 50.5661 142.965 50.2201C142.965 49.8742 142.674 49.5911 142.318 49.5911H138.146L138.106 49.3219C138.063 49.0174 137.995 48.718 137.907 48.4287L137.781 48.021H141.359C142.244 48.021 142.965 47.3178 142.965 46.451V37.9691C142.965 37.7628 142.95 37.5615 142.921 37.3602L142.911 37.2872L142.935 37.2168C142.955 37.1564 142.965 37.0935 142.965 37.0281Z" fill="#009190"/>
</g>
<path fill-rule="evenodd" clip-rule="evenodd" d="M105.76 49.501C105.628 49.501 105.498 49.556 105.402 49.65C105.313 49.742 105.26 49.87 105.26 50.001C105.26 50.132 105.313 50.259 105.403 50.351C105.591 50.54 105.929 50.54 106.116 50.351C106.207 50.259 106.26 50.132 106.26 50.001C106.26 49.87 106.207 49.742 106.116 49.648C106.021 49.556 105.891 49.501 105.76 49.501Z" fill="#009190"/>
<path fill-rule="evenodd" clip-rule="evenodd" d="M116.865 41.497H118.655C118.989 41.497 119.26 41.273 119.26 40.999C119.26 40.725 118.989 40.501 118.655 40.501H116.865C116.531 40.501 116.26 40.725 116.26 40.999C116.26 41.273 116.531 41.497 116.865 41.497Z" fill="#009190"/>
<path fill-rule="evenodd" clip-rule="evenodd" d="M207.527 138.423C207.803 138.423 208.027 138.647 208.027 138.923V151.566C208.027 151.842 207.803 152.066 207.527 152.066C207.251 152.066 207.027 151.842 207.027 151.566V138.923C207.027 138.647 207.251 138.423 207.527 138.423Z" fill="url(#paint0_linear)"/>
<path d="M213.629 121.418L213.763 141.173L195.743 138.981L195.59 119.244L213.629 121.418Z" fill="url(#paint1_linear)"/>
<path d="M213.629 121.418L224.766 116.174L224.899 135.929L213.763 141.173L213.629 121.418Z" fill="url(#paint2_linear)"/>
<path d="M195.59 119.244L206.726 114L224.766 116.174L213.629 121.418L195.59 119.244Z" fill="#389495"/>
<path d="M236.836 151.566L236.97 169.338L220.742 167.374L220.608 149.602L236.836 151.566Z" fill="url(#paint3_linear)"/>
<path d="M236.836 151.566L246.866 146.837L247 164.628L236.97 169.338L236.836 151.566Z" fill="url(#paint4_linear)"/>
<path d="M220.608 149.602L230.639 144.892L246.866 146.837L236.836 151.566L220.608 149.602Z" fill="#389495"/>
<path d="M197.039 155.742L197.173 175.478L179.133 173.304L179 153.549L197.039 155.742Z" fill="url(#paint5_linear)"/>
<path d="M197.039 155.742L208.176 150.498L208.309 170.234L197.173 175.478L197.039 155.742Z" fill="url(#paint6_linear)"/>
<path d="M179 153.549L190.136 148.324L208.176 150.498L197.039 155.742L179 153.549Z" fill="#389495"/>
<path fill-rule="evenodd" clip-rule="evenodd" d="M220.112 128.608C220.142 128.334 220.39 128.136 220.664 128.167L234.342 129.705V148.553C234.342 148.829 234.118 149.053 233.842 149.053C233.566 149.053 233.342 148.829 233.342 148.553V130.598L220.553 129.161C220.278 129.13 220.081 128.883 220.112 128.608Z" fill="url(#paint7_linear)"/>
<path fill-rule="evenodd" clip-rule="evenodd" d="M228.634 161.141C228.748 161.392 228.637 161.689 228.386 161.803L218.954 166.094L203.465 164.285C203.19 164.253 202.994 164.005 203.026 163.731C203.058 163.456 203.306 163.26 203.581 163.292L218.793 165.068L227.972 160.893C228.223 160.778 228.52 160.889 228.634 161.141Z" fill="url(#paint8_linear)"/>
<path d="M351.58 36.5199V38.5399H357.26V51.3399C357.26 51.8199 357.02 52.0799 356.54 52.0799C355.76 52.0799 354.96 52.0199 354.12 51.9399L354.58 53.9799H357.26C358.66 53.9799 359.38 53.2599 359.38 51.8599V38.5399H363.36V36.5199H351.58ZM347.56 35.6999L346.08 37.1399C347.5 38.1799 348.6 39.1599 349.36 40.0799L350.8 38.6199C349.9 37.6599 348.82 36.6799 347.56 35.6999ZM344.78 41.4799V43.4799H347.52V50.5799C347.52 50.9999 347.34 51.3599 346.98 51.6599L347.78 53.5399C349.32 52.5999 350.78 51.5399 352.14 50.3399L351.58 48.1599C350.86 48.8199 350.18 49.3999 349.54 49.9199V41.4799H344.78Z" fill="#009190"/>
<path d="M369.82 38.5399V47.2399H375.96V48.7199H368.04V50.6799H375.96V54.1799H378.04V50.6799H385.96V48.7199H378.04V47.2399H384.18V38.5399H380.62C381.14 37.8199 381.64 36.9999 382.08 36.0999L380.06 35.3799C379.6 36.4999 379.06 37.5399 378.44 38.5399H374.56L375.74 37.9399C375.14 37.0399 374.5 36.2199 373.82 35.4799L372.08 36.3199C372.68 36.9799 373.26 37.7199 373.82 38.5399H369.82ZM382.16 45.3999H378.04V43.7399H382.16V45.3999ZM375.96 45.3999H371.84V43.7399H375.96V45.3999ZM371.84 41.9799V40.3599H375.96V41.9799H371.84ZM378.04 40.3599H382.16V41.9799H378.04V40.3599Z" fill="#009190"/>
<path d="M9.25993 196.68C6.97993 199.36 4.11993 201.58 0.679932 203.38L1.71993 205.26C5.15993 203.38 7.91993 201.14 9.99993 198.58C12.2599 201.3 14.9999 203.52 18.2199 205.22L19.2599 203.36C16.0399 201.72 13.1999 199.5 10.7399 196.68H9.25993ZM13.0399 205.46V207.62C13.0399 208.3 12.7999 208.66 12.3599 208.66C11.6599 208.66 10.8199 208.62 9.83993 208.54L10.3999 210.5C11.2799 210.54 12.2199 210.58 13.2199 210.58C14.4599 210.5 15.0999 209.76 15.1199 208.36V203.56H4.71993V212.5C4.71993 214 5.43993 214.76 6.89993 214.76H13.8999C15.3599 214.76 16.3399 214.56 16.8399 214.18C17.3399 213.8 17.7199 212.56 17.9599 210.48L16.0399 209.84C15.8799 211.08 15.6599 211.88 15.3999 212.26C15.1199 212.64 14.4199 212.84 13.2799 212.84H7.85993C7.17993 212.84 6.83993 212.46 6.83993 211.72V205.46H13.0399Z" fill="#009190"/>
<path d="M25.3799 204.86V215.14H27.3799V201.24C27.8999 200.02 28.3399 198.76 28.6999 197.44L26.8199 196.56C26.1199 199.48 25.0399 202.02 23.5599 204.18L24.2599 206.42C24.6599 205.9 25.0199 205.38 25.3799 204.86ZM30.0799 197.2L28.6399 198.58C29.8399 199.72 30.7799 200.78 31.4199 201.78L32.9799 200.22C32.1799 199.22 31.2199 198.22 30.0799 197.2ZM27.8799 202.62V204.56H29.8399V211.8C29.8399 212.16 29.6799 212.46 29.3799 212.7L30.1799 214.62C31.3799 213.54 32.5199 212.34 33.5999 211L33.0799 208.96C32.6599 209.48 32.2599 209.94 31.8599 210.38V202.62H27.8799ZM33.6599 198.74V200.52H35.8399V202.56H33.4199V204.44H36.3399C35.1599 205.58 33.8199 206.48 32.3399 207.16L33.3999 208.78C33.6799 208.64 33.9799 208.48 34.2999 208.32V215.04H36.2599V214.32H39.2999V215.04H41.2599V205.86H37.6399C38.0799 205.42 38.5199 204.96 38.9599 204.44H42.0599V202.56H40.3199C41.0999 201.34 41.7999 199.98 42.4399 198.46L40.7199 197.56C40.4399 198.28 40.1199 198.98 39.7799 199.66V198.74H37.7399V196.62H35.8399V198.74H33.6599ZM37.9799 202.56H37.7399V200.52H39.3199C38.9199 201.24 38.4599 201.92 37.9799 202.56ZM36.2599 210.92H39.2999V212.52H36.2599V210.92ZM39.2999 209.2H36.2599V207.66H39.2999V209.2Z" fill="#009190"/>
<path d="M400.86 199.24C400.06 200.86 399.12 202.26 398.04 203.42L399.72 204.6C400.88 203.36 401.9 201.88 402.76 200.16L400.86 199.24ZM395.16 199.6L393.22 200.26C393.84 201.34 394.34 202.46 394.74 203.64L396.76 203.12C396.28 201.8 395.76 200.64 395.16 199.6ZM389.72 200.1L387.72 200.76C388.44 201.82 389.1 203.04 389.7 204.44L391.62 203.58C391.08 202.34 390.44 201.18 389.72 200.1ZM401.84 196.6C397.74 197.24 392.74 197.58 386.86 197.58L387.52 199.52C393.88 199.52 399 199.12 402.86 198.34L401.84 196.6ZM386.92 205.66V207.7H392.24C390.84 209.56 388.72 211.12 385.88 212.38L387.08 214.34C390.2 212.62 392.5 210.46 393.96 207.86V215H396.04V207.76C397.38 210.16 399.6 212.32 402.68 214.28L404.18 212.38C401.26 211 399.12 209.44 397.76 207.7H403.1V205.66H396.04V204.04H393.96V205.66H386.92Z" fill="#009190"/>
<path d="M416.62 197.2H409.36V210.02H411.24V199.12H414.78V210.02H416.62V203.26L417.52 204.44C418.28 203.5 418.94 202.44 419.5 201.26H424.6C424.58 207.18 424.52 210.62 424.42 211.6C424.3 212.56 423.94 213.06 423.3 213.06C422.42 213.06 421.38 213.02 420.18 212.96L420.68 214.82C422.08 214.88 423.04 214.92 423.6 214.92C425.24 214.92 426.16 214.08 426.36 212.44C426.54 210.76 426.64 206.36 426.64 199.24H420.28C420.52 198.46 420.74 197.64 420.9 196.78L418.88 196.52C418.46 198.76 417.7 200.68 416.62 202.3V197.2ZM422.62 205.42L421.04 206.18C421.28 206.86 421.54 207.6 421.78 208.38C420.98 208.56 420.18 208.7 419.34 208.8C420.1 207.26 420.84 205.42 421.56 203.28L419.66 202.62C418.52 206.66 417.66 208.76 417.06 208.96L417.4 210.78C419.16 210.6 420.78 210.36 422.26 210.04C422.38 210.48 422.5 210.92 422.62 211.4L424.32 210.54C423.76 208.68 423.2 206.98 422.62 205.42ZM412.12 200.3V206.86C412.06 208.54 411.82 209.9 411.38 210.96C410.94 211.92 410.06 212.74 408.78 213.4L409.88 215.14C411.24 214.46 412.22 213.5 412.82 212.24C413.44 210.9 413.78 209.1 413.84 206.86V200.3H412.12ZM414.72 210.48L413.38 211.78C414.5 212.92 415.36 213.98 415.96 214.98L417.46 213.48C416.7 212.5 415.8 211.5 414.72 210.48Z" fill="#009190"/>
<path d="M195.06 327.04H199.3V330.96H193.66V332.98H199.3V337.34H191.24V339.42H209.04V337.34H201.4V332.98H207.36V330.96H201.4V327.04H207.74V325.02H201.4V321.74H199.3V325.02H195.82C196.06 324.26 196.26 323.44 196.44 322.58L194.3 322.18C193.68 325.36 192.48 327.88 190.68 329.76L192.06 331.5C193.28 330.3 194.28 328.8 195.06 327.04Z" fill="#009190"/>
<path d="M223.34 321.34L221.14 321.7C221.44 322.22 221.72 322.8 221.98 323.44H215.04V325.42H218.56L219.22 327.86H215.2V332.48C215.16 335.1 214.62 337.14 213.6 338.62L215.18 340.04C216.54 338.14 217.24 335.62 217.32 332.48V329.88H231.44V327.86H226.92C227.24 327.06 227.5 326.26 227.7 325.42H231.02V323.44H224.12C223.88 322.66 223.62 321.96 223.34 321.34ZM221.28 327.86L220.62 325.42H225.7C225.5 326.26 225.24 327.06 224.9 327.86H221.28Z" fill="#009190"/>
<defs>
<linearGradient id="paint0_linear" x1="207.527" y1="145.244" x2="208.527" y2="145.244" gradientUnits="userSpaceOnUse">
<stop stop-color="#009191"/>
<stop offset="1" stop-color="#0052A5"/>
</linearGradient>
<linearGradient id="paint1_linear" x1="180.325" y1="132.75" x2="206.13" y2="130.05" gradientUnits="userSpaceOnUse">
<stop stop-color="white"/>
<stop offset="0.9988" stop-color="#4DBDBC"/>
</linearGradient>
<linearGradient id="paint2_linear" x1="220.628" y1="137.278" x2="216.013" y2="108.049" gradientUnits="userSpaceOnUse">
<stop stop-color="#009191"/>
<stop offset="1" stop-color="#1D2088"/>
</linearGradient>
<linearGradient id="paint3_linear" x1="215.096" y1="173.061" x2="236.275" y2="152.037" gradientUnits="userSpaceOnUse">
<stop stop-color="white"/>
<stop offset="0.9988" stop-color="#4DBDBC"/>
</linearGradient>
<linearGradient id="paint4_linear" x1="241.918" y1="145.237" x2="241.918" y2="168.138" gradientUnits="userSpaceOnUse">
<stop stop-color="#169090"/>
<stop offset="0.9988" stop-color="#FFE200"/>
</linearGradient>
<linearGradient id="paint5_linear" x1="174.417" y1="174.006" x2="187.654" y2="164.818" gradientUnits="userSpaceOnUse">
<stop stop-color="white"/>
<stop offset="0.9988" stop-color="#4DBDBC"/>
</linearGradient>
<linearGradient id="paint6_linear" x1="200.124" y1="172.219" x2="206.364" y2="149.601" gradientUnits="userSpaceOnUse">
<stop stop-color="#009191"/>
<stop offset="1" stop-color="#1D2088"/>
</linearGradient>
<linearGradient id="paint7_linear" x1="220.232" y1="138.611" x2="234.223" y2="138.611" gradientUnits="userSpaceOnUse">
<stop stop-color="#009191"/>
<stop offset="1" stop-color="#0052A5"/>
</linearGradient>
<linearGradient id="paint8_linear" x1="203.133" y1="163.468" x2="228.558" y2="163.468" gradientUnits="userSpaceOnUse">
<stop stop-color="#0052A5"/>
<stop offset="1" stop-color="#009191"/>
</linearGradient>
</defs>
</svg>
