<svg width="427" height="340" viewBox="0 0 427 340" fill="none" xmlns="http://www.w3.org/2000/svg">
<path fill-rule="evenodd" clip-rule="evenodd" d="M213.538 1.5C191.859 1.5 171.279 6.19519 152.757 14.6236L152.343 13.7134C170.993 5.22699 191.714 0.5 213.538 0.5C234.001 0.5 253.495 4.65602 271.221 12.1705L270.83 13.0912C253.226 5.6281 233.864 1.5 213.538 1.5ZM360.11 138.428C358.452 113.7 350.674 90.6485 338.279 70.7741L339.128 70.2449C351.607 90.2551 359.438 113.465 361.108 138.361C361.33 141.68 361.444 145.03 361.444 148.406H360.444C360.444 145.052 360.331 141.725 360.11 138.428ZM84.9686 77.2771C74.8991 95.4392 68.5664 115.96 67.0085 137.801C66.7586 141.304 66.6316 144.84 66.6316 148.406H65.6316C65.6316 144.816 65.7595 141.256 66.011 137.73C67.5795 115.74 73.9556 95.0787 84.094 76.7922L84.9686 77.2771ZM270.935 283.677C296.224 272.933 317.883 255.303 333.558 233.141L334.375 233.718C318.594 256.031 296.788 273.78 271.326 284.597L270.935 283.677ZM95.487 235.86C110.564 256.178 130.761 272.468 154.17 282.822L153.765 283.737C130.197 273.312 109.863 256.911 94.684 236.456L95.487 235.86Z" fill="#4BC8C8"/>
<path fill-rule="evenodd" clip-rule="evenodd" d="M212.3 79.9693C175.08 79.9693 144.906 110.142 144.906 147.363C144.906 184.581 175.08 214.756 212.3 214.756C249.521 214.756 279.695 184.581 279.695 147.363C279.695 110.142 249.521 79.9693 212.3 79.9693ZM144.006 147.363C144.006 109.645 174.583 79.0693 212.3 79.0693C250.018 79.0693 280.595 109.645 280.595 147.363C280.595 185.078 250.018 215.656 212.3 215.656C174.583 215.656 144.006 185.078 144.006 147.363Z" fill="#009190"/>
<path fill-rule="evenodd" clip-rule="evenodd" d="M212.3 92.5474C182.027 92.5474 157.486 117.09 157.486 147.363C157.486 177.635 182.026 202.177 212.3 202.177C242.575 202.177 267.116 177.635 267.116 147.363C267.116 117.09 242.575 92.5474 212.3 92.5474ZM156.736 147.363C156.736 116.676 181.612 91.7974 212.3 91.7974C242.989 91.7974 267.866 116.676 267.866 147.363C267.866 178.049 242.989 202.927 212.3 202.927C181.612 202.927 156.736 178.049 156.736 147.363Z" fill="#009190"/>
<path fill-rule="evenodd" clip-rule="evenodd" d="M241.198 248.249C241.198 251.498 238.567 254.131 235.319 254.131C232.073 254.131 229.439 251.498 229.439 248.249C229.439 245.005 232.073 242.368 235.319 242.368C238.567 242.368 241.198 245.005 241.198 248.249Z" fill="#009190"/>
<path fill-rule="evenodd" clip-rule="evenodd" d="M267.517 56.4048C267.517 59.6535 264.886 62.2861 261.637 62.2861C258.388 62.2861 255.757 59.6535 255.757 56.4048C255.757 53.1607 258.388 50.5234 261.637 50.5234C264.886 50.5234 267.517 53.1607 267.517 56.4048Z" fill="#009190"/>
<path fill-rule="evenodd" clip-rule="evenodd" d="M121.826 186.687C121.826 189.934 119.192 192.567 115.946 192.567C112.698 192.567 110.063 189.934 110.063 186.687C110.063 183.441 112.698 180.806 115.946 180.806C119.192 180.806 121.826 183.441 121.826 186.687Z" fill="#009190"/>
<path fill-rule="evenodd" clip-rule="evenodd" d="M319.871 175.476C319.871 178.725 317.237 181.357 313.988 181.357C310.743 181.357 308.109 178.725 308.109 175.476C308.109 172.232 310.743 169.595 313.988 169.595C317.237 169.595 319.871 172.232 319.871 175.476Z" fill="#009190"/>
<path fill-rule="evenodd" clip-rule="evenodd" d="M139.499 78.1675C139.499 81.4162 136.868 84.0488 133.619 84.0488C130.37 84.0488 127.736 81.4162 127.736 78.1675C127.736 74.9234 130.37 72.2861 133.619 72.2861C136.868 72.2861 139.499 74.9234 139.499 78.1675Z" fill="#009190"/>
<path fill-rule="evenodd" clip-rule="evenodd" d="M212.299 43.6724C155.034 43.6724 108.612 90.0962 108.612 147.363C108.612 204.629 155.034 251.053 212.299 251.053C269.565 251.053 315.99 204.629 315.99 147.363C315.99 90.0962 269.565 43.6724 212.299 43.6724ZM107.612 147.363C107.612 89.5439 154.482 42.6724 212.299 42.6724C270.117 42.6724 316.99 89.5439 316.99 147.363C316.99 205.181 270.117 252.053 212.299 252.053C154.482 252.053 107.612 205.181 107.612 147.363Z" fill="#009190"/>
<path fill-rule="evenodd" clip-rule="evenodd" d="M212.299 64.5103C166.542 64.5103 129.448 101.605 129.448 147.363C129.448 193.12 166.542 230.215 212.299 230.215C258.056 230.215 295.151 193.12 295.151 147.363C295.151 101.605 258.056 64.5103 212.299 64.5103ZM128.448 147.363C128.448 101.053 165.99 63.5103 212.299 63.5103C258.609 63.5103 296.151 101.053 296.151 147.363C296.151 193.673 258.609 231.215 212.299 231.215C165.99 231.215 128.448 193.673 128.448 147.363Z" fill="#009190"/>
<path fill-rule="evenodd" clip-rule="evenodd" d="M232.165 80.6816C232.165 83.9304 229.534 86.563 226.285 86.563C223.036 86.563 220.402 83.9304 220.402 80.6816C220.402 77.4376 223.036 74.8003 226.285 74.8003C229.534 74.8003 232.165 77.4376 232.165 80.6816Z" fill="#7EC7C5"/>
<path fill-rule="evenodd" clip-rule="evenodd" d="M164.835 214.044C164.835 217.293 162.204 219.925 158.956 219.925C155.707 219.925 153.073 217.293 153.073 214.044C153.073 210.8 155.707 208.163 158.956 208.163C162.204 208.163 164.835 210.8 164.835 214.044Z" fill="#7EC7C5"/>
<path fill-rule="evenodd" clip-rule="evenodd" d="M265.462 174.011C265.462 177.259 262.831 179.892 259.582 179.892C256.337 179.892 253.702 177.259 253.702 174.011C253.702 170.767 256.337 168.129 259.582 168.129C262.831 168.129 265.462 170.767 265.462 174.011Z" fill="#7EC7C5"/>
<path fill-rule="evenodd" clip-rule="evenodd" d="M154.202 126.249C154.202 129.498 151.571 132.131 148.322 132.131C145.073 132.131 142.439 129.498 142.439 126.249C142.439 123.005 145.073 120.368 148.322 120.368C151.571 120.368 154.202 123.005 154.202 126.249Z" fill="#7EC7C5"/>
<path fill-rule="evenodd" clip-rule="evenodd" d="M201.26 283.001C201.26 283.277 201.576 283.501 201.966 283.501H208.554C208.944 283.501 209.26 283.277 209.26 283.001C209.26 282.724 208.944 282.501 208.554 282.501H201.966C201.576 282.501 201.26 282.724 201.26 283.001Z" fill="#009190"/>
<path fill-rule="evenodd" clip-rule="evenodd" d="M197.927 280.501H200.593C200.961 280.501 201.26 280.277 201.26 280.001C201.26 279.725 200.961 279.501 200.593 279.501H197.927C197.558 279.501 197.26 279.725 197.26 280.001C197.26 280.277 197.558 280.501 197.927 280.501Z" fill="#009190"/>
<mask id="mask0" mask-type="alpha" maskUnits="userSpaceOnUse" x="206" y="266" width="22" height="18">
<path fill-rule="evenodd" clip-rule="evenodd" d="M206.442 266.451H227.405V283.029H206.442V266.451Z" fill="white"/>
</mask>
<g mask="url(#mask0)">
<path fill-rule="evenodd" clip-rule="evenodd" d="M210.342 271.244V281.371C210.342 282.285 211.107 283.028 212.049 283.028H221.799C222.74 283.028 223.505 282.285 223.505 281.371V271.244L227.192 267.663C227.477 267.385 227.477 266.935 227.192 266.659C226.906 266.381 226.441 266.381 226.157 266.659L222.471 270.239H211.376L207.69 266.659C207.404 266.381 206.941 266.381 206.655 266.659C206.37 266.935 206.37 267.385 206.655 267.663L210.342 271.244ZM211.804 271.66H222.041V281.371C222.041 281.501 221.934 281.608 221.799 281.608H212.049C211.913 281.608 211.804 281.502 211.804 281.371V271.66Z" fill="#009190"/>
</g>
<path fill-rule="evenodd" clip-rule="evenodd" d="M204.927 280.501H207.593C207.961 280.501 208.26 280.277 208.26 280.001C208.26 279.725 207.961 279.501 207.593 279.501H204.927C204.559 279.501 204.26 279.725 204.26 280.001C204.26 280.277 204.559 280.501 204.927 280.501Z" fill="#009190"/>
<path fill-rule="evenodd" clip-rule="evenodd" d="M232.26 290.501C232.26 288.847 230.914 287.501 229.261 287.501C227.606 287.501 226.26 288.847 226.26 290.501C226.26 292.155 227.606 293.501 229.261 293.501C230.914 293.501 232.26 292.155 232.26 290.501ZM227.645 290.501C227.645 289.611 228.37 288.885 229.261 288.885C230.151 288.885 230.876 289.611 230.876 290.501C230.876 291.391 230.151 292.117 229.261 292.117C228.37 292.117 227.645 291.391 227.645 290.501Z" fill="#009190"/>
<path fill-rule="evenodd" clip-rule="evenodd" d="M209.26 290.501C209.26 292.155 210.606 293.501 212.259 293.501C213.914 293.501 215.26 292.155 215.26 290.501C215.26 288.847 213.914 287.501 212.259 287.501C210.606 287.501 209.26 288.847 209.26 290.501ZM213.875 290.501C213.875 291.391 213.151 292.117 212.259 292.117C211.369 292.117 210.645 291.391 210.645 290.501C210.645 289.611 211.369 288.885 212.259 288.885C213.151 288.885 213.875 289.611 213.875 290.501Z" fill="#009190"/>
<mask id="mask1" mask-type="alpha" maskUnits="userSpaceOnUse" x="189" y="285" width="47" height="28">
<path fill-rule="evenodd" clip-rule="evenodd" d="M189.26 285.484H235.258V312.501H189.26V285.484Z" fill="white"/>
</mask>
<g mask="url(#mask1)">
<path fill-rule="evenodd" clip-rule="evenodd" d="M234.531 311.027H232.352V309.799C232.352 308.309 231.157 307.098 229.69 307.098H228.479V301.946V301.936V297.765H229.206C232.543 297.765 235.258 295.01 235.258 291.625C235.258 288.239 232.543 285.484 229.206 285.484H225.816C225.415 285.484 225.09 285.815 225.09 286.222C225.09 286.628 225.415 286.959 225.816 286.959H229.206C231.741 286.959 233.806 289.052 233.806 291.625C233.806 294.198 231.741 296.291 229.206 296.291H221.949H221.938H218.074H218.064H206.454H206.444H202.581H202.569H195.312C192.776 296.291 190.712 294.198 190.712 291.625C190.712 289.052 192.776 286.959 195.312 286.959H222.912C223.312 286.959 223.637 286.628 223.637 286.222C223.637 285.815 223.312 285.484 222.912 285.484H195.312C191.974 285.484 189.26 288.239 189.26 291.625C189.26 295.01 191.974 297.765 195.312 297.765H196.038V301.936V301.946V307.098H194.829C193.36 307.098 192.165 308.309 192.165 309.799V311.027H189.987C189.585 311.027 189.26 311.358 189.26 311.764C189.26 312.171 189.585 312.501 189.987 312.501H194.829C195.229 312.501 195.554 312.171 195.554 311.764C195.554 311.358 195.229 311.027 194.829 311.027H193.618V309.799C193.618 309.122 194.162 308.572 194.829 308.572H198.702C199.37 308.572 199.912 309.122 199.912 309.799V311.027H197.733C197.331 311.027 197.007 311.358 197.007 311.764C197.007 312.171 197.331 312.501 197.733 312.501H234.531C234.934 312.501 235.258 312.171 235.258 311.764C235.258 311.358 234.934 311.027 234.531 311.027ZM227.027 297.765V300.366L223.949 297.765H227.027ZM212.986 297.765H216.063L212.986 300.366V297.765ZM211.532 297.765V300.366L208.455 297.765H211.532ZM197.491 297.765H200.569L197.491 300.366V297.765ZM207.659 309.799V311.027H201.365V309.799C201.365 308.309 200.17 307.098 198.702 307.098H197.491V302.286L202.838 297.765H206.186L211.532 302.286V307.098H210.321C208.854 307.098 207.659 308.309 207.659 309.799ZM215.406 311.027H209.112V309.799C209.112 309.122 209.654 308.572 210.323 308.572H214.196C214.863 308.572 215.406 309.122 215.406 309.799V311.027ZM223.153 309.799V311.027H216.859V309.799C216.859 308.309 215.664 307.098 214.195 307.098H212.986V302.286L218.332 297.765H221.68L227.027 302.286V307.098H225.816C224.348 307.098 223.153 308.309 223.153 309.799ZM230.901 311.027H224.606V309.799C224.606 309.122 225.149 308.572 225.816 308.572H229.69C230.357 308.572 230.901 309.122 230.901 309.799V311.027Z" fill="#009190"/>
</g>
<path fill-rule="evenodd" clip-rule="evenodd" d="M192.26 290.501C192.26 292.155 193.606 293.501 195.259 293.501C196.914 293.501 198.26 292.155 198.26 290.501C198.26 288.847 196.914 287.501 195.259 287.501C193.606 287.501 192.26 288.847 192.26 290.501ZM196.875 290.501C196.875 291.391 196.151 292.117 195.259 292.117C194.369 292.117 193.645 291.391 193.645 290.501C193.645 289.611 194.369 288.885 195.259 288.885C196.151 288.885 196.875 289.611 196.875 290.501Z" fill="#009190"/>
<mask id="mask2" mask-type="alpha" maskUnits="userSpaceOnUse" x="292" y="11" width="45" height="45">
<path fill-rule="evenodd" clip-rule="evenodd" d="M292.26 11.501H336.173V55.4141H292.26V11.501Z" fill="white"/>
</mask>
<g mask="url(#mask2)">
<path fill-rule="evenodd" clip-rule="evenodd" d="M300.128 18.9066L300.354 18.5162C300.73 17.8645 301.43 17.4598 302.181 17.4598H302.183L302.443 17.46V17.4799C303.076 17.5859 303.626 17.956 303.967 18.51L304.21 18.9066H300.128ZM318.585 18.9067H321.883V12.8317H318.585V18.9067ZM306.811 42.4543H327.177C328.564 42.4543 329.693 41.3253 329.693 39.9376V36.2347C329.693 35.5807 330.225 35.0486 330.879 35.0486H333.657C335.044 35.0486 336.173 33.9196 336.173 32.5318V14.0177C336.173 12.63 335.044 11.501 333.656 11.501H315.142C313.755 11.501 312.626 12.63 312.626 14.0177V32.5318C312.626 33.9196 313.755 35.0486 315.142 35.0486H325.99V33.7179H315.142C314.488 33.7179 313.956 33.1859 313.956 32.5318V14.0177C313.956 13.3637 314.488 12.8317 315.142 12.8317H317.254V19.572C317.254 19.9389 317.553 20.2374 317.919 20.2374H322.548C322.915 20.2374 323.213 19.9389 323.213 19.572V12.8317H333.656C334.311 12.8317 334.843 13.3637 334.843 14.0177V32.5318C334.843 33.1859 334.311 33.7179 333.656 33.7179H330.879C329.492 33.7179 328.363 34.8469 328.363 36.2347V39.9376C328.363 40.5917 327.831 41.1237 327.176 41.1237H306.811C306.157 41.1237 305.625 40.5917 305.625 39.9376V19.7293C305.639 19.0657 305.468 18.419 305.132 17.8536L304.898 17.4602H310.253V16.1295L302.182 16.1311C302.178 16.1311 302.174 16.131 302.171 16.131C301.288 16.131 300.452 16.4663 299.814 17.0756C299.346 17.5211 299.014 18.0867 298.851 18.7117L298.801 18.9066H296.628C294.223 18.9096 292.263 20.8692 292.26 23.2751V43.6404C292.263 46.046 294.223 48.0057 296.629 48.0086H306.146V50.4379L305.923 50.4705C304.15 50.7312 302.769 52.0949 302.488 53.864L302.453 54.0835H300.591V55.4142H327.842V54.0835H325.981L325.946 53.8641C325.664 52.0949 324.284 50.7312 322.51 50.4705L322.288 50.4379V48.0085H331.805C334.211 48.0056 336.17 46.0459 336.173 43.6401V36.4951H334.843V43.6403C334.843 45.3152 333.48 46.6778 331.805 46.6778H314.477V48.0085H320.957V51.046C320.957 51.411 321.252 51.708 321.616 51.7114C321.716 51.7065 321.816 51.7065 321.916 51.7118C323.122 51.7757 324.173 52.5931 324.533 53.7458L324.638 54.0835H303.796L303.9 53.746C304.294 52.4802 305.492 51.6437 306.816 51.7113H313.956V50.3807H307.476V47.3432C307.476 46.9763 307.178 46.6778 306.811 46.6778H296.628C294.953 46.6778 293.591 45.3152 293.591 43.6403V41.5286H301.922V40.1979H293.591V23.2748C293.591 21.6 294.953 20.2374 296.628 20.2374H304.294V39.9376C304.294 41.3253 305.423 42.4543 306.811 42.4543Z" fill="#0F9696"/>
</g>
<path fill-rule="evenodd" clip-rule="evenodd" d="M295.963 25.1261V26.7172H297.294V25.1261C297.294 24.4721 297.826 23.94 298.48 23.94H300.071V22.6094H298.48C297.092 22.6094 295.963 23.7384 295.963 25.1261Z" fill="#0F9696"/>
<mask id="mask3" mask-type="alpha" maskUnits="userSpaceOnUse" x="292" y="11" width="45" height="45">
<path fill-rule="evenodd" clip-rule="evenodd" d="M292.26 55.4142H336.173V11.501H292.26V55.4142Z" fill="white"/>
</mask>
<g mask="url(#mask3)">
<path fill-rule="evenodd" clip-rule="evenodd" d="M307.997 38.7516H322.288V37.4209H307.997V38.7516Z" fill="#0F9696"/>
<path fill-rule="evenodd" clip-rule="evenodd" d="M324.66 38.7516H325.99V37.4209H324.66V38.7516Z" fill="#0F9696"/>
<path fill-rule="evenodd" clip-rule="evenodd" d="M307.997 35.0489H311.179V33.7183H307.997V35.0489Z" fill="#0F9696"/>
<path fill-rule="evenodd" clip-rule="evenodd" d="M307.997 31.3458H311.179V30.0151H307.997V31.3458Z" fill="#0F9696"/>
<path fill-rule="evenodd" clip-rule="evenodd" d="M307.997 27.6432H311.179V26.3125H307.997V27.6432Z" fill="#0F9696"/>
<path fill-rule="evenodd" clip-rule="evenodd" d="M307.997 23.94H311.179V22.6094H307.997V23.94Z" fill="#0F9696"/>
</g>
<path fill-rule="evenodd" clip-rule="evenodd" d="M347.241 171.978H341.504C341.165 171.978 340.889 172.221 340.889 172.52V210.734C340.889 211.033 341.165 211.276 341.504 211.276L363.917 211.243L364.093 211.173L364.075 211.14L364.123 211.16L372.875 203.161L372.87 203.104L372.884 203.111L372.946 202.987L372.97 202.888L372.966 172.52C372.966 172.221 372.691 171.978 372.353 171.978H366.616V169.737H375.37V213.102H338.486V169.737H347.241V171.978ZM370.913 203.383L364.346 209.396V203.383H370.913ZM347.854 175.967H366.002C366.34 175.967 366.616 175.725 366.616 175.427V173.061H371.741V202.301H363.734C363.397 202.301 363.121 202.544 363.121 202.842V210.193H342.116V173.061H347.241V175.427C347.241 175.725 347.516 175.967 347.854 175.967ZM348.466 174.885V169.737H351.558L351.615 169.738L351.895 169.643L351.947 169.602L352.153 169.324L352.175 169.275C352.56 167.135 354.559 165.582 356.928 165.582C359.294 165.582 361.298 167.138 361.692 169.281L361.806 169.529L361.84 169.571L361.904 169.618L362.261 169.731L365.39 169.736V174.885H348.466ZM375.984 168.656H362.798L362.745 168.489C361.993 166.104 359.655 164.501 356.928 164.501C354.201 164.501 351.863 166.104 351.11 168.489L351.059 168.656H337.872C337.535 168.656 337.26 168.899 337.26 169.197V213.642C337.26 213.941 337.535 214.182 337.872 214.182H375.984C376.321 214.182 376.596 213.941 376.596 213.642V169.197C376.596 168.899 376.321 168.656 375.984 168.656Z" fill="#009090"/>
<path fill-rule="evenodd" clip-rule="evenodd" d="M349.053 190.278C349.053 185.602 352.856 181.799 357.53 181.799C362.206 181.799 366.009 185.602 366.009 190.278C366.009 194.953 362.206 198.756 357.53 198.756C352.856 198.756 349.053 194.953 349.053 190.278ZM357.53 200.075C362.934 200.075 367.329 195.679 367.329 190.278C367.329 184.875 362.934 180.479 357.53 180.479C352.128 180.479 347.732 184.875 347.732 190.278C347.732 195.679 352.128 200.075 357.53 200.075Z" fill="#009090"/>
<path fill-rule="evenodd" clip-rule="evenodd" d="M354.417 194.67H354.42C354.595 194.669 354.763 194.601 354.88 194.483L362.153 187.213C362.409 186.955 362.409 186.536 362.152 186.279C361.895 186.022 361.474 186.023 361.217 186.28L354.416 193.083L352.391 191.057C352.14 190.807 351.707 190.808 351.457 191.057C351.201 191.314 351.201 191.732 351.457 191.989L353.95 194.483C354.07 194.602 354.24 194.67 354.417 194.67Z" fill="#009090"/>
<path fill-rule="evenodd" clip-rule="evenodd" d="M37.9999 35.021L39.9599 35.541C39.7599 36.441 39.5599 37.281 39.3399 38.081H46.8999C46.8999 45.041 46.7999 49.321 46.5999 50.921C46.3599 52.641 45.2199 53.501 43.1799 53.501C42.8999 53.501 42.3799 53.461 41.6599 53.401L41.1799 51.541C41.8199 51.601 42.3599 51.641 42.8399 51.641C43.8999 51.641 44.5199 51.081 44.6799 49.981C44.7999 49.041 44.8599 45.741 44.8999 40.081H44.1799C43.7599 43.281 43.1799 45.841 42.4199 47.721C41.4999 49.841 40.1199 51.761 38.3199 53.441L37.0199 51.781C38.6599 50.301 39.8799 48.661 40.6999 46.821C41.3999 45.121 41.9399 42.881 42.3199 40.081H41.3199C40.4799 44.321 38.9799 47.441 36.7999 49.401L35.4599 47.841C37.3799 46.201 38.7199 43.621 39.4599 40.081H38.6199C38.1199 41.261 37.5399 42.261 36.8799 43.061L35.3599 41.761C36.5999 40.201 37.4799 37.941 37.9999 35.021ZM31.2799 41.041C31.1199 41.981 30.9399 42.901 30.7199 43.781L28.8799 43.261C29.4199 41.161 29.7199 38.941 29.7999 36.621L31.6599 36.761C31.6199 37.521 31.5799 38.281 31.5199 39.041H32.3799V35.101H34.4199V39.041H35.7799V41.041H34.4199V45.041C34.8399 44.841 35.2599 44.641 35.6999 44.441V46.401C35.2599 46.601 34.8399 46.781 34.4199 46.981V53.581H32.3799V47.801C31.4799 48.121 30.5599 48.441 29.6199 48.721L29.1199 46.701C30.2199 46.481 31.2999 46.181 32.3799 45.821V41.041H31.2799ZM62.3799 35.001L64.4199 35.641C64.2199 36.081 64.0199 36.481 63.8199 36.881H69.9399V38.761H62.7799C62.0599 39.921 61.2799 40.941 60.4599 41.801C62.4599 41.701 64.4199 41.541 66.3399 41.301L65.2599 39.921L66.9399 38.881C68.3399 40.521 69.3999 41.961 70.1399 43.201L68.3999 44.421C68.1199 43.941 67.8199 43.441 67.4799 42.921C64.4799 43.281 61.4199 43.521 58.2799 43.661L57.6599 41.901C58.6999 41.101 59.6599 40.041 60.4999 38.761H57.4999V36.881H61.5599C61.8399 36.261 62.1199 35.641 62.3799 35.001ZM54.1199 35.221C55.3199 36.061 56.3599 36.921 57.1999 37.781L55.7199 39.261C54.9999 38.461 53.9599 37.581 52.6199 36.661L54.1199 35.221ZM53.6399 40.001C54.8799 40.961 55.9399 41.941 56.7799 42.901L55.2999 44.381C54.5599 43.481 53.5199 42.501 52.1599 41.441L53.6399 40.001ZM55.0999 45.421L56.9399 46.141C56.1799 48.681 55.3399 51.081 54.4199 53.321L52.4999 52.441C53.4999 50.161 54.3799 47.821 55.0999 45.421ZM62.1599 44.381H64.2599V53.181H62.1599V44.381ZM58.6999 44.381H60.6999C60.6199 47.021 60.3599 48.961 59.9199 50.201C59.4199 51.481 58.5999 52.621 57.4799 53.581L56.1599 51.901C57.0599 51.161 57.6999 50.281 58.0799 49.261C58.4199 48.301 58.6199 46.661 58.6999 44.381ZM67.8199 53.261C66.6199 53.261 66.0199 52.501 66.0199 51.001V44.381H68.0199V50.721C68.0199 51.121 68.1399 51.341 68.4199 51.341H70.4799V53.261H67.8199Z" fill="#009190"/>
<path fill-rule="evenodd" clip-rule="evenodd" d="M5.36 202.681C5.36 202.961 5.34 203.221 5.34 203.461H13.7V202.681H5.36ZM13.7 201.081V200.281H5.36V201.081H13.7ZM5.14 205.181C5.08 205.461 5.02 205.721 4.98 205.981H16.38V211.581H14.36V210.901H6.82V211.541H4.78V206.781C4.26 208.581 3.44 210.201 2.28 211.641L0.64 210.181C2.4 208.221 3.3 205.681 3.32 202.581V198.561H15.72V205.181H5.14ZM6.82 209.161H14.36V207.701H6.82V209.161ZM5.74 197.181C4.34 197.901 2.82 198.521 1.14 199.041L0 197.321C3.68 196.241 6.52 194.821 8.52 193.081H10C11.64 194.681 14.46 196.101 18.46 197.321L17.32 199.041C15.6 198.481 14.08 197.881 12.8 197.221V197.841H5.74V197.181ZM11.02 196.161C10.34 195.701 9.74 195.241 9.26 194.781C8.68 195.261 8.08 195.721 7.44 196.161H11.02ZM26.42 193.021L28.34 193.901C28.18 194.421 28.04 194.921 27.88 195.401H29.92C29.66 194.801 29.38 194.201 29.06 193.641L31.02 193.101C31.42 193.941 31.72 194.701 31.92 195.401H33.48V197.281H27.86V195.461C27.6 196.181 27.32 196.901 27.02 197.581V211.621H25V201.221C24.56 201.881 24.08 202.521 23.6 203.141L22.9 200.901C24.48 198.681 25.66 196.061 26.42 193.021ZM33.98 195.241H35.56V193.081H37.4V195.241H38.8V196.901C39.2 196.101 39.54 195.241 39.84 194.361L41.4 195.181C40.88 196.581 40.3 197.861 39.66 199.001H41.2V200.881H38.42C38.08 201.321 37.72 201.741 37.36 202.141H40.66V211.581H38.82V210.801H36.26V211.581H34.42V204.561C34.18 204.701 33.96 204.841 33.72 204.961L32.7 203.441C33.98 202.801 35.12 201.961 36.12 200.881H33.54V199.001H35.56V197.021H33.98V195.241ZM37.6 199.001C38 198.381 38.38 197.721 38.74 197.021H37.4V199.001H37.6ZM36.26 207.341V209.041H38.82V207.341H36.26ZM38.82 205.661V203.901H36.26V205.661H38.82ZM29.88 210.321V211.421H28.08V204.201H33.14V211.261H31.34V210.321H29.88ZM31.34 208.601V205.921H29.88V208.601H31.34ZM28.38 198.421H32.92V200.201H28.38V198.421ZM28.42 201.241H32.94V203.041H28.42V201.241Z" fill="#009190"/>
<path fill-rule="evenodd" clip-rule="evenodd" d="M391.36 201.941V204.021C390.8 204.301 390.26 204.561 389.74 204.801V210.321C389.74 211.721 389.06 212.421 387.72 212.421H386.06L385.58 210.401C386.08 210.481 386.56 210.521 387 210.521C387.48 210.521 387.72 210.261 387.72 209.781V205.641C386.98 205.921 386.24 206.201 385.48 206.441L384.98 204.441C385.9 204.221 386.82 203.941 387.72 203.621V199.521H385.22V197.541H387.72V194.161H389.74V197.541H391.56V199.521H389.74V202.781C390.28 202.521 390.82 202.241 391.36 201.941ZM401.14 196.841L402.9 197.301C402.42 198.861 401.8 200.221 401.08 201.401L399.38 200.781C400.06 199.741 400.64 198.441 401.14 196.841ZM397.68 197.281C398.12 198.321 398.48 199.261 398.74 200.141L397.04 200.761C396.72 199.741 396.36 198.741 395.92 197.781L397.68 197.281ZM393.9 197.521C394.48 198.561 395 199.761 395.46 201.121L393.74 201.561C393.34 200.361 392.82 199.201 392.2 198.081L393.9 197.521ZM401.96 194.081L402.96 195.781C400.24 196.601 396.64 197.021 392.16 197.021L391.52 195.161C395.64 195.161 399.12 194.801 401.96 194.081ZM391.84 203.181H396.32V201.201H398.3V203.181H402.86V205.181H399.6C400.44 206.761 401.8 208.181 403.64 209.461L402.24 211.201C400.46 209.581 399.14 207.801 398.3 205.881V212.521H396.32V205.901C395.38 208.101 393.98 209.961 392.12 211.441L390.98 209.581C392.74 208.421 394.08 206.941 394.96 205.181H391.84V203.181ZM408.62 194.701H414.38V207.281H408.62V194.701ZM412.52 205.561V203.461H410.5V205.561H412.52ZM410.5 201.821H412.52V199.861H410.5V201.821ZM410.5 198.221H412.52V196.421H410.5V198.221ZM413.22 207.621C414 208.901 414.6 210.041 415.04 211.021L413.54 212.041C413.1 210.981 412.52 209.801 411.78 208.521L413.22 207.621ZM409.64 207.681L411.2 208.441C410.76 209.761 410.2 211.061 409.52 212.341L407.92 211.521C408.64 210.221 409.22 208.941 409.64 207.681ZM417.48 194.101H419.38V195.401H421.9V194.101H423.82V195.401H426V197.001H423.82V197.921H425.62V199.461H423.82V200.401H426.4V202.001H421.56V202.861H425.46V207.801H426.46V209.481H425.46V210.921C425.46 211.961 424.84 212.501 423.6 212.501H422.02L421.6 210.801L423.06 210.881C423.4 210.881 423.58 210.761 423.58 210.521V209.481H417.66V212.521H415.78V209.481H414.68V207.801H415.78V202.861H419.64V202.001H414.88V200.401H417.48V199.461H415.68V197.921H417.48V197.001H415.28V195.401H417.48V194.101ZM417.66 207.801H419.64V206.761H417.66V207.801ZM421.56 207.801H423.58V206.761H421.56V207.801ZM419.38 200.401H421.9V199.461H419.38V200.401ZM419.38 197.921H421.9V197.001H419.38V197.921ZM423.58 205.401V204.381H421.56V205.401H423.58ZM419.64 204.381H417.66V205.401H419.64V204.381Z" fill="#009190"/>
<path fill-rule="evenodd" clip-rule="evenodd" d="M355.058 38.2678H365.247V40.1943H361.771V52.9252C361.771 54.5141 361.076 55.3284 359.726 55.3284H356.866L356.409 53.3622C357.303 53.4416 358.176 53.4813 359.011 53.4813C359.507 53.4813 359.765 53.1238 359.765 52.4287V40.1943H355.058V38.2678ZM349.676 54.4545V55.6263H347.69V48.1785H354.065V55.2688H352.079V54.4545H349.676ZM352.079 52.5677V50.0653H349.676V52.5677H352.079ZM347.253 39.4793H350.053C349.795 38.8636 349.497 38.2678 349.179 37.672L351.185 37.1357C351.543 37.9898 351.841 38.7643 352.059 39.4793H354.601V41.386H347.253V39.4793ZM347.869 42.4585H353.827V44.2658H347.869V42.4585ZM347.869 45.2192H353.827V47.0464H347.869V45.2192ZM371.186 37.7713H378.416V42.2003H371.186V37.7713ZM376.39 40.7107V39.2609H373.192V40.7107H376.39ZM379.667 37.7713H386.916V42.2003H379.667V37.7713ZM384.91 40.7902V39.2211H381.673V40.7902H384.91ZM371.901 43.0742H386.201V50.0653H380.104V51.1775H387.711V52.9252H380.104V55.5469H377.999V52.9252H370.392V51.1775H377.999V50.0653H371.901V43.0742ZM384.156 48.4367V47.2847H380.104V48.4367H384.156ZM377.999 48.4367V47.2847H373.947V48.4367H377.999ZM373.947 45.8547H377.999V44.7028H373.947V45.8547ZM380.104 44.7028V45.8547H384.156V44.7028H380.104Z" fill="#009190"/>
<path fill-rule="evenodd" clip-rule="evenodd" d="M197.32 326.541C196.54 328.301 195.54 329.801 194.32 331.001L192.94 329.261C194.74 327.381 195.94 324.861 196.56 321.681L198.7 322.081C198.52 322.941 198.32 323.761 198.08 324.521H201.56V321.241H203.66V324.521H210V326.541H203.66V330.461H209.62V332.481H203.66V336.841H211.3V338.921H193.5V336.841H201.56V332.481H195.92V330.461H201.56V326.541H197.32ZM220.74 324.021H217.14V322.301H224.56C224.38 321.921 224.2 321.581 224 321.261L226.14 320.901C226.34 321.321 226.52 321.781 226.7 322.301H233.42V324.021H230.36L231.08 324.501C230.22 324.941 229.34 325.361 228.42 325.721C229.76 326.081 231 326.461 232.14 326.841L231.22 327.761H233.52V329.521H219.54V331.521C219.52 332.101 219.5 332.661 219.46 333.221C220.56 332.321 221.38 331.181 221.94 329.781L223.56 330.441L223.24 331.201H226.02V329.861H228.06V331.201H232.98V333.001H228.06V334.301H232.6V336.101H228.06V337.381H234.02V339.161H219.46V337.381H226.02V336.101H221.5V334.301H226.02V333.001H222.2C221.72 333.661 221.2 334.221 220.64 334.681L219.42 333.621C219.18 336.041 218.58 338.041 217.64 339.641L216.08 338.241C217 336.641 217.5 334.401 217.54 331.521V327.761H219.58L218.64 326.481C220.34 326.301 221.9 326.061 223.32 325.761C222.22 325.481 221.06 325.181 219.82 324.901L220.74 324.021ZM219.76 327.761H230.08C228.92 327.361 227.58 326.941 226.1 326.521C224.14 327.081 222.02 327.501 219.76 327.761ZM228.92 324.021H221.7C223.24 324.381 224.68 324.721 226.02 325.081C227.08 324.761 228.04 324.401 228.92 324.021Z" fill="#009190"/>
<mask id="mask4" mask-type="alpha" maskUnits="userSpaceOnUse" x="49" y="166" width="47" height="49">
<path fill-rule="evenodd" clip-rule="evenodd" d="M49.26 166.501H95.26V214.501H49.26V166.501Z" fill="white"/>
</mask>
<g mask="url(#mask4)">
<path fill-rule="evenodd" clip-rule="evenodd" d="M92.5375 208.892H90.4463L90.4227 192.97H88.9939L89.0196 208.892H86.34C86.4279 208.562 86.4032 208.906 86.4032 202.811C86.4032 202.366 86.2446 201.956 85.9809 201.634C86.2446 201.312 86.4032 200.902 86.4032 200.457V194.848C86.4032 193.813 85.5479 192.97 84.4953 192.97H79.6248C79.7127 192.637 79.6891 192.986 79.6891 186.887C79.6891 185.852 78.8327 185.009 77.7801 185.009H66.7399C65.6874 185.009 64.8309 185.852 64.8309 186.887C64.8309 193.007 64.8074 192.637 64.8953 192.97H60.0247C58.9732 192.97 58.1168 193.813 58.1168 194.848V200.457C58.1168 200.902 58.2754 201.312 58.5391 201.634C58.2754 201.956 58.1168 202.366 58.1168 202.811C58.1168 208.929 58.0932 208.562 58.18 208.892H55.5015V184.076L72.26 172.737L89.0196 184.076V193.349H90.4463V185.035C91.7529 185.838 93.4507 185.472 94.3114 184.239C95.2053 182.958 94.8731 181.199 93.574 180.32L78.7062 170.258L77.8948 171.417L92.7647 181.48C93.9234 182.263 93.3532 184.055 91.9512 184.055C91.6618 184.055 91.382 183.969 91.1419 183.806L72.6641 171.303C72.4197 171.139 72.0982 171.139 71.8559 171.303C70.4282 172.268 54.2002 183.252 53.3781 183.806C52.7264 184.247 51.8325 184.085 51.3855 183.443C50.9375 182.8 51.1036 181.919 51.7553 181.48L71.4486 168.152C71.9342 167.824 72.5859 167.824 73.0714 168.152L77.8969 171.417L78.7062 170.258L73.8796 166.993C72.9106 166.337 71.6094 166.337 70.6404 166.993L50.9471 180.318C49.647 181.199 49.3157 182.958 50.2086 184.239C51.0757 185.483 52.7843 185.827 54.0737 185.039V208.892H51.9825C50.4819 208.892 49.26 210.097 49.26 211.573V211.82C49.26 213.299 50.4819 214.501 51.9825 214.501H92.5375C94.0381 214.501 95.26 213.299 95.26 211.82V211.573C95.26 210.094 94.0381 208.892 92.5375 208.892ZM78.0084 205.891H79.941C81.045 205.891 81.9432 205.008 81.9432 203.919V202.337H84.4953C84.7601 202.337 84.9755 202.549 84.9755 202.811V208.42C84.9755 208.679 84.7601 208.892 84.4953 208.892H73.4541C73.1893 208.892 72.9739 208.679 72.9739 208.42V202.811C72.9739 202.549 73.1893 202.337 73.4541 202.337H76.0072V203.919C76.0072 205.008 76.9044 205.891 78.0084 205.891ZM77.4339 202.337H80.5155V203.919C80.5155 204.231 80.2572 204.484 79.941 204.484H78.0084C77.6911 204.484 77.4339 204.231 77.4339 203.919V202.337ZM81.9432 195.958V194.376H84.4953C84.7601 194.376 84.9755 194.589 84.9755 194.848V200.459C84.9755 200.718 84.7601 200.931 84.4953 200.931H73.4541C73.1893 200.931 72.9739 200.718 72.9739 200.459V194.848C72.9739 194.589 73.1893 194.376 73.4541 194.376H76.0072V195.958C76.0072 197.047 76.9044 197.932 78.0084 197.932H79.941C81.045 197.932 81.9432 197.047 81.9432 195.958ZM80.5155 194.376V195.958C80.5155 196.272 80.2572 196.523 79.941 196.523H78.0084C77.6911 196.523 77.4339 196.272 77.4339 195.958V194.376H80.5155ZM70.7197 186.415H73.8013V187.997C73.8013 188.309 73.543 188.564 73.2268 188.564H71.2943C70.977 188.564 70.7197 188.309 70.7197 187.997V186.415ZM66.2587 186.887C66.2587 186.628 66.4752 186.415 66.7399 186.415H69.292V187.997C69.292 189.084 70.1892 189.969 71.2943 189.969H73.2268C74.3308 189.969 75.2291 189.084 75.2291 187.997V186.415H77.7801C78.0448 186.415 78.2614 186.628 78.2614 186.887V192.496C78.2614 192.757 78.0448 192.97 77.7801 192.97H66.7399C66.4752 192.97 66.2597 192.757 66.2597 192.496V186.887H66.2587ZM64.0045 194.376H67.0861V195.958C67.0861 196.272 66.8289 196.523 66.5116 196.523H64.5791C64.2618 196.523 64.0045 196.272 64.0045 195.958V194.376ZM59.5445 194.848C59.5445 194.589 59.76 194.376 60.0247 194.376H62.5768V195.958C62.5768 197.047 63.475 197.932 64.5801 197.932H66.5116C67.6156 197.932 68.5139 197.047 68.5139 195.958V194.376H71.066C71.3307 194.376 71.5462 194.589 71.5462 194.848V200.459C71.5462 200.718 71.3307 200.931 71.066 200.931H60.0247C59.76 200.931 59.5445 200.718 59.5445 200.459V194.848ZM67.0861 202.337V203.919C67.0861 204.231 66.8289 204.484 66.5116 204.484H64.5791C64.2618 204.484 64.0045 204.231 64.0045 203.919V202.337H67.0861ZM59.5445 202.811C59.5445 202.549 59.76 202.337 60.0247 202.337H62.5768V203.919C62.5768 205.008 63.475 205.891 64.5801 205.891H66.5116C67.6156 205.891 68.5139 205.008 68.5139 203.919V202.337H71.066C71.3307 202.337 71.5462 202.549 71.5462 202.811V208.42C71.5462 208.679 71.3307 208.892 71.066 208.892H60.0247C59.76 208.892 59.5445 208.679 59.5445 208.42V202.811ZM93.8323 211.82C93.8323 212.523 93.2503 213.097 92.5375 213.097H51.9825C51.2687 213.097 50.6877 212.523 50.6877 211.82V211.573C50.6877 210.872 51.2687 210.298 51.9825 210.298H92.5375C93.2503 210.298 93.8323 210.872 93.8323 211.573V211.82Z" fill="#009190"/>
</g>
<path fill-rule="evenodd" clip-rule="evenodd" d="M94.6285 48.3768C94.2802 48.3768 93.9973 48.6585 93.9973 49.0027C93.9973 49.6925 93.4414 50.2521 92.7592 50.2521C92.077 50.2521 91.521 49.6925 91.521 49.0027C91.521 48.3117 92.077 47.7508 92.7592 47.7508C93.1075 47.7508 93.3904 47.4704 93.3904 47.1274C93.3904 46.7831 93.1075 46.5015 92.7592 46.5015C91.3814 46.5015 90.2598 47.6231 90.2598 49.0027C90.2598 50.381 91.3814 51.5015 92.7592 51.5015C94.1381 51.5015 95.2598 50.381 95.2598 49.0027C95.2598 48.6585 94.9769 48.3768 94.6285 48.3768Z" fill="#009190"/>
<path fill-rule="evenodd" clip-rule="evenodd" d="M132.629 48.3768C132.28 48.3768 131.997 48.6585 131.997 49.0027C131.997 49.6925 131.441 50.2521 130.759 50.2521C130.077 50.2521 129.522 49.6925 129.522 49.0027C129.522 48.3117 130.077 47.7508 130.759 47.7508C131.108 47.7508 131.39 47.4704 131.39 47.1274C131.39 46.7831 131.108 46.5015 130.759 46.5015C129.381 46.5015 128.26 47.6231 128.26 49.0027C128.26 50.381 129.381 51.5015 130.759 51.5015C132.138 51.5015 133.26 50.381 133.26 49.0027C133.26 48.6585 132.977 48.3768 132.629 48.3768Z" fill="#009190"/>
<mask id="mask5" mask-type="alpha" maskUnits="userSpaceOnUse" x="81" y="17" width="61" height="39">
<path fill-rule="evenodd" clip-rule="evenodd" d="M81.26 17.499H141.965V55.5007H81.26V17.499Z" fill="white"/>
</mask>
<g mask="url(#mask5)">
<path fill-rule="evenodd" clip-rule="evenodd" d="M140.67 39.1712H139.4C138.517 39.1712 137.796 39.8745 137.796 40.7388V41.6823C137.796 42.5491 138.517 43.2524 139.4 43.2524H140.67V45.766H136.526C136.474 45.766 136.421 45.7723 136.367 45.7849L136.164 45.8327L136.044 45.6603C134.845 43.9581 132.877 42.9404 130.777 42.9404C128.677 42.9404 126.709 43.9581 125.51 45.6603L125.39 45.8327L125.186 45.7861C125.133 45.7723 125.08 45.766 125.028 45.766H122.8V36.6551H140.67V39.1712ZM139.089 41.9968H140.67V40.4242H139.089V41.9968ZM130.777 54.2453C127.964 54.2453 125.674 51.9909 125.674 49.2206C125.674 46.4491 127.964 44.1934 130.777 44.1934C133.591 44.1934 135.879 46.4491 135.879 49.2206C135.879 51.9909 133.591 54.2453 130.777 54.2453ZM124.647 47.4279C124.559 47.7198 124.49 48.0204 124.446 48.3236L124.407 48.5916H112.259V48.2771C112.259 47.994 112.211 47.7135 112.114 47.4442L111.96 47.0215H124.772L124.647 47.4279ZM98.1968 45.766C98.1446 45.766 98.0923 45.7723 98.0375 45.7861L97.8346 45.8327L97.7138 45.6603C96.5162 43.9581 94.5468 42.9404 92.4479 42.9404C90.3478 42.9404 88.3783 43.9581 87.1807 45.6603L87.06 45.8327L86.8571 45.7849C86.8023 45.7723 86.75 45.766 86.699 45.766H82.5535V40.4242H112.57C112.928 40.4242 113.218 40.1424 113.218 39.7977C113.218 39.453 112.928 39.1712 112.57 39.1712H82.5535V18.7541H121.505V45.766H98.1968ZM110.965 50.1617C110.965 50.8561 110.396 51.4197 109.696 51.4197H103.946C103.246 51.4197 102.676 50.8561 102.676 50.1617V48.2771C102.676 47.5839 103.246 47.0215 103.946 47.0215H109.696C110.396 47.0215 110.965 47.5839 110.965 48.2771V50.1617ZM101.529 47.4442C101.431 47.7135 101.383 47.994 101.383 48.2771V48.5916H98.8168L98.777 48.3224C98.7334 48.0217 98.6662 47.721 98.5765 47.4279L98.4521 47.0215H101.681L101.529 47.4442ZM92.4479 54.2453C89.6344 54.2453 87.3451 51.9909 87.3451 49.2206C87.3451 46.4491 89.6344 44.1934 92.4479 44.1934C95.2601 44.1934 97.5495 46.4491 97.5495 49.2206C97.5495 51.9909 95.2601 54.2453 92.4479 54.2453ZM122.8 32.8884L135.501 32.9073L138.919 34.1679C139.293 34.3553 139.598 34.5881 139.857 34.8749L140.335 35.4021H122.8V32.8884ZM122.8 22.5245H129.842C131.253 22.5245 132.476 23.4165 132.888 24.745L134.731 31.6329H122.8V22.5245ZM141.965 36.0286C141.965 35.8612 141.896 35.704 141.773 35.5832L141.699 35.4675C141.31 34.4132 140.526 33.5502 139.49 33.0381L136.11 31.7889L134.138 24.4242C133.561 22.5283 131.836 21.269 129.842 21.269H122.8V19.0686C122.8 18.2031 122.079 17.4985 121.194 17.4985H82.8647C81.9796 17.4985 81.26 18.2031 81.26 19.0686V45.4515C81.26 46.3183 81.9796 47.0215 82.8647 47.0215H86.4413L86.3168 47.4279C86.2296 47.7172 86.1612 48.0179 86.1164 48.3236L86.0765 48.5916H81.9074C81.5501 48.5916 81.26 48.8747 81.26 49.2206C81.26 49.5666 81.5501 49.8471 81.9074 49.8471H86.0778L86.1176 50.1164C86.5658 53.1873 89.2871 55.5009 92.4479 55.5009C95.6075 55.5009 98.3288 53.1873 98.777 50.1164L98.8168 49.8471H101.383V50.1617C101.383 51.548 102.533 52.6753 103.946 52.6753H109.696C111.109 52.6753 112.259 51.548 112.259 50.1617V49.8471H124.408L124.447 50.1164C124.895 53.1873 127.616 55.5009 130.777 55.5009C133.938 55.5009 136.659 53.1873 137.106 50.1164L137.146 49.8471H141.318C141.674 49.8471 141.965 49.5666 141.965 49.2206C141.965 48.8747 141.674 48.5916 141.318 48.5916H137.146L137.106 48.3224C137.063 48.0179 136.995 47.7185 136.907 47.4291L136.781 47.0215H140.359C141.244 47.0215 141.965 46.3183 141.965 45.4515V36.9696C141.965 36.7633 141.95 36.562 141.921 36.3607L141.911 36.2877L141.935 36.2173C141.955 36.1569 141.965 36.094 141.965 36.0286Z" fill="#009190"/>
</g>
<path fill-rule="evenodd" clip-rule="evenodd" d="M104.76 48.5015C104.628 48.5015 104.498 48.5565 104.402 48.6505C104.313 48.7425 104.26 48.8705 104.26 49.0015C104.26 49.1325 104.313 49.2595 104.403 49.3515C104.591 49.5405 104.929 49.5405 105.116 49.3515C105.207 49.2595 105.26 49.1325 105.26 49.0015C105.26 48.8705 105.207 48.7425 105.116 48.6485C105.021 48.5565 104.891 48.5015 104.76 48.5015Z" fill="#009190"/>
<path fill-rule="evenodd" clip-rule="evenodd" d="M115.865 40.4975H117.655C117.989 40.4975 118.26 40.2735 118.26 39.9995C118.26 39.7255 117.989 39.5015 117.655 39.5015H115.865C115.531 39.5015 115.26 39.7255 115.26 39.9995C115.26 40.2735 115.531 40.4975 115.865 40.4975Z" fill="#009190"/>
<path fill-rule="evenodd" clip-rule="evenodd" d="M206.527 138.423C206.803 138.423 207.027 138.647 207.027 138.923V151.566C207.027 151.842 206.803 152.066 206.527 152.066C206.251 152.066 206.027 151.842 206.027 151.566V138.923C206.027 138.647 206.251 138.423 206.527 138.423Z" fill="url(#paint0_linear)"/>
<path d="M212.629 121.418L212.763 141.173L194.743 138.981L194.59 119.244L212.629 121.418Z" fill="url(#paint1_linear)"/>
<path d="M212.629 121.418L223.766 116.174L223.899 135.929L212.763 141.173L212.629 121.418Z" fill="url(#paint2_linear)"/>
<path d="M194.59 119.244L205.726 114L223.766 116.174L212.629 121.418L194.59 119.244Z" fill="#389495"/>
<path d="M235.836 151.566L235.97 169.338L219.742 167.374L219.608 149.602L235.836 151.566Z" fill="url(#paint3_linear)"/>
<path d="M235.836 151.566L245.866 146.837L246 164.628L235.97 169.338L235.836 151.566Z" fill="url(#paint4_linear)"/>
<path d="M219.608 149.602L229.639 144.892L245.866 146.837L235.836 151.566L219.608 149.602Z" fill="#389495"/>
<path d="M196.039 155.742L196.173 175.478L178.133 173.304L178 153.549L196.039 155.742Z" fill="url(#paint5_linear)"/>
<path d="M196.039 155.742L207.176 150.498L207.309 170.234L196.173 175.478L196.039 155.742Z" fill="url(#paint6_linear)"/>
<path d="M178 153.549L189.136 148.324L207.176 150.498L196.039 155.742L178 153.549Z" fill="#389495"/>
<path fill-rule="evenodd" clip-rule="evenodd" d="M219.112 128.608C219.142 128.334 219.39 128.136 219.664 128.167L233.342 129.705V148.553C233.342 148.829 233.118 149.053 232.842 149.053C232.566 149.053 232.342 148.829 232.342 148.553V130.598L219.553 129.161C219.278 129.13 219.081 128.883 219.112 128.608Z" fill="url(#paint7_linear)"/>
<path fill-rule="evenodd" clip-rule="evenodd" d="M227.634 161.141C227.748 161.393 227.637 161.689 227.386 161.803L217.954 166.094L202.465 164.286C202.19 164.254 201.994 164.005 202.026 163.731C202.058 163.457 202.306 163.26 202.581 163.292L217.793 165.069L226.972 160.893C227.223 160.779 227.52 160.89 227.634 161.141Z" fill="url(#paint8_linear)"/>
<defs>
<linearGradient id="paint0_linear" x1="206.527" y1="145.245" x2="207.527" y2="145.245" gradientUnits="userSpaceOnUse">
<stop stop-color="#009191"/>
<stop offset="1" stop-color="#0052A5"/>
</linearGradient>
<linearGradient id="paint1_linear" x1="179.325" y1="132.75" x2="205.13" y2="130.05" gradientUnits="userSpaceOnUse">
<stop stop-color="white"/>
<stop offset="0.9988" stop-color="#4DBDBC"/>
</linearGradient>
<linearGradient id="paint2_linear" x1="219.628" y1="137.278" x2="215.013" y2="108.049" gradientUnits="userSpaceOnUse">
<stop stop-color="#009191"/>
<stop offset="1" stop-color="#1D2088"/>
</linearGradient>
<linearGradient id="paint3_linear" x1="214.096" y1="173.062" x2="235.275" y2="152.038" gradientUnits="userSpaceOnUse">
<stop stop-color="white"/>
<stop offset="0.9988" stop-color="#4DBDBC"/>
</linearGradient>
<linearGradient id="paint4_linear" x1="240.918" y1="145.237" x2="240.918" y2="168.138" gradientUnits="userSpaceOnUse">
<stop stop-color="#169090"/>
<stop offset="0.9988" stop-color="#FFE200"/>
</linearGradient>
<linearGradient id="paint5_linear" x1="173.417" y1="174.006" x2="186.654" y2="164.818" gradientUnits="userSpaceOnUse">
<stop stop-color="white"/>
<stop offset="0.9988" stop-color="#4DBDBC"/>
</linearGradient>
<linearGradient id="paint6_linear" x1="199.124" y1="172.219" x2="205.364" y2="149.601" gradientUnits="userSpaceOnUse">
<stop stop-color="#009191"/>
<stop offset="1" stop-color="#1D2088"/>
</linearGradient>
<linearGradient id="paint7_linear" x1="219.232" y1="138.611" x2="233.223" y2="138.611" gradientUnits="userSpaceOnUse">
<stop stop-color="#009191"/>
<stop offset="1" stop-color="#0052A5"/>
</linearGradient>
<linearGradient id="paint8_linear" x1="202.133" y1="163.468" x2="227.558" y2="163.468" gradientUnits="userSpaceOnUse">
<stop stop-color="#0052A5"/>
<stop offset="1" stop-color="#009191"/>
</linearGradient>
</defs>
</svg>
