<svg width="470" height="184" viewBox="0 0 470 184" fill="none" xmlns="http://www.w3.org/2000/svg">
<path d="M69.9 12.62V14.7H88.08V12.62H69.9ZM92.1733 12.06V12.54H93.5133V14.44H91.4733V16.32H93.5133V20.1C93.5133 20.46 93.2933 20.72 92.8533 20.9L93.6733 22.64C95.0533 22.12 96.2733 21.48 97.3333 20.72L96.9933 18.96C96.4533 19.42 95.9133 19.8 95.3933 20.12V16.32H97.2333V16.18C97.5933 17.38 98.0333 18.42 98.5733 19.3C98.1733 20.18 97.6533 20.96 97.0133 21.6L98.4133 23C98.9533 22.4 99.4333 21.7 99.8333 20.92C100.153 21.2 100.493 21.46 100.853 21.7C101.973 22.38 104.073 22.74 107.153 22.78H109.133L109.513 20.8C108.373 20.86 107.253 20.9 106.133 20.9C104.333 20.82 102.973 20.56 102.093 20.16C101.553 19.9 101.053 19.54 100.593 19.06C101.153 17.34 101.453 15.3 101.493 12.9V11.8H99.6533C100.213 10.72 100.773 9.44 101.373 7.96V6.28H97.5733V8.04H99.5133C98.9133 9.44 98.2733 10.78 97.5533 12.04V13.46H99.8333C99.7533 14.8 99.5933 16.02 99.3133 17.12C98.9533 16.4 98.6933 15.6 98.5133 14.74L97.2333 15.22V14.44H95.3933V12.54H96.9333V10.7H93.0733C93.3133 10.04 93.5533 9.34 93.7733 8.6H96.9133V6.62H94.2933C94.4133 6.1 94.5133 5.54 94.6333 4.94L92.6733 4.52C92.3133 6.88 91.7133 9.12 90.8333 11.2L92.1733 12.06ZM108.473 13.3V10.52H109.253V8.88H108.473V6.02H105.713V4.7H103.853V6.02H102.093V7.66H103.853V8.88H101.433V10.52H103.853V11.66H102.133V13.3H103.853V14.4H101.973V16H103.853V17.16H101.473V18.84H103.853V20.32H105.713V18.84H109.093V17.16H105.713V16H108.613V14.4H105.713V13.3H108.473ZM105.713 7.66H106.753V8.88H105.713V7.66ZM105.713 10.52H106.753V11.66H105.713V10.52ZM114.747 22.86C116.107 22.86 116.787 22.16 116.787 20.8V15.22C117.427 14.9 118.087 14.54 118.727 14.18V12.04C118.087 12.42 117.447 12.78 116.787 13.12V10.04H118.847V8.02H116.787V4.6H114.707V8.02H112.507V10.04H114.707V14.04C113.827 14.38 112.947 14.66 112.027 14.88L112.567 17C113.287 16.74 113.987 16.46 114.707 16.18V20.26C114.707 20.72 114.467 20.96 114.027 20.96C113.567 20.96 113.067 20.92 112.547 20.84L113.007 22.86H114.747ZM119.307 12.9V14.94H120.387C120.867 16.5 121.807 17.94 123.187 19.24C121.827 20.12 120.187 20.86 118.227 21.42L119.367 23.2C121.547 22.56 123.387 21.7 124.907 20.62C126.247 21.54 127.867 22.38 129.787 23.14L130.907 21.34C129.147 20.76 127.667 20.1 126.427 19.34C127.707 18.08 128.627 16.58 129.187 14.84V12.9H119.307ZM122.307 14.94H127.087C126.527 16.12 125.727 17.18 124.687 18.1C123.567 17.16 122.767 16.1 122.307 14.94ZM120.627 5.2V8.2C120.627 9.36 119.907 10.26 118.487 10.9L119.887 12.52C121.747 11.44 122.687 9.92 122.687 7.98V7.16H125.927V9.82C125.927 11.2 126.687 11.9 128.247 11.9H130.267V9.96H128.807C128.247 9.96 127.987 9.74 127.987 9.32V5.2H120.627ZM135.22 4.8L134.18 6.34C135.28 6.7 136.36 7.22 137.4 7.88L138.52 6.2C137.52 5.64 136.42 5.18 135.22 4.8ZM141.18 4.48C140.74 5.84 139.92 6.96 138.68 7.88L139.92 9.5C140.62 8.94 141.24 8.32 141.76 7.64H143.76C143.5 8.5 143.06 9.2 142.46 9.74C141.64 10.42 140.3 10.96 138.44 11.34L139.22 13.2C141.52 12.66 143.14 11.92 144.06 10.96C144.24 10.76 144.42 10.54 144.62 10.3C145.88 11.74 147.9 12.74 150.7 13.32L151.44 11.5C148.52 10.98 146.54 10.02 145.48 8.66C145.58 8.34 145.68 8 145.76 7.64H148.46C148.26 8.28 148.02 8.86 147.74 9.36L149.74 9.96C150.1 9 150.38 8.02 150.6 7.06V5.82H142.82C142.98 5.48 143.12 5.12 143.24 4.74L141.18 4.48ZM149.28 13.42H136.08V19.64H138.16V15.36H147.18V19.4H149.28V13.42ZM141.78 15.82C141.64 17.7 141.14 19.04 140.26 19.82C139.26 20.6 137.2 21.06 134.08 21.2L134.92 23.1C138.7 22.78 141.08 22.1 142.06 21.04C142.98 20.24 143.6 18.54 143.88 15.98L141.78 15.82ZM137.66 8.66C136.62 9.58 135.32 10.46 133.78 11.26L135.14 12.88C136.62 12 137.86 11.08 138.86 10.08L137.66 8.66ZM144.22 19.24L143.16 20.82C145.56 21.4 147.88 22.22 150.16 23.26L151.28 21.52C149.16 20.62 146.8 19.86 144.22 19.24ZM70.024 39.264V40.128H76.184C75.368 44.224 73.208 47.136 69.704 48.864L70.248 49.584C73.8 47.744 76.024 44.768 76.936 40.64C78.104 44.48 80.376 47.44 83.736 49.488L84.264 48.784C80.904 46.768 78.68 43.888 77.56 40.128H83.976V39.264H77.192C77.352 38.256 77.432 37.168 77.432 36.016V34.992H76.568V36.208C76.552 37.264 76.472 38.288 76.328 39.264H70.024ZM92.8827 35.664V36.448H101.043V35.664H92.8827ZM93.8267 37.792V41.168H100.051V37.792H93.8267ZM99.2347 40.448H94.6427V38.528H99.2347V40.448ZM100.691 42.48H93.1547V49.568H93.9707V48.784H99.8747V49.568H100.691V42.48ZM93.9707 48.016V46H96.5147V48.016H93.9707ZM97.3307 48.016V46H99.8747V48.016H97.3307ZM93.9707 45.232V43.248H96.5147V45.232H93.9707ZM97.3307 43.248H99.8747V45.232H97.3307V43.248ZM91.1547 46.784C91.8107 46.784 92.1467 46.432 92.1467 45.744V37.6H90.0667V34.96H89.3147V37.6H87.2187V46.896H87.9707V38.384H89.3147V49.52H90.0667V38.384H91.3947V45.6C91.3947 45.92 91.2187 46.08 90.8987 46.08L90.1147 46.032L90.3067 46.784H91.1547ZM105.005 41.056V49.584H105.869V41.056H105.005ZM115.661 49.536C116.557 49.536 117.005 49.12 117.005 48.288V39.408H109.757V40.208H116.157V48.064C116.157 48.528 115.933 48.768 115.501 48.768L113.917 48.736L114.125 49.536H115.661ZM108.221 41.888V47.776H113.789V41.888H108.221ZM112.973 47.024H109.037V45.168H112.973V47.024ZM109.037 44.432V42.624H112.973V44.432H109.037ZM106.381 38.784L105.741 39.184C106.573 39.888 107.229 40.544 107.709 41.152L108.365 40.688C107.901 40.144 107.245 39.504 106.381 38.784ZM106.045 36.976H107.341C107.789 37.632 108.189 38.304 108.525 39.008L109.309 38.72C109.053 38.192 108.701 37.616 108.253 36.976H110.877V36.192H106.445C106.605 35.84 106.749 35.472 106.893 35.088L106.061 34.912C105.597 36.256 104.877 37.472 103.885 38.528L104.621 39.008C105.165 38.4 105.629 37.712 106.045 36.976ZM112.845 36.976H114.237C114.701 37.584 115.101 38.224 115.421 38.88L116.205 38.592C115.949 38.096 115.597 37.552 115.165 36.976H118.045V36.192H113.197C113.341 35.84 113.469 35.472 113.597 35.104L112.781 34.928C112.397 36.16 111.805 37.264 111.005 38.24L111.725 38.704C112.141 38.192 112.509 37.616 112.845 36.976ZM125.624 34.896C124.6 37.424 122.952 39.712 120.648 41.728L120.92 42.624C121.832 41.856 122.664 41.024 123.432 40.16V49.6H124.296V39.072C125.144 37.904 125.864 36.64 126.44 35.28L125.624 34.896ZM134.488 39.712L129.144 40V35.024H128.28V47.792C128.28 48.784 128.76 49.296 129.72 49.296H132.904C133.624 49.296 134.12 49.104 134.408 48.736C134.664 48.336 134.84 47.216 134.936 45.376L134.136 45.12C134.072 46.8 133.944 47.776 133.752 48.064C133.544 48.32 133.208 48.464 132.76 48.464H129.912C129.4 48.464 129.144 48.192 129.144 47.664V40.832L134.488 40.56V39.712ZM143.283 37.824H140.659C140.995 36.976 141.251 36.064 141.427 35.072L140.547 34.96C140.403 35.952 140.163 36.912 139.827 37.824H138.387V49.024H139.219V47.6H142.451V48.576H143.283V37.824ZM139.219 46.8V43.008H142.451V46.8H139.219ZM139.219 42.224V38.656H142.451V42.224H139.219ZM146.003 41.44L145.299 41.888C146.483 43.184 147.427 44.368 148.099 45.456L148.787 44.96C148.147 43.952 147.219 42.784 146.003 41.44ZM151.571 37.84H146.355C146.659 36.976 146.899 36.032 147.091 35.04L146.243 34.944C145.827 37.264 145.043 39.232 143.891 40.832L144.403 41.504C145.043 40.672 145.571 39.744 146.019 38.704H150.739C150.707 43.36 150.643 46.176 150.515 47.136C150.387 48.08 149.891 48.56 149.027 48.56C148.547 48.56 147.987 48.544 147.347 48.512L147.555 49.312C148.291 49.328 148.819 49.344 149.123 49.344C150.451 49.344 151.187 48.704 151.347 47.424C151.491 46.208 151.571 43.008 151.571 37.84ZM156.509 49.376C157.357 49.376 157.789 48.944 157.789 48.08V43.2C158.429 42.896 159.053 42.56 159.661 42.208V41.344C159.053 41.696 158.429 42.032 157.789 42.352V38.848H159.725V38H157.789V34.992H156.925V38H154.877V38.848H156.925V42.72C156.157 43.04 155.357 43.312 154.557 43.536L154.781 44.4C155.501 44.16 156.221 43.888 156.925 43.6V47.856C156.925 48.352 156.685 48.608 156.205 48.608C155.821 48.608 155.405 48.576 154.957 48.544L155.149 49.376H156.509ZM160.317 41.904V42.768H161.357C161.805 44.24 162.669 45.536 163.949 46.688C162.765 47.584 161.277 48.32 159.501 48.88L159.965 49.6C161.821 49.024 163.389 48.24 164.637 47.264C165.773 48.128 167.197 48.912 168.893 49.584L169.357 48.848C167.725 48.24 166.349 47.536 165.245 46.736C166.445 45.632 167.309 44.288 167.837 42.72V41.904H160.317ZM162.157 42.768H166.973C166.461 44.064 165.645 45.2 164.557 46.192C163.389 45.2 162.589 44.048 162.157 42.768ZM161.661 35.68V37.68C161.661 38.832 161.021 39.728 159.741 40.352L160.333 41.024C161.789 40.208 162.525 39.056 162.525 37.584V36.512H165.901V39.36C165.901 40.208 166.349 40.64 167.245 40.64H168.861V39.824H167.421C166.973 39.824 166.749 39.616 166.749 39.216V35.68H161.661ZM172.76 35.392L172.312 36.048C173.208 36.32 174.088 36.704 174.936 37.216L175.4 36.496C174.6 36.064 173.72 35.696 172.76 35.392ZM178.088 34.928C177.704 36.08 176.968 37.072 175.864 37.872L176.392 38.56C177.032 38.08 177.56 37.536 177.992 36.928H180.328C180.12 37.92 179.704 38.704 179.064 39.28C178.344 39.92 177.176 40.4 175.56 40.752L175.896 41.536C177.656 41.12 178.936 40.544 179.72 39.808C180.008 39.52 180.264 39.184 180.488 38.832C181.448 40.176 183.144 41.088 185.544 41.568L185.848 40.816C183.352 40.336 181.688 39.424 180.824 38.096C180.952 37.744 181.064 37.344 181.144 36.928H184.152C183.96 37.6 183.72 38.224 183.416 38.768L184.248 39.008C184.584 38.256 184.856 37.488 185.048 36.688V36.144H178.472C178.648 35.792 178.808 35.424 178.936 35.024L178.088 34.928ZM183.96 42.096H173.816V46.944H174.696V42.912H183.08V46.848H183.96V42.096ZM178.568 43.664C178.44 45.392 177.992 46.608 177.256 47.344C176.424 48.128 174.728 48.592 172.168 48.736L172.52 49.52C175.32 49.296 177.144 48.736 177.976 47.856C178.744 47.136 179.224 45.76 179.448 43.744L178.568 43.664ZM175.096 38.368C174.28 39.2 173.272 39.968 172.056 40.688L172.632 41.344C173.816 40.608 174.808 39.808 175.608 38.96L175.096 38.368ZM179.864 46.848L179.416 47.504C181.352 48.016 183.24 48.72 185.08 49.616L185.544 48.896C183.832 48.08 181.944 47.392 179.864 46.848ZM197.219 34.928C196.963 35.536 196.691 36.112 196.419 36.656H192.995V37.456H195.971C195.139 38.832 194.211 39.936 193.155 40.736L193.411 41.44C196.067 41.344 198.643 41.168 201.171 40.88C201.491 41.328 201.795 41.776 202.051 42.208L202.771 41.696C202.131 40.672 201.219 39.488 200.019 38.112L199.331 38.56C199.811 39.104 200.259 39.664 200.675 40.208C198.627 40.432 196.531 40.592 194.371 40.672C195.299 39.84 196.147 38.768 196.915 37.456H202.739V36.656H197.363C197.587 36.208 197.827 35.712 198.051 35.2L197.219 34.928ZM189.859 35.216L189.251 35.824C190.307 36.56 191.155 37.248 191.795 37.92L192.419 37.296C191.731 36.592 190.883 35.904 189.859 35.216ZM189.491 39.056L188.867 39.648C189.955 40.48 190.819 41.264 191.459 42.016L192.083 41.392C191.395 40.608 190.531 39.824 189.491 39.056ZM191.363 43.264C190.755 45.2 190.019 47.088 189.187 48.944L189.971 49.296C190.771 47.504 191.491 45.6 192.131 43.552L191.363 43.264ZM197.043 42.416V49.328H197.891V42.416H197.043ZM194.243 42.416C194.179 44.32 193.987 45.712 193.667 46.592C193.315 47.456 192.755 48.208 191.955 48.848L192.499 49.536C193.395 48.832 194.051 47.968 194.451 46.944C194.803 45.984 195.011 44.464 195.075 42.416H194.243ZM201.187 49.248H203.171V48.448H201.443C201.091 48.448 200.931 48.256 200.931 47.872V42.416H200.083V47.984C200.083 48.816 200.451 49.248 201.187 49.248ZM205.869 39.456V40.272H208.221C207.709 42.256 206.813 44.016 205.549 45.568L205.917 46.496C206.925 45.152 207.725 43.632 208.301 41.936V49.504H209.149V42.064C209.661 42.704 210.285 43.568 211.021 44.672L211.517 43.952C210.717 42.944 209.917 42.048 209.149 41.264V40.272H211.357V39.456H209.149V36.688C209.981 36.512 210.781 36.32 211.517 36.096L211.213 35.28C209.661 35.776 207.869 36.112 205.837 36.304L205.997 37.136C206.781 37.056 207.549 36.96 208.301 36.832V39.456H205.869ZM211.917 44.848V45.632H215.261V48.16H211.245V48.96H220.109V48.16H216.125V45.632H219.517V44.848H216.125V42.496C217.357 42.336 218.509 42.16 219.565 41.968L219.277 41.216C217.101 41.632 214.573 41.936 211.709 42.112L211.869 42.88C213.053 42.8 214.189 42.704 215.261 42.592V44.848H211.917ZM212.557 35.616V40.064H218.893V35.616H212.557ZM218.061 39.28H213.421V36.4H218.061V39.28ZM72.8 70.64H74.42C74.38 71.12 74.32 71.56 74.24 72H71.64C72.04 71.6 72.44 71.16 72.8 70.64ZM73.64 73.9C73.02 75.14 71.68 76.22 69.64 77.12L71.04 78.82C71.56 78.56 72.06 78.28 72.54 78V86.14H74.64V85.4H83.88V86.14H86V77.52H78.32L79.5 76.34C78.48 75.58 77.24 74.84 75.76 74.08L75.82 73.9H79.76V72H76.24C76.3 71.56 76.34 71.12 76.38 70.64H79.2V68.82H73.82C73.98 68.5 74.12 68.14 74.26 67.78L72.38 67.36C71.68 68.84 70.88 69.98 69.96 70.78L70.94 72H70.06V73.9H73.64ZM74.64 83.56V82.4H83.88V83.56H74.64ZM74.64 80.6V79.36H83.88V80.6H74.64ZM73.24 77.52C74 76.94 74.62 76.3 75.08 75.62C76.1 76.26 76.96 76.88 77.68 77.52H73.24ZM80.3 68.88V76.54H87.46V68.88H80.3ZM85.42 74.72H82.34V70.72H85.42V74.72ZM101.453 67.92V74.54C101.453 75.86 102.153 76.54 103.553 76.54H108.873V74.62H104.173C103.733 74.62 103.513 74.4 103.513 74V71.82L108.413 71.46V69.54L103.513 69.9V67.92H101.453ZM98.6933 68.98L97.0933 70C97.4533 70.52 97.8133 71.04 98.1333 71.56C96.6533 71.72 95.2533 71.86 93.9333 71.94C94.9533 70.96 95.8533 69.7 96.6533 68.14L94.6533 67.54C94.0533 68.78 93.1733 70.12 91.9733 71.54C91.7133 71.76 91.3933 71.92 91.0333 72.04L91.5933 73.78C94.4733 73.62 96.9733 73.38 99.0533 73.06C99.2733 73.46 99.4933 73.86 99.6933 74.26L101.353 73.08C100.733 71.92 99.8533 70.56 98.6933 68.98ZM106.873 85.78C107.613 85.78 108.153 85.62 108.513 85.32C108.873 85 109.153 84 109.313 82.3L107.413 81.7C107.353 82.78 107.253 83.42 107.093 83.64C106.973 83.84 106.753 83.94 106.473 83.94H104.173C103.713 83.94 103.493 83.76 103.493 83.42V80.84L108.513 80.48V78.56L103.493 78.92V77.16H101.433V83.88C101.433 85.14 102.153 85.78 103.593 85.78H106.873ZM97.6333 78.1C96.8733 77.94 96.2533 77.84 95.7733 77.76L94.1733 77.52V76.36H98.0733V80.38C96.7933 80.64 95.4533 80.84 94.0933 80.96C94.1333 80.48 94.1733 80 94.1733 79.5V79.1C94.4133 79.12 94.6733 79.16 94.9333 79.22C95.6333 79.34 96.3133 79.46 96.9733 79.62L97.6333 78.1ZM94.0533 81.26L94.4333 82.74C95.6933 82.54 96.9133 82.3 98.0733 82.04V83.76C98.0733 84.04 97.9133 84.18 97.6133 84.18C97.0933 84.18 96.5133 84.14 95.8933 84.08L96.4333 86H98.2133C99.4533 86 100.073 85.48 100.073 84.46V74.56H92.1533V79.66C92.1333 81.7 91.7333 83.38 90.9733 84.7L92.5733 86.14C93.3733 84.84 93.8533 83.22 94.0533 81.26ZM120.407 73.56V86.08H122.527V73.56H120.407ZM120.547 67.56C118.567 70.44 115.747 72.8 112.067 74.6L113.327 76.5C116.607 74.86 119.327 72.54 121.467 69.52C123.247 72.3 125.967 74.62 129.607 76.5L130.867 74.6C126.867 72.58 124.027 70.24 122.387 67.56H120.547ZM143.68 67.6H141.56C141.56 68.36 141.54 69.4 141.54 70.74C141.38 76.48 138.64 80.96 133.28 84.16L134.56 86.04C138.72 83.36 141.46 79.98 142.78 75.9C144.32 80.12 146.96 83.48 150.7 86L152.1 84.16C147.56 81.38 144.7 77.36 143.54 72.1C143.62 70.86 143.68 69.36 143.68 67.6ZM160.513 67.38C159.233 70.48 157.253 73.18 154.593 75.46L155.273 77.64C156.153 76.9 156.993 76.14 157.773 75.36V86.12H159.853V72.94C160.933 71.48 161.813 69.94 162.473 68.32L160.513 67.38ZM172.233 73.12L165.973 73.52V67.72H163.893V83.26C163.893 84.92 164.713 85.76 166.393 85.76H170.133C171.153 85.76 171.853 85.52 172.233 85.06C172.613 84.58 172.873 83.18 173.013 80.88L171.093 80.22C171.053 82 170.933 83.04 170.733 83.34C170.533 83.62 170.213 83.78 169.773 83.78H166.893C166.273 83.78 165.973 83.5 165.973 82.96V75.5L172.233 75.12V73.12ZM178.447 85.86C179.807 85.86 180.487 85.16 180.487 83.8V78.22C181.127 77.9 181.787 77.54 182.427 77.18V75.04C181.787 75.42 181.147 75.78 180.487 76.12V73.04H182.547V71.02H180.487V67.6H178.407V71.02H176.207V73.04H178.407V77.04C177.527 77.38 176.647 77.66 175.727 77.88L176.267 80C176.987 79.74 177.687 79.46 178.407 79.18V83.26C178.407 83.72 178.167 83.96 177.727 83.96C177.267 83.96 176.767 83.92 176.247 83.84L176.707 85.86H178.447ZM183.007 75.9V77.94H184.087C184.567 79.5 185.507 80.94 186.887 82.24C185.527 83.12 183.887 83.86 181.927 84.42L183.067 86.2C185.247 85.56 187.087 84.7 188.607 83.62C189.947 84.54 191.567 85.38 193.487 86.14L194.607 84.34C192.847 83.76 191.367 83.1 190.127 82.34C191.407 81.08 192.327 79.58 192.887 77.84V75.9H183.007ZM186.007 77.94H190.787C190.227 79.12 189.427 80.18 188.387 81.1C187.267 80.16 186.467 79.1 186.007 77.94ZM184.327 68.2V71.2C184.327 72.36 183.607 73.26 182.187 73.9L183.587 75.52C185.447 74.44 186.387 72.92 186.387 70.98V70.16H189.627V72.82C189.627 74.2 190.387 74.9 191.947 74.9H193.967V72.96H192.507C191.947 72.96 191.687 72.74 191.687 72.32V68.2H184.327ZM198.92 67.8L197.88 69.34C198.98 69.7 200.06 70.22 201.1 70.88L202.22 69.2C201.22 68.64 200.12 68.18 198.92 67.8ZM204.88 67.48C204.44 68.84 203.62 69.96 202.38 70.88L203.62 72.5C204.32 71.94 204.94 71.32 205.46 70.64H207.46C207.2 71.5 206.76 72.2 206.16 72.74C205.34 73.42 204 73.96 202.14 74.34L202.92 76.2C205.22 75.66 206.84 74.92 207.76 73.96C207.94 73.76 208.12 73.54 208.32 73.3C209.58 74.74 211.6 75.74 214.4 76.32L215.14 74.5C212.22 73.98 210.24 73.02 209.18 71.66C209.28 71.34 209.38 71 209.46 70.64H212.16C211.96 71.28 211.72 71.86 211.44 72.36L213.44 72.96C213.8 72 214.08 71.02 214.3 70.06V68.82H206.52C206.68 68.48 206.82 68.12 206.94 67.74L204.88 67.48ZM212.98 76.42H199.78V82.64H201.86V78.36H210.88V82.4H212.98V76.42ZM205.48 78.82C205.34 80.7 204.84 82.04 203.96 82.82C202.96 83.6 200.9 84.06 197.78 84.2L198.62 86.1C202.4 85.78 204.78 85.1 205.76 84.04C206.68 83.24 207.3 81.54 207.58 78.98L205.48 78.82ZM201.36 71.66C200.32 72.58 199.02 73.46 197.48 74.26L198.84 75.88C200.32 75 201.56 74.08 202.56 73.08L201.36 71.66ZM207.92 82.24L206.86 83.82C209.26 84.4 211.58 85.22 213.86 86.26L214.98 84.52C212.86 83.62 210.5 82.86 207.92 82.24ZM71.544 102.616H75.704V105.112H71.544V102.616ZM75.704 101.832H71.544V99.464H75.704V101.832ZM70.552 112.04C72.648 111.528 74.504 110.936 76.104 110.248C76.392 110.792 76.648 111.304 76.872 111.816L77.56 111.336C77.016 110.152 76.232 108.776 75.208 107.208L74.536 107.624C74.952 108.264 75.352 108.904 75.704 109.528C74.52 110.008 73.128 110.472 71.544 110.92V105.928H76.52V98.664H70.696V110.744C70.696 110.968 70.552 111.144 70.264 111.24L70.552 112.04ZM82.344 110.328C83.16 110.328 83.576 109.896 83.576 109.048V98.68H78.584V112.52H79.448V99.496H82.728V108.856C82.728 109.304 82.504 109.528 82.056 109.528L80.568 109.48L80.792 110.328H82.344ZM91.8107 99.224H87.4107V111.256H88.2747V109.768H90.9787V110.888H91.8107V99.224ZM88.2747 108.952V104.792H90.9787V108.952H88.2747ZM88.2747 103.976V100.024H90.9787V103.976H88.2747ZM94.0507 103.96L93.3467 104.408C94.3227 105.88 95.0907 107.208 95.6667 108.424L96.3867 107.928C95.8427 106.792 95.0747 105.464 94.0507 103.96ZM97.8267 112.392C98.7547 112.392 99.2347 111.912 99.2347 110.984V101.848H101.315V101H99.2347V98.104H98.3547V101H92.6427V101.848H98.3547V110.76C98.3547 111.336 98.0667 111.624 97.5227 111.624C96.6907 111.624 95.7947 111.592 94.8667 111.56L95.0587 112.392H97.8267ZM110.541 102.664V112.552H111.405V102.664H110.541ZM110.573 97.976C108.941 100.456 106.605 102.472 103.597 104.008L104.109 104.792C106.861 103.384 109.149 101.4 110.973 98.808C112.477 101.144 114.765 103.112 117.837 104.696L118.349 103.928C115.053 102.216 112.717 100.232 111.373 97.976H110.573ZM121.256 101.016C121.208 102.568 121.016 104.04 120.664 105.448L121.384 105.64C121.72 104.2 121.912 102.68 121.96 101.08L121.256 101.016ZM125 100.728L124.344 100.936C124.728 101.832 125.048 102.76 125.304 103.72L126.008 103.544C125.704 102.488 125.368 101.544 125 100.728ZM123.032 98.008V112.504H123.896V98.008H123.032ZM127.56 101.96H130.328V106.072H126.568V106.92H130.328V111.208H125.64V112.056H135.224V111.208H131.192V106.92H134.52V106.072H131.192V101.96H134.808V101.112H131.192V98.024H130.328V101.112H127.736C127.848 100.44 127.912 99.752 127.944 99.016L127.144 98.92C127.048 101.08 126.536 103.016 125.592 104.728L126.248 105.304C126.824 104.28 127.272 103.176 127.56 101.96ZM142.611 97.896C141.587 100.424 139.939 102.712 137.635 104.728L137.907 105.624C138.819 104.856 139.651 104.024 140.419 103.16V112.6H141.283V102.072C142.131 100.904 142.851 99.64 143.427 98.28L142.611 97.896ZM151.475 102.712L146.131 103V98.024H145.267V110.792C145.267 111.784 145.747 112.296 146.707 112.296H149.891C150.611 112.296 151.107 112.104 151.395 111.736C151.651 111.336 151.827 110.216 151.923 108.376L151.123 108.12C151.059 109.8 150.931 110.776 150.739 111.064C150.531 111.32 150.195 111.464 149.747 111.464H146.899C146.387 111.464 146.131 111.192 146.131 110.664V103.832L151.475 103.56V102.712ZM156.509 112.376C157.357 112.376 157.789 111.944 157.789 111.08V106.2C158.429 105.896 159.053 105.56 159.661 105.208V104.344C159.053 104.696 158.429 105.032 157.789 105.352V101.848H159.725V101H157.789V97.992H156.925V101H154.877V101.848H156.925V105.72C156.157 106.04 155.357 106.312 154.557 106.536L154.781 107.4C155.501 107.16 156.221 106.888 156.925 106.6V110.856C156.925 111.352 156.685 111.608 156.205 111.608C155.821 111.608 155.405 111.576 154.957 111.544L155.149 112.376H156.509ZM160.317 104.904V105.768H161.357C161.805 107.24 162.669 108.536 163.949 109.688C162.765 110.584 161.277 111.32 159.501 111.88L159.965 112.6C161.821 112.024 163.389 111.24 164.637 110.264C165.773 111.128 167.197 111.912 168.893 112.584L169.357 111.848C167.725 111.24 166.349 110.536 165.245 109.736C166.445 108.632 167.309 107.288 167.837 105.72V104.904H160.317ZM162.157 105.768H166.973C166.461 107.064 165.645 108.2 164.557 109.192C163.389 108.2 162.589 107.048 162.157 105.768ZM161.661 98.68V100.68C161.661 101.832 161.021 102.728 159.741 103.352L160.333 104.024C161.789 103.208 162.525 102.056 162.525 100.584V99.512H165.901V102.36C165.901 103.208 166.349 103.64 167.245 103.64H168.861V102.824H167.421C166.973 102.824 166.749 102.616 166.749 102.216V98.68H161.661ZM172.76 98.392L172.312 99.048C173.208 99.32 174.088 99.704 174.936 100.216L175.4 99.496C174.6 99.064 173.72 98.696 172.76 98.392ZM178.088 97.928C177.704 99.08 176.968 100.072 175.864 100.872L176.392 101.56C177.032 101.08 177.56 100.536 177.992 99.928H180.328C180.12 100.92 179.704 101.704 179.064 102.28C178.344 102.92 177.176 103.4 175.56 103.752L175.896 104.536C177.656 104.12 178.936 103.544 179.72 102.808C180.008 102.52 180.264 102.184 180.488 101.832C181.448 103.176 183.144 104.088 185.544 104.568L185.848 103.816C183.352 103.336 181.688 102.424 180.824 101.096C180.952 100.744 181.064 100.344 181.144 99.928H184.152C183.96 100.6 183.72 101.224 183.416 101.768L184.248 102.008C184.584 101.256 184.856 100.488 185.048 99.688V99.144H178.472C178.648 98.792 178.808 98.424 178.936 98.024L178.088 97.928ZM183.96 105.096H173.816V109.944H174.696V105.912H183.08V109.848H183.96V105.096ZM178.568 106.664C178.44 108.392 177.992 109.608 177.256 110.344C176.424 111.128 174.728 111.592 172.168 111.736L172.52 112.52C175.32 112.296 177.144 111.736 177.976 110.856C178.744 110.136 179.224 108.76 179.448 106.744L178.568 106.664ZM175.096 101.368C174.28 102.2 173.272 102.968 172.056 103.688L172.632 104.344C173.816 103.608 174.808 102.808 175.608 101.96L175.096 101.368ZM179.864 109.848L179.416 110.504C181.352 111.016 183.24 111.72 185.08 112.616L185.544 111.896C183.832 111.08 181.944 110.392 179.864 109.848ZM201.011 103.928H192.131V101.096H202.099V100.248H192.131V98.168H191.267V104.744H200.115C200.115 107.944 199.875 109.88 199.411 110.552C198.931 111.208 198.083 111.544 196.899 111.544C196.067 111.544 195.235 111.528 194.403 111.512L194.627 112.328C195.475 112.36 196.275 112.376 197.027 112.376C198.531 112.344 199.571 111.912 200.163 111.08C200.691 110.296 200.979 107.912 201.011 103.928ZM188.723 107.592V108.44H197.939V107.592H188.723ZM212.461 102.664V112.552H213.325V102.664H212.461ZM212.493 97.976C210.861 100.456 208.525 102.472 205.517 104.008L206.029 104.792C208.781 103.384 211.069 101.4 212.893 98.808C214.397 101.144 216.685 103.112 219.757 104.696L220.269 103.928C216.973 102.216 214.637 100.232 213.293 97.976H212.493ZM230.328 97.992H229.448C229.448 98.6 229.432 99.464 229.432 100.584C229.272 105.192 226.968 108.872 222.504 111.656L223.032 112.424C226.744 110.04 229.032 107.032 229.912 103.4C230.968 107.176 233.224 110.184 236.664 112.408L237.24 111.672C233.464 109.336 231.112 105.944 230.216 101.496C230.28 100.52 230.328 99.352 230.328 97.992ZM244.099 101.656L243.379 102.104C244.467 103.448 245.459 104.744 246.355 105.992C245.363 107.512 244.131 108.84 242.659 109.96L243.251 110.68C244.691 109.592 245.907 108.296 246.915 106.792C247.779 108.04 248.547 109.24 249.219 110.424L249.987 109.88C249.283 108.68 248.435 107.368 247.427 105.96C248.243 104.552 248.899 102.968 249.395 101.208L248.531 101.048C248.131 102.536 247.571 103.912 246.851 105.176C246.019 104.056 245.107 102.888 244.099 101.656ZM241.539 98.664V104.776C241.475 107.656 240.883 110.056 239.731 111.96L240.451 112.536C241.715 110.456 242.371 107.864 242.403 104.776V99.512H250.787V104.984C250.787 107.96 250.947 109.928 251.283 110.904C251.603 111.896 252.115 112.408 252.819 112.408C253.091 112.408 253.331 112.216 253.555 111.848C253.795 111.368 254.003 110.552 254.163 109.368L253.395 109C253.219 110.6 252.995 111.4 252.739 111.416C252.435 111.416 252.179 111.032 251.987 110.28C251.763 109.496 251.667 107.736 251.667 104.984V98.664H241.539ZM257.341 98.744V112.568H258.205V99.544H260.973C260.557 100.92 259.997 102.472 259.261 104.2C260.349 105.576 260.893 106.824 260.893 107.944C260.893 108.296 260.781 108.536 260.573 108.68C260.349 108.84 259.901 108.936 259.261 108.968C259.133 108.968 258.989 108.952 258.797 108.92L259.069 109.784C260.125 109.784 260.845 109.608 261.261 109.272C261.581 109 261.741 108.552 261.757 107.944C261.677 106.744 261.133 105.448 260.141 104.072C260.797 102.472 261.357 100.92 261.837 99.416V98.744H257.341ZM263.885 102.696V103.496H268.797V102.696H263.885ZM261.581 111.112V111.944H270.989V111.112H268.029C268.861 109.288 269.565 107.208 270.141 104.856L269.293 104.632C268.685 107.208 267.981 109.368 267.165 111.112H261.581ZM263.261 105.256L262.525 105.512C263.149 106.952 263.661 108.472 264.061 110.056L264.813 109.864C264.365 108.136 263.853 106.6 263.261 105.256ZM265.805 104.6L265.069 104.856C265.581 106.264 265.997 107.736 266.333 109.272L267.085 109.08C266.701 107.4 266.285 105.912 265.805 104.6ZM265.901 98.056C264.845 100.312 263.325 102.152 261.373 103.576L261.821 104.264C263.613 103.016 265.117 101.24 266.301 98.92C267.293 101.048 268.813 102.84 270.845 104.28L271.325 103.56C269.149 101.976 267.597 100.136 266.701 98.056H265.901ZM278.12 98.664C277.096 101.016 275.608 102.888 273.64 104.28L274.312 104.872C276.232 103.528 277.768 101.56 278.936 98.984L278.12 98.664ZM280.68 98.504V99.352H283.032C284.024 101.672 285.528 103.528 287.544 104.92L288.104 104.152C285.96 102.728 284.472 100.84 283.624 98.504H280.68ZM279.416 105.272C279.064 106.904 278.536 108.216 277.8 109.208C277.032 110.184 275.896 111.08 274.36 111.896L274.904 112.6C276.568 111.704 277.8 110.68 278.632 109.56C279.336 108.504 279.896 107.08 280.28 105.272H284.504C284.408 107.912 284.216 109.64 283.928 110.456C283.64 111.224 283.048 111.624 282.152 111.624C281.288 111.624 280.392 111.608 279.432 111.592L279.656 112.44H282.584C283.384 112.408 283.96 112.152 284.312 111.688C284.664 111.208 284.92 110.36 285.08 109.176C285.224 107.96 285.32 106.376 285.368 104.424H275.96V105.272H279.416ZM294.099 103.88C294.643 104.552 295.283 105.432 296.019 106.52L296.499 105.816C295.699 104.76 294.899 103.8 294.099 102.968V102.04H296.371V101.192H294.099V97.96H293.235V101.192H290.819V102.04H293.203C292.691 104.184 291.795 106.088 290.515 107.768L290.883 108.696C291.875 107.288 292.659 105.688 293.235 103.896V112.52H294.099V103.88ZM304.067 98.056C302.099 98.824 299.907 99.224 297.475 99.288V104.344C297.363 107.512 296.627 109.992 295.283 111.784L295.907 112.44C297.411 110.424 298.211 107.736 298.307 104.344V104.024H301.539V112.536H302.419V104.024H304.915V103.176H298.307V100.024C300.595 99.928 302.659 99.528 304.499 98.84L304.067 98.056ZM320.669 104.408V102.152H321.837V101.416H320.669V99.16H317.245V97.944H316.381V99.16H313.469V99.912H316.381V101.416H312.685V102.152H316.381V103.64H313.469V104.408H316.381V105.88H313.133V106.632H316.381V108.216H312.653V108.968H316.381V110.76H317.245V108.968H321.549V108.216H317.245V106.632H321.101V105.88H317.245V104.408H320.669ZM317.245 99.912H319.837V101.416H317.245V99.912ZM317.245 102.152H319.837V103.64H317.245V102.152ZM316.717 111.384C314.477 111.352 312.797 111.032 311.677 110.408C311.357 110.216 311.037 109.96 310.749 109.624C311.565 108.136 312.013 106.328 312.077 104.2V103.656H309.405C310.237 102.52 311.085 101.176 311.949 99.608V98.888H308.157V99.72H310.973C310.141 101.16 309.245 102.52 308.269 103.784V104.456H311.261C311.165 106.152 310.813 107.624 310.205 108.856C309.741 108.088 309.325 107.08 308.957 105.832L308.237 106.104C308.637 107.528 309.149 108.696 309.789 109.592C309.277 110.392 308.605 111.08 307.805 111.656L308.365 112.376C309.133 111.784 309.805 111.08 310.349 110.28C310.541 110.504 310.765 110.696 311.005 110.888C312.221 111.72 314.253 112.152 317.101 112.152H321.869L322.029 111.32C320.205 111.352 318.429 111.384 316.717 111.384ZM332.728 97.928L332.056 98.408C333.016 99.656 333.816 100.84 334.456 101.992L335.128 101.512C334.584 100.488 333.784 99.288 332.728 97.928ZM337.304 98.664C336.808 102.216 335.784 105.144 334.248 107.416C332.744 105.352 331.56 102.776 330.728 99.704L329.992 100.136C330.888 103.304 332.136 105.976 333.736 108.12C332.472 109.752 330.904 110.984 329.016 111.848L329.48 112.584C331.368 111.72 332.984 110.472 334.296 108.84C335.576 110.392 337.064 111.64 338.792 112.568L339.304 111.832C337.592 110.936 336.104 109.704 334.824 108.152C336.488 105.784 337.592 102.68 338.136 98.84L337.304 98.664ZM326.312 98.152L325.704 98.728C326.856 99.624 327.784 100.488 328.472 101.288L329.064 100.68C328.328 99.832 327.4 98.984 326.312 98.152ZM324.552 102.952V103.8H327.016V110.408C327.016 110.616 326.904 110.808 326.696 111L327.032 111.784C328.04 111.08 328.984 110.264 329.88 109.368L329.64 108.456C328.984 109.112 328.376 109.672 327.832 110.136V102.952H324.552ZM70.36 131.2V149.08H72.32V133.16H74.68C74.2 134.74 73.56 136.52 72.72 138.5C73.98 140.16 74.62 141.66 74.62 143C74.62 143.32 74.54 143.54 74.42 143.66C74.26 143.78 73.98 143.84 73.56 143.88C73.26 143.88 72.88 143.84 72.42 143.76L73.12 145.88C74.52 145.86 75.5 145.58 76.08 145.06C76.46 144.66 76.66 143.96 76.66 143C76.54 141.64 75.9 140.04 74.74 138.18C75.5 136.3 76.16 134.52 76.72 132.84V131.2H70.36ZM76.68 146.02H81.64V149.06H83.62V146.02H87.64V144.16H83.62V141.92H86.96V140.06H83.62V138.84H81.64V140.06H77.12V141.92H77.9L76.68 146.02ZM81.64 144.16H79.32L79.9 141.92H81.64V144.16ZM79.9 130.58C78.82 132.42 77.54 133.82 76.1 134.82L77.4 136.36C77.84 136.02 78.26 135.64 78.7 135.24C79.14 135.78 79.66 136.28 80.3 136.76C79.06 137.22 77.64 137.6 76 137.88L76.98 139.7C79 139.22 80.74 138.62 82.2 137.92C83.64 138.62 85.42 139.16 87.54 139.56L88.28 137.72C86.76 137.46 85.42 137.12 84.26 136.68C85.46 135.8 86.34 134.8 86.88 133.64V132H81.3C81.48 131.68 81.66 131.36 81.86 131.02L79.9 130.58ZM82.3 135.8C81.34 135.24 80.56 134.6 79.98 133.86C80 133.82 80.02 133.8 80.06 133.76H84.6C84.04 134.52 83.28 135.2 82.3 135.8ZM95.2333 130.48C94.2733 133.52 92.8133 136.16 90.8533 138.4L91.5333 140.6C92.1333 139.96 92.7133 139.3 93.2533 138.62V149.12H95.2933V135.58C96.0533 134.24 96.6533 132.84 97.1333 131.38L95.2333 130.48ZM99.2933 139.24H103.473C103.573 141.68 103.753 143.42 104.013 144.46C104.333 145.86 104.853 146.98 105.573 147.84C106.113 148.46 106.713 148.78 107.373 148.78C108.493 148.78 109.253 147.4 109.653 144.64L107.993 143.5C107.793 145.5 107.553 146.54 107.293 146.6C106.793 146.48 106.353 145.7 105.973 144.28C105.693 143.36 105.513 141.68 105.393 139.24H108.893V137.24H105.313C105.273 136.02 105.253 134.64 105.253 133.08C106.493 132.84 107.593 132.6 108.533 132.36L107.373 130.7C104.873 131.3 101.513 131.84 97.2733 132.32V142.9C97.2733 143.58 97.0133 144.04 96.5133 144.28L97.0333 146.04C99.2333 145.44 101.173 144.88 102.813 144.34L102.453 142.52C101.433 142.9 100.373 143.26 99.2933 143.58V139.24ZM103.393 137.24H99.2933V133.94C100.753 133.76 102.093 133.58 103.333 133.4C103.333 134.76 103.353 136.04 103.393 137.24ZM97.3133 146.78V148.72H103.953V146.78H97.3133ZM122.447 130.6H120.327C120.327 131.36 120.307 132.4 120.307 133.74C120.147 139.48 117.407 143.96 112.047 147.16L113.327 149.04C117.487 146.36 120.227 142.98 121.547 138.9C123.087 143.12 125.727 146.48 129.467 149L130.867 147.16C126.327 144.38 123.467 140.36 122.307 135.1C122.387 133.86 122.447 132.36 122.447 130.6ZM140.72 130.62V132.8C140.7 133.36 140.68 133.9 140.64 134.44H134.94V136.48H140.46C140.22 138.56 139.8 140.38 139.2 141.9C138.28 144.08 136.5 145.88 133.86 147.32L134.98 149.1C137.66 147.78 139.6 145.88 140.8 143.42C141.66 141.56 142.26 139.24 142.58 136.48H148.24C148.14 140.86 147.92 143.72 147.6 145.06C147.28 146.34 146.62 147 145.6 147C144.84 147 144.06 146.96 143.22 146.92L143.78 148.94H146.62C147.68 148.86 148.44 148.42 148.92 147.6C149.4 146.72 149.76 145.2 149.96 143.04C150.16 140.86 150.28 138 150.36 134.44H142.76C142.8 133.92 142.82 133.36 142.84 132.8V130.62H140.72ZM169.113 130.4L167.793 131.66C168.573 132.26 169.213 132.86 169.713 133.42H166.893C166.853 132.5 166.833 131.54 166.833 130.52H164.713C164.713 131.52 164.713 132.5 164.753 133.42H156.513V140.08C156.453 143.32 155.813 145.86 154.573 147.68L156.153 149.1C157.693 146.84 158.513 143.86 158.613 140.14H161.433C161.393 142.18 161.333 143.44 161.213 143.9C161.113 144.3 160.893 144.5 160.573 144.52C160.013 144.52 159.353 144.48 158.553 144.42L159.193 146.32C159.793 146.38 160.333 146.42 160.813 146.42C161.893 146.4 162.593 145.98 162.913 145.14C163.253 144.22 163.453 141.9 163.513 138.18H158.613V135.4H164.853C165.013 137.8 165.293 139.82 165.733 141.42C165.953 142.24 166.193 143 166.473 143.7C165.153 145.3 163.553 146.52 161.673 147.36L162.873 149.12C164.593 148.36 166.113 147.26 167.433 145.82C167.673 146.26 167.953 146.66 168.233 147.02C169.213 148.2 170.133 148.8 171.013 148.8C172.013 148.8 172.753 147.38 173.273 144.56L171.393 143.54C171.133 145.46 170.893 146.42 170.693 146.42C170.393 146.42 169.953 145.98 169.393 145.12C169.193 144.82 168.993 144.46 168.813 144.06C170.033 142.28 171.033 140.12 171.813 137.58L169.913 136.76C169.393 138.56 168.733 140.18 167.933 141.58C167.853 141.3 167.773 141.04 167.713 140.76C167.393 139.52 167.153 137.72 166.993 135.4H172.873V133.42H170.493L171.413 132.48C170.773 131.78 170.013 131.08 169.113 130.4ZM176.507 134.02V136.04H182.527C181.087 139.26 178.847 141.92 175.767 144L176.987 145.96C180.307 143.4 182.667 140.12 184.107 136.1V143.2H180.207V145.22H184.107V149.1H186.227V145.22H190.287V143.2H186.227V136.1C187.547 139.64 189.827 142.84 193.087 145.7L194.507 143.9C191.347 141.6 189.107 138.98 187.787 136.04H193.807V134.02H186.227V130.62H184.107V134.02H176.507ZM77.448 160.992H76.568C76.568 161.6 76.552 162.464 76.552 163.584C76.392 168.192 74.088 171.872 69.624 174.656L70.152 175.424C73.864 173.04 76.152 170.032 77.032 166.4C78.088 170.176 80.344 173.184 83.784 175.408L84.36 174.672C80.584 172.336 78.232 168.944 77.336 164.496C77.4 163.52 77.448 162.352 77.448 160.992ZM94.4347 160.992H93.5547C93.5547 161.6 93.5387 162.464 93.5387 163.584C93.3787 168.192 91.0747 171.872 86.6107 174.656L87.1387 175.424C90.8507 173.04 93.1387 170.032 94.0187 166.4C95.0747 170.176 97.3307 173.184 100.771 175.408L101.347 174.672C97.5707 172.336 95.2187 168.944 94.3227 164.496C94.3867 163.52 94.4347 162.352 94.4347 160.992ZM103.901 162V162.848H115.037V173.728C115.037 174.352 114.733 174.672 114.141 174.672C113.341 174.672 112.493 174.64 111.613 174.608L111.805 175.44H114.445C115.421 175.44 115.917 174.944 115.917 173.952V162.848H118.093V162H103.901ZM111.821 165.568H105.837V172.688H106.669V171.232H111.821V165.568ZM106.669 170.432V166.352H110.989V170.432H106.669ZM123.208 166.368H127.592V169.44H123.192C123.192 169.344 123.208 169.264 123.208 169.184V166.368ZM123.144 170.256H127.592V175.024H128.456V170.256H133.144V173.312C133.144 174.032 132.808 174.4 132.152 174.4C131.608 174.4 131.016 174.384 130.376 174.352L130.6 175.2H132.44C133.48 175.2 134.008 174.672 134.008 173.632V161.664H122.328V169.248C122.296 171.488 121.752 173.344 120.696 174.8L121.336 175.392C122.376 174.048 122.984 172.336 123.144 170.256ZM133.144 169.44H128.456V166.368H133.144V169.44ZM133.144 165.568H128.456V162.512H133.144V165.568ZM127.592 162.512V165.568H123.208V162.512H127.592ZM144.931 167.312C144.659 167.312 144.451 167.376 144.307 167.536C144.147 167.68 144.067 167.888 144.067 168.144C144.067 168.368 144.147 168.56 144.307 168.72C144.467 168.88 144.659 168.96 144.883 168.96C145.043 168.96 145.155 168.944 145.219 168.912C145.219 169.296 145.107 169.632 144.899 169.936C144.659 170.24 144.339 170.464 143.939 170.608V171.248C144.531 171.088 145.011 170.784 145.379 170.336C145.747 169.856 145.939 169.312 145.939 168.688C145.939 168.272 145.843 167.936 145.683 167.696C145.491 167.44 145.251 167.312 144.931 167.312ZM155.101 163.392V164.208H158.221V167.12H154.637V167.952H157.741C156.605 170.96 155.693 172.816 154.989 173.488C154.941 173.52 154.877 173.536 154.781 173.568L154.989 174.352C157.197 174.048 159.261 173.648 161.149 173.152C161.325 173.696 161.501 174.288 161.693 174.896L162.477 174.56C161.949 172.736 161.325 171.024 160.589 169.424L159.821 169.696C160.189 170.512 160.541 171.408 160.893 172.384C159.293 172.832 157.693 173.168 156.077 173.392C156.781 172.368 157.629 170.56 158.589 167.952H162.621V167.12H159.085V164.208H162.157V163.392H159.085V160.928H158.221V163.392H155.101ZM167.133 173.568C167.981 173.568 168.413 173.12 168.413 172.224V162.192H163.517V175.504H164.381V163.008H167.581V172.048C167.581 172.528 167.325 172.768 166.845 172.768L165.533 172.72L165.773 173.568H167.133ZM173.128 161.936V162.8H177.816V163.952C177.8 165.008 177.72 166 177.592 166.928H172.024V167.776H177.448C177.224 168.88 176.92 169.856 176.504 170.72C175.576 172.416 174.024 173.744 171.816 174.72L172.328 175.488C174.552 174.496 176.152 173.136 177.128 171.408C177.672 170.384 178.088 169.184 178.344 167.776H179.864V173.888C179.864 174.832 180.328 175.312 181.256 175.312H183.896C184.536 175.312 185.016 175.168 185.304 174.896C185.656 174.544 185.896 173.632 186.008 172.16L185.192 171.888C185.112 173.152 184.952 173.92 184.696 174.176C184.504 174.384 184.184 174.496 183.72 174.496H181.512C180.984 174.496 180.728 174.224 180.728 173.712V167.776H185.8V166.928H178.472C178.6 166 178.68 165.008 178.696 163.952V162.8H184.456V161.936H173.128ZM188.835 168.672V169.44H195.267L194.627 170.88H190.323V175.6H191.155V171.632H193.843V175.488H194.675V171.632H197.347V175.488H198.195V171.632H201.059V174.24C201.059 174.624 200.835 174.832 200.403 174.832L199.267 174.8L199.475 175.568H200.659C201.475 175.568 201.891 175.168 201.891 174.4V170.88H195.475L196.131 169.44H202.979V168.672H188.835ZM189.811 161.6V162.336H195.475V163.568H189.203V166.672H190.035V164.256H195.475V167.872H196.339V164.256H201.779V166.672H202.611V163.568H196.339V162.336H202.019V161.6H189.811ZM191.507 165.008L191.203 165.584C192.259 165.68 193.251 165.84 194.211 166.048L194.451 165.456C193.507 165.264 192.531 165.104 191.507 165.008ZM194.243 166.784C193.507 166.912 192.435 167.008 190.995 167.072L191.187 167.728C192.659 167.632 193.747 167.504 194.435 167.376L194.243 166.784ZM197.539 166.032C198.723 165.936 199.731 165.792 200.595 165.6L200.355 164.976C199.507 165.168 198.531 165.312 197.411 165.392L197.539 166.032ZM197.667 166.784L197.379 167.328C198.467 167.456 199.523 167.648 200.515 167.904L200.771 167.296C199.779 167.072 198.739 166.896 197.667 166.784ZM205.725 165.328V166.16H207.565V172.144C206.941 172.352 206.301 172.544 205.645 172.704L205.869 173.536C207.501 173.088 209.005 172.496 210.397 171.792V170.928C209.757 171.264 209.085 171.568 208.413 171.84V166.16H210.125V165.328H208.413V161.04H207.565V165.328H205.725ZM213.277 160.992L212.413 161.152C212.701 161.728 212.957 162.368 213.197 163.072H210.941V168.256H219.549V163.072H217.325C217.613 162.432 217.837 161.728 217.997 160.976L217.149 160.864C217.021 161.632 216.797 162.368 216.493 163.072H214.013C213.789 162.304 213.533 161.6 213.277 160.992ZM218.781 167.536H215.565V163.84H218.781V167.536ZM214.861 167.536H211.709V163.84H214.861V167.536ZM213.213 164.592L212.621 164.784C212.941 165.456 213.197 166.144 213.421 166.848L214.013 166.688C213.773 165.904 213.501 165.2 213.213 164.592ZM217.181 164.512C216.957 165.392 216.685 166.112 216.397 166.688L216.989 166.896C217.309 166.256 217.581 165.504 217.805 164.672L217.181 164.512ZM218.973 169.488H211.581V175.568H212.413V174.832H218.141V175.568H218.973V169.488ZM212.413 174.096V172.512H218.141V174.096H212.413ZM212.413 171.808V170.208H218.141V171.808H212.413ZM236.376 163.456H231.304V175.312H232.136V174.208H235.512V175.312H236.376V163.456ZM232.136 173.376V164.272H235.512V173.376H232.136ZM225.48 161.008V164.336H222.808V165.2H225.48V165.232C225.448 169.728 224.456 172.992 222.52 175.024L223.176 175.616C225.24 173.424 226.296 169.968 226.344 165.232V165.2H228.808C228.776 169.52 228.712 172.128 228.6 173.024C228.456 174.08 227.912 174.608 226.984 174.608C226.6 174.608 226.168 174.592 225.672 174.56L225.88 175.344C226.44 175.376 226.84 175.392 227.08 175.392C228.488 175.392 229.256 174.688 229.416 173.312C229.576 172.16 229.656 169.168 229.656 164.336H226.344V161.008H225.48ZM241.443 175.376C242.291 175.376 242.723 174.944 242.723 174.08V169.2C243.363 168.896 243.987 168.56 244.595 168.208V167.344C243.987 167.696 243.363 168.032 242.723 168.352V164.848H244.659V164H242.723V160.992H241.859V164H239.811V164.848H241.859V168.72C241.091 169.04 240.291 169.312 239.491 169.536L239.715 170.4C240.435 170.16 241.155 169.888 241.859 169.6V173.856C241.859 174.352 241.619 174.608 241.139 174.608C240.755 174.608 240.339 174.576 239.891 174.544L240.083 175.376H241.443ZM245.251 167.904V168.768H246.291C246.739 170.24 247.603 171.536 248.883 172.688C247.699 173.584 246.211 174.32 244.435 174.88L244.899 175.6C246.755 175.024 248.323 174.24 249.571 173.264C250.707 174.128 252.131 174.912 253.827 175.584L254.291 174.848C252.659 174.24 251.283 173.536 250.179 172.736C251.379 171.632 252.243 170.288 252.771 168.72V167.904H245.251ZM247.091 168.768H251.907C251.395 170.064 250.579 171.2 249.491 172.192C248.323 171.2 247.523 170.048 247.091 168.768ZM246.595 161.68V163.68C246.595 164.832 245.955 165.728 244.675 166.352L245.267 167.024C246.723 166.208 247.459 165.056 247.459 163.584V162.512H250.835V165.36C250.835 166.208 251.283 166.64 252.179 166.64H253.795V165.824H252.355C251.907 165.824 251.683 165.616 251.683 165.216V161.68H246.595ZM257.693 161.392L257.245 162.048C258.141 162.32 259.021 162.704 259.869 163.216L260.333 162.496C259.533 162.064 258.653 161.696 257.693 161.392ZM263.021 160.928C262.637 162.08 261.901 163.072 260.797 163.872L261.325 164.56C261.965 164.08 262.493 163.536 262.925 162.928H265.261C265.053 163.92 264.637 164.704 263.997 165.28C263.277 165.92 262.109 166.4 260.493 166.752L260.829 167.536C262.589 167.12 263.869 166.544 264.653 165.808C264.941 165.52 265.197 165.184 265.421 164.832C266.381 166.176 268.077 167.088 270.477 167.568L270.781 166.816C268.285 166.336 266.621 165.424 265.757 164.096C265.885 163.744 265.997 163.344 266.077 162.928H269.085C268.893 163.6 268.653 164.224 268.349 164.768L269.181 165.008C269.517 164.256 269.789 163.488 269.981 162.688V162.144H263.405C263.581 161.792 263.741 161.424 263.869 161.024L263.021 160.928ZM268.893 168.096H258.749V172.944H259.629V168.912H268.013V172.848H268.893V168.096ZM263.501 169.664C263.373 171.392 262.925 172.608 262.189 173.344C261.357 174.128 259.661 174.592 257.101 174.736L257.453 175.52C260.253 175.296 262.077 174.736 262.909 173.856C263.677 173.136 264.157 171.76 264.381 169.744L263.501 169.664ZM260.029 164.368C259.213 165.2 258.205 165.968 256.989 166.688L257.565 167.344C258.749 166.608 259.741 165.808 260.541 164.96L260.029 164.368ZM264.797 172.848L264.349 173.504C266.285 174.016 268.173 174.72 270.013 175.616L270.477 174.896C268.765 174.08 266.877 173.392 264.797 172.848ZM279.608 161.664V168.864H282.984V171.008H279.288V171.824H282.984V174.208H278.584V175.056H288.152V174.208H283.848V171.824H287.544V171.008H283.848V168.864H287.224V161.664H279.608ZM286.376 168.08H283.848V165.664H286.376V168.08ZM282.984 168.08H280.44V165.664H282.984V168.08ZM280.44 164.912V162.448H282.984V164.912H280.44ZM283.848 162.448H286.376V164.912H283.848V162.448ZM273.864 166.992V167.84H275.752V172.096C275.048 172.32 274.312 172.496 273.544 172.656L273.752 173.472C275.464 173.056 277.064 172.544 278.536 171.92V171.072C277.928 171.328 277.288 171.584 276.616 171.824V167.84H278.52V166.992H276.616V162.928H278.712V162.096H273.64V162.928H275.752V166.992H273.864ZM301.731 165.056C300.819 168.144 299.283 170.656 297.107 172.592L297.587 173.376C299.731 171.36 301.283 168.784 302.227 165.648V173.872C302.227 174.4 302.003 174.672 301.571 174.672C300.963 174.672 300.307 174.656 299.635 174.624L299.827 175.44H301.875C302.659 175.44 303.059 174.992 303.059 174.096V165.056H304.995V164.24H303.059V161.024H302.227V164.24H297.875V165.056H301.731ZM296.867 161.68H291.379V171.712H292.179V162.48H296.067V171.52H296.867V161.68ZM293.763 163.92V168.768C293.731 170.32 293.491 171.584 293.043 172.56C292.531 173.52 291.667 174.272 290.451 174.816L290.931 175.536C292.179 174.96 293.091 174.16 293.635 173.136C294.195 172.048 294.483 170.592 294.515 168.768V163.92H293.763ZM295.123 172.144L294.563 172.688C295.491 173.616 296.243 174.48 296.803 175.312L297.411 174.704C296.803 173.84 296.035 172.992 295.123 172.144ZM315.197 161.792V162.592H318.045C317.965 163.296 317.853 163.952 317.725 164.592H315.677V172.176H316.461V165.36H320.429V172.176H321.213V164.592H318.525C318.653 163.968 318.765 163.296 318.845 162.592H321.885V161.792H315.197ZM319.309 172.56L318.765 173.072C319.949 174 320.893 174.864 321.581 175.68L322.173 175.104C321.405 174.256 320.445 173.408 319.309 172.56ZM318.109 166.288V169.04C318.077 170.544 317.789 171.776 317.245 172.736C316.653 173.664 315.629 174.4 314.189 174.928L314.637 175.632C316.109 175.056 317.181 174.288 317.837 173.296C318.493 172.24 318.829 170.816 318.861 169.04V166.288H318.109ZM310.717 174.72C312.125 174.272 313.405 173.744 314.557 173.104L314.413 172.352C313.453 172.864 312.509 173.296 311.549 173.648V165.84H313.549V169.312C313.549 169.632 313.373 169.808 313.037 169.808C312.749 169.808 312.461 169.792 312.157 169.776L312.365 170.512C312.685 170.528 312.973 170.544 313.261 170.544C313.949 170.544 314.301 170.192 314.301 169.504V165.088H310.781V173.472C310.781 173.68 310.637 173.84 310.381 173.936L310.717 174.72ZM314.557 161.808H308.557V168.208C308.525 171.088 308.157 173.328 307.453 174.96L308.093 175.536C308.925 173.696 309.373 171.248 309.421 168.208V162.64H314.557V161.808ZM336.488 175.488C337.608 175.488 338.184 174.896 338.184 173.744V161.968H330.968V162.816H337.304V173.504C337.304 174.288 336.968 174.688 336.328 174.688L334.504 174.656L334.744 175.488H336.488ZM325.416 163.616V175.584H326.296V163.616H325.416ZM329.048 166.032V171.776H334.488V166.032H329.048ZM333.64 170.928H329.896V166.848H333.64V170.928ZM327.512 160.848L326.712 161.2C327.464 162.064 328.152 163.072 328.776 164.192L329.56 163.776C328.968 162.72 328.28 161.744 327.512 160.848Z" fill="#02B0AF"/>
<path fill-rule="evenodd" clip-rule="evenodd" d="M30 50C42.1503 50 52 40.1503 52 28C52 15.8497 42.1503 6 30 6C17.8497 6 8 15.8497 8 28C8 40.1503 17.8497 50 30 50Z" stroke="#44D8CD"/>
<path d="M17.0017 28.3575L25.7227 37.0701L42.3945 20.6652" stroke="#44D8CD" stroke-width="2" stroke-linecap="round"/>
<path fill-rule="evenodd" clip-rule="evenodd" d="M30 110C42.1503 110 52 100.15 52 88C52 75.8497 42.1503 66 30 66C17.8497 66 8 75.8497 8 88C8 100.15 17.8497 110 30 110Z" stroke="#44D8CD"/>
<path d="M17.0017 88.3575L25.7227 97.0701L42.3945 80.6652" stroke="#44D8CD" stroke-width="2" stroke-linecap="round"/>
<path fill-rule="evenodd" clip-rule="evenodd" d="M30 173C42.1503 173 52 163.15 52 151C52 138.85 42.1503 129 30 129C17.8497 129 8 138.85 8 151C8 163.15 17.8497 173 30 173Z" stroke="#44D8CD"/>
<path d="M17.0017 151.358L25.7227 160.07L42.3945 143.665" stroke="#44D8CD" stroke-width="2" stroke-linecap="round"/>
</svg>
