<?xml version="1.0" encoding="UTF-8" standalone="no"?>
<svg width="90px" height="90px" viewBox="0 0 90 90" version="1.1" xmlns="http://www.w3.org/2000/svg" xmlns:xlink="http://www.w3.org/1999/xlink">
    <!-- Generator: Sketch 48 (47235) - http://www.bohemiancoding.com/sketch -->
    <title>bitcoin</title>
    <desc>Created with Sketch.</desc>
    <defs></defs>
    <g id="產品-大腦-2配色-copy" stroke="none" stroke-width="1" fill="none" fill-rule="evenodd" transform="translate(-973.000000, -2914.000000)">
        <g id="04" transform="translate(0.000000, 2335.000000)" fill="#006464">
            <g id="3-items-copy" transform="translate(121.000000, 570.000000)">
                <g id="bitcoin" transform="translate(852.000000, 9.000000)">
                    <path d="M82.3726316,47.9289474 C84.0254386,47.9270175 85.3649123,46.5877193 85.3668421,44.9347368 L85.3668421,40.2308772 C88.2857895,39.4822807 90.1905263,36.6773684 89.8101754,33.6880702 C89.4298246,30.6987719 86.8831579,28.4605263 83.8698246,28.4668421 C80.8564912,28.4605263 78.3098246,30.6989474 77.9294737,33.6880702 C77.5491228,36.6773684 79.4538596,39.4821053 82.372807,40.2308772 L82.372807,44.9347368 L70.3961404,44.9347368 C70.4145614,38.1812281 67.7301754,31.7012281 62.9414035,26.9391228 C62.0001754,26.0110526 60.9889474,25.1568421 59.9164912,24.3842105 L59.9164912,22.4785965 L80.875614,22.4785965 C82.5284211,22.4766667 83.8678947,21.1373684 83.8698246,19.484386 L83.8698246,16.2777193 C86.7896491,15.5238596 88.6933333,12.7164912 88.3133333,9.72508772 C87.9333333,6.73350877 85.3882456,4.49122807 82.3726316,4.49122807 C79.3570175,4.49122807 76.8121053,6.73350877 76.4321053,9.72491228 C76.0521053,12.7163158 77.9557895,15.5236842 80.875614,16.2775439 L80.875614,19.4842105 L59.9164912,19.4842105 C58.2687719,19.4864912 56.9319298,20.8182456 56.9236842,22.4659649 C53.6829825,20.7463158 50.1063158,19.7535088 46.442807,19.557193 L46.442807,16.4903509 L52.4310526,16.4903509 C54.0838596,16.4884211 55.4233333,15.1489474 55.4252632,13.4961404 L55.4252632,11.7864912 C58.3450877,11.0326316 60.2487719,8.22526316 59.8687719,5.23385965 C59.4887719,2.2422807 56.9436842,0 53.9282456,0 C50.912807,0 48.3677193,2.2422807 47.9877193,5.23368421 C47.6077193,8.22508772 49.5114035,11.0324561 52.4312281,11.7863158 L52.4312281,13.4959649 L46.4429825,13.4959649 C44.7901754,13.4978947 43.4507018,14.8373684 43.4487719,16.4901754 L43.4487719,19.557193 C41.4180702,19.6645614 39.4077193,20.0149123 37.4605263,20.6010526 L37.4605263,9.00491228 C37.4585965,7.35210526 36.1191228,6.01263158 34.4663158,6.01070175 L19.2829825,6.01070175 C18.5291228,3.09087719 15.7217544,1.18719298 12.7303509,1.56719298 C9.73877193,1.94719298 7.49649123,4.4922807 7.49649123,7.50789474 C7.49649123,10.5235088 9.73877193,13.0684211 12.7301754,13.4484211 C15.7215789,13.8284211 18.5289474,11.9247368 19.282807,9.00491228 L34.4661404,9.00491228 L34.4661404,21.7570175 C27.8080702,24.754386 22.7610526,30.4710526 20.6121053,37.4492982 L7.51894737,37.4492982 L7.51894737,29.7514035 C10.4387719,28.9975439 12.3424561,26.1901754 11.9624561,23.1987719 C11.5824561,20.207193 9.03736842,17.9649123 6.02175439,17.9649123 C3.00631579,17.9649123 0.46122807,20.207193 0.0812280702,23.1985965 C-0.29877193,26.19 1.60491228,28.9973684 4.52473684,29.7512281 L4.52473684,37.4491228 C4.52666667,39.1019298 5.86614035,40.4414035 7.51894737,40.4433333 L19.9085965,40.4433333 C19.6394737,41.9254386 19.5012281,43.4282456 19.4954386,44.9345614 L16.5014035,44.9345614 C14.8485965,44.9364912 13.5091228,46.2759649 13.507193,47.9287719 L13.507193,68.8878947 L11.7975439,68.8878947 C11.0436842,65.9680702 8.23631579,64.064386 5.24491228,64.444386 C2.25350877,64.824386 0.0112280702,67.3694737 0.0112280702,70.3849123 C0.0112280702,73.4003509 2.25350877,75.9454386 5.24491228,76.3254386 C8.23631579,76.7054386 11.0436842,74.8017544 11.7975439,71.8819298 L13.507193,71.8819298 C15.16,71.88 16.4994737,70.5405263 16.5014035,68.8877193 L16.5014035,47.9289474 L19.6875439,47.9289474 C20.7173684,56.7892982 26.3305263,64.4552632 34.4663158,68.1124561 L34.4663158,82.3615789 L25.2712281,82.3615789 C24.5173684,79.4417544 21.71,77.5380702 18.7185965,77.9180702 C15.727193,78.2980702 13.4849123,80.8431579 13.4849123,83.8585965 C13.4849123,86.8740351 15.727193,89.4191228 18.7185965,89.7991228 C21.71,90.1791228 24.5173684,88.2754386 25.2712281,85.355614 L34.4663158,85.355614 C36.1191228,85.3536842 37.4585965,84.014386 37.4605263,82.3614035 L37.4605263,69.2678947 C39.4077193,69.8540351 41.4182456,70.204386 43.4487719,70.3117544 L43.4487719,73.3787719 C43.4507018,75.0315789 44.7901754,76.3710526 46.4429825,76.3729825 L56.9224561,76.3729825 L56.9224561,78.0826316 C54.0026316,78.8364912 52.0989474,81.6438596 52.4789474,84.6352632 C52.8589474,87.6266667 55.4040351,89.8689474 58.4194737,89.8689474 C61.4349123,89.8689474 63.98,87.6266667 64.36,84.6352632 C64.74,81.6438596 62.8363158,78.8364912 59.9164912,78.0826316 L59.9164912,76.3729825 C59.9145614,74.7201754 58.5750877,73.3807018 56.9222807,73.3787719 L46.442807,73.3787719 L46.442807,70.3117544 C52.6649123,69.9719298 58.5414035,67.3426316 62.9414035,62.93 C64.7207018,61.1547368 66.2282456,59.1264912 67.4150877,56.9110526 L79.3785965,56.9110526 L79.3785965,72.094386 C76.4587719,72.8482456 74.5550877,75.655614 74.9350877,78.6470175 C75.3150877,81.6384211 77.8601754,83.8807018 80.875614,83.8807018 C83.8910526,83.8807018 86.4361404,81.6384211 86.8161404,78.6470175 C87.1961404,75.655614 85.2924561,72.8482456 82.3726316,72.094386 L82.3726316,56.9110526 C82.3707018,55.2582456 81.0312281,53.9187719 79.3784211,53.9168421 L68.7438596,53.9168421 C69.4731579,51.9878947 69.9635088,49.9768421 70.2038596,47.9285965 L82.3726316,47.9285965 L82.3726316,47.9289474 Z M80.875614,34.4552632 C80.875614,32.8015789 82.2161404,31.4610526 83.8698246,31.4610526 C85.5235088,31.4610526 86.8640351,32.8015789 86.8640351,34.4552632 C86.8621053,36.1080702 85.522807,37.4475439 83.8698246,37.4494737 C82.2161404,37.4492982 80.875614,36.1087719 80.875614,34.4552632 Z M79.3785965,10.5019298 C79.3785965,8.84824561 80.7191228,7.5077193 82.372807,7.5077193 C84.0264912,7.5077193 85.3670175,8.84824561 85.3670175,10.5019298 C85.3670175,12.155614 84.0264912,13.4961404 82.372807,13.4961404 C80.7198246,13.4942105 79.3803509,12.1547368 79.3785965,10.5019298 Z M50.9340351,6.01070175 C50.9340351,4.35701754 52.2745614,3.01649123 53.9282456,3.01649123 C55.5819298,3.01649123 56.9224561,4.35701754 56.9224561,6.01070175 C56.9224561,7.66438596 55.5819298,9.00491228 53.9282456,9.00491228 C52.2754386,9.00298246 50.9359649,7.66350877 50.9340351,6.01070175 Z M13.507193,10.5019298 C11.8535088,10.5019298 10.5129825,9.16140351 10.5129825,7.5077193 C10.5129825,5.85403509 11.8535088,4.51350877 13.507193,4.51350877 C15.1608772,4.51350877 16.5014035,5.85403509 16.5014035,7.5077193 C16.4994737,9.16070175 15.16,10.5 13.507193,10.5019298 Z M6.02175439,26.9698246 C4.36894737,26.9678947 3.02947368,25.6284211 3.02754386,23.975614 C3.02754386,22.3219298 4.36807018,20.9814035 6.02175439,20.9814035 C7.6754386,20.9814035 9.01596491,22.3219298 9.01596491,23.975614 C9.01596491,25.6292982 7.6754386,26.9698246 6.02175439,26.9698246 Z M6.02175439,73.3791228 C4.36807018,73.3791228 3.02754386,72.0385965 3.02754386,70.3849123 C3.02754386,68.7312281 4.36807018,67.3907018 6.02175439,67.3907018 C7.6754386,67.3907018 9.01596491,68.7312281 9.01596491,70.3849123 C9.01403509,72.0378947 7.6745614,73.377193 6.02175439,73.3791228 Z M19.4954386,86.852807 C17.8417544,86.852807 16.5012281,85.5122807 16.5012281,83.8585965 C16.5012281,82.2049123 17.8417544,80.864386 19.4954386,80.864386 C21.1491228,80.864386 22.4896491,82.2049123 22.4896491,83.8585965 C22.4877193,85.5115789 21.1484211,86.8508772 19.4954386,86.852807 Z M58.4194737,80.8645614 C60.0722807,80.8664912 61.4117544,82.2057895 61.4136842,83.8587719 C61.4136842,85.5124561 60.0731579,86.8529825 58.4194737,86.8529825 C56.7657895,86.8529825 55.4252632,85.5124561 55.4252632,83.8587719 C55.4252632,82.2050877 56.7657895,80.8645614 58.4194737,80.8645614 Z M60.824386,60.8133333 C53.2491228,68.3880702 41.3780702,69.5568421 32.4710526,63.6050877 C23.5640351,57.6531579 20.1015789,46.2384211 24.2012281,36.3412281 C28.3008772,26.4440351 38.8208772,20.8212281 49.3277193,22.9112281 C59.8345614,25.0012281 67.4017544,34.2221053 67.4017544,44.9347368 C67.4180702,50.8936842 65.0496491,56.6114035 60.824386,60.8133333 Z M80.875614,74.8763158 C82.5284211,74.8782456 83.8678947,76.2177193 83.8698246,77.8705263 C83.8698246,79.5242105 82.5292982,80.8647368 80.875614,80.8647368 C79.2219298,80.8647368 77.8814035,79.5242105 77.8814035,77.8705263 C77.8814035,76.2168421 79.2219298,74.8763158 80.875614,74.8763158 Z" id="Shape" fill-rule="nonzero"></path>
                    <path d="M54.4495992,50.725071 C54.4495992,52.6131013 53.7595019,54.1690753 52.3792867,55.3930398 C50.9990715,56.6170042 49.0069039,57.372205 46.4027242,57.6586648 L46.4027242,61.896946 L43.805068,61.896946 L43.805068,57.7758523 C40.5758851,57.7237687 37.9261721,57.228982 35.8558492,56.2914773 L35.8558492,52.1703835 C36.9756465,52.7172613 38.2842271,53.176241 39.7816305,53.5473366 C41.2790338,53.9184323 42.6201662,54.1104876 43.805068,54.1235085 L43.805068,46.818821 L42.164443,46.2133523 C40.0290156,45.3930357 38.4697864,44.4132278 37.4867086,43.2738991 C36.5036308,42.1345705 36.0120992,40.7250794 36.0120992,39.0453835 C36.0120992,37.2484995 36.711962,35.7706497 38.1117086,34.6117898 C39.5114552,33.4529298 41.4092226,32.7498118 43.805068,32.5024148 L43.805068,29.2211648 L46.4027242,29.2211648 L46.4027242,32.443821 C49.0459666,32.5349673 51.5524519,33.0688161 53.9222555,34.0453835 L52.4964742,37.6196023 C50.4521932,36.8123066 48.4209635,36.3305406 46.4027242,36.1742898 L46.4027242,43.2836648 L47.8870992,43.850071 C50.3610699,44.8005966 52.0732924,45.8031907 53.023818,46.8578835 C53.9743435,47.9125763 54.4495992,49.2016259 54.4495992,50.725071 Z M49.8402242,51.0180398 C49.8402242,50.2628277 49.576555,49.6410891 49.0492086,49.1528054 C48.5218622,48.6645217 47.6397096,48.1925212 46.4027242,47.7367898 L46.4027242,53.9672585 C48.6944023,53.6156943 49.8402242,52.6326312 49.8402242,51.0180398 Z M40.601943,39.006321 C40.601943,39.7485122 40.8330604,40.3669956 41.2953023,40.8617898 C41.7575442,41.3565839 42.5941244,41.8448603 43.805068,42.3266335 L43.805068,36.2524148 C42.7633961,36.4086656 41.9691332,36.7276728 41.4222555,37.209446 C40.8753777,37.6912193 40.601943,38.2901716 40.601943,39.006321 Z" id="$"></path>
                </g>
            </g>
        </g>
    </g>
</svg>