<?xml version="1.0" encoding="UTF-8" standalone="no"?>
<svg width="120px" height="79px" viewBox="0 0 120 79" version="1.1" xmlns="http://www.w3.org/2000/svg" xmlns:xlink="http://www.w3.org/1999/xlink">
    <!-- Generator: Sketch 48 (47235) - http://www.bohemiancoding.com/sketch -->
    <title>puzzle</title>
    <desc>Created with Sketch.</desc>
    <defs></defs>
    <g id="產品-大腦-2配色-copy" stroke="none" stroke-width="1" fill="none" fill-rule="evenodd" transform="translate(-205.000000, -2919.000000)">
        <g id="04" transform="translate(0.000000, 2335.000000)" fill="#006464" fill-rule="nonzero">
            <g id="3-items-copy" transform="translate(121.000000, 570.000000)">
                <g id="puzzle" transform="translate(84.000000, 14.000000)">
                    <path d="M118.728421,26.6322807 L105.22269,10.571462 C104.597193,9.82783626 103.487485,9.73192982 102.74386,10.357193 C102.000234,10.9824561 101.904327,12.0923977 102.529591,12.8360234 L116.035088,28.8966082 C116.359532,29.2825731 116.309474,29.8603509 115.923509,30.1847953 L91.7773099,50.4898246 L85.8535673,43.445614 C86.9791813,42.4991813 89.1389474,40.9960234 89.4266667,37.6666667 C89.9812865,31.2498246 82.4640936,27.3497076 77.5356725,31.4928655 L76.5202339,32.3469006 L70.5969591,25.3026901 C79.4984795,17.8173099 79.3539181,18.1630409 79.4376608,17.1950877 C79.4776608,16.7302924 79.3316959,16.268538 79.031345,15.911345 L77.0451462,13.5494737 C75.7207018,11.974269 75.9246784,9.6154386 77.4994152,8.29076023 C79.074152,6.96608187 81.4334503,7.1702924 82.7581287,8.74526316 L84.7443275,11.1071345 C85.0446784,11.4640936 85.4746199,11.6874854 85.9391813,11.7277193 C86.4030409,11.7670175 86.865731,11.6217544 87.222924,11.3214035 L95.4432749,4.40888889 L98.5352047,8.08561404 C99.1604678,8.82900585 100.270175,8.9251462 101.014035,8.29988304 C101.757661,7.67461988 101.853567,6.56467836 101.228304,5.82105263 L97.0042105,0.797660819 C96.3787135,0.0540350877 95.2690058,-0.041871345 94.5253801,0.583391813 L86.3052632,7.49590643 L85.451462,6.48046784 C82.8781287,3.42035088 78.2954386,3.02432749 75.2350877,5.5974269 C72.1754386,8.17076023 71.7796491,12.7536842 74.3525146,15.8135673 L75.2065497,16.8290058 L66.9866667,23.7415205 C66.2430409,24.3670175 66.1471345,25.4767251 66.7723977,26.2203509 C75.597193,36.7153216 75.1721637,36.4933333 76.1553216,36.5782456 C77.0905263,36.6573099 77.3511111,36.245848 79.8011696,34.1854971 C82.3366082,32.0533333 86.2070175,34.0612865 85.9218713,37.3632749 C85.7585965,39.2540351 84.6397661,39.8697076 82.2432749,41.8846784 C81.500117,42.5097076 81.4037427,43.619883 82.0287719,44.3635088 C90.8540351,54.8582456 90.4287719,54.6362573 91.4121637,54.7214035 C92.4273684,54.8088889 90.6842105,56.0067836 118.188304,32.8778947 C120.058947,31.3052632 120.301287,28.5036257 118.728421,26.6322807 Z" id="Shape"></path>
                    <path d="M74.6145029,39.3927485 L63.6516959,39.3927485 L63.6516959,38.065731 C63.6516959,34.0676023 60.3988304,30.8149708 56.4007018,30.8149708 C52.4025731,30.8149708 49.1497076,34.0676023 49.1497076,38.065731 L49.1497076,39.3927485 L39.9461988,39.3927485 L39.9461988,28.6526316 C39.9461988,27.6809357 39.1585965,26.8933333 38.1869006,26.8933333 L35.1008187,26.8933333 C33.042807,26.8933333 31.3684211,25.2191813 31.3684211,23.1611696 C31.3684211,21.1031579 33.042807,19.4287719 35.1008187,19.4287719 L38.1869006,19.4287719 C39.1585965,19.4287719 39.9461988,18.6411696 39.9461988,17.6694737 L39.9461988,5.17005848 C39.9461988,4.19836257 39.1585965,3.41076023 38.1869006,3.41076023 L29.6348538,3.41076023 C28.6631579,3.41076023 27.8755556,4.19836257 27.8755556,5.17005848 C27.8755556,6.14175439 28.6631579,6.92935673 29.6348538,6.92935673 L36.4276023,6.92935673 L36.4276023,15.9101754 L35.1008187,15.9101754 C31.1026901,15.9101754 27.8498246,19.1630409 27.8498246,23.1611696 C27.8498246,27.1592982 31.1026901,30.4119298 35.1008187,30.4119298 L36.4276023,30.4119298 L36.4276023,39.3927485 L25.4647953,39.3927485 C24.4930994,39.3927485 23.7054971,40.1803509 23.7054971,41.1520468 L23.7054971,44.2381287 C23.7054971,46.2961404 22.0311111,47.9705263 19.9730994,47.9705263 C17.9150877,47.9705263 16.2407018,46.2961404 16.2407018,44.2381287 L16.2407018,41.1520468 C16.2407018,40.1803509 15.4530994,39.3927485 14.4814035,39.3927485 L3.51859649,39.3927485 L3.51859649,7.84374269 C3.51859649,7.33964912 3.92888889,6.92935673 4.43274854,6.92935673 L22.8322807,6.92935673 C23.8039766,6.92935673 24.5915789,6.14175439 24.5915789,5.17005848 C24.5915789,4.19836257 23.8039766,3.41076023 22.8322807,3.41076023 L4.43274854,3.41076023 C1.98877193,3.41052632 0,5.39929825 0,7.84374269 C0,10.7709942 0,71.5387135 0,74.460117 C0,76.9043275 1.98877193,78.8930994 4.43274854,78.8930994 C7.39391813,78.8930994 68.9796491,78.8930994 71.9405848,78.8930994 C74.3847953,78.8930994 76.3735673,76.9043275 76.3735673,74.460117 L76.3735673,41.1520468 C76.3738012,40.1803509 75.5859649,39.3927485 74.6145029,39.3927485 Z M36.4276023,64.634152 L36.4276023,75.3745029 L4.43274854,75.3745029 C3.92865497,75.3745029 3.51859649,74.9642105 3.51859649,74.460117 L3.51859649,42.911345 L12.7221053,42.911345 L12.7221053,44.2381287 C12.7221053,48.2362573 15.9749708,51.4891228 19.9730994,51.4891228 C23.9712281,51.4891228 27.2240936,48.2362573 27.2240936,44.2381287 L27.2240936,42.911345 L36.4276023,42.911345 L36.4276023,53.6512281 C36.4276023,54.622924 37.2152047,55.4105263 38.1869006,55.4105263 L41.2729825,55.4105263 C43.3309942,55.4105263 45.0053801,57.0849123 45.0053801,59.142924 C45.0053801,61.2009357 43.3309942,62.8750877 41.2729825,62.8750877 L38.1869006,62.8750877 C37.2152047,62.8748538 36.4276023,63.6626901 36.4276023,64.634152 Z M71.9408187,75.3745029 L39.9461988,75.3745029 L39.9461988,66.3934503 L41.2729825,66.3934503 C45.2711111,66.3934503 48.5239766,63.1408187 48.5239766,59.1426901 C48.5239766,55.1445614 45.2711111,51.8916959 41.2729825,51.8916959 L39.9461988,51.8916959 L39.9461988,42.9111111 L50.9090058,42.9111111 C51.8807018,42.9111111 52.6683041,42.1235088 52.6683041,41.1518129 L52.6683041,38.0654971 C52.6683041,36.0074854 54.3426901,34.3333333 56.4007018,34.3333333 C58.4587135,34.3333333 60.1330994,36.0074854 60.1330994,38.0654971 L60.1330994,41.1518129 C60.1330994,42.1235088 60.9207018,42.9111111 61.8923977,42.9111111 L72.8552047,42.9111111 L72.8552047,74.460117 L72.8554386,74.460117 C72.8552047,74.9642105 72.4449123,75.3745029 71.9408187,75.3745029 Z" id="Shape"></path>
                </g>
            </g>
        </g>
    </g>
</svg>