<?xml version="1.0" encoding="UTF-8" standalone="no"?>
<svg width="100px" height="98px" viewBox="0 0 100 98" version="1.1" xmlns="http://www.w3.org/2000/svg" xmlns:xlink="http://www.w3.org/1999/xlink">
    <!-- Generator: Sketch 48 (47235) - http://www.bohemiancoding.com/sketch -->
    <title>action</title>
    <desc>Created with Sketch.</desc>
    <defs></defs>
    <g id="產品-大腦-2配色-copy" stroke="none" stroke-width="1" fill="none" fill-rule="evenodd" transform="translate(-587.000000, -2592.000000)">
        <g id="04" transform="translate(0.000000, 2335.000000)">
            <g id="action" transform="translate(587.000000, 257.000000)">
                <path d="M57.1243284,44.746085 C57.1487763,43.8963909 57.242283,43.0080028 57.4338307,42.1349292 C58.0869591,39.1579719 59.7581209,37.1666667 62.6666667,37.1666667 C65.5961682,37.1666667 67.2267604,39.1843607 67.7906459,42.1787873 C67.9510682,43.0306848 68.0178407,43.9020051 68.0183122,44.746085 L89.999941,44.746085 C94.6965338,44.746085 98.5,40.9392941 98.5,36.2398546 L98.5,10.0062304 C98.5,5.30585553 94.6955306,1.5 89.9999362,1.5 L10.0000638,1.5 C5.30426945,1.5 1.5,5.30725921 1.5,10.0062304 L1.5,36.2398546 C1.5,40.9402371 5.30437487,44.746085 9.99983546,44.746085 L57.1243284,44.746085 Z" id="Rectangle-17" stroke="#006464" stroke-width="3"></path>
                <g id="tap" transform="translate(43.624161, 28.796421)" fill="#006464" stroke="#006464">
                    <g id="Capa_1">
                        <g id="Group">
                            <g transform="translate(0.000000, 7.835794)" id="Shape">
                                <path d="M13.7506075,36.5295287 C13.2495953,36.5295287 12.8429767,36.1283081 12.8429767,35.633947 L12.8429767,6.32872506 C12.8429767,2.87177998 15.5313793,0.0596536679 18.8387861,0.0596536679 C22.146193,0.0596536679 24.8345956,2.87177998 24.8345956,6.32872506 L24.8345956,25.3813286 C24.8345956,25.8756896 24.4279769,26.2769102 23.9269647,26.2769102 C23.4259525,26.2769102 23.0193339,25.8756896 23.0193339,25.3813286 L23.0193339,6.32872506 C23.0193339,3.86050209 21.1441685,1.85081692 18.8387861,1.85081692 C16.5334037,1.85081692 14.6582384,3.86050209 14.6582384,6.32872506 L14.6582384,35.633947 C14.6582384,36.1283081 14.2516198,36.5295287 13.7506075,36.5295287 Z"></path>
                                <path d="M17.480018,60.1350213 C17.2476645,60.1350213 17.015311,60.0472543 16.8374153,59.8735115 L3.41459654,41.7527061 C-0.67114094,36.2680188 -0.292257137,33.493507 2.04579996,31.1864887 C4.38385705,28.8776793 8.24673399,28.9385788 10.6592168,31.3190348 L14.3913949,35.0016664 C14.7453709,35.3509433 14.7453709,35.918742 14.3913949,36.2680188 C14.0374189,36.6172957 13.4619809,36.6172957 13.1080049,36.2680188 L9.37582678,32.5853872 C7.67129602,30.9052761 4.95929501,30.8443765 3.32918999,32.4528411 C1.72631389,34.0344383 1.34228188,35.7883671 4.69798658,40.4863537 L18.1208054,58.6071591 C18.4747814,58.9564359 18.4747814,59.5242347 18.1208054,59.8735115 C17.944725,60.0472543 17.7123715,60.1350213 17.480018,60.1350213 Z"></path>
                                <path d="M34.1033219,27.3014556 C33.6023097,27.3014556 33.195691,26.900235 33.195691,26.405874 L33.195691,21.8903514 C33.195691,19.8932044 31.3205257,18.2704105 29.0151433,18.2704105 C26.7079457,18.2704105 24.8327803,19.8949955 24.8327803,21.8903514 L24.8327803,26.405874 C24.8327803,26.900235 24.4261617,27.3014556 23.9251494,27.3014556 C23.4241372,27.3014556 23.0175186,26.900235 23.0175186,26.405874 L23.0175186,21.8903514 C23.0175186,18.9062734 25.7077365,16.4792472 29.0151433,16.4792472 C32.3225502,16.4792472 35.0109528,18.9062734 35.0109528,21.8903514 L35.0109528,26.405874 C35.0109528,26.900235 34.6043341,27.3014556 34.1033219,27.3014556 Z"></path>
                                <path d="M44.2760486,27.3014556 C43.7750363,27.3014556 43.3684177,26.900235 43.3684177,26.405874 L43.3684177,22.6372665 C43.3684177,21.0789544 41.4551319,19.7642406 39.1896852,19.7642406 C36.9242386,19.7642406 35.0091375,21.0807456 35.0091375,22.6372665 L35.0091375,26.405874 C35.0091375,26.900235 34.6025189,27.3014556 34.1015066,27.3014556 C33.6004944,27.3014556 33.1938758,26.900235 33.1938758,26.405874 L33.1938758,22.6372665 C33.1938758,20.065156 35.8822784,17.9730774 39.1896852,17.9730774 C42.4934616,17.9730774 45.1836794,20.065156 45.1836794,22.6372665 L45.1836794,26.405874 C45.1836794,26.900235 44.7788761,27.3014556 44.2760486,27.3014556 Z"></path>
                                <path d="M54.4524058,38.7971414 C53.9513935,38.7971414 53.5447749,38.3959208 53.5447749,37.9015597 L53.5447749,25.58373 C53.5447749,23.1155071 51.6696096,21.1058219 49.3642272,21.1058219 C46.900917,21.1058219 45.1836794,22.2664957 45.1836794,23.3071615 L45.1836794,26.4040828 C45.1836794,26.8984439 44.7770608,27.2996644 44.2760486,27.2996644 C43.7750363,27.2996644 43.3684177,26.8984439 43.3684177,26.4040828 L43.3684177,23.3071615 C43.3684177,21.0682075 46.0023625,19.3146586 49.3642272,19.3146586 C52.6698188,19.3146586 55.3600366,22.126785 55.3600366,25.58373 L55.3600366,37.9015597 C55.3600366,38.3959208 54.953418,38.7971414 54.4524058,38.7971414 Z"></path>
                                <path d="M47.1913589,60.639052 L17.7514443,60.639052 C17.2504321,60.639052 16.8093235,60.2378315 16.8093235,59.7434704 C16.8093235,59.2491094 17.1832674,58.8478888 17.6842797,58.8478888 L47.1895436,58.8478888 C50.6929987,58.8478888 53.5429596,56.0357625 53.5429596,52.5788174 L53.5429596,36.8716409 C53.5429596,36.3772798 53.9495783,35.9760592 54.4505905,35.9760592 C54.9516027,35.9760592 55.3582214,36.3772798 55.3582214,36.8716409 L55.3582214,52.5770262 C55.3600366,57.0226934 51.6950232,60.639052 47.1913589,60.639052 Z"></path>
                            </g>
                        </g>
                    </g>
                </g>
                <path d="M62.9199081,30.4744424 C63.5687893,30.4744424 64.0948498,29.9168313 64.0948498,29.2290334 L64.0948498,22.2547431 C64.0948498,21.5669452 63.5687893,21.0093341 62.9199081,21.0093341 C62.271027,21.0093341 61.7449664,21.5669452 61.7449664,22.2547431 L61.7449664,29.2290334 C61.7449664,29.9168313 62.271027,30.4744424 62.9199081,30.4744424" id="Fill-7" fill="#006464"></path>
                <path d="M53.1102647,33.1613866 C53.3280205,33.5610799 53.7228009,33.7844232 54.1288608,33.7844232 C54.3281309,33.7844232 54.5302209,33.7306215 54.715235,33.6173723 C55.2771705,33.2734734 55.4698609,32.5117813 55.1454203,31.9161437 L51.8571502,25.8784009 C51.532553,25.2825972 50.8141153,25.0785162 50.2521798,25.4224151 C49.6902444,25.7663141 49.4975539,26.5280062 49.8219945,27.1236438 L53.1102647,33.1613866 Z" id="Fill-9" fill="#006464" transform="translate(52.483707, 29.519894) rotate(-8.000000) translate(-52.483707, -29.519894) "></path>
                <path d="M42.8696637,36.1813553 L48.565781,39.6668399 C48.7507952,39.7800891 48.9527285,39.8338908 49.1521552,39.8338908 C49.5582151,39.8338908 49.9531522,39.6103814 50.1707514,39.2108542 C50.4951919,38.6152166 50.3026582,37.8535244 49.740566,37.5096255 L44.0444487,34.0241409 C43.4825132,33.6800759 42.7639189,33.884323 42.4394783,34.4801266 C42.1150378,35.0757642 42.3075715,35.8372903 42.8696637,36.1813553" id="Fill-13" fill="#006464" transform="translate(46.305115, 36.845453) rotate(-4.000000) translate(-46.305115, -36.845453) "></path>
                <path d="M76.3439463,39.8337808 C76.5432164,39.8337808 76.7453064,39.7799791 76.9303206,39.6667299 L82.6264379,36.1812453 C83.1883734,35.8373463 83.3810638,35.0756542 83.0566232,34.4800166 C82.7321827,33.884379 82.0134317,33.6801319 81.4516529,34.0240309 L75.7555355,37.5095155 C75.1936001,37.8534144 75.0009096,38.6151066 75.3253502,39.2107442 C75.5429494,39.6102714 75.9380431,39.8337808 76.3439463,39.8337808 Z" id="Fill-19" fill="#006464" transform="translate(79.190987, 36.845398) rotate(7.000000) translate(-79.190987, -36.845398) "></path>
                <path d="M71.0575489,33.6173723 C71.2425631,33.7306215 71.4444964,33.7844232 71.6439232,33.7844232 C72.049983,33.7844232 72.4449201,33.5609138 72.6625193,33.1613866 L75.9507895,27.1236438 C76.27523,26.5280062 76.0825396,25.7663141 75.5206042,25.4224151 C74.9588254,25.0785162 74.2400744,25.2825972 73.9156338,25.8784009 L70.6273636,31.9161437 C70.3029231,32.5117813 70.4956135,33.2734734 71.0575489,33.6173723 Z" id="Fill-23" fill="#006464" transform="translate(73.289077, 29.519894) rotate(8.000000) translate(-73.289077, -29.519894) "></path>
                <path d="" id="Path-16" stroke="#006464"></path>
                <path d="M11.4004474,10.7293065 L43.6152125,10.7293065" id="Path-15" stroke="#006464" stroke-width="3" stroke-linecap="round"></path>
                <path d="M51.2357128,10.7293065 L58.6182632,10.7293065" id="Path-17" stroke="#006464" stroke-width="3" stroke-linecap="round"></path>
            </g>
        </g>
    </g>
</svg>