<?xml version="1.0" encoding="UTF-8" standalone="no"?>
<svg width="113px" height="80px" viewBox="0 0 113 80" version="1.1" xmlns="http://www.w3.org/2000/svg" xmlns:xlink="http://www.w3.org/1999/xlink">
    <!-- Generator: Sketch 48 (47235) - http://www.bohemiancoding.com/sketch -->
    <title>UI</title>
    <desc>Created with Sketch.</desc>
    <defs></defs>
    <g id="產品-大腦-2配色-copy" stroke="none" stroke-width="1" fill="none" fill-rule="evenodd" transform="translate(-207.000000, -2594.000000)">
        <g id="04" transform="translate(0.000000, 2335.000000)" stroke="#006464">
            <g id="UI" transform="translate(209.000000, 261.000000)">
                <g id="ecommerce_creditcard">
                    <g id="Layer_1">
                        <rect id="Rectangle-path" stroke-width="3" x="0" y="0" width="109.294159" height="76.2286821"></rect>
                        <path d="M0,10.8898117 L109.294159,10.8898117" id="Shape" stroke-width="2"></path>
                        <path d="M8.81404509,65.3388704 L15.8652812,65.3388704" id="Shape" stroke-width="2"></path>
                        <path d="M19.3908992,65.3388704 L70.5123607,65.3388704" id="Shape" stroke-width="2"></path>
                    </g>
                </g>
                <g id="ecommerce_graph1" transform="translate(11.259843, 20.787402)" stroke-width="2.5">
                    <g id="Layer_1">
                        <path d="M29.0017539,18.0140442 C29.002291,25.6888371 22.5100744,31.9096809 14.5011455,31.9091662 C6.49167946,31.9096809 -1.96107995e-13,25.6883225 0.000537079462,18.0135295 C-1.96107995e-13,10.3387366 6.49221654,4.11737818 14.5011455,4.11789285 L14.5011455,18.0135295 L29.0017539,18.0140442 Z" id="Shape"></path>
                        <path d="M33.2989267,13.8961514 C33.2994638,6.22084376 26.8077843,-0.00102934454 18.7983183,0 L18.7983183,13.8961514 L33.2989267,13.8961514 Z" id="Shape"></path>
                    </g>
                </g>
                <g id="ecommerce_graph3" transform="translate(55.433071, 15.590551)" stroke-width="2.5">
                    <g id="Layer_1">
                        <ellipse id="Oval" cx="42.2795025" cy="18.1404292" rx="2.30546143" ry="2.25368309"></ellipse>
                        <ellipse id="Oval" cx="16.1509397" cy="2.5882122" rx="2.30546143" ry="2.25368309"></ellipse>
                        <ellipse id="Oval" cx="29.9837082" cy="28.6079359" rx="2.30546143" ry="2.25368309"></ellipse>
                        <ellipse id="Oval" cx="3.07572031" cy="21.3192236" rx="2.30546143" ry="2.25368309"></ellipse>
                        <path d="M4.12435245,19.851454 L14.1866332,4.69898865" id="Shape"></path>
                        <path d="M31.9247591,27.4178769 L41.1485164,19.1528957" id="Shape"></path>
                        <rect id="Rectangle-path" x="0" y="35.4269004" width="45.3235391" height="4.50736618"></rect>
                        <path d="M18.3146829,3.92292043 L28.6384727,26.4224368" id="Shape"></path>
                    </g>
                </g>
            </g>
        </g>
    </g>
</svg>