<svg height="85" viewBox="0 0 94 85" width="94" xmlns="http://www.w3.org/2000/svg"><path d="m683.4318 587.854709h-13.7596v-4.513035c0-.741141-.6714-1.341674-1.5-1.341674h-56.3444c-.8284 0-1.5.600533-1.5 1.341674v4.513035h-13.7596c-1.9676 0-3.5682 1.431478-3.5682 3.191397v58.891279c0 1.759919 1.6006 3.191575 3.5682 3.191575h32.7614v10.265956h-14.1478c-.8284 0-1.5.600533-1.5 1.341674s.6716 1.341675 1.5 1.341675h42.9958c.8286 0 1.5-.600534 1.5-1.341675s-.6714-1.341674-1.5-1.341674h-7.5072v-10.265956h6.1734c.8286 0 1.5-.600534 1.5-1.341675s-.6714-1.341674-1.5-1.341674h-60.2756c-.308 0-.5682-.232736-.5682-.508226v-58.891279c0-.275491.2602-.508227.5682-.508227h13.7596v48.991332h-9.6232c-.8284 0-1.5.600534-1.5 1.341674 0 .741141.6716 1.341675 1.5 1.341675h56.1394c.8286 0 1.5-.600534 1.5-1.341675 0-.74114-.6714-1.341674-1.5-1.341674h-11.7768v-10.965237c0-.741141-.6714-1.341674-1.5-1.341674h-23.7394c-.8284 0-1.5.600533-1.5 1.341674v10.965237h-5v-50.331217-4.514645h53.3446v12.225158c0 .741141.6714 1.341675 1.5 1.341675s1.5-.600534 1.5-1.341675v-6.370449h13.7596c.308 0 .5682.232736.5682.508227v58.891279c0 .27549-.2602.508226-.5682.508226h-3.932c-.8286 0-1.5.600533-1.5 1.341674s.6714 1.341675 1.5 1.341675h3.9318c1.9676 0 3.5682-1.431656 3.5682-3.191575v-58.891458c0-1.759919-1.6006-3.191397-3.5682-3.191397zm-35.7612 75.540034h-15.341v-10.265935h15.341zm-26.3428-33.489017h20.7394v9.623542h-20.7394zm53.6534-15.962493c-.0032-.01932-.0056-.038819-.0098-.057961-.0062-.028085-.0144-.055455-.0226-.083004-.0042-.013954-.0074-.028086-.012-.042039-.0096-.028623-.021-.056351-.0326-.084078-.0044-.010376-.0076-.021109-.0122-.031306l-.0074-.016637c-.0014-.002862-.0026-.005724-.0038-.008587l-5.3166-11.844455c-.2284-.508404-.7792-.841675-1.392-.841675s-1.1636.333271-1.392.841675l-5.3174 11.845529c-.0024.005188-.0108.023971-.0108.023971-.005.01127-.0086.023077-.0134.034526-.011.026654-.0222.053309-.0312.080679-.0048.014311-.0082.02898-.0124.04347-.008.027191-.0162.054025-.0222.081931-.0042.01932-.0066.038819-.01.058318-.004.023256-.0086.045975-.0112.069588-.0048.043649-.0074.087477-.0074.131484v45.826135c0 3.367596 3.063 6.107468 6.8282 6.107468 3.7648 0 6.828-2.739694 6.828-6.107468v-45.826135c0-.044007-.0026-.087835-.0074-.131484-.003-.023792-.0078-.04669-.0118-.069945zm-10.6372 1.542922h7.656v38.315636h-7.656zm3.828-9.610125 3.1094 6.926961h-6.2188zm0 57.518713c-2.1108 0-3.8282-1.536125-3.8282-3.424125v-3.485484h7.6562v3.485484c0 1.888-1.7172 3.424125-3.828 3.424125zm-48.3442-62.111345h40.3446c.8286 0 1.5-.600532 1.5-1.341671v-9.444474c0-.741139-.6714-1.341671-1.5-1.341671h-40.3446c-.8284 0-1.5.600532-1.5 1.341671v9.444474c0 .741139.6716 1.341671 1.5 1.341671zm1.5-9.444473h37.3446v6.76113h-37.3446zm38.8444 12.127817h-40.3444c-.8284 0-1.5.600532-1.5 1.341671 0 .74114.6716 1.341672 1.5 1.341672h40.3446c.8286 0 1.5-.600532 1.5-1.341672 0-.741139-.6716-1.341671-1.5002-1.341671zm-16.605 7.155581h-23.7394c-.8284 0-1.5.600533-1.5 1.341672s.6716 1.341672 1.5 1.341672h23.7394c.8286 0 1.5-.600533 1.5-1.341672s-.6714-1.341672-1.5-1.341672zm13.5656 0h-7.5656c-.8286 0-1.5.600533-1.5 1.341672s.6714 1.341672 1.5 1.341672h7.5656c.8286 0 1.5-.600533 1.5-1.341672s-.6714-1.341672-1.5-1.341672zm-13.5656 5.366687h-23.7394c-.8284 0-1.5.600532-1.5 1.341671 0 .74114.6716 1.341672 1.5 1.341672h23.7394c.8286 0 1.5-.600532 1.5-1.341672 0-.741139-.6714-1.341671-1.5-1.341671zm13.2768 0h-7.2768c-.8286 0-1.5.600532-1.5 1.341671 0 .74114.6714 1.341672 1.5 1.341672h7.2768c.8286 0 1.5-.600532 1.5-1.341672 0-.741139-.6716-1.341671-1.5-1.341671zm-13.2768 5.366686h-23.7394c-.8284 0-1.5.600532-1.5 1.341672 0 .741139.6716 1.341671 1.5 1.341671h23.7394c.8286 0 1.5-.600532 1.5-1.341671 0-.74114-.6714-1.341672-1.5-1.341672zm13.2768 0h-7.2768c-.8286 0-1.5.600532-1.5 1.341672 0 .741139.6714 1.341671 1.5 1.341671h7.2768c.8286 0 1.5-.600532 1.5-1.341671 0-.74114-.6716-1.341672-1.5-1.341672z" fill="#006464" fill-rule="evenodd" transform="translate(-593 -582)"/></svg>