<?xml version="1.0" encoding="UTF-8" standalone="no"?>
<svg width="88px" height="109px" viewBox="0 0 88 109" version="1.1" xmlns="http://www.w3.org/2000/svg" xmlns:xlink="http://www.w3.org/1999/xlink">
    <!-- Generator: Sketch 48 (47235) - http://www.bohemiancoding.com/sketch -->
    <title>Page 1</title>
    <desc>Created with Sketch.</desc>
    <defs></defs>
    <g id="產品-大腦-2配色-copy" stroke="none" stroke-width="1" fill="none" fill-rule="evenodd" transform="translate(-961.000000, -2581.000000)">
        <g id="04" transform="translate(0.000000, 2335.000000)" fill="#006464">
            <g id="3-items" transform="translate(120.000000, 235.000000)">
                <g id="Page-1" transform="translate(841.000000, 11.000000)">
                    <g id="Group-3" transform="translate(0.000000, 0.558483)">
                        <path d="M70.3827259,9.20675511 C70.1513185,9.08463773 69.9166519,8.98694382 69.7080593,8.84773 C66.5620593,6.74893926 63.1105037,5.33237762 59.4250963,4.5882757 C49.0565778,2.49518377 39.0115407,3.6707671 29.3682074,7.96522839 C24.3831704,10.1853224 19.9644296,13.2797769 16.9960593,17.9495456 C14.1352444,22.4499782 12.3980593,27.4722591 11.0030963,32.6093303 C10.3528741,35.0052733 10.2355407,37.3857482 11.5319111,39.5496682 C12.6759111,41.459584 12.2823556,42.9884937 10.9362815,44.5019351 C10.8059111,44.648476 10.6991704,44.8153697 10.5899852,44.979007 C8.38346667,48.2664069 6.16635556,51.5472939 3.97857778,54.8469056 C2.81013333,56.6094665 3.58176296,57.6906124 4.92783704,58.6651091 C5.32057778,58.9500497 5.7670963,59.1918421 6.22502222,59.3489665 C7.1205037,59.6558881 8.03798519,59.900937 8.95302222,60.1500565 C9.69531852,60.3519572 9.84035556,60.8290291 9.65131852,61.5031171 C9.36368889,62.5329737 9.05976296,63.5595738 8.81287407,64.6000139 C8.59042963,65.5370613 9.09561481,66.518885 9.96013333,67.0236369 C10.2819852,67.2108835 10.5736889,67.4502336 10.8694667,67.6586473 C9.53317037,69.8901389 9.62361481,70.530034 11.3445037,72.4033146 C11.5856889,72.6662741 11.7494667,73.1018261 11.7543556,73.4600371 C11.7633185,74.1398238 11.6850963,74.8334505 11.545763,75.5010256 C11.1774667,77.2644006 11.1660593,79.0171921 11.6500593,80.7512589 C12.1813185,82.6546618 13.309837,84.0362165 15.3362815,84.4107098 C16.7801333,84.6777398 18.2516889,84.7998572 19.711837,84.9765203 C22.4365778,85.3054231 25.1914667,85.4780157 27.8787259,85.9990499 C30.1520593,86.4403007 31.6179111,88.0375961 32.0416148,90.3399158 C32.2640593,91.5456214 32.1516148,92.8123857 32.1956148,94.0514701 C32.3080593,97.2501314 32.4196889,100.448793 32.5386519,103.64664 C32.5736889,104.582059 32.9786519,104.935385 34.0053185,104.929687 C42.8533926,104.883282 51.7014667,104.896308 60.5495407,104.911776 C62.1139852,104.914218 63.6784296,105.059131 65.2428741,105.05506 C67.1927259,105.050176 69.1425778,104.953296 71.0924296,104.909334 C71.9382074,104.890609 72.1154878,104.881654 73.1315619,104.881654 C73.1315619,101.400137 73.1954667,98.3369761 72.9640593,95.1350583 C72.6242815,90.4335391 72.4344296,85.7206222 72.0107259,81.0272442 C71.5560593,75.9805398 72.7245037,71.3702016 75.1640593,66.9878158 C76.7228,64.1872571 78.1739852,61.3248257 79.6390222,58.4721636 C81.747763,54.3657631 83.0922074,49.9793068 83.9355407,45.4731753 C84.3405037,43.306813 84.3290963,41.0264744 84.2296889,38.810451 C84.1001333,35.9097561 83.8785037,32.9887083 83.375763,30.1319756 C82.2268741,23.6052086 79.5053926,17.79812 74.8430222,12.9891375 C74.2539111,12.3818071 73.6159111,11.8216953 73.0691704,11.3047317 L70.3827259,9.20675511 Z M71.9088741,10.3180233 C71.5022815,10.1348472 71.1576148,9.81571379 70.6662815,9.47459923 L71.9088741,10.3180233 Z M5.66768889,62.9481728 C4.5628,62.3147906 3.53939259,61.8474881 2.65205926,61.1961954 C-0.0938666667,59.1796303 -0.806014815,56.2300885 0.980059259,53.3424195 C3.21591111,49.7277449 5.66035556,46.2408866 8.05346667,42.7255342 C8.51302222,42.0498181 8.72976296,41.5141298 8.31583704,40.6983857 C6.84754074,37.8025755 6.89724444,34.7748785 7.72183704,31.7097322 C9.15591111,26.3797155 11.0308,21.1946115 13.859837,16.4588994 C17.9330963,9.63986476 24.1827259,5.47077732 31.5592444,2.86316415 C38.0256148,0.577126749 44.7551704,0.206704023 51.523837,0.260435671 C57.503763,0.307654392 63.2253926,1.56546343 68.5828,4.28135402 C76.8075407,8.45125557 82.1714667,15.0814153 85.1854667,23.6980178 C86.6993926,28.0258579 87.3716148,32.5067517 87.5940593,37.0763841 C88.0528,46.5005896 85.4942815,55.1473144 80.9810222,63.3185955 C79.6691704,65.6949998 78.4314667,68.113738 77.2043556,70.5357328 C75.7710963,73.3647855 75.0988741,76.3517767 75.3343556,79.5479956 C75.6285037,83.5298364 75.8428,87.517376 76.075837,91.5041015 C76.1670963,93.0558064 76.1605778,94.6156524 76.2974667,96.1632867 C76.5712444,99.2699529 76.2897841,102.370106 76.5953397,105.473516 C76.6817101,106.345434 76.7428212,107.093607 76.5521545,107.590217 C76.3223767,108.086828 75.9931915,108.249651 75.6452656,108.250465 C72.3028952,108.253722 69.5890963,108.27326 66.2467259,108.24558 C63.9489481,108.226042 61.6519852,108.084386 59.3550222,108.092527 C49.9895407,108.127534 40.6240593,108.18615 31.2593926,108.277331 C30.3435407,108.286286 29.6240593,107.740829 29.5319852,106.402422 C29.1066519,100.250148 29.1856889,98.4867734 29.0235407,93.299227 C28.9127259,89.7480535 28.3985778,89.1602619 24.8712444,88.7727427 C22.2027259,88.479661 19.5154667,88.3575436 16.8412444,88.1116806 C11.1310222,87.5882041 7.96791111,84.1567056 7.92961481,78.4114899 C7.92228148,77.2432336 8.15042963,76.0741632 8.21235556,74.9026504 C8.2310963,74.5501382 8.15368889,74.1121439 7.94998519,73.8418574 C6.85405926,72.3821476 6.34887407,70.7881087 6.62020741,68.9628609 C6.65198519,68.7536331 6.64057778,68.4809043 6.52976296,68.3164529 C5.40368889,66.637746 5.1290963,64.8263381 5.66768889,62.9481728 L5.66768889,62.9481728 Z" id="Fill-1"></path>
                    </g>
                    <g id="Layer_1-Copy" transform="translate(51.007407, 36.340741) scale(-1, 1) translate(-51.007407, -36.340741) translate(29.007407, 14.340741)" stroke="#006464" stroke-linecap="round" stroke-linejoin="round" stroke-width="0.5">
                        <g id="Group">
                            <path d="M31.2014053,33.8171754 C31.0752571,34.1358795 30.7148337,34.2815727 30.4084738,34.1540911 L28.3720814,33.2981431 C28.011658,33.143344 27.5971711,33.2708256 27.380917,33.5986355 C26.4618373,34.9918275 25.2904611,36.1755854 23.9118415,37.1043801 C23.5874605,37.32292 23.4613123,37.7417882 23.6144922,38.1060214 L24.4524767,40.163939 C24.5786249,40.4735372 24.4344555,40.8377704 24.119085,40.9652521 L21.902481,41.9031526 C21.596121,42.0306342 21.2356976,41.8849409 21.1095494,41.5662368 L20.2625544,39.5083192 C20.1093744,39.144086 19.7309298,38.9346519 19.3524852,39.0166044 C17.7305798,39.3444143 16.0816427,39.3444143 14.4507267,39.0166044 C14.0722821,38.9437578 13.6848269,39.144086 13.5406575,39.5083192 L12.6936625,41.5662368 C12.5675143,41.8758351 12.2070908,42.0306342 11.9007309,41.9031526 L9.68412688,40.9743579 C9.53094692,40.9106171 9.41380931,40.7922413 9.35073521,40.6374422 C9.28766111,40.4826431 9.28766111,40.3187381 9.35073521,40.163939 L10.1977303,38.1060214 C10.3509102,37.7417882 10.224762,37.32292 9.90038093,37.1043801 C8.52176133,36.1755854 7.35038521,34.9918275 6.43130547,33.5986355 C6.21505142,33.2708256 5.80056448,33.143344 5.44014106,33.2981431 L3.40374871,34.1540911 C3.08837822,34.2815727 2.73696538,34.1358795 2.61081718,33.8171754 L1.69173745,31.5771412 C1.56558925,31.267543 1.70975862,30.9033098 2.02512911,30.7758281 L4.06152146,29.9198801 C4.42194488,29.765081 4.62918835,29.3826361 4.54809308,29.0001913 C4.223712,27.3611418 4.223712,25.6947749 4.54809308,24.0466197 C4.62017777,23.6641748 4.42194488,23.2726241 4.06152146,23.1269308 L2.02512911,22.2709828 C1.87194916,22.207242 1.75481155,22.0888662 1.69173745,21.9340671 C1.62866335,21.779268 1.62866335,21.615363 1.69173745,21.4605639 L2.61081718,19.2205297 C2.67389128,19.0657306 2.79102889,18.9473548 2.94420885,18.883614 C3.0973888,18.8198732 3.25957934,18.8198732 3.4127593,18.883614 L5.44915164,19.739562 C5.80957507,19.8943611 6.224062,19.7668795 6.44031606,19.4390696 C7.35939579,18.0458776 8.53077192,16.8621197 9.90939152,15.933325 C10.2337726,15.7147851 10.3599208,15.2959169 10.2067408,14.9316837 L9.35974579,12.8737661 C9.2966717,12.718967 9.2966717,12.5550621 9.35974579,12.4002629 C9.42281989,12.2454638 9.53995751,12.127088 9.69313746,12.0633472 L11.9097415,11.1345526 C12.2161014,11.0070709 12.5765249,11.1527642 12.7026731,11.4714683 L13.5496681,13.5293859 C13.7208692,13.9482541 14.1984303,14.1485823 14.6129172,13.9755716 C15.0274041,13.8025608 15.225637,13.3199518 15.0544359,12.9010836 L14.2074408,10.843166 C13.7298798,9.68672556 12.4233449,9.14037575 11.2790005,9.61387892 L9.06239647,10.5426736 C8.51275075,10.7703193 8.08024264,11.2073992 7.84596741,11.7719607 C7.62070277,12.3274163 7.62070277,12.9466127 7.84596741,13.5111742 L8.44066606,14.9590012 C7.30533228,15.8058434 6.30515728,16.8165906 5.45816223,17.973031 L4.02547912,17.3720462 C3.4758334,17.1444004 2.86311358,17.1444004 2.30445727,17.3720462 C1.75481155,17.5996919 1.32230344,18.0367718 1.08802821,18.6013333 L0.16894848,20.8413675 C-0.05631616,21.3968231 -0.05631616,22.0160196 0.16894848,22.580581 C0.39421312,23.1360367 0.826721229,23.5731165 1.38537754,23.8098681 L2.81806065,24.4108529 C2.60180659,25.8313624 2.60180659,27.2518719 2.81806065,28.6723814 L1.38537754,29.2733662 C0.241033165,29.7559752 -0.299601971,31.0763205 0.16894848,32.232761 L1.08802821,34.4454777 C1.55657866,35.6019181 2.87212416,36.1482679 4.01646853,35.6747648 L5.44915164,35.07378 C6.2871361,36.2211146 7.28731111,37.2318617 8.43165548,38.0878097 L7.83695683,39.5356367 C7.61169219,40.0910924 7.61169219,40.7102888 7.83695683,41.2748503 C8.06222147,41.8303059 8.49472958,42.2673858 9.05338588,42.5041374 L11.2699899,43.432932 C12.4143343,43.9064352 13.7298798,43.3600854 14.1984303,42.203645 L14.7931289,40.755818 C16.1987803,40.9743579 17.6044316,40.9743579 19.010083,40.755818 L19.6047816,42.203645 C19.965205,43.0778047 20.8031895,43.6059428 21.6772163,43.6059428 C21.9655551,43.6059428 22.2538938,43.5513078 22.5332219,43.432932 L24.749826,42.5041374 C25.8941704,42.0215284 26.4348055,40.701183 25.9662551,39.5447426 L25.3715564,38.0969156 C26.5068902,37.2500734 27.5070652,36.2393262 28.3540602,35.0828858 L29.7867434,35.6838706 C30.9310877,36.1664796 32.2466332,35.6110239 32.7151837,34.4545835 L33.6342634,32.2145493 C33.859528,31.6590937 33.859528,31.0398972 33.6342634,30.4753357 C33.4089988,29.9198801 32.9764907,29.4828003 32.4178344,29.2460487 L30.381442,28.3901006 C29.9669551,28.2170899 29.489394,28.4174181 29.3181929,28.8362863 C29.1469918,29.2551545 29.3452247,29.7377635 29.7597116,29.9107743 L31.7961039,30.7667223 C31.9492839,30.8304631 32.0664215,30.9488389 32.1294956,31.103638 C32.1925697,31.2584371 32.1925697,31.4223421 32.1294956,31.5771412 L31.2014053,33.8171754 Z" id="Shape"></path>
                            <path d="M16.856553,20.8868966 C17.3070823,20.8868966 17.6675057,20.5135576 17.6675057,20.0582661 C17.6675057,19.6029746 17.2980717,19.2387414 16.8475424,19.2387414 C16.8475424,19.2387414 16.8475424,19.2387414 16.8385318,19.2387414 C14.9102665,19.256953 13.1081494,20.0218428 11.7565616,21.4059289 C10.4049737,22.7900151 9.66610571,24.6293928 9.68412688,26.5689346 C9.70214805,28.5175823 10.4590372,30.3387483 11.8286462,31.7046228 C13.1892447,33.0613915 14.9823512,33.7989637 16.8835848,33.7989637 L16.9376483,33.7989637 C18.8659136,33.7807521 20.6680307,33.0158624 22.0196186,31.6317762 C23.3712064,30.24769 24.1100744,28.4083123 24.0920533,26.4687705 C24.0920533,26.013479 23.7226192,25.6492458 23.27209,25.6492458 C23.27209,25.6492458 23.27209,25.6492458 23.2630794,25.6492458 C22.8125501,25.6492458 22.4521267,26.0225848 22.4521267,26.4778763 C22.4611373,27.9803383 21.8934704,29.4008478 20.8482424,30.4753357 C19.8030145,31.5498237 18.4063737,32.1417027 16.9196271,32.1508085 L16.8745742,32.1508085 C15.4058487,32.1508085 14.009208,31.5771412 12.96398,30.5299707 C11.9007309,29.4736944 11.3150429,28.0622908 11.3060323,26.5598288 C11.2970217,25.0573668 11.8646886,23.6368573 12.9099165,22.5623694 C13.9731656,21.4969872 15.3698064,20.8960025 16.856553,20.8868966 Z" id="Shape"></path>
                            <path d="M41.6596055,15.9295571 C42.6778017,15.9295571 43.5157861,15.0918207 43.5157861,14.0537561 L43.5157861,12.2963309 C43.5157861,11.2673721 42.6868123,10.4205299 41.6596055,10.4205299 L40.713494,10.4205299 C40.4702082,9.50994687 40.1187954,8.63578718 39.6502449,7.8253683 L40.3260388,7.14243104 C41.0468857,6.41396463 41.0468857,5.22110088 40.3260388,4.49263447 L39.0915886,3.24513574 C38.7401758,2.89000837 38.2716253,2.69878593 37.7850537,2.69878593 C37.2894715,2.69878593 36.820921,2.89000837 36.4785188,3.24513574 L35.8027248,3.928073 C34.9917721,3.45456983 34.1357665,3.09033663 33.234708,2.85358505 L33.234708,1.88836705 C33.234708,0.859408248 32.4057341,0.0125660456 31.3785273,0.0125660456 L29.6304737,0.0125660456 C28.6122775,0.0125660456 27.7742931,0.850302418 27.7742931,1.88836705 L27.7742931,2.85358505 C26.8732345,3.09944246 26.0082183,3.45456983 25.2062762,3.928073 L24.5304823,3.24513574 C24.1790694,2.89000837 23.710519,2.69878593 23.2239473,2.69878593 C22.7283651,2.69878593 22.2598147,2.89000837 21.9174124,3.24513574 L20.6829622,4.49263447 C19.9621154,5.22110088 19.9621154,6.41396463 20.6829622,7.14243104 L21.3587561,7.8253683 C20.8902057,8.64489301 20.5297823,9.50994687 20.295507,10.4205299 L19.340385,10.4205299 C18.3221888,10.4205299 17.4842043,11.2582663 17.4842043,12.2963309 L17.4842043,14.0628619 C17.4842043,15.0918207 18.3131782,15.9386629 19.340385,15.9386629 L20.295507,15.9386629 C20.5387928,16.849246 20.8902057,17.7234056 21.3587561,18.5338245 L20.6829622,19.2167618 C19.9621154,19.9452282 19.9621154,21.1380919 20.6829622,21.8665584 L21.9174124,23.1140571 C22.2688253,23.4691845 22.7373757,23.6604069 23.2239473,23.6604069 C23.7195296,23.6604069 24.18808,23.4691845 24.5304823,23.1140571 L25.2062762,22.4311198 C26.0172289,22.904623 26.8732345,23.2688562 27.7742931,23.5056078 L27.7742931,24.4708258 C27.7742931,25.4997846 28.603267,26.3466268 29.6304737,26.3466268 L31.3785273,26.3466268 C32.3967235,26.3466268 33.234708,25.5088904 33.234708,24.4708258 L33.234708,23.496502 C34.1357665,23.2506445 35.0007827,22.8955172 35.8027248,22.422014 L36.4785188,23.1049513 C36.8299316,23.4600786 37.2984821,23.6513011 37.7850537,23.6513011 C38.2806359,23.6513011 38.7491863,23.4600786 39.0915886,23.1049513 L40.3260388,21.8574525 C41.0468857,21.1289861 41.0468857,19.9361224 40.3260388,19.207656 L39.6502449,18.5247187 C40.1187954,17.705194 40.4792188,16.8401401 40.713494,15.9295571 L41.6596055,15.9295571 L41.6596055,15.9295571 Z M39.2627897,14.9461275 C39.0375251,16.1116737 38.5869958,17.2043733 37.9292231,18.1969088 C37.712969,18.5247187 37.7580219,18.9617985 38.0283395,19.2349735 L39.1636733,20.382308 C39.2537791,20.4733663 39.2537791,20.6099538 39.1636733,20.7010121 L37.9292231,21.9485108 C37.8751595,22.0031458 37.8120854,22.0122516 37.7760431,22.0122516 C37.7309902,22.0122516 37.6769267,22.0031458 37.6228631,21.9485108 L36.4875294,20.8011762 C36.2082012,20.5188955 35.7756931,20.4824722 35.4603226,20.7010121 C34.4781688,21.3657377 33.3968985,21.8119234 32.2435435,22.048675 C31.8650989,22.1215216 31.5857708,22.4675431 31.5857708,22.8590938 L31.5857708,24.4799316 C31.5857708,24.5983074 31.4866543,24.6984715 31.3695167,24.6984715 L29.6214631,24.6984715 C29.5043255,24.6984715 29.4052091,24.5983074 29.4052091,24.4799316 L29.4052091,22.8590938 C29.4052091,22.4675431 29.1258809,22.1306274 28.7474363,22.048675 C27.5940814,21.8210292 26.5128111,21.3657377 25.5306573,20.7010121 C25.3954985,20.6099538 25.2333079,20.5644247 25.080128,20.5644247 C24.8728845,20.5644247 24.6566305,20.6463771 24.5034505,20.8102821 L23.3681167,21.9576167 C23.3140532,22.0122516 23.2509791,22.0213575 23.2149368,22.0213575 C23.1698838,22.0213575 23.1158203,22.0122516 23.0617568,21.9576167 L21.8273066,20.7101179 C21.7372007,20.6190596 21.7372007,20.4824722 21.8273066,20.3914139 L22.9626404,19.2440793 C23.2419685,18.9617985 23.2780109,18.5247187 23.0617568,18.2060146 C22.4039841,17.2134792 21.9624654,16.1207795 21.7281901,14.9552333 C21.6561055,14.5727884 21.3137032,14.2905077 20.926248,14.2905077 L19.3223638,14.2905077 C19.2052262,14.2905077 19.1061097,14.1903436 19.1061097,14.0719678 L19.1061097,12.2963309 C19.1061097,12.1779551 19.2052262,12.077791 19.3223638,12.077791 L20.926248,12.077791 C21.3137032,12.077791 21.6470949,11.7955102 21.7281901,11.4130654 C21.9534548,10.2475191 22.4039841,9.1548195 23.0617568,8.16228401 C23.2780109,7.83447413 23.2329579,7.39739428 22.9626404,7.12421938 L21.8273066,5.97688478 C21.7732431,5.9222498 21.7642325,5.85850899 21.7642325,5.82208567 C21.7642325,5.77655652 21.7732431,5.72192154 21.8273066,5.66728656 L23.0527462,4.410682 C23.1068097,4.35604702 23.1698838,4.34694119 23.2059262,4.34694119 C23.2509791,4.34694119 23.3050426,4.35604702 23.3591061,4.410682 L24.4944399,5.5580166 C24.7737681,5.84029733 25.2062762,5.87672065 25.5216467,5.65818073 C26.5038005,4.99345513 27.5850708,4.54726945 28.7384257,4.31051787 C29.1168703,4.23767123 29.3961985,3.89164968 29.3961985,3.50009899 L29.3961985,1.88836705 C29.3961985,1.76999126 29.4953149,1.66982713 29.6124525,1.66982713 L31.3605061,1.66982713 C31.4776438,1.66982713 31.5767602,1.76999126 31.5767602,1.88836705 L31.5767602,3.50920482 C31.5767602,3.90075551 31.8560884,4.23767123 32.234533,4.3196237 C33.3878879,4.54726945 34.4691582,5.00256096 35.451312,5.66728656 C35.7756931,5.88582648 36.2082012,5.84029733 36.4785188,5.56712243 L37.6138526,4.41978783 C37.6679161,4.36515285 37.7309902,4.35604702 37.7670325,4.35604702 C37.8120854,4.35604702 37.866149,4.36515285 37.9202125,4.41978783 L39.1546627,5.66728656 C39.2447685,5.75834486 39.2447685,5.89493231 39.1546627,5.98599061 L38.0193289,7.13332521 C37.7400008,7.41560594 37.7039584,7.85268579 37.9202125,8.17138984 C38.5779852,9.16392533 39.0195039,10.2566249 39.2537791,11.4221712 C39.3258638,11.8046161 39.6682661,12.0868968 40.0557213,12.0868968 L41.6596055,12.0868968 C41.7767431,12.0868968 41.8758595,12.1870609 41.8758595,12.3054367 L41.8758595,14.0719678 C41.8758595,14.1903436 41.7767431,14.2905077 41.6596055,14.2905077 L40.0557213,14.2905077 C39.6682661,14.2814019 39.3348744,14.5545768 39.2627897,14.9461275 Z" id="Shape"></path>
                            <path d="M30.4954899,7.88000328 C27.603092,7.88000328 25.2603397,10.2566249 25.2603397,13.1704906 C25.2603397,16.0934621 27.6121025,18.4609779 30.4954899,18.4609779 C33.3878879,18.4609779 35.7306402,16.0843562 35.7306402,13.1704906 C35.7306402,10.2566249 33.3788773,7.88000328 30.4954899,7.88000328 Z M30.4954899,16.8128226 C28.5041505,16.8128226 26.8912557,15.182879 26.8912557,13.1704906 C26.8912557,11.1581021 28.5041505,9.52815853 30.4954899,9.52815853 C32.4868293,9.52815853 34.0997242,11.1581021 34.0997242,13.1704906 C34.0997242,15.182879 32.4778188,16.8128226 30.4954899,16.8128226 Z" id="Shape"></path>
                        </g>
                    </g>
                </g>
            </g>
        </g>
    </g>
</svg>