<?xml version="1.0" encoding="UTF-8" standalone="no"?>
<svg width="17px" height="24px" viewBox="0 0 17 24" version="1.1" xmlns="http://www.w3.org/2000/svg" xmlns:xlink="http://www.w3.org/1999/xlink">
    <!-- Generator: Sketch 48 (47235) - http://www.bohemiancoding.com/sketch -->
    <title>02_alarm</title>
    <desc>Created with Sketch.</desc>
    <defs></defs>
    <g id="產品-大腦-2配色-copy" stroke="none" stroke-width="1" fill="none" fill-rule="evenodd" transform="translate(-395.000000, -2182.000000)">
        <g id="功能" transform="translate(0.000000, 1510.000000)" fill="#0F9696" fill-rule="nonzero">
            <g id="3-items-copy" transform="translate(123.000000, 672.000000)">
                <g id="Group-19" transform="translate(272.333333, 0.000000)">
                    <g id="02_alarm">
                        <path d="M16.445869,19.522471 C15.1746217,18.5362665 14.4456548,17.0288317 14.4456548,15.3882192 L14.4456548,11.9439661 C14.4456548,9.05883006 12.5632309,6.61915079 10.0007342,5.86830361 L10.0007342,5.05545988 C10.0007342,4.10599411 9.25287628,3.33333333 8.33388895,3.33333333 C7.41490162,3.33333333 6.66704373,4.10599411 6.66704373,5.05545988 L6.66704373,5.86830361 C4.10454701,6.62029887 2.22212314,9.05883006 2.22212314,11.9439661 L2.22212314,15.3882192 C2.22212314,17.0288317 1.49315616,18.5351184 0.221908869,19.522471 C0.030777284,19.6705739 -0.0470088263,19.9288928 0.0285548237,20.163102 C0.104118474,20.3973113 0.316363432,20.5557469 0.555277914,20.5557469 L5.61137509,20.5557469 C5.57470449,20.7440327 5.55470235,20.9357628 5.55470235,21.1297891 C5.55470235,22.7118493 6.80150257,24 8.33277772,24 C9.86405286,24 11.1108531,22.7118493 11.1108531,21.1297891 C11.1108531,20.9369109 11.0919622,20.7440327 11.0552916,20.5557469 L16.1113888,20.5557469 C16.3503032,20.5557469 16.5625482,20.3973113 16.6381118,20.163102 C16.7136755,19.9288928 16.6358894,19.6705739 16.4447578,19.522471 L16.445869,19.522471 Z M7.55635922,4.96371577 C7.55635922,4.56801684 7.90469254,4.24686988 8.33388895,4.24686988 C8.76308536,4.24686988 9.11141868,4.56801684 9.11141868,4.96371577 L9.11141868,5.71353657 C8.85483387,5.6920312 8.596694,5.68056166 8.33388895,5.68056166 C8.0710839,5.68056166 7.81294403,5.6920312 7.55635922,5.71353657 L7.55635922,4.96371577 Z M10.3337004,21.2700267 C10.3337004,22.2679843 9.43645167,23.080107 8.33388895,23.080107 C7.23132622,23.080107 6.33407748,22.2679843 6.33407748,21.2700267 C6.33407748,21.0636776 6.37407371,20.8597419 6.44873334,20.6666667 L10.2190446,20.6666667 C10.2937042,20.8597419 10.3337004,21.0636776 10.3337004,21.2700267 Z M1.63498734,19.7030345 C1.93165746,19.3316174 2.18993498,18.9265443 2.40167601,18.4998354 C2.86471408,17.5646816 3.09855994,16.5538021 3.09855994,15.4960446 L3.09855994,11.8900533 C3.09855994,8.90789856 5.44748926,6.48106643 8.33391504,6.48106643 C11.2203408,6.48106643 13.5692701,8.90789856 13.5692701,11.8900533 L13.5692701,15.4960446 C13.5692701,16.5538021 13.8042794,17.5646816 14.2661541,18.4998354 C14.4778951,18.9277463 14.7361726,19.3316174 15.0328427,19.7030345 L1.63382393,19.7030345 L1.63498734,19.7030345 Z" id="Shape"></path>
                        <path d="M4.74538923,2.47187016 C4.82584566,2.5968369 4.9717091,2.66666667 5.12174008,2.66666667 C5.19536639,2.66666667 5.27003458,2.64984522 5.33839361,2.61443711 C5.54601749,2.50691484 5.61721274,2.26876677 5.49733846,2.08253674 L4.28238855,0.194796603 C4.16245638,0.0085146557 3.89700806,-0.0552926222 3.68938417,0.05222965 C3.48176029,0.159751922 3.41056503,0.397899997 3.53043932,0.584130026 L4.74538923,2.47187016 Z" id="Shape"></path>
                        <path d="M0.202913121,4.11111083 L2.16930902,5.27743427 C2.23317903,5.31533006 2.30288982,5.33333333 2.37173531,5.33333333 C2.51191403,5.33333333 2.64825297,5.25854194 2.72337189,5.12485093 C2.83537426,4.92553687 2.76890835,4.67065714 2.57486466,4.55558063 L0.608468755,3.38925719 C0.414479148,3.27412512 0.166408246,3.3424709 0.0544058835,3.54184053 C-0.0575964794,3.74115459 0.0088694327,3.99597876 0.202913121,4.11111083 Z" id="Shape"></path>
                        <path d="M14.294923,5.33333333 C14.363715,5.33333333 14.4334805,5.31532972 14.497351,5.27743324 L16.4637636,4.11108833 C16.6577549,3.99600971 16.7242754,3.74112528 16.6122721,3.54180755 C16.5002688,3.34248982 16.2521417,3.27414279 16.0582045,3.38922141 L14.0917919,4.55556632 C13.8978007,4.67064494 13.8312801,4.92552937 13.9432834,5.1248471 C14.018403,5.25854056 14.1547972,5.33333333 14.294923,5.33333333 Z" id="Shape"></path>
                        <path d="M11.3282731,2.61443711 C11.3966321,2.64984522 11.4712424,2.66666667 11.5449266,2.66666667 C11.6949576,2.66666667 11.8408789,2.59678498 11.9212774,2.47187016 L13.1362273,0.584130026 C13.2561016,0.397899997 13.1849064,0.159751922 12.9772825,0.05222965 C12.7697165,-0.0552926222 12.5041524,0.0085146557 12.3842781,0.194796603 L11.1693282,2.08253674 C11.0494539,2.26876677 11.1206492,2.50691484 11.3282731,2.61443711 Z" id="Shape"></path>
                    </g>
                </g>
            </g>
        </g>
    </g>
</svg>