<?xml version="1.0" encoding="UTF-8" standalone="no"?>
<svg width="24px" height="22px" viewBox="0 0 24 22" version="1.1" xmlns="http://www.w3.org/2000/svg" xmlns:xlink="http://www.w3.org/1999/xlink">
    <!-- Generator: Sketch 48 (47235) - http://www.bohemiancoding.com/sketch -->
    <title>03_analysis</title>
    <desc>Created with Sketch.</desc>
    <defs></defs>
    <g id="產品-大腦-2配色-copy" stroke="none" stroke-width="1" fill="none" fill-rule="evenodd" transform="translate(-667.000000, -2183.000000)">
        <g id="功能" transform="translate(0.000000, 1510.000000)" fill="#0F9696" fill-rule="nonzero">
            <g id="3-items-copy" transform="translate(123.000000, 672.000000)">
                <g id="Group-18" transform="translate(544.666667, 0.000000)">
                    <g id="03_analysis" transform="translate(0.000000, 1.000000)">
                        <path d="M14.9525908,4.9016105 C12.22266,2.36612983 7.78074318,2.36612983 5.05076797,4.9016105 C3.72832797,6.12983321 3,7.76292597 3,9.49996906 C3,11.2370122 3.72832797,12.8701049 5.05072355,14.0983276 C6.41566675,15.366068 8.20866195,16 10.0016127,16 C11.794608,16 13.5875587,15.3661092 14.9525463,14.0983276 C17.6824771,11.5627645 17.6824771,7.43717367 14.9525908,4.9016105 Z M14.4437516,13.6257249 C11.9944218,15.9007934 8.0088925,15.9006697 5.55956272,13.6257249 C4.37298194,12.5237688 3.7195342,11.0584816 3.7195342,9.49996906 C3.7195342,7.94145654 4.37302635,6.47621057 5.55951831,5.37417202 C6.78420541,4.23669961 8.39293128,3.66798403 10.0016572,3.66798403 C11.610383,3.66798403 13.2190645,4.23674086 14.443796,5.37421327 C16.8931702,7.6491581 16.8931702,11.35078 14.4437516,13.6257249 Z" id="Shape"></path>
                        <path d="M22.8934462,19.8306712 L20.1482981,17.2053992 C20.0060916,17.0695315 19.7756855,17.0695315 19.6335239,17.2053992 L19.0673486,17.7468506 L17.1062461,15.8713862 C18.811242,14.1190278 19.7464804,11.8505268 19.7464804,9.44431033 C19.7464804,6.9216911 18.7192234,4.54997871 16.8540036,2.76616706 C14.9887389,0.982398369 12.5087735,0 9.87092062,0 C7.2330228,0 4.75310231,0.982398369 2.88783762,2.76616706 C-0.962612541,6.44851738 -0.962612541,12.4401033 2.88783762,16.1224536 C4.75305738,17.9061793 7.2330228,18.8885777 9.87092062,18.8885777 C12.3870555,18.8885777 14.7590518,17.9941797 16.591427,16.3636381 L18.5525294,18.2391025 L17.9863542,18.7805538 C17.8442375,18.9165505 17.8442375,19.1368951 17.9863542,19.2728058 L20.7315022,21.8980777 C20.802583,21.9660116 20.8957699,22 20.9889118,22 C21.0820537,22 21.1751957,21.9660116 21.2463214,21.8980777 L22.8934462,20.3228802 C23.0355179,20.1870124 23.0355179,19.9666249 22.8934462,19.8306712 Z M16.3392294,15.6301587 C14.6114984,17.2825284 12.3143122,18.1924812 9.87092062,18.1924812 C7.42752902,18.1924812 5.13029789,17.2825284 3.40256693,15.6301587 C-0.16409917,12.219243 -0.16409917,6.66933465 3.40256693,3.25846195 C5.13034282,1.60609221 7.42752902,0.696139438 9.87092062,0.696139438 C12.3143122,0.696139438 14.6114984,1.60609221 16.3392294,3.25846195 C18.0670502,4.91078871 19.0185536,7.10766058 19.0185536,9.44431033 C19.0185536,11.7809601 18.0670502,13.9778749 16.3392294,15.6301587 Z M20.9889567,21.1597858 L18.7584931,19.0267228 L19.324219,18.4857011 C19.3243538,18.4855722 19.3245785,18.4854433 19.3247133,18.4852714 C19.3248481,18.4851425 19.3249828,18.4849277 19.3251626,18.4847988 L19.8908885,17.9437771 L22.1213522,20.0768401 L20.9889567,21.1597858 Z" id="Shape"></path>
                        <path d="M15.603599,11.2446496 L15.1542402,11.2446496 L15.1542402,5.37772183 C15.1542402,5.16906793 14.9767677,5 14.7577903,5 L12.854684,5 C12.6356577,5 12.4581851,5.16906793 12.4581851,5.37772183 L12.4581851,11.2446496 L11.3480765,11.2446496 L11.3480765,7.19065604 C11.3480765,6.98200214 11.170555,6.81298084 10.9515776,6.81298084 L9.04852025,6.81298084 C8.82954286,6.81298084 8.65202141,6.98204877 8.65202141,7.19065604 L8.65202141,11.2446496 L7.54191275,11.2446496 L7.54191275,6.58632909 C7.54191275,6.3776752 7.36439129,6.20860726 7.14541391,6.20860726 L5.24235651,6.20860726 C5.02337912,6.20860726 4.84585767,6.3776752 4.84585767,6.58632909 L4.84585767,11.244603 L4.39649884,11.244603 C4.17752145,11.244603 4,11.4136709 4,11.6222782 C4,11.8308854 4.17752145,12 4.39649884,12 L5.24230757,12 L7.14536496,12 L9.0484713,12 L10.9515287,12 L12.8545861,12 L14.7576924,12 L15.6035012,12 C15.8225275,12 16,11.8309321 16,11.6222782 C16,11.4136243 15.8226254,11.2446496 15.603599,11.2446496 Z M6.74901295,11.2446496 L5.6389043,11.2446496 L5.6389043,6.96405092 L6.74901295,6.96405092 L6.74901295,11.2446496 Z M10.5551767,11.2446496 L9.44506803,11.2446496 L9.44506803,7.56837786 L10.5551767,7.56837786 L10.5551767,11.2446496 Z M14.3613404,11.2446496 L13.2512318,11.2446496 L13.2512318,5.75539703 L14.3613404,5.75539703 L14.3613404,11.2446496 Z" id="Shape"></path>
                    </g>
                </g>
            </g>
        </g>
    </g>
</svg>