<?xml version="1.0" encoding="UTF-8" standalone="no"?>
<svg width="17px" height="24px" viewBox="0 0 17 24" version="1.1" xmlns="http://www.w3.org/2000/svg" xmlns:xlink="http://www.w3.org/1999/xlink">
    <!-- Generator: Sketch 48 (47235) - http://www.bohemiancoding.com/sketch -->
    <title>04_levelup</title>
    <desc>Created with Sketch.</desc>
    <defs></defs>
    <g id="產品-大腦-2配色-copy" stroke="none" stroke-width="1" fill="none" fill-rule="evenodd" transform="translate(-940.000000, -2182.000000)">
        <g id="功能" transform="translate(0.000000, 1510.000000)" fill="#0F9696" fill-rule="nonzero">
            <g id="3-items-copy" transform="translate(123.000000, 672.000000)">
                <g id="Group-17" transform="translate(817.000000, 0.000000)">
                    <g id="04_levelup">
                        <path d="M15,11.1087112 C15,9.4606924 14.3651497,7.91579548 13.2123776,6.75858477 C12.0598106,5.60163513 10.5322004,4.97684682 8.91330383,5.00065624 C7.3444609,5.02326474 5.86639147,5.66418706 4.75136474,6.80536819 C3.63638928,7.9464971 3.01451392,9.45474005 3.00025684,11.0521639 C2.98805114,12.421623 3.41109665,13.7196539 4.22364764,14.8060107 C5.54273524,16.5695783 6.26923091,17.5782977 6.26923091,19.7372791 L6.26923091,22.0996327 C6.26923091,23.147508 7.10655229,24 8.13578013,24 L9.87196424,24 C10.9011921,24 11.7385135,23.1474558 11.7385135,22.0996327 L11.7385135,19.7374358 C11.7385647,17.5545927 12.440649,16.5992356 13.7836865,14.7962467 C14.5794161,13.7279558 15,12.4528468 15,11.1087112 Z M3.76947246,11.0593172 C3.7950634,8.19096132 6.10742844,5.82437848 8.92417613,5.78380849 C10.3372169,5.76448945 11.6675358,6.30777228 12.6722496,7.316383 C13.6772712,8.32520257 14.2307331,9.67205318 14.2307331,11.1087635 C14.2307331,12.2805418 13.8642031,13.3920133 13.1707346,14.3230346 C11.7556425,16.2228276 10.9937092,17.2876766 10.9625283,19.5901411 L7.03742084,19.5901411 C7.00526548,17.3100241 6.22625453,16.190664 4.83567639,14.3315454 C4.12754056,13.3848079 3.75885658,12.2532863 3.76947246,11.0593172 Z M7.03849781,21.8342308 L7.03849781,21.5171896 L10.9692978,21.9756775 L10.9692978,22.0996327 C10.9692978,22.1648997 10.9626309,22.2284959 10.9520663,22.2906824 L7.03849781,21.8342308 Z M7.03849781,20.3733456 L10.9692978,20.3733456 L10.9692978,21.1873561 L7.03849781,20.7288682 L7.03849781,20.3733456 Z M7.1751709,22.6384774 L10.4864546,23.0247016 C10.3110105,23.1458894 10.0995134,23.2167955 9.87201553,23.2167955 L8.13578013,23.2167955 C7.72258123,23.2168477 7.36230789,22.9829307 7.1751709,22.6384774 Z" id="Shape"></path>
                        <path d="M11.8189853,12.0381185 C11.6671499,11.9363485 11.4910064,12.0453833 11.4256262,12.281584 C11.3307889,12.6242117 11.2080513,12.9510056 11.060846,13.2529004 C10.9609396,13.4578064 10.9867644,13.7499526 11.1184828,13.9053707 C11.1725672,13.969202 11.2361113,14 11.2991366,14 C11.3896232,14 11.479032,13.9364791 11.5379062,13.8156467 C11.7142891,13.4538325 11.8614944,13.0616548 11.9754908,12.6500422 C12.0409109,12.4138415 11.9708607,12.1398264 11.8189853,12.0381185 Z" id="Shape"></path>
                        <path d="M8.38463905,7.7127787 C10.5053849,7.7127787 12.2307219,9.31144628 12.2307219,11.2764346 C12.2307219,11.3881508 12.2251831,11.5007223 12.2142593,11.6110129 C12.1948735,11.807027 12.3505754,11.9804699 12.5621269,11.9984794 C12.5740764,11.9994773 12.5859232,12 12.5977188,12 C12.794295,12 12.9619977,11.8611032 12.9803065,11.6761609 C12.9933329,11.5442968 13,11.4098192 13,11.2764346 C13,8.9184201 10.9295649,7 8.38463905,7 C8.17221573,7 8,7.15956739 8,7.35638935 C8,7.55321131 8.17221573,7.7127787 8.38463905,7.7127787 Z" id="Shape"></path>
                        <path d="M8.5,3.18181818 C8.66187126,3.18181818 8.79310345,2.99437002 8.79310345,2.76315789 L8.79310345,0.418660287 C8.79310345,0.187448166 8.66187126,0 8.5,0 C8.33812874,0 8.20689655,0.187448166 8.20689655,0.418660287 L8.20689655,2.76315789 C8.20689655,2.99437002 8.33812874,3.18181818 8.5,3.18181818 Z" id="Shape"></path>
                        <path d="M4.59196994,3.6322397 C4.65988626,3.75152613 4.78301513,3.81818182 4.90966197,3.81818182 C4.97181273,3.81818182 5.03484299,3.80212498 5.09254743,3.76832634 C5.26781063,3.66569144 5.32790924,3.43836828 5.22671881,3.26060325 L4.2011335,1.45866948 C4.09989421,1.2808549 3.87581921,1.21994795 3.70055602,1.32258285 C3.52529282,1.42521774 3.46519421,1.65254091 3.56638464,1.83030593 L4.59196994,3.6322397 Z" id="Shape"></path>
                        <path d="M0.171286662,5.83333306 L1.83119603,6.9466418 C1.88511113,6.98281505 1.94395665,7 2.00207174,7 C2.12040191,7 2.23549079,6.92860822 2.29890152,6.80099407 C2.39344696,6.61073974 2.33734056,6.36744545 2.17354092,6.2575997 L0.513631556,5.14429096 C0.349877571,5.03439216 0.140471513,5.09963131 0.0459260699,5.28993869 C-0.0486193729,5.48019302 0.00748702457,5.72343427 0.171286662,5.83333306 Z" id="Shape"></path>
                        <path d="M14.9979212,7 C15.0559911,7 15.1148828,6.98281474 15.1687984,6.94664082 L16.8287218,5.83331159 C16.9924772,5.72346381 17.0486297,5.48016504 16.9540835,5.28990721 C16.8595373,5.09964938 16.6500838,5.03440902 16.486374,5.1442568 L14.8264506,6.25758603 C14.6626952,6.36743381 14.6065427,6.61073258 14.7010889,6.80099041 C14.7645002,6.9286069 14.8796357,7 14.9979212,7 Z" id="Shape"></path>
                        <path d="M12.4936595,3.76832634 C12.5513639,3.80212498 12.6143453,3.81818182 12.6765449,3.81818182 C12.8031918,3.81818182 12.9263695,3.75147657 12.994237,3.6322397 L14.0198223,1.83030593 C14.1210127,1.65254091 14.0609141,1.42521774 13.8856509,1.32258285 C13.7104365,1.21994795 13.4862638,1.2808549 13.3850734,1.45866948 L12.3594881,3.26060325 C12.2582977,3.43836828 12.3183963,3.66569144 12.4936595,3.76832634 Z" id="Shape"></path>
                    </g>
                </g>
            </g>
        </g>
    </g>
</svg>