<?xml version="1.0" encoding="UTF-8" standalone="no"?>
<svg width="29px" height="22px" viewBox="0 0 29 22" version="1.1" xmlns="http://www.w3.org/2000/svg" xmlns:xlink="http://www.w3.org/1999/xlink">
    <!-- Generator: Sketch 48 (47235) - http://www.bohemiancoding.com/sketch -->
    <title>01_QA</title>
    <desc>Created with Sketch.</desc>
    <defs></defs>
    <g id="產品-大腦-2配色-copy" stroke="none" stroke-width="1" fill="none" fill-rule="evenodd" transform="translate(-123.000000, -2182.000000)">
        <g id="功能" transform="translate(0.000000, 1510.000000)" fill="#0F9696" fill-rule="nonzero">
            <g id="3-items-copy" transform="translate(123.000000, 672.000000)">
                <g id="Group-20">
                    <g id="01_QA">
                        <path d="M0.461696769,17.53743 C0.254006387,17.53743 0.0721619189,17.3826971 0.0167778169,17.1588501 C-0.038606285,16.9350031 0.0463160046,16.697746 0.224468199,16.5791174 C1.78537681,15.5331228 2.43244773,14.0115823 2.66229175,13.2998109 C0.965692097,11.848416 0.000162586354,9.83998263 0.000162586354,7.73767792 C0.000162586354,6.67621004 0.238314225,5.64775185 0.709079091,4.68015528 C1.15769032,3.75794703 1.79829976,2.9316732 2.61152299,2.22402794 C4.26104616,0.790169482 6.44779512,0 8.76931206,0 C11.090829,0 13.277578,0.790169482 14.9271011,2.22402794 C15.7403244,2.93064164 16.3809338,3.75691548 16.829545,4.68015528 C17.3003099,5.6467203 17.5384615,6.67517849 17.5384615,7.73767792 C17.5384615,8.80017735 17.3003099,9.82760399 16.829545,10.7952006 C16.3809338,11.7174088 15.7403244,12.5436826 14.9271011,13.2513279 C13.277578,14.6851864 11.090829,15.4753558 8.76931206,15.4753558 C7.81578244,15.4753558 6.87979112,15.3422855 5.98533787,15.078208 C5.58934154,15.3732321 4.84904071,15.8962294 3.96474122,16.3882801 C2.59121549,17.1516292 1.41338025,17.5384615 0.462619838,17.5384615 L0.461696769,17.53743 Z M8.76931206,1.0325844 C4.44289063,1.0325844 0.923230952,4.04059251 0.923230952,7.73767792 C0.923230952,9.60994634 1.85091466,11.4120692 3.46720737,12.6808792 C3.62597513,12.8056971 3.69797446,13.0274809 3.64812877,13.2368862 C3.54012977,13.6866432 3.17274856,14.921412 2.18968075,16.1128555 C3.39151576,15.6424674 4.68565761,14.8265091 5.64103337,14.0920435 C5.75457078,14.0043615 5.89672331,13.9785727 6.02964515,14.0208663 C6.90471396,14.3004171 7.82685926,14.4427714 8.76931206,14.4427714 C13.0957335,14.4427714 16.6153932,11.4347633 16.6153932,7.73767792 C16.6153932,4.04059251 13.0957335,1.0325844 8.76931206,1.0325844 Z" id="Shape"></path>
                        <path d="M22.4225321,9.81706655 C20.5643585,9.81706655 18.834107,10.6719811 17.7062304,12.1010382 L17.5445048,10.3544193 C17.5445048,10.1888359 17.4099764,10.0544493 17.2442182,10.0544493 C17.07846,10.0544493 16.9439316,10.1888359 16.9439316,10.3544193 L17.1056572,13.0999383 C17.1056572,13.2373245 17.198746,13.3567126 17.3320733,13.3909092 C17.3903289,13.4059077 17.4491851,13.402308 17.5026361,13.3843098 L20.042857,12.9521392 C20.1996066,12.8987446 20.2836868,12.7283616 20.2302358,12.5717773 C20.1767848,12.4151929 20.006222,12.3312013 19.8494724,12.384596 L18.1278328,12.5383944 C19.1416005,11.2137269 20.7223093,10.4182064 22.4231327,10.4182064 C25.4037777,10.4182064 27.8282919,12.8401642 27.8282919,15.8176665 C27.8282919,18.7951687 25.4037777,21.2171265 22.4231327,21.2171265 C20.4316318,21.2171265 18.6070903,20.1282354 17.661788,18.3752107 C17.5831129,18.2294253 17.4011392,18.1748308 17.2551999,18.2534229 C17.1092606,18.3320151 17.0546084,18.5137969 17.1332835,18.6595823 C18.1836861,20.6069876 20.2112214,21.8170665 22.4237333,21.8170665 C24.0278644,21.8170665 25.5359038,21.1931289 26.6703867,20.0598423 C27.8048695,18.9265556 28.4294657,17.4201062 28.4294657,15.8176665 C28.4294657,14.2152267 27.8048695,12.7087774 26.6703867,11.5754907 C25.5347027,10.4410042 24.0266632,9.81706655 22.4225321,9.81706655 Z" id="Shape" stroke="#0F9696" stroke-width="0.5" transform="translate(22.686699, 15.817067) rotate(33.000000) translate(-22.686699, -15.817067) "></path>
                        <path d="M22.4005259,17.8575034 L19.6180926,16.5415728 C19.4690779,16.4710389 19.4152842,16.3110218 19.4981388,16.1836397 C19.5809935,16.0562576 19.7689623,16.0109896 19.9185954,16.0815235 L22.5402659,17.3211301 L25.4264518,13.938864 C25.57052,13.860961 25.7615805,13.8967543 25.8530916,14.019399 C25.9446027,14.1420437 25.9025571,14.3046928 25.7584889,14.3825958 L22.717105,17.8490814 C22.6664029,17.8764528 22.6088993,17.8901385 22.5513956,17.8901385 C22.4988386,17.8906649 22.4475181,17.879611 22.4005259,17.8575034 Z" id="Shape" stroke="#0F9696" stroke-width="0.5" transform="translate(22.680344, 15.893918) rotate(18.000000) translate(-22.680344, -15.893918) "></path>
                    </g>
                </g>
            </g>
        </g>
    </g>
</svg>