<?xml version="1.0" encoding="UTF-8" standalone="no"?>
<svg width="350px" height="260px" viewBox="0 0 350 260" version="1.1" xmlns="http://www.w3.org/2000/svg" xmlns:xlink="http://www.w3.org/1999/xlink">
    <!-- Generator: Sketch 41 (35326) - http://www.bohemiancoding.com/sketch -->
    <title>hp_feature3_new</title>
    <desc>Created with Sketch.</desc>
    <defs>
        <linearGradient x1="52.9967885%" y1="-14.0808089%" x2="5.30653968%" y2="118.435763%" id="linearGradient-1">
            <stop stop-color="#04D9D8" offset="0%"></stop>
            <stop stop-color="#02B0AF" offset="100%"></stop>
        </linearGradient>
        <linearGradient x1="50%" y1="100%" x2="0%" y2="3578.91972%" id="linearGradient-2">
            <stop stop-color="#04D9D8" offset="0%"></stop>
            <stop stop-color="#02B0AF" offset="100%"></stop>
        </linearGradient>
        <linearGradient x1="69.2136504%" y1="-1597.29367%" x2="0%" y2="632.238263%" id="linearGradient-3">
            <stop stop-color="#04D9D8" offset="0%"></stop>
            <stop stop-color="#02B0AF" offset="100%"></stop>
        </linearGradient>
        <linearGradient x1="93.7273649%" y1="-99.6369304%" x2="-37.3414884%" y2="172.827171%" id="linearGradient-4">
            <stop stop-color="#04D9D8" offset="0%"></stop>
            <stop stop-color="#03C2C2" offset="54.8433748%"></stop>
            <stop stop-color="#03C2C2" offset="54.8433748%"></stop>
            <stop stop-color="#02B0AF" offset="100%"></stop>
        </linearGradient>
        <linearGradient x1="74.9998355%" y1="-42.737457%" x2="-160.348481%" y2="349.717308%" id="linearGradient-5">
            <stop stop-color="#04D9D8" offset="0%"></stop>
            <stop stop-color="#02B0AF" offset="100%"></stop>
        </linearGradient>
        <linearGradient x1="-136.823225%" y1="0%" x2="-1391.20393%" y2="1090.06265%" id="linearGradient-6">
            <stop stop-color="#04D9D8" offset="0%"></stop>
            <stop stop-color="#02B0AF" offset="100%"></stop>
        </linearGradient>
        <linearGradient x1="50%" y1="-223.650168%" x2="-870.798725%" y2="1229.10759%" id="linearGradient-7">
            <stop stop-color="#04D9D8" offset="0%"></stop>
            <stop stop-color="#02B0AF" offset="100%"></stop>
        </linearGradient>
        <linearGradient x1="50%" y1="-734.301357%" x2="-913.78267%" y2="906.167582%" id="linearGradient-8">
            <stop stop-color="#04D9D8" offset="0%"></stop>
            <stop stop-color="#02B0AF" offset="100%"></stop>
        </linearGradient>
        <linearGradient x1="0%" y1="-77.6364932%" x2="-473.274034%" y2="352.16633%" id="linearGradient-9">
            <stop stop-color="#04D9D8" offset="0%"></stop>
            <stop stop-color="#02B0AF" offset="100%"></stop>
        </linearGradient>
        <linearGradient x1="-124.582676%" y1="-172.188861%" x2="-703.787498%" y2="515.141896%" id="linearGradient-10">
            <stop stop-color="#04D9D8" offset="0%"></stop>
            <stop stop-color="#02B0AF" offset="100%"></stop>
        </linearGradient>
        <linearGradient x1="60.6221967%" y1="-550.007188%" x2="-60.3517503%" y2="811.357281%" id="linearGradient-11">
            <stop stop-color="#04D9D8" offset="0%"></stop>
            <stop stop-color="#02B0AF" offset="100%"></stop>
        </linearGradient>
        <linearGradient x1="50%" y1="-23.7661088%" x2="-432.448401%" y2="243.911959%" id="linearGradient-12">
            <stop stop-color="#04D9D8" offset="0%"></stop>
            <stop stop-color="#02B0AF" offset="100%"></stop>
        </linearGradient>
        <linearGradient x1="50%" y1="32.7099036%" x2="18.7144823%" y2="222.452964%" id="linearGradient-13">
            <stop stop-color="#04D9D8" offset="0%"></stop>
            <stop stop-color="#02B0AF" offset="100%"></stop>
        </linearGradient>
        <path d="M0,10.001557 C0,4.47784959 4.47812947,0 9.99653096,0 L95.003469,0 C100.524401,0 105,4.47656726 105,10.001557 L105,38.6239562 C105,44.1476636 100.519595,48.6255132 94.9973405,48.6255132 L69.7651007,48.6255132 C69.7651007,48.6255132 70.7328859,40.6561228 65.8,40.6561228 C60.8671141,40.6561228 61.5875293,48.6255132 61.5875293,48.6255132 L9.99783888,48.6255132 C4.47618494,48.6255132 0,44.1489459 0,38.6239562 L0,10.001557 Z" id="path-14"></path>
        <mask id="mask-15" maskContentUnits="userSpaceOnUse" maskUnits="objectBoundingBox" x="0" y="0" width="105" height="48.6255132" fill="white">
            <use xlink:href="#path-14"></use>
        </mask>
        <linearGradient x1="50%" y1="0%" x2="50%" y2="177.444835%" id="linearGradient-16">
            <stop stop-color="#04D9D8" offset="0%"></stop>
            <stop stop-color="#02B0AF" offset="100%"></stop>
        </linearGradient>
        <linearGradient x1="50%" y1="0%" x2="50%" y2="186.338367%" id="linearGradient-17">
            <stop stop-color="#04D9D8" offset="0%"></stop>
            <stop stop-color="#02B0AF" offset="100%"></stop>
        </linearGradient>
        <linearGradient x1="50%" y1="0%" x2="50%" y2="241.033232%" id="linearGradient-18">
            <stop stop-color="#04D9D8" offset="0%"></stop>
            <stop stop-color="#02B0AF" offset="100%"></stop>
        </linearGradient>
        <linearGradient x1="50%" y1="0%" x2="50%" y2="253.259708%" id="linearGradient-19">
            <stop stop-color="#04D9D8" offset="0%"></stop>
            <stop stop-color="#02B0AF" offset="100%"></stop>
        </linearGradient>
        <linearGradient x1="50%" y1="-57.1328765%" x2="50%" y2="177.444835%" id="linearGradient-20">
            <stop stop-color="#04D9D8" offset="0%"></stop>
            <stop stop-color="#02B0AF" offset="100%"></stop>
        </linearGradient>
        <linearGradient x1="50%" y1="-74.986684%" x2="50%" y2="186.338367%" id="linearGradient-21">
            <stop stop-color="#04D9D8" offset="0%"></stop>
            <stop stop-color="#02B0AF" offset="100%"></stop>
        </linearGradient>
    </defs>
    <g id="Symbols" stroke="none" stroke-width="1" fill="none" fill-rule="evenodd">
        <g id="hp_feature3_new">
            <g id="step-3" transform="translate(57.000000, 121.000000)">
                <g id="data-anaylze">
                    <g id="ecommerce_creditcard" transform="translate(1.232563, 0.412284)">
                        <g id="Layer_1"></g>
                    </g>
                    <g id="ecommerce_graph1" transform="translate(12.623274, 25.758572)">
                        <g id="Layer_1"></g>
                    </g>
                    <g id="ecommerce_graph3" transform="translate(0.443719, 0.321046)">
                        <g id="Layer_1" transform="translate(97.000000, 32.000000)"></g>
                        <rect id="Rectangle-path" stroke="url(#linearGradient-1)" stroke-width="3" x="0.7888437" y="0.0912380786" width="111.397761" height="77.2527644"></rect>
                        <path d="M0.7888437,11.1273473 L112.186605,11.1273473" id="Shape" stroke="url(#linearGradient-2)" stroke-width="2"></path>
                        <path d="M11.5381591,66.8023492 L18.7251115,66.8023492" id="Shape" stroke="#16B8B7" stroke-width="2.5" stroke-linecap="round"></path>
                        <path d="M25.8498376,66.8023492 L77.9552421,66.8023492" id="Shape" stroke="url(#linearGradient-3)" stroke-width="2.5" stroke-linecap="round"></path>
                        <path d="M41.7395104,39.6935779 C41.7400578,47.4714767 35.1228845,53.7758934 26.9598064,53.7753718 C18.796181,53.7758934 12.1795551,47.4709551 12.1801025,39.6930563 C12.1795551,31.9151576 18.7967284,25.6102193 26.9598064,25.6107409 L26.9598064,39.6930563 L41.7395104,39.6935779 Z" id="Shape" stroke="url(#linearGradient-4)" stroke-width="2.5"></path>
                        <path d="M46.1193915,35.5203639 C46.1199389,27.7419436 39.5033131,21.4364837 31.3396876,21.4375269 L31.3396876,35.5203639 L46.1193915,35.5203639 Z" id="Shape" stroke="url(#linearGradient-5)" stroke-width="2.5"></path>
                        <ellipse id="Oval" stroke="url(#linearGradient-6)" stroke-width="2.5" cx="100.093263" cy="34.3841339" rx="2.34983501" ry="2.28395984"></ellipse>
                        <ellipse id="Oval" stroke="url(#linearGradient-7)" stroke-width="2.5" cx="73.4617994" cy="18.6229831" rx="2.34983501" ry="2.28395984"></ellipse>
                        <ellipse id="Oval" stroke="url(#linearGradient-1)" stroke-width="2.5" cx="87.5608094" cy="44.9922648" rx="2.34983501" ry="2.28395984"></ellipse>
                        <ellipse id="Oval" stroke="url(#linearGradient-8)" stroke-width="2.5" cx="60.1349192" cy="37.6056334" rx="2.34983501" ry="2.28395984"></ellipse>
                        <path d="M61.2037345,36.1181453 L71.4596856,20.7621165" id="Shape" stroke="url(#linearGradient-9)" stroke-width="2.5"></path>
                        <path d="M89.53922,43.786218 L98.9405085,35.4102023" id="Shape" stroke="url(#linearGradient-10)" stroke-width="2.5"></path>
                        <rect id="Rectangle-path" stroke="url(#linearGradient-11)" stroke-width="2.5" x="57" y="51.9028375" width="46.1958885" height="4.56791969"></rect>
                        <path d="M75.6671885,19.9756223 L86.189682,42.7774049" id="Shape" stroke="url(#linearGradient-12)" stroke-width="2.5"></path>
                    </g>
                </g>
            </g>
            <g id="action" transform="translate(193.000000, 121.000000)">
                <use id="Rectangle-17" stroke="url(#linearGradient-13)" mask="url(#mask-15)" stroke-width="6" xlink:href="#path-14"></use>
                <g id="tap" transform="translate(45.805369, 30.278038)">
                    <g id="Capa_1">
                        <g id="Group">
                            <g transform="translate(0.000000, 8.238957)" id="Shape">
                                <path d="M14.4381379,38.4090259 C13.912075,38.4090259 13.4851255,37.987162 13.4851255,37.4673653 L13.4851255,6.65434715 C13.4851255,3.01953722 16.3079482,0.0627229357 19.7807254,0.0627229357 C23.2535026,0.0627229357 26.0763253,3.01953722 26.0763253,6.65434715 L26.0763253,26.6872348 C26.0763253,27.2070314 25.6493758,27.6288954 25.1233129,27.6288954 C24.5972501,27.6288954 24.1703005,27.2070314 24.1703005,26.6872348 L24.1703005,6.65434715 C24.1703005,4.05913053 22.2013769,1.94604414 19.7807254,1.94604414 C17.3600739,1.94604414 15.3911503,4.05913053 15.3911503,6.65434715 L15.3911503,37.4673653 C15.3911503,37.987162 14.9642007,38.4090259 14.4381379,38.4090259 Z" stroke="#00D6DC" fill="#1ED8D8"></path>
                                <path d="M18.3540189,63.2290555 C18.1100477,63.2290555 17.8660765,63.1367727 17.6792861,62.9540906 L3.58532637,43.9009434 C-0.704697987,38.1340611 -0.306869994,35.2167965 2.14808995,32.7910788 C4.6030499,30.3634778 8.65907069,30.4275107 11.1921777,32.9304446 L15.1109646,36.802553 C15.4826395,37.1698006 15.4826395,37.7668134 15.1109646,38.1340611 C14.7392898,38.5013087 14.1350799,38.5013087 13.7634051,38.1340611 L9.84461811,34.2619527 C8.05486082,32.4953974 5.20725977,32.4313644 3.49564949,34.1225869 C1.81262959,35.7855595 1.40939597,37.6297306 4.93288591,42.5694354 L19.0268456,61.6225825 C19.3985205,61.9898301 19.3985205,62.5868429 19.0268456,62.9540906 C18.8419612,63.1367727 18.5979901,63.2290555 18.3540189,63.2290555 Z" stroke="url(#linearGradient-17)" fill="url(#linearGradient-16)"></path>
                                <path d="M35.808488,28.7061551 C35.2824252,28.7061551 34.8554756,28.2842912 34.8554756,27.7644945 L34.8554756,23.0166418 C34.8554756,20.9167386 32.886552,19.2104496 30.4659005,19.2104496 C28.0433429,19.2104496 26.0744193,20.9186219 26.0744193,23.0166418 L26.0744193,27.7644945 C26.0744193,28.2842912 25.6474698,28.7061551 25.1214069,28.7061551 C24.5953441,28.7061551 24.1683945,28.2842912 24.1683945,27.7644945 L24.1683945,23.0166418 C24.1683945,19.8790286 26.9931233,17.3271284 30.4659005,17.3271284 C33.9386777,17.3271284 36.7615004,19.8790286 36.7615004,23.0166418 L36.7615004,27.7644945 C36.7615004,28.2842912 36.3345508,28.7061551 35.808488,28.7061551 Z" stroke="url(#linearGradient-17)" fill="url(#linearGradient-16)"></path>
                                <path d="M46.489851,28.7061551 C45.9637882,28.7061551 45.5368386,28.2842912 45.5368386,27.7644945 L45.5368386,23.8019867 C45.5368386,22.1634973 43.5278885,20.7811395 41.1491695,20.7811395 C38.7704505,20.7811395 36.7595944,22.1653806 36.7595944,23.8019867 L36.7595944,27.7644945 C36.7595944,28.2842912 36.3326448,28.7061551 35.806582,28.7061551 C35.2805191,28.7061551 34.8535696,28.2842912 34.8535696,27.7644945 L34.8535696,23.8019867 C34.8535696,21.0975375 37.6763923,18.8978183 41.1491695,18.8978183 C44.6181346,18.8978183 47.4428634,21.0975375 47.4428634,23.8019867 L47.4428634,27.7644945 C47.4428634,28.2842912 47.0178199,28.7061551 46.489851,28.7061551 Z" stroke="url(#linearGradient-17)" fill="url(#linearGradient-16)"></path>
                                <path d="M57.1750261,40.7933106 C56.6489632,40.7933106 56.2220137,40.3714466 56.2220137,39.85165 L56.2220137,26.9000501 C56.2220137,24.3048335 54.25309,22.1917471 51.8324385,22.1917471 C49.2459629,22.1917471 47.4428634,23.4121392 47.4428634,24.5063488 L47.4428634,27.7626112 C47.4428634,28.2824078 47.0159138,28.7042718 46.489851,28.7042718 C45.9637882,28.7042718 45.5368386,28.2824078 45.5368386,27.7626112 L45.5368386,24.5063488 C45.5368386,22.1521973 48.3024806,20.3084259 51.8324385,20.3084259 C55.3033097,20.3084259 58.1280385,23.2652402 58.1280385,26.9000501 L58.1280385,39.85165 C58.1280385,40.3714466 57.7010889,40.7933106 57.1750261,40.7933106 Z" stroke="url(#linearGradient-19)" fill="url(#linearGradient-18)"></path>
                                <path d="M49.5509268,63.7590193 L18.6390166,63.7590193 C18.1129537,63.7590193 17.6497897,63.3371553 17.6497897,62.8173587 C17.6497897,62.297562 18.0424308,61.8756981 18.5684936,61.8756981 L49.5490208,61.8756981 C53.2276487,61.8756981 56.2201076,58.9188838 56.2201076,55.2840739 L56.2201076,38.7687403 C56.2201076,38.2489436 56.6470572,37.8270797 57.17312,37.8270797 C57.6991829,37.8270797 58.1261324,38.2489436 58.1261324,38.7687403 L58.1261324,55.2821905 C58.1280385,59.9565938 54.2797744,63.7590193 49.5509268,63.7590193 Z" stroke="url(#linearGradient-21)" fill="url(#linearGradient-20)"></path>
                            </g>
                        </g>
                    </g>
                </g>
                <path d="M66.0659035,32.0423967 C66.7472287,32.0423967 67.2995923,31.4560957 67.2995923,30.7329096 L67.2995923,23.3997819 C67.2995923,22.6765958 66.7472287,22.0902948 66.0659035,22.0902948 C65.3845784,22.0902948 64.8322148,22.6765958 64.8322148,23.3997819 L64.8322148,30.7329096 C64.8322148,31.4560957 65.3845784,32.0423967 66.0659035,32.0423967" id="Fill-7" fill="#1ED8D8"></path>
                <path d="M55.7657779,34.8675881 C55.9944216,35.2878461 56.408941,35.5226808 56.8353038,35.5226808 C57.0445374,35.5226808 57.2567319,35.466111 57.4509968,35.3470349 C58.041029,34.9854419 58.243354,34.1845596 57.9026914,33.5582756 L54.4500077,27.2098822 C54.1091806,26.5834235 53.354821,26.3688423 52.7647888,26.7304353 C52.1747566,27.0920283 51.9724316,27.8929106 52.3130942,28.5191947 L55.7657779,34.8675881 Z" id="Fill-9" fill="#1ED8D8" transform="translate(55.107893, 31.038735) rotate(-8.000000) translate(-55.107893, -31.038735) "></path>
                <path d="M45.0131468,38.0429385 L50.9940701,41.7077564 C51.1883349,41.8268324 51.4003649,41.8834023 51.609763,41.8834023 C52.0361258,41.8834023 52.4508098,41.648393 52.6792889,41.2283095 C53.0199515,40.6020255 52.8177911,39.8011432 52.2275943,39.4395502 L46.2466711,35.7747323 C45.6566389,35.4129647 44.9021148,35.6277205 44.5614522,36.2541792 C44.2207897,36.8804632 44.4229501,37.6811709 45.0131468,38.0429385" id="Fill-13" fill="#1ED8D8" transform="translate(48.620371, 38.741205) rotate(-4.000000) translate(-48.620371, -38.741205) "></path>
                <path d="M80.1611436,41.8832866 C80.3703773,41.8832866 80.5825717,41.8267168 80.7768366,41.7076407 L86.7577598,38.0428229 C87.347792,37.6812298 87.550117,36.8803475 87.2094544,36.2540635 C86.8687918,35.6277795 86.1141032,35.4130236 85.5242355,35.7746166 L79.5433123,39.4394345 C78.9532801,39.8010275 78.7509551,40.6019098 79.0916177,41.2281939 C79.3200969,41.6482773 79.7349453,41.8832866 80.1611436,41.8832866 Z" id="Fill-19" fill="#1ED8D8" transform="translate(83.150536, 38.741148) rotate(7.000000) translate(-83.150536, -38.741148) "></path>
                <path d="M74.6104264,35.3470349 C74.8046913,35.466111 75.0167212,35.5226808 75.2261193,35.5226808 C75.6524822,35.5226808 76.0671661,35.2876715 76.2956453,34.8675881 L79.7483289,28.5191947 C80.0889915,27.8929106 79.8866666,27.0920283 79.2966344,26.7304353 C78.7067666,26.3688423 77.9520781,26.5834235 77.6114155,27.2098822 L74.1587318,33.5582756 C73.8180692,34.1845596 74.0203942,34.9854419 74.6104264,35.3470349 Z" id="Fill-23" fill="#1ED8D8" transform="translate(76.953530, 31.038735) rotate(8.000000) translate(-76.953530, -31.038735) "></path>
                <path d="" id="Path-16" stroke="#979797"></path>
                <path d="M11.9704698,10 L45.7959732,10" id="Path-15" stroke="#1ED8D8" stroke-width="2" stroke-linecap="round"></path>
                <path d="M52.842953,10 L60.5946309,10" id="Path-17" stroke="#1ED8D8" stroke-width="2" stroke-linecap="round"></path>
            </g>
            <g id="Group-12-Copy-2" transform="translate(0.000000, 1.000000)">
                <circle id="Oval-5" fill="#02B0AF" opacity="0.336637127" cx="176" cy="35" r="35"></circle>
                <circle id="Oval-5" fill="#02B0AF" cx="176" cy="35" r="28"></circle>
                <path d="M183.635396,26.9381238 C183.635396,28.4794932 183.186299,29.7630244 182.28809,30.7887558 C181.389882,31.8144873 180.125757,32.5047665 178.495675,32.8596141 L178.495675,32.9926813 C180.447337,33.2366391 181.911062,33.8437521 182.886893,34.8140386 C183.862724,35.7843251 184.350632,37.0734007 184.350632,38.6813041 C184.350632,41.0210807 183.524515,42.8257865 181.872255,44.0954757 C180.219996,45.3651649 177.869166,46 174.819694,46 C172.12507,46 169.851861,45.5619915 168,44.6859614 L168,41.2095808 C169.031276,41.7196743 170.123525,42.1133275 171.27678,42.3905522 C172.430035,42.6677769 173.538917,42.8063872 174.60346,42.8063872 C176.488588,42.8063872 177.896868,42.4570893 178.828343,41.758483 C179.759818,41.0598767 180.225549,39.9787166 180.225549,38.5149701 C180.225549,37.2175584 179.709919,36.2639197 178.678643,35.6540253 C177.647367,35.0441309 176.028399,34.7391883 173.82169,34.7391883 L171.709248,34.7391883 L171.709248,31.5622089 L173.854957,31.5622089 C177.736103,31.5622089 179.676647,30.2204614 179.676647,27.5369261 C179.676647,26.4945612 179.338438,25.6906216 178.662009,25.1250832 C177.985581,24.5595447 176.987587,24.2767798 175.667997,24.2767798 C174.747611,24.2767798 173.860505,24.4070734 173.006653,24.6676647 C172.152801,24.9282559 171.143718,25.4355695 169.979375,26.1896208 L168.066534,23.4617432 C170.29542,21.8205729 172.88466,21 175.834331,21 C178.284998,21 180.19782,21.5267191 181.572854,22.580173 C182.947889,23.6336269 183.635396,25.0862626 183.635396,26.9381238 Z" id="3" fill="#FFFFFF"></path>
            </g>
        </g>
    </g>
</svg>