<?xml version="1.0" encoding="utf-8"?>
<!-- Generator: Adobe Illustrator 19.0.0, SVG Export Plug-In . SVG Version: 6.00 Build 0)  -->
<svg version="1.1" id="圖層_1" xmlns="http://www.w3.org/2000/svg" xmlns:xlink="http://www.w3.org/1999/xlink" x="0px" y="0px"
	 viewBox="-10 45.1 234.7 51.6" style="enable-background:new -10 45.1 234.7 51.6;" xml:space="preserve">
<style type="text/css">
	.st0{fill:#111111;}
	.st1{fill:url(#XMLID_2_);}
	.st2{fill:url(#XMLID_3_);}
</style>
<g id="XMLID_702_">
	<g id="XMLID_914_">
		<path id="XMLID_932_" class="st0" d="M53.6,67.8v-3.1c1.9,0.8,3.5,1.2,4.8,1.2c0.9,0,1.7-0.2,2.2-0.6c0.5-0.4,0.8-1,0.8-1.8
			c0-0.6-0.2-1.1-0.5-1.5c-0.3-0.4-1-0.9-1.9-1.4L57.8,60c-1.6-0.9-2.6-1.8-3.3-2.6c-0.6-0.8-1-1.8-1-2.9c0-1.5,0.5-2.7,1.6-3.6
			s2.4-1.4,4.2-1.4c1.4,0,2.9,0.2,4.7,0.6V53c-1.8-0.7-3.2-1-4.2-1c-0.8,0-1.4,0.2-1.9,0.6c-0.5,0.4-0.7,0.9-0.7,1.5
			c0,0.5,0.2,0.9,0.5,1.3c0.3,0.4,1,0.8,1.9,1.4l1.2,0.7c1.7,1,2.8,1.9,3.5,2.7c0.6,0.8,0.9,1.8,0.9,3c0,1.7-0.6,3-1.8,3.9
			c-1.2,1-2.8,1.4-4.9,1.4C57,68.5,55.4,68.2,53.6,67.8z"/>
		<path id="XMLID_930_" class="st0" d="M77.1,68v-7.6L71.3,50h4l4.2,7.6l4.4-7.6h2.9l-6.1,10.5V68H77.1z"/>
		<path id="XMLID_928_" class="st0" d="M94.3,68V50h3.2l8,12.3V50h2.9v18h-3.2l-8-12.3V68H94.3z"/>
		<path id="XMLID_926_" class="st0" d="M117.5,68V50h10.8v2.5h-7.2v5h5.9v2.4h-5.9v5.6h7.8V68H117.5z"/>
		<path id="XMLID_923_" class="st0" d="M136.7,68V50h6.5c3.5,0,5.3,1.5,5.3,4.5c0,1.1-0.3,2.1-0.9,3c-0.6,0.9-1.4,1.6-2.5,2.1
			l5.7,8.4h-4.4l-4.3-7.4h-2V68H136.7z M140.1,58.1h0.8c2.6,0,3.9-1.1,3.9-3.3c0-1.6-1.2-2.4-3.5-2.4h-1.3V58.1z"/>
		<path id="XMLID_921_" class="st0" d="M171.9,67.6c-2.2,0.6-4,0.9-5.6,0.9c-3,0-5.3-0.8-6.9-2.5c-1.6-1.6-2.4-4-2.4-7
			c0-3,0.8-5.4,2.4-7c1.6-1.6,3.9-2.5,6.9-2.5c1.9,0,3.8,0.2,5.6,0.7v2.9c-2.2-0.8-3.9-1.2-5.3-1.2c-1.8,0-3.3,0.6-4.2,1.8
			c-1,1.2-1.5,2.9-1.5,5.2c0,2.2,0.5,3.9,1.6,5.1c1.1,1.2,2.5,1.8,4.4,1.8c0.4,0,0.9-0.1,1.5-0.2v-5.9h3.6V67.6z"/>
		<path id="XMLID_919_" class="st0" d="M180.7,68V50h3.6v18H180.7z"/>
		<path id="XMLID_917_" class="st0" d="M193.4,68V50h10.8v2.5H197v5h5.9v2.4H197v5.6h7.8V68H193.4z"/>
		<path id="XMLID_915_" class="st0" d="M211.7,67.8v-3.1c1.9,0.8,3.5,1.2,4.8,1.2c0.9,0,1.7-0.2,2.2-0.6c0.5-0.4,0.8-1,0.8-1.8
			c0-0.6-0.2-1.1-0.5-1.5c-0.3-0.4-1-0.9-1.9-1.4l-1.2-0.7c-1.6-0.9-2.6-1.8-3.3-2.6c-0.6-0.8-1-1.8-1-2.9c0-1.5,0.5-2.7,1.6-3.6
			c1-0.9,2.4-1.4,4.2-1.4c1.4,0,2.9,0.2,4.7,0.6V53c-1.8-0.7-3.2-1-4.2-1c-0.8,0-1.4,0.2-1.9,0.6c-0.5,0.4-0.7,0.9-0.7,1.5
			c0,0.5,0.2,0.9,0.5,1.3c0.3,0.4,1,0.8,1.9,1.4l1.2,0.7c1.7,1,2.8,1.9,3.5,2.7c0.6,0.8,0.9,1.8,0.9,3c0,1.7-0.6,3-1.8,3.9
			c-1.2,1-2.8,1.4-4.9,1.4C215.1,68.5,213.5,68.2,211.7,67.8z"/>
	</g>
	<g id="XMLID_707_">
		<path id="XMLID_912_" class="st0" d="M53.7,93.4V81.5h1.6v11.9H53.7z"/>
		<path id="XMLID_910_" class="st0" d="M59.8,93.4v-8.7h1.5v1.6c0.8-1.2,1.8-1.8,2.9-1.8c0.7,0,1.3,0.2,1.7,0.7
			c0.4,0.5,0.6,1.1,0.6,1.9v6.3h-1.5v-5.7c0-0.6-0.1-1.1-0.3-1.4c-0.2-0.3-0.5-0.4-0.9-0.4c-0.9,0-1.8,0.6-2.6,1.9v5.6H59.8z"/>
		<path id="XMLID_908_" class="st0" d="M73.7,93.6c-0.8,0-1.4-0.2-1.8-0.7c-0.4-0.5-0.6-1.1-0.6-1.9v-5.1h-1v-1.2h1v-1.6l1.5-0.2
			v1.7h2.2v1.2h-2.2v4.8c0,1.1,0.5,1.7,1.4,1.7c0.2,0,0.4,0,0.7-0.1v1.1C74.4,93.5,74,93.6,73.7,93.6z"/>
		<path id="XMLID_900_" class="st0" d="M84.8,93.1c-1,0.3-1.9,0.5-2.6,0.5c-1.2,0-2.2-0.4-3-1.3c-0.8-0.9-1.2-2-1.2-3.3
			c0-1.3,0.3-2.4,1-3.2c0.7-0.8,1.6-1.3,2.6-1.3c1,0,1.8,0.4,2.3,1.1c0.6,0.7,0.8,1.8,0.8,3.2l0,0.5h-5.3c0.2,2.1,1.2,3.1,2.9,3.1
			c0.6,0,1.4-0.2,2.3-0.5V93.1z M79.6,88.1h3.7c0-1.6-0.6-2.4-1.7-2.4C80.4,85.6,79.7,86.5,79.6,88.1z"/>
		<path id="XMLID_898_" class="st0" d="M89,93.4V80.7h1.5v12.7H89z"/>
		<path id="XMLID_896_" class="st0" d="M95.1,93.4V80.7h1.5v12.7H95.1z"/>
		<path id="XMLID_774_" class="st0" d="M101.2,83.1v-1.6h1.5v1.6H101.2z M101.2,93.4v-8.7h1.5v8.7H101.2z"/>
		<path id="XMLID_771_" class="st0" d="M107.4,96.3l0.2-1.4c0.9,0.4,1.7,0.6,2.6,0.6c1.7,0,2.6-0.9,2.6-2.8v-1.4
			c-0.6,1.2-1.5,1.8-2.8,1.8c-1,0-1.8-0.4-2.4-1.1c-0.6-0.8-0.9-1.8-0.9-3.1c0-1.3,0.3-2.4,1-3.2c0.7-0.8,1.5-1.3,2.6-1.3
			c0.9,0,1.7,0.4,2.4,1.2v-1h1.5V91c0,1.4-0.1,2.4-0.2,3c-0.1,0.7-0.4,1.2-0.8,1.6c-0.7,0.7-1.7,1.1-3.1,1.1
			C109.2,96.7,108.3,96.6,107.4,96.3z M112.7,90.4v-3.6c-0.7-0.7-1.4-1.1-2.2-1.1c-0.7,0-1.2,0.3-1.6,0.9c-0.4,0.6-0.6,1.4-0.6,2.4
			c0,1.9,0.6,2.9,1.9,2.9C111.1,91.8,111.9,91.3,112.7,90.4z"/>
		<path id="XMLID_768_" class="st0" d="M124.9,93.1c-1,0.3-1.9,0.5-2.6,0.5c-1.2,0-2.2-0.4-3-1.3c-0.8-0.9-1.2-2-1.2-3.3
			c0-1.3,0.3-2.4,1-3.2c0.7-0.8,1.6-1.3,2.6-1.3c1,0,1.8,0.4,2.3,1.1c0.6,0.7,0.8,1.8,0.8,3.2l0,0.5h-5.3c0.2,2.1,1.2,3.1,2.9,3.1
			c0.6,0,1.4-0.2,2.3-0.5V93.1z M119.7,88.1h3.7c0-1.6-0.6-2.4-1.7-2.4C120.5,85.6,119.8,86.5,119.7,88.1z"/>
		<path id="XMLID_766_" class="st0" d="M129.1,93.4v-8.7h1.5v1.6c0.8-1.2,1.8-1.8,2.9-1.8c0.7,0,1.3,0.2,1.7,0.7
			c0.4,0.5,0.6,1.1,0.6,1.9v6.3h-1.5v-5.7c0-0.6-0.1-1.1-0.3-1.4c-0.2-0.3-0.5-0.4-0.9-0.4c-0.9,0-1.8,0.6-2.6,1.9v5.6H129.1z"/>
		<path id="XMLID_764_" class="st0" d="M142.9,93.6c-0.8,0-1.4-0.2-1.8-0.7c-0.4-0.5-0.6-1.1-0.6-1.9v-5.1h-1v-1.2h1v-1.6l1.5-0.2
			v1.7h2.2v1.2H142v4.8c0,1.1,0.5,1.7,1.4,1.7c0.2,0,0.4,0,0.7-0.1v1.1C143.7,93.5,143.3,93.6,142.9,93.6z"/>
		<path id="XMLID_762_" class="st0" d="M156.6,93.7c-0.8,0-1.7-0.2-2.9-0.5v-1.7c1.3,0.6,2.3,0.9,3.2,0.9c0.6,0,1.1-0.2,1.5-0.5
			c0.4-0.3,0.6-0.8,0.6-1.4c0-0.5-0.1-0.9-0.4-1.2c-0.3-0.3-0.7-0.7-1.4-1.1l-0.8-0.5c-1-0.6-1.7-1.1-2.1-1.6
			c-0.4-0.5-0.6-1.1-0.6-1.8c0-0.9,0.3-1.7,1-2.3c0.6-0.6,1.4-0.9,2.4-0.9c0.9,0,1.8,0.2,2.8,0.5v1.5c-1.2-0.5-2.1-0.7-2.7-0.7
			c-0.6,0-1,0.2-1.4,0.5c-0.4,0.3-0.5,0.7-0.5,1.2c0,0.4,0.1,0.7,0.4,1.1c0.3,0.3,0.8,0.7,1.5,1.1l0.8,0.5c1,0.6,1.7,1.1,2.1,1.7
			c0.4,0.5,0.6,1.1,0.6,1.9c0,1-0.4,1.9-1.1,2.5C158.8,93.4,157.8,93.7,156.6,93.7z"/>
		<path id="XMLID_760_" class="st0" d="M165,96.5l1.4-3.2l-3.2-8.7h1.6l2.4,6.6l2.6-6.6h1.4l-4.6,11.9H165z"/>
		<path id="XMLID_741_" class="st0" d="M176.5,93.6c-0.7,0-1.5-0.2-2.5-0.5v-1.5c1,0.5,1.9,0.8,2.6,0.8c0.4,0,0.8-0.1,1.1-0.4
			c0.3-0.2,0.4-0.6,0.4-0.9c0-0.5-0.4-1-1.2-1.3l-0.9-0.4c-1.3-0.6-2-1.4-2-2.4c0-0.8,0.3-1.4,0.8-1.8c0.5-0.4,1.2-0.7,2.1-0.7
			c0.5,0,1,0.1,1.7,0.2l0.3,0.1V86c-0.8-0.3-1.5-0.4-2-0.4c-1,0-1.5,0.4-1.5,1.1c0,0.5,0.4,0.9,1.1,1.2l0.7,0.3
			c0.8,0.4,1.4,0.7,1.8,1.2c0.3,0.4,0.5,0.9,0.5,1.5c0,0.8-0.3,1.4-0.9,1.9C178.2,93.3,177.4,93.6,176.5,93.6z"/>
		<path id="XMLID_739_" class="st0" d="M186.4,93.6c-0.8,0-1.4-0.2-1.8-0.7c-0.4-0.5-0.6-1.1-0.6-1.9v-5.1h-1v-1.2h1v-1.6l1.5-0.2
			v1.7h2.2v1.2h-2.2v4.8c0,1.1,0.5,1.7,1.4,1.7c0.2,0,0.4,0,0.7-0.1v1.1C187.2,93.5,186.8,93.6,186.4,93.6z"/>
		<path id="XMLID_712_" class="st0" d="M197.5,93.1c-1,0.3-1.9,0.5-2.6,0.5c-1.2,0-2.2-0.4-3-1.3c-0.8-0.9-1.2-2-1.2-3.3
			c0-1.3,0.3-2.4,1-3.2c0.7-0.8,1.6-1.3,2.6-1.3c1,0,1.8,0.4,2.3,1.1c0.6,0.7,0.8,1.8,0.8,3.2l0,0.5h-5.3c0.2,2.1,1.2,3.1,2.9,3.1
			c0.6,0,1.4-0.2,2.3-0.5V93.1z M192.3,88.1h3.7c0-1.6-0.6-2.4-1.7-2.4C193.1,85.6,192.4,86.5,192.3,88.1z"/>
		<path id="XMLID_710_" class="st0" d="M201.7,93.4v-8.7h1.5v1.6c0.7-1.2,1.7-1.8,2.8-1.8c1.1,0,1.9,0.6,2.3,1.8
			c0.7-1.2,1.7-1.8,2.8-1.8c0.7,0,1.3,0.2,1.7,0.7c0.4,0.5,0.6,1.1,0.6,1.9v6.3H212v-6.1c0-1-0.4-1.5-1.1-1.5
			c-0.8,0-1.6,0.6-2.5,1.7v5.8h-1.5v-6.1c0-1-0.4-1.5-1.2-1.5c-0.8,0-1.6,0.6-2.5,1.7v5.8H201.7z"/>
		<path id="XMLID_708_" class="st0" d="M220.2,93.6c-0.7,0-1.5-0.2-2.5-0.5v-1.5c1,0.5,1.9,0.8,2.6,0.8c0.4,0,0.8-0.1,1.1-0.4
			c0.3-0.2,0.4-0.6,0.4-0.9c0-0.5-0.4-1-1.2-1.3l-0.9-0.4c-1.3-0.6-2-1.4-2-2.4c0-0.8,0.3-1.4,0.8-1.8c0.5-0.4,1.2-0.7,2.1-0.7
			c0.5,0,1,0.1,1.7,0.2l0.3,0.1V86c-0.8-0.3-1.5-0.4-2-0.4c-1,0-1.5,0.4-1.5,1.1c0,0.5,0.4,0.9,1.1,1.2l0.7,0.3
			c0.8,0.4,1.4,0.7,1.8,1.2c0.3,0.4,0.5,0.9,0.5,1.5c0,0.8-0.3,1.4-0.9,1.9C221.9,93.3,221.1,93.6,220.2,93.6z"/>
	</g>
	<g id="XMLID_703_">
		<linearGradient id="XMLID_2_" gradientUnits="userSpaceOnUse" x1="1.1117" y1="63.9352" x2="22.2098" y2="89.6749">
			<stop  offset="0" style="stop-color:#0A3232"/>
			<stop  offset="1" style="stop-color:#005055"/>
		</linearGradient>
		<path id="XMLID_706_" class="st1" d="M15.1,67.3c0,0,0.1,0.1,0.2,0.2l2.8,2.7l1.6,1.6c4.2,4.1,2.6,7.3-0.5,10.4
			c-3,3-6.8,3.8-10,0.8l0,0c-0.1,0-0.1-0.1-0.1-0.1l-16-16.1C-7.7,66-7.7,66.1-8.1,67c-0.5,1.4-0.8,3.2-0.8,4.1
			c0.4,10,14.3,23.7,23.8,23.6c7.8-0.1,14.9-7.4,19.7-14c0.2-0.3,0.2-0.6-0.1-0.9c-5.1-5-10.3-10.4-15.3-15.3l0,0l-0.4-0.4
			c0,0,0,0,0,0l-0.5-0.4c0,0-0.1-0.1-0.1-0.1c-0.4-0.3-1-0.5-1.5-0.4c-1.2,0.1-2.2,1.2-2.3,2.3c0,0.6,0.1,1.1,0.5,1.5L15.1,67.3z"/>
		<g id="XMLID_704_">
			<linearGradient id="XMLID_3_" gradientUnits="userSpaceOnUse" x1="12.0092" y1="77.8616" x2="23.9935" y2="53.5299">
				<stop  offset="0" style="stop-color:#0F9696"/>
				<stop  offset="1" style="stop-color:#4BC8C8"/>
			</linearGradient>
			<path id="XMLID_705_" class="st2" d="M15.3,47.3c-7.9,0-15.4,7.9-20,14.4l16.1,16.1c0.1,0.1,0.1,0.1,0.2,0.2
				c0.5,0.5,1.4,0.9,2.2,0.8c1-0.1,2-1.2,2.1-2.3c0.1-0.9-0.4-1.6-1.1-2.3l-4.5-4.5l-0.1-0.2c-2.8-2.9-2.4-6.4,0.9-9.9
				c2.8-2.9,6.5-3.9,10-0.7l0.6,0.6l16.2,16.2c0.6-1.1,1.1-3.1,1.1-4.7C38.9,61,24.8,47.2,15.3,47.3z"/>
		</g>
	</g>
</g>
</svg>
