<?xml version="1.0" encoding="utf-8"?>
<!-- Generator: Adobe Illustrator 22.0.1, SVG Export Plug-In . SVG Version: 6.00 Build 0)  -->
<svg version="1.1" xmlns="http://www.w3.org/2000/svg" xmlns:xlink="http://www.w3.org/1999/xlink" x="0px" y="0px"
	 viewBox="0 0 360 360" style="enable-background:new 0 0 360 360;" xml:space="preserve">
<style type="text/css">
	.st0{fill:url(#SVGID_1_);}
	.st1{fill:url(#SVGID_2_);}
	.st2{fill-rule:evenodd;clip-rule:evenodd;fill:url(#SVGID_3_);}
	.st3{fill:url(#SVGID_4_);}
	.st4{fill:url(#SVGID_5_);}
	.st5{fill:none;stroke:url(#SVGID_6_);stroke-width:0.75;stroke-linecap:round;stroke-miterlimit:10;}
	.st6{fill:url(#SVGID_7_);}
	.st7{fill:url(#SVGID_8_);}
	.st8{fill:url(#SVGID_9_);}
	.st9{fill-rule:evenodd;clip-rule:evenodd;fill:url(#SVGID_10_);}
	.st10{opacity:0.8;}
	.st11{clip-path:url(#SVGID_12_);}
	.st12{clip-path:url(#SVGID_14_);enable-background:new    ;}
	.st13{clip-path:url(#SVGID_16_);}
	.st14{opacity:0.75;clip-path:url(#SVGID_18_);fill:#4DBDBC;}
	.st15{clip-path:url(#SVGID_20_);}
	.st16{clip-path:url(#SVGID_22_);enable-background:new    ;}
	.st17{clip-path:url(#SVGID_24_);}
	.st18{opacity:0.75;clip-path:url(#SVGID_26_);fill:#4DBDBC;}
	.st19{fill-rule:evenodd;clip-rule:evenodd;fill:url(#SVGID_27_);}
	.st20{clip-path:url(#SVGID_29_);}
	.st21{clip-path:url(#SVGID_31_);enable-background:new    ;}
	.st22{clip-path:url(#SVGID_33_);}
	.st23{opacity:0.75;clip-path:url(#SVGID_35_);fill:#4DBDBC;}
	.st24{clip-path:url(#SVGID_37_);}
	.st25{clip-path:url(#SVGID_39_);enable-background:new    ;}
	.st26{clip-path:url(#SVGID_41_);}
	.st27{opacity:0.75;clip-path:url(#SVGID_43_);fill:#4DBDBC;}
	.st28{fill-rule:evenodd;clip-rule:evenodd;fill:url(#SVGID_44_);}
	.st29{clip-path:url(#SVGID_46_);}
	.st30{clip-path:url(#SVGID_48_);enable-background:new    ;}
	.st31{clip-path:url(#SVGID_50_);}
	.st32{opacity:0.75;clip-path:url(#SVGID_52_);fill:#4DBDBC;}
	.st33{clip-path:url(#SVGID_54_);}
	.st34{clip-path:url(#SVGID_56_);enable-background:new    ;}
	.st35{clip-path:url(#SVGID_58_);}
	.st36{opacity:0.75;clip-path:url(#SVGID_60_);fill:#4DBDBC;}
	.st37{fill:url(#SVGID_61_);}
	.st38{fill:url(#SVGID_62_);}
	.st39{fill:url(#SVGID_63_);}
	.st40{fill:url(#SVGID_64_);}
	.st41{fill:url(#SVGID_65_);}
	.st42{fill:url(#SVGID_66_);}
	.st43{fill:url(#SVGID_67_);}
	.st44{fill:url(#SVGID_68_);}
	.st45{fill:url(#SVGID_69_);}
	.st46{fill:url(#SVGID_70_);}
	.st47{fill:url(#SVGID_71_);}
	.st48{fill:url(#SVGID_72_);}
	.st49{fill:url(#SVGID_73_);}
	.st50{fill:url(#SVGID_74_);}
	.st51{fill:url(#SVGID_75_);}
	.st52{fill:url(#SVGID_76_);}
	.st53{fill:url(#SVGID_77_);}
	.st54{fill:url(#SVGID_78_);}
	.st55{fill:url(#SVGID_79_);}
	.st56{fill:url(#SVGID_80_);}
	.st57{fill:url(#SVGID_81_);}
	.st58{fill:url(#SVGID_82_);}
	.st59{fill:url(#SVGID_83_);}
	.st60{fill:url(#SVGID_84_);}
	.st61{fill:url(#SVGID_85_);}
	.st62{fill:url(#SVGID_86_);}
	.st63{fill:url(#SVGID_87_);}
	.st64{fill:url(#SVGID_88_);}
	.st65{fill-rule:evenodd;clip-rule:evenodd;fill:url(#SVGID_89_);}
	.st66{clip-path:url(#SVGID_91_);}
	.st67{clip-path:url(#SVGID_93_);enable-background:new    ;}
	.st68{clip-path:url(#SVGID_95_);}
	.st69{clip-path:url(#SVGID_97_);fill:#58C0C6;}
	.st70{clip-path:url(#SVGID_99_);}
	.st71{clip-path:url(#SVGID_101_);enable-background:new    ;}
	.st72{clip-path:url(#SVGID_103_);}
	.st73{clip-path:url(#SVGID_105_);fill:#58C0C6;}
	.st74{clip-path:url(#SVGID_107_);}
	.st75{clip-path:url(#SVGID_109_);fill:#FFFFFF;}
	.st76{clip-path:url(#SVGID_111_);}
	.st77{clip-path:url(#SVGID_113_);fill:#FFFFFF;}
	.st78{fill-rule:evenodd;clip-rule:evenodd;fill:url(#SVGID_114_);}
	.st79{clip-path:url(#SVGID_116_);}
	.st80{clip-path:url(#SVGID_118_);enable-background:new    ;}
	.st81{clip-path:url(#SVGID_120_);}
	.st82{clip-path:url(#SVGID_122_);fill:#EDDE96;}
	.st83{clip-path:url(#SVGID_124_);}
	.st84{clip-path:url(#SVGID_126_);enable-background:new    ;}
	.st85{clip-path:url(#SVGID_128_);}
	.st86{clip-path:url(#SVGID_130_);fill:#EDDE96;}
	.st87{clip-path:url(#SVGID_132_);}
	.st88{clip-path:url(#SVGID_134_);fill:#FFFFFF;}
	.st89{clip-path:url(#SVGID_136_);}
	.st90{clip-path:url(#SVGID_138_);fill:#FFFFFF;}
	.st91{fill:none;}
	.st92{fill-rule:evenodd;clip-rule:evenodd;fill:url(#SVGID_139_);}
	.st93{clip-path:url(#SVGID_141_);}
	.st94{clip-path:url(#SVGID_143_);enable-background:new    ;}
	.st95{clip-path:url(#SVGID_145_);}
	.st96{opacity:0.75;clip-path:url(#SVGID_147_);fill:#FFFFFF;}
	.st97{clip-path:url(#SVGID_149_);}
	.st98{clip-path:url(#SVGID_151_);enable-background:new    ;}
	.st99{clip-path:url(#SVGID_153_);}
	.st100{opacity:0.75;clip-path:url(#SVGID_155_);fill:#FFFFFF;}
	.st101{clip-path:url(#SVGID_157_);}
	.st102{clip-path:url(#SVGID_159_);fill:#FFFFFF;}
	.st103{clip-path:url(#SVGID_161_);}
	.st104{clip-path:url(#SVGID_163_);fill:#FFFFFF;}
	.st105{fill-rule:evenodd;clip-rule:evenodd;fill:url(#SVGID_164_);}
	.st106{clip-path:url(#SVGID_166_);}
	.st107{clip-path:url(#SVGID_168_);enable-background:new    ;}
	.st108{clip-path:url(#SVGID_170_);}
	.st109{clip-path:url(#SVGID_172_);fill:#4DBDBC;}
	.st110{clip-path:url(#SVGID_174_);}
	.st111{clip-path:url(#SVGID_176_);enable-background:new    ;}
	.st112{clip-path:url(#SVGID_178_);}
	.st113{clip-path:url(#SVGID_180_);fill:#4DBDBC;}
	.st114{fill-rule:evenodd;clip-rule:evenodd;fill:url(#SVGID_181_);}
	.st115{clip-path:url(#SVGID_183_);}
	.st116{clip-path:url(#SVGID_185_);enable-background:new    ;}
	.st117{clip-path:url(#SVGID_187_);}
	.st118{clip-path:url(#SVGID_189_);fill:#EDDE96;}
	.st119{clip-path:url(#SVGID_191_);}
	.st120{clip-path:url(#SVGID_193_);enable-background:new    ;}
	.st121{clip-path:url(#SVGID_195_);}
	.st122{clip-path:url(#SVGID_197_);fill:#EDDE96;}
	.st123{fill-rule:evenodd;clip-rule:evenodd;fill:url(#SVGID_198_);}
	.st124{clip-path:url(#SVGID_200_);}
	.st125{clip-path:url(#SVGID_202_);enable-background:new    ;}
	.st126{clip-path:url(#SVGID_204_);}
	.st127{clip-path:url(#SVGID_206_);fill:#4DBDBC;}
	.st128{clip-path:url(#SVGID_208_);}
	.st129{clip-path:url(#SVGID_210_);enable-background:new    ;}
	.st130{clip-path:url(#SVGID_212_);}
	.st131{clip-path:url(#SVGID_214_);fill:#4DBDBC;}
	.st132{fill:#006262;}
	.st133{fill:#FFFFFF;}
	.st134{fill-rule:evenodd;clip-rule:evenodd;fill:url(#SVGID_215_);}
	.st135{clip-path:url(#SVGID_217_);}
	.st136{clip-path:url(#SVGID_219_);fill:#FFFFFF;}
	.st137{clip-path:url(#SVGID_221_);}
	.st138{clip-path:url(#SVGID_223_);fill:#FFFFFF;}
	.st139{fill-rule:evenodd;clip-rule:evenodd;fill:url(#SVGID_224_);}
	.st140{clip-path:url(#SVGID_226_);}
	.st141{clip-path:url(#SVGID_228_);enable-background:new    ;}
	.st142{clip-path:url(#SVGID_230_);}
	.st143{opacity:0.75;clip-path:url(#SVGID_232_);fill:#4DBDBC;}
	.st144{clip-path:url(#SVGID_234_);}
	.st145{clip-path:url(#SVGID_236_);enable-background:new    ;}
	.st146{clip-path:url(#SVGID_238_);}
	.st147{opacity:0.75;clip-path:url(#SVGID_240_);fill:#4DBDBC;}
	.st148{clip-path:url(#SVGID_242_);}
	.st149{clip-path:url(#SVGID_244_);fill:#FFFFFF;}
	.st150{clip-path:url(#SVGID_246_);}
	.st151{clip-path:url(#SVGID_248_);fill:#FFFFFF;}
	.st152{clip-path:url(#SVGID_250_);}
	.st153{clip-path:url(#SVGID_252_);fill:#FFFFFF;}
	.st154{clip-path:url(#SVGID_254_);}
	.st155{clip-path:url(#SVGID_256_);fill:#FFFFFF;}
	.st156{fill-rule:evenodd;clip-rule:evenodd;fill:url(#SVGID_257_);}
	.st157{clip-path:url(#SVGID_259_);}
	.st158{clip-path:url(#SVGID_261_);enable-background:new    ;}
	.st159{clip-path:url(#SVGID_263_);}
	.st160{opacity:0.75;clip-path:url(#SVGID_265_);fill:#4DBDBC;}
	.st161{clip-path:url(#SVGID_267_);}
	.st162{clip-path:url(#SVGID_269_);enable-background:new    ;}
	.st163{clip-path:url(#SVGID_271_);}
	.st164{opacity:0.75;clip-path:url(#SVGID_273_);fill:#4DBDBC;}
	.st165{clip-path:url(#SVGID_275_);}
	.st166{clip-path:url(#SVGID_277_);fill:#FFFFFF;}
	.st167{clip-path:url(#SVGID_279_);}
	.st168{clip-path:url(#SVGID_281_);fill:#FFFFFF;}
	.st169{clip-path:url(#SVGID_283_);}
	.st170{clip-path:url(#SVGID_285_);enable-background:new    ;}
	.st171{clip-path:url(#SVGID_287_);}
	.st172{opacity:0.75;clip-path:url(#SVGID_289_);fill:#4DBDBC;}
	.st173{clip-path:url(#SVGID_291_);}
	.st174{clip-path:url(#SVGID_293_);enable-background:new    ;}
	.st175{clip-path:url(#SVGID_295_);}
	.st176{opacity:0.75;clip-path:url(#SVGID_297_);fill:#4DBDBC;}
	.st177{clip-path:url(#SVGID_299_);}
	.st178{clip-path:url(#SVGID_301_);fill:#FFFFFF;}
	.st179{clip-path:url(#SVGID_303_);}
	.st180{clip-path:url(#SVGID_305_);fill:#FFFFFF;}
	.st181{fill-rule:evenodd;clip-rule:evenodd;fill:url(#SVGID_306_);}
	.st182{clip-path:url(#SVGID_308_);}
	.st183{clip-path:url(#SVGID_310_);enable-background:new    ;}
	.st184{clip-path:url(#SVGID_312_);}
	.st185{opacity:0.75;clip-path:url(#SVGID_314_);fill:#4DBDBC;}
	.st186{clip-path:url(#SVGID_316_);}
	.st187{clip-path:url(#SVGID_318_);enable-background:new    ;}
	.st188{clip-path:url(#SVGID_320_);}
	.st189{opacity:0.75;clip-path:url(#SVGID_322_);fill:#4DBDBC;}
	.st190{clip-path:url(#SVGID_324_);}
	.st191{clip-path:url(#SVGID_326_);fill:#FFFFFF;}
	.st192{clip-path:url(#SVGID_328_);}
	.st193{clip-path:url(#SVGID_330_);fill:#FFFFFF;}
	.st194{fill-rule:evenodd;clip-rule:evenodd;fill:url(#SVGID_331_);}
	.st195{clip-path:url(#SVGID_333_);}
	.st196{clip-path:url(#SVGID_335_);enable-background:new    ;}
	.st197{clip-path:url(#SVGID_337_);}
	.st198{opacity:0.75;clip-path:url(#SVGID_339_);fill:#4DBDBC;}
	.st199{clip-path:url(#SVGID_341_);}
	.st200{clip-path:url(#SVGID_343_);enable-background:new    ;}
	.st201{clip-path:url(#SVGID_345_);}
	.st202{opacity:0.75;clip-path:url(#SVGID_347_);fill:#4DBDBC;}
	.st203{fill-rule:evenodd;clip-rule:evenodd;fill:url(#SVGID_348_);}
	.st204{clip-path:url(#SVGID_350_);}
	.st205{clip-path:url(#SVGID_352_);enable-background:new    ;}
	.st206{clip-path:url(#SVGID_354_);}
	.st207{opacity:0.75;clip-path:url(#SVGID_356_);fill:#4DBDBC;}
	.st208{clip-path:url(#SVGID_358_);}
	.st209{clip-path:url(#SVGID_360_);enable-background:new    ;}
	.st210{clip-path:url(#SVGID_362_);}
	.st211{opacity:0.75;clip-path:url(#SVGID_364_);fill:#4DBDBC;}
	.st212{clip-path:url(#SVGID_366_);}
	.st213{clip-path:url(#SVGID_368_);fill:#FFFFFF;}
	.st214{clip-path:url(#SVGID_370_);}
	.st215{clip-path:url(#SVGID_372_);fill:#FFFFFF;}
	.st216{fill-rule:evenodd;clip-rule:evenodd;fill:url(#SVGID_373_);}
	.st217{clip-path:url(#SVGID_375_);}
	.st218{clip-path:url(#SVGID_377_);enable-background:new    ;}
	.st219{clip-path:url(#SVGID_379_);}
	.st220{opacity:0.75;clip-path:url(#SVGID_381_);fill:#4DBDBC;}
	.st221{clip-path:url(#SVGID_383_);}
	.st222{clip-path:url(#SVGID_385_);enable-background:new    ;}
	.st223{clip-path:url(#SVGID_387_);}
	.st224{opacity:0.75;clip-path:url(#SVGID_389_);fill:#4DBDBC;}
	.st225{fill-rule:evenodd;clip-rule:evenodd;fill:url(#SVGID_390_);}
	.st226{clip-path:url(#SVGID_392_);}
	.st227{clip-path:url(#SVGID_394_);enable-background:new    ;}
	.st228{clip-path:url(#SVGID_396_);}
	.st229{opacity:0.75;clip-path:url(#SVGID_398_);fill:#4DBDBC;}
	.st230{clip-path:url(#SVGID_400_);}
	.st231{clip-path:url(#SVGID_402_);enable-background:new    ;}
	.st232{clip-path:url(#SVGID_404_);}
	.st233{opacity:0.75;clip-path:url(#SVGID_406_);fill:#4DBDBC;}
	.st234{fill-rule:evenodd;clip-rule:evenodd;fill:url(#SVGID_407_);}
	.st235{clip-path:url(#SVGID_409_);}
	.st236{clip-path:url(#SVGID_411_);enable-background:new    ;}
	.st237{clip-path:url(#SVGID_413_);}
	.st238{opacity:0.75;clip-path:url(#SVGID_415_);fill:#4DBDBC;}
	.st239{clip-path:url(#SVGID_417_);}
	.st240{clip-path:url(#SVGID_419_);enable-background:new    ;}
	.st241{clip-path:url(#SVGID_421_);}
	.st242{opacity:0.75;clip-path:url(#SVGID_423_);fill:#4DBDBC;}
	.st243{fill-rule:evenodd;clip-rule:evenodd;fill:url(#SVGID_424_);}
	.st244{clip-path:url(#SVGID_426_);}
	.st245{clip-path:url(#SVGID_428_);fill:#FFFFFF;}
	.st246{clip-path:url(#SVGID_430_);}
	.st247{clip-path:url(#SVGID_432_);fill:#FFFFFF;}
	.st248{clip-path:url(#SVGID_434_);}
	.st249{clip-path:url(#SVGID_436_);fill:#FFFFFF;}
	.st250{clip-path:url(#SVGID_438_);}
	.st251{clip-path:url(#SVGID_440_);fill:#FFFFFF;}
	.st252{clip-path:url(#SVGID_442_);}
	.st253{clip-path:url(#SVGID_444_);enable-background:new    ;}
	.st254{clip-path:url(#SVGID_446_);}
	.st255{opacity:0.75;clip-path:url(#SVGID_448_);fill:#4DBDBC;}
	.st256{clip-path:url(#SVGID_450_);}
	.st257{clip-path:url(#SVGID_452_);enable-background:new    ;}
	.st258{clip-path:url(#SVGID_454_);}
	.st259{opacity:0.75;clip-path:url(#SVGID_456_);fill:#4DBDBC;}
	.st260{clip-path:url(#SVGID_458_);}
	.st261{clip-path:url(#SVGID_460_);fill:#FFFFFF;}
	.st262{clip-path:url(#SVGID_462_);}
	.st263{clip-path:url(#SVGID_464_);fill:#FFFFFF;}
	.st264{fill-rule:evenodd;clip-rule:evenodd;fill:url(#SVGID_465_);}
	.st265{clip-path:url(#SVGID_467_);}
	.st266{clip-path:url(#SVGID_469_);enable-background:new    ;}
	.st267{clip-path:url(#SVGID_471_);}
	.st268{opacity:0.75;clip-path:url(#SVGID_473_);fill:#4DBDBC;}
	.st269{clip-path:url(#SVGID_475_);}
	.st270{clip-path:url(#SVGID_477_);enable-background:new    ;}
	.st271{clip-path:url(#SVGID_479_);}
	.st272{opacity:0.75;clip-path:url(#SVGID_481_);fill:#4DBDBC;}
	.st273{clip-path:url(#SVGID_483_);}
	.st274{clip-path:url(#SVGID_485_);fill:#FFFFFF;}
	.st275{fill:url(#SVGID_486_);}
	.st276{fill:url(#SVGID_487_);}
	.st277{fill:url(#SVGID_488_);}
	.st278{fill:url(#SVGID_489_);}
	.st279{fill:url(#SVGID_490_);}
	.st280{fill:url(#SVGID_491_);}
	.st281{fill:url(#SVGID_492_);}
	.st282{fill:url(#SVGID_493_);}
	.st283{fill:url(#SVGID_494_);}
	.st284{fill:url(#SVGID_495_);}
	.st285{fill:url(#SVGID_496_);}
	.st286{fill:url(#SVGID_497_);}
	.st287{fill:url(#SVGID_498_);}
	.st288{fill:url(#SVGID_499_);}
	.st289{fill:url(#SVGID_500_);}
	.st290{fill:url(#SVGID_501_);}
	.st291{fill:url(#SVGID_502_);}
	.st292{fill:url(#SVGID_503_);}
	.st293{fill:url(#SVGID_504_);}
	.st294{fill:url(#SVGID_505_);}
	.st295{fill:url(#SVGID_506_);}
	.st296{fill:url(#SVGID_507_);}
	.st297{fill:url(#SVGID_508_);}
	.st298{fill:url(#SVGID_509_);}
	.st299{fill:url(#SVGID_510_);}
	.st300{fill:url(#SVGID_511_);}
	.st301{fill:url(#SVGID_512_);}
	.st302{fill:url(#SVGID_513_);}
	.st303{fill:url(#SVGID_514_);}
	.st304{fill:url(#SVGID_515_);}
	.st305{fill:url(#SVGID_516_);}
	.st306{fill:url(#SVGID_517_);}
	.st307{fill:url(#SVGID_518_);}
	.st308{fill:url(#SVGID_519_);}
	.st309{fill:url(#SVGID_520_);}
	.st310{fill:url(#SVGID_521_);}
	.st311{fill:url(#SVGID_522_);}
	.st312{fill:url(#SVGID_523_);}
	.st313{fill:url(#SVGID_524_);}
	.st314{fill:url(#SVGID_525_);}
	.st315{fill:url(#SVGID_526_);}
	.st316{fill:url(#SVGID_527_);}
	.st317{fill:url(#SVGID_528_);}
	.st318{fill:url(#SVGID_529_);}
	.st319{fill:url(#SVGID_530_);}
	.st320{fill:url(#SVGID_531_);}
	.st321{fill:url(#SVGID_532_);}
	.st322{fill:url(#SVGID_533_);}
	.st323{fill:url(#SVGID_534_);}
	.st324{fill:url(#SVGID_535_);}
	.st325{fill:url(#SVGID_536_);}
	.st326{fill:url(#SVGID_537_);}
	.st327{fill:url(#SVGID_538_);}
	.st328{fill:url(#SVGID_539_);}
	.st329{fill:url(#SVGID_540_);}
	.st330{fill:url(#SVGID_541_);}
	.st331{fill:url(#SVGID_542_);}
	.st332{fill:url(#SVGID_543_);}
	.st333{fill:url(#SVGID_544_);}
	.st334{fill:url(#SVGID_545_);}
	.st335{fill:url(#SVGID_546_);}
	.st336{fill:url(#SVGID_547_);}
	.st337{fill:url(#SVGID_548_);}
	.st338{fill:url(#SVGID_549_);}
	.st339{fill:url(#SVGID_550_);}
	.st340{fill:url(#SVGID_551_);}
	.st341{fill:url(#SVGID_552_);}
	.st342{fill:url(#SVGID_553_);}
	.st343{fill:url(#SVGID_554_);}
	.st344{fill:url(#SVGID_555_);}
	.st345{fill:url(#SVGID_556_);}
	.st346{fill:url(#SVGID_557_);}
	.st347{fill:url(#SVGID_558_);}
	.st348{enable-background:new    ;}
	.st349{fill:url(#SVGID_559_);}
	.st350{fill:url(#SVGID_560_);}
	.st351{fill:url(#SVGID_561_);}
	.st352{fill:url(#SVGID_562_);}
	.st353{clip-path:url(#SVGID_564_);enable-background:new    ;}
	.st354{fill:#828282;}
	.st355{fill:url(#SVGID_565_);}
	.st356{fill:url(#SVGID_566_);}
	.st357{fill:url(#SVGID_567_);}
	.st358{fill:url(#SVGID_568_);}
	.st359{fill:url(#SVGID_569_);}
	.st360{fill:url(#SVGID_570_);}
	.st361{fill:url(#SVGID_571_);}
	.st362{fill:url(#SVGID_572_);}
	.st363{fill:url(#SVGID_573_);}
	.st364{fill:url(#SVGID_574_);}
	.st365{fill:url(#SVGID_575_);}
	.st366{fill:url(#SVGID_576_);}
	.st367{clip-path:url(#SVGID_578_);enable-background:new    ;}
	.st368{fill:url(#SVGID_579_);}
	.st369{fill:url(#SVGID_580_);}
	.st370{fill:url(#SVGID_581_);}
	.st371{fill:url(#SVGID_582_);}
	.st372{fill:url(#SVGID_583_);}
	.st373{fill:url(#SVGID_584_);}
	.st374{fill:url(#SVGID_585_);}
	.st375{fill:url(#SVGID_586_);}
	.st376{fill:url(#SVGID_587_);}
	.st377{fill:url(#SVGID_588_);}
	.st378{clip-path:url(#SVGID_591_);}
	.st379{fill:url(#SVGID_595_);}
	.st380{fill:url(#SVGID_596_);}
	.st381{clip-path:url(#SVGID_599_);}
	.st382{fill:url(#SVGID_603_);}
	.st383{fill:url(#SVGID_604_);}
	.st384{fill:url(#SVGID_605_);}
	.st385{fill:url(#SVGID_606_);}
	.st386{clip-path:url(#SVGID_609_);}
	.st387{fill:url(#SVGID_613_);}
	.st388{fill:url(#SVGID_614_);}
	.st389{clip-path:url(#SVGID_617_);}
	.st390{fill:url(#SVGID_621_);}
	.st391{fill:url(#SVGID_622_);}
	.st392{fill:url(#SVGID_623_);}
	.st393{fill:url(#SVGID_624_);}
	.st394{clip-path:url(#SVGID_627_);}
	.st395{fill:url(#SVGID_631_);}
	.st396{fill:url(#SVGID_632_);}
	.st397{fill:#9B9B9B;}
	.st398{clip-path:url(#SVGID_634_);}
	.st399{fill:#B1B1B1;}
	.st400{clip-path:url(#SVGID_638_);enable-background:new    ;}
	.st401{fill:#858585;}
	.st402{fill:#878787;}
	.st403{fill:#8A8A8A;}
	.st404{fill:#8C8C8C;}
	.st405{fill:#8F8F8F;}
	.st406{fill:#919191;}
	.st407{fill:#949494;}
	.st408{fill:#969696;}
	.st409{fill:#999999;}
	.st410{fill:#9C9C9C;}
	.st411{fill:#9E9E9E;}
	.st412{clip-path:url(#SVGID_640_);}
	.st413{fill:#909090;}
	.st414{fill:#808080;}
	.st415{clip-path:url(#SVGID_644_);}
	.st416{clip-path:url(#SVGID_648_);enable-background:new    ;}
	.st417{fill:#ABABAB;}
	.st418{fill:#ADADAD;}
	.st419{fill:#A8A8A8;}
	.st420{fill:#A6A6A6;}
	.st421{fill:#A3A3A3;}
	.st422{fill:#A1A1A1;}
	.st423{clip-path:url(#SVGID_650_);enable-background:new    ;}
	.st424{clip-path:url(#SVGID_652_);}
	.st425{fill:#AFAFAF;}
	.st426{clip-path:url(#SVGID_656_);}
	.st427{fill:#B0B0B0;}
	.st428{fill:url(#SVGID_659_);}
	.st429{fill:url(#SVGID_660_);}
	.st430{fill:#389495;}
	.st431{fill:url(#SVGID_661_);}
	.st432{fill:url(#SVGID_662_);}
	.st433{fill:url(#SVGID_663_);}
	.st434{fill:url(#SVGID_664_);}
	.st435{fill:url(#SVGID_665_);}
	.st436{fill:url(#SVGID_666_);}
	.st437{clip-path:url(#SVGID_668_);}
	.st438{fill:url(#SVGID_671_);}
	.st439{fill:url(#SVGID_672_);}
	.st440{fill:url(#SVGID_673_);}
	.st441{clip-path:url(#SVGID_675_);}
	.st442{fill:url(#SVGID_678_);}
	.st443{fill:url(#SVGID_679_);}
	.st444{clip-path:url(#SVGID_681_);}
	.st445{fill:url(#SVGID_684_);}
	.st446{fill:url(#SVGID_685_);}
	.st447{fill:url(#SVGID_686_);}
	.st448{clip-path:url(#SVGID_688_);}
	.st449{fill:url(#SVGID_691_);}
	.st450{fill:url(#SVGID_692_);}
	.st451{clip-path:url(#SVGID_694_);enable-background:new    ;}
	.st452{fill:url(#SVGID_695_);}
	.st453{clip-path:url(#SVGID_697_);}
	.st454{fill:url(#SVGID_700_);}
	.st455{fill:url(#SVGID_701_);}
	.st456{fill:none;stroke:url(#SVGID_702_);stroke-width:0.75;stroke-linecap:round;stroke-miterlimit:10;}
	.st457{fill:none;stroke:url(#SVGID_703_);stroke-width:0.75;stroke-linecap:round;stroke-miterlimit:10;}
	.st458{fill:none;stroke:url(#SVGID_704_);stroke-width:4;stroke-linecap:round;stroke-miterlimit:10;}
	.st459{fill:url(#SVGID_705_);}
	.st460{fill:url(#SVGID_706_);}
	.st461{fill:url(#SVGID_707_);}
	.st462{fill:url(#SVGID_708_);}
	.st463{fill:url(#SVGID_709_);}
	.st464{fill:url(#SVGID_710_);}
	.st465{fill:none;stroke:url(#SVGID_711_);stroke-width:4;stroke-linecap:round;stroke-miterlimit:10;}
	.st466{fill:none;stroke:url(#SVGID_712_);stroke-width:4;stroke-linecap:round;stroke-miterlimit:10;}
	.st467{fill:#3E3A39;}
	.st468{fill:url(#SVGID_713_);}
	.st469{fill:url(#SVGID_714_);}
	.st470{fill:url(#SVGID_715_);}
	.st471{fill-rule:evenodd;clip-rule:evenodd;fill:url(#SVGID_716_);}
	.st472{fill:url(#SVGID_717_);}
	.st473{fill:url(#SVGID_718_);}
	.st474{fill:url(#SVGID_719_);}
	.st475{fill:url(#SVGID_720_);}
	.st476{fill:url(#SVGID_721_);}
	.st477{fill:url(#SVGID_722_);}
	.st478{fill:url(#SVGID_723_);}
	.st479{fill:url(#SVGID_724_);}
	.st480{fill:url(#SVGID_725_);}
</style>
<g id="底">
</g>
<g id="圖層_1">
	<g>
		<g>
			<g class="st348">
				<linearGradient id="SVGID_1_" gradientUnits="userSpaceOnUse" x1="180.1626" y1="268.1793" x2="242.7183" y2="268.1793">
					<stop  offset="0" style="stop-color:#FFFFFF"/>
					<stop  offset="0.9988" style="stop-color:#4DBDBC"/>
				</linearGradient>
				<path class="st0" d="M235.6,259.1c-1.1,0.3-2.2,0.7-3.3,0.9c-2.8,0.7-5.6,1.3-8.5,1.6l-43.6,18c0.1,0,0.2,0,0.4,0
					c2.2-0.3,4.5-0.6,6.6-1.1c0.5-0.1,1-0.3,1.5-0.4c1.1-0.3,2.2-0.6,3.3-0.9c1.1-0.3,2.2-0.5,3.2-0.9c1.3-0.5,2.6-0.9,3.9-1.5
					l43.6-18C240.4,257.7,238,258.4,235.6,259.1z"/>
				<g>
					<linearGradient id="SVGID_2_" gradientUnits="userSpaceOnUse" x1="180.1625" y1="289.5559" x2="294.495" y2="289.5559">
						<stop  offset="0" style="stop-color:#FFFFFF"/>
						<stop  offset="0.9988" style="stop-color:#4DBDBC"/>
					</linearGradient>
					<path class="st1" d="M180.2,279.6c27-3.1,49.3-21.2,59.2-46.6l55.1,42.1l-90.9,71L180.2,279.6z"/>
					<g class="st348">
						<defs>
							<path id="SVGID_667_" class="st348" d="M180.2,279.6c27-3.1,49.3-21.2,59.2-46.6l55.1,42.1l-90.9,71L180.2,279.6z"/>
						</defs>
						<clipPath id="SVGID_3_">
							<use xlink:href="#SVGID_667_"  style="overflow:visible;"/>
						</clipPath>
						<g style="clip-path:url(#SVGID_3_);">
							<g>
								<defs>
									<polyline id="SVGID_669_" points="203.6,346.1 180.2,279.6 185.2,278.9 190,277.8 194.8,276.4 199.4,274.6 203.9,272.6 
										208.1,270.2 212.2,267.6 216.2,264.7 219.9,261.5 223.4,258.1 226.7,254.5 229.7,250.6 232.6,246.5 235.1,242.2 
										237.4,237.7 239.4,233 294.5,275.1 203.6,346.1 									"/>
								</defs>
								<clipPath id="SVGID_4_">
									<use xlink:href="#SVGID_669_"  style="overflow:visible;"/>
								</clipPath>
							</g>
						</g>
					</g>
				</g>
				<g>
					<linearGradient id="SVGID_5_" gradientUnits="userSpaceOnUse" x1="239.4066" y1="245.0559" x2="338.1246" y2="245.0559">
						<stop  offset="0" style="stop-color:#009191"/>
						<stop  offset="1" style="stop-color:#006262"/>
					</linearGradient>
					<polygon class="st4" points="239.4,233 283,215 338.1,257.1 294.5,275.1 					"/>
				</g>
				<g>
					<linearGradient id="SVGID_6_" gradientUnits="userSpaceOnUse" x1="203.5848" y1="301.5812" x2="338.1246" y2="301.5812">
						<stop  offset="0" style="stop-color:#169090"/>
						<stop  offset="0.9988" style="stop-color:#FFE200"/>
					</linearGradient>
					<polygon style="fill:url(#SVGID_6_);" points="294.5,275.1 338.1,257.1 247.2,328.1 203.6,346.1 					"/>
				</g>
			</g>
		</g>
		<g>
			<g class="st348">
				<g>
					<linearGradient id="SVGID_7_" gradientUnits="userSpaceOnUse" x1="226.7204" y1="145.8394" x2="316.3704" y2="145.8394">
						<stop  offset="0" style="stop-color:#FFFFFF"/>
						<stop  offset="0.9988" style="stop-color:#4DBDBC"/>
					</linearGradient>
					<path class="st6" d="M226.7,124l54.7-37.6l34.9,118.8l-65.5-4c0.8-4.7,1.4-9.4,1.4-14.4C252.5,162.5,242.6,140.1,226.7,124z"/>
					<g class="st348">
						<defs>
							<path id="SVGID_674_" class="st348" d="M226.7,124l54.7-37.6l34.9,118.8l-65.5-4c0.8-4.7,1.4-9.4,1.4-14.4
								C252.5,162.5,242.6,140.1,226.7,124z"/>
						</defs>
						<clipPath id="SVGID_8_">
							<use xlink:href="#SVGID_674_"  style="overflow:visible;"/>
						</clipPath>
						<g style="clip-path:url(#SVGID_8_);">
							<g>
								<defs>
									<polyline id="SVGID_676_" points="250.8,201.2 251.1,199.5 251.4,197.7 251.6,195.9 251.8,194.2 252,192.4 252.1,190.5 
										252.2,188.7 252.2,186.9 252.2,182.3 251.9,177.8 251.3,173.4 250.6,169 249.6,164.7 248.4,160.5 247.1,156.4 245.5,152.3 
										243.8,148.4 241.8,144.5 239.7,140.8 237.4,137.2 235,133.7 232.4,130.3 229.6,127.1 226.7,124 281.4,86.5 281.4,86.5 
										316.4,205.2 250.8,201.2 									"/>
								</defs>
								<clipPath id="SVGID_9_">
									<use xlink:href="#SVGID_676_"  style="overflow:visible;"/>
								</clipPath>
							</g>
						</g>
					</g>
				</g>
				<g>
					<linearGradient id="SVGID_10_" gradientUnits="userSpaceOnUse" x1="281.4416" y1="136.827" x2="360" y2="136.827">
						<stop  offset="0" style="stop-color:#169090"/>
						<stop  offset="0.9988" style="stop-color:#FFE200"/>
					</linearGradient>
					<polygon style="fill:url(#SVGID_10_);" points="281.4,86.5 325.1,68.4 360,187.2 316.4,205.2 					"/>
				</g>
			</g>
		</g>
		<g>
			<g class="st348">
				<g>
					<linearGradient id="SVGID_12_" gradientUnits="userSpaceOnUse" x1="23.2643" y1="285.1143" x2="137.3685" y2="285.1143">
						<stop  offset="0" style="stop-color:#FFFFFF"/>
						<stop  offset="0.9988" style="stop-color:#4DBDBC"/>
					</linearGradient>
					<path style="fill:url(#SVGID_12_);" d="M79,226.3c9.5,26.8,31.5,47.8,58.4,54.5L112.7,344l-89.5-83.1L79,226.3z"/>
					<g class="st348">
						<defs>
							<path id="SVGID_680_" class="st348" d="M79,226.3c9.5,26.8,31.5,47.8,58.4,54.5L112.7,344l-89.5-83.1L79,226.3z"/>
						</defs>
						<clipPath id="SVGID_14_">
							<use xlink:href="#SVGID_680_"  style="overflow:visible;"/>
						</clipPath>
						<g style="clip-path:url(#SVGID_14_);">
							<g>
								<defs>
									<polyline id="SVGID_682_" points="112.7,344 23.3,260.8 79,226.3 80.9,231.2 83.1,236 85.6,240.7 88.3,245.1 91.3,249.4 
										94.5,253.5 98,257.4 101.7,261 105.5,264.5 109.6,267.6 113.8,270.5 118.2,273.2 122.8,275.5 127.5,277.6 132.4,279.3 
										137.4,280.8 112.7,344 									"/>
								</defs>
								<clipPath id="SVGID_16_">
									<use xlink:href="#SVGID_682_"  style="overflow:visible;"/>
								</clipPath>
							</g>
						</g>
					</g>
				</g>
				<linearGradient id="SVGID_18_" gradientUnits="userSpaceOnUse" x1="78.9615" y1="244.5029" x2="180.9981" y2="244.5029">
					<stop  offset="0" style="stop-color:#009191"/>
					<stop  offset="1" style="stop-color:#1D2088"/>
				</linearGradient>
				<path style="fill:url(#SVGID_18_);" d="M181,262.7c-3.3-0.8-6.5-1.9-9.6-3.1c-0.2-0.1-0.4-0.2-0.7-0.3c-3-1.2-6-2.6-8.8-4.2
					c0,0,0,0-0.1,0c-2.6-1.4-5.1-3.1-7.5-4.8c-0.7-0.5-1.5-1-2.2-1.6c-1.6-1.2-3-2.5-4.5-3.7c-1.2-1-2.4-2-3.5-3.1
					c-1.5-1.5-3-3-4.4-4.6c-0.7-0.8-1.4-1.6-2.1-2.4c-1.9-2.4-3.8-4.8-5.5-7.4c-0.1-0.1-0.2-0.3-0.3-0.4c-1.8-2.7-3.4-5.6-4.9-8.5
					c-0.5-0.9-0.9-1.9-1.3-2.8c-1.1-2.5-2.3-4.9-3.2-7.5l-43.6,18c0.3,1,0.7,1.9,1.1,2.9c0.6,1.6,1.4,3.1,2.1,4.6
					c0.4,0.9,0.8,1.9,1.3,2.8c1.5,2.9,3.1,5.8,4.9,8.5c0.1,0.1,0.2,0.3,0.3,0.4c1.7,2.6,3.5,5,5.5,7.4c0.7,0.8,1.4,1.6,2.1,2.4
					c1.1,1.2,2.1,2.4,3.2,3.5c0.4,0.4,0.8,0.7,1.2,1.1c1.1,1.1,2.3,2.1,3.5,3.1c0.9,0.8,1.7,1.7,2.7,2.4c0.6,0.5,1.2,0.9,1.8,1.3
					c0.7,0.5,1.4,1.1,2.2,1.6c0.7,0.5,1.3,1,2,1.5c1.8,1.2,3.6,2.3,5.4,3.3c0,0,0,0,0,0c0,0,0,0,0.1,0c1.6,0.9,3.3,1.8,5,2.5
					c1.3,0.6,2.5,1.1,3.8,1.6c0.2,0.1,0.4,0.2,0.7,0.3c0.1,0.1,0.3,0.1,0.4,0.2c1.6,0.6,3.2,1.2,4.8,1.7c1.4,0.5,2.9,0.9,4.4,1.2
					c0,0,0,0,0,0L181,262.7z"/>
				<g>
					<linearGradient id="SVGID_20_" gradientUnits="userSpaceOnUse" x1="112.7377" y1="303.3479" x2="180.9981" y2="303.3479">
						<stop  offset="0" style="stop-color:#009191"/>
						<stop  offset="1" style="stop-color:#006262"/>
					</linearGradient>
					<polygon style="fill:url(#SVGID_20_);" points="137.4,280.8 181,262.7 156.4,325.9 112.7,344 					"/>
				</g>
			</g>
		</g>
		<g>
			<g class="st348">
				<g>
					<linearGradient id="SVGID_22_" gradientUnits="userSpaceOnUse" x1="0" y1="144.605" x2="90.9455" y2="144.605">
						<stop  offset="0" style="stop-color:#FFFFFF"/>
						<stop  offset="0.9988" style="stop-color:#4DBDBC"/>
					</linearGradient>
					<path style="fill:url(#SVGID_22_);" d="M0,199.1L37.1,85.2l53.8,44.8c-16.1,13.9-26.5,35-26.7,59.4c0,5,0.4,9.8,1.1,14.6
						L0,199.1z"/>
					<g class="st348">
						<defs>
							<path id="SVGID_687_" class="st348" d="M0,199.1L37.1,85.2l53.8,44.8c-16.1,13.9-26.5,35-26.7,59.4c0,5,0.4,9.8,1.1,14.6
								L0,199.1z"/>
						</defs>
						<clipPath id="SVGID_24_">
							<use xlink:href="#SVGID_687_"  style="overflow:visible;"/>
						</clipPath>
						<g class="st17">
							<g>
								<defs>
									<polyline id="SVGID_689_" points="88,132.7 85.2,135.6 82.5,138.6 80,141.8 77.6,145.1 75.5,148.5 73.5,152.1 71.6,155.8 
										70,159.6 68.5,163.6 67.3,167.7 66.2,171.8 65.4,176.1 64.8,180.5 64.4,184.9 64.2,189.4 64.2,191.3 64.3,193.1 64.4,195 
										64.5,196.8 64.7,198.6 64.9,200.4 65.1,202.2 65.4,204 0,199.1 37.1,85.2 90.9,130.1 88,132.7 									"/>
								</defs>
								<clipPath id="SVGID_26_">
									<use xlink:href="#SVGID_689_"  style="overflow:visible;"/>
								</clipPath>
							</g>
						</g>
					</g>
				</g>
				<g>
					<linearGradient id="SVGID_27_" gradientUnits="userSpaceOnUse" x1="37.098" y1="98.625" x2="134.5751" y2="98.625">
						<stop  offset="0" style="stop-color:#009191"/>
						<stop  offset="1" style="stop-color:#006262"/>
					</linearGradient>
					<polygon style="fill:url(#SVGID_27_);" points="37.1,85.2 80.7,67.2 134.6,112 90.9,130.1 					"/>
				</g>
				<linearGradient id="SVGID_29_" gradientUnits="userSpaceOnUse" x1="64.2334" y1="158.0083" x2="134.575" y2="158.0083">
					<stop  offset="0" style="stop-color:#009191"/>
					<stop  offset="1" style="stop-color:#1D2088"/>
				</linearGradient>
				<path style="fill:url(#SVGID_29_);" d="M108.1,177.4c-0.1-2-0.2-4-0.2-6c0-2.8,0.2-5.6,0.5-8.3c0.1-0.5,0.1-1,0.2-1.5
					c0.3-2.6,0.7-5.1,1.3-7.6c0.1-0.2,0.1-0.5,0.2-0.7c0.5-2.3,1.2-4.6,1.9-6.8c0.1-0.4,0.3-0.9,0.4-1.3c0.8-2.3,1.7-4.6,2.7-6.8
					c0.3-0.6,0.5-1.1,0.8-1.7c0.8-1.6,1.6-3.2,2.5-4.8c0.5-0.8,1-1.7,1.5-2.5c0.7-1.2,1.5-2.3,2.3-3.4c0.9-1.3,1.8-2.5,2.7-3.7
					c1-1.2,2-2.4,3-3.6c0.5-0.5,1-1.1,1.5-1.6c1.7-1.8,3.4-3.4,5.2-5l-43.6,18c-1.8,1.6-3.6,3.3-5.2,5c-0.5,0.5-1,1.1-1.5,1.6
					c-0.6,0.7-1.3,1.4-1.9,2.1c-0.4,0.4-0.7,1-1,1.4c-0.9,1.2-1.9,2.4-2.7,3.7c-0.4,0.6-0.9,1.2-1.3,1.8c-0.3,0.5-0.6,1.1-0.9,1.6
					c-0.5,0.8-1,1.6-1.5,2.5c-0.4,0.6-0.8,1.2-1.1,1.8c-0.5,1-1,2-1.4,3c-0.3,0.6-0.6,1.1-0.8,1.7c-0.1,0.3-0.3,0.5-0.4,0.8
					c-0.7,1.7-1.4,3.4-2.1,5.2c-0.1,0.3-0.2,0.6-0.3,0.8c-0.1,0.4-0.3,0.9-0.4,1.3c-0.3,1-0.6,1.9-0.9,2.9c-0.4,1.3-0.7,2.6-1,4
					c-0.1,0.2-0.1,0.5-0.2,0.7c0,0.1-0.1,0.2-0.1,0.3c-0.4,1.7-0.7,3.3-0.9,5c-0.1,0.7-0.2,1.5-0.3,2.3c-0.1,0.5-0.1,1-0.2,1.5
					c-0.1,0.5-0.1,0.9-0.2,1.4c-0.2,1.8-0.3,3.5-0.3,5.3c0,0.5,0,1,0,1.6c0,1.2,0,2.4,0.1,3.7c0,0.8,0.1,1.6,0.2,2.4
					c0,0.8,0.1,1.5,0.2,2.3c0,0.4,0,0.8,0.1,1.2c0.2,1.7,0.4,3.4,0.7,5.1l43.6-18c-0.3-2.1-0.6-4.2-0.8-6.3
					C108.2,178.9,108.1,178.2,108.1,177.4z"/>
			</g>
		</g>
		<g>
			<g class="st348">
				<g class="st348">
					<defs>
						<path id="SVGID_693_" class="st348" d="M129.5,97.6l43.6-18c-2.1,0.9-4.2,1.8-6.2,2.9l-43.6,18
							C125.3,99.4,127.4,98.5,129.5,97.6z"/>
					</defs>
					<clipPath id="SVGID_31_">
						<use xlink:href="#SVGID_693_"  style="overflow:visible;"/>
					</clipPath>
					<g class="st21">
						<path class="st354" d="M129.5,97.6l43.6-18c-2.1,0.9-4.2,1.8-6.2,2.9l-43.6,18C125.3,99.4,127.4,98.5,129.5,97.6"/>
					</g>
				</g>
				<g>
					<linearGradient id="SVGID_33_" gradientUnits="userSpaceOnUse" x1="104.1796" y1="69.7984" x2="220.2991" y2="69.7984">
						<stop  offset="0" style="stop-color:#FFFFFF"/>
						<stop  offset="0.9988" style="stop-color:#4DBDBC"/>
					</linearGradient>
					<path style="fill:url(#SVGID_33_);" d="M123.3,100.5l-19.1-66.5l116.1,7.8l-20.4,63.9c-11.2-7.6-24.2-12.3-38.2-13.3
						C147.8,91.4,134.7,94.5,123.3,100.5z"/>
					<g class="st348">
						<defs>
							<path id="SVGID_696_" class="st348" d="M123.3,100.5l-19.1-66.5l116.1,7.8l-20.4,63.9c-11.2-7.6-24.2-12.3-38.2-13.3
								C147.8,91.4,134.7,94.5,123.3,100.5z"/>
						</defs>
						<clipPath id="SVGID_35_">
							<use xlink:href="#SVGID_696_"  style="overflow:visible;"/>
						</clipPath>
						<g style="clip-path:url(#SVGID_35_);">
							<g>
								<defs>
									<polyline id="SVGID_698_" points="199.9,105.7 195.6,103 191.2,100.5 186.6,98.4 181.9,96.5 177,95 172,93.8 166.9,92.9 
										161.8,92.4 156.6,92.2 151.4,92.4 146.4,92.9 141.6,93.8 136.8,95 132.2,96.5 127.7,98.4 123.3,100.5 104.2,33.9 
										220.3,41.8 199.9,105.7 									"/>
								</defs>
								<clipPath id="SVGID_37_">
									<use xlink:href="#SVGID_698_"  style="overflow:visible;"/>
								</clipPath>
							</g>
						</g>
					</g>
				</g>
				<g>
					<linearGradient id="SVGID_39_" gradientUnits="userSpaceOnUse" x1="104.1796" y1="28.8479" x2="263.9287" y2="28.8479">
						<stop  offset="0" style="stop-color:#009191"/>
						<stop  offset="1" style="stop-color:#006262"/>
					</linearGradient>
					<polygon style="fill:url(#SVGID_39_);" points="104.2,33.9 147.8,15.9 263.9,23.8 220.3,41.8 					"/>
				</g>
				<g>
					<linearGradient id="SVGID_41_" gradientUnits="userSpaceOnUse" x1="199.9419" y1="64.7028" x2="263.9287" y2="64.7028">
						<stop  offset="0" style="stop-color:#169090"/>
						<stop  offset="0.9988" style="stop-color:#FFE200"/>
					</linearGradient>
					<polygon style="fill:url(#SVGID_41_);" points="220.3,41.8 263.9,23.8 243.6,87.6 199.9,105.7 					"/>
				</g>
			</g>
		</g>
	</g>
</g>
</svg>
