<?xml version="1.0" encoding="UTF-8" standalone="no"?>
<svg width="304px" height="261px" viewBox="0 0 304 261" version="1.1" xmlns="http://www.w3.org/2000/svg" xmlns:xlink="http://www.w3.org/1999/xlink">
    <!-- Generator: Sketch 49.3 (51167) - http://www.bohemiancoding.com/sketch -->
    <title>IE_F2</title>
    <desc>Created with Sketch.</desc>
    <defs></defs>
    <g id="design" stroke="none" stroke-width="1" fill="none" fill-rule="evenodd">
        <g id="解決方案-ＩＥ腦-" transform="translate(-169.000000, -2032.000000)">
            <g id="IE_F2" transform="translate(121.000000, 2020.000000)">
                <polygon id="Fill-2" fill="#BFE3E3" opacity="0.600000024" points="48.9513889 93.2847222 345.430556 93.2847222 345.430556 44.3333333 48.9513889 44.3333333"></polygon>
                <polygon id="Fill-3" fill="#007575" points="98.876194 117.298611 98.8263889 115.819057 153.269639 113.604167 153.319444 115.083721"></polygon>
                <polygon id="Fill-4" fill="#007575" points="143.994258 131.152778 96.9791667 127.919029 97.0682418 126.534722 144.083333 129.768471"></polygon>
                <path d="M130.64716,212.909038 L175.068118,212.909038 L175.068118,198.097906 L130.64716,198.097906 L130.64716,212.909038 Z M129.305556,214.277778 L176.409722,214.277778 L176.409722,196.729167 L129.305556,196.729167 L129.305556,214.277778 Z" id="Fill-5" fill="#007575"></path>
                <polygon id="Fill-6" fill="#007575" points="168.097222 198.576389 139.465278 198.576389 143.585422 122.856353 144.944141 122.927801 140.900639 197.236749 166.627394 197.236749 160.788444 122.943877 162.144894 122.840278"></polygon>
                <g id="Group-89" transform="translate(48.000000, 12.000000)">
                    <path d="M104.585723,103.247271 C100.525206,103.247271 97.2216289,106.555288 97.2216289,110.621263 C97.2216289,114.687237 100.525206,117.995255 104.585723,117.995255 C108.64624,117.995255 111.949817,114.687237 111.949817,110.621263 C111.949817,106.555288 108.64624,103.247271 104.585723,103.247271 M104.585723,119.335981 C99.7870114,119.335981 95.8827027,115.426424 95.8827027,110.621263 C95.8827027,105.816101 99.7870114,101.906545 104.585723,101.906545 C109.384434,101.906545 113.288743,105.816101 113.288743,110.621263 C113.288743,115.426424 109.384434,119.335981 104.585723,119.335981" id="Fill-7" fill="#007575"></path>
                    <path d="M45.7039003,103.247271 C42.4418299,103.247271 39.7880782,105.904589 39.7880782,109.171491 C39.7880782,112.437499 42.4418299,115.094818 45.7039003,115.094818 C48.9659708,115.094818 51.6197225,112.437499 51.6197225,109.171491 C51.6197225,105.904589 48.9659708,103.247271 45.7039003,103.247271 M45.7039003,116.435544 C41.7036352,116.435544 38.449152,113.177133 38.449152,109.171491 C38.449152,105.165403 41.7036352,101.906545 45.7039003,101.906545 C49.7041654,101.906545 52.9586487,105.165403 52.9586487,109.171491 C52.9586487,113.177133 49.7041654,116.435544 45.7039003,116.435544" id="Fill-9" fill="#007575"></path>
                    <path d="M43.1398121,141.234681 L47.8251611,141.234681 L47.8251611,116.207799 L43.1398121,116.207799 L43.1398121,141.234681 Z M41.8008859,142.575407 L49.1640872,142.575407 L49.1640872,114.867073 L41.8008859,114.867073 L41.8008859,142.575407 Z" id="Fill-11" fill="#007575"></path>
                    <polygon id="Fill-13" fill="#4BC8C8" points="39.3479285 146.938888 52.1663614 146.938888 60.3382742 163.017319 51.7477238 174.901066 50.0602305 174.901066 54.0404117 163.157648 45.6623044 151.60953 37.0869285 163.227366 40.7828111 174.901066 39.3479285 174.901066 30.803348 163.157648"></polygon>
                    <path d="M50.994444,174.230658 L51.4059406,174.230658 L59.5559842,162.955601 L51.7558466,147.609206 L39.7519272,147.609206 L31.5902795,163.100846 L39.6885513,174.230658 L39.8679674,174.230658 L36.3452527,163.103974 L45.6668567,150.475231 L54.7858366,163.044536 L50.994444,174.230658 Z M52.0896856,175.571384 L49.1257493,175.571384 L53.2951654,163.270671 L45.6579305,152.743739 L37.8283366,163.350668 L41.6973869,175.571384 L39.0074842,175.571384 L30.016595,163.214361 L38.9441084,146.268481 L52.5766084,146.268481 L61.1207426,163.078054 L52.0896856,175.571384 Z" id="Fill-14" fill="#007575"></path>
                    <path d="M40.9100537,146.268212 L50.0692013,146.268212 L50.0692013,142.57496 L40.9100537,142.57496 L40.9100537,146.268212 Z M39.5711275,147.608938 L51.4081275,147.608938 L51.4081275,141.234234 L39.5711275,141.234234 L39.5711275,147.608938 Z" id="Fill-15" fill="#007575"></path>
                    <path d="M300.998159,243.769458 L299.659233,243.769458 L299.659233,217.25437 C299.659233,208.982092 292.115723,202.252542 282.843659,202.252542 L18.6155047,202.252542 L18.6168436,202.252542 C9.34477987,202.252542 1.8012698,208.982092 1.8012698,217.25437 L1.8012698,243.769458 L0.462343624,243.769458 L0.462343624,217.25437 C0.462343624,208.243352 8.60569262,200.91271 18.6155047,200.911817 L18.6168436,200.911817 L282.840089,200.911817 C292.853917,200.911817 300.998159,208.242905 300.998159,217.25437 L300.998159,243.769458 Z" id="Fill-16" fill="#007575"></path>
                    <path d="M104.860738,219.364136 L126.863312,219.364136 L126.863312,210.088101 L104.860738,210.088101 L104.860738,219.364136 Z M103.521812,220.704862 L128.202238,220.704862 L128.202238,208.747376 L103.521812,208.747376 L103.521812,220.704862 Z" id="Fill-17" fill="#007575"></path>
                    <polygon id="Fill-18" fill="#4BC8C8" points="34.3359262 220.034499 57.6774262 220.034499 57.6774262 209.417739 34.3359262 209.417739"></polygon>
                    <path d="M35.0053893,219.364136 L57.0079631,219.364136 L57.0079631,210.088101 L35.0053893,210.088101 L35.0053893,219.364136 Z M33.6664631,220.704862 L58.3468893,220.704862 L58.3468893,208.747376 L33.6664631,208.747376 L33.6664631,220.704862 Z" id="Fill-19" fill="#007575"></path>
                    <path d="M251.039342,219.364136 L273.04147,219.364136 L273.04147,210.088101 L251.039342,210.088101 L251.039342,219.364136 Z M249.700416,220.704862 L274.380396,220.704862 L274.380396,208.747376 L249.700416,208.747376 L249.700416,220.704862 Z" id="Fill-20" fill="#007575"></path>
                    <polygon id="Fill-21" fill="#4BC8C8" points="179.884789 220.034499 203.225842 220.034499 203.225842 209.417739 179.884789 209.417739"></polygon>
                    <path d="M180.554252,219.364136 L202.556379,219.364136 L202.556379,210.088101 L180.554252,210.088101 L180.554252,219.364136 Z M179.214879,220.704862 L203.894859,220.704862 L203.894859,208.747376 L179.214879,208.747376 L179.214879,220.704862 Z" id="Fill-22" fill="#007575"></path>
                    <path d="M18.6157279,234.913338 C13.7389124,234.913338 9.77122785,238.886356 9.77122785,243.769279 C9.77122785,248.653096 13.7389124,252.62656 18.6157279,252.62656 C23.4925433,252.62656 27.4602279,248.653096 27.4602279,243.769279 C27.4602279,238.886356 23.4925433,234.913338 18.6157279,234.913338 M18.6157279,253.967286 C13.0002715,253.967286 8.43230168,249.392283 8.43230168,243.769279 C8.43230168,238.146722 13.0002715,233.572612 18.6157279,233.572612 C24.2311842,233.572612 28.799154,238.146722 28.799154,243.769279 C28.799154,249.392283 24.2311842,253.967286 18.6157279,253.967286" id="Fill-23" fill="#007575"></path>
                    <path d="M282.542624,234.913338 C277.665808,234.913338 273.698124,238.886356 273.698124,243.769279 C273.698124,248.653096 277.665808,252.62656 282.542624,252.62656 C287.419439,252.62656 291.387124,248.653096 291.387124,243.769279 C291.387124,238.886356 287.419439,234.913338 282.542624,234.913338 M282.542624,253.967286 C276.927167,253.967286 272.359198,249.392283 272.359198,243.769279 C272.359198,238.146722 276.927167,233.572612 282.542624,233.572612 C288.15808,233.572612 292.72605,238.146722 292.72605,243.769279 C292.72605,249.392283 288.15808,253.967286 282.542624,253.967286" id="Fill-24" fill="#007575"></path>
                    <polygon id="Fill-25" fill="#007575" points="76.8102349 259.442006 78.1491611 259.442006 78.1491611 228.097177 76.8102349 228.097177"></polygon>
                    <polygon id="Fill-26" fill="#007575" points="87.9840201 259.442006 89.3229463 259.442006 89.3229463 228.097177 87.9840201 228.097177"></polygon>
                    <polygon id="Fill-27" fill="#007575" points="99.1573591 259.442006 100.496285 259.442006 100.496285 228.097177 99.1573591 228.097177"></polygon>
                    <polygon id="Fill-28" fill="#007575" points="43.0398389 259.442006 44.3787651 259.442006 44.3787651 228.097177 43.0398389 228.097177"></polygon>
                    <polygon id="Fill-29" fill="#007575" points="54.2131779 259.442006 55.552104 259.442006 55.552104 228.097177 54.2131779 228.097177"></polygon>
                    <polygon id="Fill-30" fill="#007575" points="65.3865168 259.442006 66.725443 259.442006 66.725443 228.097177 65.3865168 228.097177"></polygon>
                    <polygon id="Fill-31" fill="#007575" points="110.330698 259.442006 111.669624 259.442006 111.669624 228.097177 110.330698 228.097177"></polygon>
                    <polygon id="Fill-32" fill="#007575" points="121.504037 259.442006 122.842963 259.442006 122.842963 228.097177 121.504037 228.097177"></polygon>
                    <polygon id="Fill-33" fill="#007575" points="132.677376 259.442006 134.016302 259.442006 134.016302 228.097177 132.677376 228.097177"></polygon>
                    <polygon id="Fill-34" fill="#007575" points="143.850715 259.442006 145.189641 259.442006 145.189641 228.097177 143.850715 228.097177"></polygon>
                    <polygon id="Fill-35" fill="#007575" points="155.024054 259.442006 156.36298 259.442006 156.36298 228.097177 155.024054 228.097177"></polygon>
                    <polygon id="Fill-36" fill="#007575" points="166.197839 259.442006 167.536765 259.442006 167.536765 228.097177 166.197839 228.097177"></polygon>
                    <polygon id="Fill-37" fill="#007575" points="177.371178 259.442006 178.710104 259.442006 178.710104 228.097177 177.371178 228.097177"></polygon>
                    <polygon id="Fill-38" fill="#007575" points="188.544517 259.442006 189.883443 259.442006 189.883443 228.097177 188.544517 228.097177"></polygon>
                    <polygon id="Fill-39" fill="#007575" points="199.717856 259.442006 201.056782 259.442006 201.056782 228.097177 199.717856 228.097177"></polygon>
                    <polygon id="Fill-40" fill="#007575" points="210.891195 259.442006 212.230121 259.442006 212.230121 228.097177 210.891195 228.097177"></polygon>
                    <polygon id="Fill-41" fill="#007575" points="222.064534 259.442006 223.40346 259.442006 223.40346 228.097177 222.064534 228.097177"></polygon>
                    <polygon id="Fill-42" fill="#007575" points="233.238319 259.442006 234.577245 259.442006 234.577245 228.097177 233.238319 228.097177"></polygon>
                    <polygon id="Fill-43" fill="#007575" points="244.411658 259.442006 245.750584 259.442006 245.750584 228.097177 244.411658 228.097177"></polygon>
                    <polygon id="Fill-44" fill="#007575" points="255.584997 259.442006 256.923923 259.442006 256.923923 228.097177 255.584997 228.097177"></polygon>
                    <path d="M17.0593154,228.411801 C8.55847315,228.411801 1.64202685,235.337097 1.64202685,243.849812 C1.64202685,252.362527 8.55847315,259.288269 17.0593154,259.288269 L284.581674,259.288269 C293.082517,259.288269 299.998963,252.362527 299.998963,243.849812 C299.998963,235.337097 293.082517,228.411801 284.581674,228.411801 L17.0593154,228.411801 Z M284.581674,260.628995 L17.0593154,260.628995 C7.81983221,260.628995 0.303100671,253.101714 0.303100671,243.849812 C0.303100671,234.59791 7.81983221,227.071075 17.0593154,227.071075 L284.581674,227.071075 C293.820711,227.071075 301.337889,234.59791 301.337889,243.849812 C301.337889,253.101714 293.820711,260.628995 284.581674,260.628995 Z" id="Fill-45" fill="#007575"></path>
                    <polygon id="Fill-46" fill="#007575" points="196.754143 105.252684 196.704602 103.912852 250.858364 101.907126 250.907904 103.246958"></polygon>
                    <polygon id="Fill-47" fill="#007575" points="242.007839 118.746374 195.129802 115.620695 195.218617 114.282651 242.096654 117.40833"></polygon>
                    <path d="M229.060869,200.911727 L273.393161,200.911727 L273.393161,186.403733 L229.060869,186.403733 L229.060869,200.911727 Z M227.721943,202.252453 L274.732087,202.252453 L274.732087,185.063007 L227.721943,185.063007 L227.721943,202.252453 Z" id="Fill-48" fill="#007575"></path>
                    <polygon id="Fill-49" fill="#007575" points="265.903878 186.403689 237.726622 186.403689 241.781337 110.622291 243.118478 110.693796 239.13919 185.062963 264.457391 185.062963 258.711166 110.709885 260.046076 110.606202"></polygon>
                    <path d="M250.883,103.247271 C246.822484,103.247271 243.518906,106.555288 243.518906,110.621263 C243.518906,114.687237 246.822484,117.995255 250.883,117.995255 C254.943517,117.995255 258.247094,114.687237 258.247094,110.621263 C258.247094,106.555288 254.943517,103.247271 250.883,103.247271 M250.883,119.335981 C246.084289,119.335981 242.17998,115.426424 242.17998,110.621263 C242.17998,105.816101 246.084289,101.906545 250.883,101.906545 C255.681712,101.906545 259.58602,105.816101 259.58602,110.621263 C259.58602,115.426424 255.681712,119.335981 250.883,119.335981" id="Fill-50" fill="#007575"></path>
                    <path d="M192.001222,103.247271 C188.739152,103.247271 186.0854,105.904589 186.0854,109.171491 C186.0854,112.437499 188.739152,115.094818 192.001222,115.094818 C195.263293,115.094818 197.917045,112.437499 197.917045,109.171491 C197.917045,105.904589 195.263293,103.247271 192.001222,103.247271 M192.001222,116.435544 C188.000957,116.435544 184.746474,113.177133 184.746474,109.171491 C184.746474,105.165403 188.000957,101.906545 192.001222,101.906545 C196.001488,101.906545 199.255971,105.165403 199.255971,109.171491 C199.255971,113.177133 196.001488,116.435544 192.001222,116.435544" id="Fill-51" fill="#007575"></path>
                    <path d="M189.437134,141.234681 L194.122483,141.234681 L194.122483,116.207799 L189.437134,116.207799 L189.437134,141.234681 Z M188.098208,142.575407 L195.461409,142.575407 L195.461409,114.867073 L188.098208,114.867073 L188.098208,142.575407 Z" id="Fill-52" fill="#007575"></path>
                    <polygon id="Fill-53" fill="#4BC8C8" points="185.645251 146.938888 198.463684 146.938888 206.635596 163.017319 198.045046 174.901066 196.357553 174.901066 200.337734 163.157648 191.959627 151.60953 183.384251 163.227366 187.080133 174.901066 185.645251 174.901066 177.10067 163.157648"></polygon>
                    <path d="M197.291766,174.230658 L197.703263,174.230658 L205.853306,162.955601 L198.053169,147.609206 L186.049249,147.609206 L177.887602,163.100846 L185.985873,174.230658 L186.16529,174.230658 L182.642575,163.103974 L191.964179,150.475231 L201.083159,163.044536 L197.291766,174.230658 Z M198.387008,175.571384 L195.423071,175.571384 L199.592488,163.270671 L191.955253,152.743739 L184.125659,163.350668 L187.994709,175.571384 L185.304806,175.571384 L176.313917,163.214361 L185.241431,146.268481 L198.873931,146.268481 L207.418065,163.078054 L198.387008,175.571384 Z" id="Fill-54" fill="#007575"></path>
                    <path d="M187.207376,146.268212 L196.366523,146.268212 L196.366523,142.57496 L187.207376,142.57496 L187.207376,146.268212 Z M185.86845,147.608938 L197.70545,147.608938 L197.70545,141.234234 L185.86845,141.234234 L185.86845,147.608938 Z" id="Fill-55" fill="#007575"></path>
                    <polygon id="Fill-56" fill="#007575" points="303.370067 81.8026297 0.267083557 81.8026297 0.267083557 19.1849247 1.60600973 19.1849247 1.60600973 80.4619039 303.370067 80.4619039"></polygon>
                    <path d="M24.9911141,27.5031452 L26.3300403,27.5031452 L26.3300403,24.9946472 L24.9911141,24.9946472 L24.9911141,27.5031452 Z M24.9911141,32.8660484 L26.3300403,32.8660484 L26.3300403,30.1845968 L24.9911141,30.1845968 L24.9911141,32.8660484 Z M24.9911141,38.2289516 L26.3300403,38.2289516 L26.3300403,35.5475 L24.9911141,35.5475 L24.9911141,38.2289516 Z M24.9911141,43.5918548 L26.3300403,43.5918548 L26.3300403,40.9104032 L24.9911141,40.9104032 L24.9911141,43.5918548 Z M24.9911141,48.9547581 L26.3300403,48.9547581 L26.3300403,46.2733065 L24.9911141,46.2733065 L24.9911141,48.9547581 Z M24.9911141,54.3176613 L26.3300403,54.3176613 L26.3300403,51.6362097 L24.9911141,51.6362097 L24.9911141,54.3176613 Z M24.9911141,59.6805645 L26.3300403,59.6805645 L26.3300403,56.9991129 L24.9911141,56.9991129 L24.9911141,59.6805645 Z M24.9911141,65.0434677 L26.3300403,65.0434677 L26.3300403,62.3620161 L24.9911141,62.3620161 L24.9911141,65.0434677 Z M24.9911141,70.406371 L26.3300403,70.406371 L26.3300403,67.7249194 L24.9911141,67.7249194 L24.9911141,70.406371 Z M24.9911141,75.7692742 L26.3300403,75.7692742 L26.3300403,73.0878226 L24.9911141,73.0878226 L24.9911141,75.7692742 Z M24.9911141,81.1321774 L26.3300403,81.1321774 L26.3300403,78.4507258 L24.9911141,78.4507258 L24.9911141,81.1321774 Z" id="Fill-57" fill="#007575"></path>
                    <path d="M50.8056107,27.5031452 L52.1445369,27.5031452 L52.1445369,24.9946472 L50.8056107,24.9946472 L50.8056107,27.5031452 Z M50.8056107,32.8660484 L52.1445369,32.8660484 L52.1445369,30.1845968 L50.8056107,30.1845968 L50.8056107,32.8660484 Z M50.8056107,38.2289516 L52.1445369,38.2289516 L52.1445369,35.5475 L50.8056107,35.5475 L50.8056107,38.2289516 Z M50.8056107,43.5918548 L52.1445369,43.5918548 L52.1445369,40.9104032 L50.8056107,40.9104032 L50.8056107,43.5918548 Z M50.8056107,48.9547581 L52.1445369,48.9547581 L52.1445369,46.2733065 L50.8056107,46.2733065 L50.8056107,48.9547581 Z M50.8056107,54.3176613 L52.1445369,54.3176613 L52.1445369,51.6362097 L50.8056107,51.6362097 L50.8056107,54.3176613 Z M50.8056107,59.6805645 L52.1445369,59.6805645 L52.1445369,56.9991129 L50.8056107,56.9991129 L50.8056107,59.6805645 Z M50.8056107,65.0434677 L52.1445369,65.0434677 L52.1445369,62.3620161 L50.8056107,62.3620161 L50.8056107,65.0434677 Z M50.8056107,70.406371 L52.1445369,70.406371 L52.1445369,67.7249194 L50.8056107,67.7249194 L50.8056107,70.406371 Z M50.8056107,75.7692742 L52.1445369,75.7692742 L52.1445369,73.0878226 L50.8056107,73.0878226 L50.8056107,75.7692742 Z M50.8056107,81.1321774 L52.1445369,81.1321774 L52.1445369,78.4507258 L50.8056107,78.4507258 L50.8056107,81.1321774 Z" id="Fill-58" fill="#007575"></path>
                    <path d="M76.6201074,27.5031452 L77.9590336,27.5031452 L77.9590336,24.9946472 L76.6201074,24.9946472 L76.6201074,27.5031452 Z M76.6201074,32.8660484 L77.9590336,32.8660484 L77.9590336,30.1845968 L76.6201074,30.1845968 L76.6201074,32.8660484 Z M76.6201074,38.2289516 L77.9590336,38.2289516 L77.9590336,35.5475 L76.6201074,35.5475 L76.6201074,38.2289516 Z M76.6201074,43.5918548 L77.9590336,43.5918548 L77.9590336,40.9104032 L76.6201074,40.9104032 L76.6201074,43.5918548 Z M76.6201074,48.9547581 L77.9590336,48.9547581 L77.9590336,46.2733065 L76.6201074,46.2733065 L76.6201074,48.9547581 Z M76.6201074,54.3176613 L77.9590336,54.3176613 L77.9590336,51.6362097 L76.6201074,51.6362097 L76.6201074,54.3176613 Z M76.6201074,59.6805645 L77.9590336,59.6805645 L77.9590336,56.9991129 L76.6201074,56.9991129 L76.6201074,59.6805645 Z M76.6201074,65.0434677 L77.9590336,65.0434677 L77.9590336,62.3620161 L76.6201074,62.3620161 L76.6201074,65.0434677 Z M76.6201074,70.406371 L77.9590336,70.406371 L77.9590336,67.7249194 L76.6201074,67.7249194 L76.6201074,70.406371 Z M76.6201074,75.7692742 L77.9590336,75.7692742 L77.9590336,73.0878226 L76.6201074,73.0878226 L76.6201074,75.7692742 Z M76.6201074,81.1321774 L77.9590336,81.1321774 L77.9590336,78.4507258 L76.6201074,78.4507258 L76.6201074,81.1321774 Z" id="Fill-59" fill="#007575"></path>
                    <path d="M102.434158,27.5031452 L103.773084,27.5031452 L103.773084,24.9946472 L102.434158,24.9946472 L102.434158,27.5031452 Z M102.434158,32.8660484 L103.773084,32.8660484 L103.773084,30.1845968 L102.434158,30.1845968 L102.434158,32.8660484 Z M102.434158,38.2289516 L103.773084,38.2289516 L103.773084,35.5475 L102.434158,35.5475 L102.434158,38.2289516 Z M102.434158,43.5918548 L103.773084,43.5918548 L103.773084,40.9104032 L102.434158,40.9104032 L102.434158,43.5918548 Z M102.434158,48.9547581 L103.773084,48.9547581 L103.773084,46.2733065 L102.434158,46.2733065 L102.434158,48.9547581 Z M102.434158,54.3176613 L103.773084,54.3176613 L103.773084,51.6362097 L102.434158,51.6362097 L102.434158,54.3176613 Z M102.434158,59.6805645 L103.773084,59.6805645 L103.773084,56.9991129 L102.434158,56.9991129 L102.434158,59.6805645 Z M102.434158,65.0434677 L103.773084,65.0434677 L103.773084,62.3620161 L102.434158,62.3620161 L102.434158,65.0434677 Z M102.434158,70.406371 L103.773084,70.406371 L103.773084,67.7249194 L102.434158,67.7249194 L102.434158,70.406371 Z M102.434158,75.7692742 L103.773084,75.7692742 L103.773084,73.0878226 L102.434158,73.0878226 L102.434158,75.7692742 Z M102.434158,81.1321774 L103.773084,81.1321774 L103.773084,78.4507258 L102.434158,78.4507258 L102.434158,81.1321774 Z" id="Fill-60" fill="#007575"></path>
                    <path d="M128.248208,27.5031452 L129.587134,27.5031452 L129.587134,24.9946472 L128.248208,24.9946472 L128.248208,27.5031452 Z M128.248208,32.8660484 L129.587134,32.8660484 L129.587134,30.1845968 L128.248208,30.1845968 L128.248208,32.8660484 Z M128.248208,38.2289516 L129.587134,38.2289516 L129.587134,35.5475 L128.248208,35.5475 L128.248208,38.2289516 Z M128.248208,43.5918548 L129.587134,43.5918548 L129.587134,40.9104032 L128.248208,40.9104032 L128.248208,43.5918548 Z M128.248208,48.9547581 L129.587134,48.9547581 L129.587134,46.2733065 L128.248208,46.2733065 L128.248208,48.9547581 Z M128.248208,54.3176613 L129.587134,54.3176613 L129.587134,51.6362097 L128.248208,51.6362097 L128.248208,54.3176613 Z M128.248208,59.6805645 L129.587134,59.6805645 L129.587134,56.9991129 L128.248208,56.9991129 L128.248208,59.6805645 Z M128.248208,65.0434677 L129.587134,65.0434677 L129.587134,62.3620161 L128.248208,62.3620161 L128.248208,65.0434677 Z M128.248208,70.406371 L129.587134,70.406371 L129.587134,67.7249194 L128.248208,67.7249194 L128.248208,70.406371 Z M128.248208,75.7692742 L129.587134,75.7692742 L129.587134,73.0878226 L128.248208,73.0878226 L128.248208,75.7692742 Z M128.248208,81.1321774 L129.587134,81.1321774 L129.587134,78.4507258 L128.248208,78.4507258 L128.248208,81.1321774 Z" id="Fill-61" fill="#007575"></path>
                    <path d="M154.062705,27.5031452 L155.401631,27.5031452 L155.401631,24.9946472 L154.062705,24.9946472 L154.062705,27.5031452 Z M154.062705,32.8660484 L155.401631,32.8660484 L155.401631,30.1845968 L154.062705,30.1845968 L154.062705,32.8660484 Z M154.062705,38.2289516 L155.401631,38.2289516 L155.401631,35.5475 L154.062705,35.5475 L154.062705,38.2289516 Z M154.062705,43.5918548 L155.401631,43.5918548 L155.401631,40.9104032 L154.062705,40.9104032 L154.062705,43.5918548 Z M154.062705,48.9547581 L155.401631,48.9547581 L155.401631,46.2733065 L154.062705,46.2733065 L154.062705,48.9547581 Z M154.062705,54.3176613 L155.401631,54.3176613 L155.401631,51.6362097 L154.062705,51.6362097 L154.062705,54.3176613 Z M154.062705,59.6805645 L155.401631,59.6805645 L155.401631,56.9991129 L154.062705,56.9991129 L154.062705,59.6805645 Z M154.062705,65.0434677 L155.401631,65.0434677 L155.401631,62.3620161 L154.062705,62.3620161 L154.062705,65.0434677 Z M154.062705,70.406371 L155.401631,70.406371 L155.401631,67.7249194 L154.062705,67.7249194 L154.062705,70.406371 Z M154.062705,75.7692742 L155.401631,75.7692742 L155.401631,73.0878226 L154.062705,73.0878226 L154.062705,75.7692742 Z M154.062705,81.1321774 L155.401631,81.1321774 L155.401631,78.4507258 L154.062705,78.4507258 L154.062705,81.1321774 Z" id="Fill-62" fill="#007575"></path>
                    <path d="M179.877201,27.5031452 L181.216128,27.5031452 L181.216128,24.9946472 L179.877201,24.9946472 L179.877201,27.5031452 Z M179.877201,32.8660484 L181.216128,32.8660484 L181.216128,30.1845968 L179.877201,30.1845968 L179.877201,32.8660484 Z M179.877201,38.2289516 L181.216128,38.2289516 L181.216128,35.5475 L179.877201,35.5475 L179.877201,38.2289516 Z M179.877201,43.5918548 L181.216128,43.5918548 L181.216128,40.9104032 L179.877201,40.9104032 L179.877201,43.5918548 Z M179.877201,48.9547581 L181.216128,48.9547581 L181.216128,46.2733065 L179.877201,46.2733065 L179.877201,48.9547581 Z M179.877201,54.3176613 L181.216128,54.3176613 L181.216128,51.6362097 L179.877201,51.6362097 L179.877201,54.3176613 Z M179.877201,59.6805645 L181.216128,59.6805645 L181.216128,56.9991129 L179.877201,56.9991129 L179.877201,59.6805645 Z M179.877201,65.0434677 L181.216128,65.0434677 L181.216128,62.3620161 L179.877201,62.3620161 L179.877201,65.0434677 Z M179.877201,70.406371 L181.216128,70.406371 L181.216128,67.7249194 L179.877201,67.7249194 L179.877201,70.406371 Z M179.877201,75.7692742 L181.216128,75.7692742 L181.216128,73.0878226 L179.877201,73.0878226 L179.877201,75.7692742 Z M179.877201,81.1321774 L181.216128,81.1321774 L181.216128,78.4507258 L179.877201,78.4507258 L179.877201,81.1321774 Z" id="Fill-63" fill="#007575"></path>
                    <path d="M205.691252,27.5031452 L207.030178,27.5031452 L207.030178,24.9946472 L205.691252,24.9946472 L205.691252,27.5031452 Z M205.691252,32.8660484 L207.030178,32.8660484 L207.030178,30.1845968 L205.691252,30.1845968 L205.691252,32.8660484 Z M205.691252,38.2289516 L207.030178,38.2289516 L207.030178,35.5475 L205.691252,35.5475 L205.691252,38.2289516 Z M205.691252,43.5918548 L207.030178,43.5918548 L207.030178,40.9104032 L205.691252,40.9104032 L205.691252,43.5918548 Z M205.691252,48.9547581 L207.030178,48.9547581 L207.030178,46.2733065 L205.691252,46.2733065 L205.691252,48.9547581 Z M205.691252,54.3176613 L207.030178,54.3176613 L207.030178,51.6362097 L205.691252,51.6362097 L205.691252,54.3176613 Z M205.691252,59.6805645 L207.030178,59.6805645 L207.030178,56.9991129 L205.691252,56.9991129 L205.691252,59.6805645 Z M205.691252,65.0434677 L207.030178,65.0434677 L207.030178,62.3620161 L205.691252,62.3620161 L205.691252,65.0434677 Z M205.691252,70.406371 L207.030178,70.406371 L207.030178,67.7249194 L205.691252,67.7249194 L205.691252,70.406371 Z M205.691252,75.7692742 L207.030178,75.7692742 L207.030178,73.0878226 L205.691252,73.0878226 L205.691252,75.7692742 Z M205.691252,81.1321774 L207.030178,81.1321774 L207.030178,78.4507258 L205.691252,78.4507258 L205.691252,81.1321774 Z" id="Fill-64" fill="#007575"></path>
                    <path d="M231.505302,27.5031452 L232.844228,27.5031452 L232.844228,24.9946472 L231.505302,24.9946472 L231.505302,27.5031452 Z M231.505302,32.8660484 L232.844228,32.8660484 L232.844228,30.1845968 L231.505302,30.1845968 L231.505302,32.8660484 Z M231.505302,38.2289516 L232.844228,38.2289516 L232.844228,35.5475 L231.505302,35.5475 L231.505302,38.2289516 Z M231.505302,43.5918548 L232.844228,43.5918548 L232.844228,40.9104032 L231.505302,40.9104032 L231.505302,43.5918548 Z M231.505302,48.9547581 L232.844228,48.9547581 L232.844228,46.2733065 L231.505302,46.2733065 L231.505302,48.9547581 Z M231.505302,54.3176613 L232.844228,54.3176613 L232.844228,51.6362097 L231.505302,51.6362097 L231.505302,54.3176613 Z M231.505302,59.6805645 L232.844228,59.6805645 L232.844228,56.9991129 L231.505302,56.9991129 L231.505302,59.6805645 Z M231.505302,65.0434677 L232.844228,65.0434677 L232.844228,62.3620161 L231.505302,62.3620161 L231.505302,65.0434677 Z M231.505302,70.406371 L232.844228,70.406371 L232.844228,67.7249194 L231.505302,67.7249194 L231.505302,70.406371 Z M231.505302,75.7692742 L232.844228,75.7692742 L232.844228,73.0878226 L231.505302,73.0878226 L231.505302,75.7692742 Z M231.505302,81.1321774 L232.844228,81.1321774 L232.844228,78.4507258 L231.505302,78.4507258 L231.505302,81.1321774 Z" id="Fill-65" fill="#007575"></path>
                    <path d="M257.319799,27.5031452 L258.658725,27.5031452 L258.658725,24.9946472 L257.319799,24.9946472 L257.319799,27.5031452 Z M257.319799,32.8660484 L258.658725,32.8660484 L258.658725,30.1845968 L257.319799,30.1845968 L257.319799,32.8660484 Z M257.319799,38.2289516 L258.658725,38.2289516 L258.658725,35.5475 L257.319799,35.5475 L257.319799,38.2289516 Z M257.319799,43.5918548 L258.658725,43.5918548 L258.658725,40.9104032 L257.319799,40.9104032 L257.319799,43.5918548 Z M257.319799,48.9547581 L258.658725,48.9547581 L258.658725,46.2733065 L257.319799,46.2733065 L257.319799,48.9547581 Z M257.319799,54.3176613 L258.658725,54.3176613 L258.658725,51.6362097 L257.319799,51.6362097 L257.319799,54.3176613 Z M257.319799,59.6805645 L258.658725,59.6805645 L258.658725,56.9991129 L257.319799,56.9991129 L257.319799,59.6805645 Z M257.319799,65.0434677 L258.658725,65.0434677 L258.658725,62.3620161 L257.319799,62.3620161 L257.319799,65.0434677 Z M257.319799,70.406371 L258.658725,70.406371 L258.658725,67.7249194 L257.319799,67.7249194 L257.319799,70.406371 Z M257.319799,75.7692742 L258.658725,75.7692742 L258.658725,73.0878226 L257.319799,73.0878226 L257.319799,75.7692742 Z M257.319799,81.1321774 L258.658725,81.1321774 L258.658725,78.4507258 L257.319799,78.4507258 L257.319799,81.1321774 Z" id="Fill-66" fill="#007575"></path>
                    <path d="M283.133849,27.5031452 L284.472775,27.5031452 L284.472775,24.9946472 L283.133849,24.9946472 L283.133849,27.5031452 Z M283.133849,32.8660484 L284.472775,32.8660484 L284.472775,30.1845968 L283.133849,30.1845968 L283.133849,32.8660484 Z M283.133849,38.2289516 L284.472775,38.2289516 L284.472775,35.5475 L283.133849,35.5475 L283.133849,38.2289516 Z M283.133849,43.5918548 L284.472775,43.5918548 L284.472775,40.9104032 L283.133849,40.9104032 L283.133849,43.5918548 Z M283.133849,48.9547581 L284.472775,48.9547581 L284.472775,46.2733065 L283.133849,46.2733065 L283.133849,48.9547581 Z M283.133849,54.3176613 L284.472775,54.3176613 L284.472775,51.6362097 L283.133849,51.6362097 L283.133849,54.3176613 Z M283.133849,59.6805645 L284.472775,59.6805645 L284.472775,56.9991129 L283.133849,56.9991129 L283.133849,59.6805645 Z M283.133849,65.0434677 L284.472775,65.0434677 L284.472775,62.3620161 L283.133849,62.3620161 L283.133849,65.0434677 Z M283.133849,70.406371 L284.472775,70.406371 L284.472775,67.7249194 L283.133849,67.7249194 L283.133849,70.406371 Z M283.133849,75.7692742 L284.472775,75.7692742 L284.472775,73.0878226 L283.133849,73.0878226 L283.133849,75.7692742 Z M283.133849,81.1321774 L284.472775,81.1321774 L284.472775,78.4507258 L283.133849,78.4507258 L283.133849,81.1321774 Z" id="Fill-67" fill="#007575"></path>
                    <path d="M0.936412752,81.8026297 L0.936412752,80.4619039 C24.6675403,80.4619039 83.6369732,77.302707 140.849289,68.8252977 C230.395332,55.5561344 263.158409,37.4746593 274.874906,24.6421257 L275.863034,25.5462218 C266.560621,35.735291 248.613208,44.942502 222.518876,52.9131169 C200.725621,59.5702675 173.313785,65.3698004 141.045218,70.1517224 C83.7623859,78.6394106 24.7054765,81.8026297 0.936412752,81.8026297" id="Fill-68" fill="#007575"></path>
                    <polygon id="Fill-69" fill="#007575" points="276.038433 32.3939341 274.699507 32.3939341 274.699507 25.7644919 265.886695 25.7644919 265.886695 24.4237661 276.038433 24.4237661"></polygon>
                    <path d="M45.7913322,181.381374 L47.1302584,181.381374 L47.1302584,178.699923 L45.7913322,178.699923 L45.7913322,181.381374 Z M45.7913322,186.744278 L47.1302584,186.744278 L47.1302584,184.062826 L45.7913322,184.062826 L45.7913322,186.744278 Z M45.7913322,192.107181 L47.1302584,192.107181 L47.1302584,189.425729 L45.7913322,189.425729 L45.7913322,192.107181 Z M45.7913322,197.470084 L47.1302584,197.470084 L47.1302584,194.788632 L45.7913322,194.788632 L45.7913322,197.470084 Z M45.7913322,202.832987 L47.1302584,202.832987 L47.1302584,200.151536 L45.7913322,200.151536 L45.7913322,202.832987 Z M45.7913322,208.19589 L47.1302584,208.19589 L47.1302584,205.514439 L45.7913322,205.514439 L45.7913322,208.19589 Z" id="Fill-70" fill="#007575"></path>
                    <path d="M191.110346,181.381374 L192.449272,181.381374 L192.449272,178.699923 L191.110346,178.699923 L191.110346,181.381374 Z M191.110346,186.744278 L192.449272,186.744278 L192.449272,184.062826 L191.110346,184.062826 L191.110346,186.744278 Z M191.110346,192.107181 L192.449272,192.107181 L192.449272,189.425729 L191.110346,189.425729 L191.110346,192.107181 Z M191.110346,197.470084 L192.449272,197.470084 L192.449272,194.788632 L191.110346,194.788632 L191.110346,197.470084 Z M191.110346,202.832987 L192.449272,202.832987 L192.449272,200.151536 L191.110346,200.151536 L191.110346,202.832987 Z M191.110346,208.19589 L192.449272,208.19589 L192.449272,205.514439 L191.110346,205.514439 L191.110346,208.19589 Z" id="Fill-71" fill="#007575"></path>
                    <path d="M133.080482,70.5555491 C133.080482,73.0868394 131.039958,75.137703 128.522777,75.137703 C126.00515,75.137703 123.964626,73.0868394 123.964626,70.5555491 C123.964626,68.0255995 126.00515,65.9733952 128.522777,65.9733952 C131.039958,65.9733952 133.080482,68.0255995 133.080482,70.5555491" id="Fill-72" fill="#D1E3E5"></path>
                    <path d="M128.522509,66.6435346 C126.378442,66.6435346 124.634268,68.3985447 124.634268,70.5557725 C124.634268,72.7125534 126.378442,74.4675635 128.522509,74.4675635 C130.666577,74.4675635 132.410751,72.7125534 132.410751,70.5557725 C132.410751,68.3985447 130.666577,66.6435346 128.522509,66.6435346 M128.522509,75.8082893 C125.640248,75.8082893 123.295342,73.4517403 123.295342,70.5557725 C123.295342,67.658911 125.640248,65.3028088 128.522509,65.3028088 C131.404771,65.3028088 133.749677,67.658911 133.749677,70.5557725 C133.749677,73.4517403 131.404771,75.8082893 128.522509,75.8082893" id="Fill-73" fill="#007575"></path>
                    <path d="M77.2895705,80.5388169 C74.771943,80.5388169 72.7314195,78.4879533 72.7314195,75.956663 C72.7314195,73.4262665 74.771943,71.3745091 77.2895705,71.3745091 C79.8067517,71.3745091 81.8472752,73.4262665 81.8472752,75.956663 C81.8472752,78.4879533 79.8067517,80.5388169 77.2895705,80.5388169 Z" id="Fill-74" fill="#D1E3E5"></path>
                    <path d="M77.2893919,72.0448273 C75.1453248,72.0448273 73.4011503,73.7998374 73.4011503,75.9566183 C73.4011503,78.1133992 75.1453248,79.8684093 77.2893919,79.8684093 C79.4334591,79.8684093 81.1776336,78.1133992 81.1776336,75.9566183 C81.1776336,73.7998374 79.4334591,72.0448273 77.2893919,72.0448273 M77.2893919,81.2091351 C74.4071302,81.2091351 72.0622242,78.852586 72.0622242,75.9566183 C72.0622242,73.0602036 74.4071302,70.7041015 77.2893919,70.7041015 C80.1716537,70.7041015 82.5165597,73.0602036 82.5165597,75.9566183 C82.5165597,78.852586 80.1716537,81.2091351 77.2893919,81.2091351" id="Fill-75" fill="#007575"></path>
                    <path d="M185.104324,61.9976069 C185.104324,64.5275565 183.063801,66.5797608 180.54662,66.5797608 C178.028992,66.5797608 175.988469,64.5275565 175.988469,61.9976069 C175.988469,59.4663165 178.028992,57.415453 180.54662,57.415453 C183.063801,57.415453 185.104324,59.4663165 185.104324,61.9976069" id="Fill-76" fill="#D1E3E5"></path>
                    <path d="M180.546441,58.085503 C178.402374,58.085503 176.6582,59.8405131 176.6582,61.9977409 C176.6582,64.1545218 178.402374,65.9095319 180.546441,65.9095319 C182.690508,65.9095319 184.434683,64.1545218 184.434683,61.9977409 C184.434683,59.8405131 182.690508,58.085503 180.546441,58.085503 M180.546441,67.2502577 C177.66418,67.2502577 175.319273,64.8937087 175.319273,61.9977409 C175.319273,59.1008794 177.66418,56.7447772 180.546441,56.7447772 C183.428703,56.7447772 185.773609,59.1008794 185.773609,61.9977409 C185.773609,64.8937087 183.428703,67.2502577 180.546441,67.2502577" id="Fill-77" fill="#007575"></path>
                    <path d="M236.732916,48.808172 C236.732916,51.3394624 234.692393,53.3903259 232.175211,53.3903259 C229.657584,53.3903259 227.61706,51.3394624 227.61706,48.808172 C227.61706,46.2782224 229.657584,44.2260181 232.175211,44.2260181 C234.692393,44.2260181 236.732916,46.2782224 236.732916,48.808172" id="Fill-78" fill="#D1E3E5"></path>
                    <path d="M232.174899,44.8964704 C230.030832,44.8964704 228.286657,46.6514805 228.286657,48.8082614 C228.286657,50.9650423 230.030832,52.7200524 232.174899,52.7200524 C234.318966,52.7200524 236.063587,50.9650423 236.063587,48.8082614 C236.063587,46.6514805 234.318966,44.8964704 232.174899,44.8964704 M232.174899,54.0607782 C229.292637,54.0607782 226.947731,51.7042292 226.947731,48.8082614 C226.947731,45.9118468 229.292637,43.5557446 232.174899,43.5557446 C235.057161,43.5557446 237.402513,45.9118468 237.402513,48.8082614 C237.402513,51.7042292 235.057161,54.0607782 232.174899,54.0607782" id="Fill-79" fill="#007575"></path>
                    <polygon id="Fill-80" fill="#007575" points="105.577153 7.93511794 108.994093 1.33874698 111.562153 1.33874698 106.753177 10.1897718 106.753177 15.7971341 104.382831 15.7971341 104.382831 10.2688747 99.5925993 1.33874698 102.160213 1.33874698"></polygon>
                    <path d="M114.232775,15.7972681 L116.553581,15.7972681 L116.553581,4.85962702 L114.232775,4.85962702 L114.232775,15.7972681 Z M114.094419,1.96187164 C114.094419,1.54669355 114.207336,1.22670699 114.435399,1.00280578 C114.661678,0.778457661 114.986144,0.666283602 115.407906,0.666283602 C115.815832,0.666283602 116.13405,0.778457661 116.360329,1.00280578 C116.588393,1.22670699 116.701309,1.54669355 116.701309,1.96187164 C116.701309,2.35738575 116.588393,2.66932796 116.360329,2.89680444 C116.13405,3.12428091 115.815832,3.2377957 115.407906,3.2377957 C114.986144,3.2377957 114.661678,3.12428091 114.435399,2.89680444 C114.207336,2.66932796 114.094419,2.35738575 114.094419,1.96187164 Z" id="Fill-81" fill="#007575"></path>
                    <path d="M125.229153,6.42206418 C124.491851,6.42206418 123.900492,6.65624429 123.456861,7.12415759 C123.011445,7.59251781 122.746784,8.27450034 122.661539,9.1714459 L127.619136,9.1714459 C127.606193,8.26824362 127.388841,7.58447345 126.967525,7.11968851 C126.545763,6.65490356 125.966455,6.42206418 125.229153,6.42206418 M125.654039,15.9948464 C123.954941,15.9948464 122.627173,15.4992248 121.668502,14.5070877 C120.711169,13.5145037 120.231834,12.1478572 120.231834,10.4075951 C120.231834,8.6208545 120.676357,7.21666767 121.564958,6.1945877 C122.454005,5.17250773 123.675106,4.6616912 125.229153,4.6616912 C126.671176,4.6616912 127.810156,5.10010853 128.646092,5.97694321 C129.482475,6.85377789 129.900666,8.06043112 129.900666,9.59645598 L129.900666,10.8522692 L122.621817,10.8522692 C122.654844,11.914124 122.941374,12.7301791 123.480961,13.3004345 C124.020995,13.8706899 124.781505,14.1553706 125.762492,14.1553706 C126.407854,14.1553706 127.008139,14.095038 127.565133,13.9730319 C128.120787,13.8510259 128.718841,13.6476825 129.357508,13.3643424 L129.357508,15.2534251 C128.791143,15.5233579 128.218529,15.7146347 127.638773,15.8268088 C127.059465,15.9389829 126.398035,15.9948464 125.654039,15.9948464" id="Fill-82" fill="#007575"></path>
                    <polygon id="Fill-83" fill="#007575" points="133.54857 15.7972681 135.869376 15.7972681 135.869376 0.409311156 133.54857 0.409311156"></polygon>
                    <path d="M144.504512,14.1159533 C145.459167,14.1159533 146.153623,13.8478081 146.588328,13.3101771 C147.023033,12.7729929 147.246633,11.9006274 147.260022,10.694421 L147.260022,10.3677308 C147.260022,8.98991163 147.035976,8.01073488 146.588328,7.43064751 C146.14068,6.85056015 145.439529,6.56051647 144.484875,6.56051647 C143.66813,6.56051647 143.039727,6.89212265 142.598328,7.5548881 C142.157375,8.21720665 141.936898,9.16152453 141.936898,10.3878417 C141.936898,11.6007517 142.15068,12.5258525 142.57869,13.1618034 C143.0067,13.7982013 143.648492,14.1159533 144.504512,14.1159533 M143.882358,15.9947571 C142.519331,15.9947571 141.456224,15.5004761 140.692143,14.5114674 C139.928509,13.5224587 139.546915,12.1348075 139.546915,10.3480669 C139.546915,8.55506956 139.933418,7.15892708 140.706871,6.16053327 C141.480324,5.16169254 142.552358,4.66160181 143.921633,4.66160181 C145.356962,4.66160181 146.449972,5.19252923 147.200663,6.25393716 L147.319382,6.25393716 C147.207358,5.46961257 147.151123,4.84975034 147.151123,4.39479738 L147.151123,0.409266465 L149.482194,0.409266465 L149.482194,15.7972235 L147.664824,15.7972235 L147.260022,14.3630938 L147.151123,14.3630938 C146.407127,15.4508693 145.317687,15.9947571 143.882358,15.9947571" id="Fill-84" fill="#007575"></path>
                    <path d="M162.684318,8.06364886 L164.32361,8.06364886 C165.423315,8.06364886 166.219976,7.85941163 166.713593,7.45049026 C167.207657,7.04156888 167.454466,6.43511391 167.454466,5.63067843 C167.454466,4.81328259 167.187573,4.2264916 166.654681,3.87075235 C166.121342,3.5145662 165.317986,3.33669657 164.244613,3.33669657 L162.684318,3.33669657 L162.684318,8.06364886 Z M162.684318,10.0215554 L162.684318,15.7969553 L160.323791,15.7969553 L160.323791,1.33901512 L164.402607,1.33901512 C166.265946,1.33901512 167.645486,1.68849765 168.540781,2.38701579 C169.436077,3.08598085 169.88417,4.14068515 169.88417,5.5515756 C169.88417,7.35172345 168.949154,8.63390423 167.07912,9.39856485 L171.157936,15.7969553 L168.471603,15.7969553 L165.014942,10.0215554 L162.684318,10.0215554 Z" id="Fill-85" fill="#007575"></path>
                    <path d="M177.394341,14.2148095 C178.236972,14.2148095 178.91313,13.9792886 179.423707,13.508247 C179.933838,13.0367584 180.189127,12.3753337 180.189127,11.5248666 L180.189127,10.5756327 L178.786824,10.6350716 C177.693814,10.6743995 176.898492,10.8576321 176.401304,11.1838753 C175.904563,11.5105655 175.655969,12.0093155 175.655969,12.681913 C175.655969,13.1699372 175.801019,13.5475749 176.090673,13.8148263 C176.380328,14.0816307 176.815033,14.2148095 177.394341,14.2148095 Z M180.851002,15.7973128 L180.386841,14.2742483 L180.307845,14.2742483 C179.7812,14.9401421 179.250986,15.3937544 178.717647,15.6341912 C178.184308,15.8750749 177.49967,15.9948464 176.663734,15.9948464 C175.590361,15.9948464 174.75264,15.7048028 174.149677,15.1247154 C173.548053,14.544628 173.246348,13.7236569 173.246348,12.662249 C173.246348,11.5346986 173.664539,10.6842315 174.500476,10.1108478 C175.336858,9.53701714 176.611069,9.22418112 178.322663,9.1714459 L180.20921,9.11200706 L180.20921,8.52834442 C180.20921,7.82982628 180.046308,7.30739012 179.71961,6.96148286 C179.394697,6.6151287 178.889029,6.44172816 178.204392,6.44172816 C177.64472,6.44172816 177.107811,6.52440625 176.594556,6.68886862 C176.080855,6.85377789 175.587237,7.04818313 175.112811,7.27253125 L174.362566,5.61092507 C174.954818,5.30121741 175.603304,5.06569657 176.308026,4.90436257 C177.012301,4.74302856 177.677301,4.6616912 178.303026,4.6616912 C179.692385,4.6616912 180.740318,4.96514214 181.44861,5.57159711 C182.156009,6.17805208 182.509932,7.13086122 182.509932,8.42957762 L182.509932,15.7973128 L180.851002,15.7973128 Z" id="Fill-86" fill="#007575"></path>
                    <path d="M190.829707,14.1159533 C191.396072,14.1159533 191.961992,14.0270185 192.528358,13.8491489 L192.528358,15.5992429 C192.27173,15.711417 191.941015,15.8057147 191.535321,15.8816892 C191.131411,15.9567698 190.710989,15.9947571 190.27673,15.9947571 C188.077767,15.9947571 186.978062,14.8345823 186.978062,12.513786 L186.978062,6.61995531 L185.486945,6.61995531 L185.486945,5.59117171 L187.086515,4.74070464 L187.876928,2.4266119 L189.308687,2.4266119 L189.308687,4.85958233 L192.419905,4.85958233 L192.419905,6.61995531 L189.308687,6.61995531 L189.308687,12.474458 C189.308687,13.0348814 189.448381,13.4487188 189.728663,13.7155232 C190.008052,13.9827745 190.375364,14.1159533 190.829707,14.1159533" id="Fill-87" fill="#007575"></path>
                    <path d="M200.067092,6.42206418 C199.32979,6.42206418 198.738431,6.65624429 198.2948,7.12415759 C197.849384,7.59251781 197.584723,8.27450034 197.499478,9.1714459 L202.457076,9.1714459 C202.444133,8.26824362 202.22678,7.58447345 201.805465,7.11968851 C201.383703,6.65490356 200.804394,6.42206418 200.067092,6.42206418 M200.491978,15.9948464 C198.792881,15.9948464 197.465112,15.4992248 196.506441,14.5070877 C195.549109,13.5145037 195.069773,12.1478572 195.069773,10.4075951 C195.069773,8.6208545 195.514297,7.21666767 196.402898,6.1945877 C197.291945,5.17250773 198.513045,4.6616912 200.067092,4.6616912 C201.509116,4.6616912 202.648096,5.10010853 203.484032,5.97694321 C204.320414,6.85377789 204.738606,8.06043112 204.738606,9.59645598 L204.738606,10.8522692 L197.459757,10.8522692 C197.492784,11.914124 197.779314,12.7301791 198.318901,13.3004345 C198.858935,13.8706899 199.619445,14.1553706 200.600431,14.1553706 C201.245794,14.1553706 201.846079,14.095038 202.403072,13.9730319 C202.958727,13.8510259 203.55678,13.6476825 204.195448,13.3643424 L204.195448,15.2534251 C203.629082,15.5233579 203.056468,15.7146347 202.476713,15.8268088 C201.897404,15.9389829 201.235975,15.9948464 200.491978,15.9948464" id="Fill-88" fill="#007575"></path>
                </g>
            </g>
        </g>
    </g>
</svg>