<?xml version="1.0" encoding="UTF-8" standalone="no"?>
<svg width="429px" height="343px" viewBox="0 0 429 343" version="1.1" xmlns="http://www.w3.org/2000/svg" xmlns:xlink="http://www.w3.org/1999/xlink">
    <!-- Generator: Sketch 49.3 (51167) - http://www.bohemiancoding.com/sketch -->
    <title>五環圖</title>
    <desc>Created with Sketch.</desc>
    <defs>
        <linearGradient x1="50%" y1="0%" x2="50%" y2="100%" id="linearGradient-1">
            <stop stop-color="#4BC8C8" offset="0%"></stop>
            <stop stop-color="#0F9696" offset="100%"></stop>
        </linearGradient>
        <path d="M33.09524,0.362182857 C32.6137145,0.362182857 32.2093121,0.67424 32.064459,1.10473143 L28.6873533,1.27525714 L14.0196109,8.61228571 L14.4215414,14.1241486 C14.0250491,14.2681371 13.7392978,14.6313029 13.7096351,15.0676914 L7.33510712,16.4161714 L0.00543817337,38.1486171 L1.90879885,41.1841714 C1.79756349,41.3055543 1.71549651,41.452 1.66902485,41.6141714 L1.66160915,41.6397257 C1.6388677,41.7267086 1.62255318,41.81664 1.62255318,41.9105029 C1.62255318,42.1935657 1.73428293,42.4486171 1.91225951,42.6412571 L0,45.7308686 L4.10680965,55.9707657 C3.96245087,56.1221257 3.86308061,56.3147657 3.82550778,56.52952 L3.80869888,56.5319771 L3.82451902,56.5408229 C3.81512581,56.5973371 3.80672136,56.6543429 3.80672136,56.7138057 C3.80672136,57.3133486 4.29566258,57.7993714 4.89929983,57.7993714 C5.16280405,57.7993714 5.40109492,57.7030514 5.58994785,57.5487429 L11.1892889,60.7449943 C11.168525,60.82952 11.1536936,60.9160114 11.1536936,61.0069257 C11.1536936,61.3057143 11.2758053,61.5769829 11.4725683,61.7735543 L9.80304907,64.73736 L17.9405339,74.7919886 L22.9975408,77.1120229 C23.0148441,77.5336686 23.2719214,77.8929029 23.6387509,78.05704 L23.7356492,78.0919314 C23.7875591,78.1096229 23.8399633,78.1253486 23.8948394,78.1351771 L22.0512986,81.8611886 L28.5548596,85.2102743 L37.0883424,85.2102743 C37.2183642,85.6653371 37.635126,86 38.1339548,86 C38.6327836,86 39.0495455,85.6653371 39.1795672,85.2102743 L39.1939042,85.16408 C39.213185,85.0834857 39.2260389,85.0009257 39.2260389,84.9144343 C39.2260389,84.6279314 39.1123316,84.36944 38.9299056,84.1758171 L42.7346495,77.6005029 C42.8196827,77.6216343 42.9076823,77.6358857 42.9986481,77.6358857 C43.6017909,77.6358857 44.0912265,77.1498629 44.0912265,76.55032 C44.0912265,76.0544686 43.7540598,75.6401943 43.2967589,75.5109486 L43.2967589,69.4481943 C43.7540598,69.3189486 44.0912265,68.9046743 44.0912265,68.4083314 C44.0912265,67.91248 43.7540598,67.4982057 43.2967589,67.36896 L43.2967589,51.7577486 C43.7540598,51.6285029 44.0912265,51.21472 44.0912265,50.7183771 C44.0912265,50.2220343 43.7540598,49.8082514 43.2967589,49.6790057 L43.2967589,38.0645829 C43.7540598,37.9348457 44.0912265,37.5215543 44.0912265,37.0252114 C44.0912265,36.5288686 43.7540598,36.1150857 43.2967589,35.9853486 L43.2967589,26.6658971 C43.7540598,26.5366514 44.0912265,26.1228686 44.0912265,25.6265257 C44.0912265,25.1301829 43.7540598,24.7164 43.2967589,24.5866629 L43.2967589,19.2644914 C43.7540598,19.1347543 44.0912265,18.7209714 44.0912265,18.22512 C44.0912265,17.7287771 43.7540598,17.3149943 43.2967589,17.1852571 L43.2967589,5.4352 L40.6562785,3.09550857 C40.6587504,3.06454857 40.6656717,3.03408 40.6656717,3.00213714 C40.6656717,2.40210286 40.1767305,1.91608 39.5735876,1.91608 C39.5394754,1.91608 39.5073408,1.92345143 39.473723,1.9264 L38.3663131,0.51944 L34.0627405,0.953862857 C33.8813032,0.603965714 33.5189231,0.362182857 33.09524,0.362182857 Z M34.1784253,1.53718857 L38.0998426,1.14158857 L38.897771,2.15491429 C38.6456375,2.35394286 38.4815035,2.65764571 38.4815035,3.00213714 C38.4815035,3.32893714 38.6298173,3.61838857 38.8597038,3.81741714 L37.395352,8.50368 L33.7923149,20.0286629 C33.7829217,20.0281714 33.7745173,20.0262057 33.7656185,20.0262057 C33.3844519,20.0262057 33.0497571,20.22032 32.8544772,20.5141943 L24.7338012,17.9587657 L15.8829269,15.1728571 C15.8834213,15.1615543 15.8863876,15.1517257 15.8863876,15.1404229 C15.8863876,15.00184 15.8577135,14.8696457 15.8097587,14.74728 L24.820812,7.95573714 L32.3783899,2.26057143 C32.5707035,2.42814857 32.8198707,2.53331429 33.09524,2.53331429 C33.667237,2.53331429 34.1319536,2.09397714 34.1784253,1.53718857 Z M15.0147967,14.0774629 L14.642529,8.96267429 L28.7802966,1.86349714 L32.0357849,1.69886857 C32.0407287,1.72049143 32.0486388,1.74064 32.0550657,1.76128 L24.0782542,7.77243429 L15.4483674,14.2764914 C15.3218063,14.1816457 15.1759644,14.1103886 15.0147967,14.0774629 Z M40.4204595,3.67981714 L42.7010317,5.70106286 L42.7010317,17.1852571 C42.2437307,17.3149943 41.906564,17.7287771 41.906564,18.22512 C41.906564,18.23544 41.9095303,18.2442857 41.9095303,18.2546057 L34.6772541,20.51616 C34.5946927,20.3913371 34.486918,20.2851886 34.3608513,20.2036114 L38.0059105,8.54496 L39.4050042,4.07050286 C39.4598804,4.07934857 39.5157452,4.08721143 39.5735876,4.08721143 C39.9171813,4.08721143 40.2202359,3.92651429 40.4204595,3.67981714 Z M0.659007737,38.0724457 L7.7914193,16.9248 L13.8337243,15.6470857 C13.8994768,15.7704343 13.9874763,15.8785486 14.0942622,15.9674971 L2.87135554,40.8401714 C2.8194457,40.8328 2.76852462,40.8249371 2.71513165,40.8249371 C2.60982884,40.8249371 2.51045858,40.8441029 2.4140546,40.8716229 L0.659007737,38.0724457 Z M17.1851222,18.8059886 L15.5650409,15.9095086 C15.6174452,15.8574171 15.6639168,15.79992 15.7049503,15.7384914 L24.2374443,18.4236571 L32.6765006,21.0793371 C32.6765006,21.0901486 32.6735344,21.1004686 32.6735344,21.11128 C32.6735344,21.1943314 32.6844107,21.2739429 32.7022084,21.3515886 L31.6046861,21.9481829 L22.5555656,26.8644343 C22.3573195,26.6644229 22.0819502,26.5396 21.7774125,26.5396 C21.6913904,26.5396 21.6083347,26.5513943 21.5282452,26.57056 L17.1851222,18.8059886 Z M15.0429763,16.19552 L17.0531229,19.7893371 L21.0061806,26.85608 C20.8079345,27.0526514 20.684834,27.3244114 20.684834,27.6251657 C20.684834,27.7632571 20.713508,27.8944686 20.7609684,28.01536 L3.46115016,40.98072 L14.6375852,16.2107543 C14.689495,16.2181257 14.7404161,16.22648 14.7943035,16.22648 C14.8803255,16.22648 14.9628868,16.2137029 15.0429763,16.19552 Z M34.8379274,21.3053943 C34.8497925,21.2424914 34.8577025,21.1781143 34.8577025,21.11128 C34.8577025,21.1014514 34.8547363,21.0921143 34.8542419,21.0817943 L42.0870125,18.82024 C42.2288994,19.0349943 42.4464263,19.1922514 42.7010317,19.2644914 L42.7010317,24.5866629 C42.5017968,24.6436686 42.3262921,24.7527657 42.1913265,24.9011771 L34.8379274,21.3053943 Z M34.5734344,21.8366286 L41.9263392,25.43192 C41.9149684,25.4953143 41.906564,25.5596914 41.906564,25.6265257 C41.906564,26.1228686 42.2437307,26.5366514 42.7010317,26.6658971 L42.7010317,35.9853486 C42.2521352,36.1126286 41.9213954,36.5146171 41.9095303,36.9986743 L24.8751938,41.3635429 C24.8153738,41.2623086 24.7397338,41.1723771 24.6507455,41.0952229 L29.9999306,29.7761486 L33.5901138,22.1796457 C33.6474618,22.1889829 33.7057986,22.1973371 33.7656185,22.1973371 C34.0869651,22.1973371 34.3732107,22.0567886 34.5734344,21.8366286 Z M24.0757823,40.8386971 L22.2272977,28.6114629 C22.6054979,28.4409371 22.8690022,28.0645029 22.8690022,27.6251657 C22.8690022,27.5421143 22.8581258,27.4620114 22.8408225,27.3848571 L30.9249144,22.9924686 L32.9869709,21.87152 C33.0072405,21.8916686 33.0299819,21.9078857 33.0512402,21.92656 L29.3982709,29.6567314 L24.1123663,40.8421371 C24.1005012,40.8401714 24.0876474,40.8401714 24.0757823,40.8386971 Z M3.73108131,41.5193257 L11.6411517,35.5917143 L21.1208766,28.4876229 C21.2686961,28.5991771 21.4446951,28.6719086 21.6379975,28.69648 L23.486482,40.9237143 C23.1972701,41.0544343 22.9787544,41.3060457 22.8907549,41.6141714 L3.76074408,41.6141714 C3.75184525,41.58272 3.7434408,41.5502857 3.73108131,41.5193257 Z M24.7174867,42.6673029 C24.9033734,42.4776114 25.0185638,42.2210857 25.0259795,41.93704 L42.060316,37.57168 C42.2007197,37.8100229 42.4281343,37.9874286 42.7010317,38.0645829 L42.7010317,49.6790057 C42.2437307,49.8082514 41.906564,50.2220343 41.906564,50.7183771 C41.906564,50.9375543 41.9733052,51.1410057 42.0855293,51.3115314 L35.0470499,59.36064 C34.9061517,59.2947886 34.7504222,59.2549829 34.5843107,59.2549829 C34.4933449,59.2549829 34.4058398,59.2697257 34.3213009,59.2903657 L24.7174867,42.6673029 Z M5.05997313,42.9326743 L3.81215953,42.2068343 L22.8907549,42.2068343 C22.9940801,42.5660686 23.2768652,42.8476571 23.6387509,42.9498743 L23.6387509,53.2315429 C23.4652237,53.2806857 23.3089998,53.36816 23.1824387,53.48856 L5.05997313,42.9326743 Z M3.46906023,42.6928571 L4.20766305,43.1228571 L22.8828448,54.0006286 C22.8734516,54.0365029 22.8665303,54.0728686 22.8605977,54.1092343 L5.89201366,56.2670971 C5.72046401,55.8911543 5.34176939,55.62824 4.89929983,55.62824 C4.8038846,55.62824 4.71390755,55.6439657 4.62590802,55.6665714 L0.66444591,45.7878743 L2.42048153,42.9508571 C2.51490799,42.9769029 2.61230074,42.9960686 2.71513165,42.9960686 C3.00829863,42.9960686 3.27279161,42.8796 3.46906023,42.6928571 Z M24.9933504,54.5323543 C25.0141144,54.44832 25.0289457,54.3613371 25.0289457,54.2714057 C25.0289457,54.1790171 25.01362,54.0910514 24.9918673,54.0055429 L24.9409462,53.8448457 C24.8124076,53.54704 24.552364,53.3214743 24.2344781,53.2315429 L24.2344781,43.02064 L33.7784723,59.5400114 L24.9933504,54.5323543 Z M35.5439011,60.8491771 C35.6259681,60.6968343 35.6768892,60.5258171 35.6768892,60.3405486 C35.6768892,60.1213714 35.610148,59.9184114 35.4979239,59.7478857 L36.9459611,58.0917714 L42.5364033,51.6987771 C42.5888076,51.7233486 42.6441781,51.7420229 42.7010317,51.7577486 L42.7010317,67.36896 C42.6130322,67.3940229 42.5299764,67.4289143 42.4528532,67.4736343 L35.5439011,60.8491771 Z M5.92909211,57.0597714 C5.95183356,56.9934286 5.96814808,56.92512 5.97754129,56.8533714 L22.509094,54.75104 L13.0041557,60.22752 C12.8073927,60.0388114 12.5409222,59.9208686 12.2462721,59.9208686 C11.94915,59.9208686 11.6811964,60.0397943 11.4844334,60.2304686 L5.92909211,57.0597714 Z M24.2344781,75.9974629 L24.2344781,55.3107771 C24.4114659,55.2606514 24.5711504,55.1712114 24.6987003,55.04688 L33.527822,60.0796 C33.5065637,60.1636343 33.492721,60.2501257 33.492721,60.3405486 C33.492721,60.61968 33.6014845,60.8717829 33.7760004,61.0644229 L24.3422528,76.0161371 C24.3071518,76.0077829 24.2710621,76.0028686 24.2344781,75.9974629 Z M13.3378618,61.0069257 C13.3378618,60.9150286 13.3235248,60.8270629 13.3017721,60.7410629 L23.1784837,55.0508114 C23.3055392,55.1726857 23.4637406,55.2611429 23.6387509,55.3107771 L23.6387509,76.0800229 C23.4296284,76.1738857 23.2585731,76.3311429 23.1438771,76.5272229 L18.3167567,74.3123543 L10.5194048,64.6778971 L11.9936442,62.0605486 C12.0752168,62.0797143 12.1587669,62.092 12.2462721,62.092 C12.8494149,62.092 13.3378618,61.6059771 13.3378618,61.0069257 Z M37.1807913,75.4790057 L35.4148681,63.8321486 L35.0356791,61.3273371 C35.0683082,61.3121029 35.0994541,61.29392 35.1306,61.2757371 L35.90727,62.0202514 L42.0395521,67.9001943 C41.9574851,68.0525371 41.906564,68.2235543 41.906564,68.4083314 C41.906564,68.9046743 42.2437307,69.3189486 42.7010317,69.4477029 L42.7010317,75.5109486 C42.3386516,75.6131657 42.056361,75.8947543 41.9530357,76.25448 L38.0874831,76.25448 C37.9693265,75.8426629 37.6173283,75.5345371 37.1807913,75.4790057 Z M24.8623399,76.3065714 L34.2812562,61.3784457 C34.3346491,61.39368 34.3895253,61.4049829 34.4453901,61.4123543 L34.5121313,61.84776 L36.5909967,75.5640229 C36.2854702,75.7021143 36.0560782,75.97584 35.9794494,76.3080457 L25.1560013,76.8579543 C25.1144734,76.6451657 25.009665,76.4549829 24.8623399,76.3065714 Z M38.01827,77.0279886 L41.9644064,76.884 C42.017305,77.0442057 42.1018439,77.1891771 42.2175286,77.30712 L38.4187173,83.87064 C38.3277515,83.8460686 38.2333251,83.8288686 38.1339548,83.8288686 C37.842271,83.8288686 37.5782724,83.9443543 37.3824981,84.1296229 L25.7309645,77.4746971 L36.1035386,77.09728 C36.2928859,77.4181829 36.6399403,77.6358857 37.0418707,77.6358857 C37.4719808,77.6358857 37.8397991,77.3867314 38.01827,77.0279886 Z M22.8432944,81.6022057 L24.6205884,78.0093714 C24.7525877,77.9351657 24.8672837,77.8358971 24.9577551,77.7159886 L37.0423651,84.6181029 L28.7007015,84.6181029 L22.8432944,81.6022057 Z" id="path-2"></path>
        <path d="M11.0300987,0.362182857 C10.60691,0.362182857 10.2440355,0.603965714 10.0625983,0.953862857 L5.75853122,0.51944 L4.65161575,1.9264 C4.61849233,1.92345143 4.58586329,1.91608 4.55224549,1.91608 C3.94860825,1.91608 3.45966702,2.40210286 3.45966702,3.00213714 C3.45966702,3.03408 3.46658833,3.06454857 3.46906023,3.09550857 L0.82857987,5.4352 L0.82857987,17.1852571 C0.371278927,17.3149943 0.0346065578,17.7287771 0.0346065578,18.22512 C0.0346065578,18.7209714 0.371278927,19.1347543 0.82857987,19.2644914 L0.82857987,24.5866629 C0.371278927,24.7164 0.0346065578,25.1301829 0.0346065578,25.6265257 C0.0346065578,26.1228686 0.371278927,26.5366514 0.82857987,26.6658971 L0.82857987,35.9853486 C0.371278927,36.1150857 0.0346065578,36.5288686 0.0346065578,37.0252114 C0.0346065578,37.5215543 0.371278927,37.9348457 0.82857987,38.0645829 L0.82857987,49.6790057 C0.371278927,49.8082514 0.0346065578,50.2220343 0.0346065578,50.7183771 C0.0346065578,51.21472 0.371278927,51.6285029 0.82857987,51.7577486 L0.82857987,67.36896 C0.371278927,67.4982057 0.0346065578,67.91248 0.0346065578,68.4083314 C0.0346065578,68.9046743 0.371278927,69.3189486 0.82857987,69.4481943 L0.82857987,75.5109486 C0.371278927,75.6401943 0.0346065578,76.0544686 0.0346065578,76.55032 C0.0346065578,77.1498629 0.523547782,77.6358857 1.12669065,77.6358857 C1.21815083,77.6358857 1.30565599,77.6216343 1.39019487,77.6005029 L5.19543309,84.1758171 C5.01300709,84.36944 4.89979421,84.6279314 4.89979421,84.9144343 C4.89979421,85.0009257 4.91215369,85.0834857 4.93143449,85.16408 L4.94577149,85.2102743 C5.07628765,85.6653371 5.49206072,86 5.99138392,86 C6.49070711,86 6.90697456,85.6653371 7.03699634,85.2102743 L15.5704791,85.2102743 L22.0740401,81.8611886 L20.2304993,78.1351771 C20.2858698,78.1253486 20.3377796,78.1096229 20.3896895,78.0919314 L20.4865878,78.05704 C20.8539117,77.8929029 21.1104946,77.5336686 21.1273035,77.1120229 L26.1852992,74.7919886 L34.3222897,64.73736 L32.6522761,61.7735543 C32.8495334,61.5769829 32.9711508,61.3057143 32.9711508,61.0069257 C32.9711508,60.9160114 32.9573081,60.82952 32.9355554,60.7449943 L38.5358853,57.5487429 C38.7242438,57.7030514 38.9630291,57.7993714 39.2265333,57.7993714 C39.8291818,57.7993714 40.318123,57.3133486 40.318123,56.7138057 C40.318123,56.6543429 40.3097185,56.5973371 40.3008197,56.5408229 L40.3171342,56.5319771 L40.299831,56.52952 C40.2627525,56.3147657 40.1628879,56.1221257 40.0190235,55.9707657 L44.1258331,45.7308686 L42.2125848,42.6412571 C42.3910558,42.4486171 42.5022912,42.1935657 42.5022912,41.9105029 C42.5022912,41.81664 42.4869654,41.7267086 42.464224,41.6397257 L42.4563139,41.6141714 C42.4093478,41.452 42.3282696,41.3055543 42.2170343,41.1841714 L44.1203949,38.1486171 L36.790726,16.4161714 L30.416198,15.0676914 C30.3865353,14.6313029 30.100784,14.2681371 29.7042917,14.1241486 L30.1057278,8.61228571 L15.4384798,1.27525714 L12.0613742,1.10473143 C11.916521,0.67424 11.5121186,0.362182857 11.0300987,0.362182857 Z M6.72998674,8.50368 L5.26514058,3.81741714 C5.49552138,3.61838857 5.6438352,3.32893714 5.6438352,3.00213714 C5.6438352,2.65764571 5.47920686,2.35394286 5.22756775,2.15491429 L6.02549609,1.14158857 L9.94691347,1.53718857 C9.99387952,2.09397714 10.4576074,2.53331429 11.0300987,2.53331429 C11.3059624,2.53331429 11.5546353,2.42814857 11.7469489,2.26057143 L19.3040323,7.95573714 L28.3160744,14.74728 C28.2681196,14.8696457 28.2389512,15.00184 28.2389512,15.1404229 C28.2389512,15.1517257 28.2419175,15.1615543 28.2424118,15.1728571 L19.3915375,17.9587657 L11.2708615,20.5141943 C11.0755816,20.22032 10.7408868,20.0262057 10.3597203,20.0262057 C10.3508214,20.0262057 10.3419226,20.0281714 10.3330238,20.0286629 L6.72998674,8.50368 Z M20.0465902,7.77243429 L12.070273,1.76128 C12.0766999,1.74064 12.08461,1.72049143 12.0900482,1.69886857 L15.3455365,1.86349714 L29.4828097,8.96267429 L29.1100477,14.0774629 C28.9493744,14.1103886 28.8035324,14.1816457 28.6774657,14.2764914 L20.0465902,7.77243429 Z M2.21580846,18.2546057 C2.21630284,18.2442857 2.21877474,18.23544 2.21877474,18.22512 C2.21877474,17.7287771 1.88210237,17.3149943 1.42480142,17.1852571 L1.42480142,5.70106286 L3.70537358,3.67981714 C3.90510286,3.92651429 4.20815743,4.08721143 4.55224549,4.08721143 C4.6095935,4.08721143 4.66496399,4.07934857 4.72082886,4.07050286 L6.11942818,8.54496 L9.7639931,20.2036114 C9.63842073,20.2851886 9.53064602,20.3913371 9.44808466,20.51616 L2.21580846,18.2546057 Z M30.0310765,15.9674971 C30.1373681,15.8785486 30.225862,15.7704343 30.2921088,15.6470857 L36.3339194,16.9248 L43.466331,38.0724457 L41.7107898,40.8716229 C41.6148801,40.8441029 41.5155099,40.8249371 41.4107015,40.8249371 C41.3568141,40.8249371 41.3053986,40.8328 41.2539832,40.8401714 L30.0310765,15.9674971 Z M12.521147,21.9481829 L11.4231304,21.3515886 C11.440928,21.2739429 11.4518044,21.1943314 11.4518044,21.11128 C11.4518044,21.1004686 11.4493325,21.0901486 11.4488381,21.0793371 L19.8878944,18.4236571 L28.4203884,15.7384914 C28.4614219,15.79992 28.5083879,15.8574171 28.5607922,15.9095086 L26.9402165,18.8059886 L22.5975879,26.57056 C22.517004,26.5513943 22.4344427,26.5396 22.3484207,26.5396 C22.0433886,26.5396 21.7680192,26.6644229 21.5702675,26.8644343 L12.521147,21.9481829 Z M23.3648647,28.01536 C23.4118307,27.8944686 23.4405047,27.7632571 23.4405047,27.6251657 C23.4405047,27.3244114 23.3174043,27.0526514 23.1191581,26.85608 L27.0717214,19.7893371 L29.0823624,16.19552 C29.1624519,16.2137029 29.2455076,16.22648 29.3315296,16.22648 C29.3849226,16.22648 29.4358437,16.2181257 29.4872592,16.2107543 L40.6641886,40.98072 L23.3648647,28.01536 Z M1.42480142,24.5866629 L1.42480142,19.2644914 C1.67891243,19.1922514 1.89643937,19.0349943 2.03882063,18.82024 L9.27060246,21.0817943 C9.27060246,21.0921143 9.26763618,21.1014514 9.26763618,21.11128 C9.26763618,21.1781143 9.27604063,21.2424914 9.28741136,21.3053943 L1.9340122,24.9011771 C1.79904663,24.7527657 1.62403632,24.6436686 1.42480142,24.5866629 Z M2.21630284,36.9986743 C2.20394335,36.5146171 1.87369792,36.1126286 1.42480142,35.9853486 L1.42480142,26.6658971 C1.88210237,26.5366514 2.21877474,26.1228686 2.21877474,25.6265257 C2.21877474,25.5596914 2.21037029,25.4953143 2.19949394,25.43192 L9.55239871,21.8366286 C9.75212799,22.0567886 10.0383737,22.1973371 10.3597203,22.1973371 C10.4200346,22.1973371 10.4778769,22.1889829 10.535225,22.1796457 L14.1254081,29.7761486 L19.4745932,41.0952229 C19.3856049,41.1723771 19.3104593,41.2623086 19.250145,41.3635429 L2.21630284,36.9986743 Z M14.7275622,29.6567314 L11.0745929,21.92656 C11.0953568,21.9078857 11.1185926,21.8916686 11.1378734,21.87152 L13.2009187,22.9924686 L21.2850106,27.3848571 C21.2672129,27.4620114 21.2558422,27.5421143 21.2558422,27.6251657 C21.2558422,28.0645029 21.5198408,28.4409371 21.898041,28.6114629 L20.0500508,40.8386971 C20.0376914,40.8401714 20.0253319,40.8401714 20.0134668,40.8421371 L14.7275622,29.6567314 Z M20.6388567,40.9237143 L22.4878356,28.69648 C22.6801492,28.6719086 22.8566427,28.5991771 23.0044621,28.4876229 L32.4841871,35.5917143 L40.3942574,41.5193257 C40.3823923,41.5502857 40.3739879,41.58272 40.3645947,41.6141714 L21.2345839,41.6141714 C21.14609,41.3060457 20.9280686,41.0544343 20.6388567,40.9237143 Z M2.03980939,51.3115314 C2.15203352,51.1410057 2.21877474,50.9375543 2.21877474,50.7183771 C2.21877474,50.2220343 1.88210237,49.8082514 1.42480142,49.6790057 L1.42480142,38.0645829 C1.69720447,37.9874286 1.92461899,37.8100229 2.06551712,37.57168 L19.0993593,41.93704 C19.1067749,42.2210857 19.2219653,42.4776114 19.407852,42.6673029 L9.80403783,59.2903657 C9.71900457,59.2697257 9.6319938,59.2549829 9.54102799,59.2549829 C9.37491651,59.2549829 9.219187,59.2947886 9.07828887,59.36064 L2.03980939,51.3115314 Z M20.4865878,53.2315429 L20.4865878,42.9498743 C20.8489679,42.8476571 21.1312586,42.5660686 21.2345839,42.2068343 L40.3126848,42.2068343 L39.06586,42.9326743 L20.9429,53.48856 C20.8163389,53.36816 20.6596206,53.2806857 20.4865878,53.2315429 Z M21.264741,54.1092343 C21.2593028,54.0728686 21.2518872,54.0365029 21.2424939,54.0006286 L39.9176757,43.1228571 L40.6562785,42.6928571 C40.8525471,42.8796 41.1175345,42.9960686 41.4107015,42.9960686 C41.5135324,42.9960686 41.6109251,42.9769029 41.7053516,42.9508571 L43.4608928,45.7878743 L39.4994307,55.6665714 C39.4114312,55.6439657 39.3209597,55.62824 39.2265333,55.62824 C38.7840637,55.62824 38.4048747,55.8911543 38.2333251,56.2670971 L21.264741,54.1092343 Z M19.8908607,43.02064 L19.8908607,53.2315429 C19.5734691,53.3214743 19.3129312,53.54704 19.1843925,53.8448457 L19.1334714,54.0055429 C19.1117187,54.0910514 19.0968874,54.1790171 19.0968874,54.2714057 C19.0968874,54.3613371 19.1112244,54.44832 19.1319883,54.5323543 L10.3468664,59.5400114 L19.8908607,43.02064 Z M1.42480142,67.36896 L1.42480142,51.7577486 C1.48165505,51.7420229 1.53653117,51.7233486 1.58942976,51.6987771 L7.17987199,58.0917714 L8.62790924,59.7478857 C8.51519074,59.9184114 8.4489439,60.1213714 8.4489439,60.3405486 C8.4489439,60.5258171 8.49986498,60.6968343 8.58143758,60.8491771 L1.67297988,67.4736343 C1.59536232,67.4289143 1.51280096,67.3940229 1.42480142,67.36896 Z M21.6167391,54.75104 L38.1482918,56.8533714 C38.157685,56.92512 38.1735052,56.9934286 38.1957522,57.0597714 L32.6413997,60.2304686 C32.4441423,60.0397943 32.1761887,59.9208686 31.8795611,59.9208686 C31.5844166,59.9208686 31.3174517,60.0388114 31.1211831,60.22752 L21.6167391,54.75104 Z M10.3493383,61.0644229 C10.5238542,60.8717829 10.6331121,60.61968 10.6331121,60.3405486 C10.6331121,60.2501257 10.6182807,60.1636343 10.5975168,60.0796 L19.4266384,55.04688 C19.5546827,55.1712114 19.7143672,55.2606514 19.8908607,55.3107771 L19.8908607,75.9974629 C19.8542766,76.0028686 19.8186813,76.0077829 19.783086,76.0161371 L10.3493383,61.0644229 Z M20.4865878,76.0800229 L20.4865878,55.3107771 C20.6615982,55.2611429 20.8197996,55.1726857 20.9468551,55.0508114 L30.824061,60.7410629 C30.8023083,60.8270629 30.7869826,60.9150286 30.7869826,61.0069257 C30.7869826,61.6059771 31.2759238,62.092 31.8795611,62.092 C31.9665718,62.092 32.0501219,62.0797143 32.1316945,62.0605486 L33.6064283,64.6778971 L25.8085821,74.3123543 L20.9809672,76.5272229 C20.86726,76.3311429 20.6957103,76.1738857 20.4865878,76.0800229 Z M1.42480142,75.5109486 L1.42480142,69.4477029 C1.88210237,69.3189486 2.21877474,68.9046743 2.21877474,68.4083314 C2.21877474,68.2235543 2.16785366,68.0525371 2.08628106,67.9001943 L8.2185631,62.0202514 L8.99473875,61.2757371 C9.02588466,61.29392 9.05703056,61.3121029 9.09015398,61.3273371 L8.70997622,63.8321486 L6.94504177,75.4790057 C6.50850477,75.5345371 6.15551788,75.8426629 6.03785558,76.25448 L2.17279745,76.25448 C2.06947216,75.8947543 1.78668714,75.6131657 1.42480142,75.5109486 Z M8.14638371,76.3080457 C8.0697549,75.97584 7.84036286,75.7021143 7.53434202,75.5640229 L9.61370176,61.84776 L9.67945422,61.4123543 C9.73630785,61.4049829 9.79019521,61.39368 9.84358818,61.3784457 L19.2629988,76.3065714 C19.1156738,76.4549829 19.0113597,76.6451657 18.9688431,76.8579543 L8.14638371,76.3080457 Z M1.90830447,77.30712 C2.02349487,77.1891771 2.10852813,77.0442057 2.16043797,76.884 L6.1070687,77.0279886 C6.28504528,77.3867314 6.65335793,77.6358857 7.08396238,77.6358857 C7.48539845,77.6358857 7.83195841,77.4181829 8.02229448,77.09728 L18.3948686,77.4746971 L6.74234622,84.1296229 C6.54657198,83.9443543 6.28356214,83.8288686 5.99138392,83.8288686 C5.89250804,83.8288686 5.79808157,83.8460686 5.706127,83.87064 L1.90830447,77.30712 Z M19.168078,77.7159886 C19.258055,77.8358971 19.3727511,77.9351657 19.504256,78.0093714 L21.2825387,81.6022057 L15.4251316,84.6181029 L7.08297363,84.6181029 L19.168078,77.7159886 Z" id="path-4"></path>
    </defs>
    <g id="design" stroke="none" stroke-width="1" fill="none" fill-rule="evenodd">
        <g id="解決方案-ＩＥ腦-" transform="translate(-720.000000, -873.000000)">
            <g id="01" transform="translate(0.000000, 800.000000)">
                <g id="五環圖" transform="translate(719.000000, 73.000000)">
                    <g>
                        <g id="Group-42" transform="translate(63.000000, 0.000000)" stroke="#4BC8C8">
                            <path d="M277.138807,70.8074708 C289.744167,90.9604164 297.653503,114.335096 299.340158,139.409297 C299.565062,142.752782 299.679324,146.126485 299.679324,149.526798 M272.337792,235.448493 C256.396947,257.920723 234.370937,275.796789 208.652051,286.691504 M89.9063203,285.825047 C66.100159,275.325784 45.5606131,258.8077 30.2285747,238.205922 M0.883378378,149.526798 C0.883378378,145.9111 1.01257432,142.325489 1.26661431,138.774304 C2.85097355,116.626798 9.29124694,95.8183328 19.5317532,77.401518 M88.4698254,13.8713417 C107.30664,5.32454577 128.236401,0.563692254 150.281351,0.563692254 C170.952118,0.563692254 190.642393,4.74950437 208.546107,12.3174038" id="Stroke-1"></path>
                        </g>
                        <g id="Group-93" transform="translate(106.000000, 42.000000)">
                            <path d="M174.327846,106.480851 C174.327846,144.477689 143.66698,175.283182 105.84531,175.283182 C68.025251,175.283182 37.3643854,144.477689 37.3643854,106.480851 C37.3643854,68.4807775 68.025251,37.676903 105.84531,37.676903 C143.66698,37.676903 174.327846,68.4807775 174.327846,106.480851 Z" id="Stroke-57" stroke="#009190" stroke-width="0.9"></path>
                            <path d="M161.554536,106.480865 C161.554536,137.390993 136.61374,162.45108 105.845455,162.45108 C75.078808,162.45108 50.1380114,137.390993 50.1380114,106.480865 C50.1380114,75.569092 75.078808,50.509005 105.845455,50.509005 C136.61374,50.509005 161.554536,75.569092 161.554536,106.480865 Z" id="Stroke-59" stroke="#009190" stroke-width="0.75"></path>
                            <g id="outer-circles">
                                <path d="M135.01549,208.794749 C135.01549,212.089489 132.359786,214.759309 129.080515,214.759309 C125.804409,214.759309 123.14554,212.089489 123.14554,208.794749 C123.14554,205.50478 125.804409,202.830189 129.080515,202.830189 C132.359786,202.830189 135.01549,205.50478 135.01549,208.794749" id="Fill-43" fill="#009190"></path>
                                <path d="M161.58107,14.2349613 C161.58107,17.5297011 158.925366,20.1995216 155.646095,20.1995216 C152.366823,20.1995216 149.71112,17.5297011 149.71112,14.2349613 C149.71112,10.9449919 152.366823,8.27040107 155.646095,8.27040107 C158.925366,8.27040107 161.58107,10.9449919 161.58107,14.2349613" id="Fill-45" fill="#009190"></path>
                                <path d="M14.5224264,146.361062 C14.5224264,149.654211 11.8635576,152.324032 8.58745138,152.324032 C5.30817987,152.324032 2.64931108,149.654211 2.64931108,146.361062 C2.64931108,143.069502 5.30817987,140.396501 8.58745138,140.396501 C11.8635576,140.396501 14.5224264,143.069502 14.5224264,146.361062" id="Fill-47" fill="#009190"></path>
                                <path d="M214.427037,134.991308 C214.427037,138.286048 211.768168,140.955868 208.488896,140.955868 C205.21279,140.955868 202.553921,138.286048 202.553921,134.991308 C202.553921,131.701339 205.21279,129.026748 208.488896,129.026748 C211.768168,129.026748 214.427037,131.701339 214.427037,134.991308" id="Fill-49" fill="#009190"></path>
                                <path d="M32.3607337,36.3055913 C32.3607337,39.6003311 29.7050302,42.2701516 26.4257587,42.2701516 C23.1464872,42.2701516 20.4876184,39.6003311 20.4876184,36.3055913 C20.4876184,33.0156219 23.1464872,30.341031 26.4257587,30.341031 C29.7050302,30.341031 32.3607337,33.0156219 32.3607337,36.3055913" id="Fill-51" fill="#009190"></path>
                                <path d="M211.014505,106.480837 C211.014505,164.836848 163.927205,212.144668 105.845166,212.144668 C47.7631268,212.144668 0.67899201,164.836848 0.67899201,106.480837 C0.67899201,48.1232362 47.7631268,0.81541629 105.845166,0.81541629 C163.927205,0.81541629 211.014505,48.1232362 211.014505,106.480837 Z" id="Stroke-53" stroke="#009190"></path>
                                <path d="M189.979213,106.480837 C189.979213,153.165328 152.310322,191.011902 105.845008,191.011902 C59.3796929,191.011902 21.7108024,153.165328 21.7108024,106.480837 C21.7108024,59.7947564 59.3796929,21.9481825 105.845008,21.9481825 C152.310322,21.9481825 189.979213,59.7947564 189.979213,106.480837 Z" id="Stroke-55" stroke="#009190"></path>
                                <path d="M125.896993,38.8555085 C125.896993,42.1502483 123.24129,44.8200688 119.962018,44.8200688 C116.682747,44.8200688 114.023878,42.1502483 114.023878,38.8555085 C114.023878,35.5655391 116.682747,32.8909482 119.962018,32.8909482 C123.24129,32.8909482 125.896993,35.5655391 125.896993,38.8555085" id="Fill-85" fill="#7EC7C5"></path>
                                <path d="M57.9353574,174.104735 C57.9353574,177.399475 55.2796539,180.069295 52.0003824,180.069295 C48.7211109,180.069295 46.0622421,177.399475 46.0622421,174.104735 C46.0622421,170.814766 48.7211109,168.140175 52.0003824,168.140175 C55.2796539,168.140175 57.9353574,170.814766 57.9353574,174.104735" id="Fill-87" fill="#7EC7C5"></path>
                                <path d="M159.506836,133.505336 C159.506836,136.800076 156.851132,139.469896 153.571861,139.469896 C150.295755,139.469896 147.636886,136.800076 147.636886,133.505336 C147.636886,130.215367 150.295755,127.540776 153.571861,127.540776 C156.851132,127.540776 159.506836,130.215367 159.506836,133.505336" id="Fill-89" fill="#7EC7C5"></path>
                                <path d="M47.2017538,85.0683339 C47.2017538,88.3630736 44.5460503,91.0328941 41.2667788,91.0328941 C37.9875073,91.0328941 35.3286385,88.3630736 35.3286385,85.0683339 C35.3286385,81.7783645 37.9875073,79.1037736 41.2667788,79.1037736 C44.5460503,79.1037736 47.2017538,81.7783645 47.2017538,85.0683339" id="Fill-91" fill="#7EC7C5"></path>
                            </g>
                        </g>
                        <g id="IE" transform="translate(167.000000, 107.000000)">
                            <g id="Group-3">
                                <mask id="mask-3" fill="white">
                                    <use xlink:href="#path-2"></use>
                                </mask>
                                <use id="Clip-2" fill="url(#linearGradient-1)" xlink:href="#path-2"></use>
                            </g>
                            <g id="Group-6" transform="translate(46.516607, 0.000000)">
                                <mask id="mask-5" fill="white">
                                    <use xlink:href="#path-4"></use>
                                </mask>
                                <use id="Clip-5" fill="url(#linearGradient-1)" xlink:href="#path-4"></use>
                            </g>
                            <polygon id="Fill-18" fill="#0F9696" points="22.2800683 24.2941176 29.7047809 24.2941176 29.660117 59.4225895 22.2358423 59.4225895"></polygon>
                            <path d="M58.1264495,57.6187997 C56.6268587,57.0351227 55.3180086,56.0870574 54.2010279,54.7754236 C53.0825423,53.4641998 52.1969335,51.758666 51.5426966,49.656363 C50.8884596,47.5552897 50.5615293,44.9726009 50.5615293,41.9070668 C50.5615293,38.8427625 50.8884596,36.251466 51.5426966,34.1344072 C52.1969335,32.0177582 53.0825423,30.3114047 54.2010279,29.0153466 C55.3180086,27.7201082 56.6268587,26.7810604 58.1264495,26.1957439 C59.6252879,25.6112471 61.220061,25.3185888 62.9107687,25.3185888 L77,25.3058824 L77,31.7521524 L63.6880278,31.7648588 C62.8968488,31.7648588 62.1402815,31.8759378 61.418326,32.0960463 C60.695618,32.3177944 60.0413811,32.6973484 59.455239,33.2338886 C58.8687206,33.7712486 58.3717413,34.4819901 57.9627962,35.366933 C57.5538511,36.251466 57.2675519,37.3569274 57.1042748,38.6845467 L77,38.6718402 L77,45.1177003 L57.1042748,45.1299969 C57.2675519,46.4572063 57.5538511,47.5638973 57.9627962,48.4484303 C58.3717413,49.3329633 58.8687206,50.0437049 59.455239,50.5810648 C60.0413811,51.1188347 60.695618,51.4979788 61.418326,51.7180873 C62.1402815,51.9398354 62.8968488,52.0505045 63.6880278,52.0505045 L77,52.0377981 L77,58.4836582 L62.9107687,58.4959548 C61.220061,58.4959548 59.6252879,58.2041162 58.1264495,57.6187997" id="Fill-20" fill="#0F9696"></path>
                        </g>
                        <g id="supplies01" transform="translate(189.000000, 270.000000)" fill="#0F9696" fill-rule="nonzero">
                            <path d="M44.973161,25.7922465 C44.9642147,25.7654076 44.9642147,25.7385686 44.9552684,25.7117296 L44.9463221,25.6848907 C44.9373757,25.666998 44.9373757,25.6491054 44.9284294,25.6312127 L44.9194831,25.6222664 C44.9015905,25.5864811 44.8926441,25.5685885 44.8836978,25.5417495 C44.8747515,25.5149105 44.8568588,25.4970179 44.8389662,25.4701789 L44.8300199,25.4522863 C44.8121272,25.4343936 44.8031809,25.416501 44.7852883,25.4075547 L44.7673956,25.389662 C44.749503,25.3717694 44.7316103,25.3538767 44.7137177,25.3359841 L44.7047714,25.3270378 C44.6868787,25.3091451 44.6600398,25.3001988 44.6421471,25.2823062 L44.6332008,25.2733598 L34.0854871,19.1898608 L34.0854871,7.00497018 C34.0854871,6.96918489 34.0854871,6.94234592 34.0765408,6.92445328 L34.0765408,6.91550696 C34.0765408,6.88866799 34.0675944,6.87077535 34.0586481,6.84393638 L34.0586481,6.82604374 C34.0497018,6.79920477 34.0407555,6.78131213 34.0407555,6.76341948 L34.0318091,6.75447316 C34.0139165,6.71868787 34.0049702,6.69184891 33.9960239,6.67395626 C33.9870775,6.65606362 33.9691849,6.62922465 33.9512922,6.60238569 L33.9423459,6.58449304 C33.9244533,6.5666004 33.915507,6.54870775 33.8976143,6.53976143 L33.8797217,6.52186879 C33.861829,6.50397614 33.8439364,6.4860835 33.8260437,6.47713718 L33.8170974,6.46819085 C33.7992048,6.45029821 33.7723658,6.44135189 33.7544732,6.42345924 L33.7455268,6.41451292 L22.8667992,0.134194831 C22.6610338,0.0178926441 22.4015905,0.0178926441 22.195825,0.134194831 L11.2992048,6.42345924 C11.2723658,6.44135189 11.2544732,6.45029821 11.2365805,6.46819085 C11.2097416,6.4860835 11.1918489,6.50397614 11.1739563,6.52186879 L11.1650099,6.53976143 C11.1471173,6.55765408 11.138171,6.57554672 11.1202783,6.58449304 L11.111332,6.59343936 C11.084493,6.62027833 11.0755467,6.6471173 11.0576541,6.66500994 C11.0487078,6.68290258 11.0308151,6.70974155 11.0218688,6.73658052 L11.0129225,6.75447316 C11.0039761,6.77236581 10.9950298,6.79025845 10.9950298,6.80815109 L10.9860835,6.82604374 C10.9771372,6.84393638 10.9771372,6.87077535 10.9681909,6.89761431 L10.9681909,6.90656064 C10.9681909,6.9333996 10.9592445,6.96023857 10.9592445,6.98707753 L10.9592445,7.00497018 L10.9592445,19.1809145 L0.402584493,25.2733598 C0.375745527,25.2912525 0.357852883,25.3001988 0.339960239,25.3180915 L0.331013917,25.3270378 C0.313121272,25.3359841 0.295228628,25.3538767 0.277335984,25.3717694 L0.268389662,25.3807157 C0.250497018,25.3986083 0.232604374,25.416501 0.223658052,25.4343936 L0.21471173,25.44334 C0.187872763,25.4701789 0.178926441,25.4970179 0.161033797,25.5149105 L0.161033797,25.5238569 C0.152087475,25.5417495 0.143141153,25.5685885 0.125248509,25.5864811 L0.116302187,25.6043738 C0.107355865,25.6222664 0.0984095427,25.640159 0.0984095427,25.6580517 L0.0894632207,25.6759443 C0.0805168986,25.7027833 0.0805168986,25.7206759 0.0715705765,25.7475149 L0.0715705765,25.7564612 C0.0715705765,25.7833002 0.0626242545,25.8101392 0.0626242545,25.8369781 L0.0626242545,25.8548708 L0.0626242545,38.415507 C0.0626242545,38.6570577 0.187872763,38.8807157 0.402584493,38.9970179 L11.2992048,45.2862823 C11.3260437,45.2952286 11.3439364,45.3131213 11.3707753,45.3220676 L11.3797217,45.3310139 C11.3976143,45.3399602 11.4244533,45.3489066 11.4512922,45.3578529 L11.4691849,45.3667992 C11.4870775,45.3757455 11.5139165,45.3757455 11.5318091,45.3757455 L11.5497018,45.3757455 C11.612326,45.3846918 11.6481113,45.3846918 11.7107356,45.3757455 L11.7286282,45.3757455 C11.7465209,45.3757455 11.7733598,45.3667992 11.7912525,45.3667992 L11.8091451,45.3578529 C11.8359841,45.3489066 11.8538767,45.3399602 11.8807157,45.3310139 L11.889662,45.3310139 C11.916501,45.3220676 11.9343936,45.3131213 11.9612326,45.2952286 L11.9791252,45.2862823 L22.526839,39.2027833 L33.083499,45.2952286 C33.110338,45.304175 33.1282306,45.3220676 33.1550696,45.3310139 L33.1729622,45.3399602 C33.1908549,45.3489066 33.2087475,45.3578529 33.2355865,45.3578529 L33.2534791,45.3578529 C33.2803181,45.3667992 33.2982107,45.3667992 33.3161034,45.3667992 L33.333996,45.3667992 C33.3966203,45.3757455 33.4324056,45.3757455 33.4950298,45.3667992 L33.5129225,45.3667992 C33.5308151,45.3667992 33.5487078,45.3578529 33.5755467,45.3578529 L33.5934394,45.3489066 C33.6202783,45.3399602 33.638171,45.3310139 33.6650099,45.3220676 L33.6739563,45.3220676 C33.7007952,45.3131213 33.7186879,45.304175 33.7455268,45.2862823 L33.7544732,45.277336 L44.6332008,38.9970179 C44.8389662,38.8807157 44.973161,38.6570577 44.973161,38.415507 L44.973161,25.8369781 C44.9821074,25.8459245 44.9821074,25.8190855 44.973161,25.7922465 Z M37.5208748,22.7415507 L27.9840954,28.2524851 L23.8777336,25.8817097 L33.4145129,20.3707753 L37.5208748,22.7415507 Z M32.7435388,19.2077535 L23.2067594,24.7186879 L23.2067594,13.7057654 L32.7435388,8.19483101 L32.7435388,19.2077535 Z M22.526839,1.51192843 L26.6332008,3.88270378 L17.0964215,9.39363817 L12.9900596,7.02286282 L22.526839,1.51192843 Z M11.639165,20.3707753 L15.7455268,22.7415507 L6.20874751,28.2524851 L2.10238569,25.8817097 L11.639165,20.3707753 Z M10.9681909,43.5685885 L1.43141153,38.0576541 L1.43141153,27.0447316 L5.66302187,29.4870775 L5.68091451,29.5139165 C5.77037773,29.6033797 5.88667992,29.6749503 6.00298211,29.7017893 L6.02982107,29.7107356 L10.9592445,32.555666 L10.9592445,43.5685885 L10.9681909,43.5685885 Z M11.639165,31.3836978 L7.55069583,29.0218688 L17.0874751,23.5109344 L21.1759443,25.8727634 L11.639165,31.3836978 Z M21.8558648,38.0666004 L12.3190855,43.5775348 L12.3190855,32.5646123 L21.8558648,27.0536779 L21.8558648,38.0666004 Z M21.8558648,24.7097416 L12.3190855,19.1988072 L12.3190855,8.18588469 L16.5506958,10.6282306 L16.5685885,10.6550696 C16.6580517,10.7445328 16.7743539,10.8161034 16.8996024,10.8429423 L16.9264414,10.8518887 L21.8469185,13.6968191 L21.8469185,24.7097416 L21.8558648,24.7097416 Z M18.4473161,10.1719682 L27.9840954,4.6610338 L32.0636183,7.02286282 L22.526839,12.5337972 L18.4473161,10.1719682 Z M32.7435388,43.5685885 L23.2067594,38.0576541 L23.2067594,27.0447316 L27.4383698,29.4870775 L27.4562624,29.5139165 C27.5457256,29.6033797 27.6530815,29.6749503 27.77833,29.7017893 L27.805169,29.7107356 L32.7345924,32.555666 L32.7345924,43.5685885 L32.7435388,43.5685885 Z M33.4145129,31.3836978 L29.3349901,29.0218688 L38.8717694,23.5109344 L42.9602386,25.8727634 L33.4145129,31.3836978 Z M43.6312127,38.0666004 L34.0944334,43.5775348 L34.0944334,32.5646123 L43.6312127,27.0536779 L43.6312127,38.0666004 Z" id="Shape"></path>
                        </g>
                        <g id="engineer" transform="translate(294.000000, 12.000000)" fill="#0F9696" fill-rule="nonzero">
                            <path d="M40.8180913,35.6621012 C36.5441131,33.3956429 33.2657897,32.124754 30.3473353,31.637506 L30.6493591,31.2222659 C30.7926071,31.0790179 30.8641885,30.8641885 30.7926071,30.6493591 L30.1215,27.9650159 C31.8964444,25.4558294 32.9409008,22.318877 32.9409008,19.3348988 L32.9409008,16.4704504 L33.6569702,16.4704504 L35.0891944,16.4704504 C35.5188532,16.4704504 35.8052639,16.1840397 35.8052639,15.754381 C35.8052639,15.3247222 35.5188532,15.0383115 35.0891944,15.0383115 L34.373125,15.0383115 L34.373125,14.3222421 C34.373125,8.6650119 30.6493591,3.86709921 25.0637103,2.29162698 L25.0637103,2.14829365 C25.0637103,1.00248016 24.1328115,0 22.9154167,0 L20.0509683,0 C18.9051548,0 17.9026746,0.93089881 17.9026746,2.14829365 L17.9026746,2.29154167 C12.3170258,3.86701389 8.59325992,8.66492659 8.59325992,14.3221567 L8.59325992,15.0382262 L7.87719048,15.0382262 C7.44753175,15.0382262 7.16112103,15.3246369 7.16112103,15.7542956 C7.16112103,16.1839544 7.44753175,16.4703651 7.87719048,16.4703651 L9.30941468,16.4703651 L10.0254841,16.4703651 L10.0254841,19.3348135 C10.0254841,22.3187917 11.0699405,25.455744 12.8448849,27.9650159 L12.1737778,30.6493591 C12.1737778,30.7926071 12.1737778,31.0790179 12.3170258,31.2222659 L12.6190496,31.637506 C9.70068056,32.1248393 6.42227183,33.3956429 2.14829365,35.6621012 C0.787736111,36.3066746 0,37.6672321 0,39.1710377 L0,42.2503155 C0,42.6799742 0.286410714,42.9663849 0.716069444,42.9663849 L17.9026746,42.9663849 L18.1890853,42.9663849 L24.7772996,42.9663849 L25.0637103,42.9663849 L42.2503155,42.9663849 C42.6799742,42.9663849 42.9663849,42.6799742 42.9663849,42.2503155 L42.9663849,39.1710377 C42.9664702,37.7388135 42.1070675,36.378256 40.8180913,35.6621012 Z M21.0537897,34.9992698 L21.4872877,34.0239206 L22.5575952,36.3786825 L23.257625,37.9536429 L19.7646429,37.9536429 L21.0537897,34.9992698 Z M19.2203175,39.3858671 L23.7406925,39.3858671 L24.149875,41.5341607 L18.7906587,41.5341607 L19.2203175,39.3858671 Z M29.0023056,29.3603829 L29.2887163,30.6493591 L28.5572044,31.6538016 C28.5105357,31.6919385 28.4673651,31.7381806 28.4293988,31.7950873 L25.4507956,35.9193333 L24.5056488,37.2170972 L22.5750853,32.8733294 C24.882752,32.5918671 26.9427421,31.4334266 28.6065179,29.768627 C28.6249464,29.750369 28.6434603,29.7322817 28.6618036,29.7138532 C28.6662401,29.7093313 28.6706766,29.7048095 28.6751131,29.7002877 C28.7854286,29.589631 28.8945496,29.4765 29.0023056,29.3603829 Z M28.0693591,5.23755357 C28.148875,5.2904504 28.2277083,5.3442004 28.3056885,5.39897421 C29.2185,6.07921032 30.0610952,6.8760754 30.7210258,7.73394246 L27.4269187,8.37843056 L28.0693591,5.23755357 Z M15.5395516,8.37843056 L12.2454444,7.73394246 C12.905375,6.87599008 13.7480556,6.079125 14.6608671,5.39888889 C14.7387619,5.3442004 14.8175952,5.2904504 14.8971111,5.23755357 L15.5395516,8.37843056 Z M10.0254841,14.3221567 C10.0254841,12.4165913 10.5052242,10.6188671 11.3735,9.04783135 L16.3272877,10.0255694 C16.398869,10.0255694 16.398869,10.0255694 16.4705357,10.0255694 C16.6853651,10.0255694 16.8286131,9.9539881 17.0434425,9.88232143 C17.2582718,9.73907341 17.3298532,9.4526627 17.2582718,9.23783333 L16.2751587,4.45323016 C16.7929504,4.20410317 17.3363373,3.99012698 17.9027599,3.81420238 L17.9027599,5.72889683 C17.9027599,6.15855556 18.1891706,6.44496627 18.6188294,6.44496627 C19.0484881,6.44496627 19.3348988,6.15855556 19.3348988,5.72889683 L19.3348988,2.86444841 L19.3348988,2.14829365 C19.3348988,1.79021627 19.6213095,1.43222421 20.0509683,1.43222421 L22.9154167,1.43222421 C23.273494,1.43222421 23.6314861,1.71863492 23.6314861,2.14829365 L23.6314861,2.8643631 L23.6314861,5.72881151 C23.6314861,6.15847024 23.9178968,6.44488095 24.3475556,6.44488095 C24.7772143,6.44488095 25.063625,6.15847024 25.063625,5.72881151 L25.063625,3.81420238 C25.6489028,3.99592857 26.2098651,4.21809524 26.7430992,4.4778869 L25.7797798,9.16625198 C25.7797798,9.38108135 25.8513611,9.66749206 25.9946091,9.81074008 C26.1378571,9.9539881 26.2810198,10.0255694 26.4958492,10.0255694 C26.5674306,10.0255694 26.5674306,10.0255694 26.6390972,10.0255694 L31.5608056,8.98938889 C32.4494722,10.574246 32.9408155,12.3930437 32.9408155,14.3221567 L32.9408155,15.0382262 L32.224746,15.0382262 L10.7416389,15.0382262 L10.0254841,15.0382262 L10.0255694,14.3221567 L10.0254841,14.3221567 Z M11.457623,16.4704504 L31.5086766,16.4704504 L31.5086766,19.3348988 C31.5086766,22.4574325 30.4375159,25.2322123 28.8292817,27.3413452 L28.7874762,27.355252 C28.7158948,27.4268333 28.6442282,27.4985 28.5726468,27.5700813 C28.2123512,28.050504 27.8320913,28.4885238 27.4347679,28.8834583 C25.7486389,30.4543234 23.7374504,31.4057837 21.7995496,31.5000595 C21.7020317,31.4581687 21.5926548,31.4370952 21.4831925,31.4370952 C21.3731329,31.4370952 21.2739087,31.4586806 21.1849226,31.500998 C19.9986687,31.4465655 18.7846012,31.0705714 17.633754,30.4273631 C16.4678909,29.7575357 15.3711349,28.7919127 14.3936528,27.5700813 C14.3220714,27.4985 14.2504048,27.4268333 14.1788234,27.355252 L14.1370179,27.3413452 C12.5287837,25.232127 11.457623,22.4573472 11.457623,19.3348988 L11.457623,16.4704504 Z M20.3912996,32.8735 L18.4607361,37.2172679 L17.5155893,35.919504 L14.5369861,31.7952579 C14.5142063,31.7724782 14.4889524,31.749869 14.4628452,31.7276012 L13.6776687,30.6494444 L13.9640794,29.3604683 C14.0611706,29.4649821 14.159627,29.5668512 14.2590218,29.6670992 C15.9401171,31.3863313 18.0367937,32.5863214 20.3912996,32.8735 Z M1.43222421,39.1710377 C1.43222421,38.2401389 1.93346429,37.3807361 2.79286706,36.9510774 C7.35743651,34.5260992 10.6433532,33.3090456 13.5704246,32.9455079 L17.8438056,38.8213214 L17.3012718,41.5340754 L1.43222421,41.5340754 L1.43222421,39.1710377 Z M41.534246,41.534246 L25.6652837,41.534246 L25.12275,38.8214921 L29.442373,32.8820317 C32.3592063,33.3221845 35.7039067,34.5382996 40.1736032,36.8795813 C41.0329206,37.3808214 41.534246,38.2402242 41.534246,39.171123 L41.534246,41.534246 Z" id="Shape"></path>
                        </g>
                        <g id="suitcase" transform="translate(335.000000, 170.000000)" fill="#0F9696" fill-rule="nonzero">
                            <rect id="Rectangle-path" x="26.875" y="28.890625" width="1.34375" height="1.34375"></rect>
                            <rect id="Rectangle-path" x="22.84375" y="28.890625" width="1.34375" height="1.34375"></rect>
                            <rect id="Rectangle-path" x="34.265625" y="28.890625" width="1.34375" height="1.34375"></rect>
                            <rect id="Rectangle-path" x="38.296875" y="28.890625" width="1.34375" height="1.34375"></rect>
                            <path d="M36.28125,8.0625 L36.28125,1.34375 L37.625,1.34375 L37.625,0 L36.28125,0 L26.875,0 L25.53125,0 L25.53125,1.34375 L26.875,1.34375 L26.875,8.0625 L23.515625,8.0625 L22.84375,8.0625 L20.828125,8.0625 C20.425,8.0625 20.15625,8.33125 20.15625,8.734375 L20.15625,27.546875 C20.15625,27.95 20.425,28.21875 20.828125,28.21875 L22.84375,28.21875 L23.515625,28.21875 L43,28.21875 L43,8.0625 L36.28125,8.0625 Z M22.84375,26.875 L21.5,26.875 L21.5,9.40625 L22.84375,9.40625 L22.84375,26.875 Z M28.21875,1.34375 L34.9375,1.34375 L34.9375,8.0625 L28.21875,8.0625 L28.21875,1.34375 Z M41.65625,26.875 L24.1875,26.875 L24.1875,9.40625 L41.65625,9.40625 L41.65625,26.875 Z" id="Shape"></path>
                            <path d="M26.875,18.8125 L30.90625,18.8125 C31.309375,18.8125 31.578125,18.54375 31.578125,18.140625 L31.578125,14.109375 C31.578125,13.70625 31.309375,13.4375 30.90625,13.4375 L26.875,13.4375 C26.471875,13.4375 26.203125,13.70625 26.203125,14.109375 L26.203125,18.140625 C26.203125,18.54375 26.471875,18.8125 26.875,18.8125 Z M27.546875,14.78125 L30.234375,14.78125 L30.234375,17.46875 L27.546875,17.46875 L27.546875,14.78125 Z" id="Shape"></path>
                            <path d="M34.534375,25.4640625 C34.66875,25.5984375 34.803125,25.665625 35.0046875,25.665625 C35.20625,25.665625 35.340625,25.5984375 35.475,25.4640625 L38.0953125,22.84375 C38.3640625,22.575 38.3640625,22.171875 38.0953125,21.903125 L35.74375,19.5515625 C35.475,19.2828125 35.071875,19.2828125 34.803125,19.5515625 L32.115625,22.171875 C31.846875,22.440625 31.846875,22.84375 32.115625,23.1125 L34.534375,25.4640625 Z M35.20625,20.9625 L36.6171875,22.3734375 L34.9375,24.053125 L33.59375,22.6421875 L35.20625,20.9625 Z" id="Shape"></path>
                            <path d="M36.953125,16.796875 C38.2296875,16.796875 39.3046875,15.721875 39.3046875,14.4453125 C39.3046875,13.16875 38.2296875,12.09375 36.953125,12.09375 C35.6765625,12.09375 34.6015625,13.16875 34.6015625,14.4453125 C34.6015625,15.721875 35.6765625,16.796875 36.953125,16.796875 Z M36.953125,13.4375 C37.490625,13.4375 37.9609375,13.9078125 37.9609375,14.4453125 C37.9609375,14.9828125 37.490625,15.453125 36.953125,15.453125 C36.415625,15.453125 35.9453125,14.9828125 35.9453125,14.4453125 C35.9453125,13.9078125 36.415625,13.4375 36.953125,13.4375 Z" id="Shape"></path>
                            <polygon id="Shape" points="10.48125 9.271875 11.421875 8.33125 12.3625 9.271875 13.303125 8.33125 12.3625 7.390625 13.303125 6.45 12.3625 5.509375 11.421875 6.45 10.48125 5.509375 9.540625 6.45 10.48125 7.390625 9.540625 8.33125"></polygon>
                            <path d="M4.703125,35.609375 C3.5609375,35.609375 2.6875,36.4828125 2.6875,37.625 C2.6875,38.7671875 3.5609375,39.640625 4.703125,39.640625 C5.8453125,39.640625 6.71875,38.7671875 6.71875,37.625 C6.71875,36.4828125 5.8453125,35.609375 4.703125,35.609375 Z M4.703125,38.296875 C4.3,38.296875 4.03125,38.028125 4.03125,37.625 C4.03125,37.221875 4.3,36.953125 4.703125,36.953125 C5.10625,36.953125 5.375,37.221875 5.375,37.625 C5.375,38.028125 5.10625,38.296875 4.703125,38.296875 Z" id="Shape"></path>
                            <path d="M11.421875,35.609375 C10.2796875,35.609375 9.40625,36.4828125 9.40625,37.625 C9.40625,38.7671875 10.2796875,39.640625 11.421875,39.640625 C12.5640625,39.640625 13.4375,38.7671875 13.4375,37.625 C13.4375,36.4828125 12.5640625,35.609375 11.421875,35.609375 Z M11.421875,38.296875 C11.01875,38.296875 10.75,38.028125 10.75,37.625 C10.75,37.221875 11.01875,36.953125 11.421875,36.953125 C11.825,36.953125 12.09375,37.221875 12.09375,37.625 C12.09375,38.028125 11.825,38.296875 11.421875,38.296875 Z" id="Shape"></path>
                            <path d="M18.140625,35.609375 C16.9984375,35.609375 16.125,36.4828125 16.125,37.625 C16.125,38.7671875 16.9984375,39.640625 18.140625,39.640625 C19.2828125,39.640625 20.15625,38.7671875 20.15625,37.625 C20.15625,36.4828125 19.2828125,35.609375 18.140625,35.609375 Z M18.140625,38.296875 C17.7375,38.296875 17.46875,38.028125 17.46875,37.625 C17.46875,37.221875 17.7375,36.953125 18.140625,36.953125 C18.54375,36.953125 18.8125,37.221875 18.8125,37.625 C18.8125,38.028125 18.54375,38.296875 18.140625,38.296875 Z" id="Shape"></path>
                            <path d="M24.859375,35.609375 C23.7171875,35.609375 22.84375,36.4828125 22.84375,37.625 C22.84375,38.7671875 23.7171875,39.640625 24.859375,39.640625 C26.0015625,39.640625 26.875,38.7671875 26.875,37.625 C26.875,36.4828125 26.0015625,35.609375 24.859375,35.609375 Z M24.859375,38.296875 C24.45625,38.296875 24.1875,38.028125 24.1875,37.625 C24.1875,37.221875 24.45625,36.953125 24.859375,36.953125 C25.2625,36.953125 25.53125,37.221875 25.53125,37.625 C25.53125,38.028125 25.2625,38.296875 24.859375,38.296875 Z" id="Shape"></path>
                            <path d="M31.578125,35.609375 C30.4359375,35.609375 29.5625,36.4828125 29.5625,37.625 C29.5625,38.7671875 30.4359375,39.640625 31.578125,39.640625 C32.7203125,39.640625 33.59375,38.7671875 33.59375,37.625 C33.59375,36.4828125 32.7203125,35.609375 31.578125,35.609375 Z M31.578125,38.296875 C31.175,38.296875 30.90625,38.028125 30.90625,37.625 C30.90625,37.221875 31.175,36.953125 31.578125,36.953125 C31.98125,36.953125 32.25,37.221875 32.25,37.625 C32.25,38.028125 31.98125,38.296875 31.578125,38.296875 Z" id="Shape"></path>
                            <path d="M38.296875,35.609375 C37.1546875,35.609375 36.28125,36.4828125 36.28125,37.625 C36.28125,38.7671875 37.1546875,39.640625 38.296875,39.640625 C39.4390625,39.640625 40.3125,38.7671875 40.3125,37.625 C40.3125,36.4828125 39.4390625,35.609375 38.296875,35.609375 Z M38.296875,38.296875 C37.89375,38.296875 37.625,38.028125 37.625,37.625 C37.625,37.221875 37.89375,36.953125 38.296875,36.953125 C38.7,36.953125 38.96875,37.221875 38.96875,37.625 C38.96875,38.028125 38.7,38.296875 38.296875,38.296875 Z" id="Shape"></path>
                            <path d="M39.640625,31.578125 L3.359375,31.578125 C1.478125,31.578125 0,33.05625 0,34.9375 L0,39.640625 C0,41.521875 1.478125,43 3.359375,43 L39.640625,43 C41.521875,43 43,41.521875 43,39.640625 L43,34.9375 C43,33.05625 41.521875,31.578125 39.640625,31.578125 Z M41.65625,39.640625 C41.65625,40.7828125 40.7828125,41.65625 39.640625,41.65625 L3.359375,41.65625 C2.2171875,41.65625 1.34375,40.7828125 1.34375,39.640625 L1.34375,34.9375 C1.34375,33.7953125 2.2171875,32.921875 3.359375,32.921875 L39.640625,32.921875 C40.7828125,32.921875 41.65625,33.7953125 41.65625,34.9375 L41.65625,39.640625 Z" id="Shape"></path>
                            <path d="M18.140625,22.171875 C18.140625,20.559375 16.9984375,19.215625 15.453125,18.8796875 L15.453125,16.796875 C15.453125,16.39375 15.184375,16.125 14.78125,16.125 L5.375,16.125 C4.971875,16.125 4.703125,16.39375 4.703125,16.796875 L4.703125,18.8125 C2.821875,18.8125 1.34375,20.290625 1.34375,22.171875 L1.34375,30.234375 L18.140625,30.234375 L18.140625,22.171875 Z M6.046875,17.46875 L14.109375,17.46875 L14.109375,18.8125 L6.046875,18.8125 L6.046875,17.46875 Z M2.6875,24.1875 L4.703125,24.1875 L4.703125,26.203125 L2.6875,26.203125 L2.6875,24.1875 Z M16.796875,26.203125 L14.78125,26.203125 L14.78125,24.1875 L16.796875,24.1875 L16.796875,26.203125 Z M16.796875,22.84375 L13.4375,22.84375 L13.4375,27.546875 L16.796875,27.546875 L16.796875,28.890625 L2.6875,28.890625 L2.6875,27.546875 L6.046875,27.546875 L6.046875,22.84375 L2.6875,22.84375 L2.6875,22.171875 C2.6875,21.0296875 3.5609375,20.15625 4.703125,20.15625 L4.703125,21.5 C4.703125,21.903125 4.971875,22.171875 5.375,22.171875 C5.778125,22.171875 6.046875,21.903125 6.046875,21.5 L6.046875,20.15625 L14.109375,20.15625 L14.109375,21.5 C14.109375,21.903125 14.378125,22.171875 14.78125,22.171875 C15.184375,22.171875 15.453125,21.903125 15.453125,21.5 L15.453125,20.290625 C16.259375,20.559375 16.796875,21.2984375 16.796875,22.171875 L16.796875,22.84375 Z" id="Shape"></path>
                            <path d="M4.703125,12.765625 L6.71875,12.765625 C7.121875,12.765625 7.390625,12.496875 7.390625,12.09375 C7.390625,11.690625 7.121875,11.421875 6.71875,11.421875 L4.703125,11.421875 C4.3,11.421875 4.03125,11.690625 4.03125,12.09375 C4.03125,12.496875 4.3,12.765625 4.703125,12.765625 Z" id="Shape"></path>
                            <path d="M18.140625,4.03125 L20.15625,4.03125 C20.559375,4.03125 20.828125,3.7625 20.828125,3.359375 C20.828125,2.95625 20.559375,2.6875 20.15625,2.6875 L18.140625,2.6875 C17.7375,2.6875 17.46875,2.95625 17.46875,3.359375 C17.46875,3.7625 17.7375,4.03125 18.140625,4.03125 Z" id="Shape"></path>
                        </g>
                        <path d="M36.12,42.7 L38.06,42.7 L38.06,38.68 L35.72,38.68 L35.72,36.7 L42.2,36.7 L42.2,38.68 L40.1,38.68 L40.1,42.7 L42.02,42.7 L42.02,44.68 L40.1,44.68 L40.1,48.28 C40.82,48.02 41.52,47.74 42.22,47.42 L42.22,49.42 C40.34,50.24 38.32,50.94 36.16,51.5 L35.66,49.48 C36.48,49.32 37.28,49.14 38.06,48.94 L38.06,44.68 L36.12,44.68 L36.12,42.7 Z M42.98,36.16 L52.94,36.16 L52.94,40.68 L42.98,40.68 L42.98,36.16 Z M51.12,39.14 L51.12,37.7 L50,37.7 L50,39.14 L51.12,39.14 Z M48.56,39.14 L48.56,37.7 L47.42,37.7 L47.42,39.14 L48.56,39.14 Z M45.96,39.14 L45.96,37.7 L44.84,37.7 L44.84,39.14 L45.96,39.14 Z M42.28,41.4 L53.72,41.4 L53.72,43.16 L42.28,43.16 L42.28,41.4 Z M43.26,43.92 L52.68,43.92 L52.68,48.18 L47.86,48.18 C47.4,48.9 46.84,49.5 46.2,50.02 L46.2,51.96 C47.1,51.7 48,51.42 48.9,51.1 L49.3,52.84 C47.66,53.36 46,53.8 44.32,54.14 L43.72,52.58 C44.16,52.44 44.38,52.24 44.38,51.96 L44.38,51.12 C43.66,51.44 42.9,51.7 42.08,51.9 L41.02,50.34 C43.02,49.94 44.54,49.22 45.58,48.18 L43.26,48.18 L43.26,43.92 Z M50.8,46.62 L50.8,45.5 L45.16,45.5 L45.16,46.62 L50.8,46.62 Z M52.6,48.48 L53.84,49.72 C53.24,50.3 52.58,50.76 51.88,51.1 C52.64,51.64 53.48,52.06 54.44,52.36 L53.5,53.98 C50.96,53.06 49.12,51.4 47.98,48.98 L49.56,48.46 C49.86,49.02 50.22,49.52 50.62,49.96 C51.3,49.6 51.96,49.12 52.6,48.48 Z M65.4,36.92 L69.6,36.92 C69.44,36.5 69.26,36.1 69.1,35.74 L71.32,35.38 C71.48,35.84 71.62,36.36 71.76,36.92 L76.38,36.92 L76.38,38.64 L74.4,38.64 C74.24,39.2 74.04,39.72 73.82,40.24 L76.96,40.24 L76.96,41.98 L64.8,41.98 L64.8,40.24 L67.62,40.24 C67.44,39.68 67.24,39.14 67.04,38.64 L65.4,38.64 L65.4,36.92 Z M71.82,40.24 C72.1,39.72 72.32,39.18 72.48,38.64 L69.1,38.64 C69.26,39.14 69.44,39.68 69.6,40.24 L71.82,40.24 Z M65.88,42.76 L75.76,42.76 L75.76,49.48 L73.36,49.48 L73.36,51.5 C73.36,51.86 73.48,52.06 73.72,52.06 L74.98,52.06 C75.14,52.06 75.26,51.96 75.36,51.8 C75.46,51.62 75.52,51.06 75.56,50.1 L77.44,50.68 C77.3,52.22 77.08,53.14 76.76,53.42 C76.44,53.7 75.96,53.84 75.32,53.84 L73.18,53.84 C71.94,53.84 71.32,53.2 71.32,51.92 L71.32,49.48 L69.72,49.48 C69.46,50.6 68.98,51.54 68.26,52.26 C67.42,53.06 66.02,53.68 64.04,54.16 L63.26,52.28 C64.84,52 65.98,51.58 66.68,51.04 C67.18,50.64 67.54,50.12 67.76,49.48 L65.88,49.48 L65.88,42.76 Z M73.84,47.8 L73.84,46.82 L67.78,46.82 L67.78,47.8 L73.84,47.8 Z M67.78,45.4 L73.84,45.4 L73.84,44.4 L67.78,44.4 L67.78,45.4 Z M64.92,47.36 L64.92,49.48 C63.16,50.36 61.28,51.1 59.28,51.72 L58.72,49.42 C59.36,49.3 60,49.14 60.64,48.96 L60.64,42.26 L58.78,42.26 L58.78,40.24 L60.64,40.24 L60.64,35.66 L62.74,35.66 L62.74,40.24 L64.24,40.24 L64.24,42.26 L62.74,42.26 L62.74,48.28 C63.46,48 64.2,47.7 64.92,47.36 Z" id="環境" fill="#009190"></path>
                        <path d="M1.1,197.32 L9.44,197.32 C9.08,196.58 8.66,195.88 8.16,195.2 L10.14,194.46 C10.66,195.26 11.16,196.22 11.6,197.32 L18.98,197.32 L18.98,199.34 L8.62,199.34 C8.58,200.1 8.54,201.08 8.46,202.3 L16.7,202.3 C16.62,206.74 16.42,209.52 16.1,210.6 C15.64,212.16 14.62,212.94 13.06,212.98 C12.4,212.98 11.64,212.94 10.76,212.88 L10.14,210.98 C11.2,211.04 12.1,211.08 12.84,211.08 C13.62,211.04 14.12,210.46 14.36,209.34 C14.48,208.72 14.54,207.04 14.58,204.28 L8.22,204.28 C7.94,205.8 7.46,207.18 6.76,208.44 C5.78,210.18 4.4,211.78 2.62,213.22 L1.1,211.74 C3.22,209.98 4.62,208.34 5.3,206.84 C5.96,205.34 6.34,203.64 6.44,201.76 C6.48,200.76 6.52,199.96 6.54,199.34 L1.1,199.34 L1.1,197.32 Z M34.32,194.62 L36.44,194.62 L36.44,197.58 L41.36,197.58 L41.36,199.6 L36.44,199.6 L36.44,202.7 L41.88,202.7 L41.88,204.74 L35.4,204.74 C34.32,207.3 33.34,209.2 32.5,210.44 C34.58,210.2 36.66,209.86 38.72,209.44 C38.22,208.4 37.72,207.46 37.2,206.58 L39.22,205.9 C40.38,207.9 41.4,210.02 42.28,212.3 L40.3,213.18 C40.04,212.5 39.78,211.86 39.54,211.26 C36.56,211.86 33.34,212.32 29.86,212.66 L29.4,210.84 C29.6,210.78 29.74,210.72 29.84,210.66 C30.68,209.9 31.8,207.94 33.16,204.74 L28.84,204.74 L28.84,202.7 L34.32,202.7 L34.32,199.6 L29.8,199.6 L29.8,197.58 L34.32,197.58 L34.32,194.62 Z M25.8,194.74 C27.08,195.74 28.16,196.72 29.06,197.7 L27.58,199.2 C26.82,198.26 25.72,197.26 24.3,196.18 L25.8,194.74 Z M25.3,199.42 C26.48,200.42 27.48,201.42 28.32,202.42 L26.82,203.9 C26.12,202.98 25.12,201.96 23.82,200.86 L25.3,199.42 Z M27.1,205.08 L29,205.86 C28.14,208.36 27.18,210.72 26.14,212.92 L24.04,212 C25.22,209.76 26.24,207.44 27.1,205.08 Z" id="方法" fill="#009190"></path>
                        <path d="M391.76,202.54 L391.76,212.02 L389.82,212.02 L389.82,203.36 C389.42,204.54 388.94,205.64 388.42,206.66 L387.58,204.52 C388.54,202.98 389.24,201.22 389.72,199.26 L388.06,199.26 L388.06,197.32 L389.82,197.32 L389.82,193.58 L391.76,193.58 L391.76,197.32 L393.12,197.32 L393.12,199.26 L391.76,199.26 L391.76,200.18 C392.38,200.9 393,201.66 393.62,202.5 L392.58,204.06 C392.26,203.48 392,202.98 391.76,202.54 Z M404.16,211.92 C403.2,211.9 402.3,211.34 401.46,210.24 C400.42,210.98 399.24,211.6 397.94,212.08 L397.12,210.28 C398.36,209.84 399.48,209.26 400.44,208.58 C400,207.68 399.64,206.64 399.36,205.46 L399.36,205.42 L396.72,205.42 C396.72,205.66 396.7,205.88 396.7,206.1 C397.7,206.58 398.6,207.12 399.4,207.76 L398.36,209.34 C397.72,208.78 397.1,208.32 396.48,207.94 C396.16,209.54 395.22,210.9 393.66,212.02 L392.38,210.38 C393.7,209.52 394.5,208.38 394.74,206.96 C394.82,206.5 394.86,205.98 394.9,205.42 L393.04,205.42 L393.04,203.58 L399.02,203.58 C398.78,201.98 398.68,200.22 398.68,198.3 L398.68,196.4 C397.96,197.64 397.32,198.68 396.78,199.48 L397.78,199.14 C398.08,200.12 398.34,201.24 398.58,202.48 L397.3,202.82 C397.26,202.54 397.2,202.28 397.14,202.04 C396.14,202.2 395.04,202.34 393.82,202.5 L393.52,201.12 C394,200.96 394.72,200.12 395.68,198.6 C395.04,198.68 394.36,198.74 393.64,198.8 L393.36,197.48 C393.74,197.3 394.38,196.02 395.3,193.64 L396.9,194.2 C396.22,195.64 395.66,196.68 395.22,197.32 C395.7,197.26 396.14,197.2 396.54,197.16 C396.82,196.64 397.12,196.08 397.44,195.52 L398.68,195.94 L398.68,193.6 L400.6,193.6 L400.6,198.3 C400.6,200.28 400.72,202.04 400.92,203.58 L402.58,203.58 C402.38,203.28 402.18,203 401.96,202.72 L403.56,202.12 C403.84,202.54 404.12,203.02 404.38,203.58 L406.18,203.58 L406.18,205.42 L403.74,205.42 L405,206.38 C404.38,207.42 403.64,208.34 402.8,209.14 C403.22,209.68 403.62,209.96 404,209.96 C404.3,209.96 404.56,209.18 404.8,207.66 L406.42,208.72 C405.92,210.84 405.16,211.92 404.16,211.92 Z M403.46,205.42 L401.26,205.42 C401.42,206.16 401.62,206.82 401.86,207.4 C402.48,206.78 403.02,206.12 403.46,205.42 Z M396.62,199.7 C396.24,200.22 395.9,200.66 395.62,200.98 L396.88,200.76 C396.8,200.38 396.7,200.02 396.62,199.7 Z M405.22,198.7 C405.62,199.7 405.98,200.84 406.3,202.16 L404.94,202.5 C404.86,202.2 404.8,201.92 404.74,201.68 C403.7,201.84 402.52,201.98 401.24,202.14 L400.92,200.76 C401.4,200.6 402.1,199.8 403.02,198.38 C402.38,198.46 401.68,198.52 400.96,198.58 L400.68,197.32 C401.04,197.14 401.7,195.92 402.64,193.66 L404.18,194.2 C403.5,195.52 402.96,196.5 402.52,197.14 C403.02,197.08 403.48,197.02 403.88,196.98 C404.16,196.5 404.46,195.98 404.76,195.44 L406.2,195.94 C405.48,197.16 404.84,198.18 404.28,199 L405.22,198.7 Z M404.04,199.34 C403.66,199.88 403.32,200.32 403.04,200.64 C403.52,200.56 403.96,200.48 404.4,200.42 C404.28,200.02 404.16,199.66 404.04,199.34 Z M421.22,202.84 L418.64,202.84 C417.68,203.86 416.48,204.74 415.04,205.46 L419.24,205.46 L419.24,212.1 L417.4,212.1 L417.4,211.34 L414.7,211.34 L414.7,212.1 L412.88,212.1 L412.88,206.38 C412.48,206.52 412.1,206.66 411.7,206.78 L410.74,205.06 C412.86,204.46 414.54,203.72 415.82,202.84 L411.1,202.84 L411.1,201 L417.76,201 C418.08,200.56 418.34,200.1 418.54,199.66 L420.52,199.88 C420.36,200.26 420.18,200.64 419.98,201 L424.16,201 C423.92,200.62 423.7,200.28 423.46,199.96 L424.8,199.52 L420.88,199.52 L420.88,194.2 L427.62,194.2 L427.62,199.52 L425.32,199.52 C425.64,200 425.94,200.48 426.22,201 L428.9,201 L428.9,202.84 L424.48,202.84 C426.32,203.64 427.98,204.48 429.42,205.38 L428.12,206.92 L427.46,206.42 L427.46,212.1 L425.62,212.1 L425.62,211.34 L422.58,211.34 L422.58,212.1 L420.74,212.1 L420.74,205.46 L426.08,205.46 C424.68,204.54 423.06,203.66 421.22,202.84 Z M422.58,209.58 L425.62,209.58 L425.62,207.18 L422.58,207.18 L422.58,209.58 Z M414.7,209.58 L417.4,209.58 L417.4,207.18 L414.7,207.18 L414.7,209.58 Z M412.62,194.2 L419.16,194.2 L419.16,199.52 L412.62,199.52 L412.62,194.2 Z M417.28,197.8 L417.28,195.96 L414.5,195.96 L414.5,197.8 L417.28,197.8 Z M425.74,197.8 L425.74,195.96 L422.76,195.96 L422.76,197.8 L425.74,197.8 Z" id="機器" fill="#009190"></path>
                        <path d="M357.903689,36.71398 C357.903689,38.461748 357.844106,39.951323 357.764662,41.182705 C358.9166,46.406148 361.756723,50.398209 366.26517,53.158888 L364.8749,54.9861 C361.160893,52.483614 358.539241,49.146966 357.009944,44.956295 C355.699118,49.007939 352.978161,52.364448 348.847073,55.025822 L347.575969,53.158888 C352.898717,49.981128 355.619674,45.532264 355.778562,39.832157 C355.778562,38.50147 355.798423,37.468698 355.798423,36.71398 L357.903689,36.71398 Z M374.071532,37.270088 L385.531329,37.270088 L385.531329,41.520342 L374.071532,41.520342 L374.071532,37.270088 Z M383.545229,39.991045 L383.545229,38.819246 L376.037771,38.819246 L376.037771,39.991045 L383.545229,39.991045 Z M372.959316,42.354504 L386.683267,42.354504 L386.683267,51.589869 L383.326758,51.589869 C385.273136,52.324726 386.94146,53.059583 388.33173,53.79444 L386.901738,55.244293 C385.55119,54.330687 383.604812,53.377359 381.082465,52.364448 L381.896766,51.589869 L377.547207,51.589869 L378.480674,52.384309 C376.81235,53.456803 374.766667,54.410131 372.303903,55.224432 L371.112243,53.655413 C373.177787,53.039722 374.945416,52.344587 376.41513,51.589869 L372.959316,51.589869 L372.959316,42.354504 Z M384.697167,49.842101 L384.697167,48.868912 L374.945416,48.868912 L374.945416,49.842101 L384.697167,49.842101 Z M374.945416,47.319754 L384.697167,47.319754 L384.697167,46.44587 L374.945416,46.44587 L374.945416,47.319754 Z M374.945416,44.896712 L384.697167,44.896712 L384.697167,43.983106 L374.945416,43.983106 L374.945416,44.896712 Z" id="人員" fill="#009190"></path>
                        <path d="M200.74,323.52 L202.7,324.04 C202.5,324.94 202.3,325.78 202.08,326.58 L209.64,326.58 C209.64,333.54 209.54,337.82 209.34,339.42 C209.1,341.14 207.96,342 205.92,342 C205.64,342 205.12,341.96 204.4,341.9 L203.92,340.04 C204.56,340.1 205.1,340.14 205.58,340.14 C206.64,340.14 207.26,339.58 207.42,338.48 C207.54,337.54 207.6,334.24 207.64,328.58 L206.92,328.58 C206.5,331.78 205.92,334.34 205.16,336.22 C204.24,338.34 202.86,340.26 201.06,341.94 L199.76,340.28 C201.4,338.8 202.62,337.16 203.44,335.32 C204.14,333.62 204.68,331.38 205.06,328.58 L204.06,328.58 C203.22,332.82 201.72,335.94 199.54,337.9 L198.2,336.34 C200.12,334.7 201.46,332.12 202.2,328.58 L201.36,328.58 C200.86,329.76 200.28,330.76 199.62,331.56 L198.1,330.26 C199.34,328.7 200.22,326.44 200.74,323.52 Z M194.02,329.54 C193.86,330.48 193.68,331.4 193.46,332.28 L191.62,331.76 C192.16,329.66 192.46,327.44 192.54,325.12 L194.4,325.26 C194.36,326.02 194.32,326.78 194.26,327.54 L195.12,327.54 L195.12,323.6 L197.16,323.6 L197.16,327.54 L198.52,327.54 L198.52,329.54 L197.16,329.54 L197.16,333.54 C197.58,333.34 198,333.14 198.44,332.94 L198.44,334.9 C198,335.1 197.58,335.28 197.16,335.48 L197.16,342.08 L195.12,342.08 L195.12,336.3 C194.22,336.62 193.3,336.94 192.36,337.22 L191.86,335.2 C192.96,334.98 194.04,334.68 195.12,334.32 L195.12,329.54 L194.02,329.54 Z M216.76,325.22 C217.1,326.42 217.42,327.82 217.7,329.38 L216.1,329.82 C215.82,328.42 215.46,327.06 215.04,325.78 L216.76,325.22 Z M221.18,325.02 L222.92,325.26 C222.8,326.92 222.54,328.4 222.12,329.68 L220.58,329.18 C220.9,327.98 221.1,326.58 221.18,325.02 Z M215.3,330.4 L218.12,330.4 L218.12,323.56 L220.16,323.56 L220.16,330.4 L222.76,330.4 L222.76,332.42 L220.16,332.42 L220.16,342.02 L218.12,342.02 L218.12,332.42 L215.3,332.42 L215.3,330.4 Z M229.36,323.62 L231.38,323.62 L231.38,334.76 L233,334.52 L233.34,336.52 L231.38,336.82 L231.38,342.06 L229.36,342.06 L229.36,337.12 L223.62,337.98 L223.32,335.98 L229.36,335.06 L229.36,323.62 Z M225.48,324.98 C226.84,325.96 228,326.92 228.92,327.88 L227.54,329.24 C226.74,328.32 225.6,327.34 224.14,326.28 L225.48,324.98 Z M224.98,329.68 C226.3,330.72 227.42,331.74 228.34,332.76 L226.94,334.12 C226.18,333.14 225.06,332.08 223.62,330.96 L224.98,329.68 Z M222.04,333.12 C222.46,334.48 222.84,336.04 223.16,337.8 L221.6,338.2 C221.36,336.58 221.06,335.04 220.7,333.56 L222.04,333.12 Z M216.16,333.2 L217.66,333.6 C217.26,335.68 216.8,337.52 216.24,339.1 L214.72,338.56 C215.28,337.16 215.76,335.36 216.16,333.2 Z" id="物料" fill="#009190"></path>
                    </g>
                    <g id="settings_method" transform="translate(52.000000, 164.000000)" fill="#0F9696" fill-rule="nonzero">
                        <path d="M38.6446765,36.1861523 C37.3566176,36.1861523 36.3086471,37.2299414 36.3086471,38.5130566 C36.3086471,39.796084 37.3565294,40.839873 38.6446765,40.839873 C39.9327353,40.839873 40.9806176,39.796084 40.9806176,38.5130566 C40.9806176,37.2300293 39.9327353,36.1861523 38.6446765,36.1861523 Z M38.6445882,39.4608691 C38.1199412,39.4608691 37.6930588,39.0356543 37.6930588,38.5130566 C37.6930588,37.990459 38.1199412,37.5652441 38.6445882,37.5652441 C39.1692353,37.5652441 39.5961176,37.990459 39.5961176,38.5130566 C39.5961176,39.0356543 39.1692353,39.4608691 38.6445882,39.4608691 Z" id="Shape"></path>
                        <path d="M44.9385,38.3923828 C44.8943824,36.6887988 44.1705,35.1218848 42.9000882,33.9804492 L28.9631471,21.4591113 L41.2859118,9.18448242 C41.3669118,9.16040039 41.4469412,9.13042969 41.5241471,9.08982422 L44.1926471,7.68691406 C44.5612941,7.49302734 44.8085294,7.14621094 44.8707353,6.73567383 C44.9330294,6.32504883 44.7997059,5.92110352 44.5049118,5.62719727 L41.5003235,2.63443359 C41.2054412,2.34079102 40.8001765,2.20798828 40.3875882,2.27003906 C39.9754412,2.33200195 39.6273529,2.57827148 39.4326176,2.94556641 L38.0241176,5.6034668 C37.983,5.68107422 37.9514118,5.76131836 37.9271471,5.84279297 L32.1106765,11.636543 C31.8403235,11.9059277 31.8403235,12.3423926 32.1106765,12.6117773 C32.3811176,12.8808984 32.8192941,12.8808984 33.0897353,12.6117773 L38.4272647,7.29500977 L39.8260588,8.68833984 L26.1760588,22.2850195 L24.7772647,20.8916895 L30.7353529,14.9569629 C31.0057059,14.6875781 31.0057059,14.2511133 30.7353529,13.9817285 C30.4649118,13.7126074 30.0267353,13.7126074 29.7562941,13.9817285 L25.4332941,18.2878418 L20.7284118,14.0608301 C22.0623529,10.2361816 21.0963529,5.98095703 18.2026765,3.09867188 C15.2387647,0.146337891 10.7924118,-0.79453125 6.87494118,0.701982422 C6.65602941,0.785654297 6.49447059,0.973916016 6.44576471,1.20234375 C6.39705882,1.43077148 6.46755882,1.66825195 6.63335294,1.83339844 L12.0679412,7.2468457 C12.2287059,7.40698242 12.3173824,7.61994141 12.3173824,7.84643555 C12.3173824,8.07292969 12.2287941,8.28588867 12.0679412,8.44611328 L8.53861765,11.9616504 C8.37785294,12.121875 8.16405882,12.2101172 7.93667647,12.2101172 C7.70929412,12.2101172 7.4955,12.1219629 7.33464706,11.9616504 L1.89997059,6.54820312 C1.73408824,6.38305664 1.49585294,6.31283203 1.26644118,6.36134766 C1.03711765,6.40995117 0.848117647,6.57079102 0.764117647,6.78884766 C-0.738264706,10.6908398 0.206294118,15.1198242 3.17029412,18.072334 C5.99302941,20.8839551 10.1821765,21.8738672 13.9613824,20.6575488 L17.5990588,24.6199219 C17.4242647,24.9601465 17.1969706,25.2774316 16.9166471,25.5566602 C15.8680588,26.6011523 14.2965,26.9302148 12.9125294,26.3951367 C12.6567353,26.2959961 12.3665294,26.3569922 12.1724118,26.5502637 L3.69661765,34.9929492 C1.40214706,37.2785449 1.40214706,40.997373 3.69661765,43.282793 C4.80829412,44.3903027 6.28614706,45 7.85805882,45 C9.42988235,45 10.9078235,44.3903027 12.0193235,43.2831445 L20.4951176,34.8405469 C20.6890588,34.6472754 20.7502059,34.3581152 20.6508529,34.1033203 C20.1135882,32.7248437 20.4439412,31.159248 21.4924412,30.1147559 C22.5412059,29.0702637 24.1128529,28.7412012 25.4967353,29.2762793 C25.7527059,29.3754199 26.0427353,29.314248 26.2368529,29.1211523 L27.8356765,27.5285742 C28.3170882,27.049043 28.5821471,26.4113965 28.5821471,25.7333203 C28.5821471,25.0552441 28.3170882,24.4175977 27.8356765,23.9380664 L27.1551176,23.260166 L27.9830294,22.4354883 L41.9729118,35.0044629 C42.9586765,35.8901367 43.5204706,37.1060156 43.5546176,38.4278906 C43.5887647,39.7497656 43.0905882,40.9928027 42.1518529,41.9277832 C41.2176176,42.8585449 39.9728824,43.3538965 38.6545588,43.3255078 C37.3335882,43.2961523 36.1150588,42.7450781 35.2234412,41.7737988 L24.8214706,30.4433789 C24.5632059,30.1622168 24.1255588,30.1428809 23.8434706,30.399873 C23.5613824,30.6569531 23.5417941,31.0930664 23.7997941,31.3740527 L34.2016765,42.7044727 C35.3508529,43.956123 36.9212647,44.6662793 38.6235882,44.7041602 C38.6712353,44.7052148 38.7187941,44.7057422 38.7663529,44.7057422 C40.4152941,44.7057422 41.9603824,44.068623 43.1308235,42.9029297 C44.3405294,41.6978613 44.9824412,40.0959668 44.9385,38.3923828 Z M39.2778529,6.19189453 L40.6030588,3.69105469 L43.4441471,6.52104492 L40.9335,7.84107422 L39.2778529,6.19189453 Z M14.6756471,19.3920996 C14.4850588,19.1846777 14.1873529,19.1131348 13.9228235,19.2113965 C10.5378529,20.4691113 6.70120588,19.639248 4.14917647,17.0974512 C1.83194118,14.7891797 0.934058824,11.442832 1.72526471,8.32464844 L6.35558824,12.9368848 C6.77797059,13.3575293 7.33941176,13.5891211 7.93658824,13.5891211 C8.53376471,13.5891211 9.09520588,13.3575293 9.5175,12.9368848 L13.0468235,9.42134766 C13.4691176,9.00061523 13.7016176,8.44136719 13.7016176,7.84652344 C13.7016176,7.25167969 13.4691176,6.69243164 13.0468235,6.27178711 L8.41658824,1.659375 C11.5467353,0.870908203 14.9065588,1.76554687 17.2237059,4.07381836 C19.8406765,6.68039062 20.6448529,10.5779883 19.2727059,14.0035254 C19.1653235,14.2715039 19.2367941,14.5778027 19.452,14.7710742 L24.4530882,19.2642187 L23.7982059,19.916543 L23.1176471,19.2386426 C22.6362353,18.7591113 21.9960882,18.4950879 21.3153529,18.4950879 C20.6346176,18.4950879 19.9944706,18.7591113 19.5130588,19.2386426 L17.9142353,20.8312207 C17.7202941,21.0244922 17.6591471,21.3136523 17.7585,21.5684473 C17.9426471,22.0408594 18.0225,22.5349805 18.0088235,23.0228613 L14.6756471,19.3920996 Z M26.8565294,26.5534277 L25.5610588,27.8439258 C23.7794118,27.3323145 21.8407059,27.8176465 20.5135588,29.1395215 L20.5134706,29.1395215 C19.1864118,30.4614844 18.6990882,32.3923535 19.2128824,34.1673926 L11.0403529,42.3078223 C10.1902941,43.1545605 9.06017647,43.6209082 7.85814706,43.6209082 C6.65611765,43.6209082 5.52582353,43.1545605 4.67594118,42.3078223 C2.92120588,40.5600293 2.92120588,37.7160645 4.67594118,35.9681836 L12.8483824,27.827666 C14.6302059,28.339541 16.5686471,27.8538574 17.8958824,26.5319824 C19.2229412,25.2100195 19.7103529,23.2791504 19.1965588,21.5041992 L20.4921176,20.2137891 C20.946,19.7615039 21.6847941,19.7615039 22.1386765,20.2137891 L23.3087647,21.3793066 L25.6864412,23.7476953 L26.8565294,24.9132129 C27.3105882,25.365498 27.3105882,26.1013184 26.8565294,26.5534277 Z" id="Shape"></path>
                        <path d="M14.2346471,30.432041 C13.9642059,30.162832 13.5260294,30.162832 13.2555882,30.432041 L6.69811765,36.9638965 C6.42776471,37.2332812 6.42776471,37.6697461 6.69811765,37.9391309 C6.83329412,38.0736914 7.01055882,38.1410156 7.18764706,38.1410156 C7.36473529,38.1410156 7.542,38.0736914 7.67717647,37.9391309 L14.2346471,31.4072754 C14.5049118,31.1378906 14.5049118,30.7013379 14.2346471,30.432041 Z" id="Shape"></path>
                        <path d="M16.6575,32.8454297 C16.3871471,32.5762207 15.9488824,32.5762207 15.6784412,32.8454297 L9.12097059,39.3771973 C8.85061765,39.646582 8.85061765,40.0830469 9.12097059,40.3524316 C9.25614706,40.4869922 9.43332353,40.5543164 9.6105,40.5543164 C9.78758824,40.5543164 9.96485294,40.4869922 10.1000294,40.3524316 L16.6575,33.8206641 C16.9278529,33.5512793 16.9278529,33.1148145 16.6575,32.8454297 Z" id="Shape"></path>
                    </g>
                    <g id="factory_1" transform="translate(90.000000, 5.000000)" fill="#0F9696" fill-rule="nonzero">
                        <path d="M44.3408203,43.6816406 L42.181875,43.6816406 L42.181875,34.6211719 C42.6133301,34.2418359 42.8864063,33.6864551 42.8864063,33.0681445 C42.8864063,31.9276758 41.9585449,30.9999023 40.8181641,30.9999023 L36.5056348,30.9999023 L35.8396875,20.3452734 C35.8179785,19.9978418 35.529873,19.7272266 35.1818262,19.7272266 L32.3636133,19.7272266 C32.0155664,19.7272266 31.7274609,19.9978418 31.705752,20.3452734 L31.0398047,30.9999023 L29.4601465,30.9999023 L28.7941992,20.3452734 C28.7724902,19.9978418 28.4843848,19.7272266 28.1363379,19.7272266 L25.3182129,19.7272266 C24.970166,19.7272266 24.6820605,19.9978418 24.6603516,20.3452734 L23.9944043,30.9999023 L22.4147461,30.9999023 L21.7487988,20.3452734 C21.7270898,19.9978418 21.4389844,19.7272266 21.0909375,19.7272266 L18.2728125,19.7272266 C17.9247656,19.7272266 17.6366602,19.9978418 17.6149512,20.3452734 L16.9490039,30.9999023 L15.1129688,30.9999023 L14.7046289,12.6217969 C14.6967188,12.2635547 14.4039551,11.9772949 14.045625,11.9772949 L9.81834961,11.9772949 C9.46001953,11.9772949 9.16725586,12.2635547 9.1593457,12.6217969 L8.68833984,33.8181152 L3.47730469,33.8181152 C2.33683594,33.8181152 1.4090625,34.7459766 1.4090625,35.8863574 C1.4090625,36.504668 1.68213867,37.0600488 2.11359375,37.4393848 L2.11359375,43.6816406 L0.659179688,43.6816406 C0.295136719,43.6816406 0,43.9767773 0,44.3408203 C0,44.7048633 0.295136719,45 0.659179688,45 L44.3408203,45 C44.7048633,45 45,44.7048633 45,44.3408203 C45,43.9767773 44.7048633,43.6816406 44.3408203,43.6816406 Z M8.62549805,36.6363281 L6.29578125,36.6363281 C5.93173828,36.6363281 5.63660156,36.9314648 5.63660156,37.2955078 C5.63660156,37.6595508 5.93173828,37.9546875 6.29578125,37.9546875 L8.59623047,37.9546875 L8.46896484,43.6816406 L3.43195312,43.6816406 L3.43195312,37.953457 C3.44707031,37.9538086 3.46209961,37.9545996 3.47730469,37.9545996 C3.84134766,37.9545996 4.13648438,37.6594629 4.13648438,37.2954199 C4.13648438,36.931377 3.84134766,36.6362402 3.47730469,36.6362402 C3.0637793,36.6362402 2.72742187,36.2997949 2.72742187,35.8863574 C2.72742187,35.472832 3.06386719,35.1364746 3.47730469,35.1364746 L8.65880859,35.1364746 L8.62549805,36.6363281 Z M32.9828027,21.0455859 L34.5624609,21.0455859 L35.1846387,30.9999023 L32.3607129,30.9999023 L32.9828027,21.0455859 Z M25.9374023,21.0455859 L27.5170605,21.0455859 L28.1392383,30.9999023 L25.3153125,30.9999023 L25.9374023,21.0455859 Z M18.892002,21.0455859 L20.4716602,21.0455859 L21.09375,30.9999023 L18.2698242,30.9999023 L18.892002,21.0455859 Z M11.2727637,43.6816406 L9.78776367,43.6816406 L10.4628516,13.2955664 L13.4007715,13.2955664 L13.7942578,30.9999023 L12.6364746,30.9999023 C11.4960059,30.9999023 10.5681445,31.9277637 10.5681445,33.0681445 C10.5681445,33.6864551 10.8412207,34.2418359 11.2727637,34.6211719 L11.2727637,43.6816406 Z M40.8181641,33.8180273 L39.4091016,33.8180273 C39.0450586,33.8180273 38.7499219,34.1131641 38.7499219,34.477207 C38.7499219,34.84125 39.0450586,35.1363867 39.4091016,35.1363867 L40.8181641,35.1363867 C40.8333691,35.1363867 40.8483984,35.1355078 40.8635156,35.1352441 L40.8635156,43.6816406 L12.5910352,43.6816406 L12.5910352,35.1352441 C12.6061523,35.1355957 12.6211816,35.1363867 12.6363867,35.1363867 L36.591416,35.1363867 C36.955459,35.1363867 37.2505957,34.84125 37.2505957,34.477207 C37.2505957,34.1131641 36.955459,33.8180273 36.591416,33.8180273 L12.6363867,33.8180273 C12.2228613,33.8180273 11.886416,33.481582 11.886416,33.0681445 C11.886416,32.654707 12.2228613,32.3182617 12.6363867,32.3182617 L40.8180762,32.3182617 C41.2316016,32.3182617 41.5680469,32.6546191 41.5680469,33.0681445 C41.5680469,33.4816699 41.2316016,33.8180273 40.8181641,33.8180273 Z" id="Shape"></path>
                        <path d="M36.5908887,0 C34.6050879,0 32.7119238,0.693017578 31.1985352,1.96294922 C30.1120313,1.14767578 28.7952539,0.70453125 27.4318066,0.70453125 C25.7766504,0.70453125 24.1965527,1.35799805 23.0220703,2.51332031 C22.413252,2.25079102 21.7546875,2.11359375 21.0909375,2.11359375 C19.1311523,2.11359375 17.3841504,3.28702148 16.6173926,5.04316406 C16.3528418,4.96907227 16.0819629,4.93171875 15.8068652,4.93171875 C14.4451758,4.93171875 13.274209,5.8172168 12.8559375,7.05761719 C12.7830762,7.04953125 12.7097754,7.04540039 12.6363867,7.04540039 C11.495918,7.04540039 10.5680566,7.97326172 10.5680566,9.11364258 C10.5681445,9.47777344 10.8632812,9.77291016 11.2273242,9.77291016 C11.5913672,9.77291016 11.8865039,9.47777344 11.8865039,9.11373047 C11.8865039,8.70020508 12.2229492,8.36384766 12.6364746,8.36384766 C12.7672559,8.36384766 12.8954883,8.40084961 13.0174805,8.47388672 C13.2150586,8.59209961 13.4599219,8.59860352 13.6635645,8.49128906 C13.8671191,8.38388672 14.0000098,8.17804687 14.0138965,7.94821289 C14.0716406,6.99609375 14.8592285,6.25025391 15.8067773,6.25025391 C16.1063965,6.25025391 16.4021484,6.33120117 16.6856836,6.49089844 C16.8633105,6.59100586 17.0775,6.60313477 17.265498,6.52376953 C17.4534961,6.4444043 17.5940332,6.28250977 17.6463281,6.0852832 C18.0602051,4.52311523 19.4766504,3.43204102 21.0908496,3.43204102 C21.7025684,3.43204102 22.3085742,3.59200195 22.8433008,3.89452148 C23.1166406,4.04920898 23.4614355,3.98953125 23.666748,3.75169922 C24.6156152,2.65306641 25.9879395,2.02297852 27.4317188,2.02297852 C28.6661426,2.02297852 29.8530176,2.48378906 30.773584,3.32041992 C31.0304883,3.55385742 31.4244141,3.54814453 31.674375,3.30723633 C33.0050391,2.02464844 34.7510742,1.31835937 36.5908887,1.31835937 C40.500791,1.31835937 43.6816406,4.49929687 43.6816406,8.40911133 C43.6816406,12.3189258 40.500791,15.4998633 36.5908887,15.4998633 C33.9950391,15.4998633 31.6087207,14.0825391 30.3632227,11.8009863 C30.1971094,11.496709 29.8236621,11.3731348 29.5088379,11.5181543 C28.8477246,11.8226953 28.1489063,11.9771191 27.4318066,11.9771191 C25.9880273,11.9771191 24.6157031,11.3470313 23.6668359,10.2483984 C23.4615234,10.0106543 23.1168164,9.95088867 22.8433887,10.1055762 C22.3086621,10.4080957 21.7026563,10.5680566 21.0909375,10.5680566 C19.9770117,10.5680566 18.9462305,10.0580273 18.2630566,9.16875 C18.1389551,9.00729492 17.9472656,8.91219727 17.743623,8.91114258 C17.7424805,8.91114258 17.7414258,8.91114258 17.7403711,8.91114258 C17.537959,8.91114258 17.3466211,9.00421875 17.2216406,9.16356445 C16.8728906,9.60837891 16.3572363,9.8634375 15.8068652,9.8634375 C15.4428223,9.8634375 15.1476855,10.1585742 15.1476855,10.5226172 C15.1476855,10.8866602 15.4428223,11.1817969 15.8068652,11.1817969 C16.5055078,11.1817969 17.1699609,10.9483594 17.7113672,10.5249023 C18.6158496,11.3974805 19.8130957,11.8863281 21.0909375,11.8863281 C21.7546875,11.8863281 22.413252,11.7491309 23.0220703,11.4866895 C24.1965527,12.6420117 25.7767383,13.2954785 27.4318066,13.2954785 C28.1422266,13.2954785 28.837793,13.1762109 29.5066406,12.9404004 C31.0468359,15.3464063 33.7099219,16.8182227 36.5908887,16.8182227 C41.2277344,16.8182227 45,13.0458691 45,8.40911133 C45,3.77235352 41.2277344,0 36.5908887,0 Z" id="Shape"></path>
                        <path d="M16.8636621,36.6362402 C16.4996191,36.6362402 16.2044824,36.931377 16.2044824,37.2954199 L16.2044824,38.7044824 C16.2044824,39.0685254 16.4996191,39.3636621 16.8636621,39.3636621 C17.2277051,39.3636621 17.5228418,39.0685254 17.5228418,38.7044824 L17.5228418,37.2954199 C17.5228418,36.931377 17.2277051,36.6362402 16.8636621,36.6362402 Z" id="Shape"></path>
                        <path d="M19.681875,36.6362402 C19.317832,36.6362402 19.0226953,36.931377 19.0226953,37.2954199 L19.0226953,38.7044824 C19.0226953,39.0685254 19.317832,39.3636621 19.681875,39.3636621 C20.045918,39.3636621 20.3410547,39.0685254 20.3410547,38.7044824 L20.3410547,37.2954199 C20.3410547,36.931377 20.045918,36.6362402 19.681875,36.6362402 Z" id="Shape"></path>
                        <path d="M22.5,36.6362402 C22.135957,36.6362402 21.8408203,36.931377 21.8408203,37.2954199 L21.8408203,38.7044824 C21.8408203,39.0685254 22.135957,39.3636621 22.5,39.3636621 C22.864043,39.3636621 23.1591797,39.0685254 23.1591797,38.7044824 L23.1591797,37.2954199 C23.1591797,36.931377 22.864043,36.6362402 22.5,36.6362402 Z" id="Shape"></path>
                        <path d="M25.318125,36.6362402 C24.954082,36.6362402 24.6589453,36.931377 24.6589453,37.2954199 L24.6589453,38.7044824 C24.6589453,39.0685254 24.954082,39.3636621 25.318125,39.3636621 C25.682168,39.3636621 25.9773047,39.0685254 25.9773047,38.7044824 L25.9773047,37.2954199 C25.9773047,36.931377 25.6822559,36.6362402 25.318125,36.6362402 Z" id="Shape"></path>
                        <path d="M28.1363379,36.6362402 C27.7722949,36.6362402 27.4771582,36.931377 27.4771582,37.2954199 L27.4771582,38.7044824 C27.4771582,39.0685254 27.7722949,39.3636621 28.1363379,39.3636621 C28.5003809,39.3636621 28.7955176,39.0685254 28.7955176,38.7044824 L28.7955176,37.2954199 C28.7955176,36.931377 28.5003809,36.6362402 28.1363379,36.6362402 Z" id="Shape"></path>
                        <path d="M30.9544629,36.6362402 C30.5904199,36.6362402 30.2952832,36.931377 30.2952832,37.2954199 L30.2952832,38.7044824 C30.2952832,39.0685254 30.5904199,39.3636621 30.9544629,39.3636621 C31.3185059,39.3636621 31.6136426,39.0685254 31.6136426,38.7044824 L31.6136426,37.2954199 C31.6136426,36.931377 31.3185059,36.6362402 30.9544629,36.6362402 Z" id="Shape"></path>
                        <path d="M33.7726758,36.6362402 C33.4086328,36.6362402 33.1134961,36.931377 33.1134961,37.2954199 L33.1134961,38.7044824 C33.1134961,39.0685254 33.4086328,39.3636621 33.7726758,39.3636621 C34.1367188,39.3636621 34.4318555,39.0685254 34.4318555,38.7044824 L34.4318555,37.2954199 C34.4318555,36.931377 34.1367188,36.6362402 33.7726758,36.6362402 Z" id="Shape"></path>
                        <path d="M36.5908887,36.6362402 C36.2268457,36.6362402 35.931709,36.931377 35.931709,37.2954199 L35.931709,38.7044824 C35.931709,39.0685254 36.2268457,39.3636621 36.5908887,39.3636621 C36.9549316,39.3636621 37.2500684,39.0685254 37.2500684,38.7044824 L37.2500684,37.2954199 C37.2500684,36.931377 36.9549316,36.6362402 36.5908887,36.6362402 Z" id="Shape"></path>
                    </g>
                </g>
            </g>
        </g>
    </g>
</svg>