<svg width="430" height="343" viewBox="0 0 430 343" fill="none" xmlns="http://www.w3.org/2000/svg">
<path fill-rule="evenodd" clip-rule="evenodd" d="M196.74 323.52L198.7 324.04C198.5 324.94 198.3 325.78 198.08 326.58H205.64C205.64 333.54 205.54 337.82 205.34 339.42C205.1 341.14 203.96 342 201.92 342C201.64 342 201.12 341.96 200.4 341.9L199.92 340.04C200.56 340.1 201.1 340.14 201.58 340.14C202.64 340.14 203.26 339.58 203.42 338.48C203.54 337.54 203.6 334.24 203.64 328.58H202.92C202.5 331.78 201.92 334.34 201.16 336.22C200.24 338.34 198.86 340.26 197.06 341.94L195.76 340.28C197.4 338.8 198.62 337.16 199.44 335.32C200.14 333.62 200.68 331.38 201.06 328.58H200.06C199.22 332.82 197.72 335.94 195.54 337.9L194.2 336.34C196.12 334.7 197.46 332.12 198.2 328.58H197.36C196.86 329.76 196.28 330.76 195.62 331.56L194.1 330.26C195.34 328.7 196.22 326.44 196.74 323.52ZM190.02 329.54C189.86 330.48 189.68 331.4 189.46 332.28L187.62 331.76C188.16 329.66 188.46 327.44 188.54 325.12L190.4 325.26C190.36 326.02 190.32 326.78 190.26 327.54H191.12V323.6H193.16V327.54H194.52V329.54H193.16V333.54C193.58 333.34 194 333.14 194.44 332.94V334.9C194 335.1 193.58 335.28 193.16 335.48V342.08H191.12V336.3C190.22 336.62 189.3 336.94 188.36 337.22L187.86 335.2C188.96 334.98 190.04 334.68 191.12 334.32V329.54H190.02ZM212.76 325.22C213.1 326.42 213.42 327.82 213.7 329.38L212.1 329.82C211.82 328.42 211.46 327.06 211.04 325.78L212.76 325.22ZM217.18 325.02L218.92 325.26C218.8 326.92 218.54 328.4 218.12 329.68L216.58 329.18C216.9 327.98 217.1 326.58 217.18 325.02ZM211.3 330.4H214.12V323.56H216.16V330.4H218.76V332.42H216.16V342.02H214.12V332.42H211.3V330.4ZM225.36 323.62H227.38V334.76L229 334.52L229.34 336.52L227.38 336.82V342.06H225.36V337.12L219.62 337.98L219.32 335.98L225.36 335.06V323.62ZM221.48 324.98C222.84 325.96 224 326.92 224.92 327.88L223.54 329.24C222.74 328.32 221.6 327.34 220.14 326.28L221.48 324.98ZM220.98 329.68C222.3 330.72 223.42 331.74 224.34 332.76L222.94 334.12C222.18 333.14 221.06 332.08 219.62 330.96L220.98 329.68ZM218.04 333.12C218.46 334.48 218.84 336.04 219.16 337.8L217.6 338.2C217.36 336.58 217.06 335.04 216.7 333.56L218.04 333.12ZM212.16 333.2L213.66 333.6C213.26 335.68 212.8 337.52 212.24 339.1L210.72 338.56C211.28 337.16 211.76 335.36 212.16 333.2Z" fill="#009190"/>
<path d="M359.34 139.409L358.841 139.443L359.34 139.409ZM61.2665 138.774L60.7678 138.738L61.2665 138.774ZM336.715 71.0724C349.278 91.1575 357.16 114.453 358.841 139.443L359.839 139.376C358.147 114.217 350.21 90.763 337.563 70.5421L336.715 71.0724ZM358.841 139.443C359.065 142.775 359.179 146.137 359.179 149.527H360.179C360.179 146.115 360.065 142.73 359.839 139.376L358.841 139.443ZM331.93 235.159C316.042 257.556 294.09 275.373 268.457 286.231L268.847 287.152C294.652 276.22 316.752 258.285 332.746 235.738L331.93 235.159ZM150.108 285.367C126.382 274.903 105.911 258.44 90.6296 237.907L89.8274 238.504C105.21 259.175 125.818 275.748 149.704 286.282L150.108 285.367ZM61.3833 149.527C61.3833 145.923 61.5121 142.349 61.7653 138.81L60.7678 138.738C60.5129 142.301 60.3833 145.899 60.3833 149.527H61.3833ZM61.7653 138.81C63.3443 116.737 69.7628 95.9989 79.9687 77.6443L79.0947 77.1583C68.8196 95.6373 62.3575 116.516 60.7678 138.738L61.7653 138.81ZM148.676 14.3264C167.45 5.80852 188.309 1.06348 210.281 1.06348V0.0634766C188.164 0.0634766 167.164 4.84014 148.263 13.4158L148.676 14.3264ZM210.281 1.06348C230.884 1.06348 250.508 5.23541 268.351 12.7777L268.741 11.8566C250.776 4.26317 231.02 0.0634766 210.281 0.0634766V1.06348Z" fill="#4BC8C8"/>
<path fill-rule="evenodd" clip-rule="evenodd" d="M277.328 148.481C277.328 186.478 246.667 217.283 208.845 217.283C171.025 217.283 140.364 186.478 140.364 148.481C140.364 110.481 171.025 79.6768 208.845 79.6768C246.667 79.6768 277.328 110.481 277.328 148.481Z" stroke="#009190" stroke-width="0.9"/>
<path fill-rule="evenodd" clip-rule="evenodd" d="M264.555 148.481C264.555 179.391 239.614 204.451 208.846 204.451C178.079 204.451 153.138 179.391 153.138 148.481C153.138 117.569 178.079 92.5088 208.846 92.5088C239.614 92.5088 264.555 117.569 264.555 148.481Z" stroke="#009190" stroke-width="0.75"/>
<path fill-rule="evenodd" clip-rule="evenodd" d="M238.015 250.795C238.015 254.089 235.36 256.759 232.08 256.759C228.804 256.759 226.146 254.089 226.146 250.795C226.146 247.505 228.804 244.83 232.08 244.83C235.36 244.83 238.015 247.505 238.015 250.795" fill="#009190"/>
<path fill-rule="evenodd" clip-rule="evenodd" d="M264.581 56.2351C264.581 59.5298 261.925 62.1996 258.646 62.1996C255.367 62.1996 252.711 59.5298 252.711 56.2351C252.711 52.9451 255.367 50.2705 258.646 50.2705C261.925 50.2705 264.581 52.9451 264.581 56.2351" fill="#009190"/>
<path fill-rule="evenodd" clip-rule="evenodd" d="M117.523 188.361C117.523 191.654 114.864 194.324 111.588 194.324C108.308 194.324 105.649 191.654 105.649 188.361C105.649 185.069 108.308 182.396 111.588 182.396C114.864 182.396 117.523 185.069 117.523 188.361" fill="#009190"/>
<path fill-rule="evenodd" clip-rule="evenodd" d="M317.427 176.991C317.427 180.286 314.768 182.956 311.489 182.956C308.213 182.956 305.554 180.286 305.554 176.991C305.554 173.701 308.213 171.027 311.489 171.027C314.768 171.027 317.427 173.701 317.427 176.991" fill="#009190"/>
<path fill-rule="evenodd" clip-rule="evenodd" d="M135.361 78.3054C135.361 81.6001 132.705 84.2699 129.426 84.2699C126.147 84.2699 123.488 81.6001 123.488 78.3054C123.488 75.0154 126.147 72.3408 129.426 72.3408C132.705 72.3408 135.361 75.0154 135.361 78.3054" fill="#009190"/>
<path fill-rule="evenodd" clip-rule="evenodd" d="M314.015 148.481C314.015 206.837 266.927 254.145 208.845 254.145C150.763 254.145 103.679 206.837 103.679 148.481C103.679 90.1232 150.763 42.8154 208.845 42.8154C266.927 42.8154 314.015 90.1232 314.015 148.481Z" stroke="#009190"/>
<path fill-rule="evenodd" clip-rule="evenodd" d="M292.979 148.481C292.979 195.165 255.31 233.012 208.845 233.012C162.38 233.012 124.711 195.165 124.711 148.481C124.711 101.795 162.38 63.9482 208.845 63.9482C255.31 63.9482 292.979 101.795 292.979 148.481Z" stroke="#009190"/>
<path fill-rule="evenodd" clip-rule="evenodd" d="M228.897 80.8557C228.897 84.1504 226.241 86.8202 222.962 86.8202C219.683 86.8202 217.024 84.1504 217.024 80.8557C217.024 77.5657 219.683 74.8911 222.962 74.8911C226.241 74.8911 228.897 77.5657 228.897 80.8557" fill="#7EC7C5"/>
<path fill-rule="evenodd" clip-rule="evenodd" d="M160.935 216.105C160.935 219.399 158.279 222.069 155 222.069C151.721 222.069 149.062 219.399 149.062 216.105C149.062 212.815 151.721 210.14 155 210.14C158.279 210.14 160.935 212.815 160.935 216.105" fill="#7EC7C5"/>
<path fill-rule="evenodd" clip-rule="evenodd" d="M262.507 175.506C262.507 178.8 259.851 181.47 256.572 181.47C253.296 181.47 250.637 178.8 250.637 175.506C250.637 172.216 253.296 169.541 256.572 169.541C259.851 169.541 262.507 172.216 262.507 175.506" fill="#7EC7C5"/>
<path fill-rule="evenodd" clip-rule="evenodd" d="M150.202 127.069C150.202 130.363 147.546 133.033 144.267 133.033C140.987 133.033 138.329 130.363 138.329 127.069C138.329 123.779 140.987 121.104 144.267 121.104C147.546 121.104 150.202 123.779 150.202 127.069" fill="#7EC7C5"/>
<path fill-rule="evenodd" clip-rule="evenodd" d="M197.095 107.362C196.614 107.362 196.209 107.674 196.064 108.105V108.105L192.687 108.275L178.02 115.612L178.422 121.124C178.025 121.268 177.739 121.631 177.71 122.068V122.068L171.335 123.416L164.005 145.149L165.909 148.184C165.798 148.306 165.715 148.452 165.669 148.614V148.614L165.662 148.64C165.639 148.727 165.623 148.817 165.623 148.911V148.911C165.623 149.194 165.734 149.449 165.912 149.641V149.641L164 152.731L168.107 162.971C167.962 163.122 167.863 163.315 167.826 163.53V163.53L167.809 163.532L167.825 163.541C167.815 163.597 167.807 163.654 167.807 163.714V163.714C167.807 164.313 168.296 164.799 168.899 164.799V164.799C169.163 164.799 169.401 164.703 169.59 164.549V164.549L175.189 167.745C175.169 167.83 175.154 167.916 175.154 168.007V168.007C175.154 168.306 175.276 168.577 175.473 168.774V168.774L173.803 171.737L181.941 181.792L186.998 184.112C187.015 184.534 187.272 184.893 187.639 185.057V185.057L187.736 185.092C187.788 185.11 187.84 185.125 187.895 185.135V185.135L186.051 188.861L192.555 192.21H201.088C201.218 192.665 201.635 193 202.134 193V193C202.633 193 203.05 192.665 203.18 192.21V192.21L203.194 192.164C203.213 192.084 203.226 192.001 203.226 191.915V191.915C203.226 191.628 203.112 191.37 202.93 191.176V191.176L206.735 184.601C206.82 184.622 206.908 184.636 206.999 184.636V184.636C207.602 184.636 208.091 184.15 208.091 183.55V183.55C208.091 183.055 207.754 182.64 207.297 182.511V182.511V176.448C207.754 176.319 208.091 175.905 208.091 175.408V175.408C208.091 174.913 207.754 174.498 207.297 174.369V174.369V158.758C207.754 158.629 208.091 158.215 208.091 157.718V157.718C208.091 157.222 207.754 156.808 207.297 156.679V156.679V145.065C207.754 144.935 208.091 144.522 208.091 144.025V144.025C208.091 143.529 207.754 143.115 207.297 142.985V142.985V133.666C207.754 133.537 208.091 133.123 208.091 132.627V132.627C208.091 132.13 207.754 131.717 207.297 131.587V131.587V126.265C207.754 126.135 208.091 125.721 208.091 125.225V125.225C208.091 124.729 207.754 124.315 207.297 124.185V124.185V112.435L204.656 110.096C204.659 110.065 204.666 110.034 204.666 110.002V110.002C204.666 109.402 204.177 108.916 203.574 108.916V108.916C203.539 108.916 203.507 108.924 203.474 108.927V108.927L202.366 107.52L198.063 107.954C197.881 107.604 197.519 107.362 197.095 107.362ZM198.178 108.537L202.1 108.142L202.898 109.155C202.646 109.354 202.482 109.658 202.482 110.002V110.002C202.482 110.329 202.63 110.619 202.86 110.818V110.818L201.395 115.504L197.792 127.029C197.783 127.028 197.775 127.026 197.766 127.026V127.026C197.384 127.026 197.05 127.22 196.854 127.514V127.514L188.734 124.959L179.883 122.173C179.883 122.162 179.886 122.152 179.886 122.141V122.141C179.886 122.002 179.858 121.87 179.81 121.747V121.747L188.821 114.956L196.378 109.261C196.571 109.428 196.82 109.533 197.095 109.533V109.533C197.667 109.533 198.132 109.094 198.178 108.537V108.537ZM179.015 121.078L178.643 115.963L192.78 108.864L196.036 108.699C196.041 108.721 196.049 108.741 196.055 108.761V108.761L188.078 114.773L179.448 121.277C179.322 121.182 179.176 121.111 179.015 121.078V121.078ZM204.42 110.68L206.701 112.701V124.185C206.244 124.315 205.907 124.729 205.907 125.225V125.225C205.907 125.236 205.91 125.244 205.91 125.255V125.255L198.677 127.516C198.595 127.391 198.487 127.285 198.361 127.204V127.204L202.006 115.545L203.405 111.071C203.46 111.079 203.516 111.087 203.574 111.087V111.087C203.917 111.087 204.22 110.927 204.42 110.68V110.68ZM164.659 145.073L171.791 123.925L177.834 122.647C177.899 122.771 177.987 122.879 178.094 122.968V122.968L166.871 147.84C166.819 147.833 166.769 147.825 166.715 147.825V147.825C166.61 147.825 166.51 147.844 166.414 147.872V147.872L164.659 145.073ZM181.185 125.806L179.565 122.91C179.617 122.858 179.664 122.8 179.705 122.739V122.739L188.237 125.424L196.677 128.079C196.677 128.09 196.674 128.101 196.674 128.111V128.111C196.674 128.194 196.684 128.274 196.702 128.352V128.352L195.605 128.948L186.556 133.865C186.357 133.665 186.082 133.54 185.777 133.54V133.54C185.691 133.54 185.608 133.552 185.528 133.571V133.571L181.185 125.806ZM179.043 123.196L181.053 126.789L185.006 133.856C184.808 134.053 184.685 134.325 184.685 134.625V134.625C184.685 134.763 184.714 134.895 184.761 135.015V135.015L167.461 147.981L178.638 123.211C178.689 123.218 178.74 123.227 178.794 123.227V123.227C178.88 123.227 178.963 123.214 179.043 123.196V123.196ZM198.838 128.306C198.85 128.243 198.858 128.178 198.858 128.111V128.111C198.858 128.102 198.855 128.092 198.854 128.082V128.082L206.087 125.82C206.229 126.035 206.446 126.192 206.701 126.265V126.265V131.587C206.502 131.644 206.326 131.753 206.191 131.901V131.901L198.838 128.306ZM198.573 128.837L205.926 132.432C205.915 132.495 205.907 132.56 205.907 132.627V132.627C205.907 133.123 206.244 133.537 206.701 133.666V133.666V142.985C206.252 143.113 205.921 143.515 205.91 143.999V143.999L188.875 148.364C188.815 148.262 188.74 148.172 188.651 148.095V148.095L194 136.776L197.59 129.18C197.647 129.189 197.706 129.197 197.766 129.197V129.197C198.087 129.197 198.373 129.057 198.573 128.837V128.837ZM188.076 147.839L186.227 135.612C186.605 135.441 186.869 135.065 186.869 134.625V134.625C186.869 134.542 186.858 134.462 186.841 134.385V134.385L194.925 129.993L196.987 128.872C197.007 128.892 197.03 128.908 197.051 128.927V128.927L193.398 136.657L188.112 147.842C188.101 147.84 188.088 147.84 188.076 147.839V147.839ZM167.731 148.519L175.641 142.592L185.121 135.488C185.269 135.599 185.445 135.672 185.638 135.697V135.697L187.486 147.924C187.197 148.055 186.979 148.306 186.891 148.614V148.614H167.761C167.752 148.583 167.743 148.55 167.731 148.519V148.519ZM188.717 149.667C188.903 149.478 189.019 149.221 189.026 148.937V148.937L206.06 144.572C206.201 144.81 206.428 144.988 206.701 145.065V145.065V156.679C206.244 156.808 205.907 157.222 205.907 157.718V157.718C205.907 157.938 205.973 158.141 206.086 158.312V158.312L199.047 166.361C198.906 166.295 198.75 166.255 198.584 166.255V166.255C198.493 166.255 198.406 166.27 198.321 166.29V166.29L188.717 149.667ZM169.06 149.933L167.812 149.207H186.891C186.994 149.566 187.277 149.848 187.639 149.95V149.95V160.232C187.465 160.281 187.309 160.368 187.182 160.489V160.489L169.06 149.933ZM167.469 149.693L168.208 150.123L186.883 161.001C186.873 161.037 186.867 161.073 186.861 161.109V161.109L169.892 163.267C169.72 162.891 169.342 162.628 168.899 162.628V162.628C168.804 162.628 168.714 162.644 168.626 162.667V162.667L164.664 152.788L166.42 149.951C166.515 149.977 166.612 149.996 166.715 149.996V149.996C167.008 149.996 167.273 149.88 167.469 149.693V149.693ZM188.993 161.532C189.014 161.448 189.029 161.361 189.029 161.272V161.272C189.029 161.179 189.014 161.091 188.992 161.006V161.006L188.941 160.845C188.812 160.547 188.552 160.322 188.234 160.232V160.232V150.021L197.778 166.54L188.993 161.532ZM199.544 167.849C199.626 167.697 199.677 167.526 199.677 167.341V167.341C199.677 167.121 199.61 166.919 199.498 166.748V166.748L200.946 165.092L206.536 158.699C206.589 158.723 206.644 158.742 206.701 158.758V158.758V174.369C206.613 174.394 206.53 174.429 206.453 174.474V174.474L199.544 167.849ZM169.929 164.06C169.952 163.994 169.968 163.925 169.978 163.853V163.853L186.509 161.751L177.004 167.228C176.807 167.039 176.541 166.921 176.246 166.921V166.921C175.949 166.921 175.681 167.04 175.484 167.231V167.231L169.929 164.06ZM188.234 182.998V162.311C188.411 162.261 188.571 162.171 188.699 162.047V162.047L197.528 167.08C197.507 167.164 197.493 167.25 197.493 167.341V167.341C197.493 167.62 197.601 167.872 197.776 168.065V168.065L188.342 183.016C188.307 183.008 188.271 183.003 188.234 182.998V182.998ZM177.338 168.007C177.338 167.915 177.324 167.827 177.302 167.741V167.741L187.178 162.051C187.306 162.173 187.464 162.261 187.639 162.311V162.311V183.08C187.43 183.174 187.259 183.331 187.144 183.527V183.527L182.317 181.312L174.519 171.678L175.994 169.061C176.075 169.08 176.159 169.092 176.246 169.092V169.092C176.849 169.092 177.338 168.606 177.338 168.007V168.007ZM201.181 182.479L199.415 170.832L199.036 168.327C199.068 168.312 199.099 168.294 199.131 168.276V168.276L199.907 169.02L206.04 174.9C205.957 175.053 205.907 175.224 205.907 175.408V175.408C205.907 175.905 206.244 176.319 206.701 176.448V176.448V182.511C206.339 182.613 206.056 182.895 205.953 183.255V183.255H202.087C201.969 182.843 201.617 182.535 201.181 182.479V182.479ZM188.862 183.307L198.281 168.379C198.335 168.394 198.39 168.405 198.445 168.412V168.412L198.512 168.848L200.591 182.564C200.285 182.702 200.056 182.976 199.979 183.308V183.308L189.156 183.858C189.114 183.645 189.01 183.455 188.862 183.307V183.307ZM202.018 184.028L205.964 183.884C206.017 184.044 206.102 184.189 206.218 184.307V184.307L202.419 190.871C202.328 190.846 202.233 190.829 202.134 190.829V190.829C201.842 190.829 201.578 190.944 201.382 191.13V191.13L189.731 184.475L200.104 184.097C200.293 184.418 200.64 184.636 201.042 184.636V184.636C201.472 184.636 201.84 184.387 202.018 184.028V184.028ZM186.843 188.602L188.621 185.009C188.753 184.935 188.867 184.836 188.958 184.716V184.716L201.042 191.618H192.701L186.843 188.602Z" fill="url(#paint0_linear)"/>
<mask id="mask0" mask-type="alpha" maskUnits="userSpaceOnUse" x="164" y="107" width="45" height="87">
<path fill-rule="evenodd" clip-rule="evenodd" d="M197.095 107.362C196.614 107.362 196.209 107.674 196.064 108.105V108.105L192.687 108.275L178.02 115.612L178.422 121.124C178.025 121.268 177.739 121.631 177.71 122.068V122.068L171.335 123.416L164.005 145.149L165.909 148.184C165.798 148.306 165.715 148.452 165.669 148.614V148.614L165.662 148.64C165.639 148.727 165.623 148.817 165.623 148.911V148.911C165.623 149.194 165.734 149.449 165.912 149.641V149.641L164 152.731L168.107 162.971C167.962 163.122 167.863 163.315 167.826 163.53V163.53L167.809 163.532L167.825 163.541C167.815 163.597 167.807 163.654 167.807 163.714V163.714C167.807 164.313 168.296 164.799 168.899 164.799V164.799C169.163 164.799 169.401 164.703 169.59 164.549V164.549L175.189 167.745C175.169 167.83 175.154 167.916 175.154 168.007V168.007C175.154 168.306 175.276 168.577 175.473 168.774V168.774L173.803 171.737L181.941 181.792L186.998 184.112C187.015 184.534 187.272 184.893 187.639 185.057V185.057L187.736 185.092C187.788 185.11 187.84 185.125 187.895 185.135V185.135L186.051 188.861L192.555 192.21H201.088C201.218 192.665 201.635 193 202.134 193V193C202.633 193 203.05 192.665 203.18 192.21V192.21L203.194 192.164C203.213 192.084 203.226 192.001 203.226 191.915V191.915C203.226 191.628 203.112 191.37 202.93 191.176V191.176L206.735 184.601C206.82 184.622 206.908 184.636 206.999 184.636V184.636C207.602 184.636 208.091 184.15 208.091 183.55V183.55C208.091 183.055 207.754 182.64 207.297 182.511V182.511V176.448C207.754 176.319 208.091 175.905 208.091 175.408V175.408C208.091 174.913 207.754 174.498 207.297 174.369V174.369V158.758C207.754 158.629 208.091 158.215 208.091 157.718V157.718C208.091 157.222 207.754 156.808 207.297 156.679V156.679V145.065C207.754 144.935 208.091 144.522 208.091 144.025V144.025C208.091 143.529 207.754 143.115 207.297 142.985V142.985V133.666C207.754 133.537 208.091 133.123 208.091 132.627V132.627C208.091 132.13 207.754 131.717 207.297 131.587V131.587V126.265C207.754 126.135 208.091 125.721 208.091 125.225V125.225C208.091 124.729 207.754 124.315 207.297 124.185V124.185V112.435L204.656 110.096C204.659 110.065 204.666 110.034 204.666 110.002V110.002C204.666 109.402 204.177 108.916 203.574 108.916V108.916C203.539 108.916 203.507 108.924 203.474 108.927V108.927L202.366 107.52L198.063 107.954C197.881 107.604 197.519 107.362 197.095 107.362ZM198.178 108.537L202.1 108.142L202.898 109.155C202.646 109.354 202.482 109.658 202.482 110.002V110.002C202.482 110.329 202.63 110.619 202.86 110.818V110.818L201.395 115.504L197.792 127.029C197.783 127.028 197.775 127.026 197.766 127.026V127.026C197.384 127.026 197.05 127.22 196.854 127.514V127.514L188.734 124.959L179.883 122.173C179.883 122.162 179.886 122.152 179.886 122.141V122.141C179.886 122.002 179.858 121.87 179.81 121.747V121.747L188.821 114.956L196.378 109.261C196.571 109.428 196.82 109.533 197.095 109.533V109.533C197.667 109.533 198.132 109.094 198.178 108.537V108.537ZM179.015 121.078L178.643 115.963L192.78 108.864L196.036 108.699C196.041 108.721 196.049 108.741 196.055 108.761V108.761L188.078 114.773L179.448 121.277C179.322 121.182 179.176 121.111 179.015 121.078V121.078ZM204.42 110.68L206.701 112.701V124.185C206.244 124.315 205.907 124.729 205.907 125.225V125.225C205.907 125.236 205.91 125.244 205.91 125.255V125.255L198.677 127.516C198.595 127.391 198.487 127.285 198.361 127.204V127.204L202.006 115.545L203.405 111.071C203.46 111.079 203.516 111.087 203.574 111.087V111.087C203.917 111.087 204.22 110.927 204.42 110.68V110.68ZM164.659 145.073L171.791 123.925L177.834 122.647C177.899 122.771 177.987 122.879 178.094 122.968V122.968L166.871 147.84C166.819 147.833 166.769 147.825 166.715 147.825V147.825C166.61 147.825 166.51 147.844 166.414 147.872V147.872L164.659 145.073ZM181.185 125.806L179.565 122.91C179.617 122.858 179.664 122.8 179.705 122.739V122.739L188.237 125.424L196.677 128.079C196.677 128.09 196.674 128.101 196.674 128.111V128.111C196.674 128.194 196.684 128.274 196.702 128.352V128.352L195.605 128.948L186.556 133.865C186.357 133.665 186.082 133.54 185.777 133.54V133.54C185.691 133.54 185.608 133.552 185.528 133.571V133.571L181.185 125.806ZM179.043 123.196L181.053 126.789L185.006 133.856C184.808 134.053 184.685 134.325 184.685 134.625V134.625C184.685 134.763 184.714 134.895 184.761 135.015V135.015L167.461 147.981L178.638 123.211C178.689 123.218 178.74 123.227 178.794 123.227V123.227C178.88 123.227 178.963 123.214 179.043 123.196V123.196ZM198.838 128.306C198.85 128.243 198.858 128.178 198.858 128.111V128.111C198.858 128.102 198.855 128.092 198.854 128.082V128.082L206.087 125.82C206.229 126.035 206.446 126.192 206.701 126.265V126.265V131.587C206.502 131.644 206.326 131.753 206.191 131.901V131.901L198.838 128.306ZM198.573 128.837L205.926 132.432C205.915 132.495 205.907 132.56 205.907 132.627V132.627C205.907 133.123 206.244 133.537 206.701 133.666V133.666V142.985C206.252 143.113 205.921 143.515 205.91 143.999V143.999L188.875 148.364C188.815 148.262 188.74 148.172 188.651 148.095V148.095L194 136.776L197.59 129.18C197.647 129.189 197.706 129.197 197.766 129.197V129.197C198.087 129.197 198.373 129.057 198.573 128.837V128.837ZM188.076 147.839L186.227 135.612C186.605 135.441 186.869 135.065 186.869 134.625V134.625C186.869 134.542 186.858 134.462 186.841 134.385V134.385L194.925 129.993L196.987 128.872C197.007 128.892 197.03 128.908 197.051 128.927V128.927L193.398 136.657L188.112 147.842C188.101 147.84 188.088 147.84 188.076 147.839V147.839ZM167.731 148.519L175.641 142.592L185.121 135.488C185.269 135.599 185.445 135.672 185.638 135.697V135.697L187.486 147.924C187.197 148.055 186.979 148.306 186.891 148.614V148.614H167.761C167.752 148.583 167.743 148.55 167.731 148.519V148.519ZM188.717 149.667C188.903 149.478 189.019 149.221 189.026 148.937V148.937L206.06 144.572C206.201 144.81 206.428 144.988 206.701 145.065V145.065V156.679C206.244 156.808 205.907 157.222 205.907 157.718V157.718C205.907 157.938 205.973 158.141 206.086 158.312V158.312L199.047 166.361C198.906 166.295 198.75 166.255 198.584 166.255V166.255C198.493 166.255 198.406 166.27 198.321 166.29V166.29L188.717 149.667ZM169.06 149.933L167.812 149.207H186.891C186.994 149.566 187.277 149.848 187.639 149.95V149.95V160.232C187.465 160.281 187.309 160.368 187.182 160.489V160.489L169.06 149.933ZM167.469 149.693L168.208 150.123L186.883 161.001C186.873 161.037 186.867 161.073 186.861 161.109V161.109L169.892 163.267C169.72 162.891 169.342 162.628 168.899 162.628V162.628C168.804 162.628 168.714 162.644 168.626 162.667V162.667L164.664 152.788L166.42 149.951C166.515 149.977 166.612 149.996 166.715 149.996V149.996C167.008 149.996 167.273 149.88 167.469 149.693V149.693ZM188.993 161.532C189.014 161.448 189.029 161.361 189.029 161.272V161.272C189.029 161.179 189.014 161.091 188.992 161.006V161.006L188.941 160.845C188.812 160.547 188.552 160.322 188.234 160.232V160.232V150.021L197.778 166.54L188.993 161.532ZM199.544 167.849C199.626 167.697 199.677 167.526 199.677 167.341V167.341C199.677 167.121 199.61 166.919 199.498 166.748V166.748L200.946 165.092L206.536 158.699C206.589 158.723 206.644 158.742 206.701 158.758V158.758V174.369C206.613 174.394 206.53 174.429 206.453 174.474V174.474L199.544 167.849ZM169.929 164.06C169.952 163.994 169.968 163.925 169.978 163.853V163.853L186.509 161.751L177.004 167.228C176.807 167.039 176.541 166.921 176.246 166.921V166.921C175.949 166.921 175.681 167.04 175.484 167.231V167.231L169.929 164.06ZM188.234 182.998V162.311C188.411 162.261 188.571 162.171 188.699 162.047V162.047L197.528 167.08C197.507 167.164 197.493 167.25 197.493 167.341V167.341C197.493 167.62 197.601 167.872 197.776 168.065V168.065L188.342 183.016C188.307 183.008 188.271 183.003 188.234 182.998V182.998ZM177.338 168.007C177.338 167.915 177.324 167.827 177.302 167.741V167.741L187.178 162.051C187.306 162.173 187.464 162.261 187.639 162.311V162.311V183.08C187.43 183.174 187.259 183.331 187.144 183.527V183.527L182.317 181.312L174.519 171.678L175.994 169.061C176.075 169.08 176.159 169.092 176.246 169.092V169.092C176.849 169.092 177.338 168.606 177.338 168.007V168.007ZM201.181 182.479L199.415 170.832L199.036 168.327C199.068 168.312 199.099 168.294 199.131 168.276V168.276L199.907 169.02L206.04 174.9C205.957 175.053 205.907 175.224 205.907 175.408V175.408C205.907 175.905 206.244 176.319 206.701 176.448V176.448V182.511C206.339 182.613 206.056 182.895 205.953 183.255V183.255H202.087C201.969 182.843 201.617 182.535 201.181 182.479V182.479ZM188.862 183.307L198.281 168.379C198.335 168.394 198.39 168.405 198.445 168.412V168.412L198.512 168.848L200.591 182.564C200.285 182.702 200.056 182.976 199.979 183.308V183.308L189.156 183.858C189.114 183.645 189.01 183.455 188.862 183.307V183.307ZM202.018 184.028L205.964 183.884C206.017 184.044 206.102 184.189 206.218 184.307V184.307L202.419 190.871C202.328 190.846 202.233 190.829 202.134 190.829V190.829C201.842 190.829 201.578 190.944 201.382 191.13V191.13L189.731 184.475L200.104 184.097C200.293 184.418 200.64 184.636 201.042 184.636V184.636C201.472 184.636 201.84 184.387 202.018 184.028V184.028ZM186.843 188.602L188.621 185.009C188.753 184.935 188.867 184.836 188.958 184.716V184.716L201.042 191.618H192.701L186.843 188.602Z" fill="white"/>
</mask>
<g mask="url(#mask0)">
</g>
<path fill-rule="evenodd" clip-rule="evenodd" d="M221.547 107.362C221.124 107.362 220.761 107.604 220.579 107.954V107.954L216.275 107.52L215.168 108.927C215.135 108.924 215.103 108.916 215.069 108.916V108.916C214.465 108.916 213.976 109.402 213.976 110.002V110.002C213.976 110.034 213.983 110.065 213.986 110.096V110.096L211.345 112.435V124.185C210.888 124.315 210.551 124.729 210.551 125.225V125.225C210.551 125.721 210.888 126.135 211.345 126.265V126.265V131.587C210.888 131.717 210.551 132.13 210.551 132.627V132.627C210.551 133.123 210.888 133.537 211.345 133.666V133.666V142.985C210.888 143.115 210.551 143.529 210.551 144.025V144.025C210.551 144.522 210.888 144.935 211.345 145.065V145.065V156.679C210.888 156.808 210.551 157.222 210.551 157.718V157.718C210.551 158.215 210.888 158.629 211.345 158.758V158.758V174.369C210.888 174.498 210.551 174.913 210.551 175.408V175.408C210.551 175.905 210.888 176.319 211.345 176.448V176.448V182.511C210.888 182.64 210.551 183.055 210.551 183.55V183.55C210.551 184.15 211.04 184.636 211.643 184.636V184.636C211.735 184.636 211.822 184.622 211.907 184.601V184.601L215.712 191.176C215.53 191.37 215.416 191.628 215.416 191.915V191.915C215.416 192.001 215.429 192.084 215.448 192.164V192.164L215.462 192.21C215.593 192.665 216.009 193 216.508 193V193C217.007 193 217.424 192.665 217.554 192.21V192.21H226.087L232.591 188.861L230.747 185.135C230.803 185.125 230.854 185.11 230.906 185.092V185.092L231.003 185.057C231.371 184.893 231.627 184.534 231.644 184.112V184.112L236.702 181.792L244.839 171.737L243.169 168.774C243.366 168.577 243.488 168.306 243.488 168.007V168.007C243.488 167.916 243.474 167.83 243.452 167.745V167.745L249.053 164.549C249.241 164.703 249.48 164.799 249.743 164.799V164.799C250.346 164.799 250.835 164.313 250.835 163.714V163.714C250.835 163.654 250.826 163.597 250.817 163.541V163.541L250.834 163.532L250.816 163.53C250.779 163.315 250.68 163.122 250.536 162.971V162.971L254.642 152.731L252.729 149.641C252.908 149.449 253.019 149.194 253.019 148.911V148.911C253.019 148.817 253.004 148.727 252.981 148.64V148.64L252.973 148.614C252.926 148.452 252.845 148.306 252.734 148.184V148.184L254.637 145.149L247.307 123.416L240.933 122.068C240.903 121.631 240.617 121.268 240.221 121.124V121.124L240.622 115.612L225.955 108.275L222.578 108.105C222.433 107.674 222.029 107.362 221.547 107.362ZM217.247 115.504L215.782 110.818C216.012 110.619 216.16 110.329 216.16 110.002V110.002C216.16 109.658 215.996 109.354 215.744 109.155V109.155L216.542 108.142L220.464 108.537C220.511 109.094 220.974 109.533 221.547 109.533V109.533C221.823 109.533 222.071 109.428 222.264 109.261V109.261L229.821 114.956L238.833 121.747C238.785 121.87 238.756 122.002 238.756 122.141V122.141C238.756 122.152 238.759 122.162 238.759 122.173V122.173L229.908 124.959L221.788 127.514C221.592 127.22 221.258 127.026 220.876 127.026V127.026C220.867 127.026 220.859 127.028 220.85 127.029V127.029L217.247 115.504ZM230.563 114.773L222.587 108.761C222.593 108.741 222.601 108.721 222.607 108.699V108.699L225.862 108.864L239.999 115.963L239.627 121.078C239.466 121.111 239.32 121.182 239.194 121.277V121.277L230.563 114.773ZM212.732 125.255C212.733 125.244 212.735 125.236 212.735 125.225V125.225C212.735 124.729 212.399 124.315 211.941 124.185V124.185V112.701L214.222 110.68C214.422 110.927 214.725 111.087 215.069 111.087V111.087C215.126 111.087 215.182 111.079 215.237 111.071V111.071L216.636 115.545L220.281 127.204C220.155 127.285 220.047 127.391 219.965 127.516V127.516L212.732 125.255ZM240.548 122.968C240.654 122.879 240.743 122.771 240.809 122.647V122.647L246.851 123.925L253.983 145.073L252.227 147.872C252.132 147.844 252.032 147.825 251.927 147.825V147.825C251.873 147.825 251.822 147.833 251.771 147.84V147.84L240.548 122.968ZM223.038 128.948L221.94 128.352C221.958 128.274 221.968 128.194 221.968 128.111V128.111C221.968 128.101 221.966 128.09 221.966 128.079V128.079L230.405 125.424L238.937 122.739C238.978 122.8 239.025 122.858 239.077 122.91V122.91L237.457 125.806L233.114 133.571C233.034 133.552 232.951 133.54 232.865 133.54V133.54C232.56 133.54 232.285 133.665 232.087 133.865V133.865L223.038 128.948ZM233.882 135.015C233.928 134.895 233.957 134.763 233.957 134.625V134.625C233.957 134.325 233.834 134.053 233.636 133.856V133.856L237.588 126.789L239.599 123.196C239.679 123.214 239.762 123.227 239.848 123.227V123.227C239.902 123.227 239.953 123.218 240.004 123.211V123.211L251.181 147.981L233.882 135.015ZM211.941 131.587V126.265C212.196 126.192 212.413 126.035 212.555 125.82V125.82L219.787 128.082C219.787 128.092 219.784 128.102 219.784 128.111V128.111C219.784 128.178 219.793 128.243 219.804 128.306V128.306L212.451 131.901C212.316 131.753 212.141 131.644 211.941 131.587V131.587ZM212.733 143.999C212.721 143.515 212.39 143.113 211.941 142.985V142.985V133.666C212.399 133.537 212.735 133.123 212.735 132.627V132.627C212.735 132.56 212.727 132.495 212.716 132.432V132.432L220.069 128.837C220.269 129.057 220.555 129.197 220.876 129.197V129.197C220.937 129.197 220.995 129.189 221.052 129.18V129.18L224.642 136.776L229.991 148.095C229.902 148.172 229.827 148.262 229.767 148.364V148.364L212.733 143.999ZM225.244 136.657L221.591 128.927C221.612 128.908 221.635 128.892 221.655 128.872V128.872L223.718 129.993L231.802 134.385C231.784 134.462 231.773 134.542 231.773 134.625V134.625C231.773 135.065 232.037 135.441 232.415 135.612V135.612L230.567 147.839C230.554 147.84 230.542 147.84 230.53 147.842V147.842L225.244 136.657ZM231.156 147.924L233.004 135.697C233.197 135.672 233.373 135.599 233.521 135.488V135.488L243.001 142.592L250.911 148.519C250.899 148.55 250.891 148.583 250.881 148.614V148.614H231.751C231.663 148.306 231.445 148.055 231.156 147.924V147.924ZM212.556 158.312C212.669 158.141 212.735 157.938 212.735 157.718V157.718C212.735 157.222 212.399 156.808 211.941 156.679V156.679V145.065C212.214 144.988 212.441 144.81 212.582 144.572V144.572L229.616 148.937C229.623 149.221 229.739 149.478 229.925 149.667V149.667L220.321 166.29C220.236 166.27 220.149 166.255 220.058 166.255V166.255C219.892 166.255 219.736 166.295 219.595 166.361V166.361L212.556 158.312ZM231.003 160.232V149.95C231.366 149.848 231.648 149.566 231.751 149.207V149.207H250.829L249.583 149.933L231.46 160.489C231.333 160.368 231.176 160.281 231.003 160.232V160.232ZM231.781 161.109C231.776 161.073 231.769 161.037 231.759 161.001V161.001L250.434 150.123L251.173 149.693C251.369 149.88 251.634 149.996 251.927 149.996V149.996C252.03 149.996 252.128 149.977 252.222 149.951V149.951L253.978 152.788L250.016 162.667C249.928 162.644 249.838 162.628 249.743 162.628V162.628C249.301 162.628 248.922 162.891 248.75 163.267V163.267L231.781 161.109ZM230.408 150.021V160.232C230.09 160.322 229.83 160.547 229.701 160.845V160.845L229.65 161.006C229.628 161.091 229.614 161.179 229.614 161.272V161.272C229.614 161.361 229.628 161.448 229.649 161.532V161.532L220.864 166.54L230.408 150.021ZM211.941 174.369V158.758C211.998 158.742 212.053 158.723 212.106 158.699V158.699L217.697 165.092L219.145 166.748C219.032 166.919 218.966 167.121 218.966 167.341V167.341C218.966 167.526 219.017 167.697 219.098 167.849V167.849L212.19 174.474C212.112 174.429 212.029 174.394 211.941 174.369V174.369ZM232.133 161.751L248.665 163.853C248.674 163.925 248.69 163.994 248.712 164.06V164.06L243.158 167.231C242.961 167.04 242.693 166.921 242.396 166.921V166.921C242.101 166.921 241.834 167.039 241.638 167.228V167.228L232.133 161.751ZM220.866 168.065C221.041 167.872 221.15 167.62 221.15 167.341V167.341C221.15 167.25 221.135 167.164 221.114 167.08V167.08L229.943 162.047C230.071 162.171 230.231 162.261 230.408 162.311V162.311V182.998C230.371 183.003 230.335 183.008 230.3 183.016V183.016L220.866 168.065ZM231.003 183.08V162.311C231.178 162.261 231.336 162.173 231.464 162.051V162.051L241.341 167.741C241.319 167.827 241.304 167.915 241.304 168.007V168.007C241.304 168.606 241.793 169.092 242.396 169.092V169.092C242.483 169.092 242.567 169.08 242.648 169.061V169.061L244.123 171.678L236.325 181.312L231.498 183.527C231.384 183.331 231.212 183.174 231.003 183.08V183.08ZM211.941 182.511V176.448C212.399 176.319 212.735 175.905 212.735 175.408V175.408C212.735 175.224 212.685 175.053 212.603 174.9V174.9L218.735 169.02L219.511 168.276C219.543 168.294 219.574 168.312 219.607 168.327V168.327L219.227 170.832L217.462 182.479C217.025 182.535 216.672 182.843 216.555 183.255V183.255H212.689C212.586 182.895 212.303 182.613 211.941 182.511V182.511ZM218.663 183.308C218.586 182.976 218.357 182.702 218.051 182.564V182.564L220.13 168.848L220.196 168.412C220.253 168.405 220.307 168.394 220.36 168.379V168.379L229.78 183.307C229.632 183.455 229.528 183.645 229.486 183.858V183.858L218.663 183.308ZM212.425 184.307C212.54 184.189 212.625 184.044 212.677 183.884V183.884L216.624 184.028C216.802 184.387 217.17 184.636 217.601 184.636V184.636C218.002 184.636 218.349 184.418 218.539 184.097V184.097L228.912 184.475L217.259 191.13C217.063 190.944 216.8 190.829 216.508 190.829V190.829C216.409 190.829 216.315 190.846 216.223 190.871V190.871L212.425 184.307ZM229.685 184.716C229.775 184.836 229.889 184.935 230.021 185.009V185.009L231.799 188.602L225.942 191.618H217.6L229.685 184.716Z" fill="url(#paint1_linear)"/>
<mask id="mask1" mask-type="alpha" maskUnits="userSpaceOnUse" x="210" y="107" width="45" height="87">
<path fill-rule="evenodd" clip-rule="evenodd" d="M221.547 107.362C221.124 107.362 220.761 107.604 220.579 107.954V107.954L216.275 107.52L215.168 108.927C215.135 108.924 215.103 108.916 215.069 108.916V108.916C214.465 108.916 213.976 109.402 213.976 110.002V110.002C213.976 110.034 213.983 110.065 213.986 110.096V110.096L211.345 112.435V124.185C210.888 124.315 210.551 124.729 210.551 125.225V125.225C210.551 125.721 210.888 126.135 211.345 126.265V126.265V131.587C210.888 131.717 210.551 132.13 210.551 132.627V132.627C210.551 133.123 210.888 133.537 211.345 133.666V133.666V142.985C210.888 143.115 210.551 143.529 210.551 144.025V144.025C210.551 144.522 210.888 144.935 211.345 145.065V145.065V156.679C210.888 156.808 210.551 157.222 210.551 157.718V157.718C210.551 158.215 210.888 158.629 211.345 158.758V158.758V174.369C210.888 174.498 210.551 174.913 210.551 175.408V175.408C210.551 175.905 210.888 176.319 211.345 176.448V176.448V182.511C210.888 182.64 210.551 183.055 210.551 183.55V183.55C210.551 184.15 211.04 184.636 211.643 184.636V184.636C211.735 184.636 211.822 184.622 211.907 184.601V184.601L215.712 191.176C215.53 191.37 215.416 191.628 215.416 191.915V191.915C215.416 192.001 215.429 192.084 215.448 192.164V192.164L215.462 192.21C215.593 192.665 216.009 193 216.508 193V193C217.007 193 217.424 192.665 217.554 192.21V192.21H226.087L232.591 188.861L230.747 185.135C230.803 185.125 230.854 185.11 230.906 185.092V185.092L231.003 185.057C231.371 184.893 231.627 184.534 231.644 184.112V184.112L236.702 181.792L244.839 171.737L243.169 168.774C243.366 168.577 243.488 168.306 243.488 168.007V168.007C243.488 167.916 243.474 167.83 243.452 167.745V167.745L249.053 164.549C249.241 164.703 249.48 164.799 249.743 164.799V164.799C250.346 164.799 250.835 164.313 250.835 163.714V163.714C250.835 163.654 250.826 163.597 250.817 163.541V163.541L250.834 163.532L250.816 163.53C250.779 163.315 250.68 163.122 250.536 162.971V162.971L254.642 152.731L252.729 149.641C252.908 149.449 253.019 149.194 253.019 148.911V148.911C253.019 148.817 253.004 148.727 252.981 148.64V148.64L252.973 148.614C252.926 148.452 252.845 148.306 252.734 148.184V148.184L254.637 145.149L247.307 123.416L240.933 122.068C240.903 121.631 240.617 121.268 240.221 121.124V121.124L240.622 115.612L225.955 108.275L222.578 108.105C222.433 107.674 222.029 107.362 221.547 107.362ZM217.247 115.504L215.782 110.818C216.012 110.619 216.16 110.329 216.16 110.002V110.002C216.16 109.658 215.996 109.354 215.744 109.155V109.155L216.542 108.142L220.464 108.537C220.511 109.094 220.974 109.533 221.547 109.533V109.533C221.823 109.533 222.071 109.428 222.264 109.261V109.261L229.821 114.956L238.833 121.747C238.785 121.87 238.756 122.002 238.756 122.141V122.141C238.756 122.152 238.759 122.162 238.759 122.173V122.173L229.908 124.959L221.788 127.514C221.592 127.22 221.258 127.026 220.876 127.026V127.026C220.867 127.026 220.859 127.028 220.85 127.029V127.029L217.247 115.504ZM230.563 114.773L222.587 108.761C222.593 108.741 222.601 108.721 222.607 108.699V108.699L225.862 108.864L239.999 115.963L239.627 121.078C239.466 121.111 239.32 121.182 239.194 121.277V121.277L230.563 114.773ZM212.732 125.255C212.733 125.244 212.735 125.236 212.735 125.225V125.225C212.735 124.729 212.399 124.315 211.941 124.185V124.185V112.701L214.222 110.68C214.422 110.927 214.725 111.087 215.069 111.087V111.087C215.126 111.087 215.182 111.079 215.237 111.071V111.071L216.636 115.545L220.281 127.204C220.155 127.285 220.047 127.391 219.965 127.516V127.516L212.732 125.255ZM240.548 122.968C240.654 122.879 240.743 122.771 240.809 122.647V122.647L246.851 123.925L253.983 145.073L252.227 147.872C252.132 147.844 252.032 147.825 251.927 147.825V147.825C251.873 147.825 251.822 147.833 251.771 147.84V147.84L240.548 122.968ZM223.038 128.948L221.94 128.352C221.958 128.274 221.968 128.194 221.968 128.111V128.111C221.968 128.101 221.966 128.09 221.966 128.079V128.079L230.405 125.424L238.937 122.739C238.978 122.8 239.025 122.858 239.077 122.91V122.91L237.457 125.806L233.114 133.571C233.034 133.552 232.951 133.54 232.865 133.54V133.54C232.56 133.54 232.285 133.665 232.087 133.865V133.865L223.038 128.948ZM233.882 135.015C233.928 134.895 233.957 134.763 233.957 134.625V134.625C233.957 134.325 233.834 134.053 233.636 133.856V133.856L237.588 126.789L239.599 123.196C239.679 123.214 239.762 123.227 239.848 123.227V123.227C239.902 123.227 239.953 123.218 240.004 123.211V123.211L251.181 147.981L233.882 135.015ZM211.941 131.587V126.265C212.196 126.192 212.413 126.035 212.555 125.82V125.82L219.787 128.082C219.787 128.092 219.784 128.102 219.784 128.111V128.111C219.784 128.178 219.793 128.243 219.804 128.306V128.306L212.451 131.901C212.316 131.753 212.141 131.644 211.941 131.587V131.587ZM212.733 143.999C212.721 143.515 212.39 143.113 211.941 142.985V142.985V133.666C212.399 133.537 212.735 133.123 212.735 132.627V132.627C212.735 132.56 212.727 132.495 212.716 132.432V132.432L220.069 128.837C220.269 129.057 220.555 129.197 220.876 129.197V129.197C220.937 129.197 220.995 129.189 221.052 129.18V129.18L224.642 136.776L229.991 148.095C229.902 148.172 229.827 148.262 229.767 148.364V148.364L212.733 143.999ZM225.244 136.657L221.591 128.927C221.612 128.908 221.635 128.892 221.655 128.872V128.872L223.718 129.993L231.802 134.385C231.784 134.462 231.773 134.542 231.773 134.625V134.625C231.773 135.065 232.037 135.441 232.415 135.612V135.612L230.567 147.839C230.554 147.84 230.542 147.84 230.53 147.842V147.842L225.244 136.657ZM231.156 147.924L233.004 135.697C233.197 135.672 233.373 135.599 233.521 135.488V135.488L243.001 142.592L250.911 148.519C250.899 148.55 250.891 148.583 250.881 148.614V148.614H231.751C231.663 148.306 231.445 148.055 231.156 147.924V147.924ZM212.556 158.312C212.669 158.141 212.735 157.938 212.735 157.718V157.718C212.735 157.222 212.399 156.808 211.941 156.679V156.679V145.065C212.214 144.988 212.441 144.81 212.582 144.572V144.572L229.616 148.937C229.623 149.221 229.739 149.478 229.925 149.667V149.667L220.321 166.29C220.236 166.27 220.149 166.255 220.058 166.255V166.255C219.892 166.255 219.736 166.295 219.595 166.361V166.361L212.556 158.312ZM231.003 160.232V149.95C231.366 149.848 231.648 149.566 231.751 149.207V149.207H250.829L249.583 149.933L231.46 160.489C231.333 160.368 231.176 160.281 231.003 160.232V160.232ZM231.781 161.109C231.776 161.073 231.769 161.037 231.759 161.001V161.001L250.434 150.123L251.173 149.693C251.369 149.88 251.634 149.996 251.927 149.996V149.996C252.03 149.996 252.128 149.977 252.222 149.951V149.951L253.978 152.788L250.016 162.667C249.928 162.644 249.838 162.628 249.743 162.628V162.628C249.301 162.628 248.922 162.891 248.75 163.267V163.267L231.781 161.109ZM230.408 150.021V160.232C230.09 160.322 229.83 160.547 229.701 160.845V160.845L229.65 161.006C229.628 161.091 229.614 161.179 229.614 161.272V161.272C229.614 161.361 229.628 161.448 229.649 161.532V161.532L220.864 166.54L230.408 150.021ZM211.941 174.369V158.758C211.998 158.742 212.053 158.723 212.106 158.699V158.699L217.697 165.092L219.145 166.748C219.032 166.919 218.966 167.121 218.966 167.341V167.341C218.966 167.526 219.017 167.697 219.098 167.849V167.849L212.19 174.474C212.112 174.429 212.029 174.394 211.941 174.369V174.369ZM232.133 161.751L248.665 163.853C248.674 163.925 248.69 163.994 248.712 164.06V164.06L243.158 167.231C242.961 167.04 242.693 166.921 242.396 166.921V166.921C242.101 166.921 241.834 167.039 241.638 167.228V167.228L232.133 161.751ZM220.866 168.065C221.041 167.872 221.15 167.62 221.15 167.341V167.341C221.15 167.25 221.135 167.164 221.114 167.08V167.08L229.943 162.047C230.071 162.171 230.231 162.261 230.408 162.311V162.311V182.998C230.371 183.003 230.335 183.008 230.3 183.016V183.016L220.866 168.065ZM231.003 183.08V162.311C231.178 162.261 231.336 162.173 231.464 162.051V162.051L241.341 167.741C241.319 167.827 241.304 167.915 241.304 168.007V168.007C241.304 168.606 241.793 169.092 242.396 169.092V169.092C242.483 169.092 242.567 169.08 242.648 169.061V169.061L244.123 171.678L236.325 181.312L231.498 183.527C231.384 183.331 231.212 183.174 231.003 183.08V183.08ZM211.941 182.511V176.448C212.399 176.319 212.735 175.905 212.735 175.408V175.408C212.735 175.224 212.685 175.053 212.603 174.9V174.9L218.735 169.02L219.511 168.276C219.543 168.294 219.574 168.312 219.607 168.327V168.327L219.227 170.832L217.462 182.479C217.025 182.535 216.672 182.843 216.555 183.255V183.255H212.689C212.586 182.895 212.303 182.613 211.941 182.511V182.511ZM218.663 183.308C218.586 182.976 218.357 182.702 218.051 182.564V182.564L220.13 168.848L220.196 168.412C220.253 168.405 220.307 168.394 220.36 168.379V168.379L229.78 183.307C229.632 183.455 229.528 183.645 229.486 183.858V183.858L218.663 183.308ZM212.425 184.307C212.54 184.189 212.625 184.044 212.677 183.884V183.884L216.624 184.028C216.802 184.387 217.17 184.636 217.601 184.636V184.636C218.002 184.636 218.349 184.418 218.539 184.097V184.097L228.912 184.475L217.259 191.13C217.063 190.944 216.8 190.829 216.508 190.829V190.829C216.409 190.829 216.315 190.846 216.223 190.871V190.871L212.425 184.307ZM229.685 184.716C229.775 184.836 229.889 184.935 230.021 185.009V185.009L231.799 188.602L225.942 191.618H217.6L229.685 184.716Z" fill="white"/>
</mask>
<g mask="url(#mask1)">
</g>
<path fill-rule="evenodd" clip-rule="evenodd" d="M186.28 131.294H193.705L193.66 166.422H186.236L186.28 131.294Z" fill="#0F9696"/>
<path fill-rule="evenodd" clip-rule="evenodd" d="M222.126 164.619C220.627 164.035 219.318 163.087 218.201 161.775C217.083 160.464 216.197 158.758 215.543 156.656C214.888 154.555 214.562 151.972 214.562 148.907C214.562 145.843 214.888 143.251 215.543 141.134C216.197 139.018 217.083 137.311 218.201 136.015C219.318 134.72 220.627 133.781 222.126 133.196C223.625 132.611 225.22 132.318 226.911 132.318L241 132.306V138.752L227.688 138.765C226.897 138.765 226.14 138.876 225.418 139.096C224.696 139.318 224.041 139.697 223.455 140.234C222.869 140.771 222.372 141.482 221.963 142.367C221.554 143.251 221.268 144.357 221.104 145.684L241 145.672V152.117L221.104 152.13C221.268 153.457 221.554 154.564 221.963 155.448C222.372 156.333 222.869 157.043 223.455 157.581C224.041 158.119 224.696 158.498 225.418 158.718C226.14 158.94 226.897 159.05 227.688 159.05L241 159.038V165.483L226.911 165.496C225.22 165.496 223.625 165.204 222.126 164.619" fill="#0F9696"/>
<path fill-rule="evenodd" clip-rule="evenodd" d="M230.973 295.792C230.969 295.779 230.966 295.765 230.964 295.752C230.962 295.738 230.96 295.725 230.955 295.712L230.946 295.685C230.942 295.676 230.939 295.667 230.937 295.658L230.937 295.658C230.935 295.649 230.933 295.64 230.928 295.631L230.919 295.622C230.901 295.586 230.893 295.568 230.884 295.542C230.877 295.523 230.867 295.508 230.855 295.492L230.847 295.482C230.845 295.478 230.842 295.474 230.839 295.47L230.83 295.452C230.824 295.446 230.818 295.44 230.813 295.434C230.805 295.423 230.797 295.413 230.785 295.407L230.767 295.39L230.714 295.336L230.705 295.327C230.696 295.318 230.685 295.311 230.673 295.305C230.662 295.298 230.651 295.291 230.642 295.282L230.633 295.273L220.085 289.19V277.005C220.085 276.969 220.085 276.942 220.076 276.924V276.915C220.076 276.894 220.071 276.879 220.064 276.86L220.059 276.844V276.826C220.056 276.819 220.054 276.813 220.052 276.807L220.052 276.806L220.052 276.806C220.045 276.79 220.041 276.776 220.041 276.763L220.032 276.754C220.021 276.734 220.014 276.716 220.008 276.701L220.008 276.701L220.008 276.701C220.003 276.69 220 276.681 219.996 276.674C219.987 276.656 219.969 276.629 219.951 276.602L219.951 276.602L219.942 276.584C219.936 276.578 219.931 276.572 219.926 276.566C219.917 276.555 219.909 276.545 219.897 276.54L219.88 276.522C219.862 276.504 219.844 276.486 219.826 276.477L219.817 276.468C219.808 276.459 219.797 276.452 219.786 276.446C219.774 276.439 219.763 276.432 219.754 276.423L219.745 276.414L208.867 270.134C208.661 270.018 208.401 270.018 208.196 270.134L197.299 276.423C197.292 276.428 197.285 276.432 197.279 276.436C197.263 276.447 197.25 276.455 197.236 276.468C197.21 276.486 197.192 276.504 197.174 276.522L197.165 276.54C197.159 276.546 197.153 276.552 197.148 276.558C197.14 276.569 197.132 276.579 197.12 276.584L197.111 276.593C197.096 276.608 197.087 276.623 197.079 276.636L197.079 276.636C197.072 276.647 197.066 276.657 197.058 276.665C197.055 276.67 197.051 276.677 197.047 276.683C197.039 276.699 197.028 276.718 197.022 276.736L197.013 276.754C197.004 276.772 196.995 276.79 196.995 276.808L196.986 276.826C196.981 276.836 196.979 276.848 196.976 276.861C196.974 276.873 196.972 276.885 196.968 276.898V276.906C196.968 276.92 196.966 276.933 196.964 276.947C196.961 276.96 196.959 276.974 196.959 276.987V277.005V289.181L186.402 295.273C186.395 295.278 186.389 295.282 186.383 295.286C186.366 295.297 186.353 295.305 186.34 295.318L186.331 295.327C186.313 295.336 186.295 295.354 186.277 295.372L186.268 295.381C186.25 295.399 186.232 295.416 186.224 295.434L186.215 295.443C186.2 295.458 186.19 295.473 186.182 295.486L186.182 295.486C186.175 295.497 186.169 295.507 186.161 295.515V295.524C186.159 295.528 186.157 295.533 186.154 295.538C186.147 295.554 186.139 295.573 186.125 295.586L186.116 295.604C186.107 295.622 186.098 295.64 186.098 295.658L186.089 295.676C186.085 295.689 186.083 295.7 186.08 295.712C186.078 295.723 186.076 295.734 186.071 295.747V295.756C186.071 295.77 186.069 295.783 186.067 295.797C186.065 295.81 186.062 295.823 186.062 295.837V295.855V308.415C186.062 308.657 186.188 308.881 186.402 308.997L197.299 315.286C197.312 315.291 197.324 315.297 197.335 315.304C197.346 315.311 197.357 315.318 197.371 315.322L197.38 315.331C197.397 315.34 197.424 315.349 197.451 315.358L197.469 315.367C197.487 315.376 197.514 315.376 197.532 315.376H197.55C197.612 315.385 197.648 315.385 197.711 315.376H197.729C197.737 315.376 197.749 315.373 197.76 315.371C197.771 315.369 197.782 315.367 197.791 315.367L197.809 315.358C197.822 315.353 197.834 315.349 197.845 315.344C197.856 315.34 197.867 315.335 197.881 315.331H197.89C197.916 315.322 197.934 315.313 197.961 315.295L197.979 315.286L208.527 309.203L219.083 315.295C219.097 315.3 219.108 315.306 219.119 315.313C219.13 315.32 219.142 315.326 219.155 315.331L219.173 315.34C219.191 315.349 219.209 315.358 219.235 315.358H219.253C219.28 315.367 219.298 315.367 219.316 315.367H219.334C219.396 315.376 219.432 315.376 219.495 315.367H219.513C219.521 315.367 219.529 315.365 219.538 315.363L219.538 315.363C219.549 315.36 219.561 315.358 219.575 315.358L219.593 315.349L219.602 315.346L219.609 315.343C219.616 315.341 219.623 315.338 219.629 315.335C219.64 315.331 219.651 315.326 219.665 315.322H219.674C219.701 315.313 219.719 315.304 219.745 315.286L219.754 315.277L230.633 308.997C230.839 308.881 230.973 308.657 230.973 308.415V295.837C230.982 295.846 230.982 295.819 230.973 295.792ZM223.521 292.741L213.984 298.252L209.878 295.882L219.414 290.371L223.521 292.741ZM209.207 294.719L218.743 289.208V278.195L209.207 283.706V294.719ZM208.527 271.512L212.633 273.883L203.096 279.394L198.99 277.023L208.527 271.512ZM201.745 292.741L197.639 290.371L188.102 295.882L192.209 298.252L201.745 292.741ZM196.959 313.563L187.431 308.058V297.045L191.663 299.487L191.681 299.514C191.77 299.603 191.887 299.675 192.003 299.702L192.03 299.711L196.959 302.556V313.563ZM196.959 313.563L196.968 313.568H196.959V313.563ZM193.551 299.022L197.639 301.384L207.176 295.873L203.087 293.511L193.551 299.022ZM198.319 313.577V302.565L207.856 297.054V308.067L198.319 313.577ZM207.847 294.704L207.856 294.71H207.847V294.704ZM207.847 294.704L198.319 289.199V278.186L202.551 280.628L202.568 280.655C202.658 280.744 202.774 280.816 202.899 280.843L202.926 280.852L207.847 283.697V294.704ZM204.447 280.172L213.984 274.661L218.063 277.023L208.527 282.534L204.447 280.172ZM218.734 313.563L218.743 313.568H218.734V313.563ZM218.734 313.563L209.207 308.058V297.045L213.438 299.487L213.456 299.514C213.546 299.603 213.653 299.675 213.778 299.702L213.805 299.711L218.734 302.556V313.563ZM219.414 301.384L215.335 299.022L224.872 293.511L228.96 295.873L219.414 301.384ZM220.094 313.577L229.631 308.067V297.054L220.094 302.565V313.577Z" fill="#0F9696"/>
<path fill-rule="evenodd" clip-rule="evenodd" d="M331.818 47.6621C327.544 45.3956 324.266 44.1248 321.347 43.6375L321.649 43.2223C321.793 43.079 321.864 42.8642 321.793 42.6494L321.122 39.965C322.896 37.4558 323.941 34.3189 323.941 31.3349V28.4704H324.657H326.089C326.519 28.4704 326.805 28.184 326.805 27.7544C326.805 27.3247 326.519 27.0383 326.089 27.0383H325.373V26.3222C325.373 20.665 321.649 15.8671 316.064 14.2916V14.1483C316.064 13.0025 315.133 12 313.915 12H311.051C309.905 12 308.903 12.9309 308.903 14.1483V14.2915C303.317 15.867 299.593 20.6649 299.593 26.3222V27.0382H298.877C298.448 27.0382 298.161 27.3246 298.161 27.7543C298.161 28.184 298.448 28.4704 298.877 28.4704H300.309H301.025V31.3348C301.025 34.3188 302.07 37.4557 303.845 39.965L303.174 42.6494C303.174 42.7926 303.174 43.079 303.317 43.2223L303.619 43.6375C300.701 44.1248 297.422 45.3956 293.148 47.6621C291.788 48.3067 291 49.6672 291 51.171V54.2503C291 54.68 291.286 54.9664 291.716 54.9664H308.903H309.189H315.777H316.064H333.25C333.68 54.9664 333.966 54.68 333.966 54.2503V51.171C333.966 49.7388 333.107 48.3783 331.818 47.6621ZM312.054 46.9993L312.487 46.0239L313.558 48.3787L314.258 49.9536H310.765L312.054 46.9993ZM314.741 51.3859H310.22L309.791 53.5342H315.15L314.741 51.3859ZM320.002 41.3604L320.289 42.6494L319.557 43.6538C319.511 43.6919 319.467 43.7382 319.429 43.7951L316.451 47.9193L315.506 49.2171L313.575 44.8733C315.883 44.5919 317.943 43.4334 319.607 41.7686L319.625 41.7505C319.637 41.7383 319.65 41.7262 319.662 41.7139L319.675 41.7003C319.785 41.5896 319.895 41.4765 320.002 41.3604ZM319.306 17.399C319.228 17.3442 319.149 17.2905 319.069 17.2376L318.427 20.3784L321.721 19.7339C321.061 18.8761 320.219 18.0792 319.306 17.399ZM306.54 20.3784L303.245 19.7339C303.905 18.876 304.748 18.0791 305.661 17.3989C305.739 17.3442 305.818 17.2905 305.897 17.2376L306.54 20.3784ZM302.373 21.0478C301.505 22.6189 301.025 24.4166 301.025 26.3222H301.026V27.0382H301.742H323.225H323.941V26.3222C323.941 24.393 323.449 22.5742 322.561 20.9894L317.639 22.0256H317.496C317.281 22.0256 317.138 21.954 316.995 21.8107C316.851 21.6675 316.78 21.3811 316.78 21.1663L317.743 16.4779C317.21 16.2181 316.649 15.9959 316.064 15.8142V17.7288C316.064 18.1585 315.777 18.4449 315.348 18.4449C314.918 18.4449 314.631 18.1585 314.631 17.7288V14.8644V14.1483C314.631 13.7186 314.273 13.4322 313.915 13.4322H311.051C310.621 13.4322 310.335 13.7902 310.335 14.1483V14.8644V17.7289C310.335 18.1586 310.048 18.445 309.619 18.445C309.189 18.445 308.903 18.1586 308.903 17.7289V15.8142C308.336 15.9901 307.793 16.2041 307.275 16.4532L308.258 21.2378C308.33 21.4527 308.258 21.7391 308.043 21.8823C307.999 21.8972 307.957 21.9122 307.917 21.9264C307.766 21.9807 307.641 22.0256 307.471 22.0256H307.327L302.373 21.0478ZM302.458 28.4704H322.509V31.3349C322.509 34.4574 321.438 37.2322 319.829 39.3413L319.787 39.3553L319.573 39.5701C319.212 40.0505 318.832 40.4885 318.435 40.8835C316.749 42.4543 314.737 43.4058 312.8 43.5001C312.702 43.4582 312.593 43.4371 312.483 43.4371C312.373 43.4371 312.274 43.4587 312.185 43.501C310.999 43.4466 309.785 43.0706 308.634 42.4274C307.468 41.7575 306.371 40.7919 305.394 39.5701L305.179 39.3553L305.137 39.3413C303.529 37.2321 302.458 34.4573 302.458 31.3349V28.4704H302.458ZM309.461 49.2173L311.391 44.8735C309.037 44.5863 306.94 43.3863 305.259 41.6671C305.16 41.5669 305.061 41.465 304.964 41.3605L304.678 42.6494L305.463 43.7276C305.489 43.7499 305.514 43.7725 305.537 43.7953L308.516 47.9195L309.461 49.2173ZM292.432 51.171C292.432 50.2401 292.933 49.3807 293.793 48.9511C298.357 46.5261 301.643 45.309 304.57 44.9455L308.844 50.8213L308.301 53.5341H292.432V51.171ZM316.665 53.5342H332.534V51.1711C332.534 50.2402 332.033 49.3808 331.174 48.8796C326.704 46.5383 323.359 45.3222 320.442 44.882L316.123 50.8215L316.665 53.5342Z" fill="#0F9696"/>
<rect x="358.875" y="198.891" width="1.34375" height="1.34375" fill="#0F9696"/>
<rect x="354.844" y="198.891" width="1.34375" height="1.34375" fill="#0F9696"/>
<rect x="366.266" y="198.891" width="1.34375" height="1.34375" fill="#0F9696"/>
<rect x="370.297" y="198.891" width="1.34375" height="1.34375" fill="#0F9696"/>
<path fill-rule="evenodd" clip-rule="evenodd" d="M368.281 171.344V178.062H375V198.219H355.516H354.844H352.828C352.425 198.219 352.156 197.95 352.156 197.547V178.734C352.156 178.331 352.425 178.062 352.828 178.062H354.844H355.516H358.875V171.344H357.531V170H358.875H368.281H369.625V171.344H368.281ZM353.5 196.875H354.844V179.406H353.5V196.875ZM360.219 171.344H366.938V178.062H360.219V171.344ZM356.188 196.875H373.656V179.406H356.188V196.875Z" fill="#0F9696"/>
<path fill-rule="evenodd" clip-rule="evenodd" d="M362.906 188.812H358.875C358.472 188.812 358.203 188.544 358.203 188.141V184.109C358.203 183.706 358.472 183.438 358.875 183.438H362.906C363.309 183.438 363.578 183.706 363.578 184.109V188.141C363.578 188.544 363.309 188.812 362.906 188.812ZM362.234 184.781H359.547V187.469H362.234V184.781Z" fill="#0F9696"/>
<path fill-rule="evenodd" clip-rule="evenodd" d="M367.005 195.666C366.803 195.666 366.669 195.599 366.534 195.464L364.116 193.113C363.847 192.844 363.847 192.441 364.116 192.172L366.803 189.552C367.072 189.283 367.475 189.283 367.744 189.552L370.095 191.903C370.364 192.172 370.364 192.575 370.095 192.844L367.475 195.464C367.341 195.599 367.206 195.666 367.005 195.666ZM368.617 192.374L367.206 190.963L365.594 192.642L366.938 194.053L368.617 192.374Z" fill="#0F9696"/>
<path fill-rule="evenodd" clip-rule="evenodd" d="M371.305 184.445C371.305 185.722 370.23 186.797 368.953 186.797C367.677 186.797 366.602 185.722 366.602 184.445C366.602 183.169 367.677 182.094 368.953 182.094C370.23 182.094 371.305 183.169 371.305 184.445ZM369.961 184.445C369.961 183.908 369.491 183.438 368.953 183.438C368.416 183.438 367.945 183.908 367.945 184.445C367.945 184.983 368.416 185.453 368.953 185.453C369.491 185.453 369.961 184.983 369.961 184.445Z" fill="#0F9696"/>
<path d="M342.481 179.272L343.422 178.331L344.362 179.272L345.303 178.331L344.362 177.391L345.303 176.45L344.362 175.509L343.422 176.45L342.481 175.509L341.541 176.45L342.481 177.391L341.541 178.331L342.481 179.272Z" fill="#0F9696"/>
<path fill-rule="evenodd" clip-rule="evenodd" d="M334.688 207.625C334.688 206.483 335.561 205.609 336.703 205.609C337.845 205.609 338.719 206.483 338.719 207.625C338.719 208.767 337.845 209.641 336.703 209.641C335.561 209.641 334.688 208.767 334.688 207.625ZM336.031 207.625C336.031 208.028 336.3 208.297 336.703 208.297C337.106 208.297 337.375 208.028 337.375 207.625C337.375 207.222 337.106 206.953 336.703 206.953C336.3 206.953 336.031 207.222 336.031 207.625Z" fill="#0F9696"/>
<path fill-rule="evenodd" clip-rule="evenodd" d="M341.406 207.625C341.406 206.483 342.28 205.609 343.422 205.609C344.564 205.609 345.438 206.483 345.438 207.625C345.438 208.767 344.564 209.641 343.422 209.641C342.28 209.641 341.406 208.767 341.406 207.625ZM342.75 207.625C342.75 208.028 343.019 208.297 343.422 208.297C343.825 208.297 344.094 208.028 344.094 207.625C344.094 207.222 343.825 206.953 343.422 206.953C343.019 206.953 342.75 207.222 342.75 207.625Z" fill="#0F9696"/>
<path fill-rule="evenodd" clip-rule="evenodd" d="M348.125 207.625C348.125 206.483 348.998 205.609 350.141 205.609C351.283 205.609 352.156 206.483 352.156 207.625C352.156 208.767 351.283 209.641 350.141 209.641C348.998 209.641 348.125 208.767 348.125 207.625ZM349.469 207.625C349.469 208.028 349.737 208.297 350.141 208.297C350.544 208.297 350.812 208.028 350.812 207.625C350.812 207.222 350.544 206.953 350.141 206.953C349.737 206.953 349.469 207.222 349.469 207.625Z" fill="#0F9696"/>
<path fill-rule="evenodd" clip-rule="evenodd" d="M354.844 207.625C354.844 206.483 355.717 205.609 356.859 205.609C358.002 205.609 358.875 206.483 358.875 207.625C358.875 208.767 358.002 209.641 356.859 209.641C355.717 209.641 354.844 208.767 354.844 207.625ZM356.188 207.625C356.188 208.028 356.456 208.297 356.859 208.297C357.263 208.297 357.531 208.028 357.531 207.625C357.531 207.222 357.263 206.953 356.859 206.953C356.456 206.953 356.188 207.222 356.188 207.625Z" fill="#0F9696"/>
<path fill-rule="evenodd" clip-rule="evenodd" d="M361.562 207.625C361.562 206.483 362.436 205.609 363.578 205.609C364.72 205.609 365.594 206.483 365.594 207.625C365.594 208.767 364.72 209.641 363.578 209.641C362.436 209.641 361.562 208.767 361.562 207.625ZM362.906 207.625C362.906 208.028 363.175 208.297 363.578 208.297C363.981 208.297 364.25 208.028 364.25 207.625C364.25 207.222 363.981 206.953 363.578 206.953C363.175 206.953 362.906 207.222 362.906 207.625Z" fill="#0F9696"/>
<path fill-rule="evenodd" clip-rule="evenodd" d="M368.281 207.625C368.281 206.483 369.155 205.609 370.297 205.609C371.439 205.609 372.312 206.483 372.312 207.625C372.312 208.767 371.439 209.641 370.297 209.641C369.155 209.641 368.281 208.767 368.281 207.625ZM369.625 207.625C369.625 208.028 369.894 208.297 370.297 208.297C370.7 208.297 370.969 208.028 370.969 207.625C370.969 207.222 370.7 206.953 370.297 206.953C369.894 206.953 369.625 207.222 369.625 207.625Z" fill="#0F9696"/>
<path fill-rule="evenodd" clip-rule="evenodd" d="M335.359 201.578H371.641C373.522 201.578 375 203.056 375 204.938V209.641C375 211.522 373.522 213 371.641 213H335.359C333.478 213 332 211.522 332 209.641V204.938C332 203.056 333.478 201.578 335.359 201.578ZM371.641 211.656C372.783 211.656 373.656 210.783 373.656 209.641V204.938C373.656 203.795 372.783 202.922 371.641 202.922H335.359C334.217 202.922 333.344 203.795 333.344 204.938V209.641C333.344 210.783 334.217 211.656 335.359 211.656H371.641Z" fill="#0F9696"/>
<path fill-rule="evenodd" clip-rule="evenodd" d="M350.141 192.172C350.141 190.559 348.998 189.216 347.453 188.88V186.797C347.453 186.394 347.184 186.125 346.781 186.125H337.375C336.972 186.125 336.703 186.394 336.703 186.797V188.812C334.822 188.812 333.344 190.291 333.344 192.172V200.234H350.141V192.172ZM338.047 187.469H346.109V188.812H338.047V187.469ZM336.703 194.188H334.688V196.203H336.703V194.188ZM348.797 196.203H346.781V194.188H348.797V196.203ZM345.438 192.844H348.797V192.172C348.797 191.298 348.259 190.559 347.453 190.291V191.5C347.453 191.903 347.184 192.172 346.781 192.172C346.378 192.172 346.109 191.903 346.109 191.5V190.156H338.047V191.5C338.047 191.903 337.778 192.172 337.375 192.172C336.972 192.172 336.703 191.903 336.703 191.5V190.156C335.561 190.156 334.688 191.03 334.688 192.172V192.844H338.047V197.547H334.688V198.891H348.797V197.547H345.438V192.844Z" fill="#0F9696"/>
<path d="M336.703 182.766H338.719C339.122 182.766 339.391 182.497 339.391 182.094C339.391 181.691 339.122 181.422 338.719 181.422H336.703C336.3 181.422 336.031 181.691 336.031 182.094C336.031 182.497 336.3 182.766 336.703 182.766Z" fill="#0F9696"/>
<path d="M350.141 174.031H352.156C352.559 174.031 352.828 173.762 352.828 173.359C352.828 172.956 352.559 172.688 352.156 172.688H350.141C349.738 172.688 349.469 172.956 349.469 173.359C349.469 173.762 349.738 174.031 350.141 174.031Z" fill="#0F9696"/>
<path fill-rule="evenodd" clip-rule="evenodd" d="M0.100098 197.32H8.4401C8.0801 196.58 7.6601 195.88 7.1601 195.2L9.1401 194.46C9.6601 195.26 10.1601 196.22 10.6001 197.32H17.9801V199.34H7.6201C7.5801 200.1 7.5401 201.08 7.4601 202.3H15.7001C15.6201 206.74 15.4201 209.52 15.1001 210.6C14.6401 212.16 13.6201 212.94 12.0601 212.98C11.4001 212.98 10.6401 212.94 9.7601 212.88L9.1401 210.98C10.2001 211.04 11.1001 211.08 11.8401 211.08C12.6201 211.04 13.1201 210.46 13.3601 209.34C13.4801 208.72 13.5401 207.04 13.5801 204.28H7.2201C6.9401 205.8 6.4601 207.18 5.7601 208.44C4.7801 210.18 3.4001 211.78 1.6201 213.22L0.100098 211.74C2.2201 209.98 3.6201 208.34 4.3001 206.84C4.9601 205.34 5.3401 203.64 5.4401 201.76C5.4801 200.76 5.5201 199.96 5.5401 199.34H0.100098V197.32ZM33.3201 194.62H35.4401V197.58H40.3601V199.6H35.4401V202.7H40.8801V204.74H34.4001C33.3201 207.3 32.3401 209.2 31.5001 210.44C33.5801 210.2 35.6601 209.86 37.7201 209.44C37.2201 208.4 36.7201 207.46 36.2001 206.58L38.2201 205.9C39.3801 207.9 40.4001 210.02 41.2801 212.3L39.3001 213.18C39.0401 212.5 38.7801 211.86 38.5401 211.26C35.5601 211.86 32.3401 212.32 28.8601 212.66L28.4001 210.84C28.6001 210.78 28.7401 210.72 28.8401 210.66C29.6801 209.9 30.8001 207.94 32.1601 204.74H27.8401V202.7H33.3201V199.6H28.8001V197.58H33.3201V194.62ZM24.8001 194.74C26.0801 195.74 27.1601 196.72 28.0601 197.7L26.5801 199.2C25.8201 198.26 24.7201 197.26 23.3001 196.18L24.8001 194.74ZM24.3001 199.42C25.4801 200.42 26.4801 201.42 27.3201 202.42L25.8201 203.9C25.1201 202.98 24.1201 201.96 22.8201 200.86L24.3001 199.42ZM26.1001 205.08L28.0001 205.86C27.1401 208.36 26.1801 210.72 25.1401 212.92L23.0401 212C24.2201 209.76 25.2401 207.44 26.1001 205.08Z" fill="#009190"/>
<path fill-rule="evenodd" clip-rule="evenodd" d="M85.3086 207.513C85.3086 206.23 86.3566 205.186 87.6446 205.186C88.9327 205.186 89.9806 206.23 89.9806 207.513C89.9806 208.796 88.9327 209.84 87.6446 209.84C86.3565 209.84 85.3086 208.796 85.3086 207.513ZM86.693 207.513C86.693 208.036 87.1199 208.461 87.6445 208.461C88.1692 208.461 88.5961 208.036 88.5961 207.513C88.5961 206.99 88.1692 206.565 87.6445 206.565C87.1199 206.565 86.693 206.99 86.693 207.513Z" fill="#0F9696"/>
<path fill-rule="evenodd" clip-rule="evenodd" d="M91.9003 202.98C93.1707 204.122 93.8946 205.689 93.9387 207.392C93.9826 209.096 93.3407 210.698 92.131 211.903C90.9606 213.069 89.4155 213.706 87.7665 213.706C87.719 213.706 87.6714 213.705 87.6238 213.704C85.9214 213.666 84.351 212.956 83.2019 211.704L72.8 200.374C72.542 200.093 72.5616 199.657 72.8436 199.4C73.1257 199.143 73.5634 199.162 73.8216 199.443L84.2236 210.774C85.1152 211.745 86.3338 212.296 87.6547 212.326C88.9731 212.354 90.2178 211.859 91.152 210.928C92.0908 209.993 92.5889 208.75 92.5548 207.428C92.5206 206.106 91.9589 204.89 90.9731 204.004L76.9832 191.435L76.1553 192.26L76.8359 192.938C77.3173 193.418 77.5823 194.055 77.5823 194.733C77.5823 195.411 77.3173 196.049 76.8359 196.529L75.237 198.121C75.0429 198.314 74.7529 198.375 74.4969 198.276C73.113 197.741 71.5414 198.07 70.4926 199.115C69.4441 200.159 69.1138 201.725 69.651 203.103C69.7504 203.358 69.6892 203.647 69.4953 203.841L61.0195 212.283C59.908 213.39 58.4301 214 56.8582 214C55.2863 214 53.8085 213.39 52.6968 212.283C50.4023 209.997 50.4023 206.279 52.6968 203.993L61.1726 195.55C61.3667 195.357 61.6569 195.296 61.9127 195.395C63.2967 195.93 64.8682 195.601 65.9168 194.557C66.1971 194.277 66.4244 193.96 66.5992 193.62L62.9616 189.658C59.1824 190.874 54.9932 189.884 52.1705 187.072C49.2065 184.12 48.2619 179.691 49.7643 175.789C49.8483 175.571 50.0373 175.41 50.2666 175.361C50.496 175.313 50.7343 175.383 50.9001 175.548L56.3348 180.962C56.4957 181.122 56.7095 181.21 56.9369 181.21C57.1642 181.21 57.378 181.122 57.5388 180.962L61.0681 177.446C61.229 177.286 61.3176 177.073 61.3176 176.846C61.3176 176.62 61.2289 176.407 61.0681 176.247L55.6335 170.833C55.4677 170.668 55.3972 170.431 55.4459 170.202C55.4946 169.974 55.6562 169.786 55.8751 169.702C59.7926 168.205 64.2389 169.146 67.2029 172.099C70.0965 174.981 71.0625 179.236 69.7286 183.061L74.4335 187.288L78.7565 182.982C79.0269 182.713 79.4651 182.713 79.7355 182.982C80.0059 183.251 80.0059 183.688 79.7355 183.957L73.7774 189.892L75.1762 191.285L88.8262 177.688L87.4274 176.295L82.0899 181.612C81.8195 181.881 81.3813 181.881 81.1109 181.612C80.8405 181.342 80.8405 180.906 81.1109 180.637L86.9273 174.843C86.9516 174.761 86.9832 174.681 87.0243 174.603L88.4328 171.946C88.6275 171.578 88.9756 171.332 89.3878 171.27C89.8004 171.208 90.2056 171.341 90.5005 171.634L93.5051 174.627C93.7999 174.921 93.9332 175.325 93.8709 175.736C93.8087 176.146 93.5615 176.493 93.1928 176.687L90.5243 178.09C90.4471 178.13 90.3671 178.16 90.2861 178.184L77.9633 190.459L91.9003 202.98ZM89.6032 172.691L88.278 175.192L89.9337 176.841L92.4443 175.521L89.6032 172.691ZM63.6758 188.392C63.4852 188.185 63.1875 188.113 62.923 188.211C59.538 189.469 55.7014 188.639 53.1494 186.097C50.8321 183.789 49.9342 180.443 50.7254 177.325L55.3558 181.937C55.7781 182.358 56.3396 182.589 56.9368 182.589C57.5339 182.589 58.0954 182.358 58.5177 181.937L62.047 178.421C62.4693 178.001 62.7018 177.441 62.7018 176.847C62.7018 176.252 62.4693 175.692 62.047 175.272L57.4168 170.659C60.5469 169.871 63.9067 170.766 66.2239 173.074C68.8409 175.68 69.645 179.578 68.2729 183.004C68.1655 183.271 68.237 183.578 68.4522 183.771L73.4533 188.264L72.7984 188.917L72.1178 188.239C71.6364 187.759 70.9963 187.495 70.3155 187.495C69.6348 187.495 68.9946 187.759 68.5132 188.239L66.9144 189.831C66.7205 190.024 66.6593 190.314 66.7587 190.568C66.9428 191.041 67.0227 191.535 67.009 192.023L63.6758 188.392ZM74.5612 196.844L75.8567 195.553C76.3108 195.101 76.3108 194.365 75.8567 193.913L74.6866 192.748L72.3089 190.379L71.1389 189.214C70.685 188.761 69.9462 188.761 69.4923 189.214L68.1967 190.504C68.7105 192.279 68.2231 194.21 66.8961 195.532C65.5688 196.854 63.6304 197.34 61.8486 196.828L53.6761 204.968C51.9214 206.716 51.9214 209.56 53.6761 211.308C54.526 212.155 55.6563 212.621 56.8583 212.621C58.0604 212.621 59.1905 212.155 60.0405 211.308L68.2131 203.167C67.6993 201.392 68.1866 199.461 69.5136 198.14H69.5137C70.8409 196.818 72.7796 196.332 74.5612 196.844Z" fill="#0F9696"/>
<path d="M63.2349 199.432C62.9645 199.163 62.5263 199.163 62.2558 199.432L55.6984 205.964C55.428 206.233 55.428 206.67 55.6984 206.939C55.8335 207.074 56.0108 207.141 56.1879 207.141C56.365 207.141 56.5423 207.074 56.6774 206.939L63.2349 200.407C63.5052 200.138 63.5052 199.701 63.2349 199.432Z" fill="#0F9696"/>
<path d="M65.6578 201.845C65.3874 201.576 64.9491 201.576 64.6787 201.845L58.1212 208.377C57.8509 208.647 57.8509 209.083 58.1212 209.352C58.2564 209.487 58.4336 209.554 58.6108 209.554C58.7878 209.554 58.9651 209.487 59.1003 209.352L65.6578 202.821C65.9281 202.551 65.9281 202.115 65.6578 201.845Z" fill="#0F9696"/>
<path fill-rule="evenodd" clip-rule="evenodd" d="M131.341 53.6819H129.182V44.6214C129.613 44.2421 129.886 43.6867 129.886 43.0684C129.886 41.9279 128.959 41.0001 127.818 41.0001H123.506L122.84 30.3455C122.818 29.9981 122.53 29.7275 122.182 29.7275H119.364C119.016 29.7275 118.727 29.9981 118.706 30.3455L118.04 41.0001H116.46L115.794 30.3455C115.772 29.9981 115.484 29.7275 115.136 29.7275H112.318C111.97 29.7275 111.682 29.9981 111.66 30.3455L110.994 41.0001H109.415L108.749 30.3455C108.727 29.9981 108.439 29.7275 108.091 29.7275H105.273C104.925 29.7275 104.637 29.9981 104.615 30.3455L103.949 41.0001H102.113L101.705 22.622C101.697 22.2638 101.404 21.9775 101.046 21.9775H96.8183C96.46 21.9775 96.1673 22.2638 96.1593 22.622L95.6883 43.8184H90.4773C89.3368 43.8184 88.4091 44.7462 88.4091 45.8866C88.4091 46.5049 88.6821 47.0603 89.1136 47.4396V53.6819H87.6592C87.2951 53.6819 87 53.977 87 54.3411C87 54.7051 87.2951 55.0002 87.6592 55.0002H131.341C131.705 55.0002 132 54.7051 132 54.3411C132 53.977 131.705 53.6819 131.341 53.6819ZM95.6255 46.6366H93.2958C92.9317 46.6366 92.6366 46.9317 92.6366 47.2958C92.6366 47.6598 92.9317 47.9549 93.2958 47.9549H95.5962L95.469 53.6819H90.432V47.9537L90.4481 47.9542L90.4483 47.9542C90.4579 47.9545 90.4676 47.9548 90.4773 47.9548C90.8413 47.9548 91.1365 47.6597 91.1365 47.2957C91.1365 46.9316 90.8413 46.6365 90.4773 46.6365C90.0638 46.6365 89.7274 46.3 89.7274 45.8866C89.7274 45.4731 90.0639 45.1367 90.4773 45.1367H95.6588L95.6255 46.6366ZM121.562 31.0458H119.983L119.361 41.0001H122.185L121.562 31.0458ZM112.937 31.0458H114.517L115.139 41.0001H112.315L112.937 31.0458ZM107.472 31.0458H105.892L105.27 41.0001H108.094L107.472 31.0458ZM98.2728 53.6819H96.7878L97.4629 23.2958H100.401L100.794 41.0001H99.6365C98.496 41.0001 97.5681 41.928 97.5681 43.0684C97.5681 43.6867 97.8412 44.2421 98.2728 44.6214V53.6819ZM126.409 43.8183H127.818C128.232 43.8183 128.568 43.4819 128.568 43.0684C128.568 42.6549 128.232 42.3185 127.818 42.3185H99.6364C99.2229 42.3185 98.8864 42.655 98.8864 43.0684C98.8864 43.4818 99.2229 43.8183 99.6364 43.8183H123.591C123.955 43.8183 124.251 44.1134 124.251 44.4775C124.251 44.8415 123.955 45.1366 123.591 45.1366H99.6364C99.6266 45.1366 99.6169 45.1363 99.6072 45.136C99.6018 45.1358 99.5964 45.1356 99.591 45.1355V53.6819H127.864V45.1355C127.853 45.1357 127.842 45.1362 127.832 45.1364C127.827 45.1366 127.823 45.1366 127.818 45.1366H126.409C126.045 45.1366 125.75 44.8415 125.75 44.4775C125.75 44.1134 126.045 43.8183 126.409 43.8183Z" fill="#0F9696"/>
<path d="M123.591 10C121.605 10 119.712 10.693 118.198 11.9629C117.112 11.1477 115.795 10.7045 114.432 10.7045C112.776 10.7045 111.196 11.358 110.022 12.5133C109.413 12.2508 108.755 12.1136 108.091 12.1136C106.131 12.1136 104.384 13.287 103.617 15.0432C103.353 14.9691 103.082 14.9317 102.807 14.9317C101.445 14.9317 100.274 15.8172 99.8558 17.0576C99.7829 17.0495 99.7096 17.0454 99.6362 17.0454C98.4957 17.0454 97.5679 17.9733 97.5679 19.1136C97.568 19.4778 97.8631 19.7729 98.2271 19.7729C98.5912 19.7729 98.8863 19.4778 98.8863 19.1137C98.8863 18.7002 99.2228 18.3638 99.6363 18.3638C99.7671 18.3638 99.8953 18.4008 100.017 18.4739C100.215 18.5921 100.46 18.5986 100.663 18.4913C100.867 18.3839 101 18.178 101.014 17.9482C101.071 16.9961 101.859 16.2503 102.807 16.2503C103.106 16.2503 103.402 16.3312 103.685 16.4909C103.863 16.591 104.077 16.6031 104.265 16.5238C104.453 16.4444 104.594 16.2825 104.646 16.0853C105.06 14.5231 106.476 13.432 108.091 13.432C108.702 13.432 109.308 13.592 109.843 13.8945C110.116 14.0492 110.461 13.9895 110.667 13.7517C111.615 12.6531 112.988 12.023 114.432 12.023C115.666 12.023 116.853 12.4838 117.773 13.3204C118.03 13.5539 118.424 13.5481 118.674 13.3072C120.005 12.0246 121.751 11.3184 123.591 11.3184C127.501 11.3184 130.681 14.4993 130.681 18.4091C130.681 22.3189 127.501 25.4999 123.591 25.4999C120.995 25.4999 118.609 24.0825 117.363 21.801C117.197 21.4967 116.823 21.3731 116.509 21.5182C115.848 21.8227 115.149 21.9771 114.432 21.9771C112.988 21.9771 111.616 21.347 110.667 20.2484C110.461 20.0107 110.117 19.9509 109.843 20.1056C109.308 20.4081 108.702 20.5681 108.091 20.5681C106.977 20.5681 105.946 20.058 105.263 19.1687C105.139 19.0073 104.947 18.9122 104.743 18.9111C104.742 18.9111 104.741 18.9111 104.74 18.9111C104.538 18.9111 104.346 19.0042 104.221 19.1636C103.873 19.6084 103.357 19.8634 102.807 19.8634C102.443 19.8634 102.148 20.1586 102.148 20.5226C102.148 20.8867 102.443 21.1818 102.807 21.1818C103.505 21.1818 104.17 20.9484 104.711 20.5249C105.616 21.3975 106.813 21.8863 108.091 21.8863C108.755 21.8863 109.413 21.7491 110.022 21.4867C111.196 22.642 112.777 23.2955 114.432 23.2955C115.142 23.2955 115.838 23.1762 116.506 22.9404C118.047 25.3464 120.71 26.8182 123.591 26.8182C128.228 26.8182 132 23.0459 132 18.4091C132 13.7724 128.228 10 123.591 10Z" fill="#0F9696"/>
<path d="M103.864 46.6362C103.5 46.6362 103.205 46.9314 103.205 47.2954V48.7045C103.205 49.0685 103.5 49.3637 103.864 49.3637C104.228 49.3637 104.523 49.0685 104.523 48.7045V47.2954C104.523 46.9314 104.228 46.6362 103.864 46.6362Z" fill="#0F9696"/>
<path d="M106.682 46.6362C106.318 46.6362 106.022 46.9314 106.022 47.2954V48.7045C106.022 49.0685 106.318 49.3637 106.682 49.3637C107.046 49.3637 107.341 49.0685 107.341 48.7045V47.2954C107.341 46.9314 107.046 46.6362 106.682 46.6362Z" fill="#0F9696"/>
<path d="M109.5 46.6362C109.136 46.6362 108.841 46.9314 108.841 47.2954V48.7045C108.841 49.0685 109.136 49.3637 109.5 49.3637C109.864 49.3637 110.159 49.0685 110.159 48.7045V47.2954C110.159 46.9314 109.864 46.6362 109.5 46.6362Z" fill="#0F9696"/>
<path d="M112.318 46.6362C111.954 46.6362 111.659 46.9314 111.659 47.2954V48.7045C111.659 49.0685 111.954 49.3637 112.318 49.3637C112.682 49.3637 112.978 49.0685 112.978 48.7045V47.2954C112.978 46.9314 112.682 46.6362 112.318 46.6362Z" fill="#0F9696"/>
<path d="M115.136 46.6362C114.772 46.6362 114.477 46.9314 114.477 47.2954V48.7045C114.477 49.0685 114.772 49.3637 115.136 49.3637C115.5 49.3637 115.795 49.0685 115.795 48.7045V47.2954C115.795 46.9314 115.5 46.6362 115.136 46.6362Z" fill="#0F9696"/>
<path d="M117.955 46.6362C117.591 46.6362 117.295 46.9314 117.295 47.2954V48.7045C117.295 49.0685 117.591 49.3637 117.955 49.3637C118.319 49.3637 118.614 49.0685 118.614 48.7045V47.2954C118.614 46.9314 118.319 46.6362 117.955 46.6362Z" fill="#0F9696"/>
<path d="M120.772 46.6362C120.408 46.6362 120.113 46.9314 120.113 47.2954V48.7045C120.113 49.0685 120.408 49.3637 120.772 49.3637C121.137 49.3637 121.432 49.0685 121.432 48.7045V47.2954C121.432 46.9314 121.137 46.6362 120.772 46.6362Z" fill="#0F9696"/>
<path d="M123.591 46.6362C123.227 46.6362 122.932 46.9314 122.932 47.2954V48.7045C122.932 49.0685 123.227 49.3637 123.591 49.3637C123.955 49.3637 124.25 49.0685 124.25 48.7045V47.2954C124.25 46.9314 123.955 46.6362 123.591 46.6362Z" fill="#0F9696"/>
<path d="M53.7802 42.9599L52.3402 43.8599V41.5399C52.6202 40.8199 52.8802 40.0999 53.1202 39.3399H56.6202V37.3399H46.2602V39.3399H51.1202C50.0002 42.6999 48.0602 45.5799 45.3202 47.9799L46.6002 49.6399C48.0202 48.3599 49.2602 46.9199 50.3002 45.3599V55.0599H52.3402V44.2199C53.7402 46.1199 54.8602 47.8599 55.7002 49.4199L57.4602 48.1999C56.5802 46.7199 55.3602 44.9599 53.7802 42.9599ZM39.2802 43.6399V45.6199H41.2802V50.1199C40.4202 50.3199 39.5602 50.4999 38.6802 50.6399L39.2002 52.6399C41.5002 52.1199 43.6802 51.4799 45.7202 50.7199V48.7199C44.9202 49.0199 44.1202 49.2999 43.3202 49.5599V45.6199H45.3802V43.6399H43.3202V39.9199H45.6602V37.9199H38.9802V39.9199H41.2802V43.6399H39.2802Z" fill="#0F9696"/>
<path d="M68.4002 37.9199V39.6399H70.0402C70.2402 40.1399 70.4402 40.6799 70.6202 41.2399H67.8002V42.9799H79.9602V41.2399H76.8202C77.0402 40.7199 77.2402 40.1999 77.4002 39.6399H79.3802V37.9199H74.7602C74.6202 37.3599 74.4802 36.8399 74.3202 36.3799L72.1002 36.7399C72.2602 37.0999 72.4402 37.4999 72.6002 37.9199H68.4002ZM74.8202 41.2399H72.6002C72.4402 40.6799 72.2602 40.1399 72.1002 39.6399H75.4802C75.3202 40.1799 75.1002 40.7199 74.8202 41.2399ZM68.8802 43.7599V50.4799H70.7602C70.5402 51.1199 70.1802 51.6399 69.6802 52.0399C68.9802 52.5799 67.8402 52.9999 66.2602 53.2799L67.0402 55.1599C69.0202 54.6799 70.4202 54.0599 71.2602 53.2599C71.9802 52.5399 72.4602 51.5999 72.7202 50.4799H74.3202V52.9199C74.3202 54.1999 74.9402 54.8399 76.1802 54.8399H78.3202C78.9602 54.8399 79.4402 54.6999 79.7602 54.4199C80.0802 54.1399 80.3002 53.2199 80.4402 51.6799L78.5602 51.0999C78.5202 52.0599 78.4602 52.6199 78.3602 52.7999C78.2602 52.9599 78.1402 53.0599 77.9802 53.0599H76.7202C76.4802 53.0599 76.3602 52.8599 76.3602 52.4999V50.4799H78.7602V43.7599H68.8802ZM76.8402 48.7999H70.7802V47.8199H76.8402V48.7999ZM70.7802 46.3999V45.3999H76.8402V46.3999H70.7802ZM67.9202 48.3599C67.2002 48.6999 66.4602 48.9999 65.7402 49.2799V43.2599H67.2402V41.2399H65.7402V36.6599H63.6402V41.2399H61.7802V43.2599H63.6402V49.9599C63.0002 50.1399 62.3602 50.2999 61.7202 50.4199L62.2802 52.7199C64.2802 52.0999 66.1602 51.3599 67.9202 50.4799V48.3599Z" fill="#0F9696"/>
<path d="M388.08 197.26V199.28H390.72C390.06 201.52 389.04 203.5 387.64 205.22L388.54 207.5C389.44 206.1 390.2 204.58 390.82 202.94V212H392.9V202.16C393.32 202.86 393.8 203.72 394.36 204.72L395.58 202.88C394.68 201.84 393.78 200.88 392.9 200.02V199.28H395.14V197.26H392.9V193.58H390.82V197.26H388.08ZM393.9 210.72L395.62 212.24C396.56 210.76 397.2 209.2 397.54 207.6C397.9 206 398.08 204.08 398.08 201.82V196.16H400.92V209.62C400.92 210.94 401.68 211.62 403.22 211.62H404.12C404.82 211.62 405.34 211.48 405.66 211.22C405.98 210.9 406.18 210.38 406.26 209.62C406.34 208.86 406.4 207.7 406.4 206.18L404.48 205.58C404.48 207.7 404.44 208.92 404.36 209.2C404.32 209.34 404.28 209.46 404.2 209.54C404.12 209.62 404 209.66 403.84 209.66H403.24C403.1 209.66 403.04 209.56 403.04 209.38V194.2H396V201.82C396 204.08 395.86 205.78 395.6 206.92C395.28 208.24 394.7 209.52 393.9 210.72Z" fill="#0F9696"/>
<path d="M412.62 194.2V199.52H419.16V194.2H412.62ZM417.28 197.8H414.5V195.96H417.28V197.8ZM420.88 194.2V199.52H424.8L423.46 199.96C423.7 200.28 423.92 200.62 424.16 201H419.98C420.18 200.64 420.36 200.26 420.52 199.88L418.54 199.66C418.34 200.1 418.08 200.56 417.76 201H411.1V202.84H415.82C414.54 203.72 412.86 204.46 410.74 205.06L411.7 206.78C412.1 206.66 412.48 206.52 412.88 206.38V212.1H414.7V211.34H417.4V212.1H419.24V205.46H415.04C416.48 204.74 417.68 203.86 418.64 202.84H421.84C422.68 203.8 423.82 204.68 425.3 205.46H420.74V212.1H422.58V211.34H425.62V212.1H427.46V206.44C427.74 206.56 428.08 206.68 428.44 206.8L429.28 205.02C427.1 204.46 425.4 203.74 424.18 202.84H428.9V201H426.2C425.94 200.48 425.64 200 425.32 199.52H427.62V194.2H420.88ZM425.74 197.8H422.76V195.96H425.74V197.8ZM414.7 209.58V207.18H417.4V209.58H414.7ZM422.58 209.58V207.18H425.62V209.58H422.58Z" fill="#0F9696"/>
<path d="M354.98 36.6001H352.86C352.86 37.3601 352.84 38.4001 352.84 39.7401C352.68 45.4801 349.94 49.9601 344.58 53.1601L345.86 55.0401C350.02 52.3601 352.76 48.9801 354.08 44.9001C355.62 49.1201 358.26 52.4801 362 55.0001L363.4 53.1601C358.86 50.3801 356 46.3601 354.84 41.1001C354.92 39.8601 354.98 38.3601 354.98 36.6001Z" fill="#0F9696"/>
<path d="M382.96 43.7001H369.06V51.6401H371.14V45.6001H380.88V51.3201H382.96V43.7001ZM370.24 37.1201V42.5801H381.78V37.1201H370.24ZM379.76 40.7801H372.26V38.9601H379.76V40.7801ZM375.12 46.5401C374.98 48.9001 374.46 50.5801 373.56 51.5401C372.52 52.5401 370.4 53.1201 367.2 53.2801L368.02 55.1801C371.94 54.8201 374.38 54.0001 375.38 52.7601C376.34 51.7801 376.96 49.7801 377.24 46.7401L375.12 46.5401ZM377.64 51.0201L376.6 52.5601C379 53.2001 381.34 54.0801 383.62 55.2001L384.74 53.4601C382.58 52.5001 380.22 51.7001 377.64 51.0201Z" fill="#0F9696"/>
<defs>
<linearGradient id="paint0_linear" x1="164" y1="107.362" x2="164" y2="193" gradientUnits="userSpaceOnUse">
<stop stop-color="#4BC8C8"/>
<stop offset="1" stop-color="#0F9696"/>
</linearGradient>
<linearGradient id="paint1_linear" x1="210.551" y1="107.362" x2="210.551" y2="193" gradientUnits="userSpaceOnUse">
<stop stop-color="#4BC8C8"/>
<stop offset="1" stop-color="#0F9696"/>
</linearGradient>
</defs>
</svg>
