<svg width="429" height="343" viewBox="0 0 429 343" fill="none" xmlns="http://www.w3.org/2000/svg">
<path fill-rule="evenodd" clip-rule="evenodd" d="M212.181 1.5C190.209 1.5 169.349 6.24505 150.576 14.763L150.163 13.8523C169.064 5.27666 190.064 0.5 212.181 0.5C232.92 0.5 252.676 4.69969 270.641 12.2932L270.251 13.2143C252.408 5.67194 232.784 1.5 212.181 1.5ZM360.741 139.879C359.06 114.889 351.178 91.594 338.615 71.5089L339.463 70.9786C352.11 91.1995 360.047 114.653 361.739 139.812C361.965 143.167 362.079 146.552 362.079 149.963H361.079C361.079 146.574 360.965 143.211 360.741 139.879ZM81.8686 78.0808C71.6627 96.4354 65.2442 117.173 63.6652 139.246C63.412 142.786 63.2832 146.359 63.2832 149.963H62.2832C62.2832 146.335 62.4128 142.738 62.6677 139.175C64.2574 116.953 70.7195 96.0739 80.9946 77.5948L81.8686 78.0808ZM270.357 286.667C295.989 275.809 317.942 257.993 333.83 235.596L334.645 236.174C318.651 258.721 296.552 276.657 270.747 287.588L270.357 286.667ZM92.5295 238.344C107.81 258.877 128.282 275.34 152.008 285.804L151.604 286.719C127.718 276.184 107.11 259.611 91.7273 238.941L92.5295 238.344Z" fill="#4BC8C8"/>
<path fill-rule="evenodd" clip-rule="evenodd" d="M210.745 80.5631C173.176 80.5631 142.714 111.163 142.714 148.917C142.714 186.667 173.176 217.269 210.745 217.269C248.317 217.269 278.778 186.667 278.778 148.917C278.778 111.164 248.317 80.5631 210.745 80.5631ZM141.814 148.917C141.814 110.67 172.675 79.6631 210.745 79.6631C248.818 79.6631 279.678 110.67 279.678 148.917C279.678 187.16 248.818 218.169 210.745 218.169C172.675 218.169 141.814 187.16 141.814 148.917Z" fill="#009190"/>
<path fill-rule="evenodd" clip-rule="evenodd" d="M210.746 93.3203C180.188 93.3203 155.413 118.211 155.413 148.917C155.413 179.622 180.188 204.512 210.746 204.512C241.305 204.512 266.08 179.622 266.08 148.917C266.08 118.211 241.305 93.3203 210.746 93.3203ZM154.663 148.917C154.663 117.8 179.77 92.5703 210.746 92.5703C241.723 92.5703 266.83 117.8 266.83 148.917C266.83 180.033 241.723 205.262 210.746 205.262C179.77 205.262 154.663 180.033 154.663 148.917Z" fill="#009190"/>
<path fill-rule="evenodd" clip-rule="evenodd" d="M239.915 251.231C239.915 254.526 237.26 257.196 233.98 257.196C230.704 257.196 228.045 254.526 228.045 251.231C228.045 247.941 230.704 245.267 233.98 245.267C237.26 245.267 239.915 247.941 239.915 251.231Z" fill="#009190"/>
<path fill-rule="evenodd" clip-rule="evenodd" d="M266.481 56.6716C266.481 59.9663 263.826 62.6362 260.546 62.6362C257.267 62.6362 254.611 59.9663 254.611 56.6716C254.611 53.3816 257.267 50.707 260.546 50.707C263.826 50.707 266.481 53.3816 266.481 56.6716Z" fill="#009190"/>
<path fill-rule="evenodd" clip-rule="evenodd" d="M119.422 188.798C119.422 192.091 116.764 194.761 113.487 194.761C110.208 194.761 107.549 192.091 107.549 188.798C107.549 185.506 110.208 182.833 113.487 182.833C116.764 182.833 119.422 185.506 119.422 188.798Z" fill="#009190"/>
<path fill-rule="evenodd" clip-rule="evenodd" d="M319.327 177.427C319.327 180.722 316.668 183.392 313.389 183.392C310.113 183.392 307.454 180.722 307.454 177.427C307.454 174.137 310.113 171.463 313.389 171.463C316.668 171.463 319.327 174.137 319.327 177.427Z" fill="#009190"/>
<path fill-rule="evenodd" clip-rule="evenodd" d="M137.261 78.7419C137.261 82.0366 134.605 84.7065 131.326 84.7065C128.047 84.7065 125.388 82.0366 125.388 78.7419C125.388 75.4519 128.047 72.7773 131.326 72.7773C134.605 72.7773 137.261 75.4519 137.261 78.7419Z" fill="#009190"/>
<path fill-rule="evenodd" clip-rule="evenodd" d="M210.745 43.752C152.942 43.752 106.079 90.8337 106.079 148.917C106.079 206.999 152.942 254.081 210.745 254.081C268.549 254.081 315.415 206.999 315.415 148.917C315.415 90.8337 268.549 43.752 210.745 43.752ZM105.079 148.917C105.079 90.2859 152.385 42.752 210.745 42.752C269.106 42.752 316.415 90.2858 316.415 148.917C316.415 207.547 269.106 255.081 210.745 255.081C152.385 255.081 105.079 207.547 105.079 148.917Z" fill="#009190"/>
<path fill-rule="evenodd" clip-rule="evenodd" d="M210.745 64.8848C164.558 64.8848 127.111 102.505 127.111 148.917C127.111 195.328 164.558 232.948 210.745 232.948C256.932 232.948 294.379 195.328 294.379 148.917C294.379 102.505 256.932 64.8848 210.745 64.8848ZM126.111 148.917C126.111 101.957 164.001 63.8848 210.745 63.8848C257.489 63.8848 295.379 101.957 295.379 148.917C295.379 195.876 257.489 233.948 210.745 233.948C164.001 233.948 126.111 195.876 126.111 148.917Z" fill="#009190"/>
<path fill-rule="evenodd" clip-rule="evenodd" d="M230.797 81.2917C230.797 84.5864 228.141 87.2563 224.862 87.2563C221.583 87.2563 218.924 84.5864 218.924 81.2917C218.924 78.0017 221.583 75.3271 224.862 75.3271C228.141 75.3271 230.797 78.0017 230.797 81.2917Z" fill="#7EC7C5"/>
<path fill-rule="evenodd" clip-rule="evenodd" d="M162.836 216.542C162.836 219.836 160.18 222.506 156.901 222.506C153.621 222.506 150.962 219.836 150.962 216.542C150.962 213.252 153.621 210.577 156.901 210.577C160.18 210.577 162.836 213.252 162.836 216.542Z" fill="#7EC7C5"/>
<path fill-rule="evenodd" clip-rule="evenodd" d="M264.407 175.942C264.407 179.237 261.751 181.907 258.472 181.907C255.196 181.907 252.537 179.237 252.537 175.942C252.537 172.652 255.196 169.978 258.472 169.978C261.751 169.978 264.407 172.652 264.407 175.942Z" fill="#7EC7C5"/>
<path fill-rule="evenodd" clip-rule="evenodd" d="M152.102 127.505C152.102 130.799 149.446 133.469 146.167 133.469C142.887 133.469 140.229 130.799 140.229 127.505C140.229 124.215 142.887 121.54 146.167 121.54C149.446 121.54 152.102 124.215 152.102 127.505Z" fill="#7EC7C5"/>
<path fill-rule="evenodd" clip-rule="evenodd" d="M232.873 296.229C232.868 296.215 232.866 296.202 232.864 296.188C232.862 296.175 232.86 296.162 232.855 296.148L232.846 296.121C232.842 296.112 232.839 296.103 232.837 296.095L232.837 296.094C232.835 296.086 232.833 296.077 232.828 296.068L232.819 296.059C232.801 296.023 232.792 296.005 232.783 295.978C232.777 295.959 232.767 295.945 232.755 295.929L232.747 295.919C232.744 295.915 232.742 295.911 232.739 295.907L232.73 295.889C232.723 295.882 232.718 295.876 232.713 295.87C232.704 295.859 232.697 295.85 232.685 295.844L232.667 295.826L232.613 295.772L232.605 295.763C232.596 295.755 232.584 295.748 232.573 295.741C232.562 295.734 232.551 295.728 232.542 295.719L232.533 295.71L221.985 289.626V277.441C221.985 277.406 221.985 277.379 221.976 277.361V277.352C221.976 277.331 221.971 277.315 221.964 277.296L221.958 277.28V277.262C221.956 277.256 221.954 277.249 221.952 277.243L221.951 277.243L221.951 277.243C221.945 277.226 221.941 277.213 221.941 277.2L221.932 277.191C221.921 277.17 221.914 277.152 221.908 277.137L221.908 277.137L221.908 277.137C221.903 277.127 221.9 277.118 221.896 277.11C221.887 277.093 221.869 277.066 221.851 277.039L221.851 277.039L221.842 277.021C221.836 277.015 221.831 277.008 221.826 277.002C221.817 276.991 221.809 276.982 221.797 276.976L221.779 276.958C221.762 276.94 221.744 276.923 221.726 276.914L221.717 276.905C221.708 276.896 221.697 276.889 221.686 276.882C221.674 276.876 221.663 276.869 221.654 276.86L221.645 276.851L210.767 270.571C210.561 270.454 210.301 270.454 210.096 270.571L199.199 276.86C199.192 276.865 199.185 276.869 199.179 276.873C199.163 276.883 199.149 276.892 199.136 276.905C199.11 276.923 199.092 276.94 199.074 276.958L199.065 276.976C199.058 276.983 199.053 276.989 199.048 276.995C199.039 277.006 199.032 277.015 199.02 277.021L199.011 277.03C198.996 277.045 198.987 277.059 198.979 277.073L198.979 277.073C198.972 277.084 198.965 277.093 198.957 277.101C198.955 277.107 198.951 277.113 198.947 277.12C198.938 277.136 198.928 277.154 198.922 277.173L198.913 277.191C198.904 277.209 198.895 277.227 198.895 277.245L198.886 277.262C198.881 277.272 198.879 277.284 198.876 277.298C198.874 277.309 198.872 277.322 198.868 277.334V277.343C198.868 277.356 198.866 277.37 198.863 277.383C198.861 277.397 198.859 277.41 198.859 277.424V277.441V289.617L188.302 295.71C188.295 295.715 188.289 295.719 188.283 295.723C188.266 295.733 188.253 295.741 188.24 295.755L188.231 295.763C188.213 295.772 188.195 295.79 188.177 295.808L188.168 295.817C188.15 295.835 188.132 295.853 188.123 295.871L188.114 295.88C188.1 295.895 188.09 295.909 188.082 295.923L188.082 295.923C188.075 295.933 188.069 295.943 188.061 295.951V295.96C188.059 295.965 188.057 295.969 188.054 295.974C188.047 295.99 188.039 296.009 188.025 296.023L188.016 296.041C188.007 296.059 187.998 296.077 187.998 296.094L187.989 296.112C187.985 296.126 187.983 296.137 187.98 296.148C187.978 296.159 187.976 296.171 187.971 296.184V296.193C187.971 296.206 187.969 296.22 187.967 296.233C187.965 296.247 187.962 296.26 187.962 296.273V296.291V308.852C187.962 309.093 188.088 309.317 188.302 309.433L199.199 315.723C199.212 315.727 199.224 315.734 199.235 315.741C199.246 315.747 199.257 315.754 199.271 315.758L199.28 315.767C199.297 315.776 199.324 315.785 199.351 315.794L199.369 315.803C199.387 315.812 199.414 315.812 199.432 315.812H199.449C199.512 315.821 199.548 315.821 199.611 315.812H199.628C199.637 315.812 199.649 315.81 199.66 315.808C199.671 315.805 199.682 315.803 199.691 315.803L199.709 315.794C199.722 315.79 199.734 315.785 199.745 315.781C199.756 315.776 199.767 315.772 199.78 315.767H199.789C199.816 315.758 199.834 315.75 199.861 315.732L199.879 315.723L210.427 309.639L220.983 315.732C220.997 315.736 221.008 315.743 221.019 315.75C221.03 315.756 221.041 315.763 221.055 315.767L221.073 315.776C221.091 315.785 221.109 315.794 221.135 315.794H221.153C221.18 315.803 221.198 315.803 221.216 315.803H221.234C221.296 315.812 221.332 315.812 221.395 315.803H221.413C221.421 315.803 221.429 315.801 221.438 315.799L221.438 315.799C221.448 315.797 221.461 315.794 221.475 315.794L221.493 315.785L221.502 315.782L221.509 315.78C221.516 315.777 221.523 315.774 221.529 315.772C221.54 315.767 221.551 315.763 221.565 315.758H221.574C221.601 315.75 221.618 315.741 221.645 315.723L221.654 315.714L232.533 309.433C232.739 309.317 232.873 309.093 232.873 308.852V296.273C232.882 296.282 232.882 296.256 232.873 296.229ZM225.421 293.178L215.884 298.689L211.778 296.318L221.314 290.807L225.421 293.178ZM211.107 295.155L220.643 289.644V278.631L211.107 284.142V295.155ZM210.427 271.948L214.533 274.319L204.996 279.83L200.89 277.459L210.427 271.948ZM203.645 293.178L199.539 290.807L190.002 296.318L194.109 298.689L203.645 293.178ZM198.859 314L189.331 308.494V297.481L193.563 299.924L193.581 299.95C193.67 300.04 193.786 300.111 193.903 300.138L193.93 300.147L198.859 302.992V314ZM198.859 314L198.868 314.005H198.859V314ZM195.45 299.458L199.539 301.82L209.076 296.309L204.987 293.947L195.45 299.458ZM200.219 314.014V303.001L209.756 297.49V308.503L200.219 314.014ZM209.747 295.141L209.756 295.146H209.747V295.141ZM209.747 295.141L200.219 289.635V278.622L204.45 281.065L204.468 281.092C204.558 281.181 204.674 281.253 204.799 281.279L204.826 281.288L209.747 284.133V295.141ZM206.347 280.608L215.884 275.097L219.963 277.459L210.427 282.97L206.347 280.608ZM220.634 314L220.643 314.005H220.634V314ZM220.634 314L211.107 308.494V297.481L215.338 299.924L215.356 299.95C215.446 300.04 215.553 300.111 215.678 300.138L215.705 300.147L220.634 302.992V314ZM221.314 301.82L217.235 299.458L226.772 293.947L230.86 296.309L221.314 301.82ZM221.994 314.014L231.531 308.503V297.49L221.994 303.001V314.014Z" fill="#0F9696"/>
<path fill-rule="evenodd" clip-rule="evenodd" d="M328.718 48.0986C324.444 45.8322 321.166 44.5613 318.247 44.074L318.549 43.6588C318.693 43.5155 318.764 43.3007 318.693 43.0859L318.021 40.4015C319.796 37.8924 320.841 34.7554 320.841 31.7714V28.907H321.557H322.989C323.419 28.907 323.705 28.6206 323.705 28.1909C323.705 27.7612 323.419 27.4748 322.989 27.4748H322.273V26.7588C322.273 21.1015 318.549 16.3036 312.964 14.7282V14.5848C312.964 13.439 312.033 12.4365 310.815 12.4365H307.951C306.805 12.4365 305.803 13.3674 305.803 14.5848V14.7281C300.217 16.3035 296.493 21.1014 296.493 26.7587V27.4747H295.777C295.347 27.4747 295.061 27.7612 295.061 28.1908C295.061 28.6205 295.347 28.9069 295.777 28.9069H297.209H297.925V31.7713C297.925 34.7553 298.97 37.8923 300.745 40.4015L300.074 43.0859C300.074 43.2291 300.074 43.5155 300.217 43.6588L300.519 44.074C297.601 44.5614 294.322 45.8322 290.048 48.0986C288.688 48.7432 287.9 50.1038 287.9 51.6076V54.6868C287.9 55.1165 288.186 55.4029 288.616 55.4029H305.803H306.089H312.677H312.964H330.15C330.58 55.4029 330.866 55.1165 330.866 54.6868V51.6076C330.866 50.1753 330.007 48.8148 328.718 48.0986ZM308.954 47.4358L309.387 46.4604L310.457 48.8152L311.158 50.3902H307.665L308.954 47.4358ZM311.641 51.8224H307.12L306.691 53.9707H312.05L311.641 51.8224ZM316.902 41.7969L317.189 43.0859L316.457 44.0903C316.41 44.1285 316.367 44.1747 316.329 44.2316L313.351 48.3559L312.406 49.6536L310.475 45.3099C312.783 45.0284 314.843 43.8699 316.506 42.2051L316.525 42.187C316.537 42.1749 316.549 42.1627 316.562 42.1504L316.575 42.1368C316.685 42.0262 316.794 41.913 316.902 41.7969ZM316.206 17.8355C316.128 17.7807 316.049 17.727 315.969 17.6741L315.327 20.815L318.621 20.1705C317.961 19.3126 317.118 18.5157 316.206 17.8355ZM303.439 20.815L300.145 20.1705C300.805 19.3125 301.648 18.5156 302.561 17.8354C302.639 17.7807 302.717 17.727 302.797 17.6741L303.439 20.815ZM299.273 21.4844C298.405 23.0554 297.925 24.8531 297.925 26.7587H297.925V27.4747H298.642H320.125H320.841V26.7587C320.841 24.8296 320.349 23.0108 319.461 21.4259L314.539 22.4621H314.396C314.181 22.4621 314.038 22.3905 313.895 22.2473C313.751 22.104 313.68 21.8176 313.68 21.6028L314.643 16.9144C314.11 16.6546 313.549 16.4325 312.964 16.2507V18.1653C312.964 18.595 312.677 18.8814 312.247 18.8814C311.818 18.8814 311.531 18.595 311.531 18.1653V15.3009V14.5848C311.531 14.1552 311.173 13.8687 310.815 13.8687H307.951C307.521 13.8687 307.235 14.2267 307.235 14.5848V15.301V18.1654C307.235 18.5951 306.948 18.8815 306.519 18.8815C306.089 18.8815 305.803 18.5951 305.803 18.1654V16.2507C305.236 16.4267 304.693 16.6406 304.175 16.8898L305.158 21.6744C305.23 21.8892 305.158 22.1756 304.943 22.3188C304.899 22.3338 304.857 22.3487 304.817 22.363C304.666 22.4172 304.541 22.4621 304.37 22.4621H304.227L299.273 21.4844ZM299.358 28.907H319.409V31.7714C319.409 34.894 318.337 37.6687 316.729 39.7779L316.687 39.7918L316.473 40.0066C316.112 40.487 315.732 40.925 315.335 41.32C313.649 42.8908 311.637 43.8423 309.699 43.9366C309.602 43.8947 309.493 43.8736 309.383 43.8736C309.273 43.8736 309.174 43.8952 309.085 43.9375C307.899 43.8831 306.685 43.5071 305.534 42.8639C304.368 42.1941 303.271 41.2284 302.294 40.0066L302.079 39.7918L302.037 39.7779C300.429 37.6686 299.358 34.8939 299.358 31.7714V28.907H299.358ZM306.361 49.6538L308.291 45.31C305.937 45.0228 303.84 43.8229 302.159 42.1036C302.06 42.0034 301.961 41.9015 301.864 41.797L301.578 43.086L302.363 44.1641C302.389 44.1864 302.414 44.209 302.437 44.2318L305.415 48.356L306.361 49.6538ZM289.332 51.6076C289.332 50.6767 289.833 49.8173 290.693 49.3876C295.257 46.9626 298.543 45.7456 301.47 45.382L305.744 51.2578L305.201 53.9706H289.332V51.6076ZM313.565 53.9708H329.434V51.6076C329.434 50.6767 328.933 49.8173 328.074 49.3161C323.604 46.9748 320.259 45.7587 317.342 45.3186L313.023 51.258L313.565 53.9708Z" fill="#0F9696"/>
<path d="M360.775 199.327H362.119V200.671H360.775V199.327Z" fill="#0F9696"/>
<path d="M356.744 199.327H358.087V200.671H356.744V199.327Z" fill="#0F9696"/>
<path d="M368.166 199.327H369.509V200.671H368.166V199.327Z" fill="#0F9696"/>
<path d="M372.197 199.327H373.541V200.671H372.197V199.327Z" fill="#0F9696"/>
<path fill-rule="evenodd" clip-rule="evenodd" d="M370.181 171.78V178.499H376.9V198.655H357.416H356.744H354.728C354.325 198.655 354.056 198.387 354.056 197.983V179.171C354.056 178.768 354.325 178.499 354.728 178.499H356.744H357.416H360.775V171.78H359.431V170.437H360.775H370.181H371.525V171.78H370.181ZM355.4 197.312H356.744V179.843H355.4V197.312ZM362.119 171.78H368.837V178.499H362.119V171.78ZM358.087 197.312H375.556V179.843H358.087V197.312Z" fill="#0F9696"/>
<path fill-rule="evenodd" clip-rule="evenodd" d="M364.806 189.249H360.775C360.372 189.249 360.103 188.98 360.103 188.577V184.546C360.103 184.143 360.372 183.874 360.775 183.874H364.806C365.209 183.874 365.478 184.143 365.478 184.546V188.577C365.478 188.98 365.209 189.249 364.806 189.249ZM364.134 185.218H361.447V187.905H364.134V185.218Z" fill="#0F9696"/>
<path fill-rule="evenodd" clip-rule="evenodd" d="M368.905 196.102C368.703 196.102 368.569 196.035 368.434 195.9L366.016 193.549C365.747 193.28 365.747 192.877 366.016 192.608L368.703 189.988C368.972 189.719 369.375 189.719 369.644 189.988L371.995 192.339C372.264 192.608 372.264 193.011 371.995 193.28L369.375 195.9C369.241 196.035 369.106 196.102 368.905 196.102ZM370.517 192.81L369.106 191.399L367.494 193.078L368.837 194.489L370.517 192.81Z" fill="#0F9696"/>
<path fill-rule="evenodd" clip-rule="evenodd" d="M373.205 184.882C373.205 186.158 372.13 187.233 370.853 187.233C369.576 187.233 368.501 186.158 368.501 184.882C368.501 183.605 369.576 182.53 370.853 182.53C372.13 182.53 373.205 183.605 373.205 184.882ZM371.861 184.882C371.861 184.344 371.391 183.874 370.853 183.874C370.316 183.874 369.845 184.344 369.845 184.882C369.845 185.419 370.316 185.89 370.853 185.89C371.391 185.89 371.861 185.419 371.861 184.882Z" fill="#0F9696"/>
<path d="M344.381 179.709L345.322 178.768L346.262 179.709L347.203 178.768L346.262 177.828L347.203 176.887L346.262 175.946L345.322 176.887L344.381 175.946L343.44 176.887L344.381 177.828L343.44 178.768L344.381 179.709Z" fill="#0F9696"/>
<path fill-rule="evenodd" clip-rule="evenodd" d="M336.587 208.062C336.587 206.919 337.461 206.046 338.603 206.046C339.745 206.046 340.619 206.919 340.619 208.062C340.619 209.204 339.745 210.077 338.603 210.077C337.461 210.077 336.587 209.204 336.587 208.062ZM337.931 208.062C337.931 208.465 338.2 208.733 338.603 208.733C339.006 208.733 339.275 208.465 339.275 208.062C339.275 207.658 339.006 207.39 338.603 207.39C338.2 207.39 337.931 207.658 337.931 208.062Z" fill="#0F9696"/>
<path fill-rule="evenodd" clip-rule="evenodd" d="M343.306 208.062C343.306 206.919 344.18 206.046 345.322 206.046C346.464 206.046 347.337 206.919 347.337 208.062C347.337 209.204 346.464 210.077 345.322 210.077C344.18 210.077 343.306 209.204 343.306 208.062ZM344.65 208.062C344.65 208.465 344.919 208.733 345.322 208.733C345.725 208.733 345.994 208.465 345.994 208.062C345.994 207.658 345.725 207.39 345.322 207.39C344.919 207.39 344.65 207.658 344.65 208.062Z" fill="#0F9696"/>
<path fill-rule="evenodd" clip-rule="evenodd" d="M350.025 208.062C350.025 206.919 350.898 206.046 352.041 206.046C353.183 206.046 354.056 206.919 354.056 208.062C354.056 209.204 353.183 210.077 352.041 210.077C350.898 210.077 350.025 209.204 350.025 208.062ZM351.369 208.062C351.369 208.465 351.637 208.733 352.041 208.733C352.444 208.733 352.712 208.465 352.712 208.062C352.712 207.658 352.444 207.39 352.041 207.39C351.637 207.39 351.369 207.658 351.369 208.062Z" fill="#0F9696"/>
<path fill-rule="evenodd" clip-rule="evenodd" d="M356.744 208.062C356.744 206.919 357.617 206.046 358.759 206.046C359.901 206.046 360.775 206.919 360.775 208.062C360.775 209.204 359.901 210.077 358.759 210.077C357.617 210.077 356.744 209.204 356.744 208.062ZM358.087 208.062C358.087 208.465 358.356 208.733 358.759 208.733C359.162 208.733 359.431 208.465 359.431 208.062C359.431 207.658 359.162 207.39 358.759 207.39C358.356 207.39 358.087 207.658 358.087 208.062Z" fill="#0F9696"/>
<path fill-rule="evenodd" clip-rule="evenodd" d="M363.462 208.062C363.462 206.919 364.336 206.046 365.478 206.046C366.62 206.046 367.494 206.919 367.494 208.062C367.494 209.204 366.62 210.077 365.478 210.077C364.336 210.077 363.462 209.204 363.462 208.062ZM364.806 208.062C364.806 208.465 365.075 208.733 365.478 208.733C365.881 208.733 366.15 208.465 366.15 208.062C366.15 207.658 365.881 207.39 365.478 207.39C365.075 207.39 364.806 207.658 364.806 208.062Z" fill="#0F9696"/>
<path fill-rule="evenodd" clip-rule="evenodd" d="M370.181 208.062C370.181 206.919 371.055 206.046 372.197 206.046C373.339 206.046 374.212 206.919 374.212 208.062C374.212 209.204 373.339 210.077 372.197 210.077C371.055 210.077 370.181 209.204 370.181 208.062ZM371.525 208.062C371.525 208.465 371.794 208.733 372.197 208.733C372.6 208.733 372.869 208.465 372.869 208.062C372.869 207.658 372.6 207.39 372.197 207.39C371.794 207.39 371.525 207.658 371.525 208.062Z" fill="#0F9696"/>
<path fill-rule="evenodd" clip-rule="evenodd" d="M337.259 202.015H373.541C375.422 202.015 376.9 203.493 376.9 205.374V210.077C376.9 211.958 375.422 213.437 373.541 213.437H337.259C335.378 213.437 333.9 211.958 333.9 210.077V205.374C333.9 203.493 335.378 202.015 337.259 202.015ZM373.541 212.093C374.683 212.093 375.556 211.219 375.556 210.077V205.374C375.556 204.232 374.683 203.358 373.541 203.358H337.259C336.117 203.358 335.244 204.232 335.244 205.374V210.077C335.244 211.219 336.117 212.093 337.259 212.093H373.541Z" fill="#0F9696"/>
<path fill-rule="evenodd" clip-rule="evenodd" d="M352.041 192.608C352.041 190.996 350.898 189.652 349.353 189.316V187.233C349.353 186.83 349.084 186.562 348.681 186.562H339.275C338.872 186.562 338.603 186.83 338.603 187.233V189.249C336.722 189.249 335.244 190.727 335.244 192.608V200.671H352.041V192.608ZM339.947 187.905H348.009V189.249H339.947V187.905ZM338.603 194.624H336.587V196.64H338.603V194.624ZM350.697 196.64H348.681V194.624H350.697V196.64ZM347.337 193.28H350.697V192.608C350.697 191.735 350.159 190.996 349.353 190.727V191.937C349.353 192.34 349.084 192.608 348.681 192.608C348.278 192.608 348.009 192.34 348.009 191.937V190.593H339.947V191.937C339.947 192.34 339.678 192.608 339.275 192.608C338.872 192.608 338.603 192.34 338.603 191.937V190.593C337.461 190.593 336.587 191.466 336.587 192.608V193.28H339.947V197.983H336.587V199.327H350.697V197.983H347.337V193.28Z" fill="#0F9696"/>
<path d="M338.603 183.202H340.619C341.022 183.202 341.291 182.933 341.291 182.53C341.291 182.127 341.022 181.858 340.619 181.858H338.603C338.2 181.858 337.931 182.127 337.931 182.53C337.931 182.933 338.2 183.202 338.603 183.202Z" fill="#0F9696"/>
<path d="M352.041 174.468H354.056C354.459 174.468 354.728 174.199 354.728 173.796C354.728 173.393 354.459 173.124 354.056 173.124H352.041C351.637 173.124 351.369 173.393 351.369 173.796C351.369 174.199 351.637 174.468 352.041 174.468Z" fill="#0F9696"/>
<path fill-rule="evenodd" clip-rule="evenodd" d="M0 198.756H8.34C7.98 198.016 7.56 197.316 7.06 196.636L9.04 195.896C9.56 196.696 10.06 197.656 10.5 198.756H17.88V200.776H7.52C7.48 201.536 7.44 202.516 7.36 203.736H15.6C15.52 208.176 15.32 210.956 15 212.036C14.54 213.596 13.52 214.376 11.96 214.416C11.3 214.416 10.54 214.376 9.66 214.316L9.04 212.416C10.1 212.476 11 212.516 11.74 212.516C12.52 212.476 13.02 211.896 13.26 210.776C13.38 210.156 13.44 208.476 13.48 205.716H7.12C6.84 207.236 6.36 208.616 5.66 209.876C4.68 211.616 3.3 213.216 1.52 214.656L0 213.176C2.12 211.416 3.52 209.776 4.2 208.276C4.86 206.776 5.24 205.076 5.34 203.196C5.38 202.196 5.42 201.396 5.44 200.776H0V198.756ZM33.22 196.056H35.34V199.016H40.26V201.036H35.34V204.136H40.78V206.176H34.3C33.22 208.736 32.24 210.636 31.4 211.876C33.48 211.636 35.56 211.296 37.62 210.876C37.12 209.836 36.62 208.896 36.1 208.016L38.12 207.336C39.28 209.336 40.3 211.456 41.18 213.736L39.2 214.616C38.94 213.936 38.68 213.296 38.44 212.696C35.46 213.296 32.24 213.756 28.76 214.096L28.3 212.276C28.5 212.216 28.64 212.156 28.74 212.096C29.58 211.336 30.7 209.376 32.06 206.176H27.74V204.136H33.22V201.036H28.7V199.016H33.22V196.056ZM24.7 196.176C25.98 197.176 27.06 198.156 27.96 199.136L26.48 200.636C25.72 199.696 24.62 198.696 23.2 197.616L24.7 196.176ZM24.2 200.856C25.38 201.856 26.38 202.856 27.22 203.856L25.72 205.336C25.02 204.416 24.02 203.396 22.72 202.296L24.2 200.856ZM26 206.516L27.9 207.296C27.04 209.796 26.08 212.156 25.04 214.356L22.94 213.436C24.12 211.196 25.14 208.876 26 206.516Z" fill="#009190"/>
<path fill-rule="evenodd" clip-rule="evenodd" d="M198.64 323.956L200.6 324.476C200.4 325.376 200.2 326.216 199.98 327.016H207.54C207.54 333.976 207.44 338.256 207.24 339.856C207 341.576 205.86 342.436 203.82 342.436C203.54 342.436 203.02 342.396 202.3 342.336L201.82 340.476C202.46 340.536 203 340.576 203.48 340.576C204.54 340.576 205.16 340.016 205.32 338.916C205.44 337.976 205.5 334.676 205.54 329.016H204.82C204.4 332.216 203.82 334.776 203.06 336.656C202.14 338.776 200.76 340.696 198.96 342.376L197.66 340.716C199.3 339.236 200.52 337.596 201.34 335.756C202.04 334.056 202.58 331.816 202.96 329.016H201.96C201.12 333.256 199.62 336.376 197.44 338.336L196.1 336.776C198.02 335.136 199.36 332.556 200.1 329.016H199.26C198.76 330.196 198.18 331.196 197.52 331.996L196 330.696C197.24 329.136 198.12 326.876 198.64 323.956ZM191.92 329.976C191.76 330.916 191.58 331.836 191.36 332.716L189.52 332.196C190.06 330.096 190.36 327.876 190.44 325.556L192.3 325.696C192.26 326.456 192.22 327.216 192.16 327.976H193.02V324.036H195.06V327.976H196.42V329.976H195.06V333.976C195.48 333.776 195.9 333.576 196.34 333.376V335.336C195.9 335.536 195.48 335.716 195.06 335.916V342.516H193.02V336.736C192.12 337.056 191.2 337.376 190.26 337.656L189.76 335.636C190.86 335.416 191.94 335.116 193.02 334.756V329.976H191.92ZM214.66 325.656C215 326.856 215.32 328.256 215.6 329.816L214 330.256C213.72 328.856 213.36 327.496 212.94 326.216L214.66 325.656ZM219.08 325.456L220.82 325.696C220.7 327.356 220.44 328.836 220.02 330.116L218.48 329.616C218.8 328.416 219 327.016 219.08 325.456ZM213.2 330.836H216.02V323.996H218.06V330.836H220.66V332.856H218.06V342.456H216.02V332.856H213.2V330.836ZM227.26 324.056H229.28V335.196L230.9 334.956L231.24 336.956L229.28 337.256V342.496H227.26V337.556L221.52 338.416L221.22 336.416L227.26 335.496V324.056ZM223.38 325.416C224.74 326.396 225.9 327.356 226.82 328.316L225.44 329.676C224.64 328.756 223.5 327.776 222.04 326.716L223.38 325.416ZM222.88 330.116C224.2 331.156 225.32 332.176 226.24 333.196L224.84 334.556C224.08 333.576 222.96 332.516 221.52 331.396L222.88 330.116ZM219.94 333.556C220.36 334.916 220.74 336.476 221.06 338.236L219.5 338.636C219.26 337.016 218.96 335.476 218.6 333.996L219.94 333.556ZM214.06 333.636L215.56 334.036C215.16 336.116 214.7 337.956 214.14 339.536L212.62 338.996C213.18 337.596 213.66 335.796 214.06 333.636Z" fill="#009190"/>
<path fill-rule="evenodd" clip-rule="evenodd" d="M87.2085 209.95C87.2085 208.667 88.2565 207.623 89.5445 207.623C90.8326 207.623 91.8805 208.667 91.8805 209.95C91.8805 211.233 90.8326 212.277 89.5445 212.277C88.2564 212.277 87.2085 211.233 87.2085 209.95ZM88.5929 209.95C88.5929 210.473 89.0198 210.898 89.5444 210.898C90.0691 210.898 90.496 210.473 90.496 209.95C90.496 209.427 90.0691 209.002 89.5444 209.002C89.0198 209.002 88.5929 209.427 88.5929 209.95Z" fill="#0F9696"/>
<path fill-rule="evenodd" clip-rule="evenodd" d="M93.8002 205.417C95.0706 206.558 95.7945 208.125 95.8386 209.829C95.8825 211.532 95.2406 213.134 94.0309 214.339C92.8605 215.505 91.3154 216.142 89.6664 216.142C89.6189 216.142 89.5713 216.142 89.5237 216.141C87.8213 216.103 86.2509 215.393 85.1018 214.141L74.6999 202.811C74.4419 202.53 74.4615 202.093 74.7435 201.836C75.0256 201.579 75.4633 201.599 75.7215 201.88L86.1235 213.21C87.0151 214.182 88.2337 214.733 89.5546 214.762C90.873 214.79 92.1177 214.295 93.0519 213.364C93.9907 212.429 94.4888 211.186 94.4547 209.864C94.4206 208.543 93.8588 207.327 92.873 206.441L78.8831 193.872L78.0552 194.697L78.7358 195.375C79.2172 195.854 79.4822 196.492 79.4822 197.17C79.4822 197.848 79.2172 198.486 78.7358 198.965L77.1369 200.558C76.9428 200.751 76.6528 200.812 76.3968 200.713C75.0129 200.178 73.4413 200.507 72.3925 201.551C71.344 202.596 71.0137 204.161 71.5509 205.54C71.6503 205.795 71.5891 206.084 71.3952 206.277L62.9194 214.72C61.8079 215.827 60.33 216.437 58.7581 216.437C57.1862 216.437 55.7084 215.827 54.5967 214.719C52.3022 212.434 52.3022 208.715 54.5967 206.429L63.0725 197.987C63.2666 197.794 63.5568 197.733 63.8126 197.832C65.1966 198.367 66.7681 198.038 67.8167 196.993C68.097 196.714 68.3243 196.397 68.4991 196.056L64.8615 192.094C61.0823 193.31 56.8931 192.32 54.0704 189.509C51.1064 186.556 50.1618 182.127 51.6642 178.225C51.7482 178.007 51.9372 177.846 52.1665 177.798C52.3959 177.749 52.6342 177.82 52.8 177.985L58.2347 183.398C58.3956 183.558 58.6094 183.647 58.8368 183.647C59.0641 183.647 59.2779 183.558 59.4387 183.398L62.968 179.883C63.1289 179.722 63.2175 179.509 63.2175 179.283C63.2175 179.056 63.1288 178.843 62.968 178.683L57.5334 173.27C57.3676 173.105 57.2971 172.867 57.3458 172.639C57.3945 172.41 57.5561 172.222 57.775 172.138C61.6925 170.642 66.1388 171.583 69.1028 174.535C71.9964 177.417 72.9624 181.673 71.6285 185.497L76.3334 189.724L80.6564 185.418C80.9268 185.149 81.365 185.149 81.6354 185.418C81.9058 185.688 81.9058 186.124 81.6354 186.393L75.6773 192.328L77.0761 193.722L90.7261 180.125L89.3273 178.732L83.9898 184.048C83.7194 184.317 83.2812 184.317 83.0108 184.048C82.7404 183.779 82.7404 183.342 83.0108 183.073L88.8272 177.279C88.8515 177.198 88.8831 177.118 88.9242 177.04L90.3327 174.382C90.5274 174.015 90.8755 173.769 91.2877 173.707C91.7003 173.645 92.1055 173.777 92.4004 174.071L95.405 177.064C95.6998 177.358 95.8331 177.762 95.7708 178.172C95.7086 178.583 95.4614 178.93 95.0927 179.123L92.4242 180.526C92.347 180.567 92.267 180.597 92.186 180.621L79.8632 192.896L93.8002 205.417ZM91.5031 175.128L90.1779 177.628L91.8336 179.278L94.3442 177.958L91.5031 175.128ZM65.5757 190.829C65.3851 190.621 65.0874 190.55 64.8229 190.648C61.4379 191.906 57.6013 191.076 55.0493 188.534C52.732 186.226 51.8341 182.879 52.6253 179.761L57.2557 184.373C57.678 184.794 58.2395 185.026 58.8367 185.026C59.4338 185.026 59.9953 184.794 60.4176 184.373L63.9469 180.858C64.3692 180.437 64.6017 179.878 64.6017 179.283C64.6017 178.688 64.3692 178.129 63.9469 177.708L59.3167 173.096C62.4468 172.307 65.8066 173.202 68.1238 175.51C70.7408 178.117 71.5449 182.015 70.1728 185.44C70.0654 185.708 70.1369 186.014 70.3521 186.208L75.3532 190.701L74.6983 191.353L74.0177 190.675C73.5363 190.196 72.8962 189.932 72.2154 189.932C71.5347 189.932 70.8945 190.196 70.4131 190.675L68.8143 192.268C68.6204 192.461 68.5592 192.75 68.6586 193.005C68.8427 193.477 68.9226 193.971 68.9089 194.459L65.5757 190.829ZM76.4611 199.28L77.7566 197.99C78.2107 197.538 78.2107 196.802 77.7566 196.35L76.5865 195.184L74.2088 192.816L73.0388 191.65C72.5849 191.198 71.8461 191.198 71.3922 191.65L70.0966 192.941C70.6104 194.716 70.123 196.647 68.796 197.968C67.4687 199.29 65.5303 199.776 63.7485 199.264L55.576 207.405C53.8213 209.153 53.8213 211.997 55.576 213.744C56.4259 214.591 57.5562 215.057 58.7582 215.057C59.9603 215.057 61.0904 214.591 61.9404 213.744L70.113 205.604C69.5992 203.829 70.0865 201.898 71.4135 200.576H71.4136C72.7408 199.254 74.6795 198.769 76.4611 199.28Z" fill="#0F9696"/>
<path d="M65.1348 201.869C64.8644 201.6 64.4262 201.6 64.1557 201.869L57.5983 208.401C57.3279 208.67 57.3279 209.107 57.5983 209.376C57.7334 209.511 57.9107 209.578 58.0878 209.578C58.2649 209.578 58.4422 209.511 58.5773 209.376L65.1348 202.844C65.4051 202.575 65.4051 202.138 65.1348 201.869Z" fill="#0F9696"/>
<path d="M67.5577 204.282C67.2873 204.013 66.849 204.013 66.5786 204.282L60.0211 210.814C59.7508 211.083 59.7508 211.52 60.0211 211.789C60.1563 211.924 60.3335 211.991 60.5107 211.991C60.6877 211.991 60.865 211.924 61.0002 211.789L67.5577 205.257C67.828 204.988 67.828 204.551 67.5577 204.282Z" fill="#0F9696"/>
<path fill-rule="evenodd" clip-rule="evenodd" d="M132.241 55.1184H130.082V46.0579C130.513 45.6786 130.786 45.1232 130.786 44.5049C130.786 43.3644 129.858 42.4367 128.718 42.4367H124.406L123.74 31.782C123.718 31.4346 123.43 31.164 123.082 31.164H120.264C119.915 31.164 119.627 31.4346 119.606 31.782L118.94 42.4367H117.36L116.694 31.782C116.672 31.4346 116.384 31.164 116.036 31.164H113.218C112.87 31.164 112.582 31.4346 112.56 31.782L111.894 42.4367H110.315L109.649 31.782C109.627 31.4346 109.339 31.164 108.991 31.164H106.173C105.825 31.164 105.537 31.4346 105.515 31.782L104.849 42.4367H103.013L102.605 24.0586C102.597 23.7003 102.304 23.4141 101.946 23.4141H97.7183C97.3599 23.4141 97.0672 23.7003 97.0592 24.0586L96.5882 45.2549H91.3772C90.2367 45.2549 89.309 46.1827 89.309 47.3231C89.309 47.9414 89.582 48.4968 90.0135 48.8762V55.1184H88.5591C88.195 55.1184 87.8999 55.4135 87.8999 55.7776C87.8999 56.1416 88.195 56.4368 88.5591 56.4368H132.241C132.605 56.4368 132.9 56.1416 132.9 55.7776C132.9 55.4135 132.605 55.1184 132.241 55.1184ZM96.5254 48.0731H94.1957C93.8316 48.0731 93.5365 48.3682 93.5365 48.7323C93.5365 49.0963 93.8316 49.3915 94.1957 49.3915H96.4961L96.3689 55.1184H91.3319V49.3902L91.348 49.3907L91.3482 49.3907C91.3578 49.391 91.3675 49.3914 91.3772 49.3914C91.7412 49.3914 92.0364 49.0962 92.0364 48.7322C92.0364 48.3681 91.7412 48.073 91.3772 48.073C90.9637 48.073 90.6273 47.7366 90.6273 47.3231C90.6273 46.9096 90.9638 46.5732 91.3772 46.5732H96.5587L96.5254 48.0731ZM122.462 32.4824H120.883L120.261 42.4367H123.085L122.462 32.4824ZM113.837 32.4824H115.417L116.039 42.4367H113.215L113.837 32.4824ZM108.372 32.4824H106.792L106.17 42.4367H108.994L108.372 32.4824ZM99.1727 55.1184H97.6877L98.3628 24.7323H101.301L101.694 42.4367H100.536C99.3959 42.4367 98.468 43.3645 98.468 44.5049C98.468 45.1232 98.7411 45.6786 99.1727 46.0579V55.1184ZM127.309 45.2548H128.718C129.132 45.2548 129.468 44.9184 129.468 44.5049C129.468 44.0914 129.132 43.755 128.718 43.755H100.536C100.123 43.755 99.7863 44.0915 99.7863 44.5049C99.7863 44.9184 100.123 45.2548 100.536 45.2548H124.491C124.855 45.2548 125.15 45.5499 125.15 45.914C125.15 46.278 124.855 46.5732 124.491 46.5732H100.536C100.527 46.5732 100.517 46.5728 100.507 46.5725C100.502 46.5723 100.496 46.5721 100.491 46.572V55.1184H128.763V46.572C128.753 46.5722 128.742 46.5727 128.732 46.573C128.727 46.5731 128.723 46.5732 128.718 46.5732H127.309C126.945 46.5732 126.65 46.278 126.65 45.914C126.65 45.5499 126.945 45.2548 127.309 45.2548Z" fill="#0F9696"/>
<path d="M124.491 11.4365C122.505 11.4365 120.612 12.1295 119.098 13.3995C118.012 12.5842 116.695 12.1411 115.332 12.1411C113.676 12.1411 112.096 12.7945 110.922 13.9498C110.313 13.6873 109.654 13.5501 108.991 13.5501C107.031 13.5501 105.284 14.7235 104.517 16.4797C104.253 16.4056 103.982 16.3682 103.707 16.3682C102.345 16.3682 101.174 17.2537 100.756 18.4941C100.683 18.4861 100.609 18.4819 100.536 18.4819C99.3956 18.4819 98.4678 19.4098 98.4678 20.5502C98.4679 20.9143 98.763 21.2094 99.127 21.2094C99.4911 21.2094 99.7862 20.9143 99.7862 20.5503C99.7862 20.1367 100.123 19.8004 100.536 19.8004C100.667 19.8004 100.795 19.8374 100.917 19.9104C101.115 20.0286 101.36 20.0351 101.563 19.9278C101.767 19.8204 101.9 19.6146 101.914 19.3847C101.971 18.4326 102.759 17.6868 103.706 17.6868C104.006 17.6868 104.302 17.7677 104.585 17.9274C104.763 18.0275 104.977 18.0397 105.165 17.9603C105.353 17.8809 105.494 17.719 105.546 17.5218C105.96 15.9596 107.376 14.8686 108.991 14.8686C109.602 14.8686 110.208 15.0285 110.743 15.331C111.016 15.4857 111.361 15.4261 111.566 15.1882C112.515 14.0896 113.888 13.4595 115.331 13.4595C116.566 13.4595 117.753 13.9203 118.673 14.7569C118.93 14.9904 119.324 14.9847 119.574 14.7438C120.905 13.4612 122.651 12.7549 124.491 12.7549C128.401 12.7549 131.581 15.9358 131.581 19.8456C131.581 23.7554 128.401 26.9364 124.491 26.9364C121.895 26.9364 119.508 25.5191 118.263 23.2375C118.097 22.9332 117.723 22.8097 117.409 22.9547C116.747 23.2592 116.049 23.4136 115.332 23.4136C113.888 23.4136 112.515 22.7836 111.567 21.6849C111.361 21.4472 111.017 21.3874 110.743 21.5421C110.208 21.8446 109.602 22.0046 108.991 22.0046C107.877 22.0046 106.846 21.4946 106.163 20.6053C106.039 20.4438 105.847 20.3487 105.643 20.3477C105.642 20.3477 105.641 20.3477 105.64 20.3477C105.438 20.3477 105.246 20.4407 105.121 20.6001C104.773 21.0449 104.257 21.3 103.707 21.3C103.343 21.3 103.047 21.5951 103.047 21.9591C103.047 22.3232 103.343 22.6183 103.707 22.6183C104.405 22.6183 105.07 22.3849 105.611 21.9614C106.516 22.834 107.713 23.3229 108.991 23.3229C109.654 23.3229 110.313 23.1857 110.922 22.9232C112.096 24.0785 113.676 24.732 115.332 24.732C116.042 24.732 116.738 24.6127 117.406 24.3769C118.947 26.7829 121.61 28.2547 124.491 28.2547C129.127 28.2547 132.9 24.4824 132.9 19.8456C132.9 15.2089 129.127 11.4365 124.491 11.4365Z" fill="#0F9696"/>
<path d="M104.764 48.0732C104.4 48.0732 104.104 48.3684 104.104 48.7324V50.1415C104.104 50.5055 104.4 50.8007 104.764 50.8007C105.128 50.8007 105.423 50.5055 105.423 50.1415V48.7324C105.423 48.3684 105.128 48.0732 104.764 48.0732Z" fill="#0F9696"/>
<path d="M107.582 48.0732C107.218 48.0732 106.922 48.3684 106.922 48.7324V50.1415C106.922 50.5055 107.218 50.8007 107.582 50.8007C107.946 50.8007 108.241 50.5055 108.241 50.1415V48.7324C108.241 48.3684 107.946 48.0732 107.582 48.0732Z" fill="#0F9696"/>
<path d="M110.4 48.0732C110.036 48.0732 109.741 48.3684 109.741 48.7324V50.1415C109.741 50.5055 110.036 50.8007 110.4 50.8007C110.764 50.8007 111.059 50.5055 111.059 50.1415V48.7324C111.059 48.3684 110.764 48.0732 110.4 48.0732Z" fill="#0F9696"/>
<path d="M113.218 48.0732C112.854 48.0732 112.559 48.3684 112.559 48.7324V50.1415C112.559 50.5055 112.854 50.8007 113.218 50.8007C113.582 50.8007 113.877 50.5055 113.877 50.1415V48.7324C113.877 48.3684 113.582 48.0732 113.218 48.0732Z" fill="#0F9696"/>
<path d="M116.036 48.0732C115.672 48.0732 115.377 48.3684 115.377 48.7324V50.1415C115.377 50.5055 115.672 50.8007 116.036 50.8007C116.4 50.8007 116.695 50.5055 116.695 50.1415V48.7324C116.695 48.3684 116.4 48.0732 116.036 48.0732Z" fill="#0F9696"/>
<path d="M118.854 48.0732C118.49 48.0732 118.195 48.3684 118.195 48.7324V50.1415C118.195 50.5055 118.49 50.8007 118.854 50.8007C119.219 50.8007 119.514 50.5055 119.514 50.1415V48.7324C119.514 48.3684 119.219 48.0732 118.854 48.0732Z" fill="#0F9696"/>
<path d="M121.672 48.0732C121.308 48.0732 121.013 48.3684 121.013 48.7324V50.1415C121.013 50.5055 121.308 50.8007 121.672 50.8007C122.036 50.8007 122.332 50.5055 122.332 50.1415V48.7324C122.332 48.3684 122.036 48.0732 121.672 48.0732Z" fill="#0F9696"/>
<path d="M124.491 48.0732C124.127 48.0732 123.832 48.3684 123.832 48.7324V50.1415C123.832 50.5055 124.127 50.8007 124.491 50.8007C124.855 50.8007 125.15 50.5055 125.15 50.1415V48.7324C125.15 48.3684 124.855 48.0732 124.491 48.0732Z" fill="#0F9696"/>
<path d="M218.501 163.103C218.294 163.16 218.086 163.236 217.878 163.273C217.349 163.406 216.82 163.519 216.273 163.576L208.037 166.976C208.056 166.976 208.075 166.976 208.113 166.976C208.528 166.919 208.963 166.862 209.359 166.768C209.454 166.749 209.548 166.711 209.643 166.692C209.85 166.636 210.058 166.579 210.266 166.522C210.474 166.466 210.682 166.428 210.87 166.352C211.116 166.258 211.362 166.182 211.607 166.069L219.843 162.669C219.408 162.839 218.955 162.971 218.501 163.103Z" fill="url(#paint0_linear)"/>
<path d="M208.037 166.976C213.137 166.39 217.349 162.972 219.219 158.174L229.627 166.126L212.457 179.537L208.037 166.976Z" fill="url(#paint1_linear)"/>
<path d="M219.219 158.173L227.455 154.773L237.862 162.726L229.627 166.126L219.219 158.173Z" fill="url(#paint2_linear)"/>
<path d="M229.627 166.126L237.862 162.726L220.693 176.137L212.457 179.537L229.627 166.126Z" fill="url(#paint3_linear)"/>
<path d="M216.821 137.586L227.153 130.483L233.745 152.923L221.373 152.168C221.524 151.28 221.637 150.392 221.637 149.448C221.694 144.858 219.824 140.627 216.821 137.586Z" fill="url(#paint4_linear)"/>
<path d="M227.153 130.502L235.408 127.083L242 149.523L233.764 152.923L227.153 130.502Z" fill="url(#paint5_linear)"/>
<path d="M188.922 156.908C190.716 161.97 194.872 165.937 199.953 167.203L195.287 179.14L178.382 163.444L188.922 156.908Z" fill="url(#paint6_linear)"/>
<path d="M208.189 163.783C207.565 163.632 206.961 163.424 206.375 163.198C206.338 163.179 206.3 163.16 206.243 163.141C205.676 162.914 205.11 162.65 204.581 162.348C204.581 162.348 204.581 162.348 204.562 162.348C204.071 162.083 203.599 161.762 203.145 161.441C203.013 161.347 202.862 161.252 202.73 161.139C202.428 160.912 202.163 160.667 201.88 160.44C201.653 160.251 201.426 160.062 201.219 159.854C200.935 159.571 200.652 159.288 200.388 158.986C200.255 158.834 200.123 158.683 199.991 158.532C199.632 158.079 199.273 157.626 198.952 157.134C198.933 157.116 198.914 157.078 198.895 157.059C198.555 156.549 198.253 156.001 197.97 155.453C197.875 155.283 197.8 155.094 197.724 154.924C197.516 154.452 197.29 153.999 197.12 153.508L188.884 156.908C188.941 157.097 189.016 157.267 189.092 157.456C189.205 157.758 189.356 158.041 189.489 158.324C189.564 158.494 189.64 158.683 189.734 158.853C190.018 159.401 190.32 159.949 190.66 160.459C190.679 160.478 190.698 160.516 190.716 160.534C191.038 161.026 191.378 161.479 191.755 161.932C191.888 162.083 192.02 162.234 192.152 162.386C192.36 162.612 192.549 162.839 192.756 163.047C192.832 163.122 192.908 163.179 192.983 163.254C193.191 163.462 193.418 163.651 193.644 163.84C193.814 163.991 193.965 164.161 194.154 164.293C194.268 164.388 194.381 164.463 194.494 164.539C194.626 164.633 194.759 164.747 194.91 164.841C195.042 164.936 195.155 165.03 195.288 165.124C195.628 165.351 195.968 165.559 196.308 165.748C196.308 165.748 196.308 165.748 196.326 165.748C196.629 165.918 196.95 166.088 197.271 166.22C197.516 166.333 197.743 166.428 197.989 166.522C198.026 166.541 198.064 166.56 198.121 166.579C198.14 166.598 198.178 166.598 198.196 166.617C198.499 166.73 198.801 166.843 199.103 166.938C199.368 167.032 199.651 167.108 199.934 167.164L208.189 163.783Z" fill="url(#paint7_linear)"/>
<path d="M199.953 167.202L208.189 163.783L203.542 175.721L195.288 179.14L199.953 167.202Z" fill="url(#paint8_linear)"/>
<path d="M174 151.77L181.008 130.256L191.17 138.718C188.129 141.344 186.164 145.329 186.127 149.938C186.127 150.882 186.202 151.789 186.334 152.696L174 151.77Z" fill="url(#paint9_linear)"/>
<path d="M181.008 130.255L189.243 126.855L199.424 135.318L191.17 138.737L181.008 130.255Z" fill="url(#paint10_linear)"/>
<path d="M194.419 147.671C194.4 147.294 194.381 146.916 194.381 146.538C194.381 146.009 194.419 145.48 194.476 144.97C194.495 144.876 194.495 144.781 194.513 144.687C194.57 144.196 194.646 143.724 194.759 143.251C194.778 143.214 194.778 143.157 194.797 143.119C194.891 142.685 195.023 142.25 195.156 141.835C195.174 141.759 195.212 141.665 195.231 141.589C195.382 141.155 195.552 140.72 195.741 140.305C195.798 140.191 195.836 140.097 195.892 139.984C196.043 139.681 196.194 139.379 196.364 139.077C196.459 138.926 196.553 138.756 196.648 138.605C196.78 138.378 196.931 138.17 197.082 137.962C197.252 137.717 197.422 137.49 197.592 137.264C197.781 137.037 197.97 136.81 198.159 136.584C198.253 136.489 198.348 136.376 198.442 136.281C198.763 135.941 199.084 135.639 199.424 135.337L191.189 138.737C190.849 139.039 190.509 139.36 190.207 139.681C190.112 139.776 190.018 139.889 189.923 139.984C189.81 140.116 189.678 140.248 189.565 140.38C189.489 140.456 189.432 140.569 189.376 140.645C189.206 140.871 189.017 141.098 188.866 141.344C188.79 141.457 188.696 141.57 188.62 141.684C188.563 141.778 188.507 141.891 188.45 141.986C188.356 142.137 188.261 142.288 188.167 142.458C188.091 142.571 188.016 142.685 187.959 142.798C187.865 142.987 187.77 143.176 187.695 143.365C187.638 143.478 187.581 143.572 187.543 143.686C187.525 143.742 187.487 143.78 187.468 143.837C187.336 144.158 187.203 144.479 187.071 144.819C187.052 144.876 187.033 144.932 187.015 144.97C186.996 145.046 186.958 145.14 186.939 145.216C186.882 145.405 186.826 145.575 186.769 145.764C186.693 146.009 186.637 146.255 186.58 146.519C186.561 146.557 186.561 146.614 186.542 146.651C186.542 146.67 186.523 146.689 186.523 146.708C186.448 147.029 186.391 147.331 186.353 147.652C186.335 147.785 186.316 147.936 186.297 148.087C186.278 148.181 186.278 148.276 186.259 148.37C186.24 148.465 186.24 148.54 186.221 148.635C186.183 148.975 186.165 149.296 186.165 149.636C186.165 149.73 186.165 149.825 186.165 149.938C186.165 150.165 186.165 150.391 186.183 150.637C186.183 150.788 186.202 150.939 186.221 151.09C186.221 151.241 186.24 151.373 186.259 151.525C186.259 151.6 186.259 151.676 186.278 151.751C186.316 152.072 186.353 152.393 186.41 152.715L194.646 149.315C194.589 148.918 194.532 148.521 194.495 148.125C194.438 147.955 194.419 147.822 194.419 147.671Z" fill="url(#paint11_linear)"/>
<path d="M198.461 132.598L206.696 129.198C206.299 129.368 205.903 129.538 205.525 129.746L197.29 133.146C197.667 132.938 198.064 132.768 198.461 132.598Z" fill="#828282"/>
<path d="M197.289 133.146L193.682 120.585L215.612 122.058L211.758 134.128C209.643 132.693 207.187 131.805 204.543 131.616C201.917 131.427 199.443 132.013 197.289 133.146Z" fill="url(#paint12_linear)"/>
<path d="M193.683 120.566L201.919 117.166L223.848 118.658L215.613 122.058L193.683 120.566Z" fill="url(#paint13_linear)"/>
<path d="M215.612 122.058L223.847 118.658L220.013 130.709L211.758 134.128L215.612 122.058Z" fill="url(#paint14_linear)"/>
<path d="M35.2802 45.6399V47.6199H37.2802V52.1199C36.4202 52.3199 35.5602 52.4999 34.6802 52.6399L35.2002 54.6399C37.5002 54.1199 39.6802 53.4799 41.7202 52.7199V50.7199C40.9202 51.0199 40.1202 51.2999 39.3202 51.5599V47.6199H41.3802V45.6399H39.3202V41.9199H41.6602V39.9199H34.9802V41.9199H37.2802V45.6399H35.2802ZM42.2602 39.3399V41.3399H47.1202C46.0002 44.6999 44.0602 47.5799 41.3202 49.9799L42.6002 51.6399C44.0202 50.3399 45.2602 48.9199 46.3002 47.3599V57.0599H48.3402V47.5799C49.3002 48.5799 50.5002 49.9599 51.9002 51.7199L53.1202 49.8799C51.5002 48.1399 49.9002 46.5999 48.3402 45.2399V43.5199C48.6202 42.7999 48.8802 42.0799 49.1202 41.3399H52.6202V39.3399H42.2602Z" fill="#009190"/>
<path d="M64.4002 39.9199V41.6399H66.0402C66.2402 42.1399 66.4402 42.6799 66.6202 43.2399H63.8002V44.9799H75.9602V43.2399H72.8202C73.0402 42.7199 73.2402 42.1999 73.4002 41.6399H75.3802V39.9199H70.7602C70.6202 39.3599 70.4802 38.8399 70.3202 38.3799L68.1002 38.7399C68.2602 39.0999 68.4402 39.4999 68.6002 39.9199H64.4002ZM70.8202 43.2399H68.6002C68.4402 42.6799 68.2602 42.1399 68.1002 41.6399H71.4802C71.3202 42.1799 71.1002 42.7199 70.8202 43.2399ZM64.8802 45.7599V52.4799H66.7602C66.5402 53.1199 66.1802 53.6399 65.6802 54.0399C64.9802 54.5799 63.8402 54.9999 62.2602 55.2799L63.0402 57.1599C65.0202 56.6799 66.4202 56.0599 67.2602 55.2599C67.9802 54.5399 68.4602 53.5999 68.7202 52.4799H70.3202V54.9199C70.3202 56.1999 70.9402 56.8399 72.1802 56.8399H74.3202C74.9602 56.8399 75.4402 56.6999 75.7602 56.4199C76.0802 56.1399 76.3002 55.2199 76.4402 53.6799L74.5602 53.0999C74.5202 54.0599 74.4602 54.6199 74.3602 54.7999C74.2602 54.9599 74.1402 55.0599 73.9802 55.0599H72.7202C72.4802 55.0599 72.3602 54.8599 72.3602 54.4999V52.4799H74.7602V45.7599H64.8802ZM72.8402 50.7999H66.7802V49.8199H72.8402V50.7999ZM66.7802 48.3999V47.3999H72.8402V48.3999H66.7802ZM63.9202 50.3599C63.2002 50.6999 62.4602 50.9999 61.7402 51.2799V45.2599H63.2402V43.2399H61.7402V38.6599H59.6402V43.2399H57.7802V45.2599H59.6402V51.9599C59.0002 52.1399 58.3602 52.2999 57.7202 52.4199L58.2802 54.7199C60.2802 54.0999 62.1602 53.3599 63.9202 52.4799V50.3599Z" fill="#009190"/>
<path d="M387.08 198.26V200.28H389.72C389.06 202.52 388.04 204.5 386.64 206.22L387.54 208.5C388.44 207.1 389.2 205.58 389.82 203.94V213H391.9V203.16C392.32 203.86 392.8 204.72 393.36 205.72L394.58 203.88C393.68 202.84 392.78 201.88 391.9 201.02V200.28H394.14V198.26H391.9V194.58H389.82V198.26H387.08ZM392.9 211.72L394.62 213.24C395.56 211.76 396.2 210.2 396.54 208.6C396.9 207 397.08 205.08 397.08 202.82V197.16H399.92V210.62C399.92 211.94 400.68 212.62 402.22 212.62H403.12C403.82 212.62 404.34 212.48 404.66 212.22C404.98 211.9 405.18 211.38 405.26 210.62C405.34 209.86 405.4 208.7 405.4 207.18L403.48 206.58C403.48 208.7 403.44 209.92 403.36 210.2C403.32 210.34 403.28 210.46 403.2 210.54C403.12 210.62 403 210.66 402.84 210.66H402.24C402.1 210.66 402.04 210.56 402.04 210.38V195.2H395V202.82C395 205.08 394.86 206.78 394.6 207.92C394.28 209.24 393.7 210.52 392.9 211.72Z" fill="#009190"/>
<path d="M420.22 203.84C422.06 204.66 423.68 205.54 425.08 206.46H419.74V213.1H421.58V212.34H424.62V213.1H426.46V207.42L427.12 207.92L428.42 206.38C426.98 205.48 425.32 204.64 423.48 203.84H427.9V202H425.22C424.94 201.48 424.64 201 424.32 200.52H426.62V195.2H419.88V200.52H423.8L422.46 200.96C422.7 201.28 422.92 201.62 423.16 202H418.98C419.18 201.64 419.36 201.26 419.52 200.88L417.54 200.66C417.34 201.1 417.08 201.56 416.76 202H410.1V203.84H414.82C413.54 204.72 411.86 205.46 409.74 206.06L410.7 207.78C411.1 207.66 411.48 207.52 411.88 207.38V213.1H413.7V212.34H416.4V213.1H418.24V206.46H414.04C415.48 205.74 416.68 204.86 417.64 203.84H420.22ZM421.58 210.58V208.18H424.62V210.58H421.58ZM413.7 210.58V208.18H416.4V210.58H413.7ZM411.62 195.2V200.52H418.16V195.2H411.62ZM416.28 198.8H413.5V196.96H416.28V198.8ZM424.74 198.8H421.76V196.96H424.74V198.8Z" fill="#009190"/>
<path d="M349.98 37.5996H347.86C347.86 38.3596 347.84 39.3996 347.84 40.7396C347.68 46.4796 344.94 50.9596 339.58 54.1596L340.86 56.0396C345.02 53.3596 347.76 49.9796 349.08 45.8996C350.62 50.1196 353.26 53.4796 357 55.9996L358.4 54.1596C353.86 51.3796 351 47.3596 349.84 42.0996C349.92 40.8596 349.98 39.3596 349.98 37.5996Z" fill="#009190"/>
<path d="M378.96 44.6996H365.06V52.6396H367.14V46.5996H376.88V52.3196H378.96V44.6996ZM366.24 38.1196V43.5796H377.78V38.1196H366.24ZM375.76 41.7796H368.26V39.9596H375.76V41.7796ZM371.12 47.5396C370.98 49.8996 370.46 51.5796 369.56 52.5396C368.52 53.5396 366.4 54.1196 363.2 54.2796L364.02 56.1796C367.94 55.8196 370.38 54.9996 371.38 53.7596C372.34 52.7796 372.96 50.7796 373.24 47.7396L371.12 47.5396ZM373.64 52.0196L372.6 53.5596C375 54.1996 377.34 55.0796 379.62 56.1996L380.74 54.4596C378.58 53.4996 376.22 52.6996 373.64 52.0196Z" fill="#009190"/>
<defs>
<linearGradient id="paint0_linear" x1="208.03" y1="164.818" x2="219.846" y2="164.818" gradientUnits="userSpaceOnUse">
<stop stop-color="white"/>
<stop offset="0.9988" stop-color="#4DBDBC"/>
</linearGradient>
<linearGradient id="paint1_linear" x1="208.03" y1="168.857" x2="229.626" y2="168.857" gradientUnits="userSpaceOnUse">
<stop stop-color="white"/>
<stop offset="0.9988" stop-color="#4DBDBC"/>
</linearGradient>
<linearGradient id="paint2_linear" x1="219.22" y1="160.451" x2="237.867" y2="160.451" gradientUnits="userSpaceOnUse">
<stop stop-color="#009191"/>
<stop offset="1" stop-color="#006262"/>
</linearGradient>
<linearGradient id="paint3_linear" x1="212.454" y1="171.128" x2="237.867" y2="171.128" gradientUnits="userSpaceOnUse">
<stop stop-color="#169090"/>
<stop offset="0.9988" stop-color="#FFE200"/>
</linearGradient>
<linearGradient id="paint4_linear" x1="216.825" y1="141.711" x2="233.758" y2="141.711" gradientUnits="userSpaceOnUse">
<stop stop-color="white"/>
<stop offset="0.9988" stop-color="#4DBDBC"/>
</linearGradient>
<linearGradient id="paint5_linear" x1="227.161" y1="140.008" x2="242" y2="140.008" gradientUnits="userSpaceOnUse">
<stop stop-color="#169090"/>
<stop offset="0.9988" stop-color="#FFE200"/>
</linearGradient>
<linearGradient id="paint6_linear" x1="178.394" y1="168.018" x2="199.947" y2="168.018" gradientUnits="userSpaceOnUse">
<stop stop-color="white"/>
<stop offset="0.9988" stop-color="#4DBDBC"/>
</linearGradient>
<linearGradient id="paint7_linear" x1="188.915" y1="160.346" x2="208.188" y2="160.346" gradientUnits="userSpaceOnUse">
<stop stop-color="#009191"/>
<stop offset="1" stop-color="#1D2088"/>
</linearGradient>
<linearGradient id="paint8_linear" x1="195.295" y1="171.461" x2="208.188" y2="171.461" gradientUnits="userSpaceOnUse">
<stop stop-color="#009191"/>
<stop offset="1" stop-color="#006262"/>
</linearGradient>
<linearGradient id="paint9_linear" x1="174" y1="141.477" x2="191.178" y2="141.477" gradientUnits="userSpaceOnUse">
<stop stop-color="white"/>
<stop offset="0.9988" stop-color="#4DBDBC"/>
</linearGradient>
<linearGradient id="paint10_linear" x1="181.007" y1="132.791" x2="199.42" y2="132.791" gradientUnits="userSpaceOnUse">
<stop stop-color="#009191"/>
<stop offset="1" stop-color="#006262"/>
</linearGradient>
<linearGradient id="paint11_linear" x1="186.133" y1="144.008" x2="199.42" y2="144.008" gradientUnits="userSpaceOnUse">
<stop stop-color="#009191"/>
<stop offset="1" stop-color="#1D2088"/>
</linearGradient>
<linearGradient id="paint12_linear" x1="193.678" y1="127.347" x2="215.611" y2="127.347" gradientUnits="userSpaceOnUse">
<stop stop-color="white"/>
<stop offset="0.9988" stop-color="#4DBDBC"/>
</linearGradient>
<linearGradient id="paint13_linear" x1="193.679" y1="119.612" x2="223.854" y2="119.612" gradientUnits="userSpaceOnUse">
<stop stop-color="#009191"/>
<stop offset="1" stop-color="#006262"/>
</linearGradient>
<linearGradient id="paint14_linear" x1="211.766" y1="126.384" x2="223.853" y2="126.384" gradientUnits="userSpaceOnUse">
<stop stop-color="#169090"/>
<stop offset="0.9988" stop-color="#FFE200"/>
</linearGradient>
</defs>
</svg>
