<svg width="342" height="344" viewBox="0 0 342 344" fill="none" xmlns="http://www.w3.org/2000/svg">
<path fill-rule="evenodd" clip-rule="evenodd" d="M164.181 10.5C142.209 10.5 121.349 15.245 102.576 23.763L102.163 22.8523C121.064 14.2767 142.064 9.5 164.181 9.5C184.92 9.5 204.676 13.6997 222.641 21.2932L222.251 22.2143C204.408 14.6719 184.784 10.5 164.181 10.5ZM312.741 148.879C311.06 123.889 303.178 100.594 290.615 80.5089L291.463 79.9786C304.11 100.199 312.047 123.653 313.739 148.812C313.965 152.167 314.079 155.552 314.079 158.963H313.079C313.079 155.574 312.965 152.211 312.741 148.879ZM33.8686 87.0808C23.6627 105.435 17.2442 126.173 15.6652 148.246C15.412 151.786 15.2832 155.359 15.2832 158.963H14.2832C14.2832 155.335 14.4128 151.738 14.6677 148.175C16.2574 125.953 22.7195 105.074 32.9946 86.5948L33.8686 87.0808ZM222.357 295.667C247.989 284.809 269.942 266.993 285.83 244.596L286.645 245.174C270.651 267.721 248.552 285.657 222.747 296.588L222.357 295.667ZM44.5295 247.344C59.8105 267.877 80.2816 284.34 104.008 294.804L103.604 295.719C79.7183 285.184 59.1104 268.611 43.7273 247.941L44.5295 247.344Z" fill="#4BC8C8"/>
<path fill-rule="evenodd" clip-rule="evenodd" d="M162.745 89.5636C125.176 89.5636 94.7145 120.164 94.7145 157.918C94.7145 195.668 125.176 226.27 162.745 226.27C200.317 226.27 230.778 195.668 230.778 157.918C230.778 120.164 200.317 89.5636 162.745 89.5636ZM93.8145 157.918C93.8145 119.671 124.675 88.6636 162.745 88.6636C200.818 88.6636 231.678 119.671 231.678 157.918C231.678 196.161 200.818 227.17 162.745 227.17C124.675 227.17 93.8145 196.161 93.8145 157.918Z" fill="#009190"/>
<path fill-rule="evenodd" clip-rule="evenodd" d="M162.746 102.32C132.188 102.32 107.413 127.211 107.413 157.917C107.413 188.622 132.188 213.512 162.746 213.512C193.305 213.512 218.08 188.622 218.08 157.917C218.08 127.211 193.305 102.32 162.746 102.32ZM106.663 157.917C106.663 126.8 131.77 101.57 162.746 101.57C193.723 101.57 218.83 126.8 218.83 157.917C218.83 189.033 193.723 214.262 162.746 214.262C131.77 214.262 106.663 189.033 106.663 157.917Z" fill="#009190"/>
<path fill-rule="evenodd" clip-rule="evenodd" d="M191.915 260.231C191.915 263.526 189.26 266.196 185.98 266.196C182.704 266.196 180.045 263.526 180.045 260.231C180.045 256.941 182.704 254.267 185.98 254.267C189.26 254.267 191.915 256.941 191.915 260.231Z" fill="#009190"/>
<path fill-rule="evenodd" clip-rule="evenodd" d="M218.481 65.6716C218.481 68.9663 215.826 71.6362 212.546 71.6362C209.267 71.6362 206.611 68.9663 206.611 65.6716C206.611 62.3816 209.267 59.707 212.546 59.707C215.826 59.707 218.481 62.3816 218.481 65.6716Z" fill="#009190"/>
<path fill-rule="evenodd" clip-rule="evenodd" d="M71.4224 197.798C71.4224 201.091 68.7636 203.761 65.4875 203.761C62.2082 203.761 59.5493 201.091 59.5493 197.798C59.5493 194.506 62.2082 191.833 65.4875 191.833C68.7636 191.833 71.4224 194.506 71.4224 197.798Z" fill="#009190"/>
<path fill-rule="evenodd" clip-rule="evenodd" d="M271.327 186.428C271.327 189.723 268.668 192.392 265.389 192.392C262.113 192.392 259.454 189.723 259.454 186.428C259.454 183.138 262.113 180.463 265.389 180.463C268.668 180.463 271.327 183.138 271.327 186.428Z" fill="#009190"/>
<path fill-rule="evenodd" clip-rule="evenodd" d="M89.2608 87.7419C89.2608 91.0366 86.6051 93.7065 83.3258 93.7065C80.0466 93.7065 77.3877 91.0366 77.3877 87.7419C77.3877 84.4519 80.0466 81.7773 83.3258 81.7773C86.6051 81.7773 89.2608 84.4519 89.2608 87.7419Z" fill="#009190"/>
<path fill-rule="evenodd" clip-rule="evenodd" d="M162.745 52.752C104.942 52.752 58.0791 99.8337 58.0791 157.917C58.0791 215.999 104.942 263.081 162.745 263.081C220.549 263.081 267.415 215.999 267.415 157.917C267.415 99.8337 220.549 52.752 162.745 52.752ZM57.0791 157.917C57.0791 99.2859 104.385 51.752 162.745 51.752C221.106 51.752 268.415 99.2858 268.415 157.917C268.415 216.547 221.106 264.081 162.745 264.081C104.385 264.081 57.0791 216.547 57.0791 157.917Z" fill="#009190"/>
<path fill-rule="evenodd" clip-rule="evenodd" d="M162.745 73.8848C116.558 73.8848 79.1108 111.505 79.1108 157.917C79.1108 204.328 116.558 241.948 162.745 241.948C208.932 241.948 246.379 204.328 246.379 157.917C246.379 111.505 208.932 73.8848 162.745 73.8848ZM78.1108 157.917C78.1108 110.957 116.001 72.8848 162.745 72.8848C209.489 72.8848 247.379 110.957 247.379 157.917C247.379 204.876 209.489 242.948 162.745 242.948C116.001 242.948 78.1108 204.876 78.1108 157.917Z" fill="#009190"/>
<path fill-rule="evenodd" clip-rule="evenodd" d="M182.797 90.2922C182.797 93.5869 180.141 96.2568 176.862 96.2568C173.583 96.2568 170.924 93.5869 170.924 90.2922C170.924 87.0022 173.583 84.3276 176.862 84.3276C180.141 84.3276 182.797 87.0022 182.797 90.2922Z" fill="#7EC7C5"/>
<path fill-rule="evenodd" clip-rule="evenodd" d="M114.836 225.541C114.836 228.836 112.18 231.506 108.901 231.506C105.621 231.506 102.962 228.836 102.962 225.541C102.962 222.251 105.621 219.577 108.901 219.577C112.18 219.577 114.836 222.251 114.836 225.541Z" fill="#7EC7C5"/>
<path fill-rule="evenodd" clip-rule="evenodd" d="M216.407 184.942C216.407 188.237 213.751 190.907 210.472 190.907C207.196 190.907 204.537 188.237 204.537 184.942C204.537 181.652 207.196 178.978 210.472 178.978C213.751 178.978 216.407 181.652 216.407 184.942Z" fill="#7EC7C5"/>
<path fill-rule="evenodd" clip-rule="evenodd" d="M104.102 136.505C104.102 139.8 101.446 142.47 98.1667 142.47C94.8874 142.47 92.2285 139.8 92.2285 136.505C92.2285 133.215 94.8874 130.541 98.1667 130.541C101.446 130.541 104.102 133.215 104.102 136.505Z" fill="#7EC7C5"/>
<path fill-rule="evenodd" clip-rule="evenodd" d="M184.873 305.229C184.868 305.215 184.866 305.202 184.864 305.188C184.862 305.175 184.86 305.162 184.855 305.148L184.846 305.121C184.842 305.112 184.839 305.103 184.837 305.095L184.837 305.094C184.835 305.086 184.833 305.077 184.828 305.068L184.819 305.059C184.801 305.023 184.792 305.005 184.783 304.978C184.777 304.959 184.767 304.945 184.755 304.929L184.747 304.919C184.744 304.915 184.742 304.911 184.739 304.907L184.73 304.889C184.723 304.882 184.718 304.876 184.713 304.87C184.704 304.859 184.697 304.85 184.685 304.844L184.667 304.826L184.613 304.772L184.605 304.763C184.596 304.755 184.584 304.748 184.573 304.741C184.562 304.734 184.551 304.728 184.542 304.719L184.533 304.71L173.985 298.626V286.441C173.985 286.406 173.985 286.379 173.976 286.361V286.352C173.976 286.331 173.971 286.315 173.964 286.296L173.958 286.28V286.262C173.956 286.256 173.954 286.249 173.952 286.243L173.951 286.243L173.951 286.243C173.945 286.226 173.941 286.213 173.941 286.2L173.932 286.191C173.921 286.17 173.914 286.152 173.908 286.137L173.908 286.137L173.908 286.137C173.903 286.127 173.9 286.118 173.896 286.11C173.887 286.093 173.869 286.066 173.851 286.039L173.851 286.039L173.842 286.021C173.836 286.015 173.831 286.008 173.826 286.002C173.817 285.991 173.809 285.982 173.797 285.976L173.779 285.958C173.762 285.94 173.744 285.923 173.726 285.914L173.717 285.905C173.708 285.896 173.697 285.889 173.686 285.882C173.674 285.876 173.663 285.869 173.654 285.86L173.645 285.851L162.767 279.571C162.561 279.454 162.301 279.454 162.096 279.571L151.199 285.86C151.192 285.865 151.185 285.869 151.179 285.873C151.163 285.883 151.149 285.892 151.136 285.905C151.11 285.923 151.092 285.94 151.074 285.958L151.065 285.976C151.058 285.983 151.053 285.989 151.048 285.995C151.039 286.006 151.032 286.015 151.02 286.021L151.011 286.03C150.996 286.045 150.987 286.059 150.979 286.073L150.979 286.073C150.972 286.084 150.965 286.093 150.957 286.101C150.955 286.107 150.951 286.113 150.947 286.12C150.938 286.136 150.928 286.154 150.922 286.173L150.913 286.191C150.904 286.209 150.895 286.227 150.895 286.245L150.886 286.262C150.881 286.272 150.879 286.284 150.876 286.298C150.874 286.309 150.872 286.322 150.868 286.334V286.343C150.868 286.356 150.866 286.37 150.863 286.383C150.861 286.397 150.859 286.41 150.859 286.424V286.441V298.617L140.302 304.71C140.295 304.715 140.289 304.719 140.283 304.723C140.266 304.733 140.253 304.741 140.24 304.755L140.231 304.763C140.213 304.772 140.195 304.79 140.177 304.808L140.168 304.817C140.15 304.835 140.132 304.853 140.123 304.871L140.114 304.88C140.1 304.895 140.09 304.909 140.082 304.923L140.082 304.923C140.075 304.933 140.069 304.943 140.061 304.951V304.96C140.059 304.965 140.057 304.969 140.054 304.974C140.047 304.99 140.039 305.009 140.025 305.023L140.016 305.041C140.007 305.059 139.998 305.077 139.998 305.094L139.989 305.112C139.985 305.126 139.983 305.137 139.98 305.148C139.978 305.159 139.976 305.171 139.971 305.184V305.193C139.971 305.206 139.969 305.22 139.967 305.233C139.965 305.247 139.962 305.26 139.962 305.273V305.291V317.852C139.962 318.093 140.088 318.317 140.302 318.433L151.199 324.723C151.212 324.727 151.224 324.734 151.235 324.741C151.246 324.747 151.257 324.754 151.271 324.758L151.28 324.767C151.297 324.776 151.324 324.785 151.351 324.794L151.369 324.803C151.387 324.812 151.414 324.812 151.432 324.812H151.449C151.512 324.821 151.548 324.821 151.611 324.812H151.628C151.637 324.812 151.649 324.81 151.66 324.808C151.671 324.805 151.682 324.803 151.691 324.803L151.709 324.794C151.722 324.79 151.734 324.785 151.745 324.781C151.756 324.776 151.767 324.772 151.78 324.767H151.789C151.816 324.758 151.834 324.75 151.861 324.732L151.879 324.723L162.427 318.639L172.983 324.732C172.997 324.736 173.008 324.743 173.019 324.75C173.03 324.756 173.041 324.763 173.055 324.767L173.073 324.776C173.091 324.785 173.109 324.794 173.135 324.794H173.153C173.18 324.803 173.198 324.803 173.216 324.803H173.234C173.296 324.812 173.332 324.812 173.395 324.803H173.413C173.421 324.803 173.429 324.801 173.438 324.799L173.438 324.799C173.448 324.797 173.461 324.794 173.475 324.794L173.493 324.785L173.502 324.782L173.509 324.78C173.516 324.777 173.523 324.774 173.529 324.772C173.54 324.767 173.551 324.763 173.565 324.758H173.574C173.601 324.75 173.618 324.741 173.645 324.723L173.654 324.714L184.533 318.433C184.739 318.317 184.873 318.093 184.873 317.852V305.273C184.882 305.282 184.882 305.256 184.873 305.229ZM177.421 302.178L167.884 307.689L163.778 305.318L173.314 299.807L177.421 302.178ZM163.107 304.155L172.643 298.644V287.631L163.107 293.142V304.155ZM162.427 280.948L166.533 283.319L156.996 288.83L152.89 286.459L162.427 280.948ZM155.645 302.178L151.539 299.807L142.002 305.318L146.109 307.689L155.645 302.178ZM150.859 323L141.331 317.494V306.481L145.563 308.924L145.581 308.95C145.67 309.04 145.786 309.111 145.903 309.138L145.93 309.147L150.859 311.992V323ZM150.859 323L150.868 323.005H150.859V323ZM147.45 308.458L151.539 310.82L161.076 305.309L156.987 302.947L147.45 308.458ZM152.219 323.014V312.001L161.756 306.49V317.503L152.219 323.014ZM161.747 304.141L161.756 304.146H161.747V304.141ZM161.747 304.141L152.219 298.635V287.622L156.45 290.065L156.468 290.092C156.558 290.181 156.674 290.253 156.799 290.279L156.826 290.288L161.747 293.133V304.141ZM158.347 289.608L167.884 284.097L171.963 286.459L162.427 291.97L158.347 289.608ZM172.634 323L172.643 323.005H172.634V323ZM172.634 323L163.107 317.494V306.481L167.338 308.924L167.356 308.95C167.446 309.04 167.553 309.111 167.678 309.138L167.705 309.147L172.634 311.992V323ZM173.314 310.82L169.235 308.458L178.772 302.947L182.86 305.309L173.314 310.82ZM173.994 323.014L183.531 317.503V306.49L173.994 312.001V323.014Z" fill="#0F9696"/>
<path fill-rule="evenodd" clip-rule="evenodd" d="M278.818 37.6621C274.544 35.3956 271.266 34.1248 268.347 33.6375L268.649 33.2223C268.793 33.079 268.864 32.8642 268.793 32.6494L268.122 29.965C269.896 27.4558 270.941 24.3189 270.941 21.3349V18.4704H271.657H273.089C273.519 18.4704 273.805 18.184 273.805 17.7544C273.805 17.3247 273.519 17.0383 273.089 17.0383H272.373V16.3222C272.373 10.665 268.649 5.8671 263.064 4.29163V4.14829C263.064 3.00248 262.133 2 260.915 2H258.051C256.905 2 255.903 2.9309 255.903 4.14829V4.29154C250.317 5.86701 246.593 10.6649 246.593 16.3222V17.0382H245.877C245.448 17.0382 245.161 17.3246 245.161 17.7543C245.161 18.184 245.448 18.4704 245.877 18.4704H247.309H248.025V21.3348C248.025 24.3188 249.07 27.4557 250.845 29.965L250.174 32.6494C250.174 32.7926 250.174 33.079 250.317 33.2223L250.619 33.6375C247.701 34.1248 244.422 35.3956 240.148 37.6621C238.788 38.3067 238 39.6672 238 41.171V44.2503C238 44.68 238.286 44.9664 238.716 44.9664H255.903H256.189H262.777H263.064H280.25C280.68 44.9664 280.966 44.68 280.966 44.2503V41.171C280.966 39.7388 280.107 38.3783 278.818 37.6621ZM259.054 36.9993L259.487 36.0239L260.558 38.3787L261.258 39.9536H257.765L259.054 36.9993ZM261.741 41.3859H257.22L256.791 43.5342H262.15L261.741 41.3859ZM267.002 31.3604L267.289 32.6494L266.557 33.6538C266.511 33.6919 266.467 33.7382 266.429 33.7951L263.451 37.9193L262.506 39.2171L260.575 34.8733C262.883 34.5919 264.943 33.4334 266.607 31.7686L266.625 31.7505C266.637 31.7383 266.65 31.7262 266.662 31.7139L266.675 31.7003C266.785 31.5896 266.895 31.4765 267.002 31.3604ZM266.306 7.39897C266.228 7.3442 266.149 7.29045 266.069 7.23755L265.427 10.3784L268.721 9.73394C268.061 8.87608 267.219 8.07921 266.306 7.39897ZM253.54 10.3784L250.245 9.73394C250.905 8.87599 251.748 8.07912 252.661 7.39889C252.739 7.3442 252.818 7.29045 252.897 7.23755L253.54 10.3784ZM249.373 11.0478C248.505 12.6189 248.025 14.4166 248.025 16.3222H248.026V17.0382H248.742H270.225H270.941V16.3222C270.941 14.393 270.449 12.5742 269.561 10.9894L264.639 12.0256H264.496C264.281 12.0256 264.138 11.954 263.995 11.8107C263.851 11.6675 263.78 11.3811 263.78 11.1663L264.743 6.47789C264.21 6.2181 263.649 5.99593 263.064 5.8142V7.72881C263.064 8.15847 262.777 8.44488 262.348 8.44488C261.918 8.44488 261.631 8.15847 261.631 7.72881V4.86436V4.14829C261.631 3.71863 261.273 3.43222 260.915 3.43222H258.051C257.621 3.43222 257.335 3.79022 257.335 4.14829V4.86445V7.7289C257.335 8.15856 257.048 8.44497 256.619 8.44497C256.189 8.44497 255.903 8.15856 255.903 7.7289V5.8142C255.336 5.99013 254.793 6.2041 254.275 6.45323L255.258 11.2378C255.33 11.4527 255.258 11.7391 255.043 11.8823C254.999 11.8972 254.957 11.9122 254.917 11.9264C254.766 11.9807 254.641 12.0256 254.471 12.0256H254.327L249.373 11.0478ZM249.458 18.4704H269.509V21.3349C269.509 24.4574 268.438 27.2322 266.829 29.3413L266.787 29.3553L266.573 29.5701C266.212 30.0505 265.832 30.4885 265.435 30.8835C263.749 32.4543 261.737 33.4058 259.8 33.5001C259.702 33.4582 259.593 33.4371 259.483 33.4371C259.373 33.4371 259.274 33.4587 259.185 33.501C257.999 33.4466 256.785 33.0706 255.634 32.4274C254.468 31.7575 253.371 30.7919 252.394 29.5701L252.179 29.3553L252.137 29.3413C250.529 27.2321 249.458 24.4573 249.458 21.3349V18.4704H249.458ZM256.461 39.2173L258.391 34.8735C256.037 34.5863 253.94 33.3863 252.259 31.6671C252.16 31.5669 252.061 31.465 251.964 31.3605L251.678 32.6494L252.463 33.7276C252.489 33.7499 252.514 33.7725 252.537 33.7953L255.516 37.9195L256.461 39.2173ZM239.432 41.171C239.432 40.2401 239.933 39.3807 240.793 38.9511C245.357 36.5261 248.643 35.309 251.57 34.9455L255.844 40.8213L255.301 43.5341H239.432V41.171ZM263.665 43.5342H279.534V41.1711C279.534 40.2402 279.033 39.3808 278.174 38.8796C273.704 36.5383 270.359 35.3222 267.442 34.882L263.123 40.8215L263.665 43.5342Z" fill="#0F9696"/>
<path d="M314.875 199.891H316.219V201.234H314.875V199.891Z" fill="#0F9696"/>
<path d="M310.844 199.891H312.188V201.234H310.844V199.891Z" fill="#0F9696"/>
<path d="M322.266 199.891H323.609V201.234H322.266V199.891Z" fill="#0F9696"/>
<path d="M326.297 199.891H327.641V201.234H326.297V199.891Z" fill="#0F9696"/>
<path fill-rule="evenodd" clip-rule="evenodd" d="M324.281 172.344V179.062H331V199.219H311.516H310.844H308.828C308.425 199.219 308.156 198.95 308.156 198.547V179.734C308.156 179.331 308.425 179.062 308.828 179.062H310.844H311.516H314.875V172.344H313.531V171H314.875H324.281H325.625V172.344H324.281ZM309.5 197.875H310.844V180.406H309.5V197.875ZM316.219 172.344H322.938V179.062H316.219V172.344ZM312.188 197.875H329.656V180.406H312.188V197.875Z" fill="#0F9696"/>
<path fill-rule="evenodd" clip-rule="evenodd" d="M318.906 189.812H314.875C314.472 189.812 314.203 189.544 314.203 189.141V185.109C314.203 184.706 314.472 184.438 314.875 184.438H318.906C319.309 184.438 319.578 184.706 319.578 185.109V189.141C319.578 189.544 319.309 189.812 318.906 189.812ZM318.234 185.781H315.547V188.469H318.234V185.781Z" fill="#0F9696"/>
<path fill-rule="evenodd" clip-rule="evenodd" d="M323.005 196.666C322.803 196.666 322.669 196.599 322.534 196.464L320.116 194.113C319.847 193.844 319.847 193.441 320.116 193.172L322.803 190.552C323.072 190.283 323.475 190.283 323.744 190.552L326.095 192.903C326.364 193.172 326.364 193.575 326.095 193.844L323.475 196.464C323.341 196.599 323.206 196.666 323.005 196.666ZM324.617 193.374L323.206 191.963L321.594 193.642L322.938 195.053L324.617 193.374Z" fill="#0F9696"/>
<path fill-rule="evenodd" clip-rule="evenodd" d="M327.305 185.445C327.305 186.722 326.23 187.797 324.953 187.797C323.677 187.797 322.602 186.722 322.602 185.445C322.602 184.169 323.677 183.094 324.953 183.094C326.23 183.094 327.305 184.169 327.305 185.445ZM325.961 185.445C325.961 184.908 325.491 184.438 324.953 184.438C324.416 184.438 323.945 184.908 323.945 185.445C323.945 185.983 324.416 186.453 324.953 186.453C325.491 186.453 325.961 185.983 325.961 185.445Z" fill="#0F9696"/>
<path d="M298.481 180.272L299.422 179.331L300.362 180.272L301.303 179.331L300.362 178.391L301.303 177.45L300.362 176.509L299.422 177.45L298.481 176.509L297.541 177.45L298.481 178.391L297.541 179.331L298.481 180.272Z" fill="#0F9696"/>
<path fill-rule="evenodd" clip-rule="evenodd" d="M290.688 208.625C290.688 207.483 291.561 206.609 292.703 206.609C293.845 206.609 294.719 207.483 294.719 208.625C294.719 209.767 293.845 210.641 292.703 210.641C291.561 210.641 290.688 209.767 290.688 208.625ZM292.031 208.625C292.031 209.028 292.3 209.297 292.703 209.297C293.106 209.297 293.375 209.028 293.375 208.625C293.375 208.222 293.106 207.953 292.703 207.953C292.3 207.953 292.031 208.222 292.031 208.625Z" fill="#0F9696"/>
<path fill-rule="evenodd" clip-rule="evenodd" d="M297.406 208.625C297.406 207.483 298.28 206.609 299.422 206.609C300.564 206.609 301.438 207.483 301.438 208.625C301.438 209.767 300.564 210.641 299.422 210.641C298.28 210.641 297.406 209.767 297.406 208.625ZM298.75 208.625C298.75 209.028 299.019 209.297 299.422 209.297C299.825 209.297 300.094 209.028 300.094 208.625C300.094 208.222 299.825 207.953 299.422 207.953C299.019 207.953 298.75 208.222 298.75 208.625Z" fill="#0F9696"/>
<path fill-rule="evenodd" clip-rule="evenodd" d="M304.125 208.625C304.125 207.483 304.998 206.609 306.141 206.609C307.283 206.609 308.156 207.483 308.156 208.625C308.156 209.767 307.283 210.641 306.141 210.641C304.998 210.641 304.125 209.767 304.125 208.625ZM305.469 208.625C305.469 209.028 305.737 209.297 306.141 209.297C306.544 209.297 306.812 209.028 306.812 208.625C306.812 208.222 306.544 207.953 306.141 207.953C305.737 207.953 305.469 208.222 305.469 208.625Z" fill="#0F9696"/>
<path fill-rule="evenodd" clip-rule="evenodd" d="M310.844 208.625C310.844 207.483 311.717 206.609 312.859 206.609C314.002 206.609 314.875 207.483 314.875 208.625C314.875 209.767 314.002 210.641 312.859 210.641C311.717 210.641 310.844 209.767 310.844 208.625ZM312.188 208.625C312.188 209.028 312.456 209.297 312.859 209.297C313.263 209.297 313.531 209.028 313.531 208.625C313.531 208.222 313.263 207.953 312.859 207.953C312.456 207.953 312.188 208.222 312.188 208.625Z" fill="#0F9696"/>
<path fill-rule="evenodd" clip-rule="evenodd" d="M317.562 208.625C317.562 207.483 318.436 206.609 319.578 206.609C320.72 206.609 321.594 207.483 321.594 208.625C321.594 209.767 320.72 210.641 319.578 210.641C318.436 210.641 317.562 209.767 317.562 208.625ZM318.906 208.625C318.906 209.028 319.175 209.297 319.578 209.297C319.981 209.297 320.25 209.028 320.25 208.625C320.25 208.222 319.981 207.953 319.578 207.953C319.175 207.953 318.906 208.222 318.906 208.625Z" fill="#0F9696"/>
<path fill-rule="evenodd" clip-rule="evenodd" d="M324.281 208.625C324.281 207.483 325.155 206.609 326.297 206.609C327.439 206.609 328.312 207.483 328.312 208.625C328.312 209.767 327.439 210.641 326.297 210.641C325.155 210.641 324.281 209.767 324.281 208.625ZM325.625 208.625C325.625 209.028 325.894 209.297 326.297 209.297C326.7 209.297 326.969 209.028 326.969 208.625C326.969 208.222 326.7 207.953 326.297 207.953C325.894 207.953 325.625 208.222 325.625 208.625Z" fill="#0F9696"/>
<path fill-rule="evenodd" clip-rule="evenodd" d="M291.359 202.578H327.641C329.522 202.578 331 204.056 331 205.938V210.641C331 212.522 329.522 214 327.641 214H291.359C289.478 214 288 212.522 288 210.641V205.938C288 204.056 289.478 202.578 291.359 202.578ZM327.641 212.656C328.783 212.656 329.656 211.783 329.656 210.641V205.938C329.656 204.795 328.783 203.922 327.641 203.922H291.359C290.217 203.922 289.344 204.795 289.344 205.938V210.641C289.344 211.783 290.217 212.656 291.359 212.656H327.641Z" fill="#0F9696"/>
<path fill-rule="evenodd" clip-rule="evenodd" d="M306.141 193.172C306.141 191.559 304.998 190.216 303.453 189.88V187.797C303.453 187.394 303.184 187.125 302.781 187.125H293.375C292.972 187.125 292.703 187.394 292.703 187.797V189.812C290.822 189.812 289.344 191.291 289.344 193.172V201.234H306.141V193.172ZM294.047 188.469H302.109V189.812H294.047V188.469ZM292.703 195.188H290.688V197.203H292.703V195.188ZM304.797 197.203H302.781V195.188H304.797V197.203ZM301.438 193.844H304.797V193.172C304.797 192.298 304.259 191.559 303.453 191.291V192.5C303.453 192.903 303.184 193.172 302.781 193.172C302.378 193.172 302.109 192.903 302.109 192.5V191.156H294.047V192.5C294.047 192.903 293.778 193.172 293.375 193.172C292.972 193.172 292.703 192.903 292.703 192.5V191.156C291.561 191.156 290.688 192.03 290.688 193.172V193.844H294.047V198.547H290.688V199.891H304.797V198.547H301.438V193.844Z" fill="#0F9696"/>
<path d="M292.703 183.766H294.719C295.122 183.766 295.391 183.497 295.391 183.094C295.391 182.691 295.122 182.422 294.719 182.422H292.703C292.3 182.422 292.031 182.691 292.031 183.094C292.031 183.497 292.3 183.766 292.703 183.766Z" fill="#0F9696"/>
<path d="M306.141 175.031H308.156C308.559 175.031 308.828 174.763 308.828 174.359C308.828 173.956 308.559 173.688 308.156 173.688H306.141C305.738 173.688 305.469 173.956 305.469 174.359C305.469 174.763 305.738 175.031 306.141 175.031Z" fill="#0F9696"/>
<path fill-rule="evenodd" clip-rule="evenodd" d="M38.2085 210.949C38.2085 209.666 39.2565 208.623 40.5445 208.623C41.8326 208.623 42.8805 209.666 42.8805 210.949C42.8805 212.232 41.8326 213.276 40.5445 213.276C39.2564 213.276 38.2085 212.232 38.2085 210.949ZM39.5929 210.949C39.5929 211.472 40.0198 211.897 40.5444 211.897C41.0691 211.897 41.496 211.472 41.496 210.949C41.496 210.427 41.0691 210.002 40.5444 210.002C40.0198 210.002 39.5929 210.427 39.5929 210.949Z" fill="#0F9696"/>
<path fill-rule="evenodd" clip-rule="evenodd" d="M44.8002 206.417C46.0706 207.558 46.7945 209.125 46.8386 210.829C46.8825 212.532 46.2406 214.134 45.0309 215.339C43.8605 216.505 42.3154 217.142 40.6664 217.142C40.6189 217.142 40.5713 217.142 40.5237 217.141C38.8213 217.103 37.2509 216.393 36.1018 215.141L25.6999 203.811C25.4419 203.53 25.4615 203.093 25.7435 202.836C26.0256 202.579 26.4633 202.599 26.7215 202.88L37.1235 214.21C38.0151 215.182 39.2337 215.733 40.5546 215.762C41.873 215.79 43.1177 215.295 44.0519 214.364C44.9907 213.429 45.4888 212.186 45.4547 210.864C45.4206 209.543 44.8588 208.327 43.873 207.441L29.8831 194.872L29.0552 195.697L29.7358 196.375C30.2172 196.854 30.4822 197.492 30.4822 198.17C30.4822 198.848 30.2172 199.486 29.7358 199.965L28.1369 201.558C27.9428 201.751 27.6528 201.812 27.3968 201.713C26.0129 201.178 24.4413 201.507 23.3925 202.551C22.344 203.596 22.0137 205.161 22.5509 206.54C22.6503 206.795 22.5891 207.084 22.3952 207.277L13.9194 215.72C12.8079 216.827 11.33 217.437 9.75814 217.437C8.18623 217.437 6.70837 216.827 5.5967 215.719C3.30223 213.434 3.30223 209.715 5.5967 207.429L14.0725 198.987C14.2666 198.794 14.5568 198.733 14.8126 198.832C16.1966 199.367 17.7681 199.038 18.8167 197.993C19.097 197.714 19.3243 197.397 19.4991 197.056L15.8615 193.094C12.0823 194.31 7.89311 193.32 5.07037 190.509C2.10637 187.556 1.16181 183.127 2.6642 179.225C2.7482 179.007 2.9372 178.846 3.16652 178.798C3.39593 178.749 3.63417 178.82 3.80005 178.985L9.23473 184.398C9.39558 184.558 9.60937 184.647 9.83675 184.647C10.0641 184.647 10.2779 184.558 10.4387 184.398L13.968 180.883C14.1289 180.722 14.2175 180.509 14.2175 180.283C14.2175 180.056 14.1288 179.843 13.968 179.683L8.53343 174.27C8.36764 174.105 8.29714 173.867 8.34584 173.639C8.39455 173.41 8.55611 173.222 8.77502 173.138C12.6925 171.642 17.1388 172.583 20.1028 175.535C22.9964 178.417 23.9624 182.673 22.6285 186.497L27.3334 190.724L31.6564 186.418C31.9268 186.149 32.365 186.149 32.6354 186.418C32.9058 186.688 32.9058 187.124 32.6354 187.393L26.6773 193.328L28.0761 194.722L41.7261 181.125L40.3273 179.732L34.9898 185.048C34.7194 185.317 34.2812 185.317 34.0108 185.048C33.7404 184.779 33.7404 184.342 34.0108 184.073L39.8272 178.279C39.8515 178.198 39.8831 178.118 39.9242 178.04L41.3327 175.382C41.5274 175.015 41.8755 174.769 42.2877 174.707C42.7003 174.645 43.1055 174.777 43.4004 175.071L46.405 178.064C46.6998 178.358 46.8331 178.762 46.7708 179.172C46.7086 179.583 46.4614 179.93 46.0927 180.123L43.4242 181.526C43.347 181.567 43.267 181.597 43.186 181.621L30.8632 193.896L44.8002 206.417ZM42.5031 176.128L41.1779 178.628L42.8336 180.278L45.3442 178.958L42.5031 176.128ZM16.5757 191.829C16.3851 191.621 16.0874 191.55 15.8229 191.648C12.4379 192.906 8.60128 192.076 6.04925 189.534C3.73202 187.226 2.83414 183.879 3.62534 180.761L8.25567 185.373C8.67805 185.794 9.23949 186.026 9.83667 186.026C10.4338 186.026 10.9953 185.794 11.4176 185.373L14.9469 181.858C15.3692 181.437 15.6017 180.878 15.6017 180.283C15.6017 179.688 15.3692 179.129 14.9469 178.708L10.3167 174.096C13.4468 173.307 16.8066 174.202 19.1238 176.51C21.7408 179.117 22.5449 183.015 21.1728 186.44C21.0654 186.708 21.1369 187.014 21.3521 187.208L26.3532 191.701L25.6983 192.353L25.0177 191.675C24.5363 191.196 23.8962 190.932 23.2154 190.932C22.5347 190.932 21.8945 191.196 21.4131 191.675L19.8143 193.268C19.6204 193.461 19.5592 193.75 19.6586 194.005C19.8427 194.477 19.9226 194.971 19.9089 195.459L16.5757 191.829ZM27.4611 200.28L28.7566 198.99C29.2107 198.538 29.2107 197.802 28.7566 197.35L27.5865 196.184L25.2088 193.816L24.0388 192.65C23.5849 192.198 22.8461 192.198 22.3922 192.65L21.0966 193.941C21.6104 195.716 21.123 197.647 19.796 198.968C18.4687 200.29 16.5303 200.776 14.7485 200.264L6.57602 208.405C4.82128 210.153 4.82128 212.997 6.57602 214.744C7.4259 215.591 8.5562 216.057 9.75823 216.057C10.9603 216.057 12.0904 215.591 12.9404 214.744L21.113 206.604C20.5992 204.829 21.0865 202.898 22.4135 201.576H22.4136C23.7408 200.254 25.6795 199.769 27.4611 200.28Z" fill="#0F9696"/>
<path d="M16.1348 202.868C15.8644 202.599 15.4262 202.599 15.1557 202.868L8.59827 209.4C8.32792 209.67 8.32792 210.106 8.59827 210.376C8.73345 210.51 8.91071 210.577 9.0878 210.577C9.26489 210.577 9.44215 210.51 9.57733 210.376L16.1348 203.844C16.4051 203.574 16.4051 203.138 16.1348 202.868Z" fill="#0F9696"/>
<path d="M18.5577 205.282C18.2873 205.013 17.849 205.013 17.5786 205.282L11.0211 211.814C10.7508 212.083 10.7508 212.52 11.0211 212.789C11.1563 212.924 11.3335 212.991 11.5107 212.991C11.6877 212.991 11.865 212.924 12.0002 212.789L18.5577 206.257C18.828 205.988 18.828 205.551 18.5577 205.282Z" fill="#0F9696"/>
<path fill-rule="evenodd" clip-rule="evenodd" d="M79.3408 43.6819H77.1819V34.6214C77.6133 34.2421 77.8864 33.6867 77.8864 33.0684C77.8864 31.9279 76.9585 31.0001 75.8182 31.0001H71.5056L70.8397 20.3455C70.818 19.9981 70.5299 19.7275 70.1818 19.7275H67.3636C67.0156 19.7275 66.7275 19.9981 66.7058 20.3455L66.0398 31.0001H64.4601L63.7942 20.3455C63.7725 19.9981 63.4844 19.7275 63.1363 19.7275H60.3182C59.9702 19.7275 59.6821 19.9981 59.6604 20.3455L58.9944 31.0001H57.4147L56.7488 20.3455C56.7271 19.9981 56.439 19.7275 56.0909 19.7275H53.2728C52.9248 19.7275 52.6367 19.9981 52.615 20.3455L51.949 31.0001H50.113L49.7046 12.622C49.6967 12.2638 49.404 11.9775 49.0456 11.9775H44.8183C44.46 11.9775 44.1673 12.2638 44.1593 12.622L43.6883 33.8184H38.4773C37.3368 33.8184 36.4091 34.7462 36.4091 35.8866C36.4091 36.5049 36.6821 37.0603 37.1136 37.4396V43.6819H35.6592C35.2951 43.6819 35 43.977 35 44.3411C35 44.7051 35.2951 45.0002 35.6592 45.0002H79.3408C79.7049 45.0002 80 44.7051 80 44.3411C80 43.977 79.7049 43.6819 79.3408 43.6819ZM43.6255 36.6366H41.2958C40.9317 36.6366 40.6366 36.9317 40.6366 37.2958C40.6366 37.6598 40.9317 37.9549 41.2958 37.9549H43.5962L43.469 43.6819H38.432V37.9537L38.4481 37.9542L38.4483 37.9542C38.4579 37.9545 38.4676 37.9548 38.4773 37.9548C38.8413 37.9548 39.1365 37.6597 39.1365 37.2957C39.1365 36.9316 38.8413 36.6365 38.4773 36.6365C38.0638 36.6365 37.7274 36.3 37.7274 35.8866C37.7274 35.4731 38.0639 35.1367 38.4773 35.1367H43.6588L43.6255 36.6366ZM69.5625 21.0458H67.9828L67.3607 31.0001H70.1846L69.5625 21.0458ZM60.9374 21.0458H62.5171L63.1392 31.0001H60.3153L60.9374 21.0458ZM55.4717 21.0458H53.892L53.2698 31.0001H56.0938L55.4717 21.0458ZM46.2728 43.6819H44.7878L45.4629 13.2958H48.4008L48.7943 31.0001H47.6365C46.496 31.0001 45.5681 31.928 45.5681 33.0684C45.5681 33.6867 45.8412 34.2421 46.2728 34.6214V43.6819ZM74.4091 33.8183H75.8182C76.2316 33.8183 76.568 33.4819 76.568 33.0684C76.568 32.6549 76.2316 32.3185 75.8181 32.3185H47.6364C47.2229 32.3185 46.8864 32.655 46.8864 33.0684C46.8864 33.4818 47.2229 33.8183 47.6364 33.8183H71.5914C71.9555 33.8183 72.2506 34.1134 72.2506 34.4775C72.2506 34.8415 71.9555 35.1366 71.5914 35.1366H47.6364C47.6266 35.1366 47.6169 35.1363 47.6072 35.136C47.6018 35.1358 47.5964 35.1356 47.591 35.1355V43.6819H75.8635V35.1355C75.8529 35.1357 75.8424 35.1362 75.8318 35.1364C75.8273 35.1366 75.8227 35.1366 75.8182 35.1366H74.4091C74.0451 35.1366 73.7499 34.8415 73.7499 34.4775C73.7499 34.1134 74.0451 33.8183 74.4091 33.8183Z" fill="#0F9696"/>
<path d="M71.5907 0C69.6049 0 67.7117 0.693018 66.1983 1.96295C65.1118 1.14768 63.7951 0.704531 62.4316 0.704531C60.7765 0.704531 59.1964 1.358 58.0219 2.51332C57.4131 2.25079 56.7545 2.11359 56.0908 2.11359C54.131 2.11359 52.384 3.28702 51.6172 5.04316C51.3527 4.96907 51.0818 4.93172 50.8067 4.93172C49.445 4.93172 48.274 5.81722 47.8558 7.05762C47.7829 7.04953 47.7096 7.0454 47.6362 7.0454C46.4957 7.0454 45.5679 7.97326 45.5679 9.11364C45.568 9.47777 45.8631 9.77291 46.2271 9.77291C46.5912 9.77291 46.8863 9.47777 46.8863 9.11373C46.8863 8.7002 47.2228 8.36385 47.6363 8.36385C47.7671 8.36385 47.8953 8.40085 48.0173 8.47389C48.2149 8.5921 48.4597 8.5986 48.6634 8.49129C48.8669 8.38389 48.9998 8.17805 49.0137 7.94821C49.0715 6.99609 49.859 6.25025 50.8066 6.25025C51.1062 6.25025 51.402 6.3312 51.6855 6.4909C51.8631 6.59101 52.0773 6.60313 52.2653 6.52377C52.4533 6.4444 52.5938 6.28251 52.6461 6.08528C53.06 4.52312 54.4765 3.43204 56.0907 3.43204C56.7024 3.43204 57.3084 3.592 57.8431 3.89452C58.1165 4.04921 58.4612 3.98953 58.6666 3.7517C59.6154 2.65307 60.9878 2.02298 62.4315 2.02298C63.666 2.02298 64.8528 2.48379 65.7734 3.32042C66.0303 3.55386 66.4242 3.54814 66.6742 3.30724C68.0049 2.02465 69.7509 1.31836 71.5907 1.31836C75.5006 1.31836 78.6815 4.4993 78.6815 8.40911C78.6815 12.3189 75.5006 15.4999 71.5907 15.4999C68.9949 15.4999 66.6085 14.0825 65.363 11.801C65.1969 11.4967 64.8235 11.3731 64.5087 11.5182C63.8475 11.8227 63.1487 11.9771 62.4316 11.9771C60.9878 11.9771 59.6155 11.347 58.6667 10.2484C58.4613 10.0107 58.1166 9.95089 57.8432 10.1056C57.3085 10.4081 56.7025 10.5681 56.0908 10.5681C54.9768 10.5681 53.946 10.058 53.2629 9.16875C53.1388 9.00729 52.9471 8.9122 52.7434 8.91114C52.7423 8.91114 52.7412 8.91114 52.7402 8.91114C52.5378 8.91114 52.3464 9.00422 52.2215 9.16356C51.8727 9.60838 51.3571 9.86344 50.8067 9.86344C50.4426 9.86344 50.1475 10.1586 50.1475 10.5226C50.1475 10.8867 50.4426 11.1818 50.8067 11.1818C51.5053 11.1818 52.1698 10.9484 52.7112 10.5249C53.6157 11.3975 54.8129 11.8863 56.0908 11.8863C56.7545 11.8863 57.4131 11.7491 58.0219 11.4867C59.1964 12.642 60.7766 13.2955 62.4316 13.2955C63.142 13.2955 63.8376 13.1762 64.5065 12.9404C66.0466 15.3464 68.7097 16.8182 71.5907 16.8182C76.2276 16.8182 79.9998 13.0459 79.9998 8.40911C79.9998 3.77235 76.2276 0 71.5907 0Z" fill="#0F9696"/>
<path d="M51.8638 36.6362C51.4997 36.6362 51.2046 36.9314 51.2046 37.2954V38.7045C51.2046 39.0685 51.4997 39.3637 51.8638 39.3637C52.2278 39.3637 52.5229 39.0685 52.5229 38.7045V37.2954C52.5229 36.9314 52.2278 36.6362 51.8638 36.6362Z" fill="#0F9696"/>
<path d="M54.6816 36.6362C54.3176 36.6362 54.0225 36.9314 54.0225 37.2954V38.7045C54.0225 39.0685 54.3176 39.3637 54.6816 39.3637C55.0457 39.3637 55.3408 39.0685 55.3408 38.7045V37.2954C55.3408 36.9314 55.0457 36.6362 54.6816 36.6362Z" fill="#0F9696"/>
<path d="M57.5 36.6362C57.136 36.6362 56.8408 36.9314 56.8408 37.2954V38.7045C56.8408 39.0685 57.136 39.3637 57.5 39.3637C57.864 39.3637 58.1592 39.0685 58.1592 38.7045V37.2954C58.1592 36.9314 57.864 36.6362 57.5 36.6362Z" fill="#0F9696"/>
<path d="M60.3184 36.6362C59.9543 36.6362 59.6592 36.9314 59.6592 37.2954V38.7045C59.6592 39.0685 59.9543 39.3637 60.3184 39.3637C60.6824 39.3637 60.9775 39.0685 60.9775 38.7045V37.2954C60.9775 36.9314 60.6825 36.6362 60.3184 36.6362Z" fill="#0F9696"/>
<path d="M63.1362 36.6362C62.7722 36.6362 62.4771 36.9314 62.4771 37.2954V38.7045C62.4771 39.0685 62.7722 39.3637 63.1362 39.3637C63.5003 39.3637 63.7954 39.0685 63.7954 38.7045V37.2954C63.7954 36.9314 63.5003 36.6362 63.1362 36.6362Z" fill="#0F9696"/>
<path d="M65.9546 36.6362C65.5905 36.6362 65.2954 36.9314 65.2954 37.2954V38.7045C65.2954 39.0685 65.5905 39.3637 65.9546 39.3637C66.3186 39.3637 66.6138 39.0685 66.6138 38.7045V37.2954C66.6138 36.9314 66.3186 36.6362 65.9546 36.6362Z" fill="#0F9696"/>
<path d="M68.7725 36.6362C68.4084 36.6362 68.1133 36.9314 68.1133 37.2954V38.7045C68.1133 39.0685 68.4084 39.3637 68.7725 39.3637C69.1365 39.3637 69.4316 39.0685 69.4316 38.7045V37.2954C69.4316 36.9314 69.1365 36.6362 68.7725 36.6362Z" fill="#0F9696"/>
<path d="M71.5908 36.6362C71.2268 36.6362 70.9316 36.9314 70.9316 37.2954V38.7045C70.9316 39.0685 71.2268 39.3637 71.5908 39.3637C71.9549 39.3637 72.25 39.0685 72.25 38.7045V37.2954C72.25 36.9314 71.9549 36.6362 71.5908 36.6362Z" fill="#0F9696"/>
<path d="M170.501 172.103C170.294 172.16 170.086 172.235 169.878 172.273C169.349 172.405 168.82 172.518 168.273 172.575L160.037 175.975C160.056 175.975 160.075 175.975 160.113 175.975C160.528 175.918 160.963 175.862 161.359 175.767C161.454 175.748 161.548 175.711 161.643 175.692C161.85 175.635 162.058 175.578 162.266 175.522C162.474 175.465 162.682 175.427 162.87 175.352C163.116 175.257 163.362 175.182 163.607 175.068L171.843 171.668C171.408 171.838 170.955 171.971 170.501 172.103Z" fill="url(#paint0_linear)"/>
<path d="M160.037 175.976C165.137 175.39 169.349 171.971 171.219 167.173L181.627 175.126L164.457 188.537L160.037 175.976Z" fill="url(#paint1_linear)"/>
<path d="M171.219 167.173L179.455 163.773L189.862 171.725L181.627 175.125L171.219 167.173Z" fill="url(#paint2_linear)"/>
<path d="M181.627 175.126L189.862 171.726L172.693 185.137L164.457 188.537L181.627 175.126Z" fill="url(#paint3_linear)"/>
<path d="M168.821 146.585L179.153 139.482L185.745 161.922L173.373 161.167C173.524 160.279 173.637 159.391 173.637 158.447C173.694 153.857 171.824 149.626 168.821 146.585Z" fill="url(#paint4_linear)"/>
<path d="M179.153 139.501L187.408 136.082L194 158.522L185.764 161.922L179.153 139.501Z" fill="url(#paint5_linear)"/>
<path d="M140.922 165.908C142.716 170.97 146.872 174.937 151.953 176.202L147.287 188.14L130.382 172.443L140.922 165.908Z" fill="url(#paint6_linear)"/>
<path d="M160.189 172.783C159.565 172.632 158.961 172.424 158.375 172.197C158.338 172.178 158.3 172.159 158.243 172.141C157.676 171.914 157.11 171.649 156.581 171.347C156.581 171.347 156.581 171.347 156.562 171.347C156.071 171.083 155.599 170.762 155.145 170.441C155.013 170.346 154.862 170.252 154.73 170.138C154.428 169.912 154.163 169.666 153.88 169.44C153.653 169.251 153.426 169.062 153.219 168.854C152.935 168.571 152.652 168.287 152.388 167.985C152.255 167.834 152.123 167.683 151.991 167.532C151.632 167.078 151.273 166.625 150.952 166.134C150.933 166.115 150.914 166.077 150.895 166.058C150.555 165.548 150.253 165.001 149.97 164.453C149.875 164.283 149.8 164.094 149.724 163.924C149.516 163.452 149.29 162.998 149.12 162.507L140.884 165.907C140.941 166.096 141.016 166.266 141.092 166.455C141.205 166.757 141.356 167.041 141.489 167.324C141.564 167.494 141.64 167.683 141.734 167.853C142.018 168.401 142.32 168.948 142.66 169.458C142.679 169.477 142.698 169.515 142.716 169.534C143.038 170.025 143.378 170.478 143.755 170.932C143.888 171.083 144.02 171.234 144.152 171.385C144.36 171.612 144.549 171.838 144.756 172.046C144.832 172.122 144.908 172.178 144.983 172.254C145.191 172.462 145.418 172.651 145.644 172.839C145.814 172.991 145.965 173.161 146.154 173.293C146.268 173.387 146.381 173.463 146.494 173.538C146.626 173.633 146.759 173.746 146.91 173.841C147.042 173.935 147.155 174.029 147.288 174.124C147.628 174.351 147.968 174.558 148.308 174.747C148.308 174.747 148.308 174.747 148.326 174.747C148.629 174.917 148.95 175.087 149.271 175.219C149.516 175.333 149.743 175.427 149.989 175.522C150.026 175.541 150.064 175.559 150.121 175.578C150.14 175.597 150.178 175.597 150.196 175.616C150.499 175.729 150.801 175.843 151.103 175.937C151.368 176.032 151.651 176.107 151.934 176.164L160.189 172.783Z" fill="url(#paint7_linear)"/>
<path d="M151.953 176.202L160.189 172.783L155.542 184.72L147.288 188.139L151.953 176.202Z" fill="url(#paint8_linear)"/>
<path d="M126 160.77L133.008 139.256L143.17 147.718C140.129 150.344 138.164 154.329 138.127 158.938C138.127 159.882 138.202 160.789 138.334 161.696L126 160.77Z" fill="url(#paint9_linear)"/>
<path d="M133.008 139.255L141.243 135.855L151.424 144.318L143.17 147.737L133.008 139.255Z" fill="url(#paint10_linear)"/>
<path d="M146.419 156.671C146.4 156.293 146.381 155.915 146.381 155.537C146.381 155.009 146.419 154.48 146.476 153.97C146.495 153.875 146.495 153.781 146.513 153.686C146.57 153.195 146.646 152.723 146.759 152.251C146.778 152.213 146.778 152.156 146.797 152.119C146.891 151.684 147.023 151.25 147.156 150.834C147.174 150.759 147.212 150.664 147.231 150.589C147.382 150.154 147.552 149.72 147.741 149.304C147.798 149.191 147.836 149.096 147.892 148.983C148.043 148.681 148.194 148.379 148.364 148.076C148.459 147.925 148.553 147.755 148.648 147.604C148.78 147.378 148.931 147.17 149.082 146.962C149.252 146.716 149.422 146.49 149.592 146.263C149.781 146.036 149.97 145.81 150.159 145.583C150.253 145.489 150.348 145.375 150.442 145.281C150.763 144.941 151.084 144.639 151.424 144.336L143.189 147.736C142.849 148.039 142.509 148.36 142.207 148.681C142.112 148.775 142.018 148.889 141.923 148.983C141.81 149.115 141.678 149.248 141.565 149.38C141.489 149.455 141.432 149.569 141.376 149.644C141.206 149.871 141.017 150.098 140.866 150.343C140.79 150.456 140.696 150.57 140.62 150.683C140.563 150.777 140.507 150.891 140.45 150.985C140.356 151.136 140.261 151.287 140.167 151.457C140.091 151.571 140.016 151.684 139.959 151.797C139.865 151.986 139.77 152.175 139.695 152.364C139.638 152.477 139.581 152.572 139.543 152.685C139.525 152.742 139.487 152.78 139.468 152.836C139.336 153.157 139.203 153.479 139.071 153.819C139.052 153.875 139.033 153.932 139.015 153.97C138.996 154.045 138.958 154.14 138.939 154.215C138.882 154.404 138.826 154.574 138.769 154.763C138.693 155.009 138.637 155.254 138.58 155.519C138.561 155.556 138.561 155.613 138.542 155.651C138.542 155.67 138.523 155.689 138.523 155.707C138.448 156.029 138.391 156.331 138.353 156.652C138.335 156.784 138.316 156.935 138.297 157.086C138.278 157.181 138.278 157.275 138.259 157.37C138.24 157.464 138.24 157.54 138.221 157.634C138.183 157.974 138.165 158.295 138.165 158.635C138.165 158.73 138.165 158.824 138.165 158.937C138.165 159.164 138.165 159.391 138.183 159.636C138.183 159.787 138.202 159.939 138.221 160.09C138.221 160.241 138.24 160.373 138.259 160.524C138.259 160.6 138.259 160.675 138.278 160.751C138.316 161.072 138.353 161.393 138.41 161.714L146.646 158.314C146.589 157.917 146.532 157.521 146.495 157.124C146.438 156.954 146.419 156.822 146.419 156.671Z" fill="url(#paint11_linear)"/>
<path d="M150.461 141.597L158.696 138.197C158.299 138.367 157.903 138.537 157.525 138.745L149.29 142.145C149.667 141.937 150.064 141.767 150.461 141.597Z" fill="#828282"/>
<path d="M149.289 142.146L145.682 129.584L167.612 131.058L163.758 143.128C161.643 141.692 159.187 140.804 156.543 140.616C153.917 140.427 151.443 141.012 149.289 142.146Z" fill="url(#paint12_linear)"/>
<path d="M145.683 129.566L153.919 126.166L175.848 127.658L167.613 131.058L145.683 129.566Z" fill="url(#paint13_linear)"/>
<path d="M167.612 131.057L175.847 127.657L172.013 139.708L163.758 143.127L167.612 131.057Z" fill="url(#paint14_linear)"/>
<path d="M22.8291 57.5566H18.7412V60.6191H23.5195V62H17.0117V52.0469H23.4717V53.4414H18.7412V56.1895H22.8291V57.5566Z" fill="#0F9696"/>
<path d="M27.0086 54.6035L27.0564 55.458C27.6033 54.7972 28.3211 54.4668 29.2098 54.4668C30.7501 54.4668 31.534 55.3486 31.5613 57.1123V62H29.9002V57.208C29.9002 56.7386 29.7977 56.3923 29.5926 56.1689C29.3921 55.9411 29.0617 55.8271 28.6014 55.8271C27.9314 55.8271 27.4324 56.1302 27.1043 56.7363V62H25.4432V54.6035H27.0086Z" fill="#0F9696"/>
<path d="M36.568 59.8945L38.1334 54.6035H39.8492L37.2857 62H35.8434L33.2594 54.6035H34.982L36.568 59.8945Z" fill="#0F9696"/>
<path d="M43.3588 62H41.6977V54.6035H43.3588V62ZM41.5951 52.6826C41.5951 52.4274 41.6749 52.2155 41.8344 52.0469C41.9984 51.8783 42.2309 51.7939 42.5316 51.7939C42.8324 51.7939 43.0648 51.8783 43.2289 52.0469C43.393 52.2155 43.475 52.4274 43.475 52.6826C43.475 52.9333 43.393 53.1429 43.2289 53.3115C43.0648 53.4756 42.8324 53.5576 42.5316 53.5576C42.2309 53.5576 41.9984 53.4756 41.8344 53.3115C41.6749 53.1429 41.5951 52.9333 41.5951 52.6826Z" fill="#0F9696"/>
<path d="M49.7463 56.1211C49.5275 56.0846 49.302 56.0664 49.0695 56.0664C48.3085 56.0664 47.7958 56.3581 47.5314 56.9414V62H45.8703V54.6035H47.4562L47.4973 55.4307C47.8983 54.7881 48.4543 54.4668 49.1652 54.4668C49.4022 54.4668 49.5982 54.4987 49.7531 54.5625L49.7463 56.1211Z" fill="#0F9696"/>
<path d="M50.9385 58.2334C50.9385 57.5088 51.082 56.8571 51.3691 56.2783C51.6562 55.695 52.0596 55.2484 52.5791 54.9385C53.0986 54.624 53.6956 54.4668 54.3701 54.4668C55.3682 54.4668 56.1771 54.7881 56.7969 55.4307C57.4212 56.0732 57.7585 56.9255 57.8086 57.9873L57.8154 58.377C57.8154 59.1061 57.6742 59.7578 57.3916 60.332C57.1136 60.9062 56.7126 61.3506 56.1885 61.665C55.6689 61.9795 55.0674 62.1367 54.3838 62.1367C53.3402 62.1367 52.5039 61.7904 51.875 61.0977C51.2507 60.4004 50.9385 59.473 50.9385 58.3154V58.2334ZM52.5996 58.377C52.5996 59.138 52.7568 59.735 53.0713 60.168C53.3857 60.5964 53.8232 60.8105 54.3838 60.8105C54.9443 60.8105 55.3796 60.5918 55.6895 60.1543C56.0039 59.7168 56.1611 59.0765 56.1611 58.2334C56.1611 57.486 55.9993 56.8936 55.6758 56.4561C55.3568 56.0186 54.9215 55.7998 54.3701 55.7998C53.8278 55.7998 53.3971 56.0163 53.0781 56.4492C52.7591 56.8776 52.5996 57.5202 52.5996 58.377Z" fill="#0F9696"/>
<path d="M61.4617 54.6035L61.5096 55.458C62.0564 54.7972 62.7742 54.4668 63.6629 54.4668C65.2033 54.4668 65.9871 55.3486 66.0145 57.1123V62H64.3533V57.208C64.3533 56.7386 64.2508 56.3923 64.0457 56.1689C63.8452 55.9411 63.5148 55.8271 63.0545 55.8271C62.3846 55.8271 61.8855 56.1302 61.5574 56.7363V62H59.8963V54.6035H61.4617Z" fill="#0F9696"/>
<path d="M69.9752 54.6035L70.023 55.376C70.5426 54.7699 71.2535 54.4668 72.1559 54.4668C73.1448 54.4668 73.8216 54.8451 74.1861 55.6016C74.7239 54.8451 75.4804 54.4668 76.4557 54.4668C77.2714 54.4668 77.8775 54.6924 78.274 55.1436C78.6751 55.5947 78.8801 56.2601 78.8893 57.1396V62H77.2281V57.1875C77.2281 56.7181 77.1256 56.374 76.9205 56.1553C76.7154 55.9365 76.3759 55.8271 75.902 55.8271C75.5237 55.8271 75.2138 55.9297 74.9723 56.1348C74.7353 56.3353 74.5689 56.5996 74.4732 56.9277L74.4801 62H72.8189V57.1328C72.7962 56.2624 72.3518 55.8271 71.4859 55.8271C70.8206 55.8271 70.3489 56.0983 70.0709 56.6406V62H68.4098V54.6035H69.9752Z" fill="#0F9696"/>
<path d="M84.5521 62.1367C83.4994 62.1367 82.6449 61.8063 81.9887 61.1455C81.337 60.4801 81.0111 59.596 81.0111 58.4932V58.2881C81.0111 57.5498 81.1524 56.8913 81.435 56.3125C81.7221 55.7292 82.1231 55.2757 82.6381 54.9521C83.1531 54.6286 83.7273 54.4668 84.3607 54.4668C85.3679 54.4668 86.1449 54.7881 86.6918 55.4307C87.2432 56.0732 87.5189 56.9824 87.5189 58.1582V58.8281H82.6859C82.7361 59.4388 82.9389 59.9219 83.2943 60.2773C83.6544 60.6328 84.1055 60.8105 84.6479 60.8105C85.4089 60.8105 86.0287 60.5029 86.5072 59.8877L87.4027 60.7422C87.1065 61.1842 86.71 61.5283 86.2133 61.7744C85.7211 62.016 85.1674 62.1367 84.5521 62.1367ZM84.3539 55.7998C83.8982 55.7998 83.529 55.9593 83.2465 56.2783C82.9685 56.5973 82.7908 57.0417 82.7133 57.6113H85.8783V57.4883C85.8419 56.9323 85.6937 56.513 85.434 56.2305C85.1742 55.9434 84.8142 55.7998 84.3539 55.7998Z" fill="#0F9696"/>
<path d="M91.0559 54.6035L91.1037 55.458C91.6506 54.7972 92.3684 54.4668 93.257 54.4668C94.7974 54.4668 95.5813 55.3486 95.6086 57.1123V62H93.9475V57.208C93.9475 56.7386 93.8449 56.3923 93.6398 56.1689C93.4393 55.9411 93.1089 55.8271 92.6486 55.8271C91.9787 55.8271 91.4797 56.1302 91.1516 56.7363V62H89.4904V54.6035H91.0559Z" fill="#0F9696"/>
<path d="M100.089 52.8057V54.6035H101.395V55.834H100.089V59.9629C100.089 60.2454 100.144 60.4505 100.253 60.5781C100.367 60.7012 100.567 60.7627 100.854 60.7627C101.046 60.7627 101.24 60.7399 101.436 60.6943V61.9795C101.057 62.0843 100.693 62.1367 100.342 62.1367C99.0658 62.1367 98.4277 61.4326 98.4277 60.0244V55.834H97.2109V54.6035H98.4277V52.8057H100.089Z" fill="#0F9696"/>
<path d="M249.254 52.0469L252.125 59.6758L254.989 52.0469H257.225V62H255.502V58.7188L255.673 54.3301L252.733 62H251.496L248.563 54.3369L248.734 58.7188V62H247.012V52.0469H249.254Z" fill="#0F9696"/>
<path d="M264.234 62C264.161 61.8587 264.097 61.6286 264.043 61.3096C263.514 61.861 262.867 62.1367 262.101 62.1367C261.359 62.1367 260.752 61.9248 260.283 61.501C259.814 61.0771 259.579 60.5531 259.579 59.9287C259.579 59.1403 259.871 58.5365 260.454 58.1172C261.042 57.6934 261.88 57.4814 262.97 57.4814H263.988V56.9961C263.988 56.6133 263.881 56.3079 263.667 56.0801C263.453 55.8477 263.127 55.7314 262.689 55.7314C262.311 55.7314 262.001 55.8271 261.76 56.0186C261.518 56.2054 261.397 56.4447 261.397 56.7363H259.736C259.736 56.3307 259.871 55.9525 260.139 55.6016C260.408 55.2461 260.773 54.9681 261.233 54.7676C261.698 54.5671 262.215 54.4668 262.785 54.4668C263.651 54.4668 264.341 54.6855 264.856 55.123C265.371 55.556 265.636 56.1667 265.649 56.9551V60.291C265.649 60.9564 265.743 61.4873 265.929 61.8838V62H264.234ZM262.409 60.8037C262.737 60.8037 263.045 60.724 263.332 60.5645C263.624 60.4049 263.842 60.1908 263.988 59.9219V58.5273H263.093C262.477 58.5273 262.015 58.6344 261.705 58.8486C261.395 59.0628 261.24 59.3659 261.24 59.7578C261.24 60.0768 261.345 60.332 261.554 60.5234C261.769 60.7103 262.054 60.8037 262.409 60.8037Z" fill="#0F9696"/>
<path d="M269.63 54.6035L269.678 55.458C270.225 54.7972 270.943 54.4668 271.832 54.4668C273.372 54.4668 274.156 55.3486 274.183 57.1123V62H272.522V57.208C272.522 56.7386 272.42 56.3923 272.214 56.1689C272.014 55.9411 271.684 55.8271 271.223 55.8271C270.553 55.8271 270.054 56.1302 269.726 56.7363V62H268.065V54.6035H269.63Z" fill="#0F9696"/>
<path d="M287.254 223.047L290.125 230.676L292.989 223.047H295.225V233H293.502V229.719L293.673 225.33L290.733 233H289.496L286.563 225.337L286.734 229.719V233H285.012V223.047H287.254Z" fill="#0F9696"/>
<path d="M302.234 233C302.161 232.859 302.097 232.629 302.043 232.31C301.514 232.861 300.867 233.137 300.101 233.137C299.359 233.137 298.752 232.925 298.283 232.501C297.814 232.077 297.579 231.553 297.579 230.929C297.579 230.14 297.871 229.536 298.454 229.117C299.042 228.693 299.88 228.481 300.97 228.481H301.988V227.996C301.988 227.613 301.881 227.308 301.667 227.08C301.453 226.848 301.127 226.731 300.689 226.731C300.311 226.731 300.001 226.827 299.76 227.019C299.518 227.205 299.397 227.445 299.397 227.736H297.736C297.736 227.331 297.871 226.952 298.139 226.602C298.408 226.246 298.773 225.968 299.233 225.768C299.698 225.567 300.215 225.467 300.785 225.467C301.651 225.467 302.341 225.686 302.856 226.123C303.371 226.556 303.636 227.167 303.649 227.955V231.291C303.649 231.956 303.743 232.487 303.929 232.884V233H302.234ZM300.409 231.804C300.737 231.804 301.045 231.724 301.332 231.564C301.624 231.405 301.842 231.191 301.988 230.922V229.527H301.093C300.477 229.527 300.015 229.634 299.705 229.849C299.395 230.063 299.24 230.366 299.24 230.758C299.24 231.077 299.345 231.332 299.554 231.523C299.769 231.71 300.054 231.804 300.409 231.804Z" fill="#0F9696"/>
<path d="M309.128 231.811C309.542 231.811 309.886 231.69 310.16 231.448C310.433 231.207 310.579 230.908 310.597 230.553H312.163C312.144 231.013 312.001 231.444 311.732 231.845C311.463 232.241 311.099 232.556 310.638 232.788C310.178 233.021 309.681 233.137 309.148 233.137C308.114 233.137 307.293 232.802 306.687 232.132C306.081 231.462 305.778 230.537 305.778 229.356V229.186C305.778 228.06 306.079 227.16 306.68 226.485C307.282 225.806 308.102 225.467 309.141 225.467C310.021 225.467 310.736 225.724 311.288 226.239C311.844 226.75 312.135 227.422 312.163 228.256H310.597C310.579 227.832 310.433 227.483 310.16 227.21C309.891 226.937 309.547 226.8 309.128 226.8C308.59 226.8 308.175 226.996 307.883 227.388C307.592 227.775 307.444 228.365 307.439 229.158V229.425C307.439 230.227 307.583 230.826 307.87 231.223C308.161 231.615 308.581 231.811 309.128 231.811Z" fill="#0F9696"/>
<path d="M315.754 226.41C316.297 225.781 316.982 225.467 317.812 225.467C319.389 225.467 320.189 226.367 320.211 228.167V233H318.55V228.229C318.55 227.718 318.439 227.358 318.215 227.148C317.996 226.934 317.673 226.827 317.245 226.827C316.579 226.827 316.082 227.123 315.754 227.716V233H314.093V222.5H315.754V226.41Z" fill="#0F9696"/>
<path d="M324.363 233H322.702V225.604H324.363V233ZM322.6 223.683C322.6 223.427 322.68 223.215 322.839 223.047C323.003 222.878 323.236 222.794 323.536 222.794C323.837 222.794 324.07 222.878 324.234 223.047C324.398 223.215 324.48 223.427 324.48 223.683C324.48 223.933 324.398 224.143 324.234 224.312C324.07 224.476 323.837 224.558 323.536 224.558C323.236 224.558 323.003 224.476 322.839 224.312C322.68 224.143 322.6 223.933 322.6 223.683Z" fill="#0F9696"/>
<path d="M328.42 225.604L328.468 226.458C329.015 225.797 329.732 225.467 330.621 225.467C332.161 225.467 332.945 226.349 332.973 228.112V233H331.312V228.208C331.312 227.739 331.209 227.392 331.004 227.169C330.803 226.941 330.473 226.827 330.013 226.827C329.343 226.827 328.844 227.13 328.516 227.736V233H326.854V225.604H328.42Z" fill="#0F9696"/>
<path d="M338.629 233.137C337.576 233.137 336.721 232.806 336.065 232.146C335.414 231.48 335.088 230.596 335.088 229.493V229.288C335.088 228.55 335.229 227.891 335.512 227.312C335.799 226.729 336.2 226.276 336.715 225.952C337.23 225.629 337.804 225.467 338.437 225.467C339.444 225.467 340.221 225.788 340.768 226.431C341.32 227.073 341.596 227.982 341.596 229.158V229.828H336.763C336.813 230.439 337.015 230.922 337.371 231.277C337.731 231.633 338.182 231.811 338.724 231.811C339.485 231.811 340.105 231.503 340.584 230.888L341.479 231.742C341.183 232.184 340.787 232.528 340.29 232.774C339.798 233.016 339.244 233.137 338.629 233.137ZM338.43 226.8C337.975 226.8 337.606 226.959 337.323 227.278C337.045 227.597 336.867 228.042 336.79 228.611H339.955V228.488C339.918 227.932 339.77 227.513 339.511 227.23C339.251 226.943 338.891 226.8 338.43 226.8Z" fill="#0F9696"/>
<path d="M136.254 333.047L139.125 340.676L141.989 333.047H144.225V343H142.502V339.719L142.673 335.33L139.733 343H138.496L135.563 335.337L135.734 339.719V343H134.012V333.047H136.254Z" fill="#0F9696"/>
<path d="M151.234 343C151.161 342.859 151.097 342.629 151.043 342.31C150.514 342.861 149.867 343.137 149.101 343.137C148.359 343.137 147.752 342.925 147.283 342.501C146.814 342.077 146.579 341.553 146.579 340.929C146.579 340.14 146.871 339.536 147.454 339.117C148.042 338.693 148.88 338.481 149.97 338.481H150.988V337.996C150.988 337.613 150.881 337.308 150.667 337.08C150.453 336.848 150.127 336.731 149.689 336.731C149.311 336.731 149.001 336.827 148.76 337.019C148.518 337.205 148.397 337.445 148.397 337.736H146.736C146.736 337.331 146.871 336.952 147.139 336.602C147.408 336.246 147.773 335.968 148.233 335.768C148.698 335.567 149.215 335.467 149.785 335.467C150.651 335.467 151.341 335.686 151.856 336.123C152.371 336.556 152.636 337.167 152.649 337.955V341.291C152.649 341.956 152.743 342.487 152.929 342.884V343H151.234ZM149.409 341.804C149.737 341.804 150.045 341.724 150.332 341.564C150.624 341.405 150.842 341.191 150.988 340.922V339.527H150.093C149.477 339.527 149.015 339.634 148.705 339.849C148.395 340.063 148.24 340.366 148.24 340.758C148.24 341.077 148.345 341.332 148.554 341.523C148.769 341.71 149.054 341.804 149.409 341.804Z" fill="#0F9696"/>
<path d="M157.171 333.806V335.604H158.476V336.834H157.171V340.963C157.171 341.245 157.225 341.451 157.335 341.578C157.449 341.701 157.649 341.763 157.936 341.763C158.128 341.763 158.321 341.74 158.517 341.694V342.979C158.139 343.084 157.774 343.137 157.423 343.137C156.147 343.137 155.509 342.433 155.509 341.024V336.834H154.293V335.604H155.509V333.806H157.171Z" fill="#0F9696"/>
<path d="M163.708 343.137C162.656 343.137 161.801 342.806 161.145 342.146C160.493 341.48 160.167 340.596 160.167 339.493V339.288C160.167 338.55 160.309 337.891 160.591 337.312C160.878 336.729 161.279 336.276 161.794 335.952C162.309 335.629 162.884 335.467 163.517 335.467C164.524 335.467 165.301 335.788 165.848 336.431C166.399 337.073 166.675 337.982 166.675 339.158V339.828H161.842C161.892 340.439 162.095 340.922 162.451 341.277C162.811 341.633 163.262 341.811 163.804 341.811C164.565 341.811 165.185 341.503 165.663 340.888L166.559 341.742C166.263 342.184 165.866 342.528 165.37 342.774C164.877 343.016 164.324 343.137 163.708 343.137ZM163.51 336.8C163.054 336.8 162.685 336.959 162.403 337.278C162.125 337.597 161.947 338.042 161.87 338.611H165.035V338.488C164.998 337.932 164.85 337.513 164.59 337.23C164.33 336.943 163.97 336.8 163.51 336.8Z" fill="#0F9696"/>
<path d="M172.543 337.121C172.324 337.085 172.099 337.066 171.866 337.066C171.105 337.066 170.593 337.358 170.328 337.941V343H168.667V335.604H170.253L170.294 336.431C170.695 335.788 171.251 335.467 171.962 335.467C172.199 335.467 172.395 335.499 172.55 335.562L172.543 337.121Z" fill="#0F9696"/>
<path d="M176.06 343H174.398V335.604H176.06V343ZM174.296 333.683C174.296 333.427 174.376 333.215 174.535 333.047C174.699 332.878 174.932 332.794 175.232 332.794C175.533 332.794 175.766 332.878 175.93 333.047C176.094 333.215 176.176 333.427 176.176 333.683C176.176 333.933 176.094 334.143 175.93 334.312C175.766 334.476 175.533 334.558 175.232 334.558C174.932 334.558 174.699 334.476 174.535 334.312C174.376 334.143 174.296 333.933 174.296 333.683Z" fill="#0F9696"/>
<path d="M182.994 343C182.921 342.859 182.857 342.629 182.803 342.31C182.274 342.861 181.627 343.137 180.861 343.137C180.118 343.137 179.512 342.925 179.043 342.501C178.573 342.077 178.339 341.553 178.339 340.929C178.339 340.14 178.63 339.536 179.214 339.117C179.802 338.693 180.64 338.481 181.729 338.481H182.748V337.996C182.748 337.613 182.641 337.308 182.427 337.08C182.212 336.848 181.887 336.731 181.449 336.731C181.071 336.731 180.761 336.827 180.519 337.019C180.278 337.205 180.157 337.445 180.157 337.736H178.496C178.496 337.331 178.63 336.952 178.899 336.602C179.168 336.246 179.533 335.968 179.993 335.768C180.458 335.567 180.975 335.467 181.545 335.467C182.411 335.467 183.101 335.686 183.616 336.123C184.131 336.556 184.395 337.167 184.409 337.955V341.291C184.409 341.956 184.502 342.487 184.689 342.884V343H182.994ZM181.169 341.804C181.497 341.804 181.804 341.724 182.092 341.564C182.383 341.405 182.602 341.191 182.748 340.922V339.527H181.852C181.237 339.527 180.775 339.634 180.465 339.849C180.155 340.063 180 340.366 180 340.758C180 341.077 180.105 341.332 180.314 341.523C180.528 341.71 180.813 341.804 181.169 341.804Z" fill="#0F9696"/>
<path d="M188.616 343H186.955V332.5H188.616V343Z" fill="#0F9696"/>
<path d="M195.277 340.99C195.277 340.694 195.154 340.468 194.908 340.313C194.666 340.159 194.263 340.022 193.698 339.903C193.133 339.785 192.661 339.634 192.283 339.452C191.453 339.051 191.038 338.47 191.038 337.709C191.038 337.071 191.307 336.538 191.845 336.109C192.383 335.681 193.066 335.467 193.896 335.467C194.78 335.467 195.493 335.686 196.036 336.123C196.582 336.561 196.856 337.128 196.856 337.825H195.195C195.195 337.506 195.076 337.242 194.839 337.032C194.602 336.818 194.288 336.711 193.896 336.711C193.531 336.711 193.233 336.795 193 336.964C192.773 337.132 192.659 337.358 192.659 337.641C192.659 337.896 192.766 338.094 192.98 338.235C193.194 338.377 193.627 338.52 194.279 338.666C194.93 338.807 195.441 338.978 195.81 339.179C196.184 339.375 196.459 339.612 196.637 339.89C196.819 340.168 196.911 340.505 196.911 340.901C196.911 341.567 196.635 342.107 196.083 342.521C195.532 342.932 194.81 343.137 193.916 343.137C193.31 343.137 192.77 343.027 192.296 342.809C191.822 342.59 191.453 342.289 191.189 341.906C190.925 341.523 190.792 341.111 190.792 340.669H192.406C192.428 341.061 192.577 341.364 192.85 341.578C193.123 341.788 193.486 341.893 193.937 341.893C194.374 341.893 194.707 341.811 194.935 341.646C195.163 341.478 195.277 341.259 195.277 340.99Z" fill="#0F9696"/>
<path d="M2.25391 226.047L5.125 233.676L7.98926 226.047H10.2246V236H8.50195V232.719L8.67285 228.33L5.7334 236H4.49609L1.56348 228.337L1.73438 232.719V236H0.0117188V226.047H2.25391Z" fill="#0F9696"/>
<path d="M16.0721 236.137C15.0193 236.137 14.1648 235.806 13.5086 235.146C12.8569 234.48 12.5311 233.596 12.5311 232.493V232.288C12.5311 231.55 12.6723 230.891 12.9549 230.312C13.242 229.729 13.643 229.276 14.158 228.952C14.673 228.629 15.2472 228.467 15.8807 228.467C16.8878 228.467 17.6648 228.788 18.2117 229.431C18.7632 230.073 19.0389 230.982 19.0389 232.158V232.828H14.2059C14.256 233.439 14.4588 233.922 14.8143 234.277C15.1743 234.633 15.6255 234.811 16.1678 234.811C16.9288 234.811 17.5486 234.503 18.0271 233.888L18.9227 234.742C18.6264 235.184 18.2299 235.528 17.7332 235.774C17.241 236.016 16.6873 236.137 16.0721 236.137ZM15.8738 229.8C15.4181 229.8 15.049 229.959 14.7664 230.278C14.4884 230.597 14.3107 231.042 14.2332 231.611H17.3982V231.488C17.3618 230.932 17.2137 230.513 16.9539 230.23C16.6941 229.943 16.3341 229.8 15.8738 229.8Z" fill="#0F9696"/>
<path d="M23.1158 226.806V228.604H24.4215V229.834H23.1158V233.963C23.1158 234.245 23.1705 234.451 23.2799 234.578C23.3938 234.701 23.5943 234.763 23.8814 234.763C24.0729 234.763 24.2665 234.74 24.4625 234.694V235.979C24.0842 236.084 23.7197 236.137 23.3687 236.137C22.0927 236.137 21.4547 235.433 21.4547 234.024V229.834H20.2379V228.604H21.4547V226.806H23.1158Z" fill="#0F9696"/>
<path d="M28.0336 229.41C28.5759 228.781 29.2618 228.467 30.0912 228.467C31.668 228.467 32.4678 229.367 32.4906 231.167V236H30.8295V231.229C30.8295 230.718 30.7178 230.358 30.4945 230.148C30.2758 229.934 29.9522 229.827 29.5238 229.827C28.8585 229.827 28.3617 230.123 28.0336 230.716V236H26.3725V225.5H28.0336V229.41Z" fill="#0F9696"/>
<path d="M34.5646 232.233C34.5646 231.509 34.7082 230.857 34.9953 230.278C35.2824 229.695 35.6857 229.248 36.2053 228.938C36.7248 228.624 37.3218 228.467 37.9963 228.467C38.9943 228.467 39.8033 228.788 40.423 229.431C41.0474 230.073 41.3846 230.925 41.4348 231.987L41.4416 232.377C41.4416 233.106 41.3003 233.758 41.0178 234.332C40.7398 234.906 40.3387 235.351 39.8146 235.665C39.2951 235.979 38.6936 236.137 38.01 236.137C36.9663 236.137 36.1301 235.79 35.5012 235.098C34.8768 234.4 34.5646 233.473 34.5646 232.315V232.233ZM36.2258 232.377C36.2258 233.138 36.383 233.735 36.6975 234.168C37.0119 234.596 37.4494 234.811 38.01 234.811C38.5705 234.811 39.0057 234.592 39.3156 234.154C39.6301 233.717 39.7873 233.076 39.7873 232.233C39.7873 231.486 39.6255 230.894 39.302 230.456C38.9829 230.019 38.5477 229.8 37.9963 229.8C37.454 229.8 37.0233 230.016 36.7043 230.449C36.3853 230.878 36.2258 231.52 36.2258 232.377Z" fill="#0F9696"/>
<path d="M43.2354 232.247C43.2354 231.108 43.4997 230.194 44.0283 229.506C44.557 228.813 45.2656 228.467 46.1543 228.467C46.9382 228.467 47.5716 228.74 48.0547 229.287V225.5H49.7158V236H48.2119L48.1299 235.234C47.6331 235.836 46.9701 236.137 46.1406 236.137C45.2747 236.137 44.5729 235.788 44.0352 235.091C43.502 234.394 43.2354 233.446 43.2354 232.247ZM44.8965 232.391C44.8965 233.143 45.04 233.73 45.3271 234.154C45.6188 234.574 46.0312 234.783 46.5645 234.783C47.2435 234.783 47.7402 234.48 48.0547 233.874V230.716C47.7493 230.123 47.2572 229.827 46.5781 229.827C46.0404 229.827 45.6257 230.041 45.334 230.47C45.0423 230.894 44.8965 231.534 44.8965 232.391Z" fill="#0F9696"/>
<defs>
<linearGradient id="paint0_linear" x1="160.03" y1="173.818" x2="171.846" y2="173.818" gradientUnits="userSpaceOnUse">
<stop stop-color="white"/>
<stop offset="0.9988" stop-color="#4DBDBC"/>
</linearGradient>
<linearGradient id="paint1_linear" x1="160.03" y1="177.856" x2="181.626" y2="177.856" gradientUnits="userSpaceOnUse">
<stop stop-color="white"/>
<stop offset="0.9988" stop-color="#4DBDBC"/>
</linearGradient>
<linearGradient id="paint2_linear" x1="171.22" y1="169.45" x2="189.867" y2="169.45" gradientUnits="userSpaceOnUse">
<stop stop-color="#009191"/>
<stop offset="1" stop-color="#006262"/>
</linearGradient>
<linearGradient id="paint3_linear" x1="164.454" y1="180.128" x2="189.867" y2="180.128" gradientUnits="userSpaceOnUse">
<stop stop-color="#169090"/>
<stop offset="0.9988" stop-color="#FFE200"/>
</linearGradient>
<linearGradient id="paint4_linear" x1="168.825" y1="150.71" x2="185.758" y2="150.71" gradientUnits="userSpaceOnUse">
<stop stop-color="white"/>
<stop offset="0.9988" stop-color="#4DBDBC"/>
</linearGradient>
<linearGradient id="paint5_linear" x1="179.161" y1="149.007" x2="194" y2="149.007" gradientUnits="userSpaceOnUse">
<stop stop-color="#169090"/>
<stop offset="0.9988" stop-color="#FFE200"/>
</linearGradient>
<linearGradient id="paint6_linear" x1="130.394" y1="177.017" x2="151.947" y2="177.017" gradientUnits="userSpaceOnUse">
<stop stop-color="white"/>
<stop offset="0.9988" stop-color="#4DBDBC"/>
</linearGradient>
<linearGradient id="paint7_linear" x1="140.915" y1="169.346" x2="160.188" y2="169.346" gradientUnits="userSpaceOnUse">
<stop stop-color="#009191"/>
<stop offset="1" stop-color="#1D2088"/>
</linearGradient>
<linearGradient id="paint8_linear" x1="147.295" y1="180.461" x2="160.188" y2="180.461" gradientUnits="userSpaceOnUse">
<stop stop-color="#009191"/>
<stop offset="1" stop-color="#006262"/>
</linearGradient>
<linearGradient id="paint9_linear" x1="126" y1="150.477" x2="143.178" y2="150.477" gradientUnits="userSpaceOnUse">
<stop stop-color="white"/>
<stop offset="0.9988" stop-color="#4DBDBC"/>
</linearGradient>
<linearGradient id="paint10_linear" x1="133.007" y1="141.791" x2="151.42" y2="141.791" gradientUnits="userSpaceOnUse">
<stop stop-color="#009191"/>
<stop offset="1" stop-color="#006262"/>
</linearGradient>
<linearGradient id="paint11_linear" x1="138.133" y1="153.008" x2="151.42" y2="153.008" gradientUnits="userSpaceOnUse">
<stop stop-color="#009191"/>
<stop offset="1" stop-color="#1D2088"/>
</linearGradient>
<linearGradient id="paint12_linear" x1="145.678" y1="136.346" x2="167.611" y2="136.346" gradientUnits="userSpaceOnUse">
<stop stop-color="white"/>
<stop offset="0.9988" stop-color="#4DBDBC"/>
</linearGradient>
<linearGradient id="paint13_linear" x1="145.679" y1="128.611" x2="175.854" y2="128.611" gradientUnits="userSpaceOnUse">
<stop stop-color="#009191"/>
<stop offset="1" stop-color="#006262"/>
</linearGradient>
<linearGradient id="paint14_linear" x1="163.766" y1="135.383" x2="175.853" y2="135.383" gradientUnits="userSpaceOnUse">
<stop stop-color="#169090"/>
<stop offset="0.9988" stop-color="#FFE200"/>
</linearGradient>
</defs>
</svg>
