<svg width="429" height="343" viewBox="0 0 429 343" fill="none" xmlns="http://www.w3.org/2000/svg">
<path fill-rule="evenodd" clip-rule="evenodd" d="M212.181 1.5C190.209 1.5 169.349 6.24505 150.576 14.763L150.163 13.8523C169.064 5.27666 190.064 0.5 212.181 0.5C232.92 0.5 252.676 4.69969 270.641 12.2932L270.251 13.2143C252.408 5.67194 232.784 1.5 212.181 1.5ZM360.741 139.879C359.06 114.889 351.178 91.594 338.615 71.5089L339.463 70.9786C352.11 91.1995 360.047 114.653 361.739 139.812C361.965 143.167 362.079 146.552 362.079 149.963H361.079C361.079 146.574 360.965 143.211 360.741 139.879ZM81.8686 78.0808C71.6627 96.4354 65.2442 117.173 63.6652 139.246C63.412 142.786 63.2832 146.359 63.2832 149.963H62.2832C62.2832 146.335 62.4128 142.738 62.6677 139.175C64.2574 116.953 70.7195 96.0739 80.9946 77.5948L81.8686 78.0808ZM270.357 286.667C295.989 275.809 317.942 257.993 333.83 235.596L334.645 236.174C318.651 258.721 296.552 276.657 270.747 287.588L270.357 286.667ZM92.5295 238.344C107.81 258.877 128.282 275.34 152.008 285.804L151.604 286.719C127.718 276.184 107.11 259.611 91.7273 238.941L92.5295 238.344Z" fill="#4BC8C8"/>
<path fill-rule="evenodd" clip-rule="evenodd" d="M210.745 80.5636C173.176 80.5636 142.714 111.164 142.714 148.918C142.714 186.668 173.176 217.27 210.745 217.27C248.317 217.27 278.778 186.668 278.778 148.918C278.778 111.164 248.317 80.5636 210.745 80.5636ZM141.814 148.918C141.814 110.671 172.675 79.6636 210.745 79.6636C248.818 79.6636 279.678 110.671 279.678 148.918C279.678 187.161 248.818 218.17 210.745 218.17C172.675 218.17 141.814 187.161 141.814 148.918Z" fill="#009190"/>
<path fill-rule="evenodd" clip-rule="evenodd" d="M210.746 93.3203C180.188 93.3203 155.413 118.211 155.413 148.917C155.413 179.622 180.188 204.512 210.746 204.512C241.305 204.512 266.08 179.622 266.08 148.917C266.08 118.211 241.305 93.3203 210.746 93.3203ZM154.663 148.917C154.663 117.8 179.77 92.5703 210.746 92.5703C241.723 92.5703 266.83 117.8 266.83 148.917C266.83 180.033 241.723 205.262 210.746 205.262C179.77 205.262 154.663 180.033 154.663 148.917Z" fill="#009190"/>
<path fill-rule="evenodd" clip-rule="evenodd" d="M239.915 251.231C239.915 254.526 237.26 257.196 233.98 257.196C230.704 257.196 228.045 254.526 228.045 251.231C228.045 247.941 230.704 245.267 233.98 245.267C237.26 245.267 239.915 247.941 239.915 251.231Z" fill="#009190"/>
<path fill-rule="evenodd" clip-rule="evenodd" d="M266.481 56.6716C266.481 59.9663 263.826 62.6362 260.546 62.6362C257.267 62.6362 254.611 59.9663 254.611 56.6716C254.611 53.3816 257.267 50.707 260.546 50.707C263.826 50.707 266.481 53.3816 266.481 56.6716Z" fill="#009190"/>
<path fill-rule="evenodd" clip-rule="evenodd" d="M119.422 188.798C119.422 192.091 116.764 194.761 113.487 194.761C110.208 194.761 107.549 192.091 107.549 188.798C107.549 185.506 110.208 182.833 113.487 182.833C116.764 182.833 119.422 185.506 119.422 188.798Z" fill="#009190"/>
<path fill-rule="evenodd" clip-rule="evenodd" d="M319.327 177.428C319.327 180.723 316.668 183.392 313.389 183.392C310.113 183.392 307.454 180.723 307.454 177.428C307.454 174.138 310.113 171.463 313.389 171.463C316.668 171.463 319.327 174.138 319.327 177.428Z" fill="#009190"/>
<path fill-rule="evenodd" clip-rule="evenodd" d="M137.261 78.7419C137.261 82.0366 134.605 84.7065 131.326 84.7065C128.047 84.7065 125.388 82.0366 125.388 78.7419C125.388 75.4519 128.047 72.7773 131.326 72.7773C134.605 72.7773 137.261 75.4519 137.261 78.7419Z" fill="#009190"/>
<path fill-rule="evenodd" clip-rule="evenodd" d="M210.745 43.752C152.942 43.752 106.079 90.8337 106.079 148.917C106.079 206.999 152.942 254.081 210.745 254.081C268.549 254.081 315.415 206.999 315.415 148.917C315.415 90.8337 268.549 43.752 210.745 43.752ZM105.079 148.917C105.079 90.2859 152.385 42.752 210.745 42.752C269.106 42.752 316.415 90.2858 316.415 148.917C316.415 207.547 269.106 255.081 210.745 255.081C152.385 255.081 105.079 207.547 105.079 148.917Z" fill="#009190"/>
<path fill-rule="evenodd" clip-rule="evenodd" d="M210.745 64.8848C164.558 64.8848 127.111 102.505 127.111 148.917C127.111 195.328 164.558 232.948 210.745 232.948C256.932 232.948 294.379 195.328 294.379 148.917C294.379 102.505 256.932 64.8848 210.745 64.8848ZM126.111 148.917C126.111 101.957 164.001 63.8848 210.745 63.8848C257.489 63.8848 295.379 101.957 295.379 148.917C295.379 195.876 257.489 233.948 210.745 233.948C164.001 233.948 126.111 195.876 126.111 148.917Z" fill="#009190"/>
<path fill-rule="evenodd" clip-rule="evenodd" d="M230.797 81.2922C230.797 84.5869 228.141 87.2568 224.862 87.2568C221.583 87.2568 218.924 84.5869 218.924 81.2922C218.924 78.0022 221.583 75.3276 224.862 75.3276C228.141 75.3276 230.797 78.0022 230.797 81.2922Z" fill="#7EC7C5"/>
<path fill-rule="evenodd" clip-rule="evenodd" d="M162.836 216.541C162.836 219.836 160.18 222.506 156.901 222.506C153.621 222.506 150.962 219.836 150.962 216.541C150.962 213.251 153.621 210.577 156.901 210.577C160.18 210.577 162.836 213.251 162.836 216.541Z" fill="#7EC7C5"/>
<path fill-rule="evenodd" clip-rule="evenodd" d="M264.407 175.942C264.407 179.237 261.751 181.907 258.472 181.907C255.196 181.907 252.537 179.237 252.537 175.942C252.537 172.652 255.196 169.978 258.472 169.978C261.751 169.978 264.407 172.652 264.407 175.942Z" fill="#7EC7C5"/>
<path fill-rule="evenodd" clip-rule="evenodd" d="M152.102 127.505C152.102 130.8 149.446 133.47 146.167 133.47C142.887 133.47 140.229 130.8 140.229 127.505C140.229 124.215 142.887 121.541 146.167 121.541C149.446 121.541 152.102 124.215 152.102 127.505Z" fill="#7EC7C5"/>
<path fill-rule="evenodd" clip-rule="evenodd" d="M232.873 296.229C232.868 296.215 232.866 296.202 232.864 296.188C232.862 296.175 232.86 296.162 232.855 296.148L232.846 296.121C232.842 296.112 232.839 296.103 232.837 296.095L232.837 296.094C232.835 296.086 232.833 296.077 232.828 296.068L232.819 296.059C232.801 296.023 232.792 296.005 232.783 295.978C232.777 295.959 232.767 295.945 232.755 295.929L232.747 295.919C232.744 295.915 232.742 295.911 232.739 295.907L232.73 295.889C232.723 295.882 232.718 295.876 232.713 295.87C232.704 295.859 232.697 295.85 232.685 295.844L232.667 295.826L232.613 295.772L232.605 295.763C232.596 295.755 232.584 295.748 232.573 295.741C232.562 295.734 232.551 295.728 232.542 295.719L232.533 295.71L221.985 289.626V277.441C221.985 277.406 221.985 277.379 221.976 277.361V277.352C221.976 277.331 221.971 277.315 221.964 277.296L221.958 277.28V277.262C221.956 277.256 221.954 277.249 221.952 277.243L221.951 277.243L221.951 277.243C221.945 277.226 221.941 277.213 221.941 277.2L221.932 277.191C221.921 277.17 221.914 277.152 221.908 277.137L221.908 277.137L221.908 277.137C221.903 277.127 221.9 277.118 221.896 277.11C221.887 277.093 221.869 277.066 221.851 277.039L221.851 277.039L221.842 277.021C221.836 277.015 221.831 277.008 221.826 277.002C221.817 276.991 221.809 276.982 221.797 276.976L221.779 276.958C221.762 276.94 221.744 276.923 221.726 276.914L221.717 276.905C221.708 276.896 221.697 276.889 221.686 276.882C221.674 276.876 221.663 276.869 221.654 276.86L221.645 276.851L210.767 270.571C210.561 270.454 210.301 270.454 210.096 270.571L199.199 276.86C199.192 276.865 199.185 276.869 199.179 276.873C199.163 276.883 199.149 276.892 199.136 276.905C199.11 276.923 199.092 276.94 199.074 276.958L199.065 276.976C199.058 276.983 199.053 276.989 199.048 276.995C199.039 277.006 199.032 277.015 199.02 277.021L199.011 277.03C198.996 277.045 198.987 277.059 198.979 277.073L198.979 277.073C198.972 277.084 198.965 277.093 198.957 277.101C198.955 277.107 198.951 277.113 198.947 277.12C198.938 277.136 198.928 277.154 198.922 277.173L198.913 277.191C198.904 277.209 198.895 277.227 198.895 277.245L198.886 277.262C198.881 277.272 198.879 277.284 198.876 277.298C198.874 277.309 198.872 277.322 198.868 277.334V277.343C198.868 277.356 198.866 277.37 198.863 277.383C198.861 277.397 198.859 277.41 198.859 277.424V277.441V289.617L188.302 295.71C188.295 295.715 188.289 295.719 188.283 295.723C188.266 295.733 188.253 295.741 188.24 295.755L188.231 295.763C188.213 295.772 188.195 295.79 188.177 295.808L188.168 295.817C188.15 295.835 188.132 295.853 188.123 295.871L188.114 295.88C188.1 295.895 188.09 295.909 188.082 295.923L188.082 295.923C188.075 295.933 188.069 295.943 188.061 295.951V295.96C188.059 295.965 188.057 295.969 188.054 295.974C188.047 295.99 188.039 296.009 188.025 296.023L188.016 296.041C188.007 296.059 187.998 296.077 187.998 296.094L187.989 296.112C187.985 296.126 187.983 296.137 187.98 296.148C187.978 296.159 187.976 296.171 187.971 296.184V296.193C187.971 296.206 187.969 296.22 187.967 296.233C187.965 296.247 187.962 296.26 187.962 296.273V296.291V308.852C187.962 309.093 188.088 309.317 188.302 309.433L199.199 315.723C199.212 315.727 199.224 315.734 199.235 315.741C199.246 315.747 199.257 315.754 199.271 315.758L199.28 315.767C199.297 315.776 199.324 315.785 199.351 315.794L199.369 315.803C199.387 315.812 199.414 315.812 199.432 315.812H199.449C199.512 315.821 199.548 315.821 199.611 315.812H199.628C199.637 315.812 199.649 315.81 199.66 315.808C199.671 315.805 199.682 315.803 199.691 315.803L199.709 315.794C199.722 315.79 199.734 315.785 199.745 315.781C199.756 315.776 199.767 315.772 199.78 315.767H199.789C199.816 315.758 199.834 315.75 199.861 315.732L199.879 315.723L210.427 309.639L220.983 315.732C220.997 315.736 221.008 315.743 221.019 315.75C221.03 315.756 221.041 315.763 221.055 315.767L221.073 315.776C221.091 315.785 221.109 315.794 221.135 315.794H221.153C221.18 315.803 221.198 315.803 221.216 315.803H221.234C221.296 315.812 221.332 315.812 221.395 315.803H221.413C221.421 315.803 221.429 315.801 221.438 315.799L221.438 315.799C221.448 315.797 221.461 315.794 221.475 315.794L221.493 315.785L221.502 315.782L221.509 315.78C221.516 315.777 221.523 315.774 221.529 315.772C221.54 315.767 221.551 315.763 221.565 315.758H221.574C221.601 315.75 221.618 315.741 221.645 315.723L221.654 315.714L232.533 309.433C232.739 309.317 232.873 309.093 232.873 308.852V296.273C232.882 296.282 232.882 296.256 232.873 296.229ZM225.421 293.178L215.884 298.689L211.778 296.318L221.314 290.807L225.421 293.178ZM211.107 295.155L220.643 289.644V278.631L211.107 284.142V295.155ZM210.427 271.948L214.533 274.319L204.996 279.83L200.89 277.459L210.427 271.948ZM203.645 293.178L199.539 290.807L190.002 296.318L194.109 298.689L203.645 293.178ZM198.859 314L189.331 308.494V297.481L193.563 299.924L193.581 299.95C193.67 300.04 193.786 300.111 193.903 300.138L193.93 300.147L198.859 302.992V314ZM198.859 314L198.868 314.005H198.859V314ZM195.45 299.458L199.539 301.82L209.076 296.309L204.987 293.947L195.45 299.458ZM200.219 314.014V303.001L209.756 297.49V308.503L200.219 314.014ZM209.747 295.141L209.756 295.146H209.747V295.141ZM209.747 295.141L200.219 289.635V278.622L204.45 281.065L204.468 281.092C204.558 281.181 204.674 281.253 204.799 281.279L204.826 281.288L209.747 284.133V295.141ZM206.347 280.608L215.884 275.097L219.963 277.459L210.427 282.97L206.347 280.608ZM220.634 314L220.643 314.005H220.634V314ZM220.634 314L211.107 308.494V297.481L215.338 299.924L215.356 299.95C215.446 300.04 215.553 300.111 215.678 300.138L215.705 300.147L220.634 302.992V314ZM221.314 301.82L217.235 299.458L226.772 293.947L230.86 296.309L221.314 301.82ZM221.994 314.014L231.531 308.503V297.49L221.994 303.001V314.014Z" fill="#0F9696"/>
<path fill-rule="evenodd" clip-rule="evenodd" d="M333.718 48.0986C329.444 45.8322 326.166 44.5613 323.247 44.074L323.549 43.6588C323.693 43.5155 323.764 43.3007 323.693 43.0859L323.021 40.4015C324.796 37.8924 325.841 34.7554 325.841 31.7714V28.907H326.557H327.989C328.419 28.907 328.705 28.6206 328.705 28.1909C328.705 27.7612 328.419 27.4748 327.989 27.4748H327.273V26.7588C327.273 21.1015 323.549 16.3036 317.964 14.7282V14.5848C317.964 13.439 317.033 12.4365 315.815 12.4365H312.951C311.805 12.4365 310.803 13.3674 310.803 14.5848V14.7281C305.217 16.3035 301.493 21.1014 301.493 26.7587V27.4747H300.777C300.347 27.4747 300.061 27.7612 300.061 28.1908C300.061 28.6205 300.347 28.9069 300.777 28.9069H302.209H302.925V31.7713C302.925 34.7553 303.97 37.8923 305.745 40.4015L305.074 43.0859C305.074 43.2291 305.074 43.5155 305.217 43.6588L305.519 44.074C302.601 44.5614 299.322 45.8322 295.048 48.0986C293.688 48.7432 292.9 50.1038 292.9 51.6076V54.6868C292.9 55.1165 293.186 55.4029 293.616 55.4029H310.803H311.089H317.677H317.964H335.15C335.58 55.4029 335.866 55.1165 335.866 54.6868V51.6076C335.866 50.1753 335.007 48.8148 333.718 48.0986ZM313.954 47.4358L314.387 46.4604L315.457 48.8152L316.158 50.3902H312.665L313.954 47.4358ZM316.641 51.8224H312.12L311.691 53.9707H317.05L316.641 51.8224ZM321.902 41.7969L322.189 43.0859L321.457 44.0903C321.41 44.1285 321.367 44.1747 321.329 44.2316L318.351 48.3559L317.406 49.6536L315.475 45.3099C317.783 45.0284 319.843 43.8699 321.506 42.2051L321.525 42.187C321.537 42.1749 321.549 42.1627 321.562 42.1504L321.575 42.1368C321.685 42.0262 321.794 41.913 321.902 41.7969ZM321.206 17.8355C321.128 17.7807 321.049 17.727 320.969 17.6741L320.327 20.815L323.621 20.1705C322.961 19.3126 322.118 18.5157 321.206 17.8355ZM308.439 20.815L305.145 20.1705C305.805 19.3125 306.648 18.5156 307.561 17.8354C307.639 17.7807 307.717 17.727 307.797 17.6741L308.439 20.815ZM304.273 21.4844C303.405 23.0554 302.925 24.8531 302.925 26.7587H302.925V27.4747H303.642H325.125H325.841V26.7587C325.841 24.8296 325.349 23.0108 324.461 21.4259L319.539 22.4621H319.396C319.181 22.4621 319.038 22.3905 318.895 22.2473C318.751 22.104 318.68 21.8176 318.68 21.6028L319.643 16.9144C319.11 16.6546 318.549 16.4325 317.964 16.2507V18.1653C317.964 18.595 317.677 18.8814 317.247 18.8814C316.818 18.8814 316.531 18.595 316.531 18.1653V15.3009V14.5848C316.531 14.1552 316.173 13.8687 315.815 13.8687H312.951C312.521 13.8687 312.235 14.2267 312.235 14.5848V15.301V18.1654C312.235 18.5951 311.948 18.8815 311.519 18.8815C311.089 18.8815 310.803 18.5951 310.803 18.1654V16.2507C310.236 16.4267 309.693 16.6406 309.175 16.8898L310.158 21.6744C310.23 21.8892 310.158 22.1756 309.943 22.3188C309.899 22.3338 309.857 22.3487 309.817 22.363C309.666 22.4172 309.541 22.4621 309.37 22.4621H309.227L304.273 21.4844ZM304.358 28.907H324.409V31.7714C324.409 34.894 323.337 37.6687 321.729 39.7779L321.687 39.7918L321.473 40.0066C321.112 40.487 320.732 40.925 320.335 41.32C318.649 42.8908 316.637 43.8423 314.699 43.9366C314.602 43.8947 314.493 43.8736 314.383 43.8736C314.273 43.8736 314.174 43.8952 314.085 43.9375C312.899 43.8831 311.685 43.5071 310.534 42.8639C309.368 42.1941 308.271 41.2284 307.294 40.0066L307.079 39.7918L307.037 39.7779C305.429 37.6686 304.358 34.8939 304.358 31.7714V28.907H304.358ZM311.361 49.6538L313.291 45.31C310.937 45.0228 308.84 43.8229 307.159 42.1036C307.06 42.0034 306.961 41.9015 306.864 41.797L306.578 43.086L307.363 44.1641C307.389 44.1864 307.414 44.209 307.437 44.2318L310.415 48.356L311.361 49.6538ZM294.332 51.6076C294.332 50.6767 294.833 49.8173 295.693 49.3876C300.257 46.9626 303.543 45.7456 306.47 45.382L310.744 51.2578L310.201 53.9706H294.332V51.6076ZM318.565 53.9708H334.434V51.6076C334.434 50.6767 333.933 49.8173 333.074 49.3161C328.604 46.9748 325.259 45.7587 322.342 45.3186L318.023 51.258L318.565 53.9708Z" fill="#0F9696"/>
<path d="M360.775 201.327H362.119V202.671H360.775V201.327Z" fill="#0F9696"/>
<path d="M356.744 201.327H358.087V202.671H356.744V201.327Z" fill="#0F9696"/>
<path d="M368.166 201.327H369.509V202.671H368.166V201.327Z" fill="#0F9696"/>
<path d="M372.197 201.327H373.541V202.671H372.197V201.327Z" fill="#0F9696"/>
<path fill-rule="evenodd" clip-rule="evenodd" d="M370.181 173.78V180.499H376.9V200.655H357.416H356.744H354.728C354.325 200.655 354.056 200.387 354.056 199.983V181.171C354.056 180.768 354.325 180.499 354.728 180.499H356.744H357.416H360.775V173.78H359.431V172.437H360.775H370.181H371.525V173.78H370.181ZM355.4 199.312H356.744V181.843H355.4V199.312ZM362.119 173.78H368.837V180.499H362.119V173.78ZM358.087 199.312H375.556V181.843H358.087V199.312Z" fill="#0F9696"/>
<path fill-rule="evenodd" clip-rule="evenodd" d="M364.806 191.249H360.775C360.372 191.249 360.103 190.98 360.103 190.577V186.546C360.103 186.143 360.372 185.874 360.775 185.874H364.806C365.209 185.874 365.478 186.143 365.478 186.546V190.577C365.478 190.98 365.209 191.249 364.806 191.249ZM364.134 187.218H361.447V189.905H364.134V187.218Z" fill="#0F9696"/>
<path fill-rule="evenodd" clip-rule="evenodd" d="M368.905 198.102C368.703 198.102 368.569 198.035 368.434 197.901L366.016 195.549C365.747 195.28 365.747 194.877 366.016 194.608L368.703 191.988C368.972 191.719 369.375 191.719 369.644 191.988L371.995 194.34C372.264 194.608 372.264 195.012 371.995 195.28L369.375 197.901C369.241 198.035 369.106 198.102 368.905 198.102ZM370.517 194.81L369.106 193.399L367.494 195.079L368.837 196.49L370.517 194.81Z" fill="#0F9696"/>
<path fill-rule="evenodd" clip-rule="evenodd" d="M373.205 186.882C373.205 188.158 372.13 189.233 370.853 189.233C369.576 189.233 368.501 188.158 368.501 186.882C368.501 185.605 369.576 184.53 370.853 184.53C372.13 184.53 373.205 185.605 373.205 186.882ZM371.861 186.882C371.861 186.344 371.391 185.874 370.853 185.874C370.316 185.874 369.845 186.344 369.845 186.882C369.845 187.419 370.316 187.89 370.853 187.89C371.391 187.89 371.861 187.419 371.861 186.882Z" fill="#0F9696"/>
<path d="M344.381 181.708L345.322 180.768L346.262 181.708L347.203 180.768L346.262 179.827L347.203 178.886L346.262 177.946L345.322 178.886L344.381 177.946L343.44 178.886L344.381 179.827L343.44 180.768L344.381 181.708Z" fill="#0F9696"/>
<path fill-rule="evenodd" clip-rule="evenodd" d="M336.587 210.062C336.587 208.919 337.461 208.046 338.603 208.046C339.745 208.046 340.619 208.919 340.619 210.062C340.619 211.204 339.745 212.077 338.603 212.077C337.461 212.077 336.587 211.204 336.587 210.062ZM337.931 210.062C337.931 210.465 338.2 210.733 338.603 210.733C339.006 210.733 339.275 210.465 339.275 210.062C339.275 209.658 339.006 209.39 338.603 209.39C338.2 209.39 337.931 209.658 337.931 210.062Z" fill="#0F9696"/>
<path fill-rule="evenodd" clip-rule="evenodd" d="M343.306 210.062C343.306 208.919 344.18 208.046 345.322 208.046C346.464 208.046 347.337 208.919 347.337 210.062C347.337 211.204 346.464 212.077 345.322 212.077C344.18 212.077 343.306 211.204 343.306 210.062ZM344.65 210.062C344.65 210.465 344.919 210.733 345.322 210.733C345.725 210.733 345.994 210.465 345.994 210.062C345.994 209.658 345.725 209.39 345.322 209.39C344.919 209.39 344.65 209.658 344.65 210.062Z" fill="#0F9696"/>
<path fill-rule="evenodd" clip-rule="evenodd" d="M350.025 210.062C350.025 208.919 350.898 208.046 352.041 208.046C353.183 208.046 354.056 208.919 354.056 210.062C354.056 211.204 353.183 212.077 352.041 212.077C350.898 212.077 350.025 211.204 350.025 210.062ZM351.369 210.062C351.369 210.465 351.637 210.733 352.041 210.733C352.444 210.733 352.712 210.465 352.712 210.062C352.712 209.658 352.444 209.39 352.041 209.39C351.637 209.39 351.369 209.658 351.369 210.062Z" fill="#0F9696"/>
<path fill-rule="evenodd" clip-rule="evenodd" d="M356.744 210.062C356.744 208.919 357.617 208.046 358.759 208.046C359.901 208.046 360.775 208.919 360.775 210.062C360.775 211.204 359.901 212.077 358.759 212.077C357.617 212.077 356.744 211.204 356.744 210.062ZM358.087 210.062C358.087 210.465 358.356 210.733 358.759 210.733C359.162 210.733 359.431 210.465 359.431 210.062C359.431 209.658 359.162 209.39 358.759 209.39C358.356 209.39 358.087 209.658 358.087 210.062Z" fill="#0F9696"/>
<path fill-rule="evenodd" clip-rule="evenodd" d="M363.462 210.062C363.462 208.919 364.336 208.046 365.478 208.046C366.62 208.046 367.494 208.919 367.494 210.062C367.494 211.204 366.62 212.077 365.478 212.077C364.336 212.077 363.462 211.204 363.462 210.062ZM364.806 210.062C364.806 210.465 365.075 210.733 365.478 210.733C365.881 210.733 366.15 210.465 366.15 210.062C366.15 209.658 365.881 209.39 365.478 209.39C365.075 209.39 364.806 209.658 364.806 210.062Z" fill="#0F9696"/>
<path fill-rule="evenodd" clip-rule="evenodd" d="M370.181 210.062C370.181 208.919 371.055 208.046 372.197 208.046C373.339 208.046 374.212 208.919 374.212 210.062C374.212 211.204 373.339 212.077 372.197 212.077C371.055 212.077 370.181 211.204 370.181 210.062ZM371.525 210.062C371.525 210.465 371.794 210.733 372.197 210.733C372.6 210.733 372.869 210.465 372.869 210.062C372.869 209.658 372.6 209.39 372.197 209.39C371.794 209.39 371.525 209.658 371.525 210.062Z" fill="#0F9696"/>
<path fill-rule="evenodd" clip-rule="evenodd" d="M337.259 204.015H373.541C375.422 204.015 376.9 205.493 376.9 207.374V212.077C376.9 213.958 375.422 215.437 373.541 215.437H337.259C335.378 215.437 333.9 213.958 333.9 212.077V207.374C333.9 205.493 335.378 204.015 337.259 204.015ZM373.541 214.093C374.683 214.093 375.556 213.219 375.556 212.077V207.374C375.556 206.232 374.683 205.358 373.541 205.358H337.259C336.117 205.358 335.244 206.232 335.244 207.374V212.077C335.244 213.219 336.117 214.093 337.259 214.093H373.541Z" fill="#0F9696"/>
<path fill-rule="evenodd" clip-rule="evenodd" d="M352.041 194.608C352.041 192.996 350.898 191.652 349.353 191.316V189.233C349.353 188.83 349.084 188.562 348.681 188.562H339.275C338.872 188.562 338.603 188.83 338.603 189.233V191.249C336.722 191.249 335.244 192.727 335.244 194.608V202.671H352.041V194.608ZM339.947 189.905H348.009V191.249H339.947V189.905ZM338.603 196.624H336.587V198.64H338.603V196.624ZM350.697 198.64H348.681V196.624H350.697V198.64ZM347.337 195.28H350.697V194.608C350.697 193.735 350.159 192.996 349.353 192.727V193.937C349.353 194.34 349.084 194.608 348.681 194.608C348.278 194.608 348.009 194.34 348.009 193.937V192.593H339.947V193.937C339.947 194.34 339.678 194.608 339.275 194.608C338.872 194.608 338.603 194.34 338.603 193.937V192.593C337.461 192.593 336.587 193.466 336.587 194.608V195.28H339.947V199.983H336.587V201.327H350.697V199.983H347.337V195.28Z" fill="#0F9696"/>
<path d="M338.603 185.202H340.619C341.022 185.202 341.291 184.933 341.291 184.53C341.291 184.127 341.022 183.858 340.619 183.858H338.603C338.2 183.858 337.931 184.127 337.931 184.53C337.931 184.933 338.2 185.202 338.603 185.202Z" fill="#0F9696"/>
<path d="M352.041 176.468H354.056C354.459 176.468 354.728 176.199 354.728 175.796C354.728 175.393 354.459 175.124 354.056 175.124H352.041C351.637 175.124 351.369 175.393 351.369 175.796C351.369 176.199 351.637 176.468 352.041 176.468Z" fill="#0F9696"/>
<path fill-rule="evenodd" clip-rule="evenodd" d="M37.0201 39.1364H38.9601V35.1164H36.6201V33.1364H43.1001V35.1164H41.0001V39.1364H42.9201V41.1164H41.0001V44.7164C41.7201 44.4564 42.4201 44.1764 43.1201 43.8564V45.8564C41.2401 46.6764 39.2201 47.3764 37.0601 47.9364L36.5601 45.9164C37.3801 45.7564 38.1801 45.5764 38.9601 45.3764V41.1164H37.0201V39.1364ZM43.8801 32.5964H53.8401V37.1164H43.8801V32.5964ZM52.0201 35.5764V34.1364H50.9001V35.5764H52.0201ZM49.4601 35.5764V34.1364H48.3201V35.5764H49.4601ZM46.8601 35.5764V34.1364H45.7401V35.5764H46.8601ZM43.1801 37.8364H54.6201V39.5964H43.1801V37.8364ZM44.1601 40.3564H53.5801V44.6164H48.7601C48.3001 45.3364 47.7401 45.9364 47.1001 46.4564V48.3964C48.0001 48.1364 48.9001 47.8564 49.8001 47.5364L50.2001 49.2764C48.5601 49.7964 46.9001 50.2364 45.2201 50.5764L44.6201 49.0164C45.0601 48.8764 45.2801 48.6764 45.2801 48.3964V47.5564C44.5601 47.8764 43.8001 48.1364 42.9801 48.3364L41.9201 46.7764C43.9201 46.3764 45.4401 45.6564 46.4801 44.6164H44.1601V40.3564ZM51.7001 43.0564V41.9364H46.0601V43.0564H51.7001ZM53.5001 44.9164L54.7401 46.1564C54.1401 46.7364 53.4801 47.1964 52.7801 47.5364C53.5401 48.0764 54.3801 48.4964 55.3401 48.7964L54.4001 50.4164C51.8601 49.4964 50.0201 47.8364 48.8801 45.4164L50.4601 44.8964C50.7601 45.4564 51.1201 45.9564 51.5201 46.3964C52.2001 46.0364 52.8601 45.5564 53.5001 44.9164ZM66.3001 33.3564H70.5001C70.3401 32.9364 70.1601 32.5364 70.0001 32.1764L72.2201 31.8164C72.3801 32.2764 72.5201 32.7964 72.6601 33.3564H77.2801V35.0764H75.3001C75.1401 35.6364 74.9401 36.1564 74.7201 36.6764H77.8601V38.4164H65.7001V36.6764H68.5201C68.3401 36.1164 68.1401 35.5764 67.9401 35.0764H66.3001V33.3564ZM72.7201 36.6764C73.0001 36.1564 73.2201 35.6164 73.3801 35.0764H70.0001C70.1601 35.5764 70.3401 36.1164 70.5001 36.6764H72.7201ZM66.7801 39.1964H76.6601V45.9164H74.2601V47.9364C74.2601 48.2964 74.3801 48.4964 74.6201 48.4964H75.8801C76.0401 48.4964 76.1601 48.3964 76.2601 48.2364C76.3601 48.0564 76.4201 47.4964 76.4601 46.5364L78.3401 47.1164C78.2001 48.6564 77.9801 49.5764 77.6601 49.8564C77.3401 50.1364 76.8601 50.2764 76.2201 50.2764H74.0801C72.8401 50.2764 72.2201 49.6364 72.2201 48.3564V45.9164H70.6201C70.3601 47.0364 69.8801 47.9764 69.1601 48.6964C68.3201 49.4964 66.9201 50.1164 64.9401 50.5964L64.1601 48.7164C65.7401 48.4364 66.8801 48.0164 67.5801 47.4764C68.0801 47.0764 68.4401 46.5564 68.6601 45.9164H66.7801V39.1964ZM74.7401 44.2364V43.2564H68.6801V44.2364H74.7401ZM68.6801 41.8364H74.7401V40.8364H68.6801V41.8364ZM65.8201 43.7964V45.9164C64.0601 46.7964 62.1801 47.5364 60.1801 48.1564L59.6201 45.8564C60.2601 45.7364 60.9001 45.5764 61.5401 45.3964V38.6964H59.6801V36.6764H61.5401V32.0964H63.6401V36.6764H65.1401V38.6964H63.6401V44.7164C64.3601 44.4364 65.1001 44.1364 65.8201 43.7964Z" fill="#009190"/>
<path fill-rule="evenodd" clip-rule="evenodd" d="M0 199.756H8.34C7.98 199.016 7.56 198.316 7.06 197.636L9.04 196.896C9.56 197.696 10.06 198.656 10.5 199.756H17.88V201.776H7.52C7.48 202.536 7.44 203.516 7.36 204.736H15.6C15.52 209.176 15.32 211.956 15 213.036C14.54 214.596 13.52 215.376 11.96 215.416C11.3 215.416 10.54 215.376 9.66 215.316L9.04 213.416C10.1 213.476 11 213.516 11.74 213.516C12.52 213.476 13.02 212.896 13.26 211.776C13.38 211.156 13.44 209.476 13.48 206.716H7.12C6.84 208.236 6.36 209.616 5.66 210.876C4.68 212.616 3.3 214.216 1.52 215.656L0 214.176C2.12 212.416 3.52 210.776 4.2 209.276C4.86 207.776 5.24 206.076 5.34 204.196C5.38 203.196 5.42 202.396 5.44 201.776H0V199.756ZM33.22 197.056H35.34V200.016H40.26V202.036H35.34V205.136H40.78V207.176H34.3C33.22 209.736 32.24 211.636 31.4 212.876C33.48 212.636 35.56 212.296 37.62 211.876C37.12 210.836 36.62 209.896 36.1 209.016L38.12 208.336C39.28 210.336 40.3 212.456 41.18 214.736L39.2 215.616C38.94 214.936 38.68 214.296 38.44 213.696C35.46 214.296 32.24 214.756 28.76 215.096L28.3 213.276C28.5 213.216 28.64 213.156 28.74 213.096C29.58 212.336 30.7 210.376 32.06 207.176H27.74V205.136H33.22V202.036H28.7V200.016H33.22V197.056ZM24.7 197.176C25.98 198.176 27.06 199.156 27.96 200.136L26.48 201.636C25.72 200.696 24.62 199.696 23.2 198.616L24.7 197.176ZM24.2 201.856C25.38 202.856 26.38 203.856 27.22 204.856L25.72 206.336C25.02 205.416 24.02 204.396 22.72 203.296L24.2 201.856ZM26 207.516L27.9 208.296C27.04 210.796 26.08 213.156 25.04 215.356L22.94 214.436C24.12 212.196 25.14 209.876 26 207.516Z" fill="#009190"/>
<path fill-rule="evenodd" clip-rule="evenodd" d="M390.66 203.976V213.456H388.72V204.796C388.32 205.976 387.84 207.076 387.32 208.096L386.48 205.956C387.44 204.416 388.14 202.656 388.62 200.696H386.96V198.756H388.72V195.016H390.66V198.756H392.02V200.696H390.66V201.616C391.28 202.336 391.9 203.096 392.52 203.936L391.48 205.496C391.16 204.916 390.9 204.416 390.66 203.976ZM403.06 213.356C402.1 213.336 401.2 212.776 400.36 211.676C399.32 212.416 398.14 213.036 396.84 213.516L396.02 211.716C397.26 211.276 398.38 210.696 399.34 210.016C398.9 209.116 398.54 208.076 398.26 206.896V206.856H395.62C395.62 207.096 395.6 207.316 395.6 207.536C396.6 208.016 397.5 208.556 398.3 209.196L397.26 210.776C396.62 210.216 396 209.756 395.38 209.376C395.06 210.976 394.12 212.336 392.56 213.456L391.28 211.816C392.6 210.956 393.4 209.816 393.64 208.396C393.72 207.936 393.76 207.416 393.8 206.856H391.94V205.016H397.92C397.68 203.416 397.58 201.656 397.58 199.736V197.836C396.86 199.076 396.22 200.116 395.68 200.916L396.68 200.576C396.98 201.556 397.24 202.676 397.48 203.916L396.2 204.256C396.16 203.976 396.1 203.716 396.04 203.476C395.04 203.636 393.94 203.776 392.72 203.936L392.42 202.556C392.9 202.396 393.62 201.556 394.58 200.036C393.94 200.116 393.26 200.176 392.54 200.236L392.26 198.916C392.64 198.736 393.28 197.456 394.2 195.076L395.8 195.636C395.12 197.076 394.56 198.116 394.12 198.756C394.6 198.696 395.04 198.636 395.44 198.596C395.72 198.076 396.02 197.516 396.34 196.956L397.58 197.376V195.036H399.5V199.736C399.5 201.716 399.62 203.476 399.82 205.016H401.48C401.28 204.716 401.08 204.436 400.86 204.156L402.46 203.556C402.74 203.976 403.02 204.456 403.28 205.016H405.08V206.856H402.64L403.9 207.816C403.28 208.856 402.54 209.776 401.7 210.576C402.12 211.116 402.52 211.396 402.9 211.396C403.2 211.396 403.46 210.616 403.7 209.096L405.32 210.156C404.82 212.276 404.06 213.356 403.06 213.356ZM402.36 206.856H400.16C400.32 207.596 400.52 208.256 400.76 208.836C401.38 208.216 401.92 207.556 402.36 206.856ZM395.52 201.136C395.14 201.656 394.8 202.096 394.52 202.416L395.78 202.196C395.7 201.816 395.6 201.456 395.52 201.136ZM404.12 200.136C404.52 201.136 404.88 202.276 405.2 203.596L403.84 203.936C403.76 203.636 403.7 203.356 403.64 203.116C402.6 203.276 401.42 203.416 400.14 203.576L399.82 202.196C400.3 202.036 401 201.236 401.92 199.816C401.28 199.896 400.58 199.956 399.86 200.016L399.58 198.756C399.94 198.576 400.6 197.356 401.54 195.096L403.08 195.636C402.4 196.956 401.86 197.936 401.42 198.576C401.92 198.516 402.38 198.456 402.78 198.416C403.06 197.936 403.36 197.416 403.66 196.876L405.1 197.376C404.38 198.596 403.74 199.616 403.18 200.436L404.12 200.136ZM402.94 200.776C402.56 201.316 402.22 201.756 401.94 202.076C402.42 201.996 402.86 201.916 403.3 201.856C403.18 201.456 403.06 201.096 402.94 200.776ZM420.12 204.276H417.54C416.58 205.296 415.38 206.176 413.94 206.896H418.14V213.536H416.3V212.776H413.6V213.536H411.78V207.816C411.38 207.956 411 208.096 410.6 208.216L409.64 206.496C411.76 205.896 413.44 205.156 414.72 204.276H410V202.436H416.66C416.98 201.996 417.24 201.536 417.44 201.096L419.42 201.316C419.26 201.696 419.08 202.076 418.88 202.436H423.06C422.82 202.056 422.6 201.716 422.36 201.396L423.7 200.956H419.78V195.636H426.52V200.956H424.22C424.54 201.436 424.84 201.916 425.12 202.436H427.8V204.276H423.38C425.22 205.076 426.88 205.916 428.32 206.816L427.02 208.356L426.36 207.856V213.536H424.52V212.776H421.48V213.536H419.64V206.896H424.98C423.58 205.976 421.96 205.096 420.12 204.276ZM421.48 211.016H424.52V208.616H421.48V211.016ZM413.6 211.016H416.3V208.616H413.6V211.016ZM411.52 195.636H418.06V200.956H411.52V195.636ZM416.18 199.236V197.396H413.4V199.236H416.18ZM424.64 199.236V197.396H421.66V199.236H424.64Z" fill="#009190"/>
<path fill-rule="evenodd" clip-rule="evenodd" d="M354.804 37.1504C354.804 38.8982 354.744 40.3877 354.665 41.6191C355.817 46.8426 358.657 50.8346 363.165 53.5953L361.775 55.4225C358.061 52.92 355.439 49.5834 353.91 45.3927C352.599 49.4443 349.878 52.8009 345.747 55.4622L344.476 53.5953C349.799 50.4175 352.52 45.9687 352.679 40.2686C352.679 38.9379 352.699 37.9051 352.699 37.1504H354.804ZM370.972 37.7065H382.431V41.9568H370.972V37.7065ZM380.445 40.4275V39.2557H372.938V40.4275H380.445ZM369.859 42.7909H383.583V52.0263H380.227C382.173 52.7611 383.842 53.496 385.232 54.2309L383.802 55.6807C382.451 54.7671 380.505 53.8138 377.983 52.8009L378.797 52.0263H374.447L375.381 52.8207C373.712 53.8932 371.667 54.8465 369.204 55.6608L368.012 54.0918C370.078 53.4761 371.846 52.781 373.315 52.0263H369.859V42.7909ZM381.597 50.2785V49.3053H371.846V50.2785H381.597ZM371.846 47.7562H381.597V46.8823H371.846V47.7562ZM371.846 45.3331H381.597V44.4195H371.846V45.3331Z" fill="#009190"/>
<path fill-rule="evenodd" clip-rule="evenodd" d="M199.64 323.956L201.6 324.476C201.4 325.376 201.2 326.216 200.98 327.016H208.54C208.54 333.976 208.44 338.256 208.24 339.856C208 341.576 206.86 342.436 204.82 342.436C204.54 342.436 204.02 342.396 203.3 342.336L202.82 340.476C203.46 340.536 204 340.576 204.48 340.576C205.54 340.576 206.16 340.016 206.32 338.916C206.44 337.976 206.5 334.676 206.54 329.016H205.82C205.4 332.216 204.82 334.776 204.06 336.656C203.14 338.776 201.76 340.696 199.96 342.376L198.66 340.716C200.3 339.236 201.52 337.596 202.34 335.756C203.04 334.056 203.58 331.816 203.96 329.016H202.96C202.12 333.256 200.62 336.376 198.44 338.336L197.1 336.776C199.02 335.136 200.36 332.556 201.1 329.016H200.26C199.76 330.196 199.18 331.196 198.52 331.996L197 330.696C198.24 329.136 199.12 326.876 199.64 323.956ZM192.92 329.976C192.76 330.916 192.58 331.836 192.36 332.716L190.52 332.196C191.06 330.096 191.36 327.876 191.44 325.556L193.3 325.696C193.26 326.456 193.22 327.216 193.16 327.976H194.02V324.036H196.06V327.976H197.42V329.976H196.06V333.976C196.48 333.776 196.9 333.576 197.34 333.376V335.336C196.9 335.536 196.48 335.716 196.06 335.916V342.516H194.02V336.736C193.12 337.056 192.2 337.376 191.26 337.656L190.76 335.636C191.86 335.416 192.94 335.116 194.02 334.756V329.976H192.92ZM215.66 325.656C216 326.856 216.32 328.256 216.6 329.816L215 330.256C214.72 328.856 214.36 327.496 213.94 326.216L215.66 325.656ZM220.08 325.456L221.82 325.696C221.7 327.356 221.44 328.836 221.02 330.116L219.48 329.616C219.8 328.416 220 327.016 220.08 325.456ZM214.2 330.836H217.02V323.996H219.06V330.836H221.66V332.856H219.06V342.456H217.02V332.856H214.2V330.836ZM228.26 324.056H230.28V335.196L231.9 334.956L232.24 336.956L230.28 337.256V342.496H228.26V337.556L222.52 338.416L222.22 336.416L228.26 335.496V324.056ZM224.38 325.416C225.74 326.396 226.9 327.356 227.82 328.316L226.44 329.676C225.64 328.756 224.5 327.776 223.04 326.716L224.38 325.416ZM223.88 330.116C225.2 331.156 226.32 332.176 227.24 333.196L225.84 334.556C225.08 333.576 223.96 332.516 222.52 331.396L223.88 330.116ZM220.94 333.556C221.36 334.916 221.74 336.476 222.06 338.236L220.5 338.636C220.26 337.016 219.96 335.476 219.6 333.996L220.94 333.556ZM215.06 333.636L216.56 334.036C216.16 336.116 215.7 337.956 215.14 339.536L213.62 338.996C214.18 337.596 214.66 335.796 215.06 333.636Z" fill="#009190"/>
<path fill-rule="evenodd" clip-rule="evenodd" d="M84.2085 210.949C84.2085 209.666 85.2565 208.623 86.5445 208.623C87.8326 208.623 88.8805 209.666 88.8805 210.949C88.8805 212.232 87.8326 213.276 86.5445 213.276C85.2564 213.276 84.2085 212.232 84.2085 210.949ZM85.5929 210.949C85.5929 211.472 86.0198 211.897 86.5444 211.897C87.0691 211.897 87.496 211.472 87.496 210.949C87.496 210.427 87.0691 210.002 86.5444 210.002C86.0198 210.002 85.5929 210.427 85.5929 210.949Z" fill="#0F9696"/>
<path fill-rule="evenodd" clip-rule="evenodd" d="M90.8002 206.417C92.0706 207.558 92.7945 209.125 92.8386 210.829C92.8825 212.532 92.2406 214.134 91.0309 215.339C89.8605 216.505 88.3154 217.142 86.6664 217.142C86.6189 217.142 86.5713 217.142 86.5237 217.141C84.8213 217.103 83.2509 216.393 82.1018 215.141L71.6999 203.811C71.4419 203.53 71.4615 203.093 71.7435 202.836C72.0256 202.579 72.4633 202.599 72.7215 202.88L83.1235 214.21C84.0151 215.182 85.2337 215.733 86.5546 215.762C87.873 215.79 89.1177 215.295 90.0519 214.364C90.9907 213.429 91.4888 212.186 91.4547 210.864C91.4206 209.543 90.8588 208.327 89.873 207.441L75.8831 194.872L75.0552 195.697L75.7358 196.375C76.2172 196.854 76.4822 197.492 76.4822 198.17C76.4822 198.848 76.2172 199.486 75.7358 199.965L74.1369 201.558C73.9428 201.751 73.6528 201.812 73.3968 201.713C72.0129 201.178 70.4413 201.507 69.3925 202.551C68.344 203.596 68.0137 205.161 68.5509 206.54C68.6503 206.795 68.5891 207.084 68.3952 207.277L59.9194 215.72C58.8079 216.827 57.33 217.437 55.7581 217.437C54.1862 217.437 52.7084 216.827 51.5967 215.719C49.3022 213.434 49.3022 209.715 51.5967 207.429L60.0725 198.987C60.2666 198.794 60.5568 198.733 60.8126 198.832C62.1966 199.367 63.7681 199.038 64.8167 197.993C65.097 197.714 65.3243 197.397 65.4991 197.056L61.8615 193.094C58.0823 194.31 53.8931 193.32 51.0704 190.509C48.1064 187.556 47.1618 183.127 48.6642 179.225C48.7482 179.007 48.9372 178.846 49.1665 178.798C49.3959 178.749 49.6342 178.82 49.8 178.985L55.2347 184.398C55.3956 184.558 55.6094 184.647 55.8368 184.647C56.0641 184.647 56.2779 184.558 56.4387 184.398L59.968 180.883C60.1289 180.722 60.2175 180.509 60.2175 180.283C60.2175 180.056 60.1288 179.843 59.968 179.683L54.5334 174.27C54.3676 174.105 54.2971 173.867 54.3458 173.639C54.3945 173.41 54.5561 173.222 54.775 173.138C58.6925 171.642 63.1388 172.583 66.1028 175.535C68.9964 178.417 69.9624 182.673 68.6285 186.497L73.3334 190.724L77.6564 186.418C77.9268 186.149 78.365 186.149 78.6354 186.418C78.9058 186.688 78.9058 187.124 78.6354 187.393L72.6773 193.328L74.0761 194.722L87.7261 181.125L86.3273 179.732L80.9898 185.048C80.7194 185.317 80.2812 185.317 80.0108 185.048C79.7404 184.779 79.7404 184.342 80.0108 184.073L85.8272 178.279C85.8515 178.198 85.8831 178.118 85.9242 178.04L87.3327 175.382C87.5274 175.015 87.8755 174.769 88.2877 174.707C88.7003 174.645 89.1055 174.777 89.4004 175.071L92.405 178.064C92.6998 178.358 92.8331 178.762 92.7708 179.172C92.7086 179.583 92.4614 179.93 92.0927 180.123L89.4242 181.526C89.347 181.567 89.267 181.597 89.186 181.621L76.8632 193.896L90.8002 206.417ZM88.5031 176.128L87.1779 178.628L88.8336 180.278L91.3442 178.958L88.5031 176.128ZM62.5757 191.829C62.3851 191.621 62.0874 191.55 61.8229 191.648C58.4379 192.906 54.6013 192.076 52.0493 189.534C49.732 187.226 48.8341 183.879 49.6253 180.761L54.2557 185.373C54.678 185.794 55.2395 186.026 55.8367 186.026C56.4338 186.026 56.9953 185.794 57.4176 185.373L60.9469 181.858C61.3692 181.437 61.6017 180.878 61.6017 180.283C61.6017 179.688 61.3692 179.129 60.9469 178.708L56.3167 174.096C59.4468 173.307 62.8066 174.202 65.1238 176.51C67.7408 179.117 68.5449 183.015 67.1728 186.44C67.0654 186.708 67.1369 187.014 67.3521 187.208L72.3532 191.701L71.6983 192.353L71.0177 191.675C70.5363 191.196 69.8962 190.932 69.2154 190.932C68.5347 190.932 67.8945 191.196 67.4131 191.675L65.8143 193.268C65.6204 193.461 65.5592 193.75 65.6586 194.005C65.8427 194.477 65.9226 194.971 65.9089 195.459L62.5757 191.829ZM73.4611 200.28L74.7566 198.99C75.2107 198.538 75.2107 197.802 74.7566 197.35L73.5865 196.184L71.2088 193.816L70.0388 192.65C69.5849 192.198 68.8461 192.198 68.3922 192.65L67.0966 193.941C67.6104 195.716 67.123 197.647 65.796 198.968C64.4687 200.29 62.5303 200.776 60.7485 200.264L52.576 208.405C50.8213 210.153 50.8213 212.997 52.576 214.744C53.4259 215.591 54.5562 216.057 55.7582 216.057C56.9603 216.057 58.0904 215.591 58.9404 214.744L67.113 206.604C66.5992 204.829 67.0865 202.898 68.4135 201.576H68.4136C69.7408 200.254 71.6795 199.769 73.4611 200.28Z" fill="#0F9696"/>
<path d="M62.1348 202.868C61.8644 202.599 61.4262 202.599 61.1557 202.868L54.5983 209.4C54.3279 209.67 54.3279 210.106 54.5983 210.376C54.7334 210.51 54.9107 210.577 55.0878 210.577C55.2649 210.577 55.4422 210.51 55.5773 210.376L62.1348 203.844C62.4051 203.574 62.4051 203.138 62.1348 202.868Z" fill="#0F9696"/>
<path d="M64.5577 205.282C64.2873 205.013 63.849 205.013 63.5786 205.282L57.0211 211.814C56.7508 212.083 56.7508 212.52 57.0211 212.789C57.1563 212.924 57.3335 212.991 57.5107 212.991C57.6877 212.991 57.865 212.924 58.0002 212.789L64.5577 206.257C64.828 205.988 64.828 205.551 64.5577 205.282Z" fill="#0F9696"/>
<path fill-rule="evenodd" clip-rule="evenodd" d="M133.241 49.1184H131.082V40.0579C131.513 39.6786 131.786 39.1232 131.786 38.5049C131.786 37.3644 130.858 36.4367 129.718 36.4367H125.406L124.74 25.782C124.718 25.4346 124.43 25.164 124.082 25.164H121.264C120.915 25.164 120.627 25.4346 120.606 25.782L119.94 36.4367H118.36L117.694 25.782C117.672 25.4346 117.384 25.164 117.036 25.164H114.218C113.87 25.164 113.582 25.4346 113.56 25.782L112.894 36.4367H111.315L110.649 25.782C110.627 25.4346 110.339 25.164 109.991 25.164H107.173C106.825 25.164 106.537 25.4346 106.515 25.782L105.849 36.4367H104.013L103.605 18.0586C103.597 17.7003 103.304 17.4141 102.946 17.4141H98.7183C98.3599 17.4141 98.0672 17.7003 98.0592 18.0586L97.5882 39.2549H92.3772C91.2367 39.2549 90.309 40.1827 90.309 41.3231C90.309 41.9414 90.582 42.4968 91.0135 42.8762V49.1184H89.5591C89.195 49.1184 88.8999 49.4135 88.8999 49.7776C88.8999 50.1416 89.195 50.4368 89.5591 50.4368H133.241C133.605 50.4368 133.9 50.1416 133.9 49.7776C133.9 49.4135 133.605 49.1184 133.241 49.1184ZM97.5254 42.0731H95.1957C94.8316 42.0731 94.5365 42.3682 94.5365 42.7323C94.5365 43.0963 94.8316 43.3915 95.1957 43.3915H97.4961L97.3689 49.1184H92.3319V43.3902L92.348 43.3907L92.3482 43.3907C92.3578 43.391 92.3675 43.3914 92.3772 43.3914C92.7412 43.3914 93.0364 43.0962 93.0364 42.7322C93.0364 42.3681 92.7412 42.073 92.3772 42.073C91.9637 42.073 91.6273 41.7366 91.6273 41.3231C91.6273 40.9096 91.9638 40.5732 92.3772 40.5732H97.5587L97.5254 42.0731ZM123.462 26.4824H121.883L121.261 36.4367H124.085L123.462 26.4824ZM114.837 26.4824H116.417L117.039 36.4367H114.215L114.837 26.4824ZM109.372 26.4824H107.792L107.17 36.4367H109.994L109.372 26.4824ZM100.173 49.1184H98.6877L99.3628 18.7323H102.301L102.694 36.4367H101.536C100.396 36.4367 99.468 37.3645 99.468 38.5049C99.468 39.1232 99.7411 39.6786 100.173 40.0579V49.1184ZM128.309 39.2548H129.718C130.132 39.2548 130.468 38.9184 130.468 38.5049C130.468 38.0914 130.132 37.755 129.718 37.755H101.536C101.123 37.755 100.786 38.0915 100.786 38.5049C100.786 38.9184 101.123 39.2548 101.536 39.2548H125.491C125.855 39.2548 126.15 39.5499 126.15 39.914C126.15 40.278 125.855 40.5732 125.491 40.5732H101.536C101.527 40.5732 101.517 40.5728 101.507 40.5725C101.502 40.5723 101.496 40.5721 101.491 40.572V49.1184H129.763V40.572C129.753 40.5722 129.742 40.5727 129.732 40.573C129.727 40.5731 129.723 40.5732 129.718 40.5732H128.309C127.945 40.5732 127.65 40.278 127.65 39.914C127.65 39.5499 127.945 39.2548 128.309 39.2548Z" fill="#0F9696"/>
<path d="M125.491 5.43652C123.505 5.43652 121.612 6.12954 120.098 7.39947C119.012 6.5842 117.695 6.14105 116.332 6.14105C114.676 6.14105 113.096 6.79452 111.922 7.94984C111.313 7.68731 110.654 7.55012 109.991 7.55012C108.031 7.55012 106.284 8.72355 105.517 10.4797C105.253 10.4056 104.982 10.3682 104.707 10.3682C103.345 10.3682 102.174 11.2537 101.756 12.4941C101.683 12.4861 101.609 12.4819 101.536 12.4819C100.396 12.4819 99.4678 13.4098 99.4678 14.5502C99.4679 14.9143 99.763 15.2094 100.127 15.2094C100.491 15.2094 100.786 14.9143 100.786 14.5503C100.786 14.1367 101.123 13.8004 101.536 13.8004C101.667 13.8004 101.795 13.8374 101.917 13.9104C102.115 14.0286 102.36 14.0351 102.563 13.9278C102.767 13.8204 102.9 13.6146 102.914 13.3847C102.971 12.4326 103.759 11.6868 104.706 11.6868C105.006 11.6868 105.302 11.7677 105.585 11.9274C105.763 12.0275 105.977 12.0397 106.165 11.9603C106.353 11.8809 106.494 11.719 106.546 11.5218C106.96 9.95964 108.376 8.86856 109.991 8.86856C110.602 8.86856 111.208 9.02853 111.743 9.33104C112.016 9.48573 112.361 9.42605 112.566 9.18822C113.515 8.08959 114.888 7.4595 116.331 7.4595C117.566 7.4595 118.753 7.92031 119.673 8.75694C119.93 8.99038 120.324 8.98467 120.574 8.74376C121.905 7.46117 123.651 6.75488 125.491 6.75488C129.401 6.75488 132.581 9.93582 132.581 13.8456C132.581 17.7554 129.401 20.9364 125.491 20.9364C122.895 20.9364 120.508 19.5191 119.263 17.2375C119.097 16.9332 118.723 16.8097 118.409 16.9547C117.747 17.2592 117.049 17.4136 116.332 17.4136C114.888 17.4136 113.515 16.7836 112.567 15.6849C112.361 15.4472 112.017 15.3874 111.743 15.5421C111.208 15.8446 110.602 16.0046 109.991 16.0046C108.877 16.0046 107.846 15.4946 107.163 14.6053C107.039 14.4438 106.847 14.3487 106.643 14.3477C106.642 14.3477 106.641 14.3477 106.64 14.3477C106.438 14.3477 106.246 14.4407 106.121 14.6001C105.773 15.0449 105.257 15.3 104.707 15.3C104.343 15.3 104.047 15.5951 104.047 15.9591C104.047 16.3232 104.343 16.6183 104.707 16.6183C105.405 16.6183 106.07 16.3849 106.611 15.9614C107.516 16.834 108.713 17.3229 109.991 17.3229C110.654 17.3229 111.313 17.1857 111.922 16.9232C113.096 18.0785 114.676 18.732 116.332 18.732C117.042 18.732 117.738 18.6127 118.406 18.3769C119.947 20.7829 122.61 22.2547 125.491 22.2547C130.127 22.2547 133.9 18.4824 133.9 13.8456C133.9 9.20888 130.127 5.43652 125.491 5.43652Z" fill="#0F9696"/>
<path d="M105.764 42.0728C105.4 42.0728 105.104 42.3679 105.104 42.7319V44.141C105.104 44.505 105.4 44.8002 105.764 44.8002C106.128 44.8002 106.423 44.505 106.423 44.141V42.7319C106.423 42.3679 106.128 42.0728 105.764 42.0728Z" fill="#0F9696"/>
<path d="M108.582 42.0728C108.218 42.0728 107.922 42.3679 107.922 42.7319V44.141C107.922 44.505 108.218 44.8002 108.582 44.8002C108.946 44.8002 109.241 44.505 109.241 44.141V42.7319C109.241 42.3679 108.946 42.0728 108.582 42.0728Z" fill="#0F9696"/>
<path d="M111.4 42.0728C111.036 42.0728 110.741 42.3679 110.741 42.7319V44.141C110.741 44.505 111.036 44.8002 111.4 44.8002C111.764 44.8002 112.059 44.505 112.059 44.141V42.7319C112.059 42.3679 111.764 42.0728 111.4 42.0728Z" fill="#0F9696"/>
<path d="M114.218 42.0728C113.854 42.0728 113.559 42.3679 113.559 42.7319V44.141C113.559 44.505 113.854 44.8002 114.218 44.8002C114.582 44.8002 114.877 44.505 114.877 44.141V42.7319C114.877 42.3679 114.582 42.0728 114.218 42.0728Z" fill="#0F9696"/>
<path d="M117.036 42.0728C116.672 42.0728 116.377 42.3679 116.377 42.7319V44.141C116.377 44.505 116.672 44.8002 117.036 44.8002C117.4 44.8002 117.695 44.505 117.695 44.141V42.7319C117.695 42.3679 117.4 42.0728 117.036 42.0728Z" fill="#0F9696"/>
<path d="M119.854 42.0728C119.49 42.0728 119.195 42.3679 119.195 42.7319V44.141C119.195 44.505 119.49 44.8002 119.854 44.8002C120.219 44.8002 120.514 44.505 120.514 44.141V42.7319C120.514 42.3679 120.219 42.0728 119.854 42.0728Z" fill="#0F9696"/>
<path d="M122.672 42.0728C122.308 42.0728 122.013 42.3679 122.013 42.7319V44.141C122.013 44.505 122.308 44.8002 122.672 44.8002C123.036 44.8002 123.332 44.505 123.332 44.141V42.7319C123.332 42.3679 123.036 42.0728 122.672 42.0728Z" fill="#0F9696"/>
<path d="M125.491 42.0728C125.127 42.0728 124.832 42.3679 124.832 42.7319V44.141C124.832 44.505 125.127 44.8002 125.491 44.8002C125.855 44.8002 126.15 44.505 126.15 44.141V42.7319C126.15 42.3679 125.855 42.0728 125.491 42.0728Z" fill="#0F9696"/>
<path d="M218.501 163.103C218.294 163.16 218.086 163.235 217.878 163.273C217.349 163.405 216.82 163.518 216.273 163.575L208.037 166.975C208.056 166.975 208.075 166.975 208.113 166.975C208.528 166.918 208.963 166.862 209.359 166.767C209.454 166.748 209.548 166.711 209.643 166.692C209.85 166.635 210.058 166.578 210.266 166.522C210.474 166.465 210.682 166.427 210.87 166.352C211.116 166.257 211.362 166.182 211.607 166.068L219.843 162.668C219.408 162.838 218.955 162.971 218.501 163.103Z" fill="url(#paint0_linear)"/>
<path d="M208.037 166.976C213.137 166.39 217.349 162.971 219.219 158.173L229.627 166.126L212.457 179.537L208.037 166.976Z" fill="url(#paint1_linear)"/>
<path d="M219.219 158.173L227.455 154.773L237.862 162.725L229.627 166.125L219.219 158.173Z" fill="url(#paint2_linear)"/>
<path d="M229.627 166.126L237.862 162.726L220.693 176.137L212.457 179.537L229.627 166.126Z" fill="url(#paint3_linear)"/>
<path d="M216.821 137.585L227.153 130.482L233.745 152.922L221.373 152.167C221.524 151.279 221.637 150.391 221.637 149.447C221.694 144.857 219.824 140.626 216.821 137.585Z" fill="url(#paint4_linear)"/>
<path d="M227.153 130.501L235.408 127.082L242 149.522L233.764 152.922L227.153 130.501Z" fill="url(#paint5_linear)"/>
<path d="M188.922 156.908C190.716 161.97 194.872 165.937 199.953 167.202L195.287 179.14L178.382 163.443L188.922 156.908Z" fill="url(#paint6_linear)"/>
<path d="M208.189 163.783C207.565 163.632 206.961 163.424 206.375 163.197C206.338 163.178 206.3 163.159 206.243 163.141C205.676 162.914 205.11 162.649 204.581 162.347C204.581 162.347 204.581 162.347 204.562 162.347C204.071 162.083 203.599 161.762 203.145 161.441C203.013 161.346 202.862 161.252 202.73 161.138C202.428 160.912 202.163 160.666 201.88 160.44C201.653 160.251 201.426 160.062 201.219 159.854C200.935 159.571 200.652 159.287 200.388 158.985C200.255 158.834 200.123 158.683 199.991 158.532C199.632 158.078 199.273 157.625 198.952 157.134C198.933 157.115 198.914 157.077 198.895 157.058C198.555 156.548 198.253 156.001 197.97 155.453C197.875 155.283 197.8 155.094 197.724 154.924C197.516 154.452 197.29 153.998 197.12 153.507L188.884 156.907C188.941 157.096 189.016 157.266 189.092 157.455C189.205 157.757 189.356 158.041 189.489 158.324C189.564 158.494 189.64 158.683 189.734 158.853C190.018 159.401 190.32 159.948 190.66 160.458C190.679 160.477 190.698 160.515 190.716 160.534C191.038 161.025 191.378 161.478 191.755 161.932C191.888 162.083 192.02 162.234 192.152 162.385C192.36 162.612 192.549 162.838 192.756 163.046C192.832 163.122 192.908 163.178 192.983 163.254C193.191 163.462 193.418 163.651 193.644 163.839C193.814 163.991 193.965 164.161 194.154 164.293C194.268 164.387 194.381 164.463 194.494 164.538C194.626 164.633 194.759 164.746 194.91 164.841C195.042 164.935 195.155 165.029 195.288 165.124C195.628 165.351 195.968 165.558 196.308 165.747C196.308 165.747 196.308 165.747 196.326 165.747C196.629 165.917 196.95 166.087 197.271 166.219C197.516 166.333 197.743 166.427 197.989 166.522C198.026 166.541 198.064 166.559 198.121 166.578C198.14 166.597 198.178 166.597 198.196 166.616C198.499 166.729 198.801 166.843 199.103 166.937C199.368 167.032 199.651 167.107 199.934 167.164L208.189 163.783Z" fill="url(#paint7_linear)"/>
<path d="M199.953 167.202L208.189 163.783L203.542 175.72L195.288 179.139L199.953 167.202Z" fill="url(#paint8_linear)"/>
<path d="M174 151.77L181.008 130.256L191.17 138.718C188.129 141.344 186.164 145.329 186.127 149.938C186.127 150.882 186.202 151.789 186.334 152.696L174 151.77Z" fill="url(#paint9_linear)"/>
<path d="M181.008 130.255L189.243 126.855L199.424 135.318L191.17 138.737L181.008 130.255Z" fill="url(#paint10_linear)"/>
<path d="M194.419 147.671C194.4 147.293 194.381 146.915 194.381 146.537C194.381 146.009 194.419 145.48 194.476 144.97C194.495 144.875 194.495 144.781 194.513 144.686C194.57 144.195 194.646 143.723 194.759 143.251C194.778 143.213 194.778 143.156 194.797 143.119C194.891 142.684 195.023 142.25 195.156 141.834C195.174 141.759 195.212 141.664 195.231 141.589C195.382 141.154 195.552 140.72 195.741 140.304C195.798 140.191 195.836 140.096 195.892 139.983C196.043 139.681 196.194 139.379 196.364 139.076C196.459 138.925 196.553 138.755 196.648 138.604C196.78 138.378 196.931 138.17 197.082 137.962C197.252 137.716 197.422 137.49 197.592 137.263C197.781 137.036 197.97 136.81 198.159 136.583C198.253 136.489 198.348 136.375 198.442 136.281C198.763 135.941 199.084 135.639 199.424 135.336L191.189 138.736C190.849 139.039 190.509 139.36 190.207 139.681C190.112 139.775 190.018 139.889 189.923 139.983C189.81 140.115 189.678 140.248 189.565 140.38C189.489 140.455 189.432 140.569 189.376 140.644C189.206 140.871 189.017 141.098 188.866 141.343C188.79 141.456 188.696 141.57 188.62 141.683C188.563 141.777 188.507 141.891 188.45 141.985C188.356 142.136 188.261 142.287 188.167 142.457C188.091 142.571 188.016 142.684 187.959 142.797C187.865 142.986 187.77 143.175 187.695 143.364C187.638 143.477 187.581 143.572 187.543 143.685C187.525 143.742 187.487 143.78 187.468 143.836C187.336 144.157 187.203 144.479 187.071 144.819C187.052 144.875 187.033 144.932 187.015 144.97C186.996 145.045 186.958 145.14 186.939 145.215C186.882 145.404 186.826 145.574 186.769 145.763C186.693 146.009 186.637 146.254 186.58 146.519C186.561 146.556 186.561 146.613 186.542 146.651C186.542 146.67 186.523 146.689 186.523 146.707C186.448 147.029 186.391 147.331 186.353 147.652C186.335 147.784 186.316 147.935 186.297 148.086C186.278 148.181 186.278 148.275 186.259 148.37C186.24 148.464 186.24 148.54 186.221 148.634C186.183 148.974 186.165 149.295 186.165 149.635C186.165 149.73 186.165 149.824 186.165 149.937C186.165 150.164 186.165 150.391 186.183 150.636C186.183 150.787 186.202 150.939 186.221 151.09C186.221 151.241 186.24 151.373 186.259 151.524C186.259 151.6 186.259 151.675 186.278 151.751C186.316 152.072 186.353 152.393 186.41 152.714L194.646 149.314C194.589 148.917 194.532 148.521 194.495 148.124C194.438 147.954 194.419 147.822 194.419 147.671Z" fill="url(#paint11_linear)"/>
<path d="M198.461 132.597L206.696 129.197C206.299 129.367 205.903 129.537 205.525 129.745L197.29 133.145C197.667 132.937 198.064 132.767 198.461 132.597Z" fill="#828282"/>
<path d="M197.289 133.146L193.682 120.584L215.612 122.058L211.758 134.128C209.643 132.692 207.187 131.804 204.543 131.616C201.917 131.427 199.443 132.012 197.289 133.146Z" fill="url(#paint12_linear)"/>
<path d="M193.683 120.566L201.919 117.166L223.848 118.658L215.613 122.058L193.683 120.566Z" fill="url(#paint13_linear)"/>
<path d="M215.612 122.057L223.847 118.657L220.013 130.708L211.758 134.127L215.612 122.057Z" fill="url(#paint14_linear)"/>
<defs>
<linearGradient id="paint0_linear" x1="208.03" y1="164.818" x2="219.846" y2="164.818" gradientUnits="userSpaceOnUse">
<stop stop-color="white"/>
<stop offset="0.9988" stop-color="#4DBDBC"/>
</linearGradient>
<linearGradient id="paint1_linear" x1="208.03" y1="168.856" x2="229.626" y2="168.856" gradientUnits="userSpaceOnUse">
<stop stop-color="white"/>
<stop offset="0.9988" stop-color="#4DBDBC"/>
</linearGradient>
<linearGradient id="paint2_linear" x1="219.22" y1="160.45" x2="237.867" y2="160.45" gradientUnits="userSpaceOnUse">
<stop stop-color="#009191"/>
<stop offset="1" stop-color="#006262"/>
</linearGradient>
<linearGradient id="paint3_linear" x1="212.454" y1="171.128" x2="237.867" y2="171.128" gradientUnits="userSpaceOnUse">
<stop stop-color="#169090"/>
<stop offset="0.9988" stop-color="#FFE200"/>
</linearGradient>
<linearGradient id="paint4_linear" x1="216.825" y1="141.71" x2="233.758" y2="141.71" gradientUnits="userSpaceOnUse">
<stop stop-color="white"/>
<stop offset="0.9988" stop-color="#4DBDBC"/>
</linearGradient>
<linearGradient id="paint5_linear" x1="227.161" y1="140.007" x2="242" y2="140.007" gradientUnits="userSpaceOnUse">
<stop stop-color="#169090"/>
<stop offset="0.9988" stop-color="#FFE200"/>
</linearGradient>
<linearGradient id="paint6_linear" x1="178.394" y1="168.017" x2="199.947" y2="168.017" gradientUnits="userSpaceOnUse">
<stop stop-color="white"/>
<stop offset="0.9988" stop-color="#4DBDBC"/>
</linearGradient>
<linearGradient id="paint7_linear" x1="188.915" y1="160.346" x2="208.188" y2="160.346" gradientUnits="userSpaceOnUse">
<stop stop-color="#009191"/>
<stop offset="1" stop-color="#1D2088"/>
</linearGradient>
<linearGradient id="paint8_linear" x1="195.295" y1="171.461" x2="208.188" y2="171.461" gradientUnits="userSpaceOnUse">
<stop stop-color="#009191"/>
<stop offset="1" stop-color="#006262"/>
</linearGradient>
<linearGradient id="paint9_linear" x1="174" y1="141.477" x2="191.178" y2="141.477" gradientUnits="userSpaceOnUse">
<stop stop-color="white"/>
<stop offset="0.9988" stop-color="#4DBDBC"/>
</linearGradient>
<linearGradient id="paint10_linear" x1="181.007" y1="132.791" x2="199.42" y2="132.791" gradientUnits="userSpaceOnUse">
<stop stop-color="#009191"/>
<stop offset="1" stop-color="#006262"/>
</linearGradient>
<linearGradient id="paint11_linear" x1="186.133" y1="144.008" x2="199.42" y2="144.008" gradientUnits="userSpaceOnUse">
<stop stop-color="#009191"/>
<stop offset="1" stop-color="#1D2088"/>
</linearGradient>
<linearGradient id="paint12_linear" x1="193.678" y1="127.346" x2="215.611" y2="127.346" gradientUnits="userSpaceOnUse">
<stop stop-color="white"/>
<stop offset="0.9988" stop-color="#4DBDBC"/>
</linearGradient>
<linearGradient id="paint13_linear" x1="193.679" y1="119.611" x2="223.854" y2="119.611" gradientUnits="userSpaceOnUse">
<stop stop-color="#009191"/>
<stop offset="1" stop-color="#006262"/>
</linearGradient>
<linearGradient id="paint14_linear" x1="211.766" y1="126.383" x2="223.853" y2="126.383" gradientUnits="userSpaceOnUse">
<stop stop-color="#169090"/>
<stop offset="0.9988" stop-color="#FFE200"/>
</linearGradient>
</defs>
</svg>
